<?xml version="1.0" encoding="UTF-8"?>
<!DOCTYPE svg PUBLIC "-//W3C//DTD SVG 1.1//EN" "http://www.w3.org/Graphics/SVG/1.1/DTD/svg11.dtd">
<svg xmlns="http://www.w3.org/2000/svg" version="1.1" width="110px" height="170px" style="shape-rendering:geometricPrecision; text-rendering:geometricPrecision; image-rendering:optimizeQuality; fill-rule:evenodd; clip-rule:evenodd" xmlns:xlink="http://www.w3.org/1999/xlink">
<g><path style="opacity:1" fill="#eff5e4" d="M -0.5,-0.5 C 36.1667,-0.5 72.8333,-0.5 109.5,-0.5C 109.5,56.1667 109.5,112.833 109.5,169.5C 72.8333,169.5 36.1667,169.5 -0.5,169.5C -0.5,112.833 -0.5,56.1667 -0.5,-0.5 Z"/></g>
<g><path style="opacity:1" fill="#d52222" d="M 1.5,4.5 C 2.5,4.5 3.5,4.5 4.5,4.5C 4.82662,9.21369 4.49329,13.8804 3.5,18.5C 2.67346,14.5408 2.17346,10.5408 2,6.5C 1.34569,7.69559 0.845686,7.69559 0.5,6.5C 0.862734,5.81654 1.19607,5.14987 1.5,4.5 Z"/></g>
<g><path style="opacity:1" fill="#d52826" d="M 7.5,4.5 C 9.14387,4.28649 10.6439,4.61983 12,5.5C 12.6667,9.5 12.6667,13.5 12,17.5C 10.3333,18.8333 8.66667,18.8333 7,17.5C 6.23158,13.0804 6.39825,8.74709 7.5,4.5 Z"/></g>
<g><path style="opacity:1" fill="#d52222" d="M 97.5,4.5 C 98.5,4.5 99.5,4.5 100.5,4.5C 100.827,9.21369 100.493,13.8804 99.5,18.5C 98.6735,14.5408 98.1735,10.5408 98,6.5C 97.3457,7.69559 96.8457,7.69559 96.5,6.5C 96.8627,5.81654 97.1961,5.14987 97.5,4.5 Z"/></g>
<g><path style="opacity:1" fill="#d52826" d="M 103.5,4.5 C 105.144,4.28649 106.644,4.61983 108,5.5C 108.667,9.5 108.667,13.5 108,17.5C 106.333,18.8333 104.667,18.8333 103,17.5C 102.232,13.0804 102.398,8.74709 103.5,4.5 Z"/></g>
<g><path style="opacity:1" fill="#eef1e1" d="M 8.5,6.5 C 9.77725,7.69363 10.4439,9.3603 10.5,11.5C 10.1667,13.1667 9.83333,14.8333 9.5,16.5C 8.51298,13.2317 8.17964,9.89838 8.5,6.5 Z"/></g>
<g><path style="opacity:1" fill="#eef1e1" d="M 104.5,6.5 C 105.777,7.69363 106.444,9.3603 106.5,11.5C 106.167,13.1667 105.833,14.8333 105.5,16.5C 104.513,13.2317 104.18,9.89838 104.5,6.5 Z"/></g>
<g><path style="opacity:1" fill="#d52825" d="M 21.5,16.5 C 24.9705,15.8748 27.8038,16.8748 30,19.5C 34.0734,15.3815 37.74,15.7148 41,20.5C 41.5516,23.4192 40.8849,26.0859 39,28.5C 36,31.5 33,34.5 30,37.5C 25.5823,33.7533 21.9156,29.4199 19,24.5C 18.3875,21.3893 19.2209,18.7226 21.5,16.5 Z"/></g>
<g><path style="opacity:1" fill="#d52725" d="M 71.5,16.5 C 74.6516,15.9586 77.1516,16.9586 79,19.5C 83.0734,15.3815 86.74,15.7148 90,20.5C 90.5516,23.4192 89.8849,26.0859 88,28.5C 85,31.5 82,34.5 79,37.5C 74.5823,33.7533 70.9156,29.4199 68,24.5C 67.2793,20.9463 68.4459,18.2796 71.5,16.5 Z"/></g>
<g><path style="opacity:1" fill="#d7362f" d="M 3.5,21.5 C 5.01739,21.5106 6.18405,22.1772 7,23.5C 10.7017,20.7414 12.3683,21.7414 12,26.5C 8.66667,33.1667 5.33333,33.1667 2,26.5C 1.38715,24.5048 1.88715,22.8381 3.5,21.5 Z"/></g>
<g><path style="opacity:1" fill="#d7362f" d="M 97.5,21.5 C 99.3904,21.2965 100.89,21.9632 102,23.5C 103.667,20.8333 105.333,20.8333 107,23.5C 106.885,26.3428 105.718,28.8428 103.5,31C 97.8797,30.2781 95.8797,27.1115 97.5,21.5 Z"/></g>
<g><path style="opacity:1" fill="#d52725" d="M 46.5,35.5 C 49.7553,35.0136 52.422,36.0136 54.5,38.5C 57.9581,34.5664 61.4581,34.5664 65,38.5C 65.8407,42.1202 65.174,45.4536 63,48.5C 60.3176,51.3497 57.4843,54.0164 54.5,56.5C 50.0973,53.2656 46.5973,49.2656 44,44.5C 42.9271,40.9003 43.7605,37.9003 46.5,35.5 Z"/></g>
<g><path style="opacity:1" fill="#d62e29" d="M 22.5,54.5 C 25.505,54.253 28.005,55.253 30,57.5C 34.0614,53.2635 37.728,53.5968 41,58.5C 40.2162,66.0249 36.3829,71.6916 29.5,75.5C 25.0973,72.2656 21.5973,68.2656 19,63.5C 18.3333,61.8333 18.3333,60.1667 19,58.5C 20.3756,57.2949 21.5423,55.9616 22.5,54.5 Z"/></g>
<g><path style="opacity:1" fill="#d62e29" d="M 71.5,54.5 C 74.505,54.253 77.005,55.253 79,57.5C 83.0614,53.2635 86.728,53.5968 90,58.5C 90.7063,60.9712 90.373,63.3046 89,65.5C 86.3535,69.3135 83.1868,72.6469 79.5,75.5C 72.6171,71.6916 68.7838,66.0249 68,58.5C 69.3756,57.2949 70.5423,55.9616 71.5,54.5 Z"/></g>
<g><path style="opacity:1" fill="#d62e29" d="M 28.5,93.5 C 36.1147,96.7632 40.2814,102.43 41,110.5C 37.728,115.403 34.0614,115.737 30,111.5C 25.9386,115.737 22.272,115.403 19,110.5C 18.2937,108.029 18.627,105.695 20,103.5C 22.6686,100 25.502,96.667 28.5,93.5 Z"/></g>
<g><path style="opacity:1" fill="#d62e29" d="M 78.5,93.5 C 85.7993,96.943 89.6327,102.61 90,110.5C 86.728,115.403 83.0614,115.737 79,111.5C 74.9386,115.737 71.272,115.403 68,110.5C 67.3333,108.833 67.3333,107.167 68,105.5C 70.6492,100.689 74.1492,96.6887 78.5,93.5 Z"/></g>
<g><path style="opacity:1" fill="#d52825" d="M 53.5,112.5 C 58.1024,115.267 61.9357,118.934 65,123.5C 66.8752,130.282 64.3752,133.448 57.5,133C 56.646,131.978 55.646,131.145 54.5,130.5C 46.5214,135.381 43.0214,133.048 44,123.5C 47.0024,119.666 50.1691,116 53.5,112.5 Z"/></g>
<g><path style="opacity:1" fill="#d52825" d="M 29.5,131.5 C 34.2113,135.045 38.0446,139.379 41,144.5C 41.6346,150.781 38.8013,153.281 32.5,152C 31.6667,151.167 30.8333,150.333 30,149.5C 22.4173,154.839 18.7506,152.839 19,143.5C 22.3362,139.332 25.8362,135.332 29.5,131.5 Z"/></g>
<g><path style="opacity:1" fill="#d52825" d="M 78.5,131.5 C 82.8309,134.998 86.6642,138.998 90,143.5C 91.1667,150.333 88.3333,153.167 81.5,152C 80.6667,151.167 79.8333,150.333 79,149.5C 74.9266,153.619 71.26,153.285 68,148.5C 67.4484,145.581 68.1151,142.914 70,140.5C 73.0379,137.631 75.8712,134.631 78.5,131.5 Z"/></g>
<g><path style="opacity:1" fill="#d7362f" d="M 5.5,137.5 C 10.0795,138.243 12.2462,140.91 12,145.5C 10.4506,148.003 8.78392,148.003 7,145.5C 5.33333,148.167 3.66667,148.167 2,145.5C 2.29198,142.57 3.45864,139.903 5.5,137.5 Z"/></g>
<g><path style="opacity:1" fill="#d7362f" d="M 100.5,137.5 C 103.642,137.799 105.809,139.466 107,142.5C 107.779,144.906 106.946,146.573 104.5,147.5C 103.522,147.023 102.689,146.357 102,145.5C 98.2983,148.259 96.6317,147.259 97,142.5C 97.9973,140.677 99.1639,139.01 100.5,137.5 Z"/></g>
<g><path style="opacity:1" fill="#d52826" d="M 1.5,150.5 C 3.14387,150.286 4.64387,150.62 6,151.5C 6.66667,155.5 6.66667,159.5 6,163.5C 4.33333,164.833 2.66667,164.833 1,163.5C 0.23158,159.08 0.398246,154.747 1.5,150.5 Z"/></g>
<g><path style="opacity:1" fill="#d52222" d="M 8.5,150.5 C 10.2684,154.044 11.1018,158.044 11,162.5C 11.6543,161.304 12.1543,161.304 12.5,162.5C 11.6798,164.111 10.3464,164.778 8.5,164.5C 8.5,159.833 8.5,155.167 8.5,150.5 Z"/></g>
<g><path style="opacity:1" fill="#d52826" d="M 97.5,150.5 C 99.1439,150.286 100.644,150.62 102,151.5C 102.667,155.5 102.667,159.5 102,163.5C 100.333,164.833 98.6667,164.833 97,163.5C 96.2316,159.08 96.3982,154.747 97.5,150.5 Z"/></g>
<g><path style="opacity:1" fill="#d52222" d="M 104.5,150.5 C 106.268,154.044 107.102,158.044 107,162.5C 107.654,161.304 108.154,161.304 108.5,162.5C 107.68,164.111 106.346,164.778 104.5,164.5C 104.5,159.833 104.5,155.167 104.5,150.5 Z"/></g>
<g><path style="opacity:1" fill="#eef1e1" d="M 2.5,152.5 C 3.77725,153.694 4.44392,155.36 4.5,157.5C 4.16667,159.167 3.83333,160.833 3.5,162.5C 2.51298,159.232 2.17964,155.898 2.5,152.5 Z"/></g>
<g><path style="opacity:1" fill="#eef1e1" d="M 98.5,152.5 C 99.7773,153.694 100.444,155.36 100.5,157.5C 100.167,159.167 99.8333,160.833 99.5,162.5C 98.513,159.232 98.1796,155.898 98.5,152.5 Z"/></g>
</svg>
