<?xml version="1.0" encoding="UTF-8"?>
<!DOCTYPE svg PUBLIC "-//W3C//DTD SVG 1.1//EN" "http://www.w3.org/Graphics/SVG/1.1/DTD/svg11.dtd">
<svg xmlns="http://www.w3.org/2000/svg" version="1.1" width="110px" height="170px" style="shape-rendering:geometricPrecision; text-rendering:geometricPrecision; image-rendering:optimizeQuality; fill-rule:evenodd; clip-rule:evenodd" xmlns:xlink="http://www.w3.org/1999/xlink">
<g><path style="opacity:1" fill="#eef5e4" d="M -0.5,-0.5 C 36.1667,-0.5 72.8333,-0.5 109.5,-0.5C 109.5,56.1667 109.5,112.833 109.5,169.5C 72.8333,169.5 36.1667,169.5 -0.5,169.5C -0.5,112.833 -0.5,56.1667 -0.5,-0.5 Z"/></g>
<g><path style="opacity:1" fill="#d62e29" d="M 4.5,4.5 C 6.14387,4.28649 7.64387,4.61983 9,5.5C 9.79615,9.75483 9.62948,13.9215 8.5,18C 6.35939,18.8837 4.69273,18.3837 3.5,16.5C 4.39138,15.4104 5.39138,15.4104 6.5,16.5C 7.38568,15.675 7.71901,14.675 7.5,13.5C 6.16667,13.5 4.83333,13.5 3.5,13.5C 3.26414,10.3915 3.59748,7.39147 4.5,4.5 Z"/></g>
<g><path style="opacity:1" fill="#d62e29" d="M 100.5,4.5 C 102.144,4.28649 103.644,4.61983 105,5.5C 105.796,9.75483 105.629,13.9215 104.5,18C 102.359,18.8837 100.693,18.3837 99.5,16.5C 100.391,15.4104 101.391,15.4104 102.5,16.5C 103.386,15.675 103.719,14.675 103.5,13.5C 102.167,13.5 100.833,13.5 99.5,13.5C 99.2641,10.3915 99.5975,7.39147 100.5,4.5 Z"/></g>
<g><path style="opacity:1" fill="#eef5e5" d="M 5.5,6.5 C 6.64911,6.79106 7.31577,7.62439 7.5,9C 7.16667,9.83333 6.83333,10.6667 6.5,11.5C 5.54811,9.95467 5.21478,8.28801 5.5,6.5 Z"/></g>
<g><path style="opacity:1" fill="#eef5e5" d="M 101.5,6.5 C 102.649,6.79106 103.316,7.62439 103.5,9C 103.167,9.83333 102.833,10.6667 102.5,11.5C 101.548,9.95467 101.215,8.28801 101.5,6.5 Z"/></g>
<g><path style="opacity:1" fill="#d52825" d="M 21.5,16.5 C 24.9705,15.8748 27.8038,16.8748 30,19.5C 34.0734,15.3815 37.74,15.7148 41,20.5C 41.5516,23.4192 40.8849,26.0859 39,28.5C 36,31.5 33,34.5 30,37.5C 25.5823,33.7533 21.9156,29.4199 19,24.5C 18.3875,21.3893 19.2209,18.7226 21.5,16.5 Z"/></g>
<g><path style="opacity:1" fill="#d52725" d="M 71.5,16.5 C 74.6516,15.9586 77.1516,16.9586 79,19.5C 83.0734,15.3815 86.74,15.7148 90,20.5C 90.5516,23.4192 89.8849,26.0859 88,28.5C 85,31.5 82,34.5 79,37.5C 74.5823,33.7533 70.9156,29.4199 68,24.5C 67.2793,20.9463 68.4459,18.2796 71.5,16.5 Z"/></g>
<g><path style="opacity:1" fill="#d7362f" d="M 3.5,21.5 C 5.01739,21.5106 6.18405,22.1772 7,23.5C 10.7017,20.7414 12.3683,21.7414 12,26.5C 8.66667,33.1667 5.33333,33.1667 2,26.5C 1.38715,24.5048 1.88715,22.8381 3.5,21.5 Z"/></g>
<g><path style="opacity:1" fill="#d7362f" d="M 97.5,21.5 C 99.3904,21.2965 100.89,21.9632 102,23.5C 103.667,20.8333 105.333,20.8333 107,23.5C 106.885,26.3428 105.718,28.8428 103.5,31C 97.8797,30.2781 95.8797,27.1115 97.5,21.5 Z"/></g>
<g><path style="opacity:1" fill="#d62e29" d="M 22.5,54.5 C 25.505,54.253 28.005,55.253 30,57.5C 34.0614,53.2635 37.728,53.5968 41,58.5C 40.2162,66.0249 36.3829,71.6916 29.5,75.5C 25.0973,72.2656 21.5973,68.2656 19,63.5C 18.3333,61.8333 18.3333,60.1667 19,58.5C 20.3756,57.2949 21.5423,55.9616 22.5,54.5 Z"/></g>
<g><path style="opacity:1" fill="#d62e29" d="M 71.5,54.5 C 74.505,54.253 77.005,55.253 79,57.5C 83.0614,53.2635 86.728,53.5968 90,58.5C 90.7063,60.9712 90.373,63.3046 89,65.5C 86.3535,69.3135 83.1868,72.6469 79.5,75.5C 72.6171,71.6916 68.7838,66.0249 68,58.5C 69.3756,57.2949 70.5423,55.9616 71.5,54.5 Z"/></g>
<g><path style="opacity:1" fill="#d52523" d="M 45.5,74.5 C 48.8066,74.0632 51.8066,74.7298 54.5,76.5C 64.1212,72.3574 67.2878,75.3574 64,85.5C 60.9845,88.6828 57.8178,91.6828 54.5,94.5C 50.4804,91.3141 46.9804,87.6475 44,83.5C 43.2069,80.2587 43.7069,77.2587 45.5,74.5 Z"/></g>
<g><path style="opacity:1" fill="#d62e29" d="M 28.5,93.5 C 36.1147,96.7632 40.2814,102.43 41,110.5C 37.728,115.403 34.0614,115.737 30,111.5C 25.9386,115.737 22.272,115.403 19,110.5C 18.2937,108.029 18.627,105.695 20,103.5C 22.6686,100 25.502,96.667 28.5,93.5 Z"/></g>
<g><path style="opacity:1" fill="#d62e29" d="M 78.5,93.5 C 85.7993,96.943 89.6327,102.61 90,110.5C 86.728,115.403 83.0614,115.737 79,111.5C 74.9386,115.737 71.272,115.403 68,110.5C 67.3333,108.833 67.3333,107.167 68,105.5C 70.6492,100.689 74.1492,96.6887 78.5,93.5 Z"/></g>
<g><path style="opacity:1" fill="#d52825" d="M 29.5,131.5 C 34.2113,135.045 38.0446,139.379 41,144.5C 41.6346,150.781 38.8013,153.281 32.5,152C 31.6667,151.167 30.8333,150.333 30,149.5C 22.4173,154.839 18.7506,152.839 19,143.5C 22.3362,139.332 25.8362,135.332 29.5,131.5 Z"/></g>
<g><path style="opacity:1" fill="#d52825" d="M 78.5,131.5 C 82.8309,134.998 86.6642,138.998 90,143.5C 91.1667,150.333 88.3333,153.167 81.5,152C 80.6667,151.167 79.8333,150.333 79,149.5C 74.9266,153.619 71.26,153.285 68,148.5C 67.4484,145.581 68.1151,142.914 70,140.5C 73.0379,137.631 75.8712,134.631 78.5,131.5 Z"/></g>
<g><path style="opacity:1" fill="#d7362f" d="M 5.5,137.5 C 10.0795,138.243 12.2462,140.91 12,145.5C 10.4506,148.003 8.78392,148.003 7,145.5C 5.33333,148.167 3.66667,148.167 2,145.5C 2.29198,142.57 3.45864,139.903 5.5,137.5 Z"/></g>
<g><path style="opacity:1" fill="#d7362f" d="M 100.5,137.5 C 103.642,137.799 105.809,139.466 107,142.5C 107.779,144.906 106.946,146.573 104.5,147.5C 103.522,147.023 102.689,146.357 102,145.5C 98.2983,148.259 96.6317,147.259 97,142.5C 97.9973,140.677 99.1639,139.01 100.5,137.5 Z"/></g>
<g><path style="opacity:1" fill="#d62e29" d="M 4.5,150.5 C 6.66485,150.116 8.33152,150.783 9.5,152.5C 8.60862,153.59 7.60862,153.59 6.5,152.5C 5.61432,153.325 5.28099,154.325 5.5,155.5C 6.83333,155.5 8.16667,155.5 9.5,155.5C 9.66409,158.187 9.49742,160.854 9,163.5C 7.61238,164.554 6.11238,164.72 4.5,164C 3.19435,159.501 3.19435,155.001 4.5,150.5 Z"/></g>
<g><path style="opacity:1" fill="#d62e29" d="M 100.5,150.5 C 102.665,150.116 104.332,150.783 105.5,152.5C 104.609,153.59 103.609,153.59 102.5,152.5C 101.614,153.325 101.281,154.325 101.5,155.5C 102.833,155.5 104.167,155.5 105.5,155.5C 105.664,158.187 105.497,160.854 105,163.5C 103.612,164.554 102.112,164.72 100.5,164C 99.1943,159.501 99.1943,155.001 100.5,150.5 Z"/></g>
<g><path style="opacity:1" fill="#eef5e5" d="M 5.5,157.5 C 6.64911,157.791 7.31577,158.624 7.5,160C 7.16667,160.833 6.83333,161.667 6.5,162.5C 5.54811,160.955 5.21478,159.288 5.5,157.5 Z"/></g>
<g><path style="opacity:1" fill="#eef5e5" d="M 101.5,157.5 C 102.649,157.791 103.316,158.624 103.5,160C 103.167,160.833 102.833,161.667 102.5,162.5C 101.548,160.955 101.215,159.288 101.5,157.5 Z"/></g>
</svg>
