<?xml version="1.0" encoding="UTF-8"?>
<!DOCTYPE svg PUBLIC "-//W3C//DTD SVG 1.1//EN" "http://www.w3.org/Graphics/SVG/1.1/DTD/svg11.dtd">
<svg xmlns="http://www.w3.org/2000/svg" version="1.1" width="110px" height="170px" style="shape-rendering:geometricPrecision; text-rendering:geometricPrecision; image-rendering:optimizeQuality; fill-rule:evenodd; clip-rule:evenodd" xmlns:xlink="http://www.w3.org/1999/xlink">
<g><path style="opacity:1" fill="#eef6e5" d="M -0.5,-0.5 C 36.1667,-0.5 72.8333,-0.5 109.5,-0.5C 109.5,56.1667 109.5,112.833 109.5,169.5C 72.8333,169.5 36.1667,169.5 -0.5,169.5C -0.5,112.833 -0.5,56.1667 -0.5,-0.5 Z"/></g>
<g><path style="opacity:1" fill="#d94137" d="M 5.5,4.5 C 6.4959,4.41423 7.32924,4.74756 8,5.5C 8.67558,9.20233 9.50891,12.869 10.5,16.5C 10.1667,17.1667 9.83333,17.8333 9.5,18.5C 8.61432,17.675 8.28099,16.675 8.5,15.5C 7.16667,15.5 5.83333,15.5 4.5,15.5C 4.71901,16.675 4.38568,17.675 3.5,18.5C 3.17036,13.7812 3.83702,9.11451 5.5,4.5 Z"/></g>
<g><path style="opacity:1" fill="#d94137" d="M 101.5,4.5 C 102.496,4.41423 103.329,4.74756 104,5.5C 104.676,9.20233 105.509,12.869 106.5,16.5C 106.167,17.1667 105.833,17.8333 105.5,18.5C 104.614,17.675 104.281,16.675 104.5,15.5C 103.167,15.5 101.833,15.5 100.5,15.5C 100.719,16.675 100.386,17.675 99.5,18.5C 99.1704,13.7812 99.837,9.11451 101.5,4.5 Z"/></g>
<g><path style="opacity:1" fill="#e9b6a9" d="M 5.5,10.5 C 7.46455,10.9483 7.79789,11.9483 6.5,13.5C 5.61432,12.675 5.28099,11.675 5.5,10.5 Z"/></g>
<g><path style="opacity:1" fill="#e9b6a9" d="M 101.5,10.5 C 103.465,10.9483 103.798,11.9483 102.5,13.5C 101.614,12.675 101.281,11.675 101.5,10.5 Z"/></g>
<g><path style="opacity:1" fill="#d7362f" d="M 3.5,21.5 C 5.01739,21.5106 6.18405,22.1772 7,23.5C 10.7017,20.7414 12.3683,21.7414 12,26.5C 8.66667,33.1667 5.33333,33.1667 2,26.5C 1.38715,24.5048 1.88715,22.8381 3.5,21.5 Z"/></g>
<g><path style="opacity:1" fill="#d7362f" d="M 97.5,21.5 C 99.3904,21.2965 100.89,21.9632 102,23.5C 103.667,20.8333 105.333,20.8333 107,23.5C 106.885,26.3428 105.718,28.8428 103.5,31C 97.8797,30.2781 95.8797,27.1115 97.5,21.5 Z"/></g>
<g><path style="opacity:1" fill="#d52523" d="M 45.5,74.5 C 48.8066,74.0632 51.8066,74.7298 54.5,76.5C 64.1212,72.3574 67.2878,75.3574 64,85.5C 60.9845,88.6828 57.8178,91.6828 54.5,94.5C 50.4804,91.3141 46.9804,87.6475 44,83.5C 43.2069,80.2587 43.7069,77.2587 45.5,74.5 Z"/></g>
<g><path style="opacity:1" fill="#d7362f" d="M 5.5,137.5 C 10.0795,138.243 12.2462,140.91 12,145.5C 10.4506,148.003 8.78392,148.003 7,145.5C 5.33333,148.167 3.66667,148.167 2,145.5C 2.29198,142.57 3.45864,139.903 5.5,137.5 Z"/></g>
<g><path style="opacity:1" fill="#d7362f" d="M 100.5,137.5 C 103.642,137.799 105.809,139.466 107,142.5C 107.779,144.906 106.946,146.573 104.5,147.5C 103.522,147.023 102.689,146.357 102,145.5C 98.2983,148.259 96.6317,147.259 97,142.5C 97.9973,140.677 99.1639,139.01 100.5,137.5 Z"/></g>
<g><path style="opacity:1" fill="#d52826" d="M 2.5,150.5 C 4.04814,150.821 4.71481,151.821 4.5,153.5C 5.83333,153.5 7.16667,153.5 8.5,153.5C 8.28099,152.325 8.61432,151.325 9.5,150.5C 7.96189,168.937 5.62856,168.937 2.5,150.5 Z"/></g>
<g><path style="opacity:1" fill="#d52826" d="M 98.5,150.5 C 100.048,150.821 100.715,151.821 100.5,153.5C 101.833,153.5 103.167,153.5 104.5,153.5C 104.281,152.325 104.614,151.325 105.5,150.5C 103.962,168.937 101.629,168.937 98.5,150.5 Z"/></g>
<g><path style="opacity:1" fill="#e3776b" d="M 5.5,155.5 C 6.64911,155.791 7.31577,156.624 7.5,158C 7.16667,158.833 6.83333,159.667 6.5,160.5C 5.54811,158.955 5.21478,157.288 5.5,155.5 Z"/></g>
<g><path style="opacity:1" fill="#e3776b" d="M 101.5,155.5 C 102.649,155.791 103.316,156.624 103.5,158C 103.167,158.833 102.833,159.667 102.5,160.5C 101.548,158.955 101.215,157.288 101.5,155.5 Z"/></g>
</svg>
