<?xml version="1.0" encoding="UTF-8"?>
<!DOCTYPE svg PUBLIC "-//W3C//DTD SVG 1.1//EN" "http://www.w3.org/Graphics/SVG/1.1/DTD/svg11.dtd">
<svg xmlns="http://www.w3.org/2000/svg" version="1.1" width="110px" height="170px" style="shape-rendering:geometricPrecision; text-rendering:geometricPrecision; image-rendering:optimizeQuality; fill-rule:evenodd; clip-rule:evenodd" xmlns:xlink="http://www.w3.org/1999/xlink">
<g><path style="opacity:1" fill="#edf2e1" d="M -0.5,-0.5 C 36.1667,-0.5 72.8333,-0.5 109.5,-0.5C 109.5,56.1667 109.5,112.833 109.5,169.5C 72.8333,169.5 36.1667,169.5 -0.5,169.5C -0.5,112.833 -0.5,56.1667 -0.5,-0.5 Z"/></g>
<g><path style="opacity:1" fill="#d83832" d="M 3.5,4.5 C 5.19919,4.33982 6.86586,4.50649 8.5,5C 9.08142,5.8926 9.41476,6.8926 9.5,8C 9.22517,11.027 9.0585,14.1937 9,17.5C 7.30054,18.4061 5.4672,18.7394 3.5,18.5C 3.5,13.8333 3.5,9.16667 3.5,4.5 Z"/></g>
<g><path style="opacity:1" fill="#d83832" d="M 99.5,4.5 C 101.199,4.33982 102.866,4.50649 104.5,5C 105.081,5.8926 105.415,6.8926 105.5,8C 105.225,11.027 105.058,14.1937 105,17.5C 103.301,18.4061 101.467,18.7394 99.5,18.5C 99.5,13.8333 99.5,9.16667 99.5,4.5 Z"/></g>
<g><path style="opacity:1" fill="#1b181b" d="M 75.5,6.5 C 72.5,6.5 69.5,6.5 66.5,6.5C 62.6286,6.18503 58.9619,6.51836 55.5,7.5C 49.2564,6.54217 42.923,6.20884 36.5,6.5C 47.4954,5.1832 60.4954,5.1832 75.5,6.5 Z"/></g>
<g><path style="opacity:1" fill="#eef7e5" d="M 5.5,6.5 C 7.46455,6.94835 7.79789,7.94835 6.5,9.5C 5.61432,8.67504 5.28099,7.67504 5.5,6.5 Z"/></g>
<g><path style="opacity:1" fill="#2c97ca" d="M 36.5,6.5 C 42.923,6.20884 49.2564,6.54217 55.5,7.5C 56.1557,9.484 56.8224,11.484 57.5,13.5C 57.2483,15.0729 56.5817,16.4062 55.5,17.5C 52.6146,17.1936 49.9479,17.5269 47.5,18.5C 43.6897,17.976 41.6897,19.6426 41.5,23.5C 41.4431,24.609 41.1098,25.609 40.5,26.5C 38.1944,26.9926 35.861,27.3259 33.5,27.5C 29.9903,25.6791 28.6569,22.6791 29.5,18.5C 29.5,18.1667 29.5,17.8333 29.5,17.5C 30.9265,15.8516 31.7599,13.8516 32,11.5C 34.0494,10.2862 35.5494,8.61952 36.5,6.5 Z"/></g>
<g><path style="opacity:1" fill="#b3281c" d="M 66.5,6.5 C 66.5,7.83333 66.5,9.16667 66.5,10.5C 73.7709,11.2064 75.1042,14.3731 70.5,20C 73.1667,22.3333 73.1667,24.6667 70.5,27C 71.4231,29.0408 71.7564,31.2075 71.5,33.5C 70.8333,34.5 70.1667,35.5 69.5,36.5C 68.6716,38.0749 68.3382,39.4082 68.5,40.5C 67.5084,40.3284 66.8417,40.6618 66.5,41.5C 65.8333,39.5 65.1667,37.5 64.5,35.5C 64.2493,32.091 64.5827,28.7577 65.5,25.5C 65.0576,24.2613 64.3909,23.2613 63.5,22.5C 63.719,21.325 63.3857,20.325 62.5,19.5C 60.2706,18.4229 57.9372,17.7563 55.5,17.5C 56.5817,16.4062 57.2483,15.0729 57.5,13.5C 56.8224,11.484 56.1557,9.484 55.5,7.5C 58.9619,6.51836 62.6286,6.18503 66.5,6.5 Z"/></g>
<g><path style="opacity:1" fill="#eef7e5" d="M 101.5,6.5 C 103.465,6.94835 103.798,7.94835 102.5,9.5C 101.614,8.67504 101.281,7.67504 101.5,6.5 Z"/></g>
<g><path style="opacity:1" fill="#d52323" d="M 29.5,17.5 C 29.5,17.8333 29.5,18.1667 29.5,18.5C 27.2149,21.4518 24.5483,24.1185 21.5,26.5C 17.4669,23.9761 14.8003,20.4761 13.5,16C 14.8232,11.1665 17.4899,10.3331 21.5,13.5C 26.5301,10.0914 29.1968,11.4248 29.5,17.5 Z"/></g>
<g><path style="opacity:1" fill="#eedbcb" d="M 5.5,11.5 C 6.64911,11.7911 7.31577,12.6244 7.5,14C 7.16667,14.8333 6.83333,15.6667 6.5,16.5C 5.54811,14.9547 5.21478,13.288 5.5,11.5 Z"/></g>
<g><path style="opacity:1" fill="#eedbcb" d="M 101.5,11.5 C 102.649,11.7911 103.316,12.6244 103.5,14C 103.167,14.8333 102.833,15.6667 102.5,16.5C 101.548,14.9547 101.215,13.288 101.5,11.5 Z"/></g>
<g><path style="opacity:1" fill="#5f5f30" d="M 47.5,18.5 C 48.2312,18.9418 49.2312,19.1085 50.5,19C 47.2752,20.0557 44.2752,21.5557 41.5,23.5C 41.6897,19.6426 43.6897,17.976 47.5,18.5 Z"/></g>
<g><path style="opacity:1" fill="#dfe3d5" d="M 63.5,22.5 C 63.5,23.1667 63.5,23.8333 63.5,24.5C 61.0072,24.3291 59.1739,25.3291 58,27.5C 58.0833,30.1194 58.25,32.786 58.5,35.5C 55.1157,35.8637 52.1157,37.197 49.5,39.5C 53.7159,40.2752 58.0493,40.2752 62.5,39.5C 62.3284,40.4916 62.6618,41.1583 63.5,41.5C 62.391,44.7328 61.5576,48.0662 61,51.5C 60,48.8333 59,48.8333 58,51.5C 57.6667,51.1667 57.3333,50.8333 57,50.5C 56.51,51.7932 56.3433,53.1266 56.5,54.5C 56.1667,54.5 55.8333,54.5 55.5,54.5C 54.5384,52.0144 53.7051,52.0144 53,54.5C 52,50.5 51,50.5 50,54.5C 49.7787,51.0569 48.7787,50.7236 47,53.5C 46.51,52.2068 46.3433,50.8734 46.5,49.5C 45.5423,48.0384 44.3756,46.7051 43,45.5C 42.8206,40.0386 41.3206,39.3719 38.5,43.5C 38.1667,43.5 37.8333,43.5 37.5,43.5C 37.5,42.8333 37.5,42.1667 37.5,41.5C 38.2891,41.2172 38.9558,40.7172 39.5,40C 38.2721,38.5098 38.2721,37.0098 39.5,35.5C 43.5478,41.2378 46.5478,40.7378 48.5,34C 47.7113,32.3745 46.7113,30.8745 45.5,29.5C 46.1449,28.354 46.9783,27.354 48,26.5C 48.5946,25.1011 48.4279,23.7678 47.5,22.5C 52.7918,19.9901 58.1252,19.9901 63.5,22.5 Z"/></g>
<g><path style="opacity:1" fill="#d7362f" d="M 3.5,21.5 C 5.01739,21.5106 6.18405,22.1772 7,23.5C 10.7017,20.7414 12.3683,21.7414 12,26.5C 8.66667,33.1667 5.33333,33.1667 2,26.5C 1.38715,24.5048 1.88715,22.8381 3.5,21.5 Z"/></g>
<g><path style="opacity:1" fill="#a39430" d="M 55.5,17.5 C 57.9372,17.7563 60.2706,18.4229 62.5,19.5C 63.3857,20.325 63.719,21.325 63.5,22.5C 58.1252,19.9901 52.7918,19.9901 47.5,22.5C 48.4279,23.7678 48.5946,25.1011 48,26.5C 46.9783,27.354 46.1449,28.354 45.5,29.5C 46.7113,30.8745 47.7113,32.3745 48.5,34C 46.5478,40.7378 43.5478,41.2378 39.5,35.5C 36.9279,32.2645 37.2612,29.2645 40.5,26.5C 41.1098,25.609 41.4431,24.609 41.5,23.5C 44.2752,21.5557 47.2752,20.0557 50.5,19C 49.2312,19.1085 48.2312,18.9418 47.5,18.5C 49.9479,17.5269 52.6146,17.1936 55.5,17.5 Z"/></g>
<g><path style="opacity:1" fill="#d7362f" d="M 96.5,26.5 C 96.5,25.5 96.5,24.5 96.5,23.5C 98.2296,20.8922 100.063,20.8922 102,23.5C 104.514,20.8228 106.347,21.3228 107.5,25C 104.598,32.9287 100.931,33.4287 96.5,26.5 Z"/></g>
<g><path style="opacity:1" fill="#ebdd31" d="M 66.5,6.5 C 69.5,6.5 72.5,6.5 75.5,6.5C 78.2433,9.70056 80.2433,13.3672 81.5,17.5C 80.1667,20.8333 78.8333,24.1667 77.5,27.5C 77.6236,28.1067 77.9569,28.44 78.5,28.5C 78.4431,29.609 78.1098,30.609 77.5,31.5C 76.8333,31.5 76.5,31.8333 76.5,32.5C 76.1667,33.1667 75.8333,33.8333 75.5,34.5C 74.0413,34.5674 72.7079,34.2341 71.5,33.5C 71.7564,31.2075 71.4231,29.0408 70.5,27C 73.1667,24.6667 73.1667,22.3333 70.5,20C 75.1042,14.3731 73.7709,11.2064 66.5,10.5C 66.5,9.16667 66.5,7.83333 66.5,6.5 Z"/></g>
<g><path style="opacity:1" fill="#ac271f" d="M 40.5,26.5 C 37.2612,29.2645 36.9279,32.2645 39.5,35.5C 38.2721,37.0098 38.2721,38.5098 39.5,40C 38.9558,40.7172 38.2891,41.2172 37.5,41.5C 37.5,40.1667 36.8333,39.5 35.5,39.5C 34.8333,35.5 34.1667,31.5 33.5,27.5C 35.861,27.3259 38.1944,26.9926 40.5,26.5 Z"/></g>
<g><path style="opacity:1" fill="#424848" d="M 51.5,26.5 C 53.3464,26.2222 54.6798,26.8888 55.5,28.5C 54.3112,29.4287 52.9778,29.762 51.5,29.5C 51.5,28.5 51.5,27.5 51.5,26.5 Z"/></g>
<g><path style="opacity:1" fill="#988c4f" d="M 63.5,22.5 C 64.3909,23.2613 65.0576,24.2613 65.5,25.5C 64.5827,28.7577 64.2493,32.091 64.5,35.5C 64.1667,35.5 63.8333,35.5 63.5,35.5C 63.7947,33.2646 63.4614,31.2646 62.5,29.5C 63.3007,27.9582 63.634,26.2915 63.5,24.5C 63.5,23.8333 63.5,23.1667 63.5,22.5 Z"/></g>
<g><path style="opacity:1" fill="#7d7e7a" d="M 63.5,24.5 C 63.634,26.2915 63.3007,27.9582 62.5,29.5C 61.6715,30.3324 60.8382,29.999 60,28.5C 59.4436,30.8848 59.6103,33.2181 60.5,35.5C 59.8333,35.5 59.1667,35.5 58.5,35.5C 58.25,32.786 58.0833,30.1194 58,27.5C 59.1739,25.3291 61.0072,24.3291 63.5,24.5 Z"/></g>
<g><path style="opacity:1" fill="#e5e3d0" d="M 62.5,29.5 C 63.4614,31.2646 63.7947,33.2646 63.5,35.5C 63.5,36.1667 63.5,36.8333 63.5,37.5C 61.9731,37.573 60.9731,36.9063 60.5,35.5C 59.6103,33.2181 59.4436,30.8848 60,28.5C 60.8382,29.999 61.6715,30.3324 62.5,29.5 Z"/></g>
<g><path style="opacity:1" fill="#e9f0df" d="M 76.5,32.5 C 76.5,31.8333 76.8333,31.5 77.5,31.5C 78.5585,32.6002 79.3918,33.9336 80,35.5C 81.1855,33.4407 82.3521,33.274 83.5,35C 82.6521,37.7695 82.3187,40.6029 82.5,43.5C 81.2976,44.4054 79.9643,44.4054 78.5,43.5C 77.6016,42.8423 76.6016,42.1757 75.5,41.5C 77.0466,38.4251 77.38,35.4251 76.5,32.5 Z"/></g>
<g><path style="opacity:1" fill="#7399ac" d="M 96.5,23.5 C 96.5,24.5 96.5,25.5 96.5,26.5C 95.3552,27.7927 95.6885,28.9593 97.5,30C 95.7095,33.1851 94.7095,36.6851 94.5,40.5C 96.2469,44.3904 95.0802,45.3904 91,43.5C 89.8035,40.9109 88.8035,38.2442 88,35.5C 87.8195,38.6946 87.3195,41.6946 86.5,44.5C 85.5967,42.3796 84.2633,42.0462 82.5,43.5C 82.3187,40.6029 82.6521,37.7695 83.5,35C 82.3521,33.274 81.1855,33.4407 80,35.5C 79.3918,33.9336 78.5585,32.6002 77.5,31.5C 78.1098,30.609 78.4431,29.609 78.5,28.5C 79.8549,25.2316 81.6883,24.8983 84,27.5C 84.4215,23.1279 85.0881,18.7946 86,14.5C 88.259,12.1487 89.759,12.8154 90.5,16.5C 89.8687,20.0344 89.202,23.5344 88.5,27C 90.1312,27.2236 91.1312,26.3903 91.5,24.5C 89.6251,19.7024 91.2917,17.369 96.5,17.5C 96.5,19.5 96.5,21.5 96.5,23.5 Z"/></g>
<g><path style="opacity:1" fill="#e1e8d7" d="M 71.5,33.5 C 72.7079,34.2341 74.0413,34.5674 75.5,34.5C 75.9754,37.3126 74.9754,39.3126 72.5,40.5C 71.9744,38.7697 70.9744,37.4363 69.5,36.5C 70.1667,35.5 70.8333,34.5 71.5,33.5 Z"/></g>
<g><path style="opacity:1" fill="#4f5557" d="M 63.5,35.5 C 63.8333,35.5 64.1667,35.5 64.5,35.5C 65.1667,37.5 65.8333,39.5 66.5,41.5C 66.5,42.5 66.5,43.5 66.5,44.5C 65.8333,44.5 65.1667,44.5 64.5,44.5C 64.7373,43.209 64.404,42.209 63.5,41.5C 62.6618,41.1583 62.3284,40.4916 62.5,39.5C 63.3382,39.1583 63.6716,38.4916 63.5,37.5C 63.5,36.8333 63.5,36.1667 63.5,35.5 Z"/></g>
<g><path style="opacity:1" fill="#4c5254" d="M 76.5,32.5 C 77.38,35.4251 77.0466,38.4251 75.5,41.5C 76.6016,42.1757 77.6016,42.8423 78.5,43.5C 77.5041,43.4142 76.6708,43.7476 76,44.5C 74.8289,43.1068 73.3289,42.2735 71.5,42C 72.056,41.6174 72.3893,41.1174 72.5,40.5C 74.9754,39.3126 75.9754,37.3126 75.5,34.5C 75.8333,33.8333 76.1667,33.1667 76.5,32.5 Z"/></g>
<g><path style="opacity:1" fill="#867640" d="M 58.5,35.5 C 59.1667,35.5 59.8333,35.5 60.5,35.5C 60.9731,36.9063 61.9731,37.573 63.5,37.5C 63.6716,38.4916 63.3382,39.1583 62.5,39.5C 58.0493,40.2752 53.7159,40.2752 49.5,39.5C 52.1157,37.197 55.1157,35.8637 58.5,35.5 Z"/></g>
<g><path style="opacity:1" fill="#cfb60e" d="M 35.5,39.5 C 36.8333,39.5 37.5,40.1667 37.5,41.5C 37.5,42.1667 37.5,42.8333 37.5,43.5C 36.1667,43.5 35.5,42.8333 35.5,41.5C 35.5,40.8333 35.5,40.1667 35.5,39.5 Z"/></g>
<g><path style="opacity:1" fill="#e5edf3" d="M 46.5,49.5 C 44.7897,53.568 43.6231,53.2347 43,48.5C 42.7787,51.9431 41.7787,52.2764 40,49.5C 39.8091,47.2922 39.3091,45.2922 38.5,43.5C 41.3206,39.3719 42.8206,40.0386 43,45.5C 44.3756,46.7051 45.5423,48.0384 46.5,49.5 Z"/></g>
<g><path style="opacity:1" fill="#d7c70b" d="M 68.5,40.5 C 68.5,41.1667 68.5,41.8333 68.5,42.5C 68.5,43.5 68.5,44.5 68.5,45.5C 67.8333,45.1667 67.1667,44.8333 66.5,44.5C 66.5,43.5 66.5,42.5 66.5,41.5C 66.8417,40.6618 67.5084,40.3284 68.5,40.5 Z"/></g>
<g><path style="opacity:1" fill="#918331" d="M 57.5,41.5 C 59.0898,41.6282 60.4231,42.2949 61.5,43.5C 60.396,45.3885 59.0627,47.0552 57.5,48.5C 54.7105,47.352 52.0439,46.0186 49.5,44.5C 51.3435,44.2448 53.3435,44.0781 55.5,44C 56.3805,43.2917 57.0472,42.4584 57.5,41.5 Z"/></g>
<g><path style="opacity:1" fill="#b8281d" d="M 35.5,41.5 C 35.5,42.8333 36.1667,43.5 37.5,43.5C 37.5674,44.9587 37.2341,46.2921 36.5,47.5C 35.1283,48.5116 33.795,49.5116 32.5,50.5C 31.8333,50.5 31.5,50.8333 31.5,51.5C 29.7697,52.0256 28.4363,53.0256 27.5,54.5C 25.9731,54.427 24.9731,55.0937 24.5,56.5C 23.375,57.3478 23.375,58.3478 24.5,59.5C 23.3871,60.9464 23.2204,62.6131 24,64.5C 24.4224,66.4257 25.5891,67.4257 27.5,67.5C 28.1667,67.5 28.8333,67.5 29.5,67.5C 30.5,67.5 31.5,67.5 32.5,67.5C 35.003,68.3705 37.6697,69.0372 40.5,69.5C 41.2905,70.4013 42.2905,71.0679 43.5,71.5C 44.1408,72.4822 44.8075,73.4822 45.5,74.5C 41.6416,77.4586 37.6416,79.1252 33.5,79.5C 32.8614,80.0968 32.528,80.9302 32.5,82C 32.6842,83.3756 33.3509,84.2089 34.5,84.5C 36.1667,84.5 37.8333,84.5 39.5,84.5C 39.2372,95.2509 39.9039,105.918 41.5,116.5C 42.5515,119.193 43.5515,121.86 44.5,124.5C 43.8333,124.5 43.1667,124.5 42.5,124.5C 42.1583,123.662 41.4916,123.328 40.5,123.5C 37.9045,120.195 34.5712,117.861 30.5,116.5C 31.6567,112.784 31.6567,109.117 30.5,105.5C 29.9566,104.258 29.6233,102.925 29.5,101.5C 30.5424,95.8707 31.2091,90.204 31.5,84.5C 30.1667,84.5 28.8333,84.5 27.5,84.5C 27.1357,91.0641 26.1357,97.3974 24.5,103.5C 22.3568,99.6792 22.0234,95.6792 23.5,91.5C 23.6633,89.1432 23.4966,86.8098 23,84.5C 22.5172,85.448 22.3505,86.448 22.5,87.5C 19.6865,88.3024 17.0198,88.6357 14.5,88.5C 12.6203,88.2291 11.287,88.8958 10.5,90.5C 10.1667,90.5 9.83333,90.5 9.5,90.5C 8.48837,89.1283 7.48837,87.795 6.5,86.5C 6.5,80.5 6.5,74.5 6.5,68.5C 7.79305,67.158 8.62638,65.4913 9,63.5C 13.5213,60.6434 17.0213,56.8101 19.5,52C 25.0696,48.7249 30.4029,45.2249 35.5,41.5 Z"/></g>
<g><path style="opacity:1" fill="#9b8a49" d="M 69.5,36.5 C 70.9744,37.4363 71.9744,38.7697 72.5,40.5C 72.3893,41.1174 72.056,41.6174 71.5,42C 73.3289,42.2735 74.8289,43.1068 76,44.5C 76.6708,43.7476 77.5041,43.4142 78.5,43.5C 79.9643,44.4054 81.2976,44.4054 82.5,43.5C 80.8323,45.9909 81.1656,48.1575 83.5,50C 82.0953,51.2692 80.4286,51.7692 78.5,51.5C 79.0754,49.6575 78.9087,47.6575 78,45.5C 77.51,46.7932 77.3433,48.1266 77.5,49.5C 74.3922,48.4355 71.7255,46.6022 69.5,44C 70.7119,42.8932 70.3786,42.3932 68.5,42.5C 68.5,41.8333 68.5,41.1667 68.5,40.5C 68.3382,39.4082 68.6716,38.0749 69.5,36.5 Z"/></g>
<g><path style="opacity:1" fill="#50a3cc" d="M 63.5,41.5 C 64.404,42.209 64.7373,43.209 64.5,44.5C 65.4485,47.1402 66.4485,49.8069 67.5,52.5C 65.8762,52.3601 64.7096,53.0267 64,54.5C 63.3109,53.6433 62.4776,52.9767 61.5,52.5C 59.9246,53.4565 58.258,54.1231 56.5,54.5C 56.3433,53.1266 56.51,51.7932 57,50.5C 57.3333,50.8333 57.6667,51.1667 58,51.5C 59,48.8333 60,48.8333 61,51.5C 61.5576,48.0662 62.391,44.7328 63.5,41.5 Z"/></g>
<g><path style="opacity:1" fill="#534837" d="M 68.5,42.5 C 70.3786,42.3932 70.7119,42.8932 69.5,44C 71.7255,46.6022 74.3922,48.4355 77.5,49.5C 77.3433,48.1266 77.51,46.7932 78,45.5C 78.9087,47.6575 79.0754,49.6575 78.5,51.5C 78.5,51.8333 78.5,52.1667 78.5,52.5C 74.4288,51.1385 71.0955,48.8052 68.5,45.5C 68.5,44.5 68.5,43.5 68.5,42.5 Z"/></g>
<g><path style="opacity:1" fill="#97271b" d="M 64.5,44.5 C 65.1667,44.5 65.8333,44.5 66.5,44.5C 67.1667,44.8333 67.8333,45.1667 68.5,45.5C 71.0955,48.8052 74.4288,51.1385 78.5,52.5C 78.7373,53.791 78.404,54.791 77.5,55.5C 77.2381,53.4362 76.0714,52.1029 74,51.5C 73.6667,52.5 73.3333,53.5 73,54.5C 72.028,52.6951 70.8613,51.0284 69.5,49.5C 69.1667,50 68.8333,50.5 68.5,51C 70.3922,60.6032 70.7256,70.1032 69.5,79.5C 69.628,70.4179 68.9614,61.4179 67.5,52.5C 66.4485,49.8069 65.4485,47.1402 64.5,44.5 Z"/></g>
<g><path style="opacity:1" fill="#e8d41c" d="M 31.5,51.5 C 31.5,50.8333 31.8333,50.5 32.5,50.5C 36.4711,52.7189 39.3044,56.0522 41,60.5C 41.2784,59.5842 41.7784,58.9175 42.5,58.5C 43.5,59.1667 44.5,59.8333 45.5,60.5C 43.0924,61.3148 42.2591,62.9814 43,65.5C 43.4226,64.0439 44.2559,63.5439 45.5,64C 44.4459,66.3822 43.7792,68.8822 43.5,71.5C 42.2905,71.0679 41.2905,70.4013 40.5,69.5C 39.6023,62.3712 36.6023,56.3712 31.5,51.5 Z"/></g>
<g><path style="opacity:1" fill="#cab931" d="M 86.5,44.5 C 85.7886,48.2807 86.9553,51.2807 90,53.5C 91.0086,55.0249 91.5086,56.6916 91.5,58.5C 91.3512,61.6074 91.8512,64.6074 93,67.5C 94.7774,70.0594 96.2774,72.7261 97.5,75.5C 97.1667,76.5 96.5,77.1667 95.5,77.5C 94.0779,77.2504 93.0779,76.417 92.5,75C 93.8333,74.3333 93.8333,73.6667 92.5,73C 91.2068,72.51 89.8734,72.3433 88.5,72.5C 88.6347,74.9724 87.968,76.3057 86.5,76.5C 86.8866,72.5559 86.22,68.8892 84.5,65.5C 83.6557,60.0565 81.6557,59.3898 78.5,63.5C 77.612,60.9455 77.2786,58.2788 77.5,55.5C 78.404,54.791 78.7373,53.791 78.5,52.5C 78.5,52.1667 78.5,51.8333 78.5,51.5C 80.4286,51.7692 82.0953,51.2692 83.5,50C 81.1656,48.1575 80.8323,45.9909 82.5,43.5C 84.2633,42.0462 85.5967,42.3796 86.5,44.5 Z"/></g>
<g><path style="opacity:1" fill="#f2dc22" d="M 27.5,54.5 C 30.0006,58.1678 32.0006,62.1678 33.5,66.5C 33.3764,67.1067 33.0431,67.44 32.5,67.5C 31.5,67.5 30.5,67.5 29.5,67.5C 29.1731,63.1824 27.5064,59.5157 24.5,56.5C 24.9731,55.0937 25.9731,54.427 27.5,54.5 Z"/></g>
<g><path style="opacity:1" fill="#b6a917" d="M 36.5,47.5 C 37.7736,48.1894 37.7736,49.0228 36.5,50C 41.2848,51.2309 43.2848,54.0642 42.5,58.5C 41.7784,58.9175 41.2784,59.5842 41,60.5C 39.3044,56.0522 36.4711,52.7189 32.5,50.5C 33.795,49.5116 35.1283,48.5116 36.5,47.5 Z"/></g>
<g><path style="opacity:1" fill="#289fd2" d="M 37.5,43.5 C 37.8333,43.5 38.1667,43.5 38.5,43.5C 39.3091,45.2922 39.8091,47.2922 40,49.5C 41.7787,52.2764 42.7787,51.9431 43,48.5C 43.6231,53.2347 44.7897,53.568 46.5,49.5C 46.3433,50.8734 46.51,52.2068 47,53.5C 48.7787,50.7236 49.7787,51.0569 50,54.5C 51,50.5 52,50.5 53,54.5C 53.7051,52.0144 54.5384,52.0144 55.5,54.5C 53.7354,55.4614 51.7354,55.7947 49.5,55.5C 48.2618,54.5876 46.9285,54.4209 45.5,55C 45.0257,56.7286 44.0257,57.8953 42.5,58.5C 43.2848,54.0642 41.2848,51.2309 36.5,50C 37.7736,49.0228 37.7736,48.1894 36.5,47.5C 37.2341,46.2921 37.5674,44.9587 37.5,43.5 Z"/></g>
<g><path style="opacity:1" fill="#a4a024" d="M 49.5,55.5 C 49.2488,57.1703 48.5822,58.6703 47.5,60C 48.3617,62.7344 49.195,62.9011 50,60.5C 50.6622,61.9839 51.4955,63.3172 52.5,64.5C 51.1266,64.6567 49.7932,64.49 48.5,64C 47.8366,62.4815 46.8366,61.3149 45.5,60.5C 44.5,59.8333 43.5,59.1667 42.5,58.5C 44.0257,57.8953 45.0257,56.7286 45.5,55C 46.9285,54.4209 48.2618,54.5876 49.5,55.5 Z"/></g>
<g><path style="opacity:1" fill="#4484a2" d="M 24.5,59.5 C 25.8832,61.9779 26.8832,64.6446 27.5,67.5C 25.5891,67.4257 24.4224,66.4257 24,64.5C 23.2204,62.6131 23.3871,60.9464 24.5,59.5 Z"/></g>
<g><path style="opacity:1" fill="#c5b45a" d="M 84.5,65.5 C 82.8643,71.6026 81.8643,77.9359 81.5,84.5C 80.1667,84.5 78.8333,84.5 77.5,84.5C 77.7909,78.796 78.4576,73.1293 79.5,67.5C 79.3767,66.0755 79.0434,64.7421 78.5,63.5C 81.6557,59.3898 83.6557,60.0565 84.5,65.5 Z"/></g>
<g><path style="opacity:1" fill="#a99e1e" d="M 24.5,56.5 C 27.5064,59.5157 29.1731,63.1824 29.5,67.5C 28.8333,67.5 28.1667,67.5 27.5,67.5C 26.8832,64.6446 25.8832,61.9779 24.5,59.5C 23.375,58.3478 23.375,57.3478 24.5,56.5 Z"/></g>
<g><path style="opacity:1" fill="#b5a314" d="M 31.5,51.5 C 36.6023,56.3712 39.6023,62.3712 40.5,69.5C 37.6697,69.0372 35.003,68.3705 32.5,67.5C 33.0431,67.44 33.3764,67.1067 33.5,66.5C 32.0006,62.1678 30.0006,58.1678 27.5,54.5C 28.4363,53.0256 29.7697,52.0256 31.5,51.5 Z"/></g>
<g><path style="opacity:1" fill="#5f5333" d="M 102.5,100.5 C 102.5,94.5 102.5,88.5 102.5,82.5C 102.665,79.4816 102.498,76.4816 102,73.5C 100.681,75.2872 99.848,77.2872 99.5,79.5C 98.8333,79.5 98.1667,79.5 97.5,79.5C 98.6857,78.0387 98.6857,76.7054 97.5,75.5C 96.2774,72.7261 94.7774,70.0594 93,67.5C 91.8512,64.6074 91.3512,61.6074 91.5,58.5C 94.311,62.8305 97.811,66.8305 102,70.5C 102.333,58.8333 102.667,47.1667 103,35.5C 105.51,83.2045 105.344,104.871 102.5,100.5 Z"/></g>
<g><path style="opacity:1" fill="#e9eddb" d="M 102.5,82.5 C 101.728,81.3065 100.728,80.3065 99.5,79.5C 99.848,77.2872 100.681,75.2872 102,73.5C 102.498,76.4816 102.665,79.4816 102.5,82.5 Z"/></g>
<g><path style="opacity:1" fill="#a49242" d="M 95.5,77.5 C 94.791,78.404 93.791,78.7373 92.5,78.5C 92.1667,78.5 91.8333,78.5 91.5,78.5C 91.2144,76.0673 90.5477,76.0673 89.5,78.5C 88.8485,79.0906 88.1818,79.7573 87.5,80.5C 86.8182,79.7573 86.1515,79.0906 85.5,78.5C 85.3284,77.5084 85.6618,76.8417 86.5,76.5C 87.968,76.3057 88.6347,74.9724 88.5,72.5C 89.8734,72.3433 91.2068,72.51 92.5,73C 93.8333,73.6667 93.8333,74.3333 92.5,75C 93.0779,76.417 94.0779,77.2504 95.5,77.5 Z"/></g>
<g><path style="opacity:1" fill="#dcdedb" d="M 97.5,75.5 C 98.6857,76.7054 98.6857,78.0387 97.5,79.5C 96.3052,79.6775 95.1385,80.0109 94,80.5C 92.9701,80.1639 92.4701,79.4972 92.5,78.5C 93.791,78.7373 94.791,78.404 95.5,77.5C 96.5,77.1667 97.1667,76.5 97.5,75.5 Z"/></g>
<g><path style="opacity:1" fill="#592819" d="M 91.5,78.5 C 91.8333,78.5 92.1667,78.5 92.5,78.5C 92.4701,79.4972 92.9701,80.1639 94,80.5C 95.1385,80.0109 96.3052,79.6775 97.5,79.5C 96.0101,81.2798 94.0101,81.9465 91.5,81.5C 91.5,80.5 91.5,79.5 91.5,78.5 Z"/></g>
<g><path style="opacity:1" fill="#a2a29e" d="M 33.5,79.5 C 34.4511,80.9187 34.7845,82.5853 34.5,84.5C 33.3509,84.2089 32.6842,83.3756 32.5,82C 32.528,80.9302 32.8614,80.0968 33.5,79.5 Z"/></g>
<g><path style="opacity:1" fill="#c6b45a" d="M 30.5,105.5 C 27.3443,109.61 25.3443,108.944 24.5,103.5C 26.1357,97.3974 27.1357,91.0641 27.5,84.5C 28.8333,84.5 30.1667,84.5 31.5,84.5C 31.2091,90.204 30.5424,95.8707 29.5,101.5C 29.6233,102.925 29.9566,104.258 30.5,105.5 Z"/></g>
<g><path style="opacity:1" fill="#bbae2a" d="M 67.5,52.5 C 68.9614,61.4179 69.628,70.4179 69.5,79.5C 69.5,81.1667 69.5,82.8333 69.5,84.5C 71.1667,84.5 72.8333,84.5 74.5,84.5C 74.5,86.1667 74.5,87.8333 74.5,89.5C 70.7952,90.1683 67.1285,91.835 63.5,94.5C 64.1925,95.5178 64.8592,96.5178 65.5,97.5C 65.6033,102.912 67.1033,107.912 70,112.5C 71.4055,115.409 73.5722,117.409 76.5,118.5C 75.205,119.488 73.8717,120.488 72.5,121.5C 70.567,119.063 68.4003,116.729 66,114.5C 65.3162,113.216 65.4829,112.049 66.5,111C 66.1667,110.833 65.8333,110.667 65.5,110.5C 64.9322,112.435 63.7655,113.768 62,114.5C 60.2341,113.767 58.4008,113.433 56.5,113.5C 57.7887,110.455 58.1221,107.455 57.5,104.5C 60.2919,104.452 62.1253,105.785 63,108.5C 64.6783,107.318 64.5117,106.152 62.5,105C 62.0877,102.795 62.0877,100.462 62.5,98C 61.5838,97.6258 60.7504,97.1258 60,96.5C 58.0349,98.5503 55.8682,100.217 53.5,101.5C 49.2968,101.076 45.2968,101.576 41.5,103C 42.3081,103.308 42.9747,103.808 43.5,104.5C 41.7113,112.054 43.0447,112.721 47.5,106.5C 48.8498,105.05 50.5165,104.383 52.5,104.5C 51.6644,107.539 51.9978,110.539 53.5,113.5C 53.5,113.833 53.5,114.167 53.5,114.5C 52.0413,114.433 50.7079,114.766 49.5,115.5C 47.7259,116.881 46.2259,116.548 45,114.5C 44.2904,115.973 43.1238,116.64 41.5,116.5C 39.9039,105.918 39.2372,95.2509 39.5,84.5C 37.8333,84.5 36.1667,84.5 34.5,84.5C 34.7845,82.5853 34.4511,80.9187 33.5,79.5C 37.6416,79.1252 41.6416,77.4586 45.5,74.5C 44.8075,73.4822 44.1408,72.4822 43.5,71.5C 43.7792,68.8822 44.4459,66.3822 45.5,64C 44.2559,63.5439 43.4226,64.0439 43,65.5C 42.2591,62.9814 43.0924,61.3148 45.5,60.5C 44.4715,61.7874 44.8048,62.9541 46.5,64C 45.5209,65.7785 45.8542,67.4452 47.5,69C 47.3552,69.772 47.0219,70.4387 46.5,71C 47.4162,71.3742 48.2496,71.8742 49,72.5C 50.9651,70.4497 53.1318,68.783 55.5,67.5C 53.8564,67.1898 52.8564,66.1898 52.5,64.5C 51.4955,63.3172 50.6622,61.9839 50,60.5C 49.195,62.9011 48.3617,62.7344 47.5,60C 48.5822,58.6703 49.2488,57.1703 49.5,55.5C 51.7354,55.7947 53.7354,55.4614 55.5,54.5C 55.8333,54.5 56.1667,54.5 56.5,54.5C 58.258,54.1231 59.9246,53.4565 61.5,52.5C 62.4776,52.9767 63.3109,53.6433 64,54.5C 64.7096,53.0267 65.8762,52.3601 67.5,52.5 Z"/></g>
<g><path style="opacity:1" fill="#9e271c" d="M 48.5,82.5 C 48.1788,84.0481 47.1788,84.7148 45.5,84.5C 45.9731,83.0937 46.9731,82.427 48.5,82.5 Z"/></g>
<g><path style="opacity:1" fill="#2795c0" d="M 63.5,84.5 C 61.8212,84.2852 60.8212,84.9519 60.5,86.5C 57.6257,87.3635 54.9591,88.6968 52.5,90.5C 50.0409,88.6968 47.3743,87.3635 44.5,86.5C 43.1547,90.6572 43.8213,94.4905 46.5,98C 45.2068,98.49 43.8734,98.6567 42.5,98.5C 41.7517,96.4159 41.7517,94.4159 42.5,92.5C 42.0233,91.5224 41.3567,90.6891 40.5,90C 41.9675,88.9025 42.8008,87.4025 43,85.5C 43.6708,84.7476 44.5041,84.4142 45.5,84.5C 47.1788,84.7148 48.1788,84.0481 48.5,82.5C 51.3743,81.6365 54.0409,80.3032 56.5,78.5C 58.9591,80.3032 61.6257,81.6365 64.5,82.5C 65.8453,78.3428 65.1787,74.5095 62.5,71C 63.7932,70.51 65.1266,70.3433 66.5,70.5C 67.2483,72.5841 67.2483,74.5841 66.5,76.5C 66.9767,77.4776 67.6433,78.3109 68.5,79C 67.0325,80.0975 66.1992,81.5975 66,83.5C 65.3292,84.2524 64.4959,84.5858 63.5,84.5 Z"/></g>
<g><path style="opacity:1" fill="#2a94bd" d="M 45.5,60.5 C 46.8366,61.3149 47.8366,62.4815 48.5,64C 49.7932,64.49 51.1266,64.6567 52.5,64.5C 52.8564,66.1898 53.8564,67.1898 55.5,67.5C 53.1318,68.783 50.9651,70.4497 49,72.5C 48.2496,71.8742 47.4162,71.3742 46.5,71C 47.0219,70.4387 47.3552,69.772 47.5,69C 45.8542,67.4452 45.5209,65.7785 46.5,64C 44.8048,62.9541 44.4715,61.7874 45.5,60.5 Z"/></g>
<g><path style="opacity:1" fill="#2994be" d="M 55.5,67.5 C 59.1545,64.7291 62.3212,61.3958 65,57.5C 65.5,58 66,58.5 66.5,59C 65.9351,61.9515 65.9351,64.6182 66.5,67C 62.8484,67.4986 59.1817,67.6653 55.5,67.5 Z"/></g>
<g><path style="opacity:1" fill="#a1281f" d="M 63.5,84.5 C 63.0269,85.9063 62.0269,86.573 60.5,86.5C 60.8212,84.9519 61.8212,84.2852 63.5,84.5 Z"/></g>
<g><path style="opacity:1" fill="#adada8" d="M 74.5,84.5 C 77.0479,86.0378 77.0479,87.7044 74.5,89.5C 74.5,87.8333 74.5,86.1667 74.5,84.5 Z"/></g>
<g><path style="opacity:1" fill="#e2e7d5" d="M 6.5,86.5 C 7.48837,87.795 8.48837,89.1283 9.5,90.5C 8.95359,92.3032 8.12026,93.9698 7,95.5C 6.50204,92.5184 6.33537,89.5184 6.5,86.5 Z"/></g>
<g><path style="opacity:1" fill="#753021" d="M 23.5,91.5 C 23.1667,91.5 22.8333,91.5 22.5,91.5C 22.719,90.325 22.3857,89.325 21.5,88.5C 20.5197,89.9814 19.353,91.3147 18,92.5C 17.7679,91.2625 17.2679,90.2625 16.5,89.5C 16.1583,88.6618 15.4916,88.3284 14.5,88.5C 17.0198,88.6357 19.6865,88.3024 22.5,87.5C 22.3505,86.448 22.5172,85.448 23,84.5C 23.4966,86.8098 23.6633,89.1432 23.5,91.5 Z"/></g>
<g><path style="opacity:1" fill="#ba291e" d="M 77.5,55.5 C 77.2786,58.2788 77.612,60.9455 78.5,63.5C 79.0434,64.7421 79.3767,66.0755 79.5,67.5C 78.4576,73.1293 77.7909,78.796 77.5,84.5C 78.8333,84.5 80.1667,84.5 81.5,84.5C 81.8643,77.9359 82.8643,71.6026 84.5,65.5C 86.22,68.8892 86.8866,72.5559 86.5,76.5C 85.6618,76.8417 85.3284,77.5084 85.5,78.5C 85.5,79.5 85.5,80.5 85.5,81.5C 86.8333,81.5 88.1667,81.5 89.5,81.5C 89.5,80.5 89.5,79.5 89.5,78.5C 90.5477,76.0673 91.2144,76.0673 91.5,78.5C 91.5,79.5 91.5,80.5 91.5,81.5C 94.0101,81.9465 96.0101,81.2798 97.5,79.5C 98.1667,79.5 98.8333,79.5 99.5,79.5C 100.728,80.3065 101.728,81.3065 102.5,82.5C 102.5,88.5 102.5,94.5 102.5,100.5C 101.207,101.842 100.374,103.509 100,105.5C 95.4787,108.357 91.9787,112.19 89.5,117C 83.9304,120.275 78.5971,123.775 73.5,127.5C 73.5,126.167 72.8333,125.5 71.5,125.5C 71.4326,124.041 71.7659,122.708 72.5,121.5C 73.8717,120.488 75.205,119.488 76.5,118.5C 77.1667,118.5 77.5,118.167 77.5,117.5C 79.2303,116.974 80.5637,115.974 81.5,114.5C 83.0269,114.573 84.0269,113.906 84.5,112.5C 85.625,111.652 85.625,110.652 84.5,109.5C 85.6129,108.054 85.7796,106.387 85,104.5C 84.5776,102.574 83.4109,101.574 81.5,101.5C 80.8333,101.5 80.1667,101.5 79.5,101.5C 78.5,101.5 77.5,101.5 76.5,101.5C 73.4841,100.817 70.4841,99.8173 67.5,98.5C 66.8333,98.1667 66.1667,97.8333 65.5,97.5C 64.8592,96.5178 64.1925,95.5178 63.5,94.5C 67.1285,91.835 70.7952,90.1683 74.5,89.5C 77.0479,87.7044 77.0479,86.0378 74.5,84.5C 72.8333,84.5 71.1667,84.5 69.5,84.5C 69.5,82.8333 69.5,81.1667 69.5,79.5C 70.7256,70.1032 70.3922,60.6032 68.5,51C 68.8333,50.5 69.1667,50 69.5,49.5C 70.8613,51.0284 72.028,52.6951 73,54.5C 73.3333,53.5 73.6667,52.5 74,51.5C 76.0714,52.1029 77.2381,53.4362 77.5,55.5 Z"/></g>
<g><path style="opacity:1" fill="#582d22" d="M 85.5,78.5 C 86.1515,79.0906 86.8182,79.7573 87.5,80.5C 88.1818,79.7573 88.8485,79.0906 89.5,78.5C 89.5,79.5 89.5,80.5 89.5,81.5C 88.1667,81.5 86.8333,81.5 85.5,81.5C 85.5,80.5 85.5,79.5 85.5,78.5 Z"/></g>
<g><path style="opacity:1" fill="#c6c7c3" d="M 14.5,88.5 C 15.4916,88.3284 16.1583,88.6618 16.5,89.5C 14.9236,90.1429 13.5903,91.1429 12.5,92.5C 11.8333,92.5 11.5,92.8333 11.5,93.5C 10.596,92.791 10.2627,91.791 10.5,90.5C 11.287,88.8958 12.6203,88.2291 14.5,88.5 Z"/></g>
<g><path style="opacity:1" fill="#a4913b" d="M 22.5,91.5 C 21.0687,92.7804 20.4021,94.4471 20.5,96.5C 19.1266,96.6567 17.7932,96.49 16.5,96C 16.8679,94.527 16.3679,93.027 15,91.5C 14.3292,92.2524 13.4959,92.5858 12.5,92.5C 13.5903,91.1429 14.9236,90.1429 16.5,89.5C 17.2679,90.2625 17.7679,91.2625 18,92.5C 19.353,91.3147 20.5197,89.9814 21.5,88.5C 22.3857,89.325 22.719,90.325 22.5,91.5 Z"/></g>
<g><path style="opacity:1" fill="#cbba31" d="M 22.5,91.5 C 22.8333,91.5 23.1667,91.5 23.5,91.5C 22.0234,95.6792 22.3568,99.6792 24.5,103.5C 25.3443,108.944 27.3443,109.61 30.5,105.5C 31.6567,109.117 31.6567,112.784 30.5,116.5C 30.5,116.833 30.5,117.167 30.5,117.5C 25.7345,117.057 24.7345,118.557 27.5,122C 27.0109,123.138 26.6775,124.305 26.5,125.5C 24.7367,126.954 23.4033,126.62 22.5,124.5C 23.0964,120.776 21.9297,117.776 19,115.5C 17.9914,113.975 17.4914,112.308 17.5,110.5C 17.6633,108.143 17.4966,105.81 17,103.5C 14.9094,100.26 13.0761,96.9262 11.5,93.5C 11.5,92.8333 11.8333,92.5 12.5,92.5C 13.4959,92.5858 14.3292,92.2524 15,91.5C 16.3679,93.027 16.8679,94.527 16.5,96C 17.7932,96.49 19.1266,96.6567 20.5,96.5C 20.4021,94.4471 21.0687,92.7804 22.5,91.5 Z"/></g>
<g><path style="opacity:1" fill="#2a94bd" d="M 57.5,104.5 C 56.3634,103.211 55.0301,102.211 53.5,101.5C 55.8682,100.217 58.0349,98.5503 60,96.5C 60.7504,97.1258 61.5838,97.6258 62.5,98C 62.0877,100.462 62.0877,102.795 62.5,105C 64.5117,106.152 64.6783,107.318 63,108.5C 62.1253,105.785 60.2919,104.452 57.5,104.5 Z"/></g>
<g><path style="opacity:1" fill="#5e5332" d="M 6.5,68.5 C 6.5,74.5 6.5,80.5 6.5,86.5C 6.33537,89.5184 6.50204,92.5184 7,95.5C 8.12026,93.9698 8.95359,92.3032 9.5,90.5C 9.83333,90.5 10.1667,90.5 10.5,90.5C 10.2627,91.791 10.596,92.791 11.5,93.5C 13.0761,96.9262 14.9094,100.26 17,103.5C 17.4966,105.81 17.6633,108.143 17.5,110.5C 14.689,106.17 11.189,102.17 7,98.5C 6.66667,110.167 6.33333,121.833 6,133.5C 3.4897,85.7955 3.65637,64.1289 6.5,68.5 Z"/></g>
<g><path style="opacity:1" fill="#efdb1f" d="M 65.5,97.5 C 66.1667,97.8333 66.8333,98.1667 67.5,98.5C 69.024,105.885 72.3573,112.219 77.5,117.5C 77.5,118.167 77.1667,118.5 76.5,118.5C 73.5722,117.409 71.4055,115.409 70,112.5C 67.1033,107.912 65.6033,102.912 65.5,97.5 Z"/></g>
<g><path style="opacity:1" fill="#2895bf" d="M 53.5,101.5 C 52.8902,102.391 52.5569,103.391 52.5,104.5C 50.5165,104.383 48.8498,105.05 47.5,106.5C 43.0447,112.721 41.7113,112.054 43.5,104.5C 42.9747,103.808 42.3081,103.308 41.5,103C 45.2968,101.576 49.2968,101.076 53.5,101.5 Z"/></g>
<g><path style="opacity:1" fill="#f1dc21" d="M 76.5,101.5 C 77.5,101.5 78.5,101.5 79.5,101.5C 79.8269,105.818 81.4936,109.484 84.5,112.5C 84.0269,113.906 83.0269,114.573 81.5,114.5C 78.9994,110.832 76.9994,106.832 75.5,102.5C 75.6236,101.893 75.9569,101.56 76.5,101.5 Z"/></g>
<g><path style="opacity:1" fill="#4682a0" d="M 81.5,101.5 C 83.4109,101.574 84.5776,102.574 85,104.5C 85.7796,106.387 85.6129,108.054 84.5,109.5C 83.1168,107.022 82.1168,104.355 81.5,101.5 Z"/></g>
<g><path style="opacity:1" fill="#d8c71c" d="M 53.5,101.5 C 55.0301,102.211 56.3634,103.211 57.5,104.5C 58.1221,107.455 57.7887,110.455 56.5,113.5C 55.5,113.5 54.5,113.5 53.5,113.5C 51.9978,110.539 51.6644,107.539 52.5,104.5C 52.5569,103.391 52.8902,102.391 53.5,101.5 Z"/></g>
<g><path style="opacity:1" fill="#aca01b" d="M 79.5,101.5 C 80.1667,101.5 80.8333,101.5 81.5,101.5C 82.1168,104.355 83.1168,107.022 84.5,109.5C 85.625,110.652 85.625,111.652 84.5,112.5C 81.4936,109.484 79.8269,105.818 79.5,101.5 Z"/></g>
<g><path style="opacity:1" fill="#b3a213" d="M 67.5,98.5 C 70.4841,99.8173 73.4841,100.817 76.5,101.5C 75.9569,101.56 75.6236,101.893 75.5,102.5C 76.9994,106.832 78.9994,110.832 81.5,114.5C 80.5637,115.974 79.2303,116.974 77.5,117.5C 72.3573,112.219 69.024,105.885 67.5,98.5 Z"/></g>
<g><path style="opacity:1" fill="#3d9cc8" d="M 49.5,115.5 C 48.8333,117.5 48.1667,119.5 47.5,121.5C 46.2702,123.297 45.6036,125.297 45.5,127.5C 44.596,126.791 44.2627,125.791 44.5,124.5C 43.5515,121.86 42.5515,119.193 41.5,116.5C 43.1238,116.64 44.2904,115.973 45,114.5C 46.2259,116.548 47.7259,116.881 49.5,115.5 Z"/></g>
<g><path style="opacity:1" fill="#dae7ef" d="M 53.5,114.5 C 54.4616,116.986 55.2949,116.986 56,114.5C 57,118.5 58,118.5 59,114.5C 59.2213,117.943 60.2213,118.276 62,115.5C 62.3333,116.833 62.6667,118.167 63,119.5C 64.3772,115.735 65.3772,116.068 66,120.5C 66.2213,117.057 67.2213,116.724 69,119.5C 69.8778,122.644 70.0445,125.644 69.5,128.5C 68.5,128.5 67.5,128.5 66.5,128.5C 67.163,123.83 65.163,121.164 60.5,120.5C 56.7166,118.993 53.0499,119.327 49.5,121.5C 49.0623,120.494 48.3957,120.494 47.5,121.5C 48.1667,119.5 48.8333,117.5 49.5,115.5C 50.7079,114.766 52.0413,114.433 53.5,114.5 Z"/></g>
<g><path style="opacity:1" fill="#9a8a5f" d="M 30.5,117.5 C 30.8333,118.167 31.1667,118.833 31.5,119.5C 31.5,120.833 31.5,122.167 31.5,123.5C 31.6716,124.492 31.3382,125.158 30.5,125.5C 29.0357,124.595 27.7024,124.595 26.5,125.5C 26.6775,124.305 27.0109,123.138 27.5,122C 24.7345,118.557 25.7345,117.057 30.5,117.5 Z"/></g>
<g><path style="opacity:1" fill="#584a2f" d="M 30.5,116.5 C 34.5712,117.861 37.9045,120.195 40.5,123.5C 40.5,125.167 40.5,126.833 40.5,128.5C 40.4431,129.609 40.1098,130.609 39.5,131.5C 35.6814,127.575 33.6814,128.575 33.5,134.5C 33.1667,135.167 32.8333,135.833 32.5,136.5C 31.62,133.575 31.9534,130.575 33.5,127.5C 32.3984,126.824 31.3984,126.158 30.5,125.5C 31.3382,125.158 31.6716,124.492 31.5,123.5C 38.8252,127.675 39.8252,126.509 34.5,120C 33.552,119.517 32.552,119.351 31.5,119.5C 31.1667,118.833 30.8333,118.167 30.5,117.5C 30.5,117.167 30.5,116.833 30.5,116.5 Z"/></g>
<g><path style="opacity:1" fill="#97832e" d="M 31.5,119.5 C 32.552,119.351 33.552,119.517 34.5,120C 39.8252,126.509 38.8252,127.675 31.5,123.5C 31.5,122.167 31.5,120.833 31.5,119.5 Z"/></g>
<g><path style="opacity:1" fill="#e4e7d7" d="M 49.5,121.5 C 49.2969,123.044 48.6302,124.378 47.5,125.5C 49.4853,127.798 51.4853,127.632 53.5,125C 55.6565,124.922 57.6565,124.755 59.5,124.5C 57.5466,123.239 55.5466,122.073 53.5,121C 55.8098,120.503 58.1432,120.337 60.5,120.5C 65.163,121.164 67.163,123.83 66.5,128.5C 67.5,128.5 68.5,128.5 69.5,128.5C 70.8333,130.167 70.8333,131.833 69.5,133.5C 65.7344,126.545 62.7344,126.878 60.5,134.5C 61.065,136.405 62.065,138.071 63.5,139.5C 62.8551,140.646 62.0217,141.646 61,142.5C 60.4054,143.899 60.5721,145.232 61.5,146.5C 56.2082,149.01 50.8748,149.01 45.5,146.5C 45.5,145.833 45.5,145.167 45.5,144.5C 50.7192,144.062 52.3859,141.396 50.5,136.5C 51.9183,135.569 53.2517,134.569 54.5,133.5C 55.3921,131.054 56.8921,130.388 59,131.5C 59.4828,130.552 59.6495,129.552 59.5,128.5C 55.2015,128.69 50.8681,129.024 46.5,129.5C 46.6716,128.508 46.3382,127.842 45.5,127.5C 45.6036,125.297 46.2702,123.297 47.5,121.5C 48.3957,120.494 49.0623,120.494 49.5,121.5 Z"/></g>
<g><path style="opacity:1" fill="#2f9ecf" d="M 72.5,121.5 C 71.7659,122.708 71.4326,124.041 71.5,125.5C 71.5,126.167 71.5,126.833 71.5,127.5C 70.8333,127.833 70.1667,128.167 69.5,128.5C 70.0445,125.644 69.8778,122.644 69,119.5C 67.2213,116.724 66.2213,117.057 66,120.5C 65.3772,116.068 64.3772,115.735 63,119.5C 62.6667,118.167 62.3333,116.833 62,115.5C 60.2213,118.276 59.2213,117.943 59,114.5C 58,118.5 57,118.5 56,114.5C 55.2949,116.986 54.4616,116.986 53.5,114.5C 53.5,114.167 53.5,113.833 53.5,113.5C 54.5,113.5 55.5,113.5 56.5,113.5C 58.4008,113.433 60.2341,113.767 62,114.5C 63.7655,113.768 64.9322,112.435 65.5,110.5C 65.8333,110.667 66.1667,110.833 66.5,111C 65.4829,112.049 65.3162,113.216 66,114.5C 68.4003,116.729 70.567,119.063 72.5,121.5 Z"/></g>
<g><path style="opacity:1" fill="#958543" d="M 60.5,120.5 C 58.1432,120.337 55.8098,120.503 53.5,121C 55.5466,122.073 57.5466,123.239 59.5,124.5C 57.6565,124.755 55.6565,124.922 53.5,125C 51.4853,127.632 49.4853,127.798 47.5,125.5C 48.6302,124.378 49.2969,123.044 49.5,121.5C 53.0499,119.327 56.7166,118.993 60.5,120.5 Z"/></g>
<g><path style="opacity:1" fill="#cfbf10" d="M 40.5,123.5 C 41.4916,123.328 42.1583,123.662 42.5,124.5C 42.5,125.5 42.5,126.5 42.5,127.5C 42.1583,128.338 41.4916,128.672 40.5,128.5C 40.5,126.833 40.5,125.167 40.5,123.5 Z"/></g>
<g><path style="opacity:1" fill="#e9f1e0" d="M 30.5,125.5 C 31.3984,126.158 32.3984,126.824 33.5,127.5C 31.9534,130.575 31.62,133.575 32.5,136.5C 32.5,137.167 32.1667,137.5 31.5,137.5C 30.4415,136.4 29.6082,135.066 29,133.5C 27.8145,135.559 26.6479,135.726 25.5,134C 26.3479,131.23 26.6813,128.397 26.5,125.5C 27.7024,124.595 29.0357,124.595 30.5,125.5 Z"/></g>
<g><path style="opacity:1" fill="#cdb20e" d="M 71.5,125.5 C 72.8333,125.5 73.5,126.167 73.5,127.5C 73.5,128.167 73.5,128.833 73.5,129.5C 72.1667,129.5 71.5,128.833 71.5,127.5C 71.5,126.833 71.5,126.167 71.5,125.5 Z"/></g>
<g><path style="opacity:1" fill="#dce2d1" d="M 39.5,131.5 C 39.2671,133.062 38.6005,134.395 37.5,135.5C 36.2921,134.766 34.9587,134.433 33.5,134.5C 33.6814,128.575 35.6814,127.575 39.5,131.5 Z"/></g>
<g><path style="opacity:1" fill="#444447" d="M 42.5,124.5 C 43.1667,124.5 43.8333,124.5 44.5,124.5C 44.2627,125.791 44.596,126.791 45.5,127.5C 46.3382,127.842 46.6716,128.508 46.5,129.5C 45.6618,129.842 45.3284,130.508 45.5,131.5C 45.5,132.167 45.5,132.833 45.5,133.5C 45.1667,133.5 44.8333,133.5 44.5,133.5C 43.8333,131.5 43.1667,129.5 42.5,127.5C 42.5,126.5 42.5,125.5 42.5,124.5 Z"/></g>
<g><path style="opacity:1" fill="#b3271c" d="M 42.5,127.5 C 43.1667,129.5 43.8333,131.5 44.5,133.5C 44.7507,136.909 44.4173,140.242 43.5,143.5C 43.9424,144.739 44.6091,145.739 45.5,146.5C 45.281,147.675 45.6143,148.675 46.5,149.5C 48.7294,150.577 51.0628,151.244 53.5,151.5C 52.645,152.531 51.9783,153.697 51.5,155C 52.2741,157.154 52.9408,159.321 53.5,161.5C 50.0381,162.482 46.3714,162.815 42.5,162.5C 42.5,161.167 42.5,159.833 42.5,158.5C 35.2933,157.915 33.96,154.748 38.5,149C 35.8333,146.667 35.8333,144.333 38.5,142C 37.5769,139.959 37.2436,137.792 37.5,135.5C 38.6005,134.395 39.2671,133.062 39.5,131.5C 40.1098,130.609 40.4431,129.609 40.5,128.5C 41.4916,128.672 42.1583,128.338 42.5,127.5 Z"/></g>
<g><path style="opacity:1" fill="#897937" d="M 54.5,133.5 C 52.5,133.5 50.5,133.5 48.5,133.5C 48.0269,132.094 47.0269,131.427 45.5,131.5C 45.3284,130.508 45.6618,129.842 46.5,129.5C 50.8681,129.024 55.2015,128.69 59.5,128.5C 59.6495,129.552 59.4828,130.552 59,131.5C 56.8921,130.388 55.3921,131.054 54.5,133.5 Z"/></g>
<g><path style="opacity:1" fill="#a29230" d="M 69.5,133.5 C 72.0721,136.735 71.7388,139.735 68.5,142.5C 67.8902,143.391 67.5569,144.391 67.5,145.5C 64.4922,146.637 62.4922,148.637 61.5,151.5C 58.8333,151.5 56.1667,151.5 53.5,151.5C 51.0628,151.244 48.7294,150.577 46.5,149.5C 45.6143,148.675 45.281,147.675 45.5,146.5C 50.8748,149.01 56.2082,149.01 61.5,146.5C 60.5721,145.232 60.4054,143.899 61,142.5C 62.0217,141.646 62.8551,140.646 63.5,139.5C 62.065,138.071 61.065,136.405 60.5,134.5C 62.7344,126.878 65.7344,126.545 69.5,133.5 Z"/></g>
<g><path style="opacity:1" fill="#ae2a21" d="M 71.5,127.5 C 71.5,128.833 72.1667,129.5 73.5,129.5C 74.4855,133.443 75.1522,137.443 75.5,141.5C 73.139,141.674 70.8056,142.007 68.5,142.5C 71.7388,139.735 72.0721,136.735 69.5,133.5C 70.8333,131.833 70.8333,130.167 69.5,128.5C 70.1667,128.167 70.8333,127.833 71.5,127.5 Z"/></g>
<g><path style="opacity:1" fill="#759bae" d="M 22.5,124.5 C 23.4033,126.62 24.7367,126.954 26.5,125.5C 26.6813,128.397 26.3479,131.23 25.5,134C 26.6479,135.726 27.8145,135.559 29,133.5C 29.6082,135.066 30.4415,136.4 31.5,137.5C 30.8902,138.391 30.5569,139.391 30.5,140.5C 29.1451,143.768 27.3117,144.102 25,141.5C 24.5785,145.872 23.9119,150.205 23,154.5C 20.741,156.851 19.241,156.185 18.5,152.5C 19.1313,148.966 19.798,145.466 20.5,142C 18.8688,141.776 17.8688,142.61 17.5,144.5C 19.3749,149.298 17.7083,151.631 12.5,151.5C 12.5,149.5 12.5,147.5 12.5,145.5C 12.5,144.5 12.5,143.5 12.5,142.5C 13.6448,141.207 13.3115,140.041 11.5,139C 13.2905,135.815 14.2905,132.315 14.5,128.5C 12.7531,124.61 13.9198,123.61 18,125.5C 19.1965,128.089 20.1965,130.756 21,133.5C 21.1805,130.305 21.6805,127.305 22.5,124.5 Z"/></g>
<g><path style="opacity:1" fill="#e6e5d4" d="M 45.5,131.5 C 47.0269,131.427 48.0269,132.094 48.5,133.5C 49.3897,135.782 49.5564,138.115 49,140.5C 47.9887,139.663 46.8221,139.33 45.5,139.5C 45.5,137.5 45.5,135.5 45.5,133.5C 45.5,132.833 45.5,132.167 45.5,131.5 Z"/></g>
<g><path style="opacity:1" fill="#958847" d="M 44.5,133.5 C 44.8333,133.5 45.1667,133.5 45.5,133.5C 45.5,135.5 45.5,137.5 45.5,139.5C 45.5,141.167 45.5,142.833 45.5,144.5C 45.5,145.167 45.5,145.833 45.5,146.5C 44.6091,145.739 43.9424,144.739 43.5,143.5C 44.4173,140.242 44.7507,136.909 44.5,133.5 Z"/></g>
<g><path style="opacity:1" fill="#d7362f" d="M 12.5,142.5 C 12.5,143.5 12.5,144.5 12.5,145.5C 10.7704,148.108 8.93703,148.108 7,145.5C 4.48644,148.177 2.65311,147.677 1.5,144C 4.40236,136.071 8.06903,135.571 12.5,142.5 Z"/></g>
<g><path style="opacity:1" fill="#d7362f" d="M 100.5,137.5 C 103.642,137.799 105.809,139.466 107,142.5C 107.779,144.906 106.946,146.573 104.5,147.5C 103.522,147.023 102.689,146.357 102,145.5C 98.2983,148.259 96.6317,147.259 97,142.5C 97.9973,140.677 99.1639,139.01 100.5,137.5 Z"/></g>
<g><path style="opacity:1" fill="#83847e" d="M 48.5,133.5 C 50.5,133.5 52.5,133.5 54.5,133.5C 53.2517,134.569 51.9183,135.569 50.5,136.5C 52.3859,141.396 50.7192,144.062 45.5,144.5C 45.5,142.833 45.5,141.167 45.5,139.5C 46.8221,139.33 47.9887,139.663 49,140.5C 49.5564,138.115 49.3897,135.782 48.5,133.5 Z"/></g>
<g><path style="opacity:1" fill="#5e6262" d="M 53.5,139.5 C 55.451,139.227 56.951,139.893 58,141.5C 58.8113,140.04 59.6446,139.707 60.5,140.5C 58.9563,142.446 56.9563,142.946 54.5,142C 53.7476,141.329 53.4142,140.496 53.5,139.5 Z"/></g>
<g><path style="opacity:1" fill="#2a98cb" d="M 75.5,141.5 C 78.892,142.967 80.2253,145.634 79.5,149.5C 79.5,150.167 79.5,150.833 79.5,151.5C 78.0735,153.148 77.2401,155.148 77,157.5C 74.9506,158.714 73.4506,160.38 72.5,162.5C 66.077,162.791 59.7436,162.458 53.5,161.5C 52.9408,159.321 52.2741,157.154 51.5,155C 51.9783,153.697 52.645,152.531 53.5,151.5C 56.1667,151.5 58.8333,151.5 61.5,151.5C 65.1667,151.167 67.1667,149.167 67.5,145.5C 67.5569,144.391 67.8902,143.391 68.5,142.5C 70.8056,142.007 73.139,141.674 75.5,141.5 Z"/></g>
<g><path style="opacity:1" fill="#d52524" d="M 79.5,151.5 C 79.5,150.833 79.5,150.167 79.5,149.5C 82.147,147.189 84.8136,144.856 87.5,142.5C 91.3518,145.004 94.0184,148.338 95.5,152.5C 94.5051,157.753 91.8384,158.753 87.5,155.5C 82.4699,158.909 79.8032,157.575 79.5,151.5 Z"/></g>
<g><path style="opacity:1" fill="#656740" d="M 67.5,145.5 C 67.1667,149.167 65.1667,151.167 61.5,151.5C 62.4922,148.637 64.4922,146.637 67.5,145.5 Z"/></g>
<g><path style="opacity:1" fill="#d83832" d="M 4.5,150.5 C 6.16667,150.5 7.83333,150.5 9.5,150.5C 9.5,155.167 9.5,159.833 9.5,164.5C 7.5328,164.739 5.69946,164.406 4,163.5C 3.75147,159.237 3.91814,154.904 4.5,150.5 Z"/></g>
<g><path style="opacity:1" fill="#d83832" d="M 100.5,150.5 C 102.167,150.5 103.833,150.5 105.5,150.5C 105.5,155.167 105.5,159.833 105.5,164.5C 103.533,164.739 101.699,164.406 100,163.5C 99.7515,159.237 99.9181,154.904 100.5,150.5 Z"/></g>
<g><path style="opacity:1" fill="#eee0cf" d="M 5.5,152.5 C 6.64911,152.791 7.31577,153.624 7.5,155C 7.16667,155.833 6.83333,156.667 6.5,157.5C 5.54811,155.955 5.21478,154.288 5.5,152.5 Z"/></g>
<g><path style="opacity:1" fill="#eee0cf" d="M 101.5,152.5 C 102.649,152.791 103.316,153.624 103.5,155C 103.167,155.833 102.833,156.667 102.5,157.5C 101.548,155.955 101.215,154.288 101.5,152.5 Z"/></g>
<g><path style="opacity:1" fill="#ebdd33" d="M 33.5,134.5 C 34.9587,134.433 36.2921,134.766 37.5,135.5C 37.2436,137.792 37.5769,139.959 38.5,142C 35.8333,144.333 35.8333,146.667 38.5,149C 33.96,154.748 35.2933,157.915 42.5,158.5C 42.5,159.833 42.5,161.167 42.5,162.5C 39.5,162.5 36.5,162.5 33.5,162.5C 30.7567,159.299 28.7567,155.633 27.5,151.5C 28.8333,148.167 30.1667,144.833 31.5,141.5C 31.3764,140.893 31.0431,140.56 30.5,140.5C 30.5569,139.391 30.8902,138.391 31.5,137.5C 32.1667,137.5 32.5,137.167 32.5,136.5C 32.8333,135.833 33.1667,135.167 33.5,134.5 Z"/></g>
<g><path style="opacity:1" fill="#eef7e5" d="M 5.5,159.5 C 7.46455,159.948 7.79789,160.948 6.5,162.5C 5.61432,161.675 5.28099,160.675 5.5,159.5 Z"/></g>
<g><path style="opacity:1" fill="#eef7e5" d="M 101.5,159.5 C 103.465,159.948 103.798,160.948 102.5,162.5C 101.614,161.675 101.281,160.675 101.5,159.5 Z"/></g>
<g><path style="opacity:1" fill="#1b181b" d="M 53.5,161.5 C 59.7436,162.458 66.077,162.791 72.5,162.5C 61.5046,163.817 48.5046,163.817 33.5,162.5C 36.5,162.5 39.5,162.5 42.5,162.5C 46.3714,162.815 50.0381,162.482 53.5,161.5 Z"/></g>
</svg>
