<?xml version="1.0" encoding="UTF-8"?>
<!DOCTYPE svg PUBLIC "-//W3C//DTD SVG 1.1//EN" "http://www.w3.org/Graphics/SVG/1.1/DTD/svg11.dtd">
<svg xmlns="http://www.w3.org/2000/svg" version="1.1" width="110px" height="170px" style="shape-rendering:geometricPrecision; text-rendering:geometricPrecision; image-rendering:optimizeQuality; fill-rule:evenodd; clip-rule:evenodd" xmlns:xlink="http://www.w3.org/1999/xlink">
<g><path style="opacity:1" fill="#ecf2e1" d="M -0.5,-0.5 C 36.1667,-0.5 72.8333,-0.5 109.5,-0.5C 109.5,56.1667 109.5,112.833 109.5,169.5C 72.8333,169.5 36.1667,169.5 -0.5,169.5C -0.5,112.833 -0.5,56.1667 -0.5,-0.5 Z"/></g>
<g><path style="opacity:1" fill="#d73631" d="M 3.5,4.5 C 8.89404,3.72836 10.894,6.06169 9.5,11.5C 10.894,16.9383 8.89404,19.2716 3.5,18.5C 3.5,13.8333 3.5,9.16667 3.5,4.5 Z"/></g>
<g><path style="opacity:1" fill="#d73631" d="M 99.5,4.5 C 104.894,3.72836 106.894,6.06169 105.5,11.5C 106.894,16.9383 104.894,19.2716 99.5,18.5C 99.5,13.8333 99.5,9.16667 99.5,4.5 Z"/></g>
<g><path style="opacity:1" fill="#eff5e4" d="M 5.5,6.5 C 6.77725,7.69363 7.44392,9.3603 7.5,11.5C 7.16667,13.1667 6.83333,14.8333 6.5,16.5C 5.51298,13.2317 5.17964,9.89838 5.5,6.5 Z"/></g>
<g><path style="opacity:1" fill="#eff5e4" d="M 101.5,6.5 C 102.777,7.69363 103.444,9.3603 103.5,11.5C 103.167,13.1667 102.833,14.8333 102.5,16.5C 101.513,13.2317 101.18,9.89838 101.5,6.5 Z"/></g>
<g><path style="opacity:1" fill="#224a32" d="M 53.5,8.5 C 52.3951,9.60048 51.0618,10.2671 49.5,10.5C 47.302,10.1201 45.6354,10.7868 44.5,12.5C 43.5116,13.795 42.5116,15.1283 41.5,16.5C 40.3054,16.8656 39.6387,17.699 39.5,19C 40.2887,20.6255 41.2887,22.1255 42.5,23.5C 41.8284,25.1595 40.8284,26.4928 39.5,27.5C 37.9064,27.9195 36.4064,28.5862 35,29.5C 34.5,29.1667 34,28.8333 33.5,28.5C 34.8975,26.1018 36.8975,24.4351 39.5,23.5C 33.2885,23.0517 32.9552,21.5517 38.5,19C 34.5,17.6667 34.5,16.3333 38.5,15C 38.0426,14.586 37.7093,14.086 37.5,13.5C 38.8631,12.1072 39.6964,10.4405 40,8.5C 41.7787,11.2764 42.7787,10.9431 43,7.5C 44.8333,10.3333 46.3333,10.1667 47.5,7C 36.1667,6.66667 24.8333,6.33333 13.5,6C 40.8333,5.33333 68.1667,5.33333 95.5,6C 81.8333,6.33333 68.1667,6.66667 54.5,7C 53.944,7.38258 53.6107,7.88258 53.5,8.5 Z"/></g>
<g><path style="opacity:1" fill="#d52323" d="M 15.5,11.5 C 17.8273,11.2471 19.8273,11.9137 21.5,13.5C 24.041,10.8997 26.541,10.8997 29,13.5C 29.3746,19.334 26.8746,23.6673 21.5,26.5C 16.1254,23.6673 13.6254,19.334 14,13.5C 14.7172,12.9558 15.2172,12.2891 15.5,11.5 Z"/></g>
<g><path style="opacity:1" fill="#412011" d="M 49.5,10.5 C 50.1667,11.5 50.8333,12.5 51.5,13.5C 51.6841,16.3213 50.3507,17.9879 47.5,18.5C 45.677,17.2528 43.677,16.5861 41.5,16.5C 42.5116,15.1283 43.5116,13.795 44.5,12.5C 45.6354,10.7868 47.302,10.1201 49.5,10.5 Z"/></g>
<g><path style="opacity:1" fill="#961a17" d="M 44.5,12.5 C 46.2049,15.2869 47.3716,14.9535 48,11.5C 49.1192,12.5521 49.6192,13.7188 49.5,15C 46.1935,17.5326 44.5268,16.6992 44.5,12.5 Z"/></g>
<g><path style="opacity:1" fill="#a68c24" d="M 53.5,8.5 C 59.8941,8.45528 64.7274,11.122 68,16.5C 71.1146,25.3869 69.7812,33.3869 64,40.5C 63.5017,43.8168 63.335,47.1501 63.5,50.5C 62.5,50.5 61.5,50.5 60.5,50.5C 61.4908,48.8773 60.8241,47.8773 58.5,47.5C 58.2011,45.396 58.5344,43.396 59.5,41.5C 61.9377,40.0692 63.6044,38.0692 64.5,35.5C 64.3284,34.5084 64.6618,33.8417 65.5,33.5C 67.4087,29.2457 67.742,24.9124 66.5,20.5C 66.3059,18.0882 64.9726,17.0882 62.5,17.5C 58.3113,17.1816 55.1447,18.8482 53,22.5C 52.2496,21.8742 51.4162,21.3742 50.5,21C 52.019,19.6487 53.3523,18.1487 54.5,16.5C 53.452,15.452 52.452,14.452 51.5,13.5C 50.8333,12.5 50.1667,11.5 49.5,10.5C 51.0618,10.2671 52.3951,9.60048 53.5,8.5 Z"/></g>
<g><path style="opacity:1" fill="#d7362f" d="M 3.5,21.5 C 5.01739,21.5106 6.18405,22.1772 7,23.5C 10.7017,20.7414 12.3683,21.7414 12,26.5C 8.66667,33.1667 5.33333,33.1667 2,26.5C 1.38715,24.5048 1.88715,22.8381 3.5,21.5 Z"/></g>
<g><path style="opacity:1" fill="#d7362f" d="M 97.5,21.5 C 99.3904,21.2965 100.89,21.9632 102,23.5C 103.667,20.8333 105.333,20.8333 107,23.5C 106.885,26.3428 105.718,28.8428 103.5,31C 97.8797,30.2781 95.8797,27.1115 97.5,21.5 Z"/></g>
<g><path style="opacity:1" fill="#e6d9c8" d="M 62.5,17.5 C 64.9726,17.0882 66.3059,18.0882 66.5,20.5C 66.5,22.1667 66.5,23.8333 66.5,25.5C 64.5165,25.3832 62.8498,26.0499 61.5,27.5C 63.6904,29.0069 65.0238,31.0069 65.5,33.5C 64.6618,33.8417 64.3284,34.5084 64.5,35.5C 62.7041,36.7927 61.0375,38.2927 59.5,40C 57.8333,40.3333 56.1667,40.6667 54.5,41C 55.448,41.4828 56.448,41.6495 57.5,41.5C 57.5,43.5 57.5,45.5 57.5,47.5C 54.6466,48.1354 51.8132,48.4687 49,48.5C 47.9231,47.5705 46.7564,46.9038 45.5,46.5C 45.5,45.1667 45.5,43.8333 45.5,42.5C 46.8221,42.67 47.9887,42.3366 49,41.5C 49.1129,39.0261 50.1129,37.0261 52,35.5C 52.1735,31.4592 52.6735,27.4592 53.5,23.5C 56.0471,20.5841 59.0471,18.5841 62.5,17.5 Z"/></g>
<g><path style="opacity:1" fill="#8d7a22" d="M 51.5,13.5 C 52.452,14.452 53.452,15.452 54.5,16.5C 53.3523,18.1487 52.019,19.6487 50.5,21C 51.4162,21.3742 52.2496,21.8742 53,22.5C 55.1447,18.8482 58.3113,17.1816 62.5,17.5C 59.0471,18.5841 56.0471,20.5841 53.5,23.5C 52.6735,27.4592 52.1735,31.4592 52,35.5C 50.1129,37.0261 49.1129,39.0261 49,41.5C 47.9887,42.3366 46.8221,42.67 45.5,42.5C 45.5,43.8333 45.5,45.1667 45.5,46.5C 44.5,46.5 43.5,46.5 42.5,46.5C 43.1667,45.8333 43.8333,45.1667 44.5,44.5C 44.3708,41.2983 42.8708,38.965 40,37.5C 39.5017,34.1832 39.335,30.8499 39.5,27.5C 40.8284,26.4928 41.8284,25.1595 42.5,23.5C 41.2887,22.1255 40.2887,20.6255 39.5,19C 39.6387,17.699 40.3054,16.8656 41.5,16.5C 43.677,16.5861 45.677,17.2528 47.5,18.5C 50.3507,17.9879 51.6841,16.3213 51.5,13.5 Z"/></g>
<g><path style="opacity:1" fill="#6a685e" d="M 66.5,20.5 C 67.742,24.9124 67.4087,29.2457 65.5,33.5C 65.0238,31.0069 63.6904,29.0069 61.5,27.5C 62.8498,26.0499 64.5165,25.3832 66.5,25.5C 66.5,23.8333 66.5,22.1667 66.5,20.5 Z"/></g>
<g><path style="opacity:1" fill="#4e5150" d="M 58.5,24.5 C 59.2389,24.369 59.9056,24.5357 60.5,25C 59.6634,26.0113 59.33,27.1779 59.5,28.5C 57.567,28.2714 55.9003,27.4381 54.5,26C 56.0581,25.79 57.3915,25.29 58.5,24.5 Z"/></g>
<g><path style="opacity:1" fill="#275937" d="M 78.5,39.5 C 77.2089,40.5417 77.2089,41.7083 78.5,43C 76.5273,43.4955 74.5273,43.6621 72.5,43.5C 71.0047,43.5852 70.0047,42.9185 69.5,41.5C 71.5,40.8333 73.5,40.1667 75.5,39.5C 73.9986,36.1728 74.4986,33.1728 77,30.5C 79.3091,33.2423 79.8091,36.2423 78.5,39.5 Z"/></g>
<g><path style="opacity:1" fill="#512517" d="M 91.5,34.5 C 89.7741,34.1854 88.1075,34.0187 86.5,34C 88.286,35.1964 89.6193,36.6964 90.5,38.5C 89.6935,39.7281 88.6935,40.7281 87.5,41.5C 85.1417,41.7475 83.1417,41.0808 81.5,39.5C 79.2811,33.5556 81.2811,31.0556 87.5,32C 89.0664,32.6082 90.3998,33.4415 91.5,34.5 Z"/></g>
<g><path style="opacity:1" fill="#1a171a" d="M 7.5,65.5 C 6.63137,67.717 6.29803,70.0504 6.5,72.5C 6.5,76.5 6.5,80.5 6.5,84.5C 6.24401,88.2693 6.57734,91.9359 7.5,95.5C 6.66911,107.993 6.16911,120.66 6,133.5C 5.33333,100.833 5.33333,68.1667 6,35.5C 6.16985,45.6751 6.66985,55.6751 7.5,65.5 Z"/></g>
<g><path style="opacity:1" fill="#c0372b" d="M 56.5,36.5 C 57.9464,35.3871 59.6131,35.2204 61.5,36C 59.9769,37.7884 58.3102,37.9551 56.5,36.5 Z"/></g>
<g><path style="opacity:1" fill="#961d18" d="M 91.5,34.5 C 91.7678,36.099 91.4345,37.4324 90.5,38.5C 89.6193,36.6964 88.286,35.1964 86.5,34C 88.1075,34.0187 89.7741,34.1854 91.5,34.5 Z"/></g>
<g><path style="opacity:1" fill="#1a171a" d="M 102.5,103.5 C 102.5,101.167 102.5,98.8333 102.5,96.5C 102.5,92.5 102.5,88.5 102.5,84.5C 102.756,80.7307 102.423,77.0641 101.5,73.5C 102.331,61.0066 102.831,48.34 103,35.5C 104.378,78.2859 104.211,100.953 102.5,103.5 Z"/></g>
<g><path style="opacity:1" fill="#1c613c" d="M 89.5,44.5 C 89.5569,43.391 89.8902,42.391 90.5,41.5C 92.4844,40.3058 94.4844,40.3058 96.5,41.5C 95.1667,42.5 95.1667,43.5 96.5,44.5C 94.1889,45.5751 91.8555,45.5751 89.5,44.5 Z"/></g>
<g><path style="opacity:1" fill="#4f482e" d="M 64.5,35.5 C 63.6044,38.0692 61.9377,40.0692 59.5,41.5C 58.5344,43.396 58.2011,45.396 58.5,47.5C 58.1667,47.5 57.8333,47.5 57.5,47.5C 57.5,45.5 57.5,43.5 57.5,41.5C 56.448,41.6495 55.448,41.4828 54.5,41C 56.1667,40.6667 57.8333,40.3333 59.5,40C 61.0375,38.2927 62.7041,36.7927 64.5,35.5 Z"/></g>
<g><path style="opacity:1" fill="#215f3d" d="M 83.5,43.5 C 83.7352,42.9033 84.2352,42.5699 85,42.5C 86.4064,43.4138 87.9064,44.0805 89.5,44.5C 91.1004,46.5713 91.6004,48.9047 91,51.5C 87.8511,47.442 86.3511,48.1086 86.5,53.5C 86.1667,53.5 85.8333,53.5 85.5,53.5C 85.4431,52.391 85.1098,51.391 84.5,50.5C 83.6068,48.2814 83.9401,46.1147 85.5,44C 84.9056,43.5357 84.2389,43.369 83.5,43.5 Z"/></g>
<g><path style="opacity:1" fill="#e3d9a4" d="M 44.5,44.5 C 43.8333,45.1667 43.1667,45.8333 42.5,46.5C 41.8592,47.4822 41.1925,48.4822 40.5,49.5C 41.6016,50.1757 42.6016,50.8423 43.5,51.5C 43.1667,51.5 42.8333,51.5 42.5,51.5C 41.391,51.5569 40.391,51.8902 39.5,52.5C 35.6433,53.0656 32.9766,55.0656 31.5,58.5C 28.3642,58.6031 25.6975,59.6031 23.5,61.5C 22.3242,65.1933 20.4908,68.5267 18,71.5C 16.7355,75.7543 15.9022,80.0876 15.5,84.5C 12.5,84.5 9.5,84.5 6.5,84.5C 6.5,80.5 6.5,76.5 6.5,72.5C 10.6909,66.5355 15.6909,61.2022 21.5,56.5C 24.5347,54.9833 27.2013,52.8167 29.5,50C 34.113,47.0231 39.113,45.1898 44.5,44.5 Z"/></g>
<g><path style="opacity:1" fill="#e4d8c7" d="M 83.5,43.5 C 84.2389,43.369 84.9056,43.5357 85.5,44C 83.9401,46.1147 83.6068,48.2814 84.5,50.5C 82.5266,51.4867 80.5266,52.4867 78.5,53.5C 77.6919,53.1924 77.0253,52.6924 76.5,52C 79.5242,50.2009 81.3575,47.7009 82,44.5C 83.0875,46.9316 83.5875,46.5983 83.5,43.5 Z"/></g>
<g><path style="opacity:1" fill="#e3bc24" d="M 42.5,46.5 C 43.5,46.5 44.5,46.5 45.5,46.5C 46.7564,46.9038 47.9231,47.5705 49,48.5C 51.8132,48.4687 54.6466,48.1354 57.5,47.5C 57.8333,47.5 58.1667,47.5 58.5,47.5C 60.8241,47.8773 61.4908,48.8773 60.5,50.5C 57.7219,52.0255 54.7219,53.0255 51.5,53.5C 51.1667,53.5 50.8333,53.5 50.5,53.5C 48.2278,52.6814 45.8945,52.0147 43.5,51.5C 42.6016,50.8423 41.6016,50.1757 40.5,49.5C 41.1925,48.4822 41.8592,47.4822 42.5,46.5 Z"/></g>
<g><path style="opacity:1" fill="#e6ddcb" d="M 60.5,50.5 C 61.5,50.5 62.5,50.5 63.5,50.5C 66.0041,51.5839 68.3374,52.9172 70.5,54.5C 66.8781,56.7867 63.5448,59.4534 60.5,62.5C 53.4655,62.7559 46.7988,63.7559 40.5,65.5C 39.609,64.8902 38.609,64.5569 37.5,64.5C 35.8061,62.1394 33.8061,60.1394 31.5,58.5C 32.9766,55.0656 35.6433,53.0656 39.5,52.5C 38.3744,53.8583 38.3744,55.1916 39.5,56.5C 41.2623,55.3115 42.2623,53.6449 42.5,51.5C 42.8333,51.5 43.1667,51.5 43.5,51.5C 45.8945,52.0147 48.2278,52.6814 50.5,53.5C 50.3796,55.1986 50.0463,56.8653 49.5,58.5C 49.9739,61.6997 50.9739,62.033 52.5,59.5C 51.6518,57.5914 51.3184,55.5914 51.5,53.5C 54.7219,53.0255 57.7219,52.0255 60.5,50.5 Z"/></g>
<g><path style="opacity:1" fill="#85857a" d="M 78.5,39.5 C 79.5,39.5 80.5,39.5 81.5,39.5C 83.1417,41.0808 85.1417,41.7475 87.5,41.5C 88.5,41.5 89.5,41.5 90.5,41.5C 89.8902,42.391 89.5569,43.391 89.5,44.5C 87.9064,44.0805 86.4064,43.4138 85,42.5C 84.2352,42.5699 83.7352,42.9033 83.5,43.5C 83.5875,46.5983 83.0875,46.9316 82,44.5C 81.3575,47.7009 79.5242,50.2009 76.5,52C 77.0253,52.6924 77.6919,53.1924 78.5,53.5C 80.5266,52.4867 82.5266,51.4867 84.5,50.5C 85.1098,51.391 85.4431,52.391 85.5,53.5C 81.7391,55.9309 77.7391,56.7642 73.5,56C 68.6671,58.6888 64.0004,61.5221 59.5,64.5C 59.8333,63.8333 60.1667,63.1667 60.5,62.5C 63.5448,59.4534 66.8781,56.7867 70.5,54.5C 72.288,54.7852 73.9547,54.4519 75.5,53.5C 73.8333,52.1667 72.1667,50.8333 70.5,49.5C 71.0253,48.8076 71.6919,48.3076 72.5,48C 71.6919,47.6924 71.0253,47.1924 70.5,46.5C 71.1925,45.4822 71.8592,44.4822 72.5,43.5C 74.5273,43.6621 76.5273,43.4955 78.5,43C 77.2089,41.7083 77.2089,40.5417 78.5,39.5 Z"/></g>
<g><path style="opacity:1" fill="#4e788e" d="M 42.5,51.5 C 42.2623,53.6449 41.2623,55.3115 39.5,56.5C 38.3744,55.1916 38.3744,53.8583 39.5,52.5C 40.391,51.8902 41.391,51.5569 42.5,51.5 Z"/></g>
<g><path style="opacity:1" fill="#35728c" d="M 59.5,53.5 C 59.56,52.9569 59.8933,52.6236 60.5,52.5C 61.9814,53.4803 63.3147,54.647 64.5,56C 64,56.5 63.5,57 63,57.5C 61.5952,56.2695 60.4286,54.9361 59.5,53.5 Z"/></g>
<g><path style="opacity:1" fill="#e0bf10" d="M 85.5,53.5 C 85.8333,53.5 86.1667,53.5 86.5,53.5C 88.0017,57.3425 88.6684,61.3425 88.5,65.5C 88.0019,70.1522 87.6686,74.8189 87.5,79.5C 84.2457,79.7931 81.2457,79.1264 78.5,77.5C 79.6334,73.4331 80.9668,69.4331 82.5,65.5C 82.5,65.1667 82.5,64.8333 82.5,64.5C 81.6799,62.8599 80.8466,61.1932 80,59.5C 69.0497,64.7854 58.8831,71.2854 49.5,79C 47.6266,80.7038 45.9599,82.5372 44.5,84.5C 41.5,84.5 38.5,84.5 35.5,84.5C 36.8333,83.5 38.1667,82.5 39.5,81.5C 41.8333,81.1667 43.1667,79.8333 43.5,77.5C 43.9382,77.5654 44.2716,77.3988 44.5,77C 41.5624,73.5513 38.2291,70.718 34.5,68.5C 35.6323,66.5331 35.2989,64.6998 33.5,63C 31.0709,62.2967 28.7375,62.4634 26.5,63.5C 25.5,62.8333 24.5,62.1667 23.5,61.5C 25.6975,59.6031 28.3642,58.6031 31.5,58.5C 33.8061,60.1394 35.8061,62.1394 37.5,64.5C 39.8785,66.8777 42.5451,68.8777 45.5,70.5C 45.5,71.5 45.5,72.5 45.5,73.5C 47.5,73.5 49.5,73.5 51.5,73.5C 51.5,72.5 51.5,71.5 51.5,70.5C 55.2388,69.9607 57.9055,67.9607 59.5,64.5C 64.0004,61.5221 68.6671,58.6888 73.5,56C 77.7391,56.7642 81.7391,55.9309 85.5,53.5 Z"/></g>
<g><path style="opacity:1" fill="#3b7792" d="M 50.5,53.5 C 50.8333,53.5 51.1667,53.5 51.5,53.5C 51.3184,55.5914 51.6518,57.5914 52.5,59.5C 50.9739,62.033 49.9739,61.6997 49.5,58.5C 50.0463,56.8653 50.3796,55.1986 50.5,53.5 Z"/></g>
<g><path style="opacity:1" fill="#17623e" d="M 82.5,64.5 C 79.6538,64.5516 77.3204,65.5516 75.5,67.5C 73.6994,70.6313 71.0328,72.6313 67.5,73.5C 64.1362,76.1751 60.8029,78.8418 57.5,81.5C 55.5956,81.7376 54.2623,82.7376 53.5,84.5C 50.5,84.5 47.5,84.5 44.5,84.5C 45.9599,82.5372 47.6266,80.7038 49.5,79C 58.8831,71.2854 69.0497,64.7854 80,59.5C 80.8466,61.1932 81.6799,62.8599 82.5,64.5 Z"/></g>
<g><path style="opacity:1" fill="#186744" d="M 23.5,61.5 C 24.5,62.1667 25.5,62.8333 26.5,63.5C 24.8899,66.1888 24.0566,69.1888 24,72.5C 22.4905,73.0897 20.9905,73.7564 19.5,74.5C 21.3836,78.0172 23.7169,78.3506 26.5,75.5C 27.1667,76.1667 27.8333,76.8333 28.5,77.5C 31.7339,75.4283 32.0672,73.095 29.5,70.5C 31.0217,69.438 32.6883,68.7713 34.5,68.5C 38.2291,70.718 41.5624,73.5513 44.5,77C 44.2716,77.3988 43.9382,77.5654 43.5,77.5C 41.8333,78.5 40.5,79.8333 39.5,81.5C 38.1667,82.5 36.8333,83.5 35.5,84.5C 34.8333,84.8333 34.1667,85.1667 33.5,85.5C 30.0381,84.5184 26.3714,84.185 22.5,84.5C 20.1667,84.5 17.8333,84.5 15.5,84.5C 15.9022,80.0876 16.7355,75.7543 18,71.5C 20.4908,68.5267 22.3242,65.1933 23.5,61.5 Z"/></g>
<g><path style="opacity:1" fill="#9f2a22" d="M 21.5,56.5 C 15.6909,61.2022 10.6909,66.5355 6.5,72.5C 6.29803,70.0504 6.63137,67.717 7.5,65.5C 11.4787,61.5058 16.1454,58.5058 21.5,56.5 Z"/></g>
<g><path style="opacity:1" fill="#a51e1b" d="M 34.5,68.5 C 32.6883,68.7713 31.0217,69.438 29.5,70.5C 32.0672,73.095 31.7339,75.4283 28.5,77.5C 27.8333,76.8333 27.1667,76.1667 26.5,75.5C 23.7169,78.3506 21.3836,78.0172 19.5,74.5C 20.9905,73.7564 22.4905,73.0897 24,72.5C 24.0566,69.1888 24.8899,66.1888 26.5,63.5C 28.7375,62.4634 31.0709,62.2967 33.5,63C 35.2989,64.6998 35.6323,66.5331 34.5,68.5 Z"/></g>
<g><path style="opacity:1" fill="#3c3c35" d="M 60.5,62.5 C 60.1667,63.1667 59.8333,63.8333 59.5,64.5C 53.2885,64.2418 46.9552,64.5751 40.5,65.5C 46.7988,63.7559 53.4655,62.7559 60.5,62.5 Z"/></g>
<g><path style="opacity:1" fill="#bd171d" d="M 82.5,65.5 C 80.9668,69.4331 79.6334,73.4331 78.5,77.5C 76.7549,79.0326 75.7549,81.0326 75.5,83.5C 74.8333,83.8333 74.1667,84.1667 73.5,84.5C 70.5,84.5 67.5,84.5 64.5,84.5C 61.5,84.5 58.5,84.5 55.5,84.5C 56.1667,83.5 56.8333,82.5 57.5,81.5C 60.8029,78.8418 64.1362,76.1751 67.5,73.5C 71.0328,72.6313 73.6994,70.6313 75.5,67.5C 77.8333,66.8333 80.1667,66.1667 82.5,65.5 Z"/></g>
<g><path style="opacity:1" fill="#bb191d" d="M 88.5,65.5 C 91.7017,67.1782 95.035,68.6782 98.5,70C 99.7101,71.0391 100.71,72.2058 101.5,73.5C 102.423,77.0641 102.756,80.7307 102.5,84.5C 99.5,84.5 96.5,84.5 93.5,84.5C 91.1667,84.5 88.8333,84.5 86.5,84.5C 87.3007,82.9582 87.634,81.2915 87.5,79.5C 87.6686,74.8189 88.0019,70.1522 88.5,65.5 Z"/></g>
<g><path style="opacity:1" fill="#4b1b13" d="M 82.5,64.5 C 82.5,64.8333 82.5,65.1667 82.5,65.5C 80.1667,66.1667 77.8333,66.8333 75.5,67.5C 77.3204,65.5516 79.6538,64.5516 82.5,64.5 Z"/></g>
<g><path style="opacity:1" fill="#e4b35a" d="M 37.5,64.5 C 38.609,64.5569 39.609,64.8902 40.5,65.5C 46.9552,64.5751 53.2885,64.2418 59.5,64.5C 57.9055,67.9607 55.2388,69.9607 51.5,70.5C 49.5,70.5 47.5,70.5 45.5,70.5C 42.5451,68.8777 39.8785,66.8777 37.5,64.5 Z"/></g>
<g><path style="opacity:1" fill="#e4d105" d="M 44.5,67.5 C 47.6399,66.3592 50.9733,66.1925 54.5,67C 51.2103,68.7348 47.877,68.9015 44.5,67.5 Z"/></g>
<g><path style="opacity:1" fill="#215f7e" d="M 45.5,70.5 C 47.5,70.5 49.5,70.5 51.5,70.5C 51.5,71.5 51.5,72.5 51.5,73.5C 49.5,73.5 47.5,73.5 45.5,73.5C 45.5,72.5 45.5,71.5 45.5,70.5 Z"/></g>
<g><path style="opacity:1" fill="#ddcebe" d="M 43.5,77.5 C 43.1667,79.8333 41.8333,81.1667 39.5,81.5C 40.5,79.8333 41.8333,78.5 43.5,77.5 Z"/></g>
<g><path style="opacity:1" fill="#a8a394" d="M 78.5,77.5 C 81.2457,79.1264 84.2457,79.7931 87.5,79.5C 87.634,81.2915 87.3007,82.9582 86.5,84.5C 82.6286,84.815 78.9619,84.4816 75.5,83.5C 75.7549,81.0326 76.7549,79.0326 78.5,77.5 Z"/></g>
<g><path style="opacity:1" fill="#3e1f17" d="M 57.5,81.5 C 56.8333,82.5 56.1667,83.5 55.5,84.5C 54.7377,86.2624 53.4044,87.2624 51.5,87.5C 52.1667,86.5 52.8333,85.5 53.5,84.5C 54.2623,82.7376 55.5956,81.7376 57.5,81.5 Z"/></g>
<g><path style="opacity:1" fill="#b71a1d" d="M 6.5,84.5 C 9.5,84.5 12.5,84.5 15.5,84.5C 17.8333,84.5 20.1667,84.5 22.5,84.5C 22.5,84.8333 22.5,85.1667 22.5,85.5C 21.5655,86.5676 21.2322,87.901 21.5,89.5C 21.5,90.8333 21.5,92.1667 21.5,93.5C 20.5206,96.6248 20.1872,99.9581 20.5,103.5C 15.163,102.502 10.8297,99.8358 7.5,95.5C 6.57734,91.9359 6.24401,88.2693 6.5,84.5 Z"/></g>
<g><path style="opacity:1" fill="#e5dac9" d="M 22.5,85.5 C 22.5,85.1667 22.5,84.8333 22.5,84.5C 26.3714,84.185 30.0381,84.5184 33.5,85.5C 32.8902,86.391 32.5569,87.391 32.5,88.5C 29.3408,86.9205 26.0075,85.9205 22.5,85.5 Z"/></g>
<g><path style="opacity:1" fill="#bb181d" d="M 35.5,84.5 C 38.5,84.5 41.5,84.5 44.5,84.5C 47.5,84.5 50.5,84.5 53.5,84.5C 52.8333,85.5 52.1667,86.5 51.5,87.5C 45.1615,92.3349 38.8282,97.1682 32.5,102C 30.5115,102.938 28.5115,103.772 26.5,104.5C 27.8375,100.155 29.1708,95.8218 30.5,91.5C 31.9063,91.0269 32.573,90.0269 32.5,88.5C 32.5569,87.391 32.8902,86.391 33.5,85.5C 34.1667,85.1667 34.8333,84.8333 35.5,84.5 Z"/></g>
<g><path style="opacity:1" fill="#16613e" d="M 55.5,84.5 C 58.5,84.5 61.5,84.5 64.5,84.5C 63.0401,86.4628 61.3734,88.2962 59.5,90C 52.3239,94.7546 45.3239,99.7546 38.5,105C 35.3785,106.645 32.2118,108.145 29,109.5C 28.7216,108.584 28.2216,107.918 27.5,107.5C 27.4431,106.391 27.1098,105.391 26.5,104.5C 28.5115,103.772 30.5115,102.938 32.5,102C 38.8282,97.1682 45.1615,92.3349 51.5,87.5C 53.4044,87.2624 54.7377,86.2624 55.5,84.5 Z"/></g>
<g><path style="opacity:1" fill="#106844" d="M 75.5,83.5 C 78.9619,84.4816 82.6286,84.815 86.5,84.5C 88.8333,84.5 91.1667,84.5 93.5,84.5C 93.0978,88.9124 92.2645,93.2457 91,97.5C 88.5092,100.473 86.6758,103.807 85.5,107.5C 84.5,106.833 83.5,106.167 82.5,105.5C 84.1101,102.811 84.9434,99.8112 85,96.5C 86.5095,95.9103 88.0095,95.2436 89.5,94.5C 87.7236,90.8614 85.3903,90.528 82.5,93.5C 81.8333,92.5 81.1667,91.5 80.5,90.5C 77.6421,92.9199 77.3088,95.4199 79.5,98C 78.0899,99.3717 76.4233,100.205 74.5,100.5C 70.7709,98.282 67.4376,95.4487 64.5,92C 64.7284,91.6012 65.0618,91.4346 65.5,91.5C 68.8384,90.3885 71.5051,88.3885 73.5,85.5C 73.5,85.1667 73.5,84.8333 73.5,84.5C 74.1667,84.1667 74.8333,83.8333 75.5,83.5 Z"/></g>
<g><path style="opacity:1" fill="#e8dda6" d="M 93.5,84.5 C 96.5,84.5 99.5,84.5 102.5,84.5C 102.5,88.5 102.5,92.5 102.5,96.5C 98.3091,102.465 93.3091,107.798 87.5,112.5C 83.7334,115.087 80.0667,117.92 76.5,121C 72.7686,123.099 68.7686,124.266 64.5,124.5C 65.2625,123.732 66.2625,123.232 67.5,123C 68.7383,122.31 68.7383,121.81 67.5,121.5C 68.625,120.348 68.625,119.348 67.5,118.5C 67.5,117.833 67.8333,117.5 68.5,117.5C 72.9612,116.617 76.2945,114.283 78.5,110.5C 81.2718,110.241 83.6051,109.241 85.5,107.5C 86.6758,103.807 88.5092,100.473 91,97.5C 92.2645,93.2457 93.0978,88.9124 93.5,84.5 Z"/></g>
<g><path style="opacity:1" fill="#8a887b" d="M 22.5,85.5 C 26.0075,85.9205 29.3408,86.9205 32.5,88.5C 32.573,90.0269 31.9063,91.0269 30.5,91.5C 27.7543,89.8736 24.7543,89.2069 21.5,89.5C 21.2322,87.901 21.5655,86.5676 22.5,85.5 Z"/></g>
<g><path style="opacity:1" fill="#77806e" d="M 73.5,85.5 C 71.5051,88.3885 68.8384,90.3885 65.5,91.5C 66.9726,88.0789 69.6393,86.0789 73.5,85.5 Z"/></g>
<g><path style="opacity:1" fill="#e3ca0a" d="M 21.5,89.5 C 24.7543,89.2069 27.7543,89.8736 30.5,91.5C 29.1708,95.8218 27.8375,100.155 26.5,104.5C 27.1098,105.391 27.4431,106.391 27.5,107.5C 27.3915,109.514 28.0582,111.18 29.5,112.5C 27.7392,113.313 26.0725,114.313 24.5,115.5C 23.8333,115.5 23.1667,115.5 22.5,115.5C 22.5,114.833 22.5,114.167 22.5,113.5C 21.669,106.869 21.3357,100.202 21.5,93.5C 21.5,92.1667 21.5,90.8333 21.5,89.5 Z"/></g>
<g><path style="opacity:1" fill="#a41e1b" d="M 82.5,105.5 C 78.3621,107.545 75.3621,106.545 73.5,102.5C 73.8627,101.817 74.1961,101.15 74.5,100.5C 76.4233,100.205 78.0899,99.3717 79.5,98C 77.3088,95.4199 77.6421,92.9199 80.5,90.5C 81.1667,91.5 81.8333,92.5 82.5,93.5C 85.3903,90.528 87.7236,90.8614 89.5,94.5C 88.0095,95.2436 86.5095,95.9103 85,96.5C 84.9434,99.8112 84.1101,102.811 82.5,105.5 Z"/></g>
<g><path style="opacity:1" fill="#dfba17" d="M 64.5,84.5 C 67.5,84.5 70.5,84.5 73.5,84.5C 73.5,84.8333 73.5,85.1667 73.5,85.5C 69.6393,86.0789 66.9726,88.0789 65.5,91.5C 65.0618,91.4346 64.7284,91.6012 64.5,92C 67.4376,95.4487 70.7709,98.282 74.5,100.5C 74.1961,101.15 73.8627,101.817 73.5,102.5C 75.3621,106.545 78.3621,107.545 82.5,105.5C 83.5,106.167 84.5,106.833 85.5,107.5C 83.6051,109.241 81.2718,110.241 78.5,110.5C 75.4822,108.474 72.4822,106.474 69.5,104.5C 64.0247,103.511 58.358,103.178 52.5,103.5C 53.9687,101.895 53.6354,101.395 51.5,102C 49.2368,103.617 47.2368,105.45 45.5,107.5C 42.3816,109.563 39.0482,111.396 35.5,113C 33.4546,113.49 31.4546,113.323 29.5,112.5C 28.0582,111.18 27.3915,109.514 27.5,107.5C 28.2216,107.918 28.7216,108.584 29,109.5C 32.2118,108.145 35.3785,106.645 38.5,105C 45.3239,99.7546 52.3239,94.7546 59.5,90C 61.3734,88.2962 63.0401,86.4628 64.5,84.5 Z"/></g>
<g><path style="opacity:1" fill="#265871" d="M 57.5,95.5 C 59.5,95.5 61.5,95.5 63.5,95.5C 63.5,96.5 63.5,97.5 63.5,98.5C 61.5,98.5 59.5,98.5 57.5,98.5C 57.5,97.5 57.5,96.5 57.5,95.5 Z"/></g>
<g><path style="opacity:1" fill="#a62923" d="M 102.5,96.5 C 102.5,98.8333 102.5,101.167 102.5,103.5C 97.7418,106.93 92.7418,109.93 87.5,112.5C 93.3091,107.798 98.3091,102.465 102.5,96.5 Z"/></g>
<g><path style="opacity:1" fill="#4b4d49" d="M 93.5,98.5 C 94.6878,100.496 94.0211,101.329 91.5,101C 92.3805,100.292 93.0472,99.4584 93.5,98.5 Z"/></g>
<g><path style="opacity:1" fill="#6f6f69" d="M 52.5,103.5 C 58.358,103.178 64.0247,103.511 69.5,104.5C 72.3149,107.42 71.9815,107.92 68.5,106C 62.5,105.667 56.5,105.333 50.5,105C 51.0442,104.283 51.7109,103.783 52.5,103.5 Z"/></g>
<g><path style="opacity:1" fill="#e6ddcb" d="M 52.5,103.5 C 51.7109,103.783 51.0442,104.283 50.5,105C 56.5,105.333 62.5,105.667 68.5,106C 71.9815,107.92 72.3149,107.42 69.5,104.5C 72.4822,106.474 75.4822,108.474 78.5,110.5C 76.2945,114.283 72.9612,116.617 68.5,117.5C 69.8675,115.858 70.2008,114.192 69.5,112.5C 68.1128,114.21 66.7794,115.877 65.5,117.5C 63.1055,116.985 60.7722,116.319 58.5,115.5C 58.9926,113.194 59.3259,110.861 59.5,108.5C 58.325,108.281 57.325,108.614 56.5,109.5C 57.3482,111.409 57.6816,113.409 57.5,115.5C 54.1697,116.025 51.0031,117.025 48,118.5C 46.8615,118.011 45.6948,117.678 44.5,117.5C 43.089,115.461 41.089,114.461 38.5,114.5C 41.4328,112.355 44.4328,110.188 47.5,108C 46.9056,107.536 46.2389,107.369 45.5,107.5C 47.2368,105.45 49.2368,103.617 51.5,102C 53.6354,101.395 53.9687,101.895 52.5,103.5 Z"/></g>
<g><path style="opacity:1" fill="#e1a53a" d="M 21.5,93.5 C 21.3357,100.202 21.669,106.869 22.5,113.5C 20.8255,110.493 20.1588,107.16 20.5,103.5C 20.1872,99.9581 20.5206,96.6248 21.5,93.5 Z"/></g>
<g><path style="opacity:1" fill="#7b7970" d="M 45.5,107.5 C 46.2389,107.369 46.9056,107.536 47.5,108C 44.4328,110.188 41.4328,112.355 38.5,114.5C 36.712,114.215 35.0453,114.548 33.5,115.5C 33.8627,116.183 34.1961,116.85 34.5,117.5C 32.9557,117.297 31.6223,116.63 30.5,115.5C 28.4734,116.513 26.4734,117.513 24.5,118.5C 23.1667,117.5 23.1667,116.5 24.5,115.5C 26.0725,114.313 27.7392,113.313 29.5,112.5C 31.4546,113.323 33.4546,113.49 35.5,113C 39.0482,111.396 42.3816,109.563 45.5,107.5 Z"/></g>
<g><path style="opacity:1" fill="#347491" d="M 58.5,115.5 C 58.1667,115.5 57.8333,115.5 57.5,115.5C 57.6816,113.409 57.3482,111.409 56.5,109.5C 57.325,108.614 58.325,108.281 59.5,108.5C 59.3259,110.861 58.9926,113.194 58.5,115.5 Z"/></g>
<g><path style="opacity:1" fill="#34708b" d="M 45.5,111.5 C 47.3386,112.508 48.6719,114.008 49.5,116C 47.4324,115.983 45.7657,114.983 44.5,113C 45.056,112.617 45.3893,112.117 45.5,111.5 Z"/></g>
<g><path style="opacity:1" fill="#51788b" d="M 68.5,117.5 C 67.8333,117.5 67.5,117.833 67.5,118.5C 66.5084,118.672 65.8417,118.338 65.5,117.5C 66.7794,115.877 68.1128,114.21 69.5,112.5C 70.2008,114.192 69.8675,115.858 68.5,117.5 Z"/></g>
<g><path style="opacity:1" fill="#d7cdbc" d="M 34.5,117.5 C 31.3753,118.1 31.042,119.267 33.5,121C 33.1667,121.167 32.8333,121.333 32.5,121.5C 31.3801,120.167 30.0468,119.667 28.5,120C 28.8333,120.333 29.1667,120.667 29.5,121C 27.8953,122.685 26.562,124.518 25.5,126.5C 25.0825,125.778 24.4158,125.278 23.5,125C 25.4576,122.997 25.7909,120.831 24.5,118.5C 26.4734,117.513 28.4734,116.513 30.5,115.5C 31.6223,116.63 32.9557,117.297 34.5,117.5 Z"/></g>
<g><path style="opacity:1" fill="#777770" d="M 38.5,114.5 C 41.089,114.461 43.089,115.461 44.5,117.5C 42.1815,117.008 40.1815,116.008 38.5,114.5 Z"/></g>
<g><path style="opacity:1" fill="#d6b222" d="M 57.5,115.5 C 57.8333,115.5 58.1667,115.5 58.5,115.5C 60.7722,116.319 63.1055,116.985 65.5,117.5C 65.8417,118.338 66.5084,118.672 67.5,118.5C 68.625,119.348 68.625,120.348 67.5,121.5C 66.2921,122.234 64.9587,122.567 63.5,122.5C 62.2436,122.096 61.0769,121.429 60,120.5C 58.3333,121.833 56.6667,121.833 55,120.5C 53.5405,120.808 52.3739,121.475 51.5,122.5C 50.7148,124.374 50.0482,126.374 49.5,128.5C 47.9826,128.511 46.8159,129.177 46,130.5C 45.5357,129.906 45.369,129.239 45.5,128.5C 45.756,124.731 45.4227,121.064 44.5,117.5C 45.6948,117.678 46.8615,118.011 48,118.5C 51.0031,117.025 54.1697,116.025 57.5,115.5 Z"/></g>
<g><path style="opacity:1" fill="#2f6044" d="M 22.5,115.5 C 23.1667,115.5 23.8333,115.5 24.5,115.5C 23.1667,116.5 23.1667,117.5 24.5,118.5C 25.7909,120.831 25.4576,122.997 23.5,125C 24.4158,125.278 25.0825,125.778 25.5,126.5C 24.5,126.5 23.5,126.5 22.5,126.5C 22.0269,125.094 21.0269,124.427 19.5,124.5C 17.8911,122.399 17.3911,120.065 18,117.5C 21.1489,121.558 22.6489,120.891 22.5,115.5 Z"/></g>
<g><path style="opacity:1" fill="#71756c" d="M 34.5,117.5 C 38.3765,117.483 39.0432,118.649 36.5,121C 37.3081,121.308 37.9747,121.808 38.5,122.5C 37.8075,123.518 37.1408,124.518 36.5,125.5C 34.4727,125.338 32.4727,125.505 30.5,126C 31.7387,128.118 31.4054,129.951 29.5,131.5C 29.1667,130.167 28.8333,130.167 28.5,131.5C 27.0087,128.909 24.6753,127.909 21.5,128.5C 21.3284,127.508 21.6618,126.842 22.5,126.5C 23.5,126.5 24.5,126.5 25.5,126.5C 26.562,124.518 27.8953,122.685 29.5,121C 29.1667,120.667 28.8333,120.333 28.5,120C 30.0468,119.667 31.3801,120.167 32.5,121.5C 32.8333,121.333 33.1667,121.167 33.5,121C 31.042,119.267 31.3753,118.1 34.5,117.5 Z"/></g>
<g><path style="opacity:1" fill="#20613c" d="M 19.5,124.5 C 18.4665,128.317 16.1332,129.317 12.5,127.5C 13.8333,126.5 13.8333,125.5 12.5,124.5C 14.8111,123.425 17.1445,123.425 19.5,124.5 Z"/></g>
<g><path style="opacity:1" fill="#4a4637" d="M 51.5,122.5 C 51.5,124.167 51.5,125.833 51.5,127.5C 52.552,127.351 53.552,127.517 54.5,128C 52.8659,128.494 51.1992,128.66 49.5,128.5C 50.0482,126.374 50.7148,124.374 51.5,122.5 Z"/></g>
<g><path style="opacity:1" fill="#e9dcca" d="M 63.5,122.5 C 63.5,123.833 63.5,125.167 63.5,126.5C 62.1779,126.33 61.0113,126.663 60,127.5C 59.8871,129.974 58.8871,131.974 57,133.5C 57.8061,140.357 55.6394,145.857 50.5,150C 48.8988,150.273 47.3988,150.773 46,151.5C 44.6412,150.635 43.4745,149.635 42.5,148.5C 42.5,146.833 42.5,145.167 42.5,143.5C 45.0336,143.741 46.7002,142.741 47.5,140.5C 46.1667,139.833 44.8333,139.167 43.5,138.5C 43.4914,136.692 43.9914,135.025 45,133.5C 46.7073,131.963 48.2073,130.296 49.5,128.5C 51.1992,128.66 52.8659,128.494 54.5,128C 53.552,127.517 52.552,127.351 51.5,127.5C 51.5,125.833 51.5,124.167 51.5,122.5C 52.3739,121.475 53.5405,120.808 55,120.5C 56.6667,121.833 58.3333,121.833 60,120.5C 61.0769,121.429 62.2436,122.096 63.5,122.5 Z"/></g>
<g><path style="opacity:1" fill="#8a7730" d="M 67.5,121.5 C 68.7383,121.81 68.7383,122.31 67.5,123C 66.2625,123.232 65.2625,123.732 64.5,124.5C 64.3022,127.77 65.8022,129.77 69,130.5C 69.4986,134.152 69.6653,137.818 69.5,141.5C 69.5,142.167 69.1667,142.5 68.5,142.5C 68.6653,138.818 68.4986,135.152 68,131.5C 66.313,131.417 64.1463,131.417 61.5,131.5C 61.5,132.833 61.5,134.167 61.5,135.5C 59.4099,135.45 58.0766,136.45 57.5,138.5C 57.5,140.833 57.5,143.167 57.5,145.5C 60.4291,146.649 60.9291,148.315 59,150.5C 58.5848,148.709 57.5848,147.376 56,146.5C 53.9245,149.588 51.0911,151.421 47.5,152C 46.4204,154.299 46.7537,156.466 48.5,158.5C 46.6096,158.703 45.1096,158.037 44,156.5C 42.2302,153.958 40.7302,151.291 39.5,148.5C 39.0268,143.51 39.5268,138.51 41,133.5C 42.0491,131.382 43.5491,129.716 45.5,128.5C 45.369,129.239 45.5357,129.906 46,130.5C 46.8159,129.177 47.9826,128.511 49.5,128.5C 48.2073,130.296 46.7073,131.963 45,133.5C 43.9914,135.025 43.4914,136.692 43.5,138.5C 42.0277,140.117 41.361,142.117 41.5,144.5C 41.5108,146.045 41.8442,147.378 42.5,148.5C 43.4745,149.635 44.6412,150.635 46,151.5C 47.3988,150.773 48.8988,150.273 50.5,150C 55.6394,145.857 57.8061,140.357 57,133.5C 58.8871,131.974 59.8871,129.974 60,127.5C 61.0113,126.663 62.1779,126.33 63.5,126.5C 63.5,125.167 63.5,123.833 63.5,122.5C 64.9587,122.567 66.2921,122.234 67.5,121.5 Z"/></g>
<g><path style="opacity:1" fill="#2c5c3a" d="M 36.5,125.5 C 37.9953,125.415 38.9953,126.081 39.5,127.5C 37.5,128.167 35.5,128.833 33.5,129.5C 34.8683,132.667 34.535,135.667 32.5,138.5C 30.5442,136.649 29.5442,134.316 29.5,131.5C 31.4054,129.951 31.7387,128.118 30.5,126C 32.4727,125.505 34.4727,125.338 36.5,125.5 Z"/></g>
<g><path style="opacity:1" fill="#582214" d="M 21.5,128.5 C 24.6753,127.909 27.0087,128.909 28.5,131.5C 27.4663,137.864 24.1329,139.198 18.5,135.5C 16.6828,131.867 17.6828,129.533 21.5,128.5 Z"/></g>
<g><path style="opacity:1" fill="#bd3025" d="M 48.5,131.5 C 50.1033,131.312 51.4366,131.812 52.5,133C 50.8333,133.667 49.1667,133.667 47.5,133C 48.056,132.617 48.3893,132.117 48.5,131.5 Z"/></g>
<g><path style="opacity:1" fill="#66665f" d="M 47.5,140.5 C 47.5,138.5 47.5,136.5 47.5,134.5C 49.1033,134.312 50.4366,134.812 51.5,136C 50.5509,136.617 49.7175,136.451 49,135.5C 48.8019,137.382 48.3019,139.048 47.5,140.5 Z"/></g>
<g><path style="opacity:1" fill="#d7362f" d="M 5.5,137.5 C 10.0795,138.243 12.2462,140.91 12,145.5C 10.4506,148.003 8.78392,148.003 7,145.5C 5.33333,148.167 3.66667,148.167 2,145.5C 2.29198,142.57 3.45864,139.903 5.5,137.5 Z"/></g>
<g><path style="opacity:1" fill="#d7362f" d="M 100.5,137.5 C 103.642,137.799 105.809,139.466 107,142.5C 107.779,144.906 106.946,146.573 104.5,147.5C 103.522,147.023 102.689,146.357 102,145.5C 98.2983,148.259 96.6317,147.259 97,142.5C 97.9973,140.677 99.1639,139.01 100.5,137.5 Z"/></g>
<g><path style="opacity:1" fill="#696963" d="M 43.5,138.5 C 44.8333,139.167 46.1667,139.833 47.5,140.5C 46.7002,142.741 45.0336,143.741 42.5,143.5C 42.5,145.167 42.5,146.833 42.5,148.5C 41.8442,147.378 41.5108,146.045 41.5,144.5C 41.361,142.117 42.0277,140.117 43.5,138.5 Z"/></g>
<g><path style="opacity:1" fill="#4c504f" d="M 49.5,140.5 C 51.433,140.729 53.0997,141.562 54.5,143C 52.7818,143.346 51.1151,143.846 49.5,144.5C 49.0941,143.443 49.0941,142.109 49.5,140.5 Z"/></g>
<g><path style="opacity:1" fill="#9a861e" d="M 68.5,142.5 C 67.5987,144.757 65.932,146.257 63.5,147C 65.3817,147.198 67.0484,147.698 68.5,148.5C 67.4481,148.771 66.1147,148.938 64.5,149C 65.6039,150.131 65.2705,150.965 63.5,151.5C 57.4011,150.795 56.0677,153.128 59.5,158.5C 57.9382,158.733 56.6049,159.4 55.5,160.5C 53.4727,160.662 51.4727,160.495 49.5,160C 48.944,159.617 48.6107,159.117 48.5,158.5C 46.7537,156.466 46.4204,154.299 47.5,152C 51.0911,151.421 53.9245,149.588 56,146.5C 57.5848,147.376 58.5848,148.709 59,150.5C 60.9291,148.315 60.4291,146.649 57.5,145.5C 57.5,143.167 57.5,140.833 57.5,138.5C 58.0766,136.45 59.4099,135.45 61.5,135.5C 61.5,134.167 61.5,132.833 61.5,131.5C 64.1463,131.417 66.313,131.417 68,131.5C 68.4986,135.152 68.6653,138.818 68.5,142.5 Z"/></g>
<g><path style="opacity:1" fill="#d52524" d="M 86.5,142.5 C 92.4757,144.943 95.3091,149.277 95,155.5C 92.541,158.1 90.041,158.1 87.5,155.5C 81.1956,158.712 78.6956,156.712 80,149.5C 82.3722,147.297 84.5389,144.963 86.5,142.5 Z"/></g>
<g><path style="opacity:1" fill="#d73631" d="M 4.5,150.5 C 6.16667,150.5 7.83333,150.5 9.5,150.5C 9.5,155.167 9.5,159.833 9.5,164.5C 7.5328,164.739 5.69946,164.406 4,163.5C 3.23158,159.08 3.39825,154.747 4.5,150.5 Z"/></g>
<g><path style="opacity:1" fill="#d73631" d="M 100.5,150.5 C 102.167,150.5 103.833,150.5 105.5,150.5C 105.5,155.167 105.5,159.833 105.5,164.5C 103.533,164.739 101.699,164.406 100,163.5C 99.2316,159.08 99.3982,154.747 100.5,150.5 Z"/></g>
<g><path style="opacity:1" fill="#eff5e4" d="M 5.5,152.5 C 6.77725,153.694 7.44392,155.36 7.5,157.5C 7.16667,159.167 6.83333,160.833 6.5,162.5C 5.51298,159.232 5.17964,155.898 5.5,152.5 Z"/></g>
<g><path style="opacity:1" fill="#eff5e4" d="M 101.5,152.5 C 102.777,153.694 103.444,155.36 103.5,157.5C 103.167,159.167 102.833,160.833 102.5,162.5C 101.513,159.232 101.18,155.898 101.5,152.5 Z"/></g>
<g><path style="opacity:1" fill="#522413" d="M 68.5,148.5 C 69.5735,149.251 69.7401,150.251 69,151.5C 67.2866,152.878 65.9533,154.545 65,156.5C 63.5557,158.155 61.7224,158.822 59.5,158.5C 56.0677,153.128 57.4011,150.795 63.5,151.5C 65.2705,150.965 65.6039,150.131 64.5,149C 66.1147,148.938 67.4481,148.771 68.5,148.5 Z"/></g>
<g><path style="opacity:1" fill="#224930" d="M 55.5,160.5 C 56.6049,159.4 57.9382,158.733 59.5,158.5C 61.7224,158.822 63.5557,158.155 65,156.5C 65.9533,154.545 67.2866,152.878 69,151.5C 69.7401,150.251 69.5735,149.251 68.5,148.5C 67.0484,147.698 65.3817,147.198 63.5,147C 65.932,146.257 67.5987,144.757 68.5,142.5C 69.1667,142.5 69.5,142.167 69.5,141.5C 71.0936,141.08 72.5936,140.414 74,139.5C 74.5,139.833 75,140.167 75.5,140.5C 73.9095,142.633 71.9095,144.299 69.5,145.5C 75.7115,145.948 76.0448,147.448 70.5,150C 74.5,151.333 74.5,152.667 70.5,154C 70.9574,154.414 71.2907,154.914 71.5,155.5C 70.1369,156.893 69.3036,158.559 69,160.5C 67.2213,157.724 66.2213,158.057 66,161.5C 64.1667,158.667 62.6667,158.833 61.5,162C 72.8333,162.333 84.1667,162.667 95.5,163C 68.1667,163.667 40.8333,163.667 13.5,163C 27.1667,162.667 40.8333,162.333 54.5,162C 55.056,161.617 55.3893,161.117 55.5,160.5 Z"/></g>
</svg>
