<?xml version="1.0" encoding="UTF-8"?>
<!DOCTYPE svg PUBLIC "-//W3C//DTD SVG 1.1//EN" "http://www.w3.org/Graphics/SVG/1.1/DTD/svg11.dtd">
<svg xmlns="http://www.w3.org/2000/svg" version="1.1" width="110px" height="170px" style="shape-rendering:geometricPrecision; text-rendering:geometricPrecision; image-rendering:optimizeQuality; fill-rule:evenodd; clip-rule:evenodd" xmlns:xlink="http://www.w3.org/1999/xlink">
<g><path style="opacity:1" fill="#edf3e2" d="M -0.5,-0.5 C 36.1667,-0.5 72.8333,-0.5 109.5,-0.5C 109.5,56.1667 109.5,112.833 109.5,169.5C 72.8333,169.5 36.1667,169.5 -0.5,169.5C -0.5,112.833 -0.5,56.1667 -0.5,-0.5 Z"/></g>
<g><path style="opacity:1" fill="#d62e2a" d="M 2.5,4.5 C 4.11709,5.58935 4.95042,7.25602 5,9.5C 8.91996,2.71708 9.7533,2.88375 7.5,10C 8.22391,12.7792 9.22391,15.4459 10.5,18C 9.55198,18.4828 8.55198,18.6495 7.5,18.5C 6.61413,10.694 5.2808,10.694 3.5,18.5C 2.50671,13.8804 2.17338,9.21369 2.5,4.5 Z"/></g>
<g><path style="opacity:1" fill="#d62e2a" d="M 98.5,4.5 C 100.117,5.58935 100.95,7.25602 101,9.5C 104.92,2.71708 105.753,2.88375 103.5,10C 104.224,12.7792 105.224,15.4459 106.5,18C 105.552,18.4828 104.552,18.6495 103.5,18.5C 102.614,10.694 101.281,10.694 99.5,18.5C 98.5067,13.8804 98.1734,9.21369 98.5,4.5 Z"/></g>
<g><path style="opacity:1" fill="#6f3623" d="M 71.5,6.5 C 64.8333,6.5 58.1667,6.5 51.5,6.5C 47.6547,6.28781 44.3214,7.28781 41.5,9.5C 40.8999,10.9002 39.8999,11.9002 38.5,12.5C 37.9569,12.44 37.6236,12.1067 37.5,11.5C 38.706,9.85093 40.0394,8.35093 41.5,7C 32.1667,6.66667 22.8333,6.33333 13.5,6C 48.9141,4.80763 68.2475,4.9743 71.5,6.5 Z"/></g>
<g><path style="opacity:1" fill="#e2d085" d="M 51.5,6.5 C 50.7381,10.262 48.5714,11.262 45,9.5C 44.0497,10.0223 43.2164,10.689 42.5,11.5C 41.7025,11.0431 41.3691,10.3764 41.5,9.5C 44.3214,7.28781 47.6547,6.28781 51.5,6.5 Z"/></g>
<g><path style="opacity:1" fill="#be8024" d="M 51.5,6.5 C 58.1667,6.5 64.8333,6.5 71.5,6.5C 74.3475,10.4543 73.6808,13.7877 69.5,16.5C 70.379,14.772 71.0457,12.9386 71.5,11C 71.3158,9.62439 70.6491,8.79106 69.5,8.5C 64.3497,7.34926 59.0164,7.18259 53.5,8C 57.3125,9.26218 61.3125,9.92885 65.5,10C 66.3805,10.7083 67.0472,11.5416 67.5,12.5C 66.6715,13.3324 65.8382,12.999 65,11.5C 64.0853,12.3279 63.4186,13.3279 63,14.5C 62.6667,13.1667 62.3333,11.8333 62,10.5C 59.8683,11.7797 57.7016,11.7797 55.5,10.5C 54.2011,11.09 53.3678,12.09 53,13.5C 52.5814,12.3279 51.9147,11.3279 51,10.5C 49.6439,11.3802 48.1439,11.7135 46.5,11.5C 46.5,12.5 46.5,13.5 46.5,14.5C 48.1667,14.5 49.8333,14.5 51.5,14.5C 51.3671,17.8957 50.3671,18.2291 48.5,15.5C 48.1667,16.1667 47.8333,16.8333 47.5,17.5C 46.396,15.6115 45.0627,13.9448 43.5,12.5C 41.2997,13.3246 40.9663,14.6579 42.5,16.5C 40.8333,15.5 39.5,14.1667 38.5,12.5C 39.8999,11.9002 40.8999,10.9002 41.5,9.5C 41.3691,10.3764 41.7025,11.0431 42.5,11.5C 43.2164,10.689 44.0497,10.0223 45,9.5C 48.5714,11.262 50.7381,10.262 51.5,6.5 Z"/></g>
<g><path style="opacity:1" fill="#e5e7bb" d="M 69.5,8.5 C 71.0024,10.8293 70.3357,12.1627 67.5,12.5C 67.0472,11.5416 66.3805,10.7083 65.5,10C 61.3125,9.92885 57.3125,9.26218 53.5,8C 59.0164,7.18259 64.3497,7.34926 69.5,8.5 Z"/></g>
<g><path style="opacity:1" fill="#d52323" d="M 15.5,11.5 C 17.8273,11.2471 19.8273,11.9137 21.5,13.5C 24.041,10.8997 26.541,10.8997 29,13.5C 29.3746,19.334 26.8746,23.6673 21.5,26.5C 16.1254,23.6673 13.6254,19.334 14,13.5C 14.7172,12.9558 15.2172,12.2891 15.5,11.5 Z"/></g>
<g><path style="opacity:1" fill="#d0bb1a" d="M 69.5,8.5 C 70.6491,8.79106 71.3158,9.62439 71.5,11C 71.0457,12.9386 70.379,14.772 69.5,16.5C 69.5,17.1667 69.5,17.8333 69.5,18.5C 68.2502,18.4226 67.4169,17.756 67,16.5C 66.5172,17.448 66.3505,18.448 66.5,19.5C 60.7924,19.5076 60.4591,19.0076 65.5,18C 64.9535,17.0754 64.2868,16.2421 63.5,15.5C 60.2521,18.119 57.0854,18.119 54,15.5C 53.0016,17.9214 51.1683,19.2547 48.5,19.5C 46.5749,19.4096 45.4083,18.4096 45,16.5C 44.7216,17.4158 44.2216,18.0825 43.5,18.5C 43.6716,17.5084 43.3382,16.8417 42.5,16.5C 40.9663,14.6579 41.2997,13.3246 43.5,12.5C 45.0627,13.9448 46.396,15.6115 47.5,17.5C 47.8333,16.8333 48.1667,16.1667 48.5,15.5C 50.3671,18.2291 51.3671,17.8957 51.5,14.5C 49.8333,14.5 48.1667,14.5 46.5,14.5C 46.5,13.5 46.5,12.5 46.5,11.5C 48.1439,11.7135 49.6439,11.3802 51,10.5C 51.9147,11.3279 52.5814,12.3279 53,13.5C 53.3678,12.09 54.2011,11.09 55.5,10.5C 57.7016,11.7797 59.8683,11.7797 62,10.5C 62.3333,11.8333 62.6667,13.1667 63,14.5C 63.4186,13.3279 64.0853,12.3279 65,11.5C 65.8382,12.999 66.6715,13.3324 67.5,12.5C 70.3357,12.1627 71.0024,10.8293 69.5,8.5 Z"/></g>
<g><path style="opacity:1" fill="#77919e" d="M 87.5,47.5 C 86.5041,47.5858 85.6708,47.2524 85,46.5C 84.2522,51.4814 83.7522,56.4814 83.5,61.5C 79.688,60.9736 76.0213,60.3069 72.5,59.5C 73.29,58.3915 73.79,57.0581 74,55.5C 74.3418,57.6192 75.1751,57.9526 76.5,56.5C 76.5,57.5 76.5,58.5 76.5,59.5C 77.5,59.5 78.5,59.5 79.5,59.5C 80.2838,46.9459 81.6171,34.4459 83.5,22C 83.472,20.9302 83.1386,20.0968 82.5,19.5C 82.7828,18.7109 83.2828,18.0442 84,17.5C 85,18.5 86,19.5 87,20.5C 87.1284,27.5202 86.6284,34.5202 85.5,41.5C 85.3631,43.8405 86.0298,45.8405 87.5,47.5 Z"/></g>
<g><path style="opacity:1" fill="#d5c0ad" d="M 62.5,20.5 C 62.447,26.1956 62.7803,31.8623 63.5,37.5C 62.5,37.5 61.5,37.5 60.5,37.5C 60.0283,40.3579 61.0283,42.3579 63.5,43.5C 61.7837,45.0248 59.7837,46.0248 57.5,46.5C 55.4884,47.0138 53.4884,47.1805 51.5,47C 53.1888,44.4932 55.5221,42.9932 58.5,42.5C 59.521,41.9984 59.6877,41.3317 59,40.5C 56.5809,43.3001 54.4142,43.1334 52.5,40C 50.8876,39.2797 49.3876,39.4464 48,40.5C 46.4222,39.2887 46.2555,37.9554 47.5,36.5C 49.7191,36.2913 52.0524,36.6246 54.5,37.5C 57.5785,37.3759 58.5785,36.0426 57.5,33.5C 56.8333,34.1667 56.1667,34.8333 55.5,35.5C 52.7262,31.8656 49.5595,31.5323 46,34.5C 45.3333,31.5 45.3333,28.5 46,25.5C 47.7438,26.0302 49.2438,26.0302 50.5,25.5C 47.8154,24.9836 45.8154,23.6503 44.5,21.5C 50.4456,19.9869 56.4456,19.6536 62.5,20.5 Z"/></g>
<g><path style="opacity:1" fill="#a3c0d0" d="M 82.5,19.5 C 83.1386,20.0968 83.472,20.9302 83.5,22C 81.6171,34.4459 80.2838,46.9459 79.5,59.5C 78.5,59.5 77.5,59.5 76.5,59.5C 76.5,58.5 76.5,57.5 76.5,56.5C 76.8583,53.1019 76.1916,49.9353 74.5,47C 75.6458,46.2406 76.6458,45.5739 77.5,45C 77.2517,43.2509 76.2517,42.4176 74.5,42.5C 74.5,42.1667 74.5,41.8333 74.5,41.5C 76.1238,41.6399 77.2904,40.9733 78,39.5C 78.6667,33.5 79.3333,27.5 80,21.5C 80.7083,20.6195 81.5416,19.9528 82.5,19.5 Z"/></g>
<g><path style="opacity:1" fill="#d7362f" d="M 3.5,21.5 C 5.01739,21.5106 6.18405,22.1772 7,23.5C 10.7017,20.7414 12.3683,21.7414 12,26.5C 8.66667,33.1667 5.33333,33.1667 2,26.5C 1.38715,24.5048 1.88715,22.8381 3.5,21.5 Z"/></g>
<g><path style="opacity:1" fill="#d7362f" d="M 97.5,21.5 C 99.3904,21.2965 100.89,21.9632 102,23.5C 103.667,20.8333 105.333,20.8333 107,23.5C 106.885,26.3428 105.718,28.8428 103.5,31C 97.8797,30.2781 95.8797,27.1115 97.5,21.5 Z"/></g>
<g><path style="opacity:1" fill="#a69a31" d="M 69.5,18.5 C 69.7938,20.2755 69.9605,22.2755 70,24.5C 71.3717,25.9101 72.205,27.5767 72.5,29.5C 73.0883,33.8924 73.0883,38.2258 72.5,42.5C 72.1283,39.5335 70.795,37.2002 68.5,35.5C 69.304,34.0589 69.9706,32.5589 70.5,31C 68.1839,27.8689 66.8506,24.3689 66.5,20.5C 65.1667,20.5 63.8333,20.5 62.5,20.5C 56.4456,19.6536 50.4456,19.9869 44.5,21.5C 43.8826,23.3208 43.716,25.3208 44,27.5C 43.7216,26.5842 43.2216,25.9175 42.5,25.5C 42.1984,22.9407 42.5318,20.6074 43.5,18.5C 44.2216,18.0825 44.7216,17.4158 45,16.5C 45.4083,18.4096 46.5749,19.4096 48.5,19.5C 51.1683,19.2547 53.0016,17.9214 54,15.5C 57.0854,18.119 60.2521,18.119 63.5,15.5C 64.2868,16.2421 64.9535,17.0754 65.5,18C 60.4591,19.0076 60.7924,19.5076 66.5,19.5C 66.3505,18.448 66.5172,17.448 67,16.5C 67.4169,17.756 68.2502,18.4226 69.5,18.5 Z"/></g>
<g><path style="opacity:1" fill="#8b7b2c" d="M 62.5,20.5 C 63.8333,20.5 65.1667,20.5 66.5,20.5C 66.8506,24.3689 68.1839,27.8689 70.5,31C 69.9706,32.5589 69.304,34.0589 68.5,35.5C 70.795,37.2002 72.1283,39.5335 72.5,42.5C 73.0883,38.2258 73.0883,33.8924 72.5,29.5C 73.7947,33.2671 74.4613,37.2671 74.5,41.5C 74.5,41.8333 74.5,42.1667 74.5,42.5C 73.2347,43.4793 71.9014,44.4793 70.5,45.5C 68.4485,50.2562 66.4485,54.9228 64.5,59.5C 64.5,58.5 64.5,57.5 64.5,56.5C 65.1098,55.609 65.4431,54.609 65.5,53.5C 67.0934,50.6439 68.4267,47.6439 69.5,44.5C 69.1667,43.5 68.5,42.8333 67.5,42.5C 66.2638,43.2458 64.9305,43.5792 63.5,43.5C 61.0283,42.3579 60.0283,40.3579 60.5,37.5C 61.5,37.5 62.5,37.5 63.5,37.5C 62.7803,31.8623 62.447,26.1956 62.5,20.5 Z"/></g>
<g><path style="opacity:1" fill="#eff1ef" d="M 65.5,53.5 C 61.999,54.5008 58.8323,56.1675 56,58.5C 55.228,58.3552 54.5613,58.0219 54,57.5C 53.1553,55.3885 52.322,53.3885 51.5,51.5C 51.5,51.1667 51.5,50.8333 51.5,50.5C 53.2299,48.8786 55.2299,47.5452 57.5,46.5C 59.7837,46.0248 61.7837,45.0248 63.5,43.5C 64.9305,43.5792 66.2638,43.2458 67.5,42.5C 68.5,42.8333 69.1667,43.5 69.5,44.5C 68.4267,47.6439 67.0934,50.6439 65.5,53.5 Z"/></g>
<g><path style="opacity:1" fill="#6e5b26" d="M 44.5,21.5 C 45.8154,23.6503 47.8154,24.9836 50.5,25.5C 49.2438,26.0302 47.7438,26.0302 46,25.5C 45.3333,28.5 45.3333,31.5 46,34.5C 49.5595,31.5323 52.7262,31.8656 55.5,35.5C 56.1667,34.8333 56.8333,34.1667 57.5,33.5C 58.5785,36.0426 57.5785,37.3759 54.5,37.5C 52.0524,36.6246 49.7191,36.2913 47.5,36.5C 46.2555,37.9554 46.4222,39.2887 48,40.5C 49.3876,39.4464 50.8876,39.2797 52.5,40C 54.4142,43.1334 56.5809,43.3001 59,40.5C 59.6877,41.3317 59.521,41.9984 58.5,42.5C 55.5221,42.9932 53.1888,44.4932 51.5,47C 53.4884,47.1805 55.4884,47.0138 57.5,46.5C 55.2299,47.5452 53.2299,48.8786 51.5,50.5C 50.8333,50.8333 50.1667,51.1667 49.5,51.5C 49.4142,50.5041 49.7476,49.6708 50.5,49C 48.4434,45.6377 45.4434,43.8044 41.5,43.5C 40.8333,43.5 40.1667,43.5 39.5,43.5C 36.7294,43.4207 34.0627,43.9207 31.5,45C 30.1667,47.6667 28.1667,49.6667 25.5,51C 27.3197,51.2004 28.653,52.0337 29.5,53.5C 28.4168,53.4606 27.4168,53.1272 26.5,52.5C 25.5344,54.396 25.2011,56.396 25.5,58.5C 24.6981,57.0484 24.1981,55.3817 24,53.5C 23.586,53.9574 23.086,54.2907 22.5,54.5C 21.5258,52.2573 21.1924,49.924 21.5,47.5C 20.448,47.3505 19.448,47.5172 18.5,48C 19.9733,48.7096 20.6399,49.8762 20.5,51.5C 20.1667,51.5 19.8333,51.5 19.5,51.5C 17.9378,50.2153 16.6045,48.7153 15.5,47C 17.9268,44.6975 20.2601,42.1975 22.5,39.5C 24.4517,41.7412 26.6184,43.7412 29,45.5C 31.9803,43.4649 35.147,41.7982 38.5,40.5C 39.1027,35.1813 40.436,30.1813 42.5,25.5C 43.2216,25.9175 43.7216,26.5842 44,27.5C 43.716,25.3208 43.8826,23.3208 44.5,21.5 Z"/></g>
<g><path style="opacity:1" fill="#f0f2ef" d="M 41.5,43.5 C 45.4434,43.8044 48.4434,45.6377 50.5,49C 49.7476,49.6708 49.4142,50.5041 49.5,51.5C 48.3263,52.5137 47.6596,53.847 47.5,55.5C 47.5,55.8333 47.5,56.1667 47.5,56.5C 45.1715,57.7489 43.3382,57.0823 42,54.5C 41.5014,50.8484 41.3347,47.1817 41.5,43.5 Z"/></g>
<g><path style="opacity:1" fill="#e1e3e1" d="M 87.5,47.5 C 88.7927,49.2959 90.2927,50.9625 92,52.5C 92.49,53.7932 92.6567,55.1266 92.5,56.5C 90.8712,57.6253 89.3712,58.9586 88,60.5C 87.6667,59.8333 87.3333,59.1667 87,58.5C 86.3333,59.8333 85.6667,59.8333 85,58.5C 84.5172,59.448 84.3505,60.448 84.5,61.5C 84.1667,61.5 83.8333,61.5 83.5,61.5C 83.7522,56.4814 84.2522,51.4814 85,46.5C 85.6708,47.2524 86.5041,47.5858 87.5,47.5 Z"/></g>
<g><path style="opacity:1" fill="#5b5752" d="M 87.5,47.5 C 90.3866,48.7099 92.72,50.7099 94.5,53.5C 93.8333,54.5 93.1667,55.5 92.5,56.5C 92.6567,55.1266 92.49,53.7932 92,52.5C 90.2927,50.9625 88.7927,49.2959 87.5,47.5 Z"/></g>
<g><path style="opacity:1" fill="#2e6f9b" d="M 29.5,53.5 C 31.5,53.5 32.5,54.5 32.5,56.5C 32.6716,57.4916 32.3382,58.1583 31.5,58.5C 29.5,58.5 27.5,58.5 25.5,58.5C 25.2011,56.396 25.5344,54.396 26.5,52.5C 27.4168,53.1272 28.4168,53.4606 29.5,53.5 Z"/></g>
<g><path style="opacity:1" fill="#315c7a" d="M 19.5,51.5 C 19.8333,51.5 20.1667,51.5 20.5,51.5C 20.5,53.8333 20.5,56.1667 20.5,58.5C 17.4824,58.7038 14.4824,59.0371 11.5,59.5C 13.1667,55.8333 15.8333,53.1667 19.5,51.5 Z"/></g>
<g><path style="opacity:1" fill="#a22f1f" d="M 51.5,51.5 C 52.322,53.3885 53.1553,55.3885 54,57.5C 54.5613,58.0219 55.228,58.3552 56,58.5C 58.8323,56.1675 61.999,54.5008 65.5,53.5C 65.4431,54.609 65.1098,55.609 64.5,56.5C 60.8876,59.9775 56.8876,62.9775 52.5,65.5C 51.5067,60.8804 51.1734,56.2137 51.5,51.5 Z"/></g>
<g><path style="opacity:1" fill="#6a5c53" d="M 39.5,43.5 C 40.1667,43.5 40.8333,43.5 41.5,43.5C 41.3347,47.1817 41.5014,50.8484 42,54.5C 43.3382,57.0823 45.1715,57.7489 47.5,56.5C 46.5,57.8333 45.5,59.1667 44.5,60.5C 43.3556,58.8998 42.1889,57.2331 41,55.5C 40.3658,58.5547 40.5325,61.5547 41.5,64.5C 40.5184,67.9619 40.185,71.6286 40.5,75.5C 40.5,77.5 40.5,79.5 40.5,81.5C 39.375,82.6522 39.375,83.6522 40.5,84.5C 39.1667,86.5 37.5,88.1667 35.5,89.5C 36.075,87.5887 37.075,85.922 38.5,84.5C 38.6633,82.1432 38.4966,79.8098 38,77.5C 35.6902,79.9183 35.0236,79.2517 36,75.5C 36.7412,76.6405 37.5745,76.6405 38.5,75.5C 39.8333,72.8333 39.8333,70.1667 38.5,67.5C 36.9146,70.2724 35.9146,70.1057 35.5,67C 35.6667,66.1667 35.8333,65.3333 36,64.5C 37.0113,65.3366 38.1779,65.67 39.5,65.5C 39.6646,62.4816 39.498,59.4816 39,56.5C 37.5172,58.9458 36.3505,58.6124 35.5,55.5C 36.698,55.0604 37.8647,54.727 39,54.5C 39.4986,50.8484 39.6653,47.1817 39.5,43.5 Z"/></g>
<g><path style="opacity:1" fill="#d1c421" d="M 25.5,58.5 C 27.5,58.5 29.5,58.5 31.5,58.5C 31.9175,59.2216 32.5842,59.7216 33.5,60C 32.2889,61.1131 32.2889,62.2798 33.5,63.5C 33.0431,64.2975 32.3764,64.6309 31.5,64.5C 31.1667,64.5 30.8333,64.5 30.5,64.5C 25.5,63.1667 20.5,63.1667 15.5,64.5C 14.8333,64.5 14.1667,64.5 13.5,64.5C 12.3473,63.6868 12.3473,62.6868 13.5,61.5C 13.0431,60.7025 12.3764,60.3691 11.5,60.5C 11.5,60.1667 11.5,59.8333 11.5,59.5C 14.4824,59.0371 17.4824,58.7038 20.5,58.5C 20.5,56.1667 20.5,53.8333 20.5,51.5C 20.6399,49.8762 19.9733,48.7096 18.5,48C 19.448,47.5172 20.448,47.3505 21.5,47.5C 21.1924,49.924 21.5258,52.2573 22.5,54.5C 23.086,54.2907 23.586,53.9574 24,53.5C 24.1981,55.3817 24.6981,57.0484 25.5,58.5 Z"/></g>
<g><path style="opacity:1" fill="#ee2c26" d="M 25.5,59.5 C 27.337,59.6395 27.6704,60.3061 26.5,61.5C 25.7025,61.0431 25.3691,60.3764 25.5,59.5 Z"/></g>
<g><path style="opacity:1" fill="#ec3724" d="M 18.5,59.5 C 20.337,59.6395 20.6704,60.3061 19.5,61.5C 18.7025,61.0431 18.3691,60.3764 18.5,59.5 Z"/></g>
<g><path style="opacity:1" fill="#6b6159" d="M 92.5,56.5 C 92.1667,57.8333 91.8333,59.1667 91.5,60.5C 89.2362,61.2186 86.9029,61.552 84.5,61.5C 84.3505,60.448 84.5172,59.448 85,58.5C 85.6667,59.8333 86.3333,59.8333 87,58.5C 87.3333,59.1667 87.6667,59.8333 88,60.5C 89.3712,58.9586 90.8712,57.6253 92.5,56.5 Z"/></g>
<g><path style="opacity:1" fill="#5d3520" d="M 32.5,56.5 C 33.9723,58.1175 34.639,60.1175 34.5,62.5C 34.4892,64.0451 34.1558,65.3784 33.5,66.5C 32.8333,65.8333 32.1667,65.1667 31.5,64.5C 32.3764,64.6309 33.0431,64.2975 33.5,63.5C 32.2889,62.2798 32.2889,61.1131 33.5,60C 32.5842,59.7216 31.9175,59.2216 31.5,58.5C 32.3382,58.1583 32.6716,57.4916 32.5,56.5 Z"/></g>
<g><path style="opacity:1" fill="#424035" d="M 64.5,59.5 C 65.472,61.9197 64.8054,63.9197 62.5,65.5C 62.5,64.8333 62.1667,64.5 61.5,64.5C 62.2632,62.6316 63.2632,60.9649 64.5,59.5 Z"/></g>
<g><path style="opacity:1" fill="#ad9d1d" d="M 91.5,60.5 C 90.7659,61.7079 90.4326,63.0413 90.5,64.5C 89.6459,69.2347 87.9792,69.568 85.5,65.5C 84.5713,64.3112 84.238,62.9778 84.5,61.5C 86.9029,61.552 89.2362,61.2186 91.5,60.5 Z"/></g>
<g><path style="opacity:1" fill="#216d9b" d="M 13.5,64.5 C 14.1667,64.5 14.8333,64.5 15.5,64.5C 16.8734,64.3433 18.2068,64.51 19.5,65C 18.1772,65.8159 17.5106,66.9826 17.5,68.5C 17.5,69.1667 17.1667,69.5 16.5,69.5C 15.1667,68.5 13.8333,67.5 12.5,66.5C 12.8333,65.8333 13.1667,65.1667 13.5,64.5 Z"/></g>
<g><path style="opacity:1" fill="#978827" d="M 72.5,59.5 C 76.0213,60.3069 79.688,60.9736 83.5,61.5C 83.7678,63.099 83.4345,64.4324 82.5,65.5C 82.5,64.5 82.5,63.5 82.5,62.5C 80.5,62.5 78.5,62.5 76.5,62.5C 75.7321,63.2625 75.2321,64.2625 75,65.5C 74.51,64.2068 74.3433,62.8734 74.5,61.5C 73.448,61.3505 72.448,61.5172 71.5,62C 72.9733,62.7096 73.6399,63.8762 73.5,65.5C 72.209,65.2627 71.209,65.596 70.5,66.5C 69.5178,67.1408 68.5178,67.8075 67.5,68.5C 67.1667,68 66.8333,67.5 66.5,67C 67.0446,63.8132 67.7113,60.6465 68.5,57.5C 69.5237,58.8532 70.857,59.5198 72.5,59.5 Z"/></g>
<g><path style="opacity:1" fill="#236ba0" d="M 30.5,64.5 C 30.8333,64.5 31.1667,64.5 31.5,64.5C 32.1667,65.1667 32.8333,65.8333 33.5,66.5C 32.6851,67.4293 31.8518,68.4293 31,69.5C 30.5172,68.552 30.3505,67.552 30.5,66.5C 29.5,66.5 28.5,66.5 27.5,66.5C 27.5,68.5 27.5,70.5 27.5,72.5C 25.631,70.3647 24.9644,67.6981 25.5,64.5C 27.1667,64.5 28.8333,64.5 30.5,64.5 Z"/></g>
<g><path style="opacity:1" fill="#eeefed" d="M 39.5,43.5 C 39.6653,47.1817 39.4986,50.8484 39,54.5C 37.8647,54.727 36.698,55.0604 35.5,55.5C 36.3505,58.6124 37.5172,58.9458 39,56.5C 39.498,59.4816 39.6646,62.4816 39.5,65.5C 38.1779,65.67 37.0113,65.3366 36,64.5C 35.8333,65.3333 35.6667,66.1667 35.5,67C 35.9146,70.1057 36.9146,70.2724 38.5,67.5C 39.8333,70.1667 39.8333,72.8333 38.5,75.5C 37.5745,76.6405 36.7412,76.6405 36,75.5C 35.0236,79.2517 35.6902,79.9183 38,77.5C 38.4966,79.8098 38.6633,82.1432 38.5,84.5C 37.5,84.5 36.5,84.5 35.5,84.5C 33.5,84.5 31.5,84.5 29.5,84.5C 29.1667,84.5 28.8333,84.5 28.5,84.5C 28.4809,82.9397 28.1476,81.4397 27.5,80C 28.9443,77.5515 30.7776,75.3848 33,73.5C 33.4966,71.1902 33.6633,68.8568 33.5,66.5C 34.1558,65.3784 34.4892,64.0451 34.5,62.5C 34.639,60.1175 33.9723,58.1175 32.5,56.5C 32.5,54.5 31.5,53.5 29.5,53.5C 28.653,52.0337 27.3197,51.2004 25.5,51C 28.1667,49.6667 30.1667,47.6667 31.5,45C 34.0627,43.9207 36.7294,43.4207 39.5,43.5 Z"/></g>
<g><path style="opacity:1" fill="#3f3f3b" d="M 35.5,46.5 C 36.522,47.8917 36.1887,49.225 34.5,50.5C 34.1667,50 33.8333,49.5 33.5,49C 34.0556,47.9889 34.7222,47.1556 35.5,46.5 Z"/></g>
<g><path style="opacity:1" fill="#b52f1d" d="M 41.5,64.5 C 44.4965,67.4974 46.1631,71.164 46.5,75.5C 44.5,75.5 42.5,75.5 40.5,75.5C 40.185,71.6286 40.5184,67.9619 41.5,64.5 Z"/></g>
<g><path style="opacity:1" fill="#b6b431" d="M 27.5,72.5 C 28.3019,71.0484 28.8019,69.3817 29,67.5C 29.9357,70.792 29.4357,73.792 27.5,76.5C 23.9469,78.4791 20.2803,79.1458 16.5,78.5C 18.5065,78.1323 20.5065,78.6323 22.5,80C 21.1772,80.8159 20.5106,81.9826 20.5,83.5C 19.6676,84.3285 20.001,85.1618 21.5,86C 24.5973,87.2734 27.2639,89.1067 29.5,91.5C 32.1489,93.1094 35.1489,93.9428 38.5,94C 35.8333,94.3333 33.1667,94.6667 30.5,95C 31.6721,95.4186 32.6721,96.0853 33.5,97C 31.8333,97.3333 30.1667,97.6667 28.5,98C 30.0441,98.2896 31.3774,98.9563 32.5,100C 30.5758,100.179 28.9091,100.346 27.5,100.5C 29.4233,101.308 31.4233,101.808 33.5,102C 30.1177,102.824 26.7844,102.657 23.5,101.5C 22.3875,99.5808 21.0542,97.9142 19.5,96.5C 18.61,91.9993 15.9434,89.1659 11.5,88C 10.8333,87 10.1667,86 9.5,85C 10.8845,82.4799 12.5512,80.1465 14.5,78C 12.7746,75.1143 12.1079,71.9477 12.5,68.5C 13.1504,70.4467 14.317,72.1134 16,73.5C 16.49,72.2068 16.6567,70.8734 16.5,69.5C 17.1667,69.5 17.5,69.1667 17.5,68.5C 18.4511,69.9187 18.7845,71.5853 18.5,73.5C 22.667,73.1538 24.5003,70.8205 24,66.5C 24.4974,69.146 24.6641,71.8127 24.5,74.5C 26.1788,74.7148 27.1788,74.0481 27.5,72.5 Z"/></g>
<g><path style="opacity:1" fill="#5b4c33" d="M 76.5,62.5 C 76.5,63.5 76.5,64.5 76.5,65.5C 78.5,65.5 80.5,65.5 82.5,65.5C 83.4345,64.4324 83.7678,63.099 83.5,61.5C 83.8333,61.5 84.1667,61.5 84.5,61.5C 84.238,62.9778 84.5713,64.3112 85.5,65.5C 87.9792,69.568 89.6459,69.2347 90.5,64.5C 90.5987,67.2372 90.2653,69.9039 89.5,72.5C 87.9458,71.0858 86.6125,69.4192 85.5,67.5C 82.2156,66.343 78.8823,66.1764 75.5,67C 77.9005,67.1858 80.2338,67.6858 82.5,68.5C 80.6565,68.7552 78.6565,68.9219 76.5,69C 77.6226,70.0437 78.9559,70.7104 80.5,71C 77.9568,71.1397 75.6234,71.8063 73.5,73C 75.2785,72.0209 76.9452,72.3542 78.5,74C 75.8333,74.3333 73.1667,74.6667 70.5,75C 73.8511,75.0572 76.8511,75.8906 79.5,77.5C 75.6893,77.1806 74.3559,78.6806 75.5,82C 74.244,82.4169 73.5774,83.2502 73.5,84.5C 72.5,84.5 71.5,84.5 70.5,84.5C 70.3367,86.8568 70.5034,89.1902 71,91.5C 73.3098,89.0817 73.9764,89.7483 73,93.5C 72.2588,92.3595 71.4255,92.3595 70.5,93.5C 69.1667,96.1667 69.1667,98.8333 70.5,101.5C 72.0854,98.7276 73.0854,98.8943 73.5,102C 73.3333,102.833 73.1667,103.667 73,104.5C 71.9887,103.663 70.8221,103.33 69.5,103.5C 69.3354,106.518 69.502,109.518 70,112.5C 71.4828,110.054 72.6495,110.388 73.5,113.5C 72.302,113.94 71.1353,114.273 70,114.5C 69.5014,118.152 69.3347,121.818 69.5,125.5C 68.8333,125.5 68.1667,125.5 67.5,125.5C 67.6653,121.818 67.4986,118.152 67,114.5C 65.6618,111.918 63.8285,111.251 61.5,112.5C 62.5,111.167 63.5,109.833 64.5,108.5C 65.6444,110.1 66.8111,111.767 68,113.5C 68.7958,110.961 68.6291,108.628 67.5,106.5C 67.5,105.833 67.5,105.167 67.5,104.5C 68.4816,101.038 68.815,97.3714 68.5,93.5C 68.5,91.5 68.5,89.5 68.5,87.5C 69.625,86.3478 69.625,85.3478 68.5,84.5C 70.4773,82.1862 72.4773,79.8528 74.5,77.5C 71.4326,75.9479 68.9326,76.6145 67,79.5C 66.2506,78.365 66.4173,77.365 67.5,76.5C 68.8986,74.8967 70.5653,73.5634 72.5,72.5C 71.0465,70.3561 71.3799,68.5227 73.5,67C 72.552,66.5172 71.552,66.3505 70.5,66.5C 71.209,65.596 72.209,65.2627 73.5,65.5C 73.6399,63.8762 72.9733,62.7096 71.5,62C 72.448,61.5172 73.448,61.3505 74.5,61.5C 74.3433,62.8734 74.51,64.2068 75,65.5C 75.2321,64.2625 75.7321,63.2625 76.5,62.5 Z"/></g>
<g><path style="opacity:1" fill="#d71c21" d="M 76.5,62.5 C 78.5,62.5 80.5,62.5 82.5,62.5C 82.5,63.5 82.5,64.5 82.5,65.5C 80.5,65.5 78.5,65.5 76.5,65.5C 76.5,64.5 76.5,63.5 76.5,62.5 Z"/></g>
<g><path style="opacity:1" fill="#e0e1df" d="M 74.5,42.5 C 76.2517,42.4176 77.2517,43.2509 77.5,45C 76.6458,45.5739 75.6458,46.2406 74.5,47C 76.1916,49.9353 76.8583,53.1019 76.5,56.5C 75.1751,57.9526 74.3418,57.6192 74,55.5C 73.79,57.0581 73.29,58.3915 72.5,59.5C 70.857,59.5198 69.5237,58.8532 68.5,57.5C 67.7113,60.6465 67.0446,63.8132 66.5,67C 66.8333,67.5 67.1667,68 67.5,68.5C 68.5178,67.8075 69.5178,67.1408 70.5,66.5C 71.552,66.3505 72.552,66.5172 73.5,67C 71.3799,68.5227 71.0465,70.3561 72.5,72.5C 70.5653,73.5634 68.8986,74.8967 67.5,76.5C 66.4173,77.365 66.2506,78.365 67,79.5C 68.9326,76.6145 71.4326,75.9479 74.5,77.5C 72.4773,79.8528 70.4773,82.1862 68.5,84.5C 66.8333,84.5 65.1667,84.5 63.5,84.5C 62.1667,84.5 60.8333,84.5 59.5,84.5C 59.7114,78.0022 60.7114,71.6688 62.5,65.5C 64.8054,63.9197 65.472,61.9197 64.5,59.5C 66.4485,54.9228 68.4485,50.2562 70.5,45.5C 71.9014,44.4793 73.2347,43.4793 74.5,42.5 Z"/></g>
<g><path style="opacity:1" fill="#b5b231" d="M 89.5,72.5 C 91.4818,77.3674 94.8151,81.2008 99.5,84C 97.4311,84.3242 97.0977,85.1575 98.5,86.5C 97.3291,88.1693 95.9958,89.6693 94.5,91C 96.2254,93.8857 96.8921,97.0523 96.5,100.5C 94.1867,101.392 93.8534,100.558 95.5,98C 94.9915,96.8315 94.1581,95.9981 93,95.5C 92.6401,97.6079 91.9734,99.6079 91,101.5C 88.5728,102.567 88.0728,101.9 89.5,99.5C 90.4345,98.4324 90.7678,97.099 90.5,95.5C 86.333,95.8462 84.4997,98.1795 85,102.5C 84.5026,99.854 84.3359,97.1873 84.5,94.5C 83.1779,94.33 82.0113,94.6634 81,95.5C 80.6667,97.5 80.3333,99.5 80,101.5C 79.0643,98.208 79.5643,95.208 81.5,92.5C 83.8889,91.8195 86.2222,90.9862 88.5,90C 87.8333,89.6667 87.1667,89.3333 86.5,89C 87.6872,87.9805 88.6872,86.8139 89.5,85.5C 89.3764,84.8933 89.0431,84.56 88.5,84.5C 85.3579,82.4195 82.3579,80.0862 79.5,77.5C 76.8511,75.8906 73.8511,75.0572 70.5,75C 73.1667,74.6667 75.8333,74.3333 78.5,74C 76.9452,72.3542 75.2785,72.0209 73.5,73C 75.6234,71.8063 77.9568,71.1397 80.5,71C 78.9559,70.7104 77.6226,70.0437 76.5,69C 78.6565,68.9219 80.6565,68.7552 82.5,68.5C 80.2338,67.6858 77.9005,67.1858 75.5,67C 78.8823,66.1764 82.2156,66.343 85.5,67.5C 86.6125,69.4192 87.9458,71.0858 89.5,72.5 Z"/></g>
<g><path style="opacity:1" fill="#353328" d="M 12.5,66.5 C 13.8333,67.5 15.1667,68.5 16.5,69.5C 16.6567,70.8734 16.49,72.2068 16,73.5C 14.317,72.1134 13.1504,70.4467 12.5,68.5C 12.5,67.8333 12.5,67.1667 12.5,66.5 Z"/></g>
<g><path style="opacity:1" fill="#73261b" d="M 11.5,60.5 C 12.3764,60.3691 13.0431,60.7025 13.5,61.5C 12.3473,62.6868 12.3473,63.6868 13.5,64.5C 13.1667,65.1667 12.8333,65.8333 12.5,66.5C 12.5,67.1667 12.5,67.8333 12.5,68.5C 12.1079,71.9477 12.7746,75.1143 14.5,78C 12.5512,80.1465 10.8845,82.4799 9.5,85C 10.1667,86 10.8333,87 11.5,88C 15.9434,89.1659 18.61,91.9993 19.5,96.5C 15.3642,98.1834 11.0309,98.8501 6.5,98.5C 6.5,100.833 6.5,103.167 6.5,105.5C 5.0346,100.888 4.86794,77.5545 6,35.5C 6.33333,45.5 6.66667,55.5 7,65.5C 8.70733,63.9625 10.2073,62.2959 11.5,60.5 Z"/></g>
<g><path style="opacity:1" fill="#403f35" d="M 15.5,64.5 C 20.5,63.1667 25.5,63.1667 30.5,64.5C 28.8333,64.5 27.1667,64.5 25.5,64.5C 24.9644,67.6981 25.631,70.3647 27.5,72.5C 27.1788,74.0481 26.1788,74.7148 24.5,74.5C 24.6641,71.8127 24.4974,69.146 24,66.5C 24.5003,70.8205 22.667,73.1538 18.5,73.5C 18.7845,71.5853 18.4511,69.9187 17.5,68.5C 17.5106,66.9826 18.1772,65.8159 19.5,65C 18.2068,64.51 16.8734,64.3433 15.5,64.5 Z"/></g>
<g><path style="opacity:1" fill="#1477ac" d="M 20.5,65.5 C 21.2506,64.4265 22.2506,64.2599 23.5,65C 23.0653,67.8669 21.8986,70.3669 20,72.5C 19.4361,70.4382 19.9361,68.6049 21.5,67C 21.4301,66.2352 21.0967,65.7352 20.5,65.5 Z"/></g>
<g><path style="opacity:1" fill="#bead1b" d="M 51.5,50.5 C 51.5,50.8333 51.5,51.1667 51.5,51.5C 51.1734,56.2137 51.5067,60.8804 52.5,65.5C 56.8876,62.9775 60.8876,59.9775 64.5,56.5C 64.5,57.5 64.5,58.5 64.5,59.5C 63.2632,60.9649 62.2632,62.6316 61.5,64.5C 56.6771,66.6579 53.6771,70.3245 52.5,75.5C 54.5,75.5 56.5,75.5 58.5,75.5C 58.5,77.8333 58.5,80.1667 58.5,82.5C 56.1944,82.0074 53.861,81.6741 51.5,81.5C 51.7148,83.1788 51.0481,84.1788 49.5,84.5C 49.1667,84.5 48.8333,84.5 48.5,84.5C 47.5,84.5 46.5,84.5 45.5,84.5C 45.8039,83.8501 46.1373,83.1835 46.5,82.5C 44.604,81.5344 42.604,81.2011 40.5,81.5C 40.5,79.5 40.5,77.5 40.5,75.5C 42.5,75.5 44.5,75.5 46.5,75.5C 46.1631,71.164 44.4965,67.4974 41.5,64.5C 40.5325,61.5547 40.3658,58.5547 41,55.5C 42.1889,57.2331 43.3556,58.8998 44.5,60.5C 44.9825,62.8701 46.1492,63.5368 48,62.5C 48.7958,59.9615 48.6291,57.6282 47.5,55.5C 47.6596,53.847 48.3263,52.5137 49.5,51.5C 50.1667,51.1667 50.8333,50.8333 51.5,50.5 Z"/></g>
<g><path style="opacity:1" fill="#ad2b1c" d="M 47.5,55.5 C 48.6291,57.6282 48.7958,59.9615 48,62.5C 46.1492,63.5368 44.9825,62.8701 44.5,60.5C 45.5,59.1667 46.5,57.8333 47.5,56.5C 47.5,56.1667 47.5,55.8333 47.5,55.5 Z"/></g>
<g><path style="opacity:1" fill="#574d33" d="M 33.5,66.5 C 33.6633,68.8568 33.4966,71.1902 33,73.5C 30.7776,75.3848 28.9443,77.5515 27.5,80C 28.1476,81.4397 28.4809,82.9397 28.5,84.5C 27.3249,83.0262 26.3249,81.3596 25.5,79.5C 23.8144,80.8569 22.1477,82.1902 20.5,83.5C 20.5106,81.9826 21.1772,80.8159 22.5,80C 20.5065,78.6323 18.5065,78.1323 16.5,78.5C 20.2803,79.1458 23.9469,78.4791 27.5,76.5C 29.4357,73.792 29.9357,70.792 29,67.5C 28.8019,69.3817 28.3019,71.0484 27.5,72.5C 27.5,70.5 27.5,68.5 27.5,66.5C 28.5,66.5 29.5,66.5 30.5,66.5C 30.3505,67.552 30.5172,68.552 31,69.5C 31.8518,68.4293 32.6851,67.4293 33.5,66.5 Z"/></g>
<g><path style="opacity:1" fill="#2b25e4" d="M 47.5,77.5 C 48.5,77.5 49.5,77.5 50.5,77.5C 50.5,78.5 50.5,79.5 50.5,80.5C 49.5,80.5 48.5,80.5 47.5,80.5C 47.5,79.5 47.5,78.5 47.5,77.5 Z"/></g>
<g><path style="opacity:1" fill="#c8b428" d="M 79.5,77.5 C 79.5,79.8333 79.5,82.1667 79.5,84.5C 77.5,84.5 75.5,84.5 73.5,84.5C 73.5774,83.2502 74.244,82.4169 75.5,82C 74.3559,78.6806 75.6893,77.1806 79.5,77.5 Z"/></g>
<g><path style="opacity:1" fill="#89291a" d="M 28.5,84.5 C 28.8333,84.5 29.1667,84.5 29.5,84.5C 29.5,86.8333 29.5,89.1667 29.5,91.5C 27.2639,89.1067 24.5973,87.2734 21.5,86C 20.001,85.1618 19.6676,84.3285 20.5,83.5C 22.1477,82.1902 23.8144,80.8569 25.5,79.5C 26.3249,81.3596 27.3249,83.0262 28.5,84.5 Z"/></g>
<g><path style="opacity:1" fill="#ba381c" d="M 40.5,81.5 C 42.604,81.2011 44.604,81.5344 46.5,82.5C 46.1373,83.1835 45.8039,83.8501 45.5,84.5C 43.8333,84.5 42.1667,84.5 40.5,84.5C 39.375,83.6522 39.375,82.6522 40.5,81.5 Z"/></g>
<g><path style="opacity:1" fill="#7e2b1b" d="M 79.5,77.5 C 82.3579,80.0862 85.3579,82.4195 88.5,84.5C 87.1879,86.4788 85.5212,88.1455 83.5,89.5C 82.8243,88.3984 82.1577,87.3984 81.5,86.5C 81.5,85.1667 80.8333,84.5 79.5,84.5C 79.5,82.1667 79.5,79.8333 79.5,77.5 Z"/></g>
<g><path style="opacity:1" fill="#b9381c" d="M 63.5,84.5 C 65.1667,84.5 66.8333,84.5 68.5,84.5C 69.625,85.3478 69.625,86.3478 68.5,87.5C 66.396,87.7989 64.396,87.4656 62.5,86.5C 62.8627,85.8165 63.1961,85.1499 63.5,84.5 Z"/></g>
<g><path style="opacity:1" fill="#c8b428" d="M 29.5,84.5 C 31.5,84.5 33.5,84.5 35.5,84.5C 35.4226,85.7498 34.756,86.5831 33.5,87C 34.6441,90.3194 33.3107,91.8194 29.5,91.5C 29.5,89.1667 29.5,86.8333 29.5,84.5 Z"/></g>
<g><path style="opacity:1" fill="#ae9c1e" d="M 59.5,84.5 C 60.8333,84.5 62.1667,84.5 63.5,84.5C 63.1961,85.1499 62.8627,85.8165 62.5,86.5C 64.396,87.4656 66.396,87.7989 68.5,87.5C 68.5,89.5 68.5,91.5 68.5,93.5C 66.5,93.5 64.5,93.5 62.5,93.5C 62.8417,97.845 64.5084,101.512 67.5,104.5C 67.5,105.167 67.5,105.833 67.5,106.5C 65.364,104.188 63.364,101.688 61.5,99C 59.1152,98.4436 56.7819,98.6103 54.5,99.5C 55.7298,97.7028 56.3964,95.7028 56.5,93.5C 54.5,93.5 52.5,93.5 50.5,93.5C 50.5,91.1667 50.5,88.8333 50.5,86.5C 52.1986,86.6204 53.8653,86.9537 55.5,87.5C 55.9389,85.9702 57.2723,84.9702 59.5,84.5 Z"/></g>
<g><path style="opacity:1" fill="#2b25e4" d="M 58.5,88.5 C 59.5,88.5 60.5,88.5 61.5,88.5C 61.5,89.5 61.5,90.5 61.5,91.5C 60.5,91.5 59.5,91.5 58.5,91.5C 58.5,90.5 58.5,89.5 58.5,88.5 Z"/></g>
<g><path style="opacity:1" fill="#4b4531" d="M 88.5,84.5 C 89.0431,84.56 89.3764,84.8933 89.5,85.5C 88.6872,86.8139 87.6872,87.9805 86.5,89C 87.1667,89.3333 87.8333,89.6667 88.5,90C 86.2222,90.9862 83.8889,91.8195 81.5,92.5C 79.5643,95.208 79.0643,98.208 80,101.5C 80.3333,99.5 80.6667,97.5 81,95.5C 82.0113,94.6634 83.1779,94.33 84.5,94.5C 84.3359,97.1873 84.5026,99.854 85,102.5C 84.4997,98.1795 86.333,95.8462 90.5,95.5C 90.7678,97.099 90.4345,98.4324 89.5,99.5C 89.741,96.001 88.9076,95.6677 87,98.5C 86.7489,100.433 86.2489,102.266 85.5,104C 87.8098,104.497 90.1432,104.663 92.5,104.5C 87.8333,105.833 83.1667,105.833 78.5,104.5C 80.1667,104.5 81.8333,104.5 83.5,104.5C 83.8134,101.753 83.48,99.0865 82.5,96.5C 81.5344,98.396 81.2011,100.396 81.5,102.5C 80.5,102.5 79.5,102.5 78.5,102.5C 78.0851,98.939 77.0851,99.1057 75.5,103C 76.4158,103.278 77.0825,103.778 77.5,104.5C 76.2223,104.782 75.2223,105.449 74.5,106.5C 73.8554,99.9176 76.0221,94.5843 81,90.5C 81.49,89.2068 81.6567,87.8734 81.5,86.5C 82.1577,87.3984 82.8243,88.3984 83.5,89.5C 85.5212,88.1455 87.1879,86.4788 88.5,84.5 Z"/></g>
<g><path style="opacity:1" fill="#87271c" d="M 97.5,108.5 C 96.6236,108.631 95.9569,108.298 95.5,107.5C 96.1272,106.583 96.4606,105.583 96.5,104.5C 97.3543,103.368 97.3543,102.035 96.5,100.5C 96.8921,97.0523 96.2254,93.8857 94.5,91C 95.9958,89.6693 97.3291,88.1693 98.5,86.5C 97.0977,85.1575 97.4311,84.3242 99.5,84C 94.8151,81.2008 91.4818,77.3674 89.5,72.5C 90.2653,69.9039 90.5987,67.2372 90.5,64.5C 90.4326,63.0413 90.7659,61.7079 91.5,60.5C 91.8333,59.1667 92.1667,57.8333 92.5,56.5C 93.1667,55.5 93.8333,54.5 94.5,53.5C 97.5526,56.3904 100.053,59.7238 102,63.5C 102.333,54.1667 102.667,44.8333 103,35.5C 103.667,68.1667 103.667,100.833 103,133.5C 102.667,123.5 102.333,113.5 102,103.5C 100.293,105.037 98.7927,106.704 97.5,108.5 Z"/></g>
<g><path style="opacity:1" fill="#bc271c" d="M 6.5,90.5 C 9.59241,92.3776 12.9257,93.7109 16.5,94.5C 16.2907,95.086 15.9574,95.586 15.5,96C 12.5184,96.498 9.51838,96.6646 6.5,96.5C 6.5,94.5 6.5,92.5 6.5,90.5 Z"/></g>
<g><path style="opacity:1" fill="#b32f1d" d="M 61.5,64.5 C 62.1667,64.5 62.5,64.8333 62.5,65.5C 60.7114,71.6688 59.7114,78.0022 59.5,84.5C 57.2723,84.9702 55.9389,85.9702 55.5,87.5C 53.8653,86.9537 52.1986,86.6204 50.5,86.5C 50.5,88.8333 50.5,91.1667 50.5,93.5C 52.5,93.5 54.5,93.5 56.5,93.5C 56.3964,95.7028 55.7298,97.7028 54.5,99.5C 52.3493,100.654 50.3493,101.987 48.5,103.5C 47.8476,102.551 47.5143,101.385 47.5,100C 48.8639,94.9218 49.5306,89.7551 49.5,84.5C 51.0481,84.1788 51.7148,83.1788 51.5,81.5C 53.861,81.6741 56.1944,82.0074 58.5,82.5C 58.5,80.1667 58.5,77.8333 58.5,75.5C 56.5,75.5 54.5,75.5 52.5,75.5C 53.6771,70.3245 56.6771,66.6579 61.5,64.5 Z"/></g>
<g><path style="opacity:1" fill="#b92b1d" d="M 68.5,93.5 C 68.815,97.3714 68.4816,101.038 67.5,104.5C 64.5084,101.512 62.8417,97.845 62.5,93.5C 64.5,93.5 66.5,93.5 68.5,93.5 Z"/></g>
<g><path style="opacity:1" fill="#b1271d" d="M 19.5,96.5 C 19.2786,97.7348 18.6119,98.7348 17.5,99.5C 17.6236,100.107 17.9569,100.44 18.5,100.5C 18.4476,104.198 18.1143,107.865 17.5,111.5C 16.2719,112.306 15.2719,113.306 14.5,114.5C 11.1285,112.064 8.46186,109.064 6.5,105.5C 6.5,103.167 6.5,100.833 6.5,98.5C 11.0309,98.8501 15.3642,98.1834 19.5,96.5 Z"/></g>
<g><path style="opacity:1" fill="#615326" d="M 35.5,84.5 C 36.5,84.5 37.5,84.5 38.5,84.5C 37.075,85.922 36.075,87.5887 35.5,89.5C 33.9219,91.3176 34.4219,92.3176 37,92.5C 39.151,92.3569 40.8176,91.3569 42,89.5C 42.1667,90 42.3333,90.5 42.5,91C 40.8274,93.1649 38.8274,94.9982 36.5,96.5C 37.9535,98.6439 37.6201,100.477 35.5,102C 36.448,102.483 37.448,102.649 38.5,102.5C 37.791,103.404 36.791,103.737 35.5,103.5C 35.3601,105.124 36.0267,106.29 37.5,107C 36.552,107.483 35.552,107.649 34.5,107.5C 34.6567,106.127 34.49,104.793 34,103.5C 33.7679,104.737 33.2679,105.737 32.5,106.5C 32.5858,105.504 32.2524,104.671 31.5,104C 29.8659,103.506 28.1992,103.34 26.5,103.5C 25.0222,103.762 23.6888,103.429 22.5,102.5C 21.6013,100.159 20.268,99.4925 18.5,100.5C 17.9569,100.44 17.6236,100.107 17.5,99.5C 18.6119,98.7348 19.2786,97.7348 19.5,96.5C 21.0542,97.9142 22.3875,99.5808 23.5,101.5C 26.7844,102.657 30.1177,102.824 33.5,102C 31.4233,101.808 29.4233,101.308 27.5,100.5C 28.9091,100.346 30.5758,100.179 32.5,100C 31.3774,98.9563 30.0441,98.2896 28.5,98C 30.1667,97.6667 31.8333,97.3333 33.5,97C 32.6721,96.0853 31.6721,95.4186 30.5,95C 33.1667,94.6667 35.8333,94.3333 38.5,94C 35.1489,93.9428 32.1489,93.1094 29.5,91.5C 33.3107,91.8194 34.6441,90.3194 33.5,87C 34.756,86.5831 35.4226,85.7498 35.5,84.5 Z"/></g>
<g><path style="opacity:1" fill="#2f5776" d="M 96.5,100.5 C 97.3543,102.035 97.3543,103.368 96.5,104.5C 95.1667,104.5 93.8333,104.5 92.5,104.5C 90.1432,104.663 87.8098,104.497 85.5,104C 86.2489,102.266 86.7489,100.433 87,98.5C 88.9076,95.6677 89.741,96.001 89.5,99.5C 88.0728,101.9 88.5728,102.567 91,101.5C 91.9734,99.6079 92.6401,97.6079 93,95.5C 94.1581,95.9981 94.9915,96.8315 95.5,98C 93.8534,100.558 94.1867,101.392 96.5,100.5 Z"/></g>
<g><path style="opacity:1" fill="#d0bd1a" d="M 67.5,106.5 C 68.6291,108.628 68.7958,110.961 68,113.5C 66.8111,111.767 65.6444,110.1 64.5,108.5C 63.928,107.027 63.0946,105.693 62,104.5C 60.7114,107.351 60.2114,110.351 60.5,113.5C 59.962,115.117 59.6287,116.784 59.5,118.5C 58.8333,118.5 58.1667,118.5 57.5,118.5C 57.5,117.5 57.5,116.5 57.5,115.5C 57.8242,111.445 57.4909,107.445 56.5,103.5C 52.1124,106.022 48.1124,109.022 44.5,112.5C 44.5,111.5 44.5,110.5 44.5,109.5C 45.8202,107.537 47.1535,105.537 48.5,103.5C 50.3493,101.987 52.3493,100.654 54.5,99.5C 56.7819,98.6103 59.1152,98.4436 61.5,99C 63.364,101.688 65.364,104.188 67.5,106.5 Z"/></g>
<g><path style="opacity:1" fill="#226da3" d="M 78.5,104.5 C 78.1667,104.5 77.8333,104.5 77.5,104.5C 77.0825,103.778 76.4158,103.278 75.5,103C 77.0851,99.1057 78.0851,98.939 78.5,102.5C 79.5,102.5 80.5,102.5 81.5,102.5C 81.2011,100.396 81.5344,98.396 82.5,96.5C 83.48,99.0865 83.8134,101.753 83.5,104.5C 81.8333,104.5 80.1667,104.5 78.5,104.5 Z"/></g>
<g><path style="opacity:1" fill="#eff0ee" d="M 73.5,84.5 C 75.5,84.5 77.5,84.5 79.5,84.5C 80.8333,84.5 81.5,85.1667 81.5,86.5C 81.6567,87.8734 81.49,89.2068 81,90.5C 76.0221,94.5843 73.8554,99.9176 74.5,106.5C 74.5,106.833 74.5,107.167 74.5,107.5C 74.679,111.209 76.3457,113.876 79.5,115.5C 80.347,116.966 81.6803,117.8 83.5,118C 80.8333,119.333 78.8333,121.333 77.5,124C 75.26,124.977 72.9267,125.477 70.5,125.5C 70.1667,125.5 69.8333,125.5 69.5,125.5C 69.3347,121.818 69.5014,118.152 70,114.5C 71.1353,114.273 72.302,113.94 73.5,113.5C 72.6495,110.388 71.4828,110.054 70,112.5C 69.502,109.518 69.3354,106.518 69.5,103.5C 70.8221,103.33 71.9887,103.663 73,104.5C 73.1667,103.667 73.3333,102.833 73.5,102C 73.0854,98.8943 72.0854,98.7276 70.5,101.5C 69.1667,98.8333 69.1667,96.1667 70.5,93.5C 71.4255,92.3595 72.2588,92.3595 73,93.5C 73.9764,89.7483 73.3098,89.0817 71,91.5C 70.5034,89.1902 70.3367,86.8568 70.5,84.5C 71.5,84.5 72.5,84.5 73.5,84.5 Z"/></g>
<g><path style="opacity:1" fill="#958524" d="M 26.5,103.5 C 26.5,104.5 26.5,105.5 26.5,106.5C 28.5,106.5 30.5,106.5 32.5,106.5C 33.2679,105.737 33.7679,104.737 34,103.5C 34.49,104.793 34.6567,106.127 34.5,107.5C 35.552,107.649 36.552,107.483 37.5,107C 36.0267,106.29 35.3601,105.124 35.5,103.5C 36.791,103.737 37.791,103.404 38.5,102.5C 39.7348,102.279 40.7348,101.612 41.5,100.5C 41.8333,101 42.1667,101.5 42.5,102C 41.6328,105.105 41.2994,108.272 41.5,111.5C 39.6776,111.169 38.0109,110.502 36.5,109.5C 32.6776,108.623 28.6776,107.956 24.5,107.5C 23.2739,107.52 22.2739,107.853 21.5,108.5C 20.1667,109.5 18.8333,110.5 17.5,111.5C 18.1143,107.865 18.4476,104.198 18.5,100.5C 20.268,99.4925 21.6013,100.159 22.5,102.5C 23.6888,103.429 25.0222,103.762 26.5,103.5 Z"/></g>
<g><path style="opacity:1" fill="#d91b21" d="M 26.5,103.5 C 28.1992,103.34 29.8659,103.506 31.5,104C 32.2524,104.671 32.5858,105.504 32.5,106.5C 30.5,106.5 28.5,106.5 26.5,106.5C 26.5,105.5 26.5,104.5 26.5,103.5 Z"/></g>
<g><path style="opacity:1" fill="#5c5146" d="M 48.5,84.5 C 48.8333,84.5 49.1667,84.5 49.5,84.5C 49.5306,89.7551 48.8639,94.9218 47.5,100C 47.5143,101.385 47.8476,102.551 48.5,103.5C 47.1535,105.537 45.8202,107.537 44.5,109.5C 44.1961,108.85 43.8627,108.183 43.5,107.5C 46.3201,104.284 45.9867,101.451 42.5,99C 44.263,95.988 45.4297,96.488 46,100.5C 47.4783,95.2573 48.3116,89.924 48.5,84.5 Z"/></g>
<g><path style="opacity:1" fill="#ae291c" d="M 57.5,115.5 C 56.4618,113.428 54.9618,111.761 53,110.5C 50.2156,111.473 47.7156,112.806 45.5,114.5C 44.6618,114.158 44.3284,113.492 44.5,112.5C 48.1124,109.022 52.1124,106.022 56.5,103.5C 57.4909,107.445 57.8242,111.445 57.5,115.5 Z"/></g>
<g><path style="opacity:1" fill="#d3be20" d="M 77.5,104.5 C 77.8333,104.5 78.1667,104.5 78.5,104.5C 83.1667,105.833 87.8333,105.833 92.5,104.5C 93.8333,104.5 95.1667,104.5 96.5,104.5C 96.4606,105.583 96.1272,106.583 95.5,107.5C 95.9569,108.298 96.6236,108.631 97.5,108.5C 97.5,108.833 97.5,109.167 97.5,109.5C 94.5176,109.963 91.5176,110.296 88.5,110.5C 88.5,113.167 88.5,115.833 88.5,118.5C 89.5,120.5 90.5,122.5 91.5,124.5C 91.1667,124.5 90.8333,124.5 90.5,124.5C 90.44,123.957 90.1067,123.624 89.5,123.5C 88.7189,124.729 88.2189,126.062 88,127.5C 87.8275,123.129 87.3275,118.796 86.5,114.5C 85.914,114.709 85.414,115.043 85,115.5C 84.8019,113.618 84.3019,111.952 83.5,110.5C 79.8453,111.075 76.8453,110.075 74.5,107.5C 74.5,107.167 74.5,106.833 74.5,106.5C 75.2223,105.449 76.2223,104.782 77.5,104.5 Z"/></g>
<g><path style="opacity:1" fill="#ab291d" d="M 64.5,108.5 C 63.5,109.833 62.5,111.167 61.5,112.5C 61.5,113.167 61.1667,113.5 60.5,113.5C 60.2114,110.351 60.7114,107.351 62,104.5C 63.0946,105.693 63.928,107.027 64.5,108.5 Z"/></g>
<g><path style="opacity:1" fill="#ee2c26" d="M 81.5,107.5 C 83.337,107.639 83.6704,108.306 82.5,109.5C 81.7025,109.043 81.3691,108.376 81.5,107.5 Z"/></g>
<g><path style="opacity:1" fill="#a0bece" d="M 32.5,112.5 C 32.2994,115.728 32.6328,118.895 33.5,122C 33.0556,123.762 32.5556,123.595 32,121.5C 30.9231,124.262 31.7564,125.928 34.5,126.5C 34.5,127.833 34.5,129.167 34.5,130.5C 33.8423,129.602 33.1757,128.602 32.5,127.5C 31.8076,128.025 31.3076,128.692 31,129.5C 30.3333,135.5 29.6667,141.5 29,147.5C 28.2917,148.381 27.4584,149.047 26.5,149.5C 25.8614,148.903 25.528,148.07 25.5,147C 27.3829,134.554 28.7162,122.054 29.5,109.5C 30.5,109.5 31.5,109.5 32.5,109.5C 32.5,110.5 32.5,111.5 32.5,112.5 Z"/></g>
<g><path style="opacity:1" fill="#ebeceb" d="M 40.5,84.5 C 42.1667,84.5 43.8333,84.5 45.5,84.5C 46.5,84.5 47.5,84.5 48.5,84.5C 48.3116,89.924 47.4783,95.2573 46,100.5C 45.4297,96.488 44.263,95.988 42.5,99C 45.9867,101.451 46.3201,104.284 43.5,107.5C 43.8627,108.183 44.1961,108.85 44.5,109.5C 42.7922,112.95 41.4588,116.617 40.5,120.5C 39.1667,123.167 37.1667,125.167 34.5,126.5C 31.7564,125.928 30.9231,124.262 32,121.5C 32.5556,123.595 33.0556,123.762 33.5,122C 32.6328,118.895 32.2994,115.728 32.5,112.5C 33.8249,111.047 34.6582,111.381 35,113.5C 35.21,111.942 35.71,110.609 36.5,109.5C 38.0109,110.502 39.6776,111.169 41.5,111.5C 41.2994,108.272 41.6328,105.105 42.5,102C 42.1667,101.5 41.8333,101 41.5,100.5C 40.7348,101.612 39.7348,102.279 38.5,102.5C 37.448,102.649 36.448,102.483 35.5,102C 37.6201,100.477 37.9535,98.6439 36.5,96.5C 38.8274,94.9982 40.8274,93.1649 42.5,91C 42.3333,90.5 42.1667,90 42,89.5C 40.8176,91.3569 39.151,92.3569 37,92.5C 34.4219,92.3176 33.9219,91.3176 35.5,89.5C 37.5,88.1667 39.1667,86.5 40.5,84.5 Z"/></g>
<g><path style="opacity:1" fill="#e6e8e6" d="M 21.5,108.5 C 22.1223,110.335 23.4556,111.502 25.5,112C 24.7069,115.411 24.2069,118.911 24,122.5C 21.3723,120.874 19.039,118.874 17,116.5C 16.6155,114.803 16.7822,113.137 17.5,111.5C 18.8333,110.5 20.1667,109.5 21.5,108.5 Z"/></g>
<g><path style="opacity:1" fill="#326a92" d="M 74.5,107.5 C 76.8453,110.075 79.8453,111.075 83.5,110.5C 83.7989,112.604 83.4656,114.604 82.5,116.5C 81.5832,115.873 80.5832,115.539 79.5,115.5C 76.3457,113.876 74.679,111.209 74.5,107.5 Z"/></g>
<g><path style="opacity:1" fill="#2d5976" d="M 97.5,109.5 C 95.5181,113.146 92.8515,116.146 89.5,118.5C 89.1667,118.5 88.8333,118.5 88.5,118.5C 88.5,115.833 88.5,113.167 88.5,110.5C 91.5176,110.296 94.5176,109.963 97.5,109.5 Z"/></g>
<g><path style="opacity:1" fill="#ebebe9" d="M 57.5,115.5 C 57.5,116.5 57.5,117.5 57.5,118.5C 55.7701,120.121 53.7701,121.455 51.5,122.5C 50.5084,122.328 49.8417,122.662 49.5,123.5C 47.0071,124.797 44.3404,125.797 41.5,126.5C 40.5,126.167 39.8333,125.5 39.5,124.5C 40.2458,123.264 40.5792,121.93 40.5,120.5C 41.7007,118.091 43.3674,116.091 45.5,114.5C 47.7156,112.806 50.2156,111.473 53,110.5C 54.9618,111.761 56.4618,113.428 57.5,115.5 Z"/></g>
<g><path style="opacity:1" fill="#edeeec" d="M 67.5,125.5 C 65.5648,124.85 63.5648,124.517 61.5,124.5C 61.1412,122.629 60.1412,121.129 58.5,120C 59.056,119.617 59.3893,119.117 59.5,118.5C 59.6287,116.784 59.962,115.117 60.5,113.5C 61.1667,113.5 61.5,113.167 61.5,112.5C 63.8285,111.251 65.6618,111.918 67,114.5C 67.4986,118.152 67.6653,121.818 67.5,125.5 Z"/></g>
<g><path style="opacity:1" fill="#624136" d="M 44.5,109.5 C 44.5,110.5 44.5,111.5 44.5,112.5C 44.3284,113.492 44.6618,114.158 45.5,114.5C 43.3674,116.091 41.7007,118.091 40.5,120.5C 41.4588,116.617 42.7922,112.95 44.5,109.5 Z"/></g>
<g><path style="opacity:1" fill="#3e3d3a" d="M 73.5,118.5 C 76.0182,119.759 75.8515,121.093 73,122.5C 72.805,121.181 72.9717,119.847 73.5,118.5 Z"/></g>
<g><path style="opacity:1" fill="#5e4626" d="M 88.5,118.5 C 88.8333,118.5 89.1667,118.5 89.5,118.5C 93.6607,119.64 94.3274,121.64 91.5,124.5C 90.5,122.5 89.5,120.5 88.5,118.5 Z"/></g>
<g><path style="opacity:1" fill="#9a8d31" d="M 57.5,122.5 C 59.4288,124.06 60.7622,126.06 61.5,128.5C 57.0846,130.542 54.918,129.209 55,124.5C 55.7083,123.619 56.5416,122.953 57.5,122.5 Z"/></g>
<g><path style="opacity:1" fill="#5b4426" d="M 83.5,110.5 C 84.3019,111.952 84.8019,113.618 85,115.5C 85.414,115.043 85.914,114.709 86.5,114.5C 87.3275,118.796 87.8275,123.129 88,127.5C 88.2189,126.062 88.7189,124.729 89.5,123.5C 90.1067,123.624 90.44,123.957 90.5,124.5C 87.9026,131.124 85.2359,131.124 82.5,124.5C 83.7498,124.577 84.5831,125.244 85,126.5C 84.4961,124.138 84.6628,121.805 85.5,119.5C 84.8773,117.186 84.544,117.519 84.5,120.5C 81.4017,120.413 81.0684,120.913 83.5,122C 82.244,122.417 81.5774,123.25 81.5,124.5C 80.8826,124.389 80.3826,124.056 80,123.5C 77.5443,125.654 74.7109,126.987 71.5,127.5C 71.1667,126.833 70.8333,126.167 70.5,125.5C 72.9267,125.477 75.26,124.977 77.5,124C 78.8333,121.333 80.8333,119.333 83.5,118C 81.6803,117.8 80.347,116.966 79.5,115.5C 80.5832,115.539 81.5832,115.873 82.5,116.5C 83.4656,114.604 83.7989,112.604 83.5,110.5 Z"/></g>
<g><path style="opacity:1" fill="#a3941c" d="M 82.5,124.5 C 82.1667,124.5 81.8333,124.5 81.5,124.5C 81.5774,123.25 82.244,122.417 83.5,122C 81.0684,120.913 81.4017,120.413 84.5,120.5C 84.544,117.519 84.8773,117.186 85.5,119.5C 84.6628,121.805 84.4961,124.138 85,126.5C 84.5831,125.244 83.7498,124.577 82.5,124.5 Z"/></g>
<g><path style="opacity:1" fill="#584d2f" d="M 57.5,118.5 C 58.1667,118.5 58.8333,118.5 59.5,118.5C 59.3893,119.117 59.056,119.617 58.5,120C 60.1412,121.129 61.1412,122.629 61.5,124.5C 63.5992,125.815 63.9326,127.482 62.5,129.5C 61.8333,129.5 61.5,129.167 61.5,128.5C 60.7622,126.06 59.4288,124.06 57.5,122.5C 55.6907,121.709 53.6907,121.709 51.5,122.5C 53.7701,121.455 55.7701,120.121 57.5,118.5 Z"/></g>
<g><path style="opacity:1" fill="#d8c2ae" d="M 57.5,122.5 C 56.5416,122.953 55.7083,123.619 55,124.5C 54.918,129.209 57.0846,130.542 61.5,128.5C 61.5,129.167 61.8333,129.5 62.5,129.5C 62.719,130.675 62.3857,131.675 61.5,132.5C 60.452,131.617 59.2853,130.95 58,130.5C 55.0337,130.852 52.5337,132.019 50.5,134C 50.6667,134.5 50.8333,135 51,135.5C 51.6891,134.643 52.5224,133.977 53.5,133.5C 56.2738,137.134 59.4405,137.468 63,134.5C 63.6667,137.5 63.6667,140.5 63,143.5C 61.6015,142.949 60.2682,142.616 59,142.5C 58.3333,143.5 58.3333,144.5 59,145.5C 61.5821,144.039 63.4154,144.706 64.5,147.5C 58.5544,149.013 52.5544,149.346 46.5,148.5C 46.553,142.804 46.2197,137.138 45.5,131.5C 46.5,131.5 47.5,131.5 48.5,131.5C 47.2461,128.484 47.5795,125.818 49.5,123.5C 49.8417,122.662 50.5084,122.328 51.5,122.5C 53.6907,121.709 55.6907,121.709 57.5,122.5 Z"/></g>
<g><path style="opacity:1" fill="#8d7c28" d="M 61.5,124.5 C 63.5648,124.517 65.5648,124.85 67.5,125.5C 68.1667,125.5 68.8333,125.5 69.5,125.5C 69.8333,125.5 70.1667,125.5 70.5,125.5C 70.8333,126.167 71.1667,126.833 71.5,127.5C 70.8333,128.167 70.1667,128.833 69.5,129.5C 69.719,128.325 69.3857,127.325 68.5,126.5C 67.7285,128.862 66.8952,131.196 66,133.5C 65.8047,131.793 65.8047,130.126 66,128.5C 64.9887,129.337 63.8221,129.67 62.5,129.5C 63.9326,127.482 63.5992,125.815 61.5,124.5 Z"/></g>
<g><path style="opacity:1" fill="#605127" d="M 69.5,129.5 C 69.6775,130.695 70.0109,131.862 70.5,133C 68.649,136.398 67.3157,139.898 66.5,143.5C 65.8333,144.833 65.1667,146.167 64.5,147.5C 63.4154,144.706 61.5821,144.039 59,145.5C 58.3333,144.5 58.3333,143.5 59,142.5C 60.2682,142.616 61.6015,142.949 63,143.5C 63.6667,140.5 63.6667,137.5 63,134.5C 59.4405,137.468 56.2738,137.134 53.5,133.5C 52.5224,133.977 51.6891,134.643 51,135.5C 50.8333,135 50.6667,134.5 50.5,134C 52.5337,132.019 55.0337,130.852 58,130.5C 59.2853,130.95 60.452,131.617 61.5,132.5C 62.3857,131.675 62.719,130.675 62.5,129.5C 63.8221,129.67 64.9887,129.337 66,128.5C 65.8047,130.126 65.8047,131.793 66,133.5C 66.8952,131.196 67.7285,128.862 68.5,126.5C 69.3857,127.325 69.719,128.325 69.5,129.5 Z"/></g>
<g><path style="opacity:1" fill="#8f802c" d="M 40.5,120.5 C 40.5792,121.93 40.2458,123.264 39.5,124.5C 39.8333,125.5 40.5,126.167 41.5,126.5C 44.3404,125.797 47.0071,124.797 49.5,123.5C 47.5795,125.818 47.2461,128.484 48.5,131.5C 47.5,131.5 46.5,131.5 45.5,131.5C 46.2197,137.138 46.553,142.804 46.5,148.5C 44.139,148.326 41.8056,147.993 39.5,147.5C 38.6481,144.777 37.4814,142.11 36,139.5C 35.6371,136.456 35.1371,133.456 34.5,130.5C 34.5,129.167 34.5,127.833 34.5,126.5C 37.1667,125.167 39.1667,123.167 40.5,120.5 Z"/></g>
<g><path style="opacity:1" fill="#d7362f" d="M 5.5,137.5 C 10.0795,138.243 12.2462,140.91 12,145.5C 10.4506,148.003 8.78392,148.003 7,145.5C 5.33333,148.167 3.66667,148.167 2,145.5C 2.29198,142.57 3.45864,139.903 5.5,137.5 Z"/></g>
<g><path style="opacity:1" fill="#708c99" d="M 36.5,109.5 C 35.71,110.609 35.21,111.942 35,113.5C 34.6582,111.381 33.8249,111.047 32.5,112.5C 32.5,111.5 32.5,110.5 32.5,109.5C 31.5,109.5 30.5,109.5 29.5,109.5C 28.7162,122.054 27.3829,134.554 25.5,147C 25.528,148.07 25.8614,148.903 26.5,149.5C 26.2172,150.289 25.7172,150.956 25,151.5C 24,150.5 23,149.5 22,148.5C 22.2511,140.16 22.5844,131.827 23,123.5C 19.2565,121.335 16.4232,118.335 14.5,114.5C 15.2719,113.306 16.2719,112.306 17.5,111.5C 16.7822,113.137 16.6155,114.803 17,116.5C 19.039,118.874 21.3723,120.874 24,122.5C 24.2069,118.911 24.7069,115.411 25.5,112C 23.4556,111.502 22.1223,110.335 21.5,108.5C 22.2739,107.853 23.2739,107.52 24.5,107.5C 28.6776,107.956 32.6776,108.623 36.5,109.5 Z"/></g>
<g><path style="opacity:1" fill="#d7362f" d="M 100.5,137.5 C 103.642,137.799 105.809,139.466 107,142.5C 107.779,144.906 106.946,146.573 104.5,147.5C 103.522,147.023 102.689,146.357 102,145.5C 98.2983,148.259 96.6317,147.259 97,142.5C 97.9973,140.677 99.1639,139.01 100.5,137.5 Z"/></g>
<g><path style="opacity:1" fill="#d52524" d="M 86.5,142.5 C 92.4757,144.943 95.3091,149.277 95,155.5C 92.541,158.1 90.041,158.1 87.5,155.5C 81.1956,158.712 78.6956,156.712 80,149.5C 82.3722,147.297 84.5389,144.963 86.5,142.5 Z"/></g>
<g><path style="opacity:1" fill="#d7352e" d="M 2.5,151.5 C 3.20895,150.596 4.20895,150.263 5.5,150.5C 6.73338,157.059 8.06671,157.059 9.5,150.5C 10.8333,155.167 10.8333,159.833 9.5,164.5C 8.58717,158.046 7.25384,158.046 5.5,164.5C 4.64056,165.774 3.97389,165.608 3.5,164C 6.16733,159.534 5.834,155.367 2.5,151.5 Z"/></g>
<g><path style="opacity:1" fill="#d7352e" d="M 98.5,151.5 C 99.209,150.596 100.209,150.263 101.5,150.5C 102.733,157.059 104.067,157.059 105.5,150.5C 106.833,155.167 106.833,159.833 105.5,164.5C 104.587,158.046 103.254,158.046 101.5,164.5C 100.641,165.774 99.9739,165.608 99.5,164C 102.167,159.534 101.834,155.367 98.5,151.5 Z"/></g>
<g><path style="opacity:1" fill="#c3aa32" d="M 66.5,143.5 C 66.7261,146.249 66.3928,148.916 65.5,151.5C 67.5212,152.855 69.1879,154.521 70.5,156.5C 69.0755,158.144 67.4089,159.644 65.5,161C 62.1119,161.659 58.7786,161.492 55.5,160.5C 51.5845,159.733 47.5845,159.233 43.5,159C 40.125,155.526 38.7917,156.026 39.5,160.5C 38.3509,160.209 37.6842,159.376 37.5,158C 37.7728,156.467 38.1062,154.967 38.5,153.5C 38.8333,151.5 39.1667,149.5 39.5,147.5C 41.8056,147.993 44.139,148.326 46.5,148.5C 52.5544,149.346 58.5544,149.013 64.5,147.5C 65.1667,146.167 65.8333,144.833 66.5,143.5 Z"/></g>
<g><path style="opacity:1" fill="#874f25" d="M 38.5,153.5 C 38.1062,154.967 37.7728,156.467 37.5,158C 37.6842,159.376 38.3509,160.209 39.5,160.5C 44.8333,161.833 50.1667,161.833 55.5,160.5C 58.7786,161.492 62.1119,161.659 65.5,161C 67.4089,159.644 69.0755,158.144 70.5,156.5C 71.0431,156.56 71.3764,156.893 71.5,157.5C 70.294,159.149 68.9606,160.649 67.5,162C 76.8333,162.333 86.1667,162.667 95.5,163C 68.1667,163.667 40.8333,163.667 13.5,163C 21.5,162.667 29.5,162.333 37.5,162C 34.8299,158.838 35.1632,156.005 38.5,153.5 Z"/></g>
<g><path style="opacity:1" fill="#e3e3b4" d="M 55.5,160.5 C 50.1667,161.833 44.8333,161.833 39.5,160.5C 38.7917,156.026 40.125,155.526 43.5,159C 47.5845,159.233 51.5845,159.733 55.5,160.5 Z"/></g>
</svg>
