<?xml version="1.0" encoding="UTF-8"?>
<!DOCTYPE svg PUBLIC "-//W3C//DTD SVG 1.1//EN" "http://www.w3.org/Graphics/SVG/1.1/DTD/svg11.dtd">
<svg xmlns="http://www.w3.org/2000/svg" version="1.1" width="110px" height="170px" style="shape-rendering:geometricPrecision; text-rendering:geometricPrecision; image-rendering:optimizeQuality; fill-rule:evenodd; clip-rule:evenodd" xmlns:xlink="http://www.w3.org/1999/xlink">
<g><path style="opacity:1" fill="#eff5e4" d="M -0.5,-0.5 C 36.1667,-0.5 72.8333,-0.5 109.5,-0.5C 109.5,56.1667 109.5,112.833 109.5,169.5C 72.8333,169.5 36.1667,169.5 -0.5,169.5C -0.5,112.833 -0.5,56.1667 -0.5,-0.5 Z"/></g>
<g><path style="opacity:1" fill="#d52222" d="M 1.5,4.5 C 2.5,4.5 3.5,4.5 4.5,4.5C 4.82662,9.21369 4.49329,13.8804 3.5,18.5C 2.67346,14.5408 2.17346,10.5408 2,6.5C 1.34569,7.69559 0.845686,7.69559 0.5,6.5C 0.862734,5.81654 1.19607,5.14987 1.5,4.5 Z"/></g>
<g><path style="opacity:1" fill="#d52826" d="M 7.5,4.5 C 9.14387,4.28649 10.6439,4.61983 12,5.5C 12.6667,9.5 12.6667,13.5 12,17.5C 10.3333,18.8333 8.66667,18.8333 7,17.5C 6.23158,13.0804 6.39825,8.74709 7.5,4.5 Z"/></g>
<g><path style="opacity:1" fill="#d52222" d="M 97.5,4.5 C 98.5,4.5 99.5,4.5 100.5,4.5C 100.827,9.21369 100.493,13.8804 99.5,18.5C 98.6735,14.5408 98.1735,10.5408 98,6.5C 97.3457,7.69559 96.8457,7.69559 96.5,6.5C 96.8627,5.81654 97.1961,5.14987 97.5,4.5 Z"/></g>
<g><path style="opacity:1" fill="#d52826" d="M 103.5,4.5 C 105.144,4.28649 106.644,4.61983 108,5.5C 108.667,9.5 108.667,13.5 108,17.5C 106.333,18.8333 104.667,18.8333 103,17.5C 102.232,13.0804 102.398,8.74709 103.5,4.5 Z"/></g>
<g><path style="opacity:1" fill="#eef1e1" d="M 8.5,6.5 C 9.77725,7.69363 10.4439,9.3603 10.5,11.5C 10.1667,13.1667 9.83333,14.8333 9.5,16.5C 8.51298,13.2317 8.17964,9.89838 8.5,6.5 Z"/></g>
<g><path style="opacity:1" fill="#eef1e1" d="M 104.5,6.5 C 105.777,7.69363 106.444,9.3603 106.5,11.5C 106.167,13.1667 105.833,14.8333 105.5,16.5C 104.513,13.2317 104.18,9.89838 104.5,6.5 Z"/></g>
<g><path style="opacity:1" fill="#d52826" d="M 29.5,14.5 C 33.3043,19.1361 37.6377,23.3028 42.5,27C 37.6667,30.5 33.5,34.6667 30,39.5C 26.5,34.6667 22.3333,30.5 17.5,27C 22.3772,23.6239 26.3772,19.4572 29.5,14.5 Z"/></g>
<g><path style="opacity:1" fill="#d52826" d="M 78.5,14.5 C 82.3043,19.1361 86.6377,23.3028 91.5,27C 86.6667,30.5 82.5,34.6667 79,39.5C 75.5,34.6667 71.3333,30.5 66.5,27C 71.3772,23.6239 75.3772,19.4572 78.5,14.5 Z"/></g>
<g><path style="opacity:1" fill="#d7342d" d="M 6.5,22.5 C 9.22545,23.713 11.5588,25.5464 13.5,28C 11.6499,30.0176 9.64991,31.8509 7.5,33.5C 5.67589,31.5107 3.67589,29.6774 1.5,28C 4.07904,26.9243 5.74571,25.091 6.5,22.5 Z"/></g>
<g><path style="opacity:1" fill="#d7342e" d="M 100.5,22.5 C 102.628,24.4458 104.961,26.2791 107.5,28C 105.324,29.6774 103.324,31.5107 101.5,33.5C 99.3501,31.8509 97.3501,30.0176 95.5,28C 97.3734,26.2962 99.0401,24.4628 100.5,22.5 Z"/></g>
<g><path style="opacity:1" fill="#d62c27" d="M 53.5,34.5 C 57.7669,38.4281 62.1003,42.4281 66.5,46.5C 62.1667,50.1667 58.1667,54.1667 54.5,58.5C 50.8333,54.1667 46.8333,50.1667 42.5,46.5C 46.8692,43.1314 50.5358,39.1314 53.5,34.5 Z"/></g>
<g><path style="opacity:1" fill="#d52825" d="M 28.5,53.5 C 33.4194,56.7483 37.7528,60.7483 41.5,65.5C 37.1754,68.9921 33.342,72.9921 30,77.5C 26.5,72.6667 22.3333,68.5 17.5,65C 22.0664,61.9357 25.7331,58.1024 28.5,53.5 Z"/></g>
<g><path style="opacity:1" fill="#d52825" d="M 78.5,53.5 C 82.6197,57.4457 86.953,61.279 91.5,65C 86.6667,68.5 82.5,72.6667 79,77.5C 75.658,72.9921 71.8246,68.9921 67.5,65.5C 71.1886,61.4799 74.8553,57.4799 78.5,53.5 Z"/></g>
<g><path style="opacity:1" fill="#d62926" d="M 29.5,91.5 C 33.3043,96.1361 37.6377,100.303 42.5,104C 38.0181,107.647 33.6848,111.481 29.5,115.5C 25.8062,111.14 21.8062,107.14 17.5,103.5C 22.5213,100.479 26.5213,96.4787 29.5,91.5 Z"/></g>
<g><path style="opacity:1" fill="#d62926" d="M 78.5,91.5 C 82.1601,96.1574 86.4934,100.157 91.5,103.5C 87.1938,107.14 83.1938,111.14 79.5,115.5C 75.3152,111.481 70.9819,107.647 66.5,104C 71.3772,100.624 75.3772,96.4572 78.5,91.5 Z"/></g>
<g><path style="opacity:1" fill="#d62c27" d="M 53.5,110.5 C 57.7669,114.428 62.1003,118.428 66.5,122.5C 62.1667,126.167 58.1667,130.167 54.5,134.5C 50.8333,130.167 46.8333,126.167 42.5,122.5C 46.9198,119.085 50.5864,115.085 53.5,110.5 Z"/></g>
<g><path style="opacity:1" fill="#d52826" d="M 29.5,129.5 C 33.3043,134.136 37.6377,138.303 42.5,142C 37.6667,145.5 33.5,149.667 30,154.5C 26.5,149.667 22.3333,145.5 17.5,142C 22.3772,138.624 26.3772,134.457 29.5,129.5 Z"/></g>
<g><path style="opacity:1" fill="#d52826" d="M 78.5,129.5 C 82.3043,134.136 86.6377,138.303 91.5,142C 86.6667,145.5 82.5,149.667 79,154.5C 75.5,149.667 71.3333,145.5 66.5,142C 71.3772,138.624 75.3772,134.457 78.5,129.5 Z"/></g>
<g><path style="opacity:1" fill="#d7342e" d="M 6.5,135.5 C 9.22545,136.713 11.5588,138.546 13.5,141C 11.6499,143.018 9.64991,144.851 7.5,146.5C 5.97567,144.142 3.97567,142.309 1.5,141C 3.68574,139.588 5.3524,137.755 6.5,135.5 Z"/></g>
<g><path style="opacity:1" fill="#d7342e" d="M 100.5,135.5 C 102.915,137.064 105.248,138.898 107.5,141C 105.024,142.309 103.024,144.142 101.5,146.5C 99.3501,144.851 97.3501,143.018 95.5,141C 97.3734,139.296 99.0401,137.463 100.5,135.5 Z"/></g>
<g><path style="opacity:1" fill="#d52826" d="M 1.5,150.5 C 3.14387,150.286 4.64387,150.62 6,151.5C 6.66667,155.5 6.66667,159.5 6,163.5C 4.33333,164.833 2.66667,164.833 1,163.5C 0.23158,159.08 0.398246,154.747 1.5,150.5 Z"/></g>
<g><path style="opacity:1" fill="#d52222" d="M 8.5,150.5 C 10.2684,154.044 11.1018,158.044 11,162.5C 11.6543,161.304 12.1543,161.304 12.5,162.5C 11.6798,164.111 10.3464,164.778 8.5,164.5C 8.5,159.833 8.5,155.167 8.5,150.5 Z"/></g>
<g><path style="opacity:1" fill="#d52826" d="M 97.5,150.5 C 99.1439,150.286 100.644,150.62 102,151.5C 102.667,155.5 102.667,159.5 102,163.5C 100.333,164.833 98.6667,164.833 97,163.5C 96.2316,159.08 96.3982,154.747 97.5,150.5 Z"/></g>
<g><path style="opacity:1" fill="#d52222" d="M 104.5,150.5 C 106.268,154.044 107.102,158.044 107,162.5C 107.654,161.304 108.154,161.304 108.5,162.5C 107.68,164.111 106.346,164.778 104.5,164.5C 104.5,159.833 104.5,155.167 104.5,150.5 Z"/></g>
<g><path style="opacity:1" fill="#eef1e1" d="M 2.5,152.5 C 3.77725,153.694 4.44392,155.36 4.5,157.5C 4.16667,159.167 3.83333,160.833 3.5,162.5C 2.51298,159.232 2.17964,155.898 2.5,152.5 Z"/></g>
<g><path style="opacity:1" fill="#eef1e1" d="M 98.5,152.5 C 99.7773,153.694 100.444,155.36 100.5,157.5C 100.167,159.167 99.8333,160.833 99.5,162.5C 98.513,159.232 98.1796,155.898 98.5,152.5 Z"/></g>
</svg>
