<?xml version="1.0" encoding="UTF-8"?>
<!DOCTYPE svg PUBLIC "-//W3C//DTD SVG 1.1//EN" "http://www.w3.org/Graphics/SVG/1.1/DTD/svg11.dtd">
<svg xmlns="http://www.w3.org/2000/svg" version="1.1" width="110px" height="170px" style="shape-rendering:geometricPrecision; text-rendering:geometricPrecision; image-rendering:optimizeQuality; fill-rule:evenodd; clip-rule:evenodd" xmlns:xlink="http://www.w3.org/1999/xlink">
<g><path style="opacity:1" fill="#eef5e4" d="M -0.5,-0.5 C 36.1667,-0.5 72.8333,-0.5 109.5,-0.5C 109.5,56.1667 109.5,112.833 109.5,169.5C 72.8333,169.5 36.1667,169.5 -0.5,169.5C -0.5,112.833 -0.5,56.1667 -0.5,-0.5 Z"/></g>
<g><path style="opacity:1" fill="#d62e29" d="M 4.5,4.5 C 6.14387,4.28649 7.64387,4.61983 9,5.5C 9.79615,9.75483 9.62948,13.9215 8.5,18C 6.35939,18.8837 4.69273,18.3837 3.5,16.5C 4.39138,15.4104 5.39138,15.4104 6.5,16.5C 7.38568,15.675 7.71901,14.675 7.5,13.5C 6.16667,13.5 4.83333,13.5 3.5,13.5C 3.26414,10.3915 3.59748,7.39147 4.5,4.5 Z"/></g>
<g><path style="opacity:1" fill="#d62e29" d="M 100.5,4.5 C 102.144,4.28649 103.644,4.61983 105,5.5C 105.796,9.75483 105.629,13.9215 104.5,18C 102.359,18.8837 100.693,18.3837 99.5,16.5C 100.391,15.4104 101.391,15.4104 102.5,16.5C 103.386,15.675 103.719,14.675 103.5,13.5C 102.167,13.5 100.833,13.5 99.5,13.5C 99.2641,10.3915 99.5975,7.39147 100.5,4.5 Z"/></g>
<g><path style="opacity:1" fill="#eef5e5" d="M 5.5,6.5 C 6.64911,6.79106 7.31577,7.62439 7.5,9C 7.16667,9.83333 6.83333,10.6667 6.5,11.5C 5.54811,9.95467 5.21478,8.28801 5.5,6.5 Z"/></g>
<g><path style="opacity:1" fill="#eef5e5" d="M 101.5,6.5 C 102.649,6.79106 103.316,7.62439 103.5,9C 103.167,9.83333 102.833,10.6667 102.5,11.5C 101.548,9.95467 101.215,8.28801 101.5,6.5 Z"/></g>
<g><path style="opacity:1" fill="#d52826" d="M 29.5,14.5 C 33.3043,19.1361 37.6377,23.3028 42.5,27C 37.6667,30.5 33.5,34.6667 30,39.5C 26.5,34.6667 22.3333,30.5 17.5,27C 22.3772,23.6239 26.3772,19.4572 29.5,14.5 Z"/></g>
<g><path style="opacity:1" fill="#d52826" d="M 78.5,14.5 C 82.3043,19.1361 86.6377,23.3028 91.5,27C 86.6667,30.5 82.5,34.6667 79,39.5C 75.5,34.6667 71.3333,30.5 66.5,27C 71.3772,23.6239 75.3772,19.4572 78.5,14.5 Z"/></g>
<g><path style="opacity:1" fill="#d7342d" d="M 6.5,22.5 C 9.22545,23.713 11.5588,25.5464 13.5,28C 11.6499,30.0176 9.64991,31.8509 7.5,33.5C 5.67589,31.5107 3.67589,29.6774 1.5,28C 4.07904,26.9243 5.74571,25.091 6.5,22.5 Z"/></g>
<g><path style="opacity:1" fill="#d7342e" d="M 100.5,22.5 C 102.628,24.4458 104.961,26.2791 107.5,28C 105.324,29.6774 103.324,31.5107 101.5,33.5C 99.3501,31.8509 97.3501,30.0176 95.5,28C 97.3734,26.2962 99.0401,24.4628 100.5,22.5 Z"/></g>
<g><path style="opacity:1" fill="#d52825" d="M 28.5,53.5 C 33.4194,56.7483 37.7528,60.7483 41.5,65.5C 37.1754,68.9921 33.342,72.9921 30,77.5C 26.5,72.6667 22.3333,68.5 17.5,65C 22.0664,61.9357 25.7331,58.1024 28.5,53.5 Z"/></g>
<g><path style="opacity:1" fill="#d52825" d="M 78.5,53.5 C 82.6197,57.4457 86.953,61.279 91.5,65C 86.6667,68.5 82.5,72.6667 79,77.5C 75.658,72.9921 71.8246,68.9921 67.5,65.5C 71.1886,61.4799 74.8553,57.4799 78.5,53.5 Z"/></g>
<g><path style="opacity:1" fill="#d52725" d="M 53.5,72.5 C 57.7669,76.4281 62.1003,80.4281 66.5,84.5C 62.1667,88.1667 58.1667,92.1667 54.5,96.5C 50.8333,92.1667 46.8333,88.1667 42.5,84.5C 46.8692,81.1314 50.5358,77.1314 53.5,72.5 Z"/></g>
<g><path style="opacity:1" fill="#d62926" d="M 29.5,91.5 C 33.3043,96.1361 37.6377,100.303 42.5,104C 38.0181,107.647 33.6848,111.481 29.5,115.5C 25.8062,111.14 21.8062,107.14 17.5,103.5C 22.5213,100.479 26.5213,96.4787 29.5,91.5 Z"/></g>
<g><path style="opacity:1" fill="#d62926" d="M 78.5,91.5 C 82.1601,96.1574 86.4934,100.157 91.5,103.5C 87.1938,107.14 83.1938,111.14 79.5,115.5C 75.3152,111.481 70.9819,107.647 66.5,104C 71.3772,100.624 75.3772,96.4572 78.5,91.5 Z"/></g>
<g><path style="opacity:1" fill="#d52826" d="M 29.5,129.5 C 33.3043,134.136 37.6377,138.303 42.5,142C 37.6667,145.5 33.5,149.667 30,154.5C 26.5,149.667 22.3333,145.5 17.5,142C 22.3772,138.624 26.3772,134.457 29.5,129.5 Z"/></g>
<g><path style="opacity:1" fill="#d52826" d="M 78.5,129.5 C 82.3043,134.136 86.6377,138.303 91.5,142C 86.6667,145.5 82.5,149.667 79,154.5C 75.5,149.667 71.3333,145.5 66.5,142C 71.3772,138.624 75.3772,134.457 78.5,129.5 Z"/></g>
<g><path style="opacity:1" fill="#d7342e" d="M 6.5,135.5 C 9.22545,136.713 11.5588,138.546 13.5,141C 11.6499,143.018 9.64991,144.851 7.5,146.5C 5.97567,144.142 3.97567,142.309 1.5,141C 3.68574,139.588 5.3524,137.755 6.5,135.5 Z"/></g>
<g><path style="opacity:1" fill="#d7342e" d="M 100.5,135.5 C 102.915,137.064 105.248,138.898 107.5,141C 105.024,142.309 103.024,144.142 101.5,146.5C 99.3501,144.851 97.3501,143.018 95.5,141C 97.3734,139.296 99.0401,137.463 100.5,135.5 Z"/></g>
<g><path style="opacity:1" fill="#d62e29" d="M 4.5,150.5 C 6.66485,150.116 8.33152,150.783 9.5,152.5C 8.60862,153.59 7.60862,153.59 6.5,152.5C 5.61432,153.325 5.28099,154.325 5.5,155.5C 6.83333,155.5 8.16667,155.5 9.5,155.5C 9.66409,158.187 9.49742,160.854 9,163.5C 7.61238,164.554 6.11238,164.72 4.5,164C 3.19435,159.501 3.19435,155.001 4.5,150.5 Z"/></g>
<g><path style="opacity:1" fill="#d62e29" d="M 100.5,150.5 C 102.665,150.116 104.332,150.783 105.5,152.5C 104.609,153.59 103.609,153.59 102.5,152.5C 101.614,153.325 101.281,154.325 101.5,155.5C 102.833,155.5 104.167,155.5 105.5,155.5C 105.664,158.187 105.497,160.854 105,163.5C 103.612,164.554 102.112,164.72 100.5,164C 99.1943,159.501 99.1943,155.001 100.5,150.5 Z"/></g>
<g><path style="opacity:1" fill="#eef5e5" d="M 5.5,157.5 C 6.64911,157.791 7.31577,158.624 7.5,160C 7.16667,160.833 6.83333,161.667 6.5,162.5C 5.54811,160.955 5.21478,159.288 5.5,157.5 Z"/></g>
<g><path style="opacity:1" fill="#eef5e5" d="M 101.5,157.5 C 102.649,157.791 103.316,158.624 103.5,160C 103.167,160.833 102.833,161.667 102.5,162.5C 101.548,160.955 101.215,159.288 101.5,157.5 Z"/></g>
</svg>
