<?xml version="1.0" encoding="UTF-8"?>
<!DOCTYPE svg PUBLIC "-//W3C//DTD SVG 1.1//EN" "http://www.w3.org/Graphics/SVG/1.1/DTD/svg11.dtd">
<svg xmlns="http://www.w3.org/2000/svg" version="1.1" width="110px" height="170px" style="shape-rendering:geometricPrecision; text-rendering:geometricPrecision; image-rendering:optimizeQuality; fill-rule:evenodd; clip-rule:evenodd" xmlns:xlink="http://www.w3.org/1999/xlink">
<g><path style="opacity:1" fill="#eff6e5" d="M -0.5,-0.5 C 36.1667,-0.5 72.8333,-0.5 109.5,-0.5C 109.5,56.1667 109.5,112.833 109.5,169.5C 72.8333,169.5 36.1667,169.5 -0.5,169.5C -0.5,112.833 -0.5,56.1667 -0.5,-0.5 Z"/></g>
<g><path style="opacity:1" fill="#d94137" d="M 5.5,4.5 C 6.4959,4.41423 7.32924,4.74756 8,5.5C 8.67558,9.20233 9.50891,12.869 10.5,16.5C 10.1667,17.1667 9.83333,17.8333 9.5,18.5C 8.61432,17.675 8.28099,16.675 8.5,15.5C 7.16667,15.5 5.83333,15.5 4.5,15.5C 4.71901,16.675 4.38568,17.675 3.5,18.5C 3.17036,13.7812 3.83702,9.11451 5.5,4.5 Z"/></g>
<g><path style="opacity:1" fill="#d94137" d="M 101.5,4.5 C 102.496,4.41423 103.329,4.74756 104,5.5C 104.676,9.20233 105.509,12.869 106.5,16.5C 106.167,17.1667 105.833,17.8333 105.5,18.5C 104.614,17.675 104.281,16.675 104.5,15.5C 103.167,15.5 101.833,15.5 100.5,15.5C 100.719,16.675 100.386,17.675 99.5,18.5C 99.1704,13.7812 99.837,9.11451 101.5,4.5 Z"/></g>
<g><path style="opacity:1" fill="#e9b6a9" d="M 5.5,10.5 C 7.46455,10.9483 7.79789,11.9483 6.5,13.5C 5.61432,12.675 5.28099,11.675 5.5,10.5 Z"/></g>
<g><path style="opacity:1" fill="#e9b6a9" d="M 101.5,10.5 C 103.465,10.9483 103.798,11.9483 102.5,13.5C 101.614,12.675 101.281,11.675 101.5,10.5 Z"/></g>
<g><path style="opacity:1" fill="#d7342d" d="M 6.5,22.5 C 9.22545,23.713 11.5588,25.5464 13.5,28C 11.6499,30.0176 9.64991,31.8509 7.5,33.5C 5.67589,31.5107 3.67589,29.6774 1.5,28C 4.07904,26.9243 5.74571,25.091 6.5,22.5 Z"/></g>
<g><path style="opacity:1" fill="#d7342e" d="M 100.5,22.5 C 102.628,24.4458 104.961,26.2791 107.5,28C 105.324,29.6774 103.324,31.5107 101.5,33.5C 99.3501,31.8509 97.3501,30.0176 95.5,28C 97.3734,26.2962 99.0401,24.4628 100.5,22.5 Z"/></g>
<g><path style="opacity:1" fill="#d52725" d="M 53.5,72.5 C 57.7669,76.4281 62.1003,80.4281 66.5,84.5C 62.1667,88.1667 58.1667,92.1667 54.5,96.5C 50.8333,92.1667 46.8333,88.1667 42.5,84.5C 46.8692,81.1314 50.5358,77.1314 53.5,72.5 Z"/></g>
<g><path style="opacity:1" fill="#d7342e" d="M 6.5,135.5 C 9.22545,136.713 11.5588,138.546 13.5,141C 11.6499,143.018 9.64991,144.851 7.5,146.5C 5.97567,144.142 3.97567,142.309 1.5,141C 3.68574,139.588 5.3524,137.755 6.5,135.5 Z"/></g>
<g><path style="opacity:1" fill="#d7342e" d="M 100.5,135.5 C 102.915,137.064 105.248,138.898 107.5,141C 105.024,142.309 103.024,144.142 101.5,146.5C 99.3501,144.851 97.3501,143.018 95.5,141C 97.3734,139.296 99.0401,137.463 100.5,135.5 Z"/></g>
<g><path style="opacity:1" fill="#d52826" d="M 2.5,150.5 C 4.04814,150.821 4.71481,151.821 4.5,153.5C 5.83333,153.5 7.16667,153.5 8.5,153.5C 8.28099,152.325 8.61432,151.325 9.5,150.5C 7.96189,168.937 5.62856,168.937 2.5,150.5 Z"/></g>
<g><path style="opacity:1" fill="#d52826" d="M 98.5,150.5 C 100.048,150.821 100.715,151.821 100.5,153.5C 101.833,153.5 103.167,153.5 104.5,153.5C 104.281,152.325 104.614,151.325 105.5,150.5C 103.962,168.937 101.629,168.937 98.5,150.5 Z"/></g>
<g><path style="opacity:1" fill="#e3776b" d="M 5.5,155.5 C 6.64911,155.791 7.31577,156.624 7.5,158C 7.16667,158.833 6.83333,159.667 6.5,160.5C 5.54811,158.955 5.21478,157.288 5.5,155.5 Z"/></g>
<g><path style="opacity:1" fill="#e3776b" d="M 101.5,155.5 C 102.649,155.791 103.316,156.624 103.5,158C 103.167,158.833 102.833,159.667 102.5,160.5C 101.548,158.955 101.215,157.288 101.5,155.5 Z"/></g>
</svg>
