<?xml version="1.0" encoding="UTF-8"?>
<!DOCTYPE svg PUBLIC "-//W3C//DTD SVG 1.1//EN" "http://www.w3.org/Graphics/SVG/1.1/DTD/svg11.dtd">
<svg xmlns="http://www.w3.org/2000/svg" version="1.1" width="110px" height="170px" style="shape-rendering:geometricPrecision; text-rendering:geometricPrecision; image-rendering:optimizeQuality; fill-rule:evenodd; clip-rule:evenodd" xmlns:xlink="http://www.w3.org/1999/xlink">
<g><path style="opacity:1" fill="#edf2e1" d="M -0.5,-0.5 C 36.1667,-0.5 72.8333,-0.5 109.5,-0.5C 109.5,56.1667 109.5,112.833 109.5,169.5C 72.8333,169.5 36.1667,169.5 -0.5,169.5C -0.5,112.833 -0.5,56.1667 -0.5,-0.5 Z"/></g>
<g><path style="opacity:1" fill="#d83832" d="M 3.5,4.5 C 5.19919,4.33982 6.86586,4.50649 8.5,5C 9.08142,5.8926 9.41476,6.8926 9.5,8C 9.22517,11.027 9.0585,14.1937 9,17.5C 7.30054,18.4061 5.4672,18.7394 3.5,18.5C 3.5,13.8333 3.5,9.16667 3.5,4.5 Z"/></g>
<g><path style="opacity:1" fill="#d83832" d="M 99.5,4.5 C 101.199,4.33982 102.866,4.50649 104.5,5C 105.081,5.8926 105.415,6.8926 105.5,8C 105.225,11.027 105.058,14.1937 105,17.5C 103.301,18.4061 101.467,18.7394 99.5,18.5C 99.5,13.8333 99.5,9.16667 99.5,4.5 Z"/></g>
<g><path style="opacity:1" fill="#eef7e5" d="M 5.5,6.5 C 7.46455,6.94835 7.79789,7.94835 6.5,9.5C 5.61432,8.67504 5.28099,7.67504 5.5,6.5 Z"/></g>
<g><path style="opacity:1" fill="#2b612b" d="M 62.5,8.5 C 63.8333,9.9335 65.3333,11.2668 67,12.5C 67.5783,15.9033 68.7449,19.0699 70.5,22C 69.6919,24.0876 68.6919,26.0876 67.5,28C 65.8034,28.3845 64.1368,28.2178 62.5,27.5C 61.7822,25.8632 61.6155,24.1966 62,22.5C 62.3333,22.8333 62.6667,23.1667 63,23.5C 63.6567,19.4798 62.1567,16.4798 58.5,14.5C 57.8302,12.7086 57.1635,11.0419 56.5,9.5C 54.5379,7.98274 52.2046,7.31608 49.5,7.5C 46.2153,7.44741 43.2153,8.11408 40.5,9.5C 39.8333,9.5 39.1667,9.5 38.5,9.5C 37.209,9.73731 36.209,9.40397 35.5,8.5C 36.2891,8.21719 36.9558,7.71719 37.5,7C 29.5,6.66667 21.5,6.33333 13.5,6C 40.8333,5.33333 68.1667,5.33333 95.5,6C 83.8333,6.33333 72.1667,6.66667 60.5,7C 61.4158,7.27842 62.0825,7.77842 62.5,8.5 Z"/></g>
<g><path style="opacity:1" fill="#eef7e5" d="M 101.5,6.5 C 103.465,6.94835 103.798,7.94835 102.5,9.5C 101.614,8.67504 101.281,7.67504 101.5,6.5 Z"/></g>
<g><path style="opacity:1" fill="#526350" d="M 56.5,9.5 C 51.3927,8.27772 46.0594,8.27772 40.5,9.5C 43.2153,8.11408 46.2153,7.44741 49.5,7.5C 52.2046,7.31608 54.5379,7.98274 56.5,9.5 Z"/></g>
<g><path style="opacity:1" fill="#314833" d="M 35.5,8.5 C 36.209,9.40397 37.209,9.73731 38.5,9.5C 37.3915,10.29 36.0581,10.79 34.5,11C 33.8366,12.5185 32.8366,13.6851 31.5,14.5C 30.8911,11.1216 32.2244,9.12155 35.5,8.5 Z"/></g>
<g><path style="opacity:1" fill="#245332" d="M 62.5,8.5 C 65.1955,8.933 67.3621,10.2663 69,12.5C 69.3012,15.9801 70.1345,19.3134 71.5,22.5C 70.8202,25.3602 69.4869,27.8602 67.5,30C 65.0722,30.747 63.4056,29.9137 62.5,27.5C 64.1368,28.2178 65.8034,28.3845 67.5,28C 68.6919,26.0876 69.6919,24.0876 70.5,22C 68.7449,19.0699 67.5783,15.9033 67,12.5C 65.3333,11.2668 63.8333,9.9335 62.5,8.5 Z"/></g>
<g><path style="opacity:1" fill="#eedbcb" d="M 5.5,11.5 C 6.64911,11.7911 7.31577,12.6244 7.5,14C 7.16667,14.8333 6.83333,15.6667 6.5,16.5C 5.54811,14.9547 5.21478,13.288 5.5,11.5 Z"/></g>
<g><path style="opacity:1" fill="#d52a27" d="M 29.5,18.5 C 29.5,19.1667 29.8333,19.5 30.5,19.5C 30.5,20.1667 30.8333,20.5 31.5,20.5C 30.6935,21.7281 29.6935,22.7281 28.5,23.5C 26.1878,25.1455 24.1878,27.1455 22.5,29.5C 19.1667,26.8333 16.1667,23.8333 13.5,20.5C 16.8542,17.9795 19.6876,14.9795 22,11.5C 23.7364,14.7392 26.2364,17.0726 29.5,18.5 Z"/></g>
<g><path style="opacity:1" fill="#f5f5f4" d="M 56.5,9.5 C 56.552,11.9029 56.2186,14.2362 55.5,16.5C 54.6618,16.8417 54.3284,17.5084 54.5,18.5C 51.1538,20.3236 47.4872,20.9903 43.5,20.5C 43.5922,23.4 42.2589,25.0667 39.5,25.5C 38.1136,28.2336 36.1136,30.567 33.5,32.5C 32.1916,33.6256 30.8583,33.6256 29.5,32.5C 29.3398,30.8008 29.5065,29.1341 30,27.5C 32.8032,24.0245 35.6365,20.5245 38.5,17C 37.8333,16.3333 37.1667,16.3333 36.5,17C 35.2125,18.4095 34.0458,19.9095 33,21.5C 32.6174,20.944 32.1174,20.6107 31.5,20.5C 30.8333,20.5 30.5,20.1667 30.5,19.5C 31.8333,18.1667 31.8333,16.8333 30.5,15.5C 31.1667,15.5 31.5,15.1667 31.5,14.5C 32.8366,13.6851 33.8366,12.5185 34.5,11C 36.0581,10.79 37.3915,10.29 38.5,9.5C 39.1667,9.5 39.8333,9.5 40.5,9.5C 46.0594,8.27772 51.3927,8.27772 56.5,9.5 Z"/></g>
<g><path style="opacity:1" fill="#5d5d58" d="M 46.5,12.5 C 44.3326,13.2685 42.166,14.2685 40,15.5C 39.3828,14.5509 39.5494,13.7175 40.5,13C 42.4727,12.5045 44.4727,12.3379 46.5,12.5 Z"/></g>
<g><path style="opacity:1" fill="#6e6f6a" d="M 46.5,12.5 C 49.1777,11.0905 51.8443,11.2572 54.5,13C 51.9184,12.7446 49.2518,12.578 46.5,12.5 Z"/></g>
<g><path style="opacity:1" fill="#eedbcb" d="M 101.5,11.5 C 102.649,11.7911 103.316,12.6244 103.5,14C 103.167,14.8333 102.833,15.6667 102.5,16.5C 101.548,14.9547 101.215,13.288 101.5,11.5 Z"/></g>
<g><path style="opacity:1" fill="#345436" d="M 56.5,9.5 C 57.1635,11.0419 57.8302,12.7086 58.5,14.5C 62.1567,16.4798 63.6567,19.4798 63,23.5C 62.6667,23.1667 62.3333,22.8333 62,22.5C 61.6155,24.1966 61.7822,25.8632 62.5,27.5C 61.6618,27.8417 61.3284,28.5084 61.5,29.5C 60.5269,27.0521 60.1936,24.3854 60.5,21.5C 61.4911,17.8136 59.8244,16.1469 55.5,16.5C 56.2186,14.2362 56.552,11.9029 56.5,9.5 Z"/></g>
<g><path style="opacity:1" fill="#484742" d="M 30.5,15.5 C 31.8333,16.8333 31.8333,18.1667 30.5,19.5C 29.8333,19.5 29.5,19.1667 29.5,18.5C 29.2627,17.209 29.596,16.209 30.5,15.5 Z"/></g>
<g><path style="opacity:1" fill="#858580" d="M 29.5,32.5 C 28.5233,29.7131 28.19,26.7131 28.5,23.5C 29.6935,22.7281 30.6935,21.7281 31.5,20.5C 32.1174,20.6107 32.6174,20.944 33,21.5C 34.0458,19.9095 35.2125,18.4095 36.5,17C 37.1667,16.3333 37.8333,16.3333 38.5,17C 35.6365,20.5245 32.8032,24.0245 30,27.5C 29.5065,29.1341 29.3398,30.8008 29.5,32.5 Z"/></g>
<g><path style="opacity:1" fill="#b8a926" d="M 55.5,16.5 C 59.8244,16.1469 61.4911,17.8136 60.5,21.5C 58.7354,20.5386 56.7354,20.2053 54.5,20.5C 54.5,19.8333 54.5,19.1667 54.5,18.5C 54.3284,17.5084 54.6618,16.8417 55.5,16.5 Z"/></g>
<g><path style="opacity:1" fill="#dcc8b6" d="M 54.5,20.5 C 56.7354,20.2053 58.7354,20.5386 60.5,21.5C 60.1936,24.3854 60.5269,27.0521 61.5,29.5C 62.9313,30.7804 63.5979,32.4471 63.5,34.5C 60.5515,35.0126 57.7181,35.0126 55,34.5C 55.5347,38.4183 57.7013,39.4183 61.5,37.5C 61.5,37.8333 61.5,38.1667 61.5,38.5C 59.7408,39.8714 57.7408,40.8714 55.5,41.5C 53.5441,40.4519 51.5441,39.9519 49.5,40C 50.6651,41.0836 51.9984,41.9169 53.5,42.5C 54.2978,44.0777 54.7978,45.7444 55,47.5C 55.4828,46.552 55.6495,45.552 55.5,44.5C 57.6854,44.7036 59.6854,45.3702 61.5,46.5C 61.5,48.1667 61.5,49.8333 61.5,51.5C 58.9407,51.1984 56.6074,51.5318 54.5,52.5C 54.1667,52.5 53.8333,52.5 53.5,52.5C 52.3076,50.1217 50.641,48.1217 48.5,46.5C 46.3389,43.5113 44.6723,40.178 43.5,36.5C 44.3382,36.1583 44.6716,35.4916 44.5,34.5C 44.61,32.6459 44.9434,30.6459 45.5,28.5C 46.688,30.9885 48.0213,33.3218 49.5,35.5C 49.6606,29.9207 51.3273,24.9207 54.5,20.5 Z"/></g>
<g><path style="opacity:1" fill="#9b7a1b" d="M 54.5,18.5 C 54.5,19.1667 54.5,19.8333 54.5,20.5C 51.3273,24.9207 49.6606,29.9207 49.5,35.5C 48.0213,33.3218 46.688,30.9885 45.5,28.5C 44.9434,30.6459 44.61,32.6459 44.5,34.5C 42.8297,34.2488 41.3297,33.5822 40,32.5C 39.5034,30.1902 39.3367,27.8568 39.5,25.5C 42.2589,25.0667 43.5922,23.4 43.5,20.5C 47.4872,20.9903 51.1538,20.3236 54.5,18.5 Z"/></g>
<g><path style="opacity:1" fill="#d7342d" d="M 6.5,22.5 C 9.22545,23.713 11.5588,25.5464 13.5,28C 11.6499,30.0176 9.64991,31.8509 7.5,33.5C 5.67589,31.5107 3.67589,29.6774 1.5,28C 4.07904,26.9243 5.74571,25.091 6.5,22.5 Z"/></g>
<g><path style="opacity:1" fill="#d6352e" d="M 96.5,29.5 C 96.1667,28.8333 95.8333,28.1667 95.5,27.5C 97.4807,25.8564 99.4807,24.1897 101.5,22.5C 103.024,24.8579 105.024,26.6912 107.5,28C 105.324,29.6774 103.324,31.5107 101.5,33.5C 99.8144,32.1431 98.1477,30.8098 96.5,29.5 Z"/></g>
<g><path style="opacity:1" fill="#44443f" d="M 56.5,24.5 C 59.5983,24.4125 59.9316,24.9125 57.5,26C 58.7836,27.2975 58.6169,28.4642 57,29.5C 56.6667,28.8333 56.3333,28.1667 56,27.5C 55.2825,28.4506 54.4491,28.6172 53.5,28C 54.7101,26.9609 55.7101,25.7942 56.5,24.5 Z"/></g>
<g><path style="opacity:1" fill="#a2a299" d="M 39.5,25.5 C 39.3367,27.8568 39.5034,30.1902 40,32.5C 41.3297,33.5822 42.8297,34.2488 44.5,34.5C 44.6716,35.4916 44.3382,36.1583 43.5,36.5C 42.4324,35.5655 41.099,35.2322 39.5,35.5C 37.5853,35.2155 35.9187,35.5489 34.5,36.5C 34.1583,37.3382 33.4916,37.6716 32.5,37.5C 32.6107,36.8826 32.944,36.3826 33.5,36C 31.4556,35.5017 30.1223,34.335 29.5,32.5C 30.8583,33.6256 32.1916,33.6256 33.5,32.5C 36.1136,30.567 38.1136,28.2336 39.5,25.5 Z"/></g>
<g><path style="opacity:1" fill="#7ca2b5" d="M 95.5,27.5 C 95.8333,28.1667 96.1667,28.8333 96.5,29.5C 95.3611,32.918 94.0277,36.2513 92.5,39.5C 91.5,39.5 90.5,39.5 89.5,39.5C 89.5,38.5 89.5,37.5 89.5,36.5C 84.7452,36.1563 83.4119,38.1563 85.5,42.5C 83.7725,45.2873 82.6058,48.2873 82,51.5C 75.0243,38.8718 76.3576,27.2052 86,16.5C 86.7599,20.2255 86.5932,23.8922 85.5,27.5C 86.1449,28.646 86.9783,29.646 88,30.5C 90.3333,26.5 92.6667,22.5 95,18.5C 95.498,21.4816 95.6646,24.4816 95.5,27.5 Z"/></g>
<g><path style="opacity:1" fill="#fafbfa" d="M 39.5,35.5 C 41.099,35.2322 42.4324,35.5655 43.5,36.5C 44.6723,40.178 46.3389,43.5113 48.5,46.5C 48.5106,48.0174 49.1772,49.1841 50.5,50C 49.2625,50.2321 48.2625,50.7321 47.5,51.5C 45.1667,51.5 42.8333,51.5 40.5,51.5C 38.6664,46.1958 38.3331,40.8625 39.5,35.5 Z"/></g>
<g><path style="opacity:1" fill="#917c23" d="M 63.5,34.5 C 63.7148,36.1788 63.0481,37.1788 61.5,37.5C 57.7013,39.4183 55.5347,38.4183 55,34.5C 57.7181,35.0126 60.5515,35.0126 63.5,34.5 Z"/></g>
<g><path style="opacity:1" fill="#dfca22" d="M 34.5,36.5 C 35.5,36.5 36.5,36.5 37.5,36.5C 37.471,42.2102 37.971,47.8769 39,53.5C 39.941,55.7274 41.1077,57.7274 42.5,59.5C 42.3284,60.4916 42.6618,61.1583 43.5,61.5C 44.3257,64.4848 45.659,67.1515 47.5,69.5C 49.1708,73.1495 50.5041,76.8161 51.5,80.5C 51.5,80.8333 51.5,81.1667 51.5,81.5C 51.4242,84.9728 50.7576,88.3061 49.5,91.5C 48.5111,96.9753 48.1778,102.642 48.5,108.5C 47.4625,109.93 46.7959,111.597 46.5,113.5C 46.5,116.833 46.5,120.167 46.5,123.5C 47.0138,125.512 47.1805,127.512 47,129.5C 44.725,127.051 41.8917,125.717 38.5,125.5C 38.6349,119.819 38.9682,114.152 39.5,108.5C 40.627,104.317 41.627,99.9834 42.5,95.5C 42.5,94.8333 42.5,94.1667 42.5,93.5C 44.1744,90.4456 44.6744,87.1123 44,83.5C 41.1885,78.192 38.6885,72.8586 36.5,67.5C 36.2671,64.4582 35.2671,61.7916 33.5,59.5C 33.5,59.1667 33.5,58.8333 33.5,58.5C 32.4925,55.1563 31.4925,51.8229 30.5,48.5C 31.2911,45.5832 31.2911,42.7499 30.5,40C 31.3805,39.2917 32.0472,38.4584 32.5,37.5C 33.4916,37.6716 34.1583,37.3382 34.5,36.5 Z"/></g>
<g><path style="opacity:1" fill="#c7b830" d="M 89.5,39.5 C 90.5,39.5 91.5,39.5 92.5,39.5C 93.0906,40.1515 93.7573,40.8182 94.5,41.5C 94.0431,42.2975 93.3764,42.6309 92.5,42.5C 91.1667,42.5 89.8333,42.5 88.5,42.5C 87.1854,41.1054 87.5188,40.1054 89.5,39.5 Z"/></g>
<g><path style="opacity:1" fill="#887324" d="M 61.5,38.5 C 64.9922,39.4097 67.9922,41.0764 70.5,43.5C 70.8128,47.0419 70.4794,50.3752 69.5,53.5C 69.0864,50.4202 69.0864,47.2535 69.5,44C 66.7894,42.8929 64.2894,41.3929 62,39.5C 61.8195,41.4884 61.9862,43.4884 62.5,45.5C 61.8333,45.5 61.5,45.8333 61.5,46.5C 59.6854,45.3702 57.6854,44.7036 55.5,44.5C 55.6495,45.552 55.4828,46.552 55,47.5C 54.7978,45.7444 54.2978,44.0777 53.5,42.5C 51.9984,41.9169 50.6651,41.0836 49.5,40C 51.5441,39.9519 53.5441,40.4519 55.5,41.5C 57.7408,40.8714 59.7408,39.8714 61.5,38.5 Z"/></g>
<g><path style="opacity:1" fill="#92831b" d="M 32.5,37.5 C 32.0472,38.4584 31.3805,39.2917 30.5,40C 31.2911,42.7499 31.2911,45.5832 30.5,48.5C 29.6618,48.1583 29.3284,47.4916 29.5,46.5C 29.5,44.1667 29.5,41.8333 29.5,39.5C 29.9731,38.0937 30.9731,37.427 32.5,37.5 Z"/></g>
<g><path style="opacity:1" fill="#3883a7" d="M 88.5,42.5 C 89.8333,42.5 91.1667,42.5 92.5,42.5C 91.6557,46.2106 90.6557,49.8772 89.5,53.5C 88.434,55.8522 87.2673,58.1856 86,60.5C 86.451,56.8877 86.951,53.221 87.5,49.5C 87.448,47.0971 87.7814,44.7638 88.5,42.5 Z"/></g>
<g><path style="opacity:1" fill="#561f14" d="M 28.5,39.5 C 28.8333,39.5 29.1667,39.5 29.5,39.5C 29.5,41.8333 29.5,44.1667 29.5,46.5C 28.7784,46.0825 28.2784,45.4158 28,44.5C 25.4158,46.6743 23.5824,49.341 22.5,52.5C 22.1667,52.5 21.8333,52.5 21.5,52.5C 23.4312,47.9147 25.7645,43.5814 28.5,39.5 Z"/></g>
<g><path style="opacity:1" fill="#2d6b2a" d="M 29.5,46.5 C 29.3284,47.4916 29.6618,48.1583 30.5,48.5C 31.4925,51.8229 32.4925,55.1563 33.5,58.5C 32.8333,58.1667 32.1667,57.8333 31.5,57.5C 30.015,54.9173 27.6817,53.584 24.5,53.5C 24.1583,52.6618 23.4916,52.3284 22.5,52.5C 23.5824,49.341 25.4158,46.6743 28,44.5C 28.2784,45.4158 28.7784,46.0825 29.5,46.5 Z"/></g>
<g><path style="opacity:1" fill="#3f3b34" d="M 34.5,36.5 C 35.9187,35.5489 37.5853,35.2155 39.5,35.5C 38.3331,40.8625 38.6664,46.1958 40.5,51.5C 42.8333,51.5 45.1667,51.5 47.5,51.5C 45.3021,52.1653 42.9688,52.8319 40.5,53.5C 41.2427,54.1818 41.9094,54.8485 42.5,55.5C 42.0742,56.5279 42.0742,57.8612 42.5,59.5C 41.1077,57.7274 39.941,55.7274 39,53.5C 37.971,47.8769 37.471,42.2102 37.5,36.5C 36.5,36.5 35.5,36.5 34.5,36.5 Z"/></g>
<g><path style="opacity:1" fill="#2a4d26" d="M 70.5,43.5 C 71.4013,44.2905 72.0679,45.2905 72.5,46.5C 74.2516,48.2459 75.5849,50.2459 76.5,52.5C 74.6203,52.2291 73.287,52.8958 72.5,54.5C 70.8958,55.287 70.2291,56.6203 70.5,58.5C 70.6716,59.4916 70.3382,60.1583 69.5,60.5C 69.5,58.1667 69.5,55.8333 69.5,53.5C 70.4794,50.3752 70.8128,47.0419 70.5,43.5 Z"/></g>
<g><path style="opacity:1" fill="#595954" d="M 48.5,46.5 C 50.641,48.1217 52.3076,50.1217 53.5,52.5C 53.44,53.0431 53.1067,53.3764 52.5,53.5C 51.1502,52.0499 49.4835,51.3832 47.5,51.5C 48.2625,50.7321 49.2625,50.2321 50.5,50C 49.1772,49.1841 48.5106,48.0174 48.5,46.5 Z"/></g>
<g><path style="opacity:1" fill="#212022" d="M 62.5,45.5 C 62.8384,49.2957 62.5051,52.2957 61.5,54.5C 59.7211,52.6565 57.3878,51.9898 54.5,52.5C 56.6074,51.5318 58.9407,51.1984 61.5,51.5C 61.5,49.8333 61.5,48.1667 61.5,46.5C 61.5,45.8333 61.8333,45.5 62.5,45.5 Z"/></g>
<g><path style="opacity:1" fill="#1a81ab" d="M 47.5,51.5 C 49.4835,51.3832 51.1502,52.0499 52.5,53.5C 53.1067,53.3764 53.44,53.0431 53.5,52.5C 53.8333,52.5 54.1667,52.5 54.5,52.5C 57.3878,51.9898 59.7211,52.6565 61.5,54.5C 55.2564,55.4578 48.923,55.7912 42.5,55.5C 41.9094,54.8485 41.2427,54.1818 40.5,53.5C 42.9688,52.8319 45.3021,52.1653 47.5,51.5 Z"/></g>
<g><path style="opacity:1" fill="#d2c10d" d="M 76.5,52.5 C 76.5,53.1667 76.5,53.8333 76.5,54.5C 75.8333,55.1667 75.1667,55.8333 74.5,56.5C 74.5,55.1667 73.8333,54.5 72.5,54.5C 73.287,52.8958 74.6203,52.2291 76.5,52.5 Z"/></g>
<g><path style="opacity:1" fill="#842c1b" d="M 72.5,46.5 C 76.3681,48.0293 79.7015,50.3626 82.5,53.5C 82.3404,55.153 81.6737,56.4863 80.5,57.5C 78.368,57.4456 77.0347,56.4456 76.5,54.5C 76.5,53.8333 76.5,53.1667 76.5,52.5C 75.5849,50.2459 74.2516,48.2459 72.5,46.5 Z"/></g>
<g><path style="opacity:1" fill="#d52323" d="M 72.5,54.5 C 73.8333,54.5 74.5,55.1667 74.5,56.5C 73.1667,56.5 72.5,55.8333 72.5,54.5 Z"/></g>
<g><path style="opacity:1" fill="#c5b312" d="M 20.5,52.5 C 20.8333,52.5 21.1667,52.5 21.5,52.5C 21.8333,52.5 22.1667,52.5 22.5,52.5C 23.4916,52.3284 24.1583,52.6618 24.5,53.5C 27.6817,53.584 30.015,54.9173 31.5,57.5C 31.0618,57.4346 30.7284,57.6012 30.5,58C 31.2438,59.0386 32.2438,59.5386 33.5,59.5C 33.6716,60.4916 33.3382,61.1583 32.5,61.5C 30.5,60.5 28.5,59.5 26.5,58.5C 26.1667,58.5 25.8333,58.5 25.5,58.5C 24.3285,57.6554 22.9952,56.9887 21.5,56.5C 21.1667,56.5 20.8333,56.5 20.5,56.5C 20.0825,55.7784 19.4158,55.2784 18.5,55C 19.3805,54.2917 20.0472,53.4584 20.5,52.5 Z"/></g>
<g><path style="opacity:1" fill="#d73624" d="M 26.5,55.5 C 28.337,55.6395 28.6704,56.3061 27.5,57.5C 26.7025,57.0431 26.3691,56.3764 26.5,55.5 Z"/></g>
<g><path style="opacity:1" fill="#d94920" d="M 24.5,53.5 C 24.0517,55.4646 23.0517,55.7979 21.5,54.5C 22.325,53.6143 23.325,53.281 24.5,53.5 Z"/></g>
<g><path style="opacity:1" fill="#cf2f2c" d="M 21.5,56.5 C 22.9952,56.9887 24.3285,57.6554 25.5,58.5C 20.7363,65.5957 19.403,64.9291 21.5,56.5 Z"/></g>
<g><path style="opacity:1" fill="#c62f1d" d="M 31.5,57.5 C 32.1667,57.8333 32.8333,58.1667 33.5,58.5C 33.5,58.8333 33.5,59.1667 33.5,59.5C 32.2438,59.5386 31.2438,59.0386 30.5,58C 30.7284,57.6012 31.0618,57.4346 31.5,57.5 Z"/></g>
<g><path style="opacity:1" fill="#d7c90a" d="M 72.5,54.5 C 72.5,55.8333 73.1667,56.5 74.5,56.5C 74.5,56.8333 74.5,57.1667 74.5,57.5C 73.6618,57.8417 73.3284,58.5084 73.5,59.5C 72.391,59.4431 71.391,59.1098 70.5,58.5C 70.2291,56.6203 70.8958,55.287 72.5,54.5 Z"/></g>
<g><path style="opacity:1" fill="#c72b23" d="M 74.5,57.5 C 76.5,58.976 78.1666,60.8094 79.5,63C 77.2433,62.5629 74.91,62.0629 72.5,61.5C 72.8333,60.8333 73.1667,60.1667 73.5,59.5C 73.3284,58.5084 73.6618,57.8417 74.5,57.5 Z"/></g>
<g><path style="opacity:1" fill="#686221" d="M 42.5,59.5 C 43.5,59.5 44.5,59.5 45.5,59.5C 46.8333,59.5 48.1667,59.5 49.5,59.5C 50.5,59.5 51.5,59.5 52.5,59.5C 53.5,59.5 54.5,59.5 55.5,59.5C 56.8333,59.5 58.1667,59.5 59.5,59.5C 59.5,59.8333 59.5,60.1667 59.5,60.5C 59.1667,60.5 58.8333,60.5 58.5,60.5C 57.5,60.5 56.5,60.5 55.5,60.5C 54.5,60.5 53.5,60.5 52.5,60.5C 51.209,60.2627 50.209,60.596 49.5,61.5C 49.6309,62.3764 49.2975,63.0431 48.5,63.5C 47.2888,62.7261 47.2888,61.8928 48.5,61C 46.6131,60.2204 44.9464,60.3871 43.5,61.5C 42.6618,61.1583 42.3284,60.4916 42.5,59.5 Z"/></g>
<g><path style="opacity:1" fill="#3b758e" d="M 49.5,61.5 C 50.8032,64.3553 50.8032,67.3553 49.5,70.5C 48.8165,70.1373 48.1499,69.8039 47.5,69.5C 45.659,67.1515 44.3257,64.4848 43.5,61.5C 44.9464,60.3871 46.6131,60.2204 48.5,61C 47.2888,61.8928 47.2888,62.7261 48.5,63.5C 49.2975,63.0431 49.6309,62.3764 49.5,61.5 Z"/></g>
<g><path style="opacity:1" fill="#bbd032" d="M 58.5,60.5 C 58.8333,60.5 59.1667,60.5 59.5,60.5C 59.8693,62.9935 59.2027,63.6602 57.5,62.5C 57.8333,61.8333 58.1667,61.1667 58.5,60.5 Z"/></g>
<g><path style="opacity:1" fill="#752217" d="M 20.5,52.5 C 20.0472,53.4584 19.3805,54.2917 18.5,55C 19.4158,55.2784 20.0825,55.7784 20.5,56.5C 18.6519,58.5164 16.9852,60.683 15.5,63C 15.6448,63.772 15.9781,64.4387 16.5,65C 13.9832,67.0896 13.9832,68.9229 16.5,70.5C 16.5,70.8333 16.5,71.1667 16.5,71.5C 15.6942,72.9972 15.0276,74.6639 14.5,76.5C 15.3928,79.0841 15.7261,81.7508 15.5,84.5C 14.297,79.5586 13.1303,74.5586 12,69.5C 10.5178,74.0747 9.35111,78.7414 8.5,83.5C 8.53932,73.1954 11.3726,63.5288 17,54.5C 17.8159,53.1772 18.9826,52.5106 20.5,52.5 Z"/></g>
<g><path style="opacity:1" fill="#d12f2b" d="M 26.5,58.5 C 28.5,59.5 30.5,60.5 32.5,61.5C 33.0906,62.1515 33.7573,62.8182 34.5,63.5C 33.0476,64.9397 32.0476,66.6064 31.5,68.5C 30.6365,69.463 29.9698,69.463 29.5,68.5C 30.5443,66.2324 30.711,63.8991 30,61.5C 29.2828,62.0442 28.7828,62.7109 28.5,63.5C 27.5416,63.9528 26.7083,64.6195 26,65.5C 25.9822,63.2028 26.1489,60.8695 26.5,58.5 Z"/></g>
<g><path style="opacity:1" fill="#b46b61" d="M 76.5,54.5 C 77.0347,56.4456 78.368,57.4456 80.5,57.5C 81.6593,65.5383 79.9926,72.8716 75.5,79.5C 74.8333,79.5 74.1667,79.5 73.5,79.5C 72.7611,79.631 72.0944,79.4643 71.5,79C 70.0229,77.1879 68.6896,75.3545 67.5,73.5C 67.3284,72.5084 67.6618,71.8417 68.5,71.5C 70.4802,72.7157 72.4802,73.5491 74.5,74C 71.9756,72.117 70.6423,69.617 70.5,66.5C 72.4944,67.3497 74.4944,67.8497 76.5,68C 75.035,66.2258 73.7017,64.3925 72.5,62.5C 72.5,62.1667 72.5,61.8333 72.5,61.5C 74.91,62.0629 77.2433,62.5629 79.5,63C 78.1666,60.8094 76.5,58.976 74.5,57.5C 74.5,57.1667 74.5,56.8333 74.5,56.5C 75.1667,55.8333 75.8333,55.1667 76.5,54.5 Z"/></g>
<g><path style="opacity:1" fill="#ce2524" d="M 72.5,62.5 C 73.7017,64.3925 75.035,66.2258 76.5,68C 74.4944,67.8497 72.4944,67.3497 70.5,66.5C 70.2291,64.6203 70.8958,63.287 72.5,62.5 Z"/></g>
<g><path style="opacity:1" fill="#7b4940" d="M 28.5,63.5 C 29.1285,67.7769 27.7951,71.6102 24.5,75C 25.4158,75.2784 26.0825,75.7784 26.5,76.5C 24.4471,76.5979 22.7804,75.9313 21.5,74.5C 23.2014,73.7886 24.2014,72.4553 24.5,70.5C 26.0828,68.3374 27.4161,66.0041 28.5,63.5 Z"/></g>
<g><path style="opacity:1" fill="#804f40" d="M 33.5,59.5 C 35.2671,61.7916 36.2671,64.4582 36.5,67.5C 36.1667,67.5 35.8333,67.5 35.5,67.5C 35.631,66.7611 35.4643,66.0944 35,65.5C 34.1083,68.9518 32.4416,71.9518 30,74.5C 30.1503,72.4944 30.6503,70.4944 31.5,68.5C 32.0476,66.6064 33.0476,64.9397 34.5,63.5C 33.7573,62.8182 33.0906,62.1515 32.5,61.5C 33.3382,61.1583 33.6716,60.4916 33.5,59.5 Z"/></g>
<g><path style="opacity:1" fill="#d2dc26" d="M 47.5,65.5 C 49.337,65.6395 49.6704,66.3061 48.5,67.5C 47.7025,67.0431 47.3691,66.3764 47.5,65.5 Z"/></g>
<g><path style="opacity:1" fill="#614616" d="M 70.5,58.5 C 71.391,59.1098 72.391,59.4431 73.5,59.5C 73.1667,60.1667 72.8333,60.8333 72.5,61.5C 72.5,61.8333 72.5,62.1667 72.5,62.5C 70.8958,63.287 70.2291,64.6203 70.5,66.5C 69.0687,67.7804 68.4021,69.4471 68.5,71.5C 67.6618,71.8417 67.3284,72.5084 67.5,73.5C 67.1667,73.5 66.8333,73.5 66.5,73.5C 67.2483,71.4159 67.2483,69.4159 66.5,67.5C 67.6615,65.1148 68.6615,62.7814 69.5,60.5C 70.3382,60.1583 70.6716,59.4916 70.5,58.5 Z"/></g>
<g><path style="opacity:1" fill="#be766b" d="M 20.5,56.5 C 20.8333,56.5 21.1667,56.5 21.5,56.5C 19.403,64.9291 20.7363,65.5957 25.5,58.5C 25.8333,58.5 26.1667,58.5 26.5,58.5C 26.1489,60.8695 25.9822,63.2028 26,65.5C 26.7083,64.6195 27.5416,63.9528 28.5,63.5C 27.4161,66.0041 26.0828,68.3374 24.5,70.5C 24.631,69.7611 24.4643,69.0944 24,68.5C 22.6288,70.0414 21.1288,71.3747 19.5,72.5C 19.578,69.7482 19.7446,67.0816 20,64.5C 18.5576,66.3911 17.3909,68.3911 16.5,70.5C 13.9832,68.9229 13.9832,67.0896 16.5,65C 15.9781,64.4387 15.6448,63.772 15.5,63C 16.9852,60.683 18.6519,58.5164 20.5,56.5 Z"/></g>
<g><path style="opacity:1" fill="#406e7c" d="M 61.5,60.5 C 60.8624,62.5732 59.8624,64.5732 58.5,66.5C 58.6236,67.1067 58.9569,67.44 59.5,67.5C 59.6646,70.5184 59.498,73.5184 59,76.5C 58.6667,76.1667 58.3333,75.8333 58,75.5C 57.501,71.1794 57.3343,66.8461 57.5,62.5C 59.2027,63.6602 59.8693,62.9935 59.5,60.5C 59.5,60.1667 59.5,59.8333 59.5,59.5C 60.2679,58.7375 60.7679,57.7375 61,56.5C 61.49,57.7932 61.6567,59.1266 61.5,60.5 Z"/></g>
<g><path style="opacity:1" fill="#457d9a" d="M 89.5,82.5 C 89.5,83.1667 89.5,83.8333 89.5,84.5C 87.0054,84.0312 84.3387,84.0312 81.5,84.5C 82.1495,82.5648 82.4828,80.5648 82.5,78.5C 82.7908,73.0884 83.6241,67.7551 85,62.5C 86.6734,69.1216 86.8401,75.7883 85.5,82.5C 86.8333,82.5 88.1667,82.5 89.5,82.5 Z"/></g>
<g><path style="opacity:1" fill="#d33630" d="M 19.5,72.5 C 18.609,71.8902 17.609,71.5569 16.5,71.5C 16.5,71.1667 16.5,70.8333 16.5,70.5C 17.3909,68.3911 18.5576,66.3911 20,64.5C 19.7446,67.0816 19.578,69.7482 19.5,72.5 Z"/></g>
<g><path style="opacity:1" fill="#9d8f1b" d="M 61.5,60.5 C 61.3802,64.0418 61.7135,67.5418 62.5,71C 62.3158,72.3756 61.6491,73.2089 60.5,73.5C 60.7947,71.2646 60.4614,69.2646 59.5,67.5C 58.9569,67.44 58.6236,67.1067 58.5,66.5C 59.8624,64.5732 60.8624,62.5732 61.5,60.5 Z"/></g>
<g><path style="opacity:1" fill="#d52a28" d="M 70.5,66.5 C 70.6423,69.617 71.9756,72.117 74.5,74C 72.4802,73.5491 70.4802,72.7157 68.5,71.5C 68.4021,69.4471 69.0687,67.7804 70.5,66.5 Z"/></g>
<g><path style="opacity:1" fill="#bba925" d="M 87.5,49.5 C 86.951,53.221 86.451,56.8877 86,60.5C 87.2673,58.1856 88.434,55.8522 89.5,53.5C 91.918,51.9848 93.5846,52.6514 94.5,55.5C 94.7859,59.3873 94.4526,63.3873 93.5,67.5C 91.7708,68.1175 90.2708,69.1175 89,70.5C 88.2375,74.5874 88.4042,78.5874 89.5,82.5C 88.1667,82.5 86.8333,82.5 85.5,82.5C 86.8401,75.7883 86.6734,69.1216 85,62.5C 83.6241,67.7551 82.7908,73.0884 82.5,78.5C 81.596,79.209 81.2627,80.209 81.5,81.5C 79.2143,81.405 77.2143,80.7384 75.5,79.5C 79.9926,72.8716 81.6593,65.5383 80.5,57.5C 81.6737,56.4863 82.3404,55.153 82.5,53.5C 84.1667,52.1667 85.8333,50.8333 87.5,49.5 Z"/></g>
<g><path style="opacity:1" fill="#9b221c" d="M 28.5,39.5 C 25.7645,43.5814 23.4312,47.9147 21.5,52.5C 21.1667,52.5 20.8333,52.5 20.5,52.5C 18.9826,52.5106 17.8159,53.1772 17,54.5C 11.3726,63.5288 8.53932,73.1954 8.5,83.5C 9.35111,78.7414 10.5178,74.0747 12,69.5C 13.1303,74.5586 14.297,79.5586 15.5,84.5C 16.8333,84.5 18.1667,84.5 19.5,84.5C 19.2627,85.791 19.596,86.791 20.5,87.5C 20.6653,91.1817 20.4986,94.8484 20,98.5C 18.7292,99.8825 17.2292,100.883 15.5,101.5C 11.424,97.6981 8.59063,93.0315 7,87.5C 6.66667,102.833 6.33333,118.167 6,133.5C 5.33333,100.833 5.33333,68.1667 6,35.5C 6.33333,43.8333 6.66667,52.1667 7,60.5C 8.71312,56.1266 11.2131,52.2933 14.5,49C 19.0477,45.6121 23.7144,42.4454 28.5,39.5 Z"/></g>
<g><path style="opacity:1" fill="#cd2e2a" d="M 24.5,70.5 C 24.2014,72.4553 23.2014,73.7886 21.5,74.5C 20.8333,73.8333 20.1667,73.1667 19.5,72.5C 21.1288,71.3747 22.6288,70.0414 24,68.5C 24.4643,69.0944 24.631,69.7611 24.5,70.5 Z"/></g>
<g><path style="opacity:1" fill="#c42825" d="M 35.5,67.5 C 35.8333,67.5 36.1667,67.5 36.5,67.5C 36.539,70.089 35.539,72.089 33.5,73.5C 34.1667,71.5 34.8333,69.5 35.5,67.5 Z"/></g>
<g><path style="opacity:1" fill="#2a6028" d="M 36.5,67.5 C 38.6885,72.8586 41.1885,78.192 44,83.5C 44.6744,87.1123 44.1744,90.4456 42.5,93.5C 40.6562,90.3128 37.9895,88.3128 34.5,87.5C 33.8106,86.2264 32.9772,86.2264 32,87.5C 31.8091,85.2922 31.3091,83.2922 30.5,81.5C 30.719,80.325 30.3857,79.325 29.5,78.5C 28.2613,78.0576 27.2613,77.3909 26.5,76.5C 30.1678,78.4979 32.5011,77.4979 33.5,73.5C 35.539,72.089 36.539,70.089 36.5,67.5 Z"/></g>
<g><path style="opacity:1" fill="#4f616c" d="M 52.5,60.5 C 53.5,60.5 54.5,60.5 55.5,60.5C 55.2498,65.4864 55.5831,70.8197 56.5,76.5C 54.6017,75.2655 52.935,75.5989 51.5,77.5C 51.6311,71.8976 51.9645,66.231 52.5,60.5 Z"/></g>
<g><path style="opacity:1" fill="#30782d" d="M 16.5,71.5 C 17.609,71.5569 18.609,71.8902 19.5,72.5C 20.1667,73.1667 20.8333,73.8333 21.5,74.5C 22.7804,75.9313 24.4471,76.5979 26.5,76.5C 27.2613,77.3909 28.2613,78.0576 29.5,78.5C 30.3857,79.325 30.719,80.325 30.5,81.5C 30.5086,83.3084 30.0086,84.9751 29,86.5C 26.1757,83.9974 23.3423,83.9974 20.5,86.5C 20.5,86.8333 20.5,87.1667 20.5,87.5C 19.596,86.791 19.2627,85.791 19.5,84.5C 18.1667,84.5 16.8333,84.5 15.5,84.5C 15.7261,81.7508 15.3928,79.0841 14.5,76.5C 15.0276,74.6639 15.6942,72.9972 16.5,71.5 Z"/></g>
<g><path style="opacity:1" fill="#d87467" d="M 31.5,68.5 C 30.6503,70.4944 30.1503,72.4944 30,74.5C 32.4416,71.9518 34.1083,68.9518 35,65.5C 35.4643,66.0944 35.631,66.7611 35.5,67.5C 34.8333,69.5 34.1667,71.5 33.5,73.5C 32.5011,77.4979 30.1678,78.4979 26.5,76.5C 26.0825,75.7784 25.4158,75.2784 24.5,75C 27.7951,71.6102 29.1285,67.7769 28.5,63.5C 28.7828,62.7109 29.2828,62.0442 30,61.5C 30.711,63.8991 30.5443,66.2324 29.5,68.5C 29.9698,69.463 30.6365,69.463 31.5,68.5 Z"/></g>
<g><path style="opacity:1" fill="#bd2a23" d="M 66.5,73.5 C 66.8333,73.5 67.1667,73.5 67.5,73.5C 68.6896,75.3545 70.0229,77.1879 71.5,79C 72.0944,79.4643 72.7611,79.631 73.5,79.5C 74.6602,81.2027 73.9935,81.8693 71.5,81.5C 69.4202,79.4268 67.7536,77.0934 66.5,74.5C 66.5,74.1667 66.5,73.8333 66.5,73.5 Z"/></g>
<g><path style="opacity:1" fill="#1b1b1a" d="M 49.5,61.5 C 50.209,60.596 51.209,60.2627 52.5,60.5C 51.9645,66.231 51.6311,71.8976 51.5,77.5C 51.5,78.5 51.5,79.5 51.5,80.5C 50.5041,76.8161 49.1708,73.1495 47.5,69.5C 48.1499,69.8039 48.8165,70.1373 49.5,70.5C 50.8032,67.3553 50.8032,64.3553 49.5,61.5 Z"/></g>
<g><path style="opacity:1" fill="#1d91be" d="M 56.5,76.5 C 56.1872,80.0419 56.5206,83.3752 57.5,86.5C 57.5,87.1667 57.5,87.8333 57.5,88.5C 57.5,89.8333 57.5,91.1667 57.5,92.5C 56.2921,93.2341 54.9587,93.5674 53.5,93.5C 52.8914,89.3953 52.2248,85.3953 51.5,81.5C 51.5,81.1667 51.5,80.8333 51.5,80.5C 51.5,79.5 51.5,78.5 51.5,77.5C 52.935,75.5989 54.6017,75.2655 56.5,76.5 Z"/></g>
<g><path style="opacity:1" fill="#1e252a" d="M 55.5,60.5 C 56.5,60.5 57.5,60.5 58.5,60.5C 58.1667,61.1667 57.8333,61.8333 57.5,62.5C 57.3343,66.8461 57.501,71.1794 58,75.5C 58.3333,75.8333 58.6667,76.1667 59,76.5C 59.498,73.5184 59.6646,70.5184 59.5,67.5C 60.4614,69.2646 60.7947,71.2646 60.5,73.5C 59.6992,77.8972 58.6992,82.2306 57.5,86.5C 56.5206,83.3752 56.1872,80.0419 56.5,76.5C 55.5831,70.8197 55.2498,65.4864 55.5,60.5 Z"/></g>
<g><path style="opacity:1" fill="#e3cd22" d="M 69.5,53.5 C 69.5,55.8333 69.5,58.1667 69.5,60.5C 68.6615,62.7814 67.6615,65.1148 66.5,67.5C 67.2483,69.4159 67.2483,71.4159 66.5,73.5C 66.5,73.8333 66.5,74.1667 66.5,74.5C 64.9334,77.9166 64.4334,81.5832 65,85.5C 67.8115,90.808 70.3115,96.1414 72.5,101.5C 73.1667,104.167 73.8333,106.833 74.5,109.5C 73.4265,110.251 73.2599,111.251 74,112.5C 75.3588,113.365 76.5255,114.365 77.5,115.5C 78.2186,117.764 78.552,120.097 78.5,122.5C 77.3947,124.713 77.3947,126.88 78.5,129C 77.646,130.022 76.646,130.855 75.5,131.5C 74.3777,130.37 73.0443,129.703 71.5,129.5C 71.9546,122.165 70.288,115.498 66.5,109.5C 66.6716,108.508 66.3382,107.842 65.5,107.5C 64.0234,103.213 62.0234,99.2134 59.5,95.5C 59.0733,92.9902 58.4067,90.6568 57.5,88.5C 57.5,87.8333 57.5,87.1667 57.5,86.5C 58.6992,82.2306 59.6992,77.8972 60.5,73.5C 61.6491,73.2089 62.3158,72.3756 62.5,71C 61.7135,67.5418 61.3802,64.0418 61.5,60.5C 61.6567,59.1266 61.49,57.7932 61,56.5C 60.7679,57.7375 60.2679,58.7375 59.5,59.5C 58.1667,59.5 56.8333,59.5 55.5,59.5C 55.5,58.5 55.5,57.5 55.5,56.5C 54.5,56.5 53.5,56.5 52.5,56.5C 52.5,57.5 52.5,58.5 52.5,59.5C 51.5,59.5 50.5,59.5 49.5,59.5C 49.5,58.5 49.5,57.5 49.5,56.5C 48.1667,56.5 46.8333,56.5 45.5,56.5C 45.5,57.5 45.5,58.5 45.5,59.5C 44.5,59.5 43.5,59.5 42.5,59.5C 42.0742,57.8612 42.0742,56.5279 42.5,55.5C 48.923,55.7912 55.2564,55.4578 61.5,54.5C 62.5051,52.2957 62.8384,49.2957 62.5,45.5C 61.9862,43.4884 61.8195,41.4884 62,39.5C 64.2894,41.3929 66.7894,42.8929 69.5,44C 69.0864,47.2535 69.0864,50.4202 69.5,53.5 Z"/></g>
<g><path style="opacity:1" fill="#db581d" d="M 49.5,59.5 C 48.1667,59.5 46.8333,59.5 45.5,59.5C 45.5,58.5 45.5,57.5 45.5,56.5C 46.8333,56.5 48.1667,56.5 49.5,56.5C 49.5,57.5 49.5,58.5 49.5,59.5 Z"/></g>
<g><path style="opacity:1" fill="#d73622" d="M 55.5,59.5 C 54.5,59.5 53.5,59.5 52.5,59.5C 52.5,58.5 52.5,57.5 52.5,56.5C 53.5,56.5 54.5,56.5 55.5,56.5C 55.5,57.5 55.5,58.5 55.5,59.5 Z"/></g>
<g><path style="opacity:1" fill="#2c6128" d="M 66.5,74.5 C 67.7536,77.0934 69.4202,79.4268 71.5,81.5C 73.3115,83.9834 75.1448,83.9834 77,81.5C 77.1909,83.7078 77.6909,85.7078 78.5,87.5C 78.281,88.675 78.6143,89.675 79.5,90.5C 80.7387,90.9424 81.7387,91.6091 82.5,92.5C 82.1667,92.5 81.8333,92.5 81.5,92.5C 80.1526,91.9717 78.8193,91.805 77.5,92C 74.7225,94.6034 73.0558,97.77 72.5,101.5C 70.3115,96.1414 67.8115,90.808 65,85.5C 64.4334,81.5832 64.9334,77.9166 66.5,74.5 Z"/></g>
<g><path style="opacity:1" fill="#5b5c59" d="M 82.5,78.5 C 82.4828,80.5648 82.1495,82.5648 81.5,84.5C 80.7784,84.0825 80.2784,83.4158 80,82.5C 78.9914,84.0249 78.4914,85.6916 78.5,87.5C 77.6909,85.7078 77.1909,83.7078 77,81.5C 75.1448,83.9834 73.3115,83.9834 71.5,81.5C 73.9935,81.8693 74.6602,81.2027 73.5,79.5C 74.1667,79.5 74.8333,79.5 75.5,79.5C 77.2143,80.7384 79.2143,81.405 81.5,81.5C 81.2627,80.209 81.596,79.209 82.5,78.5 Z"/></g>
<g><path style="opacity:1" fill="#2d782e" d="M 81.5,84.5 C 84.3387,84.0312 87.0054,84.0312 89.5,84.5C 90.8333,84.5 92.1667,84.5 93.5,84.5C 93.2739,87.2492 93.6072,89.9159 94.5,92.5C 93.9724,94.3361 93.3058,96.0028 92.5,97.5C 91.391,97.4431 90.391,97.1098 89.5,96.5C 88.8333,95.8333 88.1667,95.1667 87.5,94.5C 86.2196,93.0687 84.5529,92.4021 82.5,92.5C 81.7387,91.6091 80.7387,90.9424 79.5,90.5C 78.6143,89.675 78.281,88.675 78.5,87.5C 78.4914,85.6916 78.9914,84.0249 80,82.5C 80.2784,83.4158 80.7784,84.0825 81.5,84.5 Z"/></g>
<g><path style="opacity:1" fill="#4f778d" d="M 30.5,81.5 C 31.3091,83.2922 31.8091,85.2922 32,87.5C 32.9772,86.2264 33.8106,86.2264 34.5,87.5C 34.8333,88.1667 35.1667,88.8333 35.5,89.5C 34.8333,89.5 34.1667,89.5 33.5,89.5C 31.7857,88.2616 29.7857,87.595 27.5,87.5C 26.3353,93.8202 25.1686,100.154 24,106.5C 23.6857,104.131 22.8524,101.964 21.5,100C 22.6551,95.5696 23.3218,91.0696 23.5,86.5C 22.5,86.5 21.5,86.5 20.5,86.5C 23.3423,83.9974 26.1757,83.9974 29,86.5C 30.0086,84.9751 30.5086,83.3084 30.5,81.5 Z"/></g>
<g><path style="opacity:1" fill="#97211c" d="M 84.5,126.5 C 83.1526,127.028 81.8193,127.195 80.5,127C 84.025,124.099 86.6917,120.599 88.5,116.5C 88.9528,115.542 89.6195,114.708 90.5,114C 89.9056,113.536 89.2389,113.369 88.5,113.5C 89.4194,110.911 91.086,108.911 93.5,107.5C 93.5858,108.496 93.2524,109.329 92.5,110C 93.1667,110.667 93.8333,110.667 94.5,110C 98.6638,102.182 100.664,94.0157 100.5,85.5C 99.6489,90.2586 98.4822,94.9253 97,99.5C 95.9649,94.419 94.7983,89.419 93.5,84.5C 92.1667,84.5 90.8333,84.5 89.5,84.5C 89.5,83.8333 89.5,83.1667 89.5,82.5C 88.4042,78.5874 88.2375,74.5874 89,70.5C 90.2708,69.1175 91.7708,68.1175 93.5,67.5C 97.576,71.3019 100.409,75.9685 102,81.5C 102.333,66.1667 102.667,50.8333 103,35.5C 103.667,68.1667 103.667,100.833 103,133.5C 102.667,125.167 102.333,116.833 102,108.5C 100.503,112.165 98.503,115.498 96,118.5C 91.9927,121.022 88.1593,123.689 84.5,126.5 Z"/></g>
<g><path style="opacity:1" fill="#bd2922" d="M 34.5,87.5 C 37.9895,88.3128 40.6562,90.3128 42.5,93.5C 42.5,94.1667 42.5,94.8333 42.5,95.5C 40.5956,93.0552 38.2622,91.0552 35.5,89.5C 35.1667,88.8333 34.8333,88.1667 34.5,87.5 Z"/></g>
<g><path style="opacity:1" fill="#bdad28" d="M 20.5,86.5 C 21.5,86.5 22.5,86.5 23.5,86.5C 23.3218,91.0696 22.6551,95.5696 21.5,100C 22.8524,101.964 23.6857,104.131 24,106.5C 25.1686,100.154 26.3353,93.8202 27.5,87.5C 29.7857,87.595 31.7857,88.2616 33.5,89.5C 29.0074,96.1284 27.3407,103.462 28.5,111.5C 27.3263,112.514 26.6596,113.847 26.5,115.5C 24.8333,116.833 23.1667,118.167 21.5,119.5C 22.049,115.779 22.549,112.112 23,108.5C 21.7051,111.292 20.2051,113.958 18.5,116.5C 16.4099,116.55 15.0766,115.55 14.5,113.5C 14.2141,109.613 14.5474,105.613 15.5,101.5C 17.2292,100.883 18.7292,99.8825 20,98.5C 20.4986,94.8484 20.6653,91.1817 20.5,87.5C 20.5,87.1667 20.5,86.8333 20.5,86.5 Z"/></g>
<g><path style="opacity:1" fill="#0c0e0f" d="M 57.5,88.5 C 58.4067,90.6568 59.0733,92.9902 59.5,95.5C 58.5184,98.9619 58.185,102.629 58.5,106.5C 60.0311,107.925 59.6977,108.591 57.5,108.5C 57.0695,103.014 57.0695,97.6809 57.5,92.5C 57.5,91.1667 57.5,89.8333 57.5,88.5 Z"/></g>
<g><path style="opacity:1" fill="#171d21" d="M 51.5,81.5 C 52.2248,85.3953 52.8914,89.3953 53.5,93.5C 52.6462,98.2444 52.6462,103.244 53.5,108.5C 51.0065,108.869 50.3398,108.203 51.5,106.5C 51.6657,102.154 51.499,97.8206 51,93.5C 50.7216,92.5842 50.2216,91.9175 49.5,91.5C 50.7576,88.3061 51.4242,84.9728 51.5,81.5 Z"/></g>
<g><path style="opacity:1" fill="#d43832" d="M 89.5,96.5 C 90.391,97.1098 91.391,97.4431 92.5,97.5C 92.5,97.8333 92.5,98.1667 92.5,98.5C 91.6091,100.609 90.4424,102.609 89,104.5C 89.2554,101.918 89.422,99.2518 89.5,96.5 Z"/></g>
<g><path style="opacity:1" fill="#496c6f" d="M 49.5,91.5 C 50.2216,91.9175 50.7216,92.5842 51,93.5C 51.499,97.8206 51.6657,102.154 51.5,106.5C 50.2223,106.782 49.2223,107.449 48.5,108.5C 48.1778,102.642 48.5111,96.9753 49.5,91.5 Z"/></g>
<g><path style="opacity:1" fill="#743f37" d="M 86.5,106.5 C 85.528,107.751 84.8614,107.418 84.5,105.5C 84.8457,104.151 85.179,102.817 85.5,101.5C 86.4584,101.047 87.2917,100.381 88,99.5C 87.8429,101.831 87.3429,104.164 86.5,106.5 Z"/></g>
<g><path style="opacity:1" fill="#6c1f14" d="M 93.5,84.5 C 94.7983,89.419 95.9649,94.419 97,99.5C 98.4822,94.9253 99.6489,90.2586 100.5,85.5C 100.664,94.0157 98.6638,102.182 94.5,110C 93.8333,110.667 93.1667,110.667 92.5,110C 93.2524,109.329 93.5858,108.496 93.5,107.5C 93.7863,105.723 94.4529,104.056 95.5,102.5C 95.4387,100.347 94.4387,99.0138 92.5,98.5C 92.5,98.1667 92.5,97.8333 92.5,97.5C 93.3058,96.0028 93.9724,94.3361 94.5,92.5C 93.6072,89.9159 93.2739,87.2492 93.5,84.5 Z"/></g>
<g><path style="opacity:1" fill="#ad6a59" d="M 33.5,89.5 C 34.1667,89.5 34.8333,89.5 35.5,89.5C 38.2622,91.0552 40.5956,93.0552 42.5,95.5C 41.627,99.9834 40.627,104.317 39.5,108.5C 38.6618,108.842 38.3284,109.508 38.5,110.5C 37.5,109.167 36.5,109.167 35.5,110.5C 35.4142,109.504 35.7476,108.671 36.5,108C 34.1563,106.972 31.8229,106.306 29.5,106C 30.965,107.774 32.2983,109.608 33.5,111.5C 33.6716,112.492 33.3382,113.158 32.5,113.5C 31.4863,112.326 30.153,111.66 28.5,111.5C 27.3407,103.462 29.0074,96.1284 33.5,89.5 Z"/></g>
<g><path style="opacity:1" fill="#d42726" d="M 34.5,95.5 C 34.56,94.9569 34.8933,94.6236 35.5,94.5C 36.914,95.624 38.414,96.624 40,97.5C 40.6987,99.0738 40.3654,100.407 39,101.5C 38.2082,98.8936 36.7082,96.8936 34.5,95.5 Z"/></g>
<g><path style="opacity:1" fill="#cd2a27" d="M 31.5,100.5 C 31.56,99.9569 31.8933,99.6236 32.5,99.5C 34.0009,100.752 35.6675,101.752 37.5,102.5C 38.7445,103.955 38.5778,105.289 37,106.5C 35.383,104.237 33.5497,102.237 31.5,100.5 Z"/></g>
<g><path style="opacity:1" fill="#b1695d" d="M 81.5,92.5 C 79.7727,98.421 80.7727,98.921 84.5,94C 83.5842,93.7216 82.9175,93.2216 82.5,92.5C 84.5529,92.4021 86.2196,93.0687 87.5,94.5C 85.3575,98.211 83.0242,101.878 80.5,105.5C 79.8333,106.5 79.1667,107.5 78.5,108.5C 77.5084,108.672 76.8417,108.338 76.5,107.5C 75.8333,108.167 75.1667,108.833 74.5,109.5C 73.8333,106.833 73.1667,104.167 72.5,101.5C 73.0558,97.77 74.7225,94.6034 77.5,92C 78.8193,91.805 80.1526,91.9717 81.5,92.5 Z"/></g>
<g><path style="opacity:1" fill="#cd2826" d="M 81.5,92.5 C 81.8333,92.5 82.1667,92.5 82.5,92.5C 82.9175,93.2216 83.5842,93.7216 84.5,94C 80.7727,98.921 79.7727,98.421 81.5,92.5 Z"/></g>
<g><path style="opacity:1" fill="#4c5d69" d="M 57.5,92.5 C 57.0695,97.6809 57.0695,103.014 57.5,108.5C 56.1667,108.5 54.8333,108.5 53.5,108.5C 52.6462,103.244 52.6462,98.2444 53.5,93.5C 54.9587,93.5674 56.2921,93.2341 57.5,92.5 Z"/></g>
<g><path style="opacity:1" fill="#317493" d="M 59.5,95.5 C 62.0234,99.2134 64.0234,103.213 65.5,107.5C 64.0536,108.613 62.3869,108.78 60.5,108C 61.567,105.573 60.9003,105.073 58.5,106.5C 58.185,102.629 58.5184,98.9619 59.5,95.5 Z"/></g>
<g><path style="opacity:1" fill="#c5d532" d="M 59.5,101.5 C 61.337,101.639 61.6704,102.306 60.5,103.5C 59.7025,103.043 59.3691,102.376 59.5,101.5 Z"/></g>
<g><path style="opacity:1" fill="#d12b28" d="M 76.5,107.5 C 75.9094,106.849 75.2427,106.182 74.5,105.5C 80.3019,97.7316 80.9685,98.3983 76.5,107.5 Z"/></g>
<g><path style="opacity:1" fill="#d02826" d="M 81.5,110.5 C 81.0269,109.094 80.0269,108.427 78.5,108.5C 79.1667,107.5 79.8333,106.5 80.5,105.5C 81.4584,105.047 82.2917,104.381 83,103.5C 83.0683,105.995 82.5683,108.328 81.5,110.5 Z"/></g>
<g><path style="opacity:1" fill="#d66253" d="M 87.5,94.5 C 88.1667,95.1667 88.8333,95.8333 89.5,96.5C 87.4131,97.5846 86.0798,99.2512 85.5,101.5C 85.179,102.817 84.8457,104.151 84.5,105.5C 84.8614,107.418 85.528,107.751 86.5,106.5C 87.3635,105.537 88.0302,105.537 88.5,106.5C 87.9495,108.657 87.2829,110.657 86.5,112.5C 84.7131,111.183 83.0464,111.516 81.5,113.5C 80.4376,112.575 80.4376,111.575 81.5,110.5C 82.5683,108.328 83.0683,105.995 83,103.5C 82.2917,104.381 81.4584,105.047 80.5,105.5C 83.0242,101.878 85.3575,98.211 87.5,94.5 Z"/></g>
<g><path style="opacity:1" fill="#cb2724" d="M 35.5,110.5 C 34.8333,110.833 34.1667,111.167 33.5,111.5C 32.2983,109.608 30.965,107.774 29.5,106C 31.8229,106.306 34.1563,106.972 36.5,108C 35.7476,108.671 35.4142,109.504 35.5,110.5 Z"/></g>
<g><path style="opacity:1" fill="#655f1f" d="M 65.5,107.5 C 66.3382,107.842 66.6716,108.508 66.5,109.5C 65.5,109.5 64.5,109.5 63.5,109.5C 62.1667,109.5 60.8333,109.5 59.5,109.5C 58.5,109.5 57.5,109.5 56.5,109.5C 55.5,109.5 54.5,109.5 53.5,109.5C 51.8333,109.5 50.1667,109.5 48.5,109.5C 48.5,110.833 48.5,112.167 48.5,113.5C 48.5,114.167 48.1667,114.5 47.5,114.5C 47.5,113.833 47.1667,113.5 46.5,113.5C 46.7959,111.597 47.4625,109.93 48.5,108.5C 49.2223,107.449 50.2223,106.782 51.5,106.5C 50.3398,108.203 51.0065,108.869 53.5,108.5C 54.8333,108.5 56.1667,108.5 57.5,108.5C 59.6977,108.591 60.0311,107.925 58.5,106.5C 60.9003,105.073 61.567,105.573 60.5,108C 62.3869,108.78 64.0536,108.613 65.5,107.5 Z"/></g>
<g><path style="opacity:1" fill="#bf7163" d="M 89.5,96.5 C 89.422,99.2518 89.2554,101.918 89,104.5C 90.4424,102.609 91.6091,100.609 92.5,98.5C 94.4387,99.0138 95.4387,100.347 95.5,102.5C 94.4529,104.056 93.7863,105.723 93.5,107.5C 91.086,108.911 89.4194,110.911 88.5,113.5C 87.3951,114.6 86.0618,115.267 84.5,115.5C 84.7822,114.222 85.4489,113.222 86.5,112.5C 87.2829,110.657 87.9495,108.657 88.5,106.5C 88.0302,105.537 87.3635,105.537 86.5,106.5C 87.3429,104.164 87.8429,101.831 88,99.5C 87.2917,100.381 86.4584,101.047 85.5,101.5C 86.0798,99.2512 87.4131,97.5846 89.5,96.5 Z"/></g>
<g><path style="opacity:1" fill="#996b1a" d="M 76.5,107.5 C 76.8417,108.338 77.5084,108.672 78.5,108.5C 80.0269,108.427 81.0269,109.094 81.5,110.5C 80.5041,110.586 79.6708,110.252 79,109.5C 78.5,110.667 77.6667,111.5 76.5,112C 77.056,112.383 77.3893,112.883 77.5,113.5C 77.5,114.167 77.5,114.833 77.5,115.5C 76.5255,114.365 75.3588,113.365 74,112.5C 73.2599,111.251 73.4265,110.251 74.5,109.5C 75.1667,108.833 75.8333,108.167 76.5,107.5 Z"/></g>
<g><path style="opacity:1" fill="#3b80a2" d="M 21.5,119.5 C 21.3259,121.861 20.9926,124.194 20.5,126.5C 19.1667,126.5 17.8333,126.5 16.5,126.5C 17.1667,123.167 17.8333,119.833 18.5,116.5C 20.2051,113.958 21.7051,111.292 23,108.5C 22.549,112.112 22.049,115.779 21.5,119.5 Z"/></g>
<g><path style="opacity:1" fill="#ccb90e" d="M 53.5,109.5 C 53.5,110.5 53.5,111.5 53.5,112.5C 54.5,112.5 55.5,112.5 56.5,112.5C 56.5,111.5 56.5,110.5 56.5,109.5C 57.5,109.5 58.5,109.5 59.5,109.5C 59.5,110.5 59.5,111.5 59.5,112.5C 60.8333,112.5 62.1667,112.5 63.5,112.5C 63.5,111.5 63.5,110.5 63.5,109.5C 64.5,109.5 65.5,109.5 66.5,109.5C 66.9258,111.139 66.9258,112.472 66.5,113.5C 60.5,113.5 54.5,113.5 48.5,113.5C 48.5,112.167 48.5,110.833 48.5,109.5C 50.1667,109.5 51.8333,109.5 53.5,109.5 Z"/></g>
<g><path style="opacity:1" fill="#d84320" d="M 59.5,109.5 C 60.8333,109.5 62.1667,109.5 63.5,109.5C 63.5,110.5 63.5,111.5 63.5,112.5C 62.1667,112.5 60.8333,112.5 59.5,112.5C 59.5,111.5 59.5,110.5 59.5,109.5 Z"/></g>
<g><path style="opacity:1" fill="#d73622" d="M 53.5,109.5 C 54.5,109.5 55.5,109.5 56.5,109.5C 56.5,110.5 56.5,111.5 56.5,112.5C 55.5,112.5 54.5,112.5 53.5,112.5C 53.5,111.5 53.5,110.5 53.5,109.5 Z"/></g>
<g><path style="opacity:1" fill="#cbbc11" d="M 81.5,110.5 C 80.4376,111.575 80.4376,112.575 81.5,113.5C 83.0464,111.516 84.7131,111.183 86.5,112.5C 85.4489,113.222 84.7822,114.222 84.5,115.5C 82.079,115.122 79.7457,114.455 77.5,113.5C 77.3893,112.883 77.056,112.383 76.5,112C 77.6667,111.5 78.5,110.667 79,109.5C 79.6708,110.252 80.5041,110.586 81.5,110.5 Z"/></g>
<g><path style="opacity:1" fill="#2f732c" d="M 77.5,113.5 C 79.7457,114.455 82.079,115.122 84.5,115.5C 84.8417,116.338 85.5084,116.672 86.5,116.5C 85.4176,119.659 83.5842,122.326 81,124.5C 80.7216,123.584 80.2216,122.918 79.5,122.5C 79.1667,122.5 78.8333,122.5 78.5,122.5C 78.552,120.097 78.2186,117.764 77.5,115.5C 77.5,114.833 77.5,114.167 77.5,113.5 Z"/></g>
<g><path style="opacity:1" fill="#c8b910" d="M 38.5,110.5 C 38.7709,112.38 38.1042,113.713 36.5,114.5C 35.713,116.104 34.3797,116.771 32.5,116.5C 32.5,115.5 32.5,114.5 32.5,113.5C 33.3382,113.158 33.6716,112.492 33.5,111.5C 34.1667,111.167 34.8333,110.833 35.5,110.5C 36.5,109.167 37.5,109.167 38.5,110.5 Z"/></g>
<g><path style="opacity:1" fill="#d52323" d="M 36.5,114.5 C 34.663,114.361 34.3296,113.694 35.5,112.5C 36.2975,112.957 36.6309,113.624 36.5,114.5 Z"/></g>
<g><path style="opacity:1" fill="#1b87b2" d="M 48.5,113.5 C 54.5,113.5 60.5,113.5 66.5,113.5C 67.0906,114.151 67.7573,114.818 68.5,115.5C 66.0312,116.168 63.6979,116.835 61.5,117.5C 59.5165,117.617 57.8498,116.95 56.5,115.5C 55.8933,115.624 55.56,115.957 55.5,116.5C 55.1667,116.5 54.8333,116.5 54.5,116.5C 51.6122,117.01 49.2789,116.344 47.5,114.5C 48.1667,114.5 48.5,114.167 48.5,113.5 Z"/></g>
<g><path style="opacity:1" fill="#222122" d="M 46.5,113.5 C 47.1667,113.5 47.5,113.833 47.5,114.5C 49.2789,116.344 51.6122,117.01 54.5,116.5C 52.3926,117.468 50.0593,117.802 47.5,117.5C 47.5,119.167 47.5,120.833 47.5,122.5C 47.5,123.167 47.1667,123.5 46.5,123.5C 46.5,120.167 46.5,116.833 46.5,113.5 Z"/></g>
<g><path style="opacity:1" fill="#b69e15" d="M 88.5,113.5 C 89.2389,113.369 89.9056,113.536 90.5,114C 89.6195,114.708 88.9528,115.542 88.5,116.5C 87.8333,116.5 87.1667,116.5 86.5,116.5C 85.5084,116.672 84.8417,116.338 84.5,115.5C 86.0618,115.267 87.3951,114.6 88.5,113.5 Z"/></g>
<g><path style="opacity:1" fill="#812c1d" d="M 28.5,111.5 C 30.153,111.66 31.4863,112.326 32.5,113.5C 32.5,114.5 32.5,115.5 32.5,116.5C 33.4151,118.754 34.7484,120.754 36.5,122.5C 32.6319,120.971 29.2985,118.637 26.5,115.5C 26.6596,113.847 27.3263,112.514 28.5,111.5 Z"/></g>
<g><path style="opacity:1" fill="#2a4225" d="M 39.5,108.5 C 38.9682,114.152 38.6349,119.819 38.5,125.5C 37.5987,124.71 36.9321,123.71 36.5,122.5C 34.7484,120.754 33.4151,118.754 32.5,116.5C 34.3797,116.771 35.713,116.104 36.5,114.5C 38.1042,113.713 38.7709,112.38 38.5,110.5C 38.3284,109.508 38.6618,108.842 39.5,108.5 Z"/></g>
<g><path style="opacity:1" fill="#595954" d="M 61.5,117.5 C 60.7375,118.268 59.7375,118.768 58.5,119C 59.8228,119.816 60.4894,120.983 60.5,122.5C 58.359,120.878 56.6924,118.878 55.5,116.5C 55.56,115.957 55.8933,115.624 56.5,115.5C 57.8498,116.95 59.5165,117.617 61.5,117.5 Z"/></g>
<g><path style="opacity:1" fill="#f9fafa" d="M 61.5,117.5 C 63.924,117.192 66.2573,117.526 68.5,118.5C 70.5329,123.442 70.8663,128.442 69.5,133.5C 67.901,133.768 66.5676,133.434 65.5,132.5C 64.3277,128.822 62.6611,125.489 60.5,122.5C 60.4894,120.983 59.8228,119.816 58.5,119C 59.7375,118.768 60.7375,118.268 61.5,117.5 Z"/></g>
<g><path style="opacity:1" fill="#3f3b34" d="M 66.5,109.5 C 70.288,115.498 71.9546,122.165 71.5,129.5C 71.5,130.5 71.5,131.5 71.5,132.5C 72.5,132.5 73.5,132.5 74.5,132.5C 73.0813,133.451 71.4147,133.784 69.5,133.5C 70.8663,128.442 70.5329,123.442 68.5,118.5C 66.2573,117.526 63.924,117.192 61.5,117.5C 63.6979,116.835 66.0312,116.168 68.5,115.5C 67.7573,114.818 67.0906,114.151 66.5,113.5C 66.9258,112.472 66.9258,111.139 66.5,109.5 Z"/></g>
<g><path style="opacity:1" fill="#d9c6b4" d="M 54.5,116.5 C 54.8333,116.5 55.1667,116.5 55.5,116.5C 56.6924,118.878 58.359,120.878 60.5,122.5C 62.6611,125.489 64.3277,128.822 65.5,132.5C 64.6618,132.842 64.3284,133.508 64.5,134.5C 64.39,136.354 64.0566,138.354 63.5,140.5C 62.312,138.012 60.9787,135.678 59.5,133.5C 59.3725,138.927 57.7059,143.761 54.5,148C 52.2884,148.789 50.2884,148.622 48.5,147.5C 48.6633,145.143 48.4966,142.81 48,140.5C 46.841,141.566 46.0076,141.233 45.5,139.5C 46.0965,138.065 46.0965,136.398 45.5,134.5C 48.9342,133.932 52.2675,133.766 55.5,134C 53.5553,130.628 50.8886,129.795 47.5,131.5C 47.5,131.167 47.5,130.833 47.5,130.5C 49.2592,129.129 51.2592,128.129 53.5,127.5C 55.4559,128.548 57.4559,129.048 59.5,129C 55.6056,126.554 51.6056,124.388 47.5,122.5C 47.5,120.833 47.5,119.167 47.5,117.5C 50.0593,117.802 52.3926,117.468 54.5,116.5 Z"/></g>
<g><path style="opacity:1" fill="#796823" d="M 47.5,122.5 C 51.6056,124.388 55.6056,126.554 59.5,129C 57.4559,129.048 55.4559,128.548 53.5,127.5C 51.2592,128.129 49.2592,129.129 47.5,130.5C 44.0078,129.59 41.0078,127.924 38.5,125.5C 41.8917,125.717 44.725,127.051 47,129.5C 47.1805,127.512 47.0138,125.512 46.5,123.5C 47.1667,123.5 47.5,123.167 47.5,122.5 Z"/></g>
<g><path style="opacity:1" fill="#5d2216" d="M 86.5,116.5 C 87.1667,116.5 87.8333,116.5 88.5,116.5C 86.6917,120.599 84.025,124.099 80.5,127C 81.8193,127.195 83.1526,127.028 84.5,126.5C 83.3406,128.25 81.674,129.25 79.5,129.5C 79.5,127.167 79.5,124.833 79.5,122.5C 80.2216,122.918 80.7216,123.584 81,124.5C 83.5842,122.326 85.4176,119.659 86.5,116.5 Z"/></g>
<g><path style="opacity:1" fill="#d0bf20" d="M 16.5,126.5 C 17.8333,126.5 19.1667,126.5 20.5,126.5C 21.8146,127.895 21.4812,128.895 19.5,129.5C 18.5,129.5 17.5,129.5 16.5,129.5C 15.375,128.348 15.375,127.348 16.5,126.5 Z"/></g>
<g><path style="opacity:1" fill="#968722" d="M 78.5,122.5 C 78.8333,122.5 79.1667,122.5 79.5,122.5C 79.5,124.833 79.5,127.167 79.5,129.5C 78.7377,131.262 77.4044,132.262 75.5,132.5C 75.1667,132.5 74.8333,132.5 74.5,132.5C 73.5,132.5 72.5,132.5 71.5,132.5C 71.5,131.5 71.5,130.5 71.5,129.5C 73.0443,129.703 74.3777,130.37 75.5,131.5C 76.646,130.855 77.646,130.022 78.5,129C 77.3947,126.88 77.3947,124.713 78.5,122.5 Z"/></g>
<g><path style="opacity:1" fill="#8e7923" d="M 45.5,134.5 C 45.2852,132.821 45.9519,131.821 47.5,131.5C 50.8886,129.795 53.5553,130.628 55.5,134C 52.2675,133.766 48.9342,133.932 45.5,134.5 Z"/></g>
<g><path style="opacity:1" fill="#6e94a6" d="M 16.5,129.5 C 17.5,129.5 18.5,129.5 19.5,129.5C 19.5,130.5 19.5,131.5 19.5,132.5C 20.8333,132.5 22.1667,132.5 23.5,132.5C 21.8103,133.103 20.3103,134.103 19,135.5C 18.6667,134.5 18.3333,133.5 18,132.5C 17.1127,136.325 16.2793,140.158 15.5,144C 15.5699,144.765 15.9033,145.265 16.5,145.5C 16.205,147.423 15.3717,149.09 14,150.5C 13.502,147.518 13.3354,144.518 13.5,141.5C 13.1667,140.833 12.8333,140.167 12.5,139.5C 13.6389,136.082 14.9723,132.749 16.5,129.5 Z"/></g>
<g><path style="opacity:1" fill="#9f801c" d="M 64.5,134.5 C 66.1703,134.751 67.6703,135.418 69,136.5C 69.4966,138.81 69.6633,141.143 69.5,143.5C 66.7411,143.933 65.4078,145.6 65.5,148.5C 62.1016,148.18 58.7683,148.513 55.5,149.5C 55.0576,150.739 54.3909,151.739 53.5,152.5C 49.1756,152.853 47.5089,151.186 48.5,147.5C 50.2884,148.622 52.2884,148.789 54.5,148C 57.7059,143.761 59.3725,138.927 59.5,133.5C 60.9787,135.678 62.312,138.012 63.5,140.5C 64.0566,138.354 64.39,136.354 64.5,134.5 Z"/></g>
<g><path style="opacity:1" fill="#98978e" d="M 65.5,132.5 C 66.5676,133.434 67.901,133.768 69.5,133.5C 71.4147,133.784 73.0813,133.451 74.5,132.5C 74.8333,132.5 75.1667,132.5 75.5,132.5C 77.297,133.393 78.6304,134.726 79.5,136.5C 78.1417,135.374 76.8084,135.374 75.5,136.5C 72.8864,138.433 70.8864,140.766 69.5,143.5C 69.6633,141.143 69.4966,138.81 69,136.5C 67.6703,135.418 66.1703,134.751 64.5,134.5C 64.3284,133.508 64.6618,132.842 65.5,132.5 Z"/></g>
<g><path style="opacity:1" fill="#d6352e" d="M 12.5,139.5 C 12.8333,140.167 13.1667,140.833 13.5,141.5C 11.5193,143.144 9.51927,144.81 7.5,146.5C 5.97567,144.142 3.97567,142.309 1.5,141C 3.67589,139.323 5.67589,137.489 7.5,135.5C 9.18561,136.857 10.8523,138.19 12.5,139.5 Z"/></g>
<g><path style="opacity:1" fill="#f1f1f0" d="M 79.5,136.5 C 79.6602,138.199 79.4935,139.866 79,141.5C 76.9229,143.076 75.4229,145.076 74.5,147.5C 75.7185,147.109 76.5518,147.776 77,149.5C 77.3988,149.272 77.5654,148.938 77.5,148.5C 78.1667,148.5 78.5,148.833 78.5,149.5C 77.1667,150.833 77.1667,152.167 78.5,153.5C 77.8333,153.5 77.5,153.833 77.5,154.5C 76.1634,155.315 75.1634,156.482 74.5,158C 71.5432,158.279 68.8766,159.113 66.5,160.5C 61.6367,160.819 56.97,160.486 52.5,159.5C 52.448,157.097 52.7814,154.764 53.5,152.5C 54.3909,151.739 55.0576,150.739 55.5,149.5C 58.7683,148.513 62.1016,148.18 65.5,148.5C 65.4078,145.6 66.7411,143.933 69.5,143.5C 70.8864,140.766 72.8864,138.433 75.5,136.5C 76.8084,135.374 78.1417,135.374 79.5,136.5 Z"/></g>
<g><path style="opacity:1" fill="#d7342e" d="M 100.5,135.5 C 102.915,137.064 105.248,138.898 107.5,141C 105.024,142.309 103.024,144.142 101.5,146.5C 99.3501,144.851 97.3501,143.018 95.5,141C 97.3734,139.296 99.0401,137.463 100.5,135.5 Z"/></g>
<g><path style="opacity:1" fill="#2b5033" d="M 45.5,139.5 C 46.0076,141.233 46.841,141.566 48,140.5C 48.4966,142.81 48.6633,145.143 48.5,147.5C 47.5089,151.186 49.1756,152.853 53.5,152.5C 52.7814,154.764 52.448,157.097 52.5,159.5C 51.8365,157.958 51.1698,156.291 50.5,154.5C 48.4733,153.307 46.9733,151.64 46,149.5C 45.7879,146.873 46.1213,144.873 47,143.5C 42.6337,139.122 39.8003,140.122 38.5,146.5C 40.5193,149.538 41.686,152.871 42,156.5C 44.9877,158.399 47.8211,160.399 50.5,162.5C 49.8333,162.5 49.1667,162.5 48.5,162.5C 45.9795,160.981 43.4795,159.314 41,157.5C 39.8963,153.816 38.7296,150.15 37.5,146.5C 38.1798,143.64 39.5131,141.14 41.5,139C 42.9285,138.421 44.2618,138.588 45.5,139.5 Z"/></g>
<g><path style="opacity:1" fill="#d52926" d="M 79.5,150.5 C 79.5,149.833 79.1667,149.5 78.5,149.5C 78.5,148.833 78.1667,148.5 77.5,148.5C 78.6935,147.728 79.6935,146.728 80.5,145.5C 82.8122,143.854 84.8122,141.854 86.5,139.5C 89.8333,142.167 92.8333,145.167 95.5,148.5C 92.1458,151.021 89.3124,154.021 87,157.5C 85.2636,154.261 82.7636,151.927 79.5,150.5 Z"/></g>
<g><path style="opacity:1" fill="#2b7a2e" d="M 52.5,159.5 C 56.97,160.486 61.6367,160.819 66.5,160.5C 67.8734,160.343 69.2068,160.51 70.5,161C 70.1667,161.333 69.8333,161.667 69.5,162C 63.1754,162.5 56.8421,162.666 50.5,162.5C 47.8211,160.399 44.9877,158.399 42,156.5C 41.686,152.871 40.5193,149.538 38.5,146.5C 39.8003,140.122 42.6337,139.122 47,143.5C 46.1213,144.873 45.7879,146.873 46,149.5C 46.9733,151.64 48.4733,153.307 50.5,154.5C 51.1698,156.291 51.8365,157.958 52.5,159.5 Z"/></g>
<g><path style="opacity:1" fill="#3e3e39" d="M 51.5,139.5 C 52.2216,139.918 52.7216,140.584 53,141.5C 53.7175,140.549 54.5509,140.383 55.5,141C 50.8168,145.823 49.4834,145.323 51.5,139.5 Z"/></g>
<g><path style="opacity:1" fill="#8b8883" d="M 79.5,136.5 C 80.4767,139.287 80.81,142.287 80.5,145.5C 79.6935,146.728 78.6935,147.728 77.5,148.5C 77.5654,148.938 77.3988,149.272 77,149.5C 76.5518,147.776 75.7185,147.109 74.5,147.5C 75.4229,145.076 76.9229,143.076 79,141.5C 79.4935,139.866 79.6602,138.199 79.5,136.5 Z"/></g>
<g><path style="opacity:1" fill="#82a7ba" d="M 16.5,145.5 C 15.9033,145.265 15.5699,144.765 15.5,144C 16.2793,140.158 17.1127,136.325 18,132.5C 18.3333,133.5 18.6667,134.5 19,135.5C 20.3103,134.103 21.8103,133.103 23.5,132.5C 24.819,130.532 24.819,128.532 23.5,126.5C 25.2275,123.713 26.3942,120.713 27,117.5C 33.9757,130.128 32.6424,141.795 23,152.5C 22.2401,148.775 22.4068,145.108 23.5,141.5C 22.8551,140.354 22.0217,139.354 21,138.5C 19.9741,141.239 18.4741,143.572 16.5,145.5 Z"/></g>
<g><path style="opacity:1" fill="#d83832" d="M 4.5,150.5 C 6.16667,150.5 7.83333,150.5 9.5,150.5C 9.5,155.167 9.5,159.833 9.5,164.5C 7.5328,164.739 5.69946,164.406 4,163.5C 3.75147,159.237 3.91814,154.904 4.5,150.5 Z"/></g>
<g><path style="opacity:1" fill="#d83832" d="M 100.5,150.5 C 102.167,150.5 103.833,150.5 105.5,150.5C 105.5,155.167 105.5,159.833 105.5,164.5C 103.533,164.739 101.699,164.406 100,163.5C 99.7515,159.237 99.9181,154.904 100.5,150.5 Z"/></g>
<g><path style="opacity:1" fill="#43433e" d="M 78.5,149.5 C 79.1667,149.5 79.5,149.833 79.5,150.5C 79.7373,151.791 79.404,152.791 78.5,153.5C 77.1667,152.167 77.1667,150.833 78.5,149.5 Z"/></g>
<g><path style="opacity:1" fill="#eee0cf" d="M 5.5,152.5 C 6.64911,152.791 7.31577,153.624 7.5,155C 7.16667,155.833 6.83333,156.667 6.5,157.5C 5.54811,155.955 5.21478,154.288 5.5,152.5 Z"/></g>
<g><path style="opacity:1" fill="#eee0cf" d="M 101.5,152.5 C 102.649,152.791 103.316,153.624 103.5,155C 103.167,155.833 102.833,156.667 102.5,157.5C 101.548,155.955 101.215,154.288 101.5,152.5 Z"/></g>
<g><path style="opacity:1" fill="#60605a" d="M 62.5,156.5 C 64.6674,155.731 66.834,154.731 69,153.5C 69.5,154 70,154.5 70.5,155C 67.9865,156.252 65.3198,156.752 62.5,156.5 Z"/></g>
<g><path style="opacity:1" fill="#666762" d="M 62.5,156.5 C 59.8223,157.909 57.1557,157.743 54.5,156C 57.0816,156.255 59.7482,156.422 62.5,156.5 Z"/></g>
<g><path style="opacity:1" fill="#263527" d="M 77.5,154.5 C 77.5705,158.601 75.5705,161.101 71.5,162C 79.5,162.333 87.5,162.667 95.5,163C 39.2048,163.824 23.5382,163.657 48.5,162.5C 49.1667,162.5 49.8333,162.5 50.5,162.5C 56.8421,162.666 63.1754,162.5 69.5,162C 69.8333,161.667 70.1667,161.333 70.5,161C 69.2068,160.51 67.8734,160.343 66.5,160.5C 68.8766,159.113 71.5432,158.279 74.5,158C 75.1634,156.482 76.1634,155.315 77.5,154.5 Z"/></g>
<g><path style="opacity:1" fill="#eef7e5" d="M 5.5,159.5 C 7.46455,159.948 7.79789,160.948 6.5,162.5C 5.61432,161.675 5.28099,160.675 5.5,159.5 Z"/></g>
<g><path style="opacity:1" fill="#eef7e5" d="M 101.5,159.5 C 103.465,159.948 103.798,160.948 102.5,162.5C 101.614,161.675 101.281,160.675 101.5,159.5 Z"/></g>
</svg>
