<?xml version="1.0" encoding="UTF-8"?>
<!DOCTYPE svg PUBLIC "-//W3C//DTD SVG 1.1//EN" "http://www.w3.org/Graphics/SVG/1.1/DTD/svg11.dtd">
<svg xmlns="http://www.w3.org/2000/svg" version="1.1" width="110px" height="170px" style="shape-rendering:geometricPrecision; text-rendering:geometricPrecision; image-rendering:optimizeQuality; fill-rule:evenodd; clip-rule:evenodd" xmlns:xlink="http://www.w3.org/1999/xlink">
<g><path style="opacity:1" fill="#ecf2e2" d="M -0.5,-0.5 C 36.1667,-0.5 72.8333,-0.5 109.5,-0.5C 109.5,56.1667 109.5,112.833 109.5,169.5C 72.8333,169.5 36.1667,169.5 -0.5,169.5C -0.5,112.833 -0.5,56.1667 -0.5,-0.5 Z"/></g>
<g><path style="opacity:1" fill="#d73631" d="M 3.5,4.5 C 8.89404,3.72836 10.894,6.06169 9.5,11.5C 10.894,16.9383 8.89404,19.2716 3.5,18.5C 3.5,13.8333 3.5,9.16667 3.5,4.5 Z"/></g>
<g><path style="opacity:1" fill="#d73631" d="M 99.5,4.5 C 104.894,3.72836 106.894,6.06169 105.5,11.5C 106.894,16.9383 104.894,19.2716 99.5,18.5C 99.5,13.8333 99.5,9.16667 99.5,4.5 Z"/></g>
<g><path style="opacity:1" fill="#eff5e4" d="M 5.5,6.5 C 6.77725,7.69363 7.44392,9.3603 7.5,11.5C 7.16667,13.1667 6.83333,14.8333 6.5,16.5C 5.51298,13.2317 5.17964,9.89838 5.5,6.5 Z"/></g>
<g><path style="opacity:1" fill="#eff5e4" d="M 101.5,6.5 C 102.777,7.69363 103.444,9.3603 103.5,11.5C 103.167,13.1667 102.833,14.8333 102.5,16.5C 101.513,13.2317 101.18,9.89838 101.5,6.5 Z"/></g>
<g><path style="opacity:1" fill="#a1873a" d="M 60.5,8.5 C 60.415,10.9288 59.415,12.9288 57.5,14.5C 58.0016,15.521 58.6683,15.6877 59.5,15C 60.7811,13.5913 61.7811,12.0913 62.5,10.5C 64.6237,11.0312 66.1237,12.3645 67,14.5C 67.6588,17.8881 67.4922,21.2214 66.5,24.5C 64.9505,25.4408 63.2838,26.1075 61.5,26.5C 62.5092,25.0609 62.1759,23.7276 60.5,22.5C 53.1843,20.947 45.851,19.6137 38.5,18.5C 40.3277,16.4625 41.8277,14.1292 43,11.5C 45.2852,10.1811 47.4518,8.68107 49.5,7C 37.5,6.66667 25.5,6.33333 13.5,6C 40.8333,5.33333 68.1667,5.33333 95.5,6C 82.8333,6.33333 70.1667,6.66667 57.5,7C 58.7375,7.23209 59.7375,7.73209 60.5,8.5 Z"/></g>
<g><path style="opacity:1" fill="#d62a27" d="M 21.5,11.5 C 24.306,15.1373 27.6393,18.3039 31.5,21C 28.0205,23.3124 25.0205,26.1458 22.5,29.5C 19.1667,26.8333 16.1667,23.8333 13.5,20.5C 16.9031,18.1002 19.5698,15.1002 21.5,11.5 Z"/></g>
<g><path style="opacity:1" fill="#5b594c" d="M 60.5,8.5 C 61.8333,8.5 62.5,9.16667 62.5,10.5C 61.7811,12.0913 60.7811,13.5913 59.5,15C 58.6683,15.6877 58.0016,15.521 57.5,14.5C 59.415,12.9288 60.415,10.9288 60.5,8.5 Z"/></g>
<g><path style="opacity:1" fill="#d7342d" d="M 6.5,22.5 C 9.22545,23.713 11.5588,25.5464 13.5,28C 11.6499,30.0176 9.64991,31.8509 7.5,33.5C 5.67589,31.5107 3.67589,29.6774 1.5,28C 4.07904,26.9243 5.74571,25.091 6.5,22.5 Z"/></g>
<g><path style="opacity:1" fill="#4f4e46" d="M 38.5,18.5 C 45.851,19.6137 53.1843,20.947 60.5,22.5C 62.1759,23.7276 62.5092,25.0609 61.5,26.5C 60.4226,27.0184 59.2559,27.3517 58,27.5C 55.299,26.319 52.9656,24.6524 51,22.5C 49.5603,21.8524 48.0603,21.5191 46.5,21.5C 43.9455,20.612 41.2788,20.2786 38.5,20.5C 38.7394,22.4672 38.4061,24.3005 37.5,26C 38.7376,25.9227 39.7376,26.0894 40.5,26.5C 38.4944,29.4805 38.161,32.4805 39.5,35.5C 39.5,36.1667 39.5,36.8333 39.5,37.5C 39.5,38.1667 39.5,38.8333 39.5,39.5C 37.5853,34.4706 36.5853,29.1373 36.5,23.5C 37.6843,22.3121 37.6843,21.1455 36.5,20C 37.0442,19.2828 37.7109,18.7828 38.5,18.5 Z"/></g>
<g><path style="opacity:1" fill="#d7342e" d="M 100.5,22.5 C 102.628,24.4458 104.961,26.2791 107.5,28C 105.324,29.6774 103.324,31.5107 101.5,33.5C 99.3501,31.8509 97.3501,30.0176 95.5,28C 97.3734,26.2962 99.0401,24.4628 100.5,22.5 Z"/></g>
<g><path style="opacity:1" fill="#e5d5b7" d="M 46.5,21.5 C 48.2516,23.2459 49.5849,25.2459 50.5,27.5C 49.1882,34.0378 49.1882,40.7045 50.5,47.5C 44.5469,49.8848 42.2136,47.8848 43.5,41.5C 44.8734,41.6567 46.2068,41.49 47.5,41C 44.7462,40.7276 42.0795,40.2276 39.5,39.5C 39.5,38.8333 39.5,38.1667 39.5,37.5C 44.8333,36.8333 44.8333,36.1667 39.5,35.5C 38.161,32.4805 38.4944,29.4805 40.5,26.5C 39.7376,26.0894 38.7376,25.9227 37.5,26C 38.4061,24.3005 38.7394,22.4672 38.5,20.5C 41.2788,20.2786 43.9455,20.612 46.5,21.5 Z"/></g>
<g><path style="opacity:1" fill="#bea03b" d="M 46.5,21.5 C 48.0603,21.5191 49.5603,21.8524 51,22.5C 52.9656,24.6524 55.299,26.319 58,27.5C 59.2559,27.3517 60.4226,27.0184 61.5,26.5C 61.5,33.1667 61.5,39.8333 61.5,46.5C 61.5,47.1667 61.1667,47.5 60.5,47.5C 56.7806,47.9975 53.4473,47.1642 50.5,45C 54.4557,43.8861 54.4557,43.0527 50.5,42.5C 50.5,37.5 50.5,32.5 50.5,27.5C 49.5849,25.2459 48.2516,23.2459 46.5,21.5 Z"/></g>
<g><path style="opacity:1" fill="#494946" d="M 42.5,26.5 C 47.7562,26.9224 48.2562,27.9224 44,29.5C 42.9614,28.7562 42.4614,27.7562 42.5,26.5 Z"/></g>
<g><path style="opacity:1" fill="#bbc0bb" d="M 66.5,24.5 C 68.3234,33.0844 69.1567,41.751 69,50.5C 67.5,49.3333 66,48.1667 64.5,47C 64.9574,46.586 65.2907,46.086 65.5,45.5C 63.8481,42.0818 63.0147,38.4151 63,34.5C 62.8238,38.6877 62.3238,42.6877 61.5,46.5C 61.5,39.8333 61.5,33.1667 61.5,26.5C 63.2838,26.1075 64.9505,25.4408 66.5,24.5 Z"/></g>
<g><path style="opacity:1" fill="#448c43" d="M 81.5,37.5 C 82.038,39.1172 82.3713,40.7839 82.5,42.5C 82.6785,45.2165 83.1785,47.8832 84,50.5C 84.4955,48.5273 84.6621,46.5273 84.5,44.5C 85.8333,44.8333 87.1667,45.1667 88.5,45.5C 88.0472,46.4584 87.3805,47.2917 86.5,48C 92.9816,46.4812 96.4816,48.9812 97,55.5C 96.0513,53.9069 94.8846,52.5736 93.5,51.5C 92.8333,51.1667 92.1667,50.8333 91.5,50.5C 90.1667,49.1667 88.8333,49.1667 87.5,50.5C 85.5891,50.5743 84.4224,51.5743 84,53.5C 83.6232,52.0577 82.7899,51.0577 81.5,50.5C 78.4191,45.5834 77.7524,40.2501 79.5,34.5C 80.1757,35.6016 80.8423,36.6016 81.5,37.5 Z"/></g>
<g><path style="opacity:1" fill="#b0191b" d="M 94.5,39.5 C 94.7135,41.1439 94.3802,42.6439 93.5,44C 90.4057,44.2512 87.4057,43.7512 84.5,42.5C 82.9277,40.1331 83.261,38.1331 85.5,36.5C 87.394,39.0334 89.894,40.7001 93,41.5C 93.2784,40.5842 93.7784,39.9175 94.5,39.5 Z"/></g>
<g><path style="opacity:1" fill="#2c2019" d="M 94.5,39.5 C 93.7784,39.9175 93.2784,40.5842 93,41.5C 89.894,40.7001 87.394,39.0334 85.5,36.5C 83.261,38.1331 82.9277,40.1331 84.5,42.5C 83.8333,42.5 83.1667,42.5 82.5,42.5C 82.3713,40.7839 82.038,39.1172 81.5,37.5C 83.4786,35.8325 85.812,35.1658 88.5,35.5C 88.1854,33.7741 88.0187,32.1075 88,30.5C 89.117,31.9494 89.7837,33.6161 90,35.5C 90.8693,30.4919 91.5359,30.8252 92,36.5C 92.3333,36.1667 92.6667,35.8333 93,35.5C 93.7914,36.745 94.2914,38.0783 94.5,39.5 Z"/></g>
<g><path style="opacity:1" fill="#e2e9d9" d="M 82.5,42.5 C 83.1667,42.5 83.8333,42.5 84.5,42.5C 84.5,43.1667 84.5,43.8333 84.5,44.5C 84.6621,46.5273 84.4955,48.5273 84,50.5C 83.1785,47.8832 82.6785,45.2165 82.5,42.5 Z"/></g>
<g><path style="opacity:1" fill="#141311" d="M 94.5,39.5 C 96.5045,44.8359 94.5045,46.8359 88.5,45.5C 87.1667,45.1667 85.8333,44.8333 84.5,44.5C 84.5,43.8333 84.5,43.1667 84.5,42.5C 87.4057,43.7512 90.4057,44.2512 93.5,44C 94.3802,42.6439 94.7135,41.1439 94.5,39.5 Z"/></g>
<g><path style="opacity:1" fill="#ded1ba" d="M 63.5,50.5 C 64.9738,51.6751 66.6404,52.6751 68.5,53.5C 67.6602,54.735 66.6602,55.735 65.5,56.5C 63.54,57.1383 61.7067,57.1383 60,56.5C 59.2828,57.0442 58.7828,57.7109 58.5,58.5C 56.9988,57.5573 55.6654,57.8906 54.5,59.5C 52.1667,58.1667 49.8333,58.1667 47.5,59.5C 43.7329,58.2053 39.7329,57.5387 35.5,57.5C 34.3454,55.1749 32.3454,54.0082 29.5,54C 30.5707,53.1482 31.5707,52.3149 32.5,51.5C 33.8221,51.67 34.9887,51.3366 36,50.5C 45.2058,58.4599 54.3725,58.4599 63.5,50.5 Z"/></g>
<g><path style="opacity:1" fill="#5b736a" d="M 28.5,46.5 C 30.1992,46.3398 31.8659,46.5065 33.5,47C 25.7049,47.0302 18.7049,49.3635 12.5,54C 13.8333,54.6667 13.8333,55.3333 12.5,56C 10.1887,56.2359 8.18867,57.0693 6.5,58.5C 6.5,57.8333 6.5,57.1667 6.5,56.5C 12.8067,50.8483 20.14,47.515 28.5,46.5 Z"/></g>
<g><path style="opacity:1" fill="#7581ac" d="M 32.5,51.5 C 31.5707,52.3149 30.5707,53.1482 29.5,54C 32.3454,54.0082 34.3454,55.1749 35.5,57.5C 33.323,57.4139 31.323,56.7472 29.5,55.5C 29.0894,56.2624 28.9227,57.2624 29,58.5C 27.8333,56.6667 26.3333,55.1667 24.5,54C 27.022,52.6591 29.6887,51.8257 32.5,51.5 Z"/></g>
<g><path style="opacity:1" fill="#746427" d="M 36.5,23.5 C 36.5853,29.1373 37.5853,34.4706 39.5,39.5C 42.0795,40.2276 44.7462,40.7276 47.5,41C 46.2068,41.49 44.8734,41.6567 43.5,41.5C 42.2136,47.8848 44.5469,49.8848 50.5,47.5C 49.1882,40.7045 49.1882,34.0378 50.5,27.5C 50.5,32.5 50.5,37.5 50.5,42.5C 54.4557,43.0527 54.4557,43.8861 50.5,45C 53.4473,47.1642 56.7806,47.9975 60.5,47.5C 61.2905,48.4013 62.2905,49.0679 63.5,49.5C 63.5,49.8333 63.5,50.1667 63.5,50.5C 54.3725,58.4599 45.2058,58.4599 36,50.5C 34.9887,51.3366 33.8221,51.67 32.5,51.5C 34.2726,50.1077 36.2726,48.941 38.5,48C 37.6667,47.1667 36.8333,46.3333 36,45.5C 35.5007,40.5111 35.3341,35.5111 35.5,30.5C 35.1984,27.9407 35.5318,25.6074 36.5,23.5 Z"/></g>
<g><path style="opacity:1" fill="#ebdabc" d="M 58.5,48.5 C 61.0704,49.484 61.0704,50.6507 58.5,52C 51.3377,55.7704 44.671,55.1037 38.5,50C 41.4806,50.9153 44.6473,51.4153 48,51.5C 51.976,51.7815 55.476,50.7815 58.5,48.5 Z"/></g>
<g><path style="opacity:1" fill="#c33b2f" d="M 39.5,35.5 C 44.8333,36.1667 44.8333,36.8333 39.5,37.5C 39.5,36.8333 39.5,36.1667 39.5,35.5 Z"/></g>
<g><path style="opacity:1" fill="#e6ebee" d="M 35.5,30.5 C 35.3341,35.5111 35.5007,40.5111 36,45.5C 36.8333,46.3333 37.6667,47.1667 38.5,48C 36.2726,48.941 34.2726,50.1077 32.5,51.5C 29.6887,51.8257 27.022,52.6591 24.5,54C 26.3333,55.1667 27.8333,56.6667 29,58.5C 28.9227,57.2624 29.0894,56.2624 29.5,55.5C 31.323,56.7472 33.323,57.4139 35.5,57.5C 35.9175,58.2216 36.5842,58.7216 37.5,59C 40.8168,59.4983 44.1501,59.665 47.5,59.5C 45.8236,62.7953 46.8236,64.7953 50.5,65.5C 54.4497,65.4948 56.1163,63.4948 55.5,59.5C 56.791,59.7373 57.791,59.404 58.5,58.5C 60.5273,58.6621 62.5273,58.4955 64.5,58C 65.056,57.6174 65.3893,57.1174 65.5,56.5C 68.0284,55.9886 70.5284,55.3219 73,54.5C 75.2605,54.8646 77.4272,55.5313 79.5,56.5C 80.3857,57.325 80.719,58.325 80.5,59.5C 79.1304,61.1722 77.7971,62.8388 76.5,64.5C 74.8212,64.2852 73.8212,64.9519 73.5,66.5C 69.072,67.9751 64.7387,69.6417 60.5,71.5C 58.5342,71.4658 56.5342,71.4658 54.5,71.5C 50.779,71.362 47.1123,71.0287 43.5,70.5C 41.965,69.6457 40.6316,69.6457 39.5,70.5C 36.127,69.2012 32.9603,67.5345 30,65.5C 29.586,65.9574 29.086,66.2907 28.5,66.5C 27.1502,65.0499 25.4835,64.3832 23.5,64.5C 23.6068,62.6214 23.1068,62.2881 22,63.5C 20.6218,61.7866 18.9552,60.4533 17,59.5C 13.4021,61.0498 9.9021,62.7164 6.5,64.5C 6.5,62.5 6.5,60.5 6.5,58.5C 8.18867,57.0693 10.1887,56.2359 12.5,56C 13.8333,55.3333 13.8333,54.6667 12.5,54C 18.7049,49.3635 25.7049,47.0302 33.5,47C 31.8659,46.5065 30.1992,46.3398 28.5,46.5C 30.8751,41.0928 33.2085,35.7594 35.5,30.5 Z"/></g>
<g><path style="opacity:1" fill="#65a763" d="M 84.5,59.5 C 84.477,61.9267 83.977,64.26 83,66.5C 82.5017,63.1832 82.335,59.8499 82.5,56.5C 82.81,55.2617 83.31,55.2617 84,56.5C 84.4828,57.448 84.6495,58.448 84.5,59.5 Z"/></g>
<g><path style="opacity:1" fill="#2125a4" d="M 58.5,58.5 C 57.791,59.404 56.791,59.7373 55.5,59.5C 55.1667,59.5 54.8333,59.5 54.5,59.5C 55.6654,57.8906 56.9988,57.5573 58.5,58.5 Z"/></g>
<g><path style="opacity:1" fill="#6464b7" d="M 65.5,56.5 C 65.3893,57.1174 65.056,57.6174 64.5,58C 62.5273,58.4955 60.5273,58.6621 58.5,58.5C 58.7828,57.7109 59.2828,57.0442 60,56.5C 61.7067,57.1383 63.54,57.1383 65.5,56.5 Z"/></g>
<g><path style="opacity:1" fill="#5358ac" d="M 35.5,57.5 C 39.7329,57.5387 43.7329,58.2053 47.5,59.5C 44.1501,59.665 40.8168,59.4983 37.5,59C 36.5842,58.7216 35.9175,58.2216 35.5,57.5 Z"/></g>
<g><path style="opacity:1" fill="#b4b524" d="M 54.5,59.5 C 54.8333,59.5 55.1667,59.5 55.5,59.5C 56.1163,63.4948 54.4497,65.4948 50.5,65.5C 46.8236,64.7953 45.8236,62.7953 47.5,59.5C 49.8333,58.1667 52.1667,58.1667 54.5,59.5 Z"/></g>
<g><path style="opacity:1" fill="#ebdbbc" d="M 82.5,56.5 C 82.335,59.8499 82.5017,63.1832 83,66.5C 83.977,64.26 84.477,61.9267 84.5,59.5C 86.7659,59.8588 88.5993,59.1922 90,57.5C 89.9649,61.4423 88.7983,65.1089 86.5,68.5C 87.2458,69.7362 87.5792,71.0695 87.5,72.5C 85.8333,72.5 84.1667,72.5 82.5,72.5C 82.5905,69.8478 81.9238,67.5145 80.5,65.5C 80.5,63.5 80.5,61.5 80.5,59.5C 81.1667,58.5 81.8333,57.5 82.5,56.5 Z"/></g>
<g><path style="opacity:1" fill="#16729a" d="M 48.5,60.5 C 50.1667,60.5 51.8333,60.5 53.5,60.5C 53.5,61.5 53.5,62.5 53.5,63.5C 51.8333,63.5 50.1667,63.5 48.5,63.5C 48.5,62.5 48.5,61.5 48.5,60.5 Z"/></g>
<g><path style="opacity:1" fill="#2989bf" d="M 23.5,64.5 C 25.4835,64.3832 27.1502,65.0499 28.5,66.5C 29.086,66.2907 29.586,65.9574 30,65.5C 32.9603,67.5345 36.127,69.2012 39.5,70.5C 39.5,71.1667 39.5,71.8333 39.5,72.5C 38.1773,76.5977 38.5106,80.5977 40.5,84.5C 40.6602,86.1992 40.4935,87.8659 40,89.5C 39.6097,86.8958 38.7763,84.5625 37.5,82.5C 37.1916,78.6403 36.5249,74.9736 35.5,71.5C 35.44,70.9569 35.1067,70.6236 34.5,70.5C 34.1026,75.4907 32.7693,80.1574 30.5,84.5C 29.5,84.5 28.5,84.5 27.5,84.5C 27.5,83.5 27.5,82.5 27.5,81.5C 28.1386,80.9032 28.472,80.0698 28.5,79C 28.6134,77.3009 27.9468,76.1342 26.5,75.5C 26.1667,75.5 25.8333,75.5 25.5,75.5C 25.1667,74.5 24.5,73.8333 23.5,73.5C 22.6109,68.3354 21.2776,68.3354 19.5,73.5C 18.6618,73.8417 18.3284,74.5084 18.5,75.5C 17.5,75.8333 16.8333,76.5 16.5,77.5C 14.9519,77.8212 14.2852,78.8212 14.5,80.5C 14.5,81.8333 14.5,83.1667 14.5,84.5C 12.1667,84.5 9.83333,84.5 7.5,84.5C 7.76781,82.901 7.43448,81.5676 6.5,80.5C 6.5,75.1667 6.5,69.8333 6.5,64.5C 9.9021,62.7164 13.4021,61.0498 17,59.5C 18.9552,60.4533 20.6218,61.7866 22,63.5C 23.1068,62.2881 23.6068,62.6214 23.5,64.5 Z"/></g>
<g><path style="opacity:1" fill="#2a73a3" d="M 80.5,59.5 C 80.5,61.5 80.5,63.5 80.5,65.5C 80.5172,67.5648 80.8505,69.5648 81.5,71.5C 80.391,71.4431 79.391,71.1098 78.5,70.5C 78.7947,68.2646 78.4614,66.2646 77.5,64.5C 77.1667,64.5 76.8333,64.5 76.5,64.5C 77.7971,62.8388 79.1304,61.1722 80.5,59.5 Z"/></g>
<g><path style="opacity:1" fill="#e8ebe8" d="M 102.5,88.5 C 101.566,87.4324 101.232,86.099 101.5,84.5C 99.1667,84.5 96.8333,84.5 94.5,84.5C 93.1667,82.1667 91.8333,79.8333 90.5,77.5C 90.7678,75.901 90.4345,74.5676 89.5,73.5C 87.9369,69.8771 88.4369,66.5437 91,63.5C 100.17,69.1033 104.004,77.4367 102.5,88.5 Z"/></g>
<g><path style="opacity:1" fill="#343da2" d="M 76.5,64.5 C 75.8333,65.1667 75.1667,65.8333 74.5,66.5C 74.1667,66.5 73.8333,66.5 73.5,66.5C 73.8212,64.9519 74.8212,64.2852 76.5,64.5 Z"/></g>
<g><path style="opacity:1" fill="#cd341f" d="M 76.5,64.5 C 76.8333,64.5 77.1667,64.5 77.5,64.5C 77.5403,68.1999 76.5403,68.8665 74.5,66.5C 75.1667,65.8333 75.8333,65.1667 76.5,64.5 Z"/></g>
<g><path style="opacity:1" fill="#4a4a48" d="M 102.5,112.5 C 102.5,111.833 102.5,111.167 102.5,110.5C 102.5,108.5 102.5,106.5 102.5,104.5C 102.5,99.1667 102.5,93.8333 102.5,88.5C 104.004,77.4367 100.17,69.1033 91,63.5C 88.4369,66.5437 87.9369,69.8771 89.5,73.5C 90.4345,74.5676 90.7678,75.901 90.5,77.5C 87.9455,76.612 85.2788,76.2786 82.5,76.5C 82.8064,79.3854 82.4731,82.0521 81.5,84.5C 81.7947,82.2646 81.4614,80.2646 80.5,78.5C 81.3686,76.283 81.702,73.9496 81.5,71.5C 80.8505,69.5648 80.5172,67.5648 80.5,65.5C 81.9238,67.5145 82.5905,69.8478 82.5,72.5C 84.1667,72.5 85.8333,72.5 87.5,72.5C 87.5792,71.0695 87.2458,69.7362 86.5,68.5C 88.7983,65.1089 89.9649,61.4423 90,57.5C 88.5993,59.1922 86.7659,59.8588 84.5,59.5C 84.6495,58.448 84.4828,57.448 84,56.5C 83.31,55.2617 82.81,55.2617 82.5,56.5C 81.8333,57.5 81.1667,58.5 80.5,59.5C 80.719,58.325 80.3857,57.325 79.5,56.5C 77.4272,55.5313 75.2605,54.8646 73,54.5C 70.5284,55.3219 68.0284,55.9886 65.5,56.5C 66.6602,55.735 67.6602,54.735 68.5,53.5C 66.6404,52.6751 64.9738,51.6751 63.5,50.5C 63.5,50.1667 63.5,49.8333 63.5,49.5C 69.1424,52.3798 75.1424,54.0464 81.5,54.5C 81.5,53.1667 81.5,51.8333 81.5,50.5C 82.7899,51.0577 83.6232,52.0577 84,53.5C 84.4224,51.5743 85.5891,50.5743 87.5,50.5C 88.8333,54.5 90.1667,54.5 91.5,50.5C 92.1667,50.8333 92.8333,51.1667 93.5,51.5C 92.4525,54.7891 91.9525,58.1224 92,61.5C 95.3333,64.8333 98.6667,68.1667 102,71.5C 102.333,59.5 102.667,47.5 103,35.5C 103.881,75.184 103.715,100.851 102.5,112.5 Z"/></g>
<g><path style="opacity:1" fill="#e3eadb" d="M 91.5,50.5 C 90.1667,54.5 88.8333,54.5 87.5,50.5C 88.8333,49.1667 90.1667,49.1667 91.5,50.5 Z"/></g>
<g><path style="opacity:1" fill="#9b5d16" d="M 23.5,64.5 C 24.9536,67.3999 23.9536,68.7332 20.5,68.5C 20.5,67.1667 20.5,65.8333 20.5,64.5C 21.5,64.5 22.5,64.5 23.5,64.5 Z"/></g>
<g><path style="opacity:1" fill="#5d562c" d="M 77.5,64.5 C 78.4614,66.2646 78.7947,68.2646 78.5,70.5C 78.1583,71.3382 77.4916,71.6716 76.5,71.5C 76.5,70.1667 75.8333,69.5 74.5,69.5C 74.5,68.8333 74.1667,68.5 73.5,68.5C 73.5,67.8333 73.5,67.1667 73.5,66.5C 73.8333,66.5 74.1667,66.5 74.5,66.5C 76.5403,68.8665 77.5403,68.1999 77.5,64.5 Z"/></g>
<g><path style="opacity:1" fill="#47607b" d="M 43.5,70.5 C 43.0825,71.2216 42.4158,71.7216 41.5,72C 44.095,72.2256 46.595,72.7256 49,73.5C 49.1773,77.3563 49.6773,81.023 50.5,84.5C 50.7845,86.4147 50.4511,88.0813 49.5,89.5C 49.6332,86.075 48.9665,85.7417 47.5,88.5C 47.6716,87.5084 47.3382,86.8417 46.5,86.5C 46.631,85.7611 46.4643,85.0944 46,84.5C 45.0147,86.1749 44.1814,87.8415 43.5,89.5C 43.631,88.7611 43.4643,88.0944 43,87.5C 39.4638,91.2394 36.9638,95.5728 35.5,100.5C 34.609,99.8902 33.609,99.5569 32.5,99.5C 32.5,98.8333 32.5,98.1667 32.5,97.5C 32.5,96.5 32.5,95.5 32.5,94.5C 32.5,94.1667 32.5,93.8333 32.5,93.5C 33.782,92.2918 33.782,90.9584 32.5,89.5C 31.2638,90.2458 29.9305,90.5792 28.5,90.5C 29.7653,89.5207 31.0986,88.5207 32.5,87.5C 32.0576,86.2613 31.3909,85.2613 30.5,84.5C 32.7693,80.1574 34.1026,75.4907 34.5,70.5C 35.1067,70.6236 35.44,70.9569 35.5,71.5C 34.4489,74.3442 34.4489,77.3442 35.5,80.5C 33.0728,81.2789 33.0728,82.4455 35.5,84C 34.5,84.3333 33.5,84.6667 32.5,85C 34.7536,88.623 35.0869,92.4564 33.5,96.5C 33.9809,98.7312 34.6476,98.8979 35.5,97C 36.4014,94.1289 37.4014,91.2956 38.5,88.5C 37.5435,86.9246 36.8769,85.258 36.5,83.5C 37.1667,83.5 37.5,83.1667 37.5,82.5C 38.7763,84.5625 39.6097,86.8958 40,89.5C 40.4935,87.8659 40.6602,86.1992 40.5,84.5C 41.4956,80.4463 41.1623,76.4463 39.5,72.5C 39.5,71.8333 39.5,71.1667 39.5,70.5C 40.6316,69.6457 41.965,69.6457 43.5,70.5 Z"/></g>
<g><path style="opacity:1" fill="#a7975a" d="M 23.5,73.5 C 22.1667,73.5 20.8333,73.5 19.5,73.5C 21.2776,68.3354 22.6109,68.3354 23.5,73.5 Z"/></g>
<g><path style="opacity:1" fill="#3b78a8" d="M 73.5,66.5 C 73.5,67.1667 73.5,67.8333 73.5,68.5C 72.0854,73.6739 69.4187,78.0072 65.5,81.5C 66.3211,78.4465 66.3211,75.4465 65.5,72.5C 64.185,76.5926 62.685,80.5926 61,84.5C 61.1823,69.8885 60.349,69.8885 58.5,84.5C 58.665,87.8499 58.4983,91.1832 58,94.5C 55.9592,95.4231 53.7925,95.7564 51.5,95.5C 51.19,92.2869 51.5233,89.2869 52.5,86.5C 54.1432,86.7312 54.1432,82.3979 52.5,73.5C 51.5108,77.1073 51.1774,80.774 51.5,84.5C 51.1667,84.5 50.8333,84.5 50.5,84.5C 49.6773,81.023 49.1773,77.3563 49,73.5C 46.595,72.7256 44.095,72.2256 41.5,72C 42.4158,71.7216 43.0825,71.2216 43.5,70.5C 47.1123,71.0287 50.779,71.362 54.5,71.5C 56.3888,72.7416 58.3888,72.7416 60.5,71.5C 64.7387,69.6417 69.072,67.9751 73.5,66.5 Z"/></g>
<g><path style="opacity:1" fill="#2529a5" d="M 60.5,71.5 C 58.3888,72.7416 56.3888,72.7416 54.5,71.5C 56.5342,71.4658 58.5342,71.4658 60.5,71.5 Z"/></g>
<g><path style="opacity:1" fill="#50221a" d="M 39.5,72.5 C 41.1623,76.4463 41.4956,80.4463 40.5,84.5C 38.5106,80.5977 38.1773,76.5977 39.5,72.5 Z"/></g>
<g><path style="opacity:1" fill="#b6a515" d="M 89.5,73.5 C 88.8478,74.7251 87.6811,75.3917 86,75.5C 84.8333,75.1667 83.6667,74.8333 82.5,74.5C 84.7427,73.5258 87.076,73.1924 89.5,73.5 Z"/></g>
<g><path style="opacity:1" fill="#5f2c24" d="M 52.5,86.5 C 52.6716,85.5084 52.3382,84.8417 51.5,84.5C 51.1774,80.774 51.5108,77.1073 52.5,73.5C 54.1432,82.3979 54.1432,86.7312 52.5,86.5 Z"/></g>
<g><path style="opacity:1" fill="#ebcf0d" d="M 78.5,70.5 C 79.391,71.1098 80.391,71.4431 81.5,71.5C 81.702,73.9496 81.3686,76.283 80.5,78.5C 78.6203,78.2291 77.287,78.8958 76.5,80.5C 75.6317,77.6727 75.6317,74.6727 76.5,71.5C 77.4916,71.6716 78.1583,71.3382 78.5,70.5 Z"/></g>
<g><path style="opacity:1" fill="#e5771c" d="M 18.5,75.5 C 20.0481,75.8212 20.7148,76.8212 20.5,78.5C 19.0413,78.5674 17.7079,78.2341 16.5,77.5C 16.8333,76.5 17.5,75.8333 18.5,75.5 Z"/></g>
<g><path style="opacity:1" fill="#d8c9a9" d="M 90.5,77.5 C 91.8333,79.8333 93.1667,82.1667 94.5,84.5C 94.5,85.8333 94.5,87.1667 94.5,88.5C 90.1578,88.2605 85.8244,87.9272 81.5,87.5C 81.5,86.5 81.5,85.5 81.5,84.5C 82.4731,82.0521 82.8064,79.3854 82.5,76.5C 85.2788,76.2786 87.9455,76.612 90.5,77.5 Z"/></g>
<g><path style="opacity:1" fill="#eddc0d" d="M 19.5,73.5 C 20.8333,73.5 22.1667,73.5 23.5,73.5C 24.5,73.8333 25.1667,74.5 25.5,75.5C 24.218,76.7082 24.218,78.0416 25.5,79.5C 26.4287,78.3112 26.762,76.9778 26.5,75.5C 27.9468,76.1342 28.6134,77.3009 28.5,79C 28.472,80.0698 28.1386,80.9032 27.5,81.5C 23.1434,81.4135 18.81,81.0802 14.5,80.5C 14.2852,78.8212 14.9519,77.8212 16.5,77.5C 17.7079,78.2341 19.0413,78.5674 20.5,78.5C 20.7148,76.8212 20.0481,75.8212 18.5,75.5C 18.3284,74.5084 18.6618,73.8417 19.5,73.5 Z"/></g>
<g><path style="opacity:1" fill="#ee3726" d="M 25.5,75.5 C 25.8333,75.5 26.1667,75.5 26.5,75.5C 26.762,76.9778 26.4287,78.3112 25.5,79.5C 24.218,78.0416 24.218,76.7082 25.5,75.5 Z"/></g>
<g><path style="opacity:1" fill="#e0cfab" d="M 80.5,78.5 C 81.4614,80.2646 81.7947,82.2646 81.5,84.5C 78.4535,84.8174 76.7868,83.4841 76.5,80.5C 77.287,78.8958 78.6203,78.2291 80.5,78.5 Z"/></g>
<g><path style="opacity:1" fill="#59261b" d="M 35.5,71.5 C 36.5249,74.9736 37.1916,78.6403 37.5,82.5C 37.5,83.1667 37.1667,83.5 36.5,83.5C 35.8902,82.609 35.5569,81.609 35.5,80.5C 34.4489,77.3442 34.4489,74.3442 35.5,71.5 Z"/></g>
<g><path style="opacity:1" fill="#742117" d="M 55.5,73.5 C 57.9266,76.8102 58.0933,80.4769 56,84.5C 55.5014,80.8484 55.3347,77.1817 55.5,73.5 Z"/></g>
<g><path style="opacity:1" fill="#d5c6a6" d="M 14.5,80.5 C 18.81,81.0802 23.1434,81.4135 27.5,81.5C 27.5,82.5 27.5,83.5 27.5,84.5C 26.5269,86.9479 26.1936,89.6146 26.5,92.5C 23.7212,92.7214 21.0545,92.388 18.5,91.5C 17.1667,89.1667 15.8333,86.8333 14.5,84.5C 14.5,83.1667 14.5,81.8333 14.5,80.5 Z"/></g>
<g><path style="opacity:1" fill="#485c71" d="M 73.5,68.5 C 74.1667,68.5 74.5,68.8333 74.5,69.5C 71.1874,74.6734 70.5207,80.0067 72.5,85.5C 71.6618,85.8417 71.3284,86.5084 71.5,87.5C 70.5318,89.6074 70.1984,91.9407 70.5,94.5C 69.6829,92.0314 69.1829,89.3647 69,86.5C 68.5026,89.146 68.3359,91.8127 68.5,94.5C 67.6829,92.0314 67.1829,89.3647 67,86.5C 66.502,89.4816 66.3354,92.4816 66.5,95.5C 65.5,95.5 64.5,95.5 63.5,95.5C 63.5,91.8333 63.5,88.1667 63.5,84.5C 63.9321,83.2905 64.5987,82.2905 65.5,81.5C 69.4187,78.0072 72.0854,73.6739 73.5,68.5 Z"/></g>
<g><path style="opacity:1" fill="#512b26" d="M 65.5,81.5 C 64.5987,82.2905 63.9321,83.2905 63.5,84.5C 62.5184,87.9619 62.185,91.6286 62.5,95.5C 61.5,95.5 60.5,95.5 59.5,95.5C 59.815,91.6286 59.4816,87.9619 58.5,84.5C 60.349,69.8885 61.1823,69.8885 61,84.5C 62.685,80.5926 64.185,76.5926 65.5,72.5C 66.3211,75.4465 66.3211,78.4465 65.5,81.5 Z"/></g>
<g><path style="opacity:1" fill="#e9ece9" d="M 6.5,80.5 C 7.43448,81.5676 7.76781,82.901 7.5,84.5C 9.83333,84.5 12.1667,84.5 14.5,84.5C 15.8333,86.8333 17.1667,89.1667 18.5,91.5C 18.2322,93.099 18.5655,94.4324 19.5,95.5C 21.0631,99.1229 20.5631,102.456 18,105.5C 8.8298,99.8967 4.99647,91.5633 6.5,80.5 Z"/></g>
<g><path style="opacity:1" fill="#f1e0c2" d="M 27.5,84.5 C 28.5,84.5 29.5,84.5 30.5,84.5C 31.3909,85.2613 32.0576,86.2613 32.5,87.5C 31.0986,88.5207 29.7653,89.5207 28.5,90.5C 27.5386,88.7354 27.2053,86.7354 27.5,84.5 Z"/></g>
<g><path style="opacity:1" fill="#0b9cd9" d="M 35.5,80.5 C 35.5569,81.609 35.8902,82.609 36.5,83.5C 36.8769,85.258 37.5435,86.9246 38.5,88.5C 37.4014,91.2956 36.4014,94.1289 35.5,97C 34.6476,98.8979 33.9809,98.7312 33.5,96.5C 35.0869,92.4564 34.7536,88.623 32.5,85C 33.5,84.6667 34.5,84.3333 35.5,84C 33.0728,82.4455 33.0728,81.2789 35.5,80.5 Z"/></g>
<g><path style="opacity:1" fill="#2b89bf" d="M 74.5,69.5 C 75.8333,69.5 76.5,70.1667 76.5,71.5C 75.6317,74.6727 75.6317,77.6727 76.5,80.5C 76.7868,83.4841 78.4535,84.8174 81.5,84.5C 81.5,85.5 81.5,86.5 81.5,87.5C 80.8614,88.0968 80.528,88.9302 80.5,90C 80.3866,91.6991 81.0532,92.8658 82.5,93.5C 82.8333,93.5 83.1667,93.5 83.5,93.5C 83.8333,94.1667 84.1667,94.8333 84.5,95.5C 86.1667,100.833 87.8333,100.833 89.5,95.5C 89.8333,94.8333 90.1667,94.1667 90.5,93.5C 91.5,93.1667 92.1667,92.5 92.5,91.5C 94.0481,91.1788 94.7148,90.1788 94.5,88.5C 94.5,87.1667 94.5,85.8333 94.5,84.5C 96.8333,84.5 99.1667,84.5 101.5,84.5C 101.232,86.099 101.566,87.4324 102.5,88.5C 102.5,93.8333 102.5,99.1667 102.5,104.5C 98.1591,106.334 94.1591,108.667 90.5,111.5C 90.0894,110.738 89.9227,109.738 90,108.5C 88.8989,106.606 87.5655,105.939 86,106.5C 85.5357,105.906 85.369,105.239 85.5,104.5C 83.5165,104.617 81.8498,103.95 80.5,102.5C 79.914,102.709 79.414,103.043 79,103.5C 76.1874,101.541 73.1874,99.8744 70,98.5C 69.586,98.9574 69.086,99.2907 68.5,99.5C 66.7049,98.7349 64.8716,98.0682 63,97.5C 60.1636,97.6132 57.3302,97.6132 54.5,97.5C 52.6112,96.2584 50.6112,96.2584 48.5,97.5C 44.5198,99.1647 40.5198,100.831 36.5,102.5C 36.6495,103.552 36.4828,104.552 36,105.5C 34.9887,104.663 33.8221,104.33 32.5,104.5C 34.2294,103.764 35.2294,102.43 35.5,100.5C 36.9638,95.5728 39.4638,91.2394 43,87.5C 43.4643,88.0944 43.631,88.7611 43.5,89.5C 42.4249,91.8555 42.4249,94.1889 43.5,96.5C 44.8118,93.2512 45.8118,89.9179 46.5,86.5C 47.3382,86.8417 47.6716,87.5084 47.5,88.5C 47.1924,90.924 47.5258,93.2573 48.5,95.5C 49.4656,93.604 49.7989,91.604 49.5,89.5C 50.4511,88.0813 50.7845,86.4147 50.5,84.5C 50.8333,84.5 51.1667,84.5 51.5,84.5C 52.3382,84.8417 52.6716,85.5084 52.5,86.5C 51.5233,89.2869 51.19,92.2869 51.5,95.5C 53.7925,95.7564 55.9592,95.4231 58,94.5C 58.4983,91.1832 58.665,87.8499 58.5,84.5C 59.4816,87.9619 59.815,91.6286 59.5,95.5C 60.5,95.5 61.5,95.5 62.5,95.5C 62.185,91.6286 62.5184,87.9619 63.5,84.5C 63.5,88.1667 63.5,91.8333 63.5,95.5C 64.5,95.5 65.5,95.5 66.5,95.5C 66.3354,92.4816 66.502,89.4816 67,86.5C 67.1829,89.3647 67.6829,92.0314 68.5,94.5C 69.1667,97.1667 69.8333,97.1667 70.5,94.5C 70.1984,91.9407 70.5318,89.6074 71.5,87.5C 72.003,90.8458 72.6697,94.1792 73.5,97.5C 74.814,93.3493 74.4807,89.3493 72.5,85.5C 70.5207,80.0067 71.1874,74.6734 74.5,69.5 Z"/></g>
<g><path style="opacity:1" fill="#532216" d="M 46.5,86.5 C 45.8118,89.9179 44.8118,93.2512 43.5,96.5C 42.4249,94.1889 42.4249,91.8555 43.5,89.5C 44.1814,87.8415 45.0147,86.1749 46,84.5C 46.4643,85.0944 46.631,85.7611 46.5,86.5 Z"/></g>
<g><path style="opacity:1" fill="#562519" d="M 72.5,85.5 C 74.4807,89.3493 74.814,93.3493 73.5,97.5C 72.6697,94.1792 72.003,90.8458 71.5,87.5C 71.3284,86.5084 71.6618,85.8417 72.5,85.5 Z"/></g>
<g><path style="opacity:1" fill="#f0e109" d="M 81.5,87.5 C 85.8244,87.9272 90.1578,88.2605 94.5,88.5C 94.7148,90.1788 94.0481,91.1788 92.5,91.5C 91.2921,90.7659 89.9587,90.4326 88.5,90.5C 88.2852,92.1788 88.9519,93.1788 90.5,93.5C 90.1667,94.1667 89.8333,94.8333 89.5,95.5C 87.8333,95.5 86.1667,95.5 84.5,95.5C 84.1667,94.8333 83.8333,94.1667 83.5,93.5C 88.7839,92.1963 88.7839,90.8629 83.5,89.5C 82.5713,90.6888 82.238,92.0222 82.5,93.5C 81.0532,92.8658 80.3866,91.6991 80.5,90C 80.528,88.9302 80.8614,88.0968 81.5,87.5 Z"/></g>
<g><path style="opacity:1" fill="#f1e406" d="M 32.5,93.5 C 32.6309,92.6236 32.2975,91.9569 31.5,91.5C 30.4305,92.9095 29.0972,93.9095 27.5,94.5C 27.4326,93.0413 27.7659,91.7079 28.5,90.5C 29.9305,90.5792 31.2638,90.2458 32.5,89.5C 33.782,90.9584 33.782,92.2918 32.5,93.5 Z"/></g>
<g><path style="opacity:1" fill="#ed5823" d="M 83.5,93.5 C 83.1667,93.5 82.8333,93.5 82.5,93.5C 82.238,92.0222 82.5713,90.6888 83.5,89.5C 88.7839,90.8629 88.7839,92.1963 83.5,93.5 Z"/></g>
<g><path style="opacity:1" fill="#e5771c" d="M 92.5,91.5 C 92.1667,92.5 91.5,93.1667 90.5,93.5C 88.9519,93.1788 88.2852,92.1788 88.5,90.5C 89.9587,90.4326 91.2921,90.7659 92.5,91.5 Z"/></g>
<g><path style="opacity:1" fill="#db671b" d="M 32.5,93.5 C 32.5,93.8333 32.5,94.1667 32.5,94.5C 30.368,94.5544 29.0347,95.5544 28.5,97.5C 27.596,96.791 27.2627,95.791 27.5,94.5C 29.0972,93.9095 30.4305,92.9095 31.5,91.5C 32.2975,91.9569 32.6309,92.6236 32.5,93.5 Z"/></g>
<g><path style="opacity:1" fill="#692418" d="M 49.5,89.5 C 49.7989,91.604 49.4656,93.604 48.5,95.5C 47.5258,93.2573 47.1924,90.924 47.5,88.5C 48.9665,85.7417 49.6332,86.075 49.5,89.5 Z"/></g>
<g><path style="opacity:1" fill="#701c13" d="M 70.5,94.5 C 69.8333,97.1667 69.1667,97.1667 68.5,94.5C 68.3359,91.8127 68.5026,89.146 69,86.5C 69.1829,89.3647 69.6829,92.0314 70.5,94.5 Z"/></g>
<g><path style="opacity:1" fill="#e5df15" d="M 32.5,94.5 C 32.5,95.5 32.5,96.5 32.5,97.5C 30.965,98.3543 29.6316,98.3543 28.5,97.5C 29.0347,95.5544 30.368,94.5544 32.5,94.5 Z"/></g>
<g><path style="opacity:1" fill="#eadabb" d="M 28.5,103.5 C 28.5,105.5 28.5,107.5 28.5,109.5C 27.8333,110.5 27.1667,111.5 26.5,112.5C 26.665,109.15 26.4983,105.817 26,102.5C 24.8512,105.393 24.3512,108.393 24.5,111.5C 23.6851,112.429 22.8518,113.429 22,114.5C 21.8595,112.744 22.3595,111.078 23.5,109.5C 22.4425,109.094 21.1092,109.094 19.5,109.5C 19.767,106.125 20.767,102.958 22.5,100C 22.2645,99.1268 21.9312,98.2935 21.5,97.5C 23.0453,96.5481 24.712,96.2148 26.5,96.5C 26.4095,99.1522 27.0762,101.485 28.5,103.5 Z"/></g>
<g><path style="opacity:1" fill="#262aa6" d="M 54.5,97.5 C 52.4658,97.5342 50.4658,97.5342 48.5,97.5C 50.6112,96.2584 52.6112,96.2584 54.5,97.5 Z"/></g>
<g><path style="opacity:1" fill="#bdb088" d="M 84.5,95.5 C 86.1667,95.5 87.8333,95.5 89.5,95.5C 87.8333,100.833 86.1667,100.833 84.5,95.5 Z"/></g>
<g><path style="opacity:1" fill="#e9eef2" d="M 48.5,97.5 C 50.4658,97.5342 52.4658,97.5342 54.5,97.5C 57.3302,97.6132 60.1636,97.6132 63,97.5C 64.8716,98.0682 66.7049,98.7349 68.5,99.5C 69.086,99.2907 69.586,98.9574 70,98.5C 73.1874,99.8744 76.1874,101.541 79,103.5C 79.414,103.043 79.914,102.709 80.5,102.5C 81.8498,103.95 83.5165,104.617 85.5,104.5C 85.369,105.239 85.5357,105.906 86,106.5C 87.5655,105.939 88.8989,106.606 90,108.5C 89.9227,109.738 90.0894,110.738 90.5,111.5C 94.1591,108.667 98.1591,106.334 102.5,104.5C 102.5,106.5 102.5,108.5 102.5,110.5C 100.811,111.931 98.8113,112.764 96.5,113C 94.9854,116.371 91.9854,118.705 87.5,120C 85.5,120.667 83.5,120.667 81.5,120C 82.7059,118.982 82.3726,118.482 80.5,118.5C 78.3344,118.43 78.0011,119.096 79.5,120.5C 76.9135,121.48 74.2469,121.813 71.5,121.5C 71.1667,121.5 70.8333,121.5 70.5,121.5C 72.751,120.589 74.751,119.256 76.5,117.5C 79.3443,116.942 82.1776,116.275 85,115.5C 86.3261,115.755 87.3261,116.422 88,117.5C 88.6924,116.975 89.1924,116.308 89.5,115.5C 87.7349,113.947 85.9015,113.614 84,114.5C 82.3257,113.324 80.8257,111.99 79.5,110.5C 78.4777,110.855 77.811,111.522 77.5,112.5C 76.2921,111.766 74.9587,111.433 73.5,111.5C 72.1667,112.833 70.8333,112.833 69.5,111.5C 67.3647,109.631 64.6981,108.964 61.5,109.5C 62.9124,103.586 60.579,101.92 54.5,104.5C 53.5481,106.045 53.2148,107.712 53.5,109.5C 52.209,109.263 51.209,109.596 50.5,110.5C 47.8478,110.41 45.5145,111.076 43.5,112.5C 40.9716,113.011 38.4716,113.678 36,114.5C 34.4672,114.227 32.9672,113.894 31.5,113.5C 29.4677,112.952 28.4677,111.619 28.5,109.5C 29.8696,107.828 31.2029,106.161 32.5,104.5C 33.8221,104.33 34.9887,104.663 36,105.5C 36.4828,104.552 36.6495,103.552 36.5,102.5C 40.5198,100.831 44.5198,99.1647 48.5,97.5 Z"/></g>
<g><path style="opacity:1" fill="#2c6ea8" d="M 31.5,104.5 C 31.8333,104.5 32.1667,104.5 32.5,104.5C 31.2029,106.161 29.8696,107.828 28.5,109.5C 28.5,107.5 28.5,105.5 28.5,103.5C 28.238,102.022 28.5713,100.689 29.5,99.5C 30.1698,101.291 30.8365,102.958 31.5,104.5 Z"/></g>
<g><path style="opacity:1" fill="#ab651a" d="M 32.5,99.5 C 33.609,99.5569 34.609,99.8902 35.5,100.5C 35.2294,102.43 34.2294,103.764 32.5,104.5C 32.1667,104.5 31.8333,104.5 31.5,104.5C 31.2155,102.585 31.5489,100.919 32.5,99.5 Z"/></g>
<g><path style="opacity:1" fill="#8a5824" d="M 85.5,104.5 C 84.2266,101.099 85.56,99.766 89.5,100.5C 89.5,101.833 89.5,103.167 89.5,104.5C 88.1667,104.5 86.8333,104.5 85.5,104.5 Z"/></g>
<g><path style="opacity:1" fill="#b1b324" d="M 61.5,109.5 C 59.6208,110.341 57.6208,110.675 55.5,110.5C 55.1583,109.662 54.4916,109.328 53.5,109.5C 53.2148,107.712 53.5481,106.045 54.5,104.5C 60.579,101.92 62.9124,103.586 61.5,109.5 Z"/></g>
<g><path style="opacity:1" fill="#16729a" d="M 55.5,105.5 C 57.1667,105.5 58.8333,105.5 60.5,105.5C 60.5,106.5 60.5,107.5 60.5,108.5C 58.8333,108.5 57.1667,108.5 55.5,108.5C 55.5,107.5 55.5,106.5 55.5,105.5 Z"/></g>
<g><path style="opacity:1" fill="#2b2c9b" d="M 50.5,110.5 C 51.209,109.596 52.209,109.263 53.5,109.5C 54.4916,109.328 55.1583,109.662 55.5,110.5C 53.9563,110.711 52.2897,110.711 50.5,110.5 Z"/></g>
<g><path style="opacity:1" fill="#282da6" d="M 61.5,109.5 C 64.6981,108.964 67.3647,109.631 69.5,111.5C 66.6697,111.037 64.003,110.371 61.5,109.5 Z"/></g>
<g><path style="opacity:1" fill="#e2d4bb" d="M 61.5,109.5 C 64.003,110.371 66.6697,111.037 69.5,111.5C 70.8333,112.833 72.1667,112.833 73.5,111.5C 74.8952,113.379 76.8952,114.379 79.5,114.5C 78.6935,115.728 77.6935,116.728 76.5,117.5C 75.0413,117.433 73.7079,117.766 72.5,118.5C 66.5731,112.554 59.5731,111.054 51.5,114C 49.3762,115.122 47.5429,116.622 46,118.5C 44.9887,117.663 43.8221,117.33 42.5,117.5C 41.8333,116.833 41.1667,116.167 40.5,115.5C 41.3065,114.272 42.3065,113.272 43.5,112.5C 45.5273,112.662 47.5273,112.495 49.5,112C 50.056,111.617 50.3893,111.117 50.5,110.5C 52.2897,110.711 53.9563,110.711 55.5,110.5C 57.6208,110.675 59.6208,110.341 61.5,109.5 Z"/></g>
<g><path style="opacity:1" fill="#929eb4" d="M 76.5,117.5 C 77.6935,116.728 78.6935,115.728 79.5,114.5C 79.1667,113.5 78.5,112.833 77.5,112.5C 77.811,111.522 78.4777,110.855 79.5,110.5C 80.8257,111.99 82.3257,113.324 84,114.5C 85.9015,113.614 87.7349,113.947 89.5,115.5C 89.1924,116.308 88.6924,116.975 88,117.5C 87.3261,116.422 86.3261,115.755 85,115.5C 82.1776,116.275 79.3443,116.942 76.5,117.5 Z"/></g>
<g><path style="opacity:1" fill="#6d5fac" d="M 50.5,110.5 C 50.3893,111.117 50.056,111.617 49.5,112C 47.5273,112.495 45.5273,112.662 43.5,112.5C 45.5145,111.076 47.8478,110.41 50.5,110.5 Z"/></g>
<g><path style="opacity:1" fill="#5755ac" d="M 73.5,111.5 C 74.9587,111.433 76.2921,111.766 77.5,112.5C 78.5,112.833 79.1667,113.5 79.5,114.5C 76.8952,114.379 74.8952,113.379 73.5,111.5 Z"/></g>
<g><path style="opacity:1" fill="#504b54" d="M 28.5,109.5 C 28.4677,111.619 29.4677,112.952 31.5,113.5C 31.5,113.833 31.5,114.167 31.5,114.5C 30.1667,114.5 28.8333,114.5 27.5,114.5C 27.5,115.833 27.5,117.167 27.5,118.5C 26.5386,116.735 26.2053,114.735 26.5,112.5C 27.1667,111.5 27.8333,110.5 28.5,109.5 Z"/></g>
<g><path style="opacity:1" fill="#6d6022" d="M 72.5,118.5 C 72.1583,119.338 71.4916,119.672 70.5,119.5C 64.5805,113.926 57.9139,113.093 50.5,117C 49.1772,117.816 48.5106,118.983 48.5,120.5C 46.1815,120.008 44.1815,119.008 42.5,117.5C 43.8221,117.33 44.9887,117.663 46,118.5C 47.5429,116.622 49.3762,115.122 51.5,114C 59.5731,111.054 66.5731,112.554 72.5,118.5 Z"/></g>
<g><path style="opacity:1" fill="#42403b" d="M 6.5,56.5 C 6.5,57.1667 6.5,57.8333 6.5,58.5C 6.5,60.5 6.5,62.5 6.5,64.5C 6.5,69.8333 6.5,75.1667 6.5,80.5C 4.99647,91.5633 8.8298,99.8967 18,105.5C 20.5631,102.456 21.0631,99.1229 19.5,95.5C 18.5655,94.4324 18.2322,93.099 18.5,91.5C 21.0545,92.388 23.7212,92.7214 26.5,92.5C 26.1936,89.6146 26.5269,86.9479 27.5,84.5C 27.2053,86.7354 27.5386,88.7354 28.5,90.5C 27.7659,91.7079 27.4326,93.0413 27.5,94.5C 27.2627,95.791 27.596,96.791 28.5,97.5C 29.6316,98.3543 30.965,98.3543 32.5,97.5C 32.5,98.1667 32.5,98.8333 32.5,99.5C 31.5489,100.919 31.2155,102.585 31.5,104.5C 30.8365,102.958 30.1698,101.291 29.5,99.5C 28.5713,100.689 28.238,102.022 28.5,103.5C 27.0762,101.485 26.4095,99.1522 26.5,96.5C 24.712,96.2148 23.0453,96.5481 21.5,97.5C 21.9312,98.2935 22.2645,99.1268 22.5,100C 20.767,102.958 19.767,106.125 19.5,109.5C 21.1092,109.094 22.4425,109.094 23.5,109.5C 22.3595,111.078 21.8595,112.744 22,114.5C 22.8518,113.429 23.6851,112.429 24.5,111.5C 25.9639,114.904 24.9639,117.238 21.5,118.5C 20.1667,114.5 18.8333,114.5 17.5,118.5C 16.8333,118.167 16.1667,117.833 15.5,117.5C 16.5475,114.211 17.0475,110.878 17,107.5C 13.6667,104.167 10.3333,100.833 7,97.5C 6.66667,109.5 6.33333,121.5 6,133.5C 5.11858,93.816 5.28525,68.1493 6.5,56.5 Z"/></g>
<g><path style="opacity:1" fill="#b4a414" d="M 19.5,95.5 C 20.1522,94.2749 21.3189,93.6083 23,93.5C 24.1667,93.8333 25.3333,94.1667 26.5,94.5C 24.2573,95.4742 21.924,95.8076 19.5,95.5 Z"/></g>
<g><path style="opacity:1" fill="#3b46ac" d="M 43.5,112.5 C 42.3065,113.272 41.3065,114.272 40.5,115.5C 38.8333,115.5 37.1667,115.5 35.5,115.5C 34.0413,115.567 32.7079,115.234 31.5,114.5C 31.5,114.167 31.5,113.833 31.5,113.5C 32.9672,113.894 34.4672,114.227 36,114.5C 38.4716,113.678 40.9716,113.011 43.5,112.5 Z"/></g>
<g><path style="opacity:1" fill="#e9d8bb" d="M 70.5,119.5 C 70.1667,119.5 69.8333,119.5 69.5,119.5C 62.3833,116.71 55.3833,117.043 48.5,120.5C 48.5106,118.983 49.1772,117.816 50.5,117C 57.9139,113.093 64.5805,113.926 70.5,119.5 Z"/></g>
<g><path style="opacity:1" fill="#353635" d="M 35.5,115.5 C 37.1667,115.5 38.8333,115.5 40.5,115.5C 41.1667,116.167 41.8333,116.833 42.5,117.5C 39.9327,117.279 37.5994,116.612 35.5,115.5 Z"/></g>
<g><path style="opacity:1" fill="#4e934b" d="M 26.5,112.5 C 26.2053,114.735 26.5386,116.735 27.5,118.5C 29.9907,121.079 30.9907,124.246 30.5,128C 30.1667,130.167 29.8333,132.333 29.5,134.5C 28.8243,133.398 28.1577,132.398 27.5,131.5C 27.7845,129.585 27.4511,127.919 26.5,126.5C 26.3215,123.784 25.8215,121.117 25,118.5C 24.5045,120.473 24.3379,122.473 24.5,124.5C 23.1667,124.167 21.8333,123.833 20.5,123.5C 20.9528,122.542 21.6195,121.708 22.5,121C 16.5198,122.337 12.5198,120.003 10.5,114C 11.1667,113.333 11.8333,113.333 12.5,114C 13.1634,115.518 14.1634,116.685 15.5,117.5C 16.1667,117.833 16.8333,118.167 17.5,118.5C 18.8333,119.833 20.1667,119.833 21.5,118.5C 24.9639,117.238 25.9639,114.904 24.5,111.5C 24.3512,108.393 24.8512,105.393 26,102.5C 26.4983,105.817 26.665,109.15 26.5,112.5 Z"/></g>
<g><path style="opacity:1" fill="#e3eadb" d="M 21.5,118.5 C 20.1667,119.833 18.8333,119.833 17.5,118.5C 18.8333,114.5 20.1667,114.5 21.5,118.5 Z"/></g>
<g><path style="opacity:1" fill="#e2eada" d="M 26.5,126.5 C 25.8333,126.5 25.1667,126.5 24.5,126.5C 24.5,125.833 24.5,125.167 24.5,124.5C 24.3379,122.473 24.5045,120.473 25,118.5C 25.8215,121.117 26.3215,123.784 26.5,126.5 Z"/></g>
<g><path style="opacity:1" fill="#473b2c" d="M 76.5,117.5 C 74.751,119.256 72.751,120.589 70.5,121.5C 69.2921,122.234 67.9587,122.567 66.5,122.5C 66.2525,124.858 66.9192,126.858 68.5,128.5C 66.1432,128.663 63.8098,128.497 61.5,128C 62.7932,127.51 64.1266,127.343 65.5,127.5C 65.5,125.5 65.5,123.5 65.5,121.5C 65.3691,120.624 65.7025,119.957 66.5,119.5C 66.8333,120.167 67.1667,120.833 67.5,121.5C 68.5223,121.145 69.189,120.478 69.5,119.5C 69.8333,119.5 70.1667,119.5 70.5,119.5C 71.4916,119.672 72.1583,119.338 72.5,118.5C 73.7079,117.766 75.0413,117.433 76.5,117.5 Z"/></g>
<g><path style="opacity:1" fill="#e7d7b9" d="M 65.5,121.5 C 65.5,123.5 65.5,125.5 65.5,127.5C 64.1266,127.343 62.7932,127.51 61.5,128C 63.8098,128.497 66.1432,128.663 68.5,128.5C 69.1098,129.391 69.4431,130.391 69.5,131.5C 68.0222,131.238 66.6888,131.571 65.5,132.5C 66.9584,133.782 68.2918,133.782 69.5,132.5C 70.9798,134.935 70.4798,135.602 68,134.5C 64.5571,135.864 64.7238,136.531 68.5,136.5C 68.3394,140.723 69.006,144.723 70.5,148.5C 67.7212,148.721 65.0545,148.388 62.5,147.5C 60.7484,145.754 59.4151,143.754 58.5,141.5C 59.8118,134.962 59.8118,128.295 58.5,121.5C 60.8587,120.286 63.192,120.286 65.5,121.5 Z"/></g>
<g><path style="opacity:1" fill="#6b7b72" d="M 102.5,110.5 C 102.5,111.167 102.5,111.833 102.5,112.5C 96.1471,118.011 88.8137,121.511 80.5,123C 79.8742,123.75 79.3742,124.584 79,125.5C 77.5993,123.808 75.7659,123.141 73.5,123.5C 72.5,123.167 71.8333,122.5 71.5,121.5C 74.2469,121.813 76.9135,121.48 79.5,120.5C 78.0011,119.096 78.3344,118.43 80.5,118.5C 82.3726,118.482 82.7059,118.982 81.5,120C 83.5,120.667 85.5,120.667 87.5,120C 91.9854,118.705 94.9854,116.371 96.5,113C 98.8113,112.764 100.811,111.931 102.5,110.5 Z"/></g>
<g><path style="opacity:1" fill="#867327" d="M 70.5,121.5 C 70.8333,121.5 71.1667,121.5 71.5,121.5C 71.8333,122.5 72.5,123.167 73.5,123.5C 73.825,131.019 73.4916,138.352 72.5,145.5C 71.7812,140.882 71.2812,136.215 71,131.5C 70.7645,129.881 69.9311,128.881 68.5,128.5C 66.9192,126.858 66.2525,124.858 66.5,122.5C 67.9587,122.567 69.2921,122.234 70.5,121.5 Z"/></g>
<g><path style="opacity:1" fill="#181513" d="M 15.5,124.5 C 16.9187,123.549 18.5853,123.216 20.5,123.5C 21.8333,123.833 23.1667,124.167 24.5,124.5C 24.5,125.167 24.5,125.833 24.5,126.5C 21.5979,125.422 18.5979,124.756 15.5,124.5 Z"/></g>
<g><path style="opacity:1" fill="#b79c39" d="M 48.5,121.5 C 52.0945,121.215 55.4279,122.048 58.5,124C 54.5443,125.114 54.5443,125.947 58.5,126.5C 58.5,131.5 58.5,136.5 58.5,141.5C 59.4151,143.754 60.7484,145.754 62.5,147.5C 58.4629,147.307 55.4629,145.474 53.5,142C 51.4024,141.322 49.4024,141.489 47.5,142.5C 47.1755,135.313 47.5088,128.313 48.5,121.5 Z"/></g>
<g><path style="opacity:1" fill="#11100f" d="M 15.5,124.5 C 14.6993,126.042 14.366,127.708 14.5,129.5C 14.366,127.708 14.6993,126.042 15.5,124.5 Z"/></g>
<g><path style="opacity:1" fill="#b0191b" d="M 15.5,124.5 C 18.5979,124.756 21.5979,125.422 24.5,126.5C 26.0723,128.867 25.739,130.867 23.5,132.5C 21.606,129.967 19.106,128.3 16,127.5C 15.7216,128.416 15.2216,129.082 14.5,129.5C 14.366,127.708 14.6993,126.042 15.5,124.5 Z"/></g>
<g><path style="opacity:1" fill="#82712a" d="M 69.5,119.5 C 69.189,120.478 68.5223,121.145 67.5,121.5C 67.1667,120.833 66.8333,120.167 66.5,119.5C 65.7025,119.957 65.3691,120.624 65.5,121.5C 63.192,120.286 60.8587,120.286 58.5,121.5C 59.8118,128.295 59.8118,134.962 58.5,141.5C 58.5,136.5 58.5,131.5 58.5,126.5C 54.5443,125.947 54.5443,125.114 58.5,124C 55.4279,122.048 52.0945,121.215 48.5,121.5C 48.5,121.167 48.5,120.833 48.5,120.5C 55.3833,117.043 62.3833,116.71 69.5,119.5 Z"/></g>
<g><path style="opacity:1" fill="#2d211a" d="M 24.5,126.5 C 25.1667,126.5 25.8333,126.5 26.5,126.5C 27.4511,127.919 27.7845,129.585 27.5,131.5C 25.5214,133.168 23.188,133.834 20.5,133.5C 20.3068,137.449 19.8068,137.449 19,133.5C 18.1307,138.508 17.4641,138.175 17,132.5C 16.6667,132.833 16.3333,133.167 16,133.5C 15.2086,132.255 14.7086,130.922 14.5,129.5C 15.2216,129.082 15.7216,128.416 16,127.5C 19.106,128.3 21.606,129.967 23.5,132.5C 25.739,130.867 26.0723,128.867 24.5,126.5 Z"/></g>
<g><path style="opacity:1" fill="#b33626" d="M 69.5,131.5 C 69.5,131.833 69.5,132.167 69.5,132.5C 68.2918,133.782 66.9584,133.782 65.5,132.5C 66.6888,131.571 68.0222,131.238 69.5,131.5 Z"/></g>
<g><path style="opacity:1" fill="#d7342e" d="M 6.5,135.5 C 9.22545,136.713 11.5588,138.546 13.5,141C 11.6499,143.018 9.64991,144.851 7.5,146.5C 5.97567,144.142 3.97567,142.309 1.5,141C 3.68574,139.588 5.3524,137.755 6.5,135.5 Z"/></g>
<g><path style="opacity:1" fill="#d7342e" d="M 100.5,135.5 C 102.915,137.064 105.248,138.898 107.5,141C 105.024,142.309 103.024,144.142 101.5,146.5C 99.3501,144.851 97.3501,143.018 95.5,141C 97.3734,139.296 99.0401,137.463 100.5,135.5 Z"/></g>
<g><path style="opacity:1" fill="#a7b0b0" d="M 44.5,143.5 C 44.1667,144.5 43.5,145.167 42.5,145.5C 41.2971,138.045 40.2971,130.545 39.5,123C 38.953,117.626 40.1196,117.126 43,121.5C 43.7348,123.871 44.5682,126.205 45.5,128.5C 44.675,129.386 43.675,129.719 42.5,129.5C 42.2204,132.196 42.8871,136.862 44.5,143.5 Z"/></g>
<g><path style="opacity:1" fill="#d62a27" d="M 85.5,139.5 C 89.4154,141.743 92.7488,144.743 95.5,148.5C 92.1458,151.021 89.3124,154.021 87,157.5C 84.5,153.667 81.3333,150.5 77.5,148C 81.0705,145.932 83.7371,143.099 85.5,139.5 Z"/></g>
<g><path style="opacity:1" fill="#3f403e" d="M 61.5,141.5 C 63.0348,140.212 64.7015,140.212 66.5,141.5C 64.9052,142.434 63.2385,142.434 61.5,141.5 Z"/></g>
<g><path style="opacity:1" fill="#5a564b" d="M 68.5,128.5 C 69.9311,128.881 70.7645,129.881 71,131.5C 71.2812,136.215 71.7812,140.882 72.5,145.5C 72.7422,148.687 71.4089,151.353 68.5,153.5C 67.4262,151.716 65.7596,150.549 63.5,150C 58.6314,148.292 53.6314,147.125 48.5,146.5C 46.8241,145.272 46.4908,143.939 47.5,142.5C 49.4024,141.489 51.4024,141.322 53.5,142C 55.4629,145.474 58.4629,147.307 62.5,147.5C 65.0545,148.388 67.7212,148.721 70.5,148.5C 69.006,144.723 68.3394,140.723 68.5,136.5C 64.7238,136.531 64.5571,135.864 68,134.5C 70.4798,135.602 70.9798,134.935 69.5,132.5C 69.5,132.167 69.5,131.833 69.5,131.5C 69.4431,130.391 69.1098,129.391 68.5,128.5 Z"/></g>
<g><path style="opacity:1" fill="#a2873a" d="M 47.5,142.5 C 46.4908,143.939 46.8241,145.272 48.5,146.5C 53.6314,147.125 58.6314,148.292 63.5,150C 65.7596,150.549 67.4262,151.716 68.5,153.5C 67.0824,155.187 65.7491,157.02 64.5,159C 62.3825,159.26 60.7158,160.26 59.5,162C 71.5,162.333 83.5,162.667 95.5,163C 68.1667,163.667 40.8333,163.667 13.5,163C 26.1667,162.667 38.8333,162.333 51.5,162C 50.2625,161.768 49.2625,161.268 48.5,160.5C 48.585,158.071 49.585,156.071 51.5,154.5C 50.9984,153.479 50.3317,153.312 49.5,154C 48.2189,155.409 47.2189,156.909 46.5,158.5C 44.2901,158.106 42.9568,156.773 42.5,154.5C 44.5274,152.82 46.8608,151.653 49.5,151C 48.8921,150.13 48.0588,149.63 47,149.5C 45.2691,150.741 43.4358,151.741 41.5,152.5C 41.298,150.05 41.6314,147.717 42.5,145.5C 43.5,145.167 44.1667,144.5 44.5,143.5C 45.391,142.89 46.391,142.557 47.5,142.5 Z"/></g>
<g><path style="opacity:1" fill="#d73631" d="M 4.5,150.5 C 6.16667,150.5 7.83333,150.5 9.5,150.5C 9.5,155.167 9.5,159.833 9.5,164.5C 7.5328,164.739 5.69946,164.406 4,163.5C 3.23158,159.08 3.39825,154.747 4.5,150.5 Z"/></g>
<g><path style="opacity:1" fill="#d73631" d="M 100.5,150.5 C 102.167,150.5 103.833,150.5 105.5,150.5C 105.5,155.167 105.5,159.833 105.5,164.5C 103.533,164.739 101.699,164.406 100,163.5C 99.2316,159.08 99.3982,154.747 100.5,150.5 Z"/></g>
<g><path style="opacity:1" fill="#5c5a4d" d="M 42.5,154.5 C 41.6618,154.158 41.3284,153.492 41.5,152.5C 43.4358,151.741 45.2691,150.741 47,149.5C 48.0588,149.63 48.8921,150.13 49.5,151C 46.8608,151.653 44.5274,152.82 42.5,154.5 Z"/></g>
<g><path style="opacity:1" fill="#eff5e4" d="M 5.5,152.5 C 6.77725,153.694 7.44392,155.36 7.5,157.5C 7.16667,159.167 6.83333,160.833 6.5,162.5C 5.51298,159.232 5.17964,155.898 5.5,152.5 Z"/></g>
<g><path style="opacity:1" fill="#eff5e4" d="M 101.5,152.5 C 102.777,153.694 103.444,155.36 103.5,157.5C 103.167,159.167 102.833,160.833 102.5,162.5C 101.513,159.232 101.18,155.898 101.5,152.5 Z"/></g>
<g><path style="opacity:1" fill="#5b5a4d" d="M 48.5,160.5 C 47.1667,160.5 46.5,159.833 46.5,158.5C 47.2189,156.909 48.2189,155.409 49.5,154C 50.3317,153.312 50.9984,153.479 51.5,154.5C 49.585,156.071 48.585,158.071 48.5,160.5 Z"/></g>
</svg>
