<?xml version="1.0" encoding="UTF-8"?>
<!DOCTYPE svg PUBLIC "-//W3C//DTD SVG 1.1//EN" "http://www.w3.org/Graphics/SVG/1.1/DTD/svg11.dtd">
<svg xmlns="http://www.w3.org/2000/svg" version="1.1" width="110px" height="170px" style="shape-rendering:geometricPrecision; text-rendering:geometricPrecision; image-rendering:optimizeQuality; fill-rule:evenodd; clip-rule:evenodd" xmlns:xlink="http://www.w3.org/1999/xlink">
<g><path style="opacity:1" fill="#edf3e2" d="M -0.5,-0.5 C 36.1667,-0.5 72.8333,-0.5 109.5,-0.5C 109.5,56.1667 109.5,112.833 109.5,169.5C 72.8333,169.5 36.1667,169.5 -0.5,169.5C -0.5,112.833 -0.5,56.1667 -0.5,-0.5 Z"/></g>
<g><path style="opacity:1" fill="#d62e2a" d="M 2.5,4.5 C 4.11709,5.58935 4.95042,7.25602 5,9.5C 8.91996,2.71708 9.7533,2.88375 7.5,10C 8.22391,12.7792 9.22391,15.4459 10.5,18C 9.55198,18.4828 8.55198,18.6495 7.5,18.5C 6.61413,10.694 5.2808,10.694 3.5,18.5C 2.50671,13.8804 2.17338,9.21369 2.5,4.5 Z"/></g>
<g><path style="opacity:1" fill="#d62e2a" d="M 98.5,4.5 C 100.117,5.58935 100.95,7.25602 101,9.5C 104.92,2.71708 105.753,2.88375 103.5,10C 104.224,12.7792 105.224,15.4459 106.5,18C 105.552,18.4828 104.552,18.6495 103.5,18.5C 102.614,10.694 101.281,10.694 99.5,18.5C 98.5067,13.8804 98.1734,9.21369 98.5,4.5 Z"/></g>
<g><path style="opacity:1" fill="#1c191b" d="M 91.5,10.5 C 90.8333,10.5 90.5,10.1667 90.5,9.5C 90.5,8.5 90.5,7.5 90.5,6.5C 82.1667,6.5 73.8333,6.5 65.5,6.5C 63.1667,6.5 60.8333,6.5 58.5,6.5C 55.8333,6.5 53.1667,6.5 50.5,6.5C 50.1667,6.5 49.8333,6.5 49.5,6.5C 48.8333,6.5 48.1667,6.5 47.5,6.5C 46.8333,6.5 46.1667,6.5 45.5,6.5C 44.1667,6.5 42.8333,6.5 41.5,6.5C 40.5,6.5 39.5,6.5 38.5,6.5C 38.1667,6.5 37.8333,6.5 37.5,6.5C 42.1383,5.04657 60.1383,5.04657 91.5,6.5C 91.5,7.83333 91.5,9.16667 91.5,10.5 Z"/></g>
<g><path style="opacity:1" fill="#f0e8d7" d="M 41.5,6.5 C 42.8333,6.5 44.1667,6.5 45.5,6.5C 46.1228,8.71053 47.1228,10.7105 48.5,12.5C 46.6208,13.3414 44.6208,13.6747 42.5,13.5C 42.1757,12.1879 41.5091,11.3546 40.5,11C 40.9891,9.86151 41.3225,8.69484 41.5,7.5C 41.5,7.16667 41.5,6.83333 41.5,6.5 Z"/></g>
<g><path style="opacity:1" fill="#eeeada" d="M 50.5,6.5 C 53.1667,6.5 55.8333,6.5 58.5,6.5C 57.4489,7.22235 56.7822,8.22235 56.5,9.5C 56.5,10.1667 56.1667,10.5 55.5,10.5C 54.8333,10.8333 54.1667,11.1667 53.5,11.5C 53.1667,11.5 52.8333,11.5 52.5,11.5C 51.8333,9.83333 51.1667,8.16667 50.5,6.5 Z"/></g>
<g><path style="opacity:1" fill="#ecf3e2" d="M 65.5,6.5 C 73.8333,6.5 82.1667,6.5 90.5,6.5C 90.5,7.5 90.5,8.5 90.5,9.5C 88.8372,11.4385 88.1706,13.7718 88.5,16.5C 86.9735,17.4919 86.3068,18.9919 86.5,21C 87.3757,26.1438 87.3757,31.3105 86.5,36.5C 86.7373,37.791 86.404,38.791 85.5,39.5C 84.3773,41.688 84.3773,44.0213 85.5,46.5C 84.8333,46.5 84.5,46.8333 84.5,47.5C 83.5386,49.2646 83.2053,51.2646 83.5,53.5C 80.8097,52.454 78.1431,51.454 75.5,50.5C 72.37,48.8731 69.0366,47.5397 65.5,46.5C 64.5,46.1667 63.8333,45.5 63.5,44.5C 63.4326,43.0413 63.7659,41.7079 64.5,40.5C 64.4486,38.4305 65.1153,36.5971 66.5,35C 66.4301,34.2352 66.0967,33.7352 65.5,33.5C 65.6716,32.5084 65.3382,31.8417 64.5,31.5C 64.5,29.1667 64.5,26.8333 64.5,24.5C 64.5,24.1667 64.5,23.8333 64.5,23.5C 66.0861,22.5868 67.5861,22.5868 69,23.5C 69.658,21.892 69.158,20.7253 67.5,20C 68.5,19 69.5,18 70.5,17C 68.4971,16.6655 66.8304,15.8321 65.5,14.5C 65.5,11.8333 65.5,9.16667 65.5,6.5 Z"/></g>
<g><path style="opacity:1" fill="#df8c2e" d="M 58.5,6.5 C 60.8333,6.5 63.1667,6.5 65.5,6.5C 65.5,9.16667 65.5,11.8333 65.5,14.5C 63.5,13.1667 61.5,13.1667 59.5,14.5C 60.1098,13.609 60.4431,12.609 60.5,11.5C 59.8166,9.82351 58.4832,9.15684 56.5,9.5C 56.7822,8.22235 57.4489,7.22235 58.5,6.5 Z"/></g>
<g><path style="opacity:1" fill="#e25d1d" d="M 37.5,6.5 C 37.8333,6.5 38.1667,6.5 38.5,6.5C 38.573,8.02694 37.9063,9.02694 36.5,9.5C 36.5569,8.39105 36.8902,7.39105 37.5,6.5 Z"/></g>
<g><path style="opacity:1" fill="#e5d309" d="M 38.5,6.5 C 39.5,6.5 40.5,6.5 41.5,6.5C 41.5,6.83333 41.5,7.16667 41.5,7.5C 38.7236,9.4388 38.057,11.9388 39.5,15C 38.5509,15.6172 37.7175,15.4506 37,14.5C 36.51,13.2068 36.3433,11.8734 36.5,10.5C 36.5,10.1667 36.5,9.83333 36.5,9.5C 37.9063,9.02694 38.573,8.02694 38.5,6.5 Z"/></g>
<g><path style="opacity:1" fill="#e56630" d="M 45.5,6.5 C 46.1667,6.5 46.8333,6.5 47.5,6.5C 47.4148,7.99525 48.0815,8.99525 49.5,9.5C 50.087,8.76662 50.087,7.76662 49.5,6.5C 49.8333,6.5 50.1667,6.5 50.5,6.5C 51.1667,8.16667 51.8333,9.83333 52.5,11.5C 51.0413,11.4326 49.7079,11.7659 48.5,12.5C 47.1228,10.7105 46.1228,8.71053 45.5,6.5 Z"/></g>
<g><path style="opacity:1" fill="#e5dc05" d="M 47.5,6.5 C 48.1667,6.5 48.8333,6.5 49.5,6.5C 50.087,7.76662 50.087,8.76662 49.5,9.5C 48.0815,8.99525 47.4148,7.99525 47.5,6.5 Z"/></g>
<g><path style="opacity:1" fill="#e6472d" d="M 55.5,10.5 C 55.6107,11.1174 55.944,11.6174 56.5,12C 55.2506,12.7401 54.2506,12.5735 53.5,11.5C 54.1667,11.1667 54.8333,10.8333 55.5,10.5 Z"/></g>
<g><path style="opacity:1" fill="#eb3a24" d="M 60.5,11.5 C 60.4431,12.609 60.1098,13.609 59.5,14.5C 59.1667,14.5 58.8333,14.5 58.5,14.5C 57.0857,12.4017 57.7524,11.4017 60.5,11.5 Z"/></g>
<g><path style="opacity:1" fill="#d62a27" d="M 21.5,11.5 C 24.306,15.1373 27.6393,18.3039 31.5,21C 28.0205,23.3124 25.0205,26.1458 22.5,29.5C 19.1667,26.8333 16.1667,23.8333 13.5,20.5C 16.9031,18.1002 19.5698,15.1002 21.5,11.5 Z"/></g>
<g><path style="opacity:1" fill="#f02627" d="M 44.5,17.5 C 43.8333,17.8333 43.1667,18.1667 42.5,18.5C 41.4019,17.603 41.4019,16.7697 42.5,16C 43.816,15.4719 44.4827,15.9719 44.5,17.5 Z"/></g>
<g><path style="opacity:1" fill="#d7ac20" d="M 56.5,9.5 C 58.4832,9.15684 59.8166,9.82351 60.5,11.5C 57.7524,11.4017 57.0857,12.4017 58.5,14.5C 56.7085,14.366 55.0418,14.6993 53.5,15.5C 52.4605,12.6119 51.1271,12.2786 49.5,14.5C 49.6236,15.1067 49.9569,15.44 50.5,15.5C 48.3256,14.9013 46.3256,15.5679 44.5,17.5C 44.4827,15.9719 43.816,15.4719 42.5,16C 41.4019,16.7697 41.4019,17.603 42.5,18.5C 41.5,18.5 40.5,18.5 39.5,18.5C 39.6495,19.552 39.4828,20.552 39,21.5C 37.9609,20.2899 36.7942,19.2899 35.5,18.5C 35.5,18.1667 35.5,17.8333 35.5,17.5C 36.8016,16.1931 38.135,16.1931 39.5,17.5C 40.1497,15.8164 41.1497,14.4831 42.5,13.5C 44.6208,13.6747 46.6208,13.3414 48.5,12.5C 49.7079,11.7659 51.0413,11.4326 52.5,11.5C 52.8333,11.5 53.1667,11.5 53.5,11.5C 54.2506,12.5735 55.2506,12.7401 56.5,12C 55.944,11.6174 55.6107,11.1174 55.5,10.5C 56.1667,10.5 56.5,10.1667 56.5,9.5 Z"/></g>
<g><path style="opacity:1" fill="#ed3325" d="M 53.5,15.5 C 52.5,15.5 51.5,15.5 50.5,15.5C 49.9569,15.44 49.6236,15.1067 49.5,14.5C 51.1271,12.2786 52.4605,12.6119 53.5,15.5 Z"/></g>
<g><path style="opacity:1" fill="#e85d3f" d="M 41.5,7.5 C 41.3225,8.69484 40.9891,9.86151 40.5,11C 41.5091,11.3546 42.1757,12.1879 42.5,13.5C 41.1497,14.4831 40.1497,15.8164 39.5,17.5C 38.135,16.1931 36.8016,16.1931 35.5,17.5C 34.7611,17.631 34.0944,17.4643 33.5,17C 34.9918,15.0088 35.9918,12.8422 36.5,10.5C 36.3433,11.8734 36.51,13.2068 37,14.5C 37.7175,15.4506 38.5509,15.6172 39.5,15C 38.057,11.9388 38.7236,9.4388 41.5,7.5 Z"/></g>
<g><path style="opacity:1" fill="#3f8e47" d="M 65.5,14.5 C 66.8304,15.8321 68.4971,16.6655 70.5,17C 69.5,18 68.5,19 67.5,20C 69.158,20.7253 69.658,21.892 69,23.5C 67.5861,22.5868 66.0861,22.5868 64.5,23.5C 58.253,21.7732 51.9197,22.9399 45.5,27C 43.8876,27.7203 42.3876,27.5536 41,26.5C 40.6667,28.1667 40.3333,29.8333 40,31.5C 39.2303,32.5981 38.397,32.5981 37.5,31.5C 37.4606,30.4168 37.1272,29.4168 36.5,28.5C 34.5767,27.6922 32.5767,27.1922 30.5,27C 31.9842,25.4263 33.6508,24.093 35.5,23C 34.1991,21.3845 34.1991,19.8845 35.5,18.5C 36.7942,19.2899 37.9609,20.2899 39,21.5C 39.4828,20.552 39.6495,19.552 39.5,18.5C 40.5,18.5 41.5,18.5 42.5,18.5C 43.1667,18.1667 43.8333,17.8333 44.5,17.5C 46.3256,15.5679 48.3256,14.9013 50.5,15.5C 51.5,15.5 52.5,15.5 53.5,15.5C 55.0418,14.6993 56.7085,14.366 58.5,14.5C 58.8333,14.5 59.1667,14.5 59.5,14.5C 61.5,13.1667 63.5,13.1667 65.5,14.5 Z"/></g>
<g><path style="opacity:1" fill="#8e7c30" d="M 64.5,23.5 C 64.5,23.8333 64.5,24.1667 64.5,24.5C 64.1667,24.5 63.8333,24.5 63.5,24.5C 59.112,25.2229 54.7787,26.2229 50.5,27.5C 50.6279,31.3854 50.7945,35.0521 51,38.5C 54.2132,42.5235 58.3799,44.5235 63.5,44.5C 63.8333,45.5 64.5,46.1667 65.5,46.5C 66.038,48.1172 66.3713,49.7839 66.5,51.5C 64.0107,51.2407 62.344,52.2407 61.5,54.5C 61.1667,54.5 60.8333,54.5 60.5,54.5C 60.5394,53.4168 60.8728,52.4168 61.5,51.5C 57.8084,50.4362 54.1417,49.2696 50.5,48C 48.9588,46.4207 47.7922,44.5873 47,42.5C 46.3292,41.7476 45.4959,41.4142 44.5,41.5C 42.7354,40.5386 40.7354,40.2053 38.5,40.5C 37.5028,40.5299 36.8361,40.0299 36.5,39C 36.3698,36.5822 36.7032,34.0822 37.5,31.5C 38.397,32.5981 39.2303,32.5981 40,31.5C 40.3333,29.8333 40.6667,28.1667 41,26.5C 42.3876,27.5536 43.8876,27.7203 45.5,27C 51.9197,22.9399 58.253,21.7732 64.5,23.5 Z"/></g>
<g><path style="opacity:1" fill="#d7342d" d="M 6.5,22.5 C 9.22545,23.713 11.5588,25.5464 13.5,28C 11.6499,30.0176 9.64991,31.8509 7.5,33.5C 5.67589,31.5107 3.67589,29.6774 1.5,28C 4.07904,26.9243 5.74571,25.091 6.5,22.5 Z"/></g>
<g><path style="opacity:1" fill="#ad2319" d="M 37.5,22.5 C 39.9701,23.3603 40.1368,24.6936 38,26.5C 36.2317,25.3181 36.0651,23.9848 37.5,22.5 Z"/></g>
<g><path style="opacity:1" fill="#796725" d="M 90.5,9.5 C 90.5,10.1667 90.8333,10.5 91.5,10.5C 92.008,13.3886 92.6747,16.2219 93.5,19C 91.3173,23.5675 90.3173,28.4008 90.5,33.5C 89.8964,38.0436 88.5631,42.377 86.5,46.5C 86.1667,46.5 85.8333,46.5 85.5,46.5C 84.3773,44.0213 84.3773,41.688 85.5,39.5C 86.0915,42.0828 86.7582,42.0828 87.5,39.5C 88.3311,37.5269 88.4978,35.5269 88,33.5C 87.7679,34.7375 87.2679,35.7375 86.5,36.5C 87.3757,31.3105 87.3757,26.1438 86.5,21C 86.3068,18.9919 86.9735,17.4919 88.5,16.5C 88.1706,13.7718 88.8372,11.4385 90.5,9.5 Z"/></g>
<g><path style="opacity:1" fill="#b12b18" d="M 88.5,16.5 C 89.675,16.281 90.675,16.6143 91.5,17.5C 90.253,23.837 89.253,23.5036 88.5,16.5 Z"/></g>
<g><path style="opacity:1" fill="#d7342e" d="M 100.5,22.5 C 102.628,24.4458 104.961,26.2791 107.5,28C 105.324,29.6774 103.324,31.5107 101.5,33.5C 99.3501,31.8509 97.3501,30.0176 95.5,28C 97.3734,26.2962 99.0401,24.4628 100.5,22.5 Z"/></g>
<g><path style="opacity:1" fill="#e2ccb7" d="M 63.5,24.5 C 61.6948,26.1969 59.3615,27.0302 56.5,27C 58.8912,27.6914 58.8912,28.6914 56.5,30C 57.9346,29.6888 59.2679,29.8555 60.5,30.5C 62.3497,29.7582 63.0164,28.7582 62.5,27.5C 63.1719,28.9492 63.8386,30.2825 64.5,31.5C 65.3382,31.8417 65.6716,32.5084 65.5,33.5C 65.631,34.2389 65.4643,34.9056 65,35.5C 64,35.1667 63,34.8333 62,34.5C 62.1484,35.825 61.9817,36.9916 61.5,38C 59.5,38.3333 57.5,38.6667 55.5,39C 57.5364,39.4536 59.3697,40.2869 61,41.5C 62.1385,41.0109 63.3052,40.6775 64.5,40.5C 63.7659,41.7079 63.4326,43.0413 63.5,44.5C 58.3799,44.5235 54.2132,42.5235 51,38.5C 50.7945,35.0521 50.6279,31.3854 50.5,27.5C 54.7787,26.2229 59.112,25.2229 63.5,24.5 Z"/></g>
<g><path style="opacity:1" fill="#54534f" d="M 63.5,24.5 C 63.8333,24.5 64.1667,24.5 64.5,24.5C 64.5,26.8333 64.5,29.1667 64.5,31.5C 63.8386,30.2825 63.1719,28.9492 62.5,27.5C 63.0164,28.7582 62.3497,29.7582 60.5,30.5C 59.2679,29.8555 57.9346,29.6888 56.5,30C 58.8912,28.6914 58.8912,27.6914 56.5,27C 59.3615,27.0302 61.6948,26.1969 63.5,24.5 Z"/></g>
<g><path style="opacity:1" fill="#e0da07" d="M 85.5,39.5 C 86.404,38.791 86.7373,37.791 86.5,36.5C 87.2679,35.7375 87.7679,34.7375 88,33.5C 88.4978,35.5269 88.3311,37.5269 87.5,39.5C 86.7582,42.0828 86.0915,42.0828 85.5,39.5 Z"/></g>
<g><path style="opacity:1" fill="#7a6b34" d="M 65.5,33.5 C 66.0967,33.7352 66.4301,34.2352 66.5,35C 65.1153,36.5971 64.4486,38.4305 64.5,40.5C 63.3052,40.6775 62.1385,41.0109 61,41.5C 59.3697,40.2869 57.5364,39.4536 55.5,39C 57.5,38.6667 59.5,38.3333 61.5,38C 61.9817,36.9916 62.1484,35.825 62,34.5C 63,34.8333 64,35.1667 65,35.5C 65.4643,34.9056 65.631,34.2389 65.5,33.5 Z"/></g>
<g><path style="opacity:1" fill="#decbbb" d="M 44.5,41.5 C 45.4959,41.4142 46.3292,41.7476 47,42.5C 47.7922,44.5873 48.9588,46.4207 50.5,48C 54.1417,49.2696 57.8084,50.4362 61.5,51.5C 60.8728,52.4168 60.5394,53.4168 60.5,54.5C 60.1667,55.5 59.5,56.1667 58.5,56.5C 56.9826,56.5106 55.8159,57.1772 55,58.5C 54.6666,56.9532 55.1666,55.6199 56.5,54.5C 56.3764,53.8933 56.0431,53.56 55.5,53.5C 51.7685,52.8045 47.9352,52.1378 44,51.5C 43.6271,49.3018 43.1271,47.1351 42.5,45C 42.8082,43.5405 43.4749,42.3739 44.5,41.5 Z"/></g>
<g><path style="opacity:1" fill="#d9d10d" d="M 85.5,46.5 C 85.8333,46.5 86.1667,46.5 86.5,46.5C 87.3543,47.6316 87.3543,48.965 86.5,50.5C 86.7852,52.288 86.4519,53.9547 85.5,55.5C 84.52,52.9135 84.1866,50.2469 84.5,47.5C 84.5,46.8333 84.8333,46.5 85.5,46.5 Z"/></g>
<g><path style="opacity:1" fill="#a39120" d="M 90.5,33.5 C 90.7839,36.7766 90.4505,39.9433 89.5,43C 90.1667,43.3333 90.8333,43.6667 91.5,44C 90.6433,44.6891 89.9767,45.5224 89.5,46.5C 90.2238,50.3602 90.2238,54.0268 89.5,57.5C 89.573,59.0269 88.9063,60.0269 87.5,60.5C 87.1667,60.5 86.8333,60.5 86.5,60.5C 85.791,59.596 84.791,59.2627 83.5,59.5C 83.5,58.8333 83.5,58.1667 83.5,57.5C 84.6879,56.3157 85.8545,56.3157 87,57.5C 87.7958,54.9615 87.6291,52.6282 86.5,50.5C 87.3543,48.965 87.3543,47.6316 86.5,46.5C 88.5631,42.377 89.8964,38.0436 90.5,33.5 Z"/></g>
<g><path style="opacity:1" fill="#cb2a10" d="M 40.5,46.5 C 40.5,47.8333 40.5,49.1667 40.5,50.5C 38.2641,51.5462 36.2641,52.8795 34.5,54.5C 31.6769,55.9923 30.0102,58.3257 29.5,61.5C 28.3254,65.0424 27.6587,68.7091 27.5,72.5C 27.5,73.1667 27.5,73.8333 27.5,74.5C 22.1463,74.4312 16.813,74.0978 11.5,73.5C 14.7852,67.0474 19.6186,62.0474 26,58.5C 27.4961,56.5497 27.6627,54.5497 26.5,52.5C 26.15,54.2675 25.3167,56.2675 24,58.5C 16.6157,62.8842 10.949,68.8842 7,76.5C 6.50137,72.8484 6.3347,69.1817 6.5,65.5C 11.2694,60.2286 16.2694,55.062 21.5,50C 27.7403,48.4174 34.0736,47.2507 40.5,46.5 Z"/></g>
<g><path style="opacity:1" fill="#573e18" d="M 84.5,47.5 C 84.1866,50.2469 84.52,52.9135 85.5,55.5C 86.4519,53.9547 86.7852,52.288 86.5,50.5C 87.6291,52.6282 87.7958,54.9615 87,57.5C 85.8545,56.3157 84.6879,56.3157 83.5,57.5C 83.5,56.1667 83.5,54.8333 83.5,53.5C 83.2053,51.2646 83.5386,49.2646 84.5,47.5 Z"/></g>
<g><path style="opacity:1" fill="#96948a" d="M 38.5,40.5 C 40.7354,40.2053 42.7354,40.5386 44.5,41.5C 43.4749,42.3739 42.8082,43.5405 42.5,45C 43.1271,47.1351 43.6271,49.3018 44,51.5C 47.9352,52.1378 51.7685,52.8045 55.5,53.5C 52.3273,53.4012 49.3273,54.0678 46.5,55.5C 47.1667,55.8333 47.8333,56.1667 48.5,56.5C 47.3554,57.891 47.3554,59.2243 48.5,60.5C 49.4274,58.8872 50.2607,57.2205 51,55.5C 51.3845,57.1966 51.2178,58.8632 50.5,60.5C 47.29,61.558 44.29,60.8913 41.5,58.5C 40.5269,56.0521 40.1936,53.3854 40.5,50.5C 40.5,49.1667 40.5,47.8333 40.5,46.5C 41.3007,44.9582 41.634,43.2915 41.5,41.5C 40.209,41.7373 39.209,41.404 38.5,40.5 Z"/></g>
<g><path style="opacity:1" fill="#ca2a0e" d="M 75.5,50.5 C 78.1431,51.454 80.8097,52.454 83.5,53.5C 83.5,54.8333 83.5,56.1667 83.5,57.5C 83.5,58.1667 83.5,58.8333 83.5,59.5C 83.6349,62.4175 82.9682,65.0842 81.5,67.5C 79.7868,68.6354 79.1201,70.302 79.5,72.5C 79.2155,74.4147 79.5489,76.0813 80.5,77.5C 81.2341,78.7079 81.5674,80.0413 81.5,81.5C 81.5,82.5 81.5,83.5 81.5,84.5C 79.1667,84.5 76.8333,84.5 74.5,84.5C 73.8333,84.5 73.1667,84.5 72.5,84.5C 71.9007,77.3837 74.0674,71.3837 79,66.5C 81.5154,59.3813 79.3487,54.2146 72.5,51C 73.448,50.5172 74.448,50.3505 75.5,50.5 Z"/></g>
<g><path style="opacity:1" fill="#756417" d="M 73.5,54.5 C 74.5514,57.8551 75.5514,61.3551 76.5,65C 74.0865,68.3346 72.0865,71.8346 70.5,75.5C 69.8504,68.1611 70.8504,61.1611 73.5,54.5 Z"/></g>
<g><path style="opacity:1" fill="#b22513" d="M 65.5,46.5 C 69.0366,47.5397 72.37,48.8731 75.5,50.5C 74.448,50.3505 73.448,50.5172 72.5,51C 79.3487,54.2146 81.5154,59.3813 79,66.5C 74.0674,71.3837 71.9007,77.3837 72.5,84.5C 68.8284,85.0447 69.1617,85.3781 73.5,85.5C 73.5323,87.6188 72.5323,88.9522 70.5,89.5C 69.0582,88.1805 68.3915,86.5138 68.5,84.5C 67.5,84.5 66.5,84.5 65.5,84.5C 66.8466,81.8068 68.1799,79.1401 69.5,76.5C 70.1667,76.5 70.5,76.1667 70.5,75.5C 72.0865,71.8346 74.0865,68.3346 76.5,65C 75.5514,61.3551 74.5514,57.8551 73.5,54.5C 73.5,53.8333 73.1667,53.5 72.5,53.5C 71.2921,52.7659 69.9587,52.4326 68.5,52.5C 68.1583,51.6618 67.4916,51.3284 66.5,51.5C 66.3713,49.7839 66.038,48.1172 65.5,46.5 Z"/></g>
<g><path style="opacity:1" fill="#cd2c11" d="M 89.5,57.5 C 93.88,61.2341 97.0467,65.9008 99,71.5C 100.113,72.305 101.279,72.9717 102.5,73.5C 102.851,79.2617 102.351,84.9284 101,90.5C 100.751,89.376 100.251,88.376 99.5,87.5C 95.9289,86.9185 92.5956,85.9185 89.5,84.5C 93.226,84.8226 96.8927,84.4892 100.5,83.5C 99.1349,82.059 97.6349,80.7256 96,79.5C 95.2952,76.5243 94.1286,73.8577 92.5,71.5C 91.7003,69.3175 90.2003,67.6508 88,66.5C 87.5045,64.5273 87.3379,62.5273 87.5,60.5C 88.9063,60.0269 89.573,59.0269 89.5,57.5 Z"/></g>
<g><path style="opacity:1" fill="#c6c31e" d="M 72.5,53.5 C 73.1667,53.5 73.5,53.8333 73.5,54.5C 70.8504,61.1611 69.8504,68.1611 70.5,75.5C 70.5,76.1667 70.1667,76.5 69.5,76.5C 68.564,72.2648 68.2307,67.9315 68.5,63.5C 69.8307,60.1711 71.164,56.8377 72.5,53.5 Z"/></g>
<g><path style="opacity:1" fill="#2e96c1" d="M 68.5,63.5 C 68.2307,67.9315 68.564,72.2648 69.5,76.5C 68.1799,79.1401 66.8466,81.8068 65.5,84.5C 63.5,84.5 61.5,84.5 59.5,84.5C 58.8333,84.5 58.1667,84.5 57.5,84.5C 56.8196,83.1725 56.8196,81.5059 57.5,79.5C 56.3002,78.7084 54.9669,78.7084 53.5,79.5C 53.5858,78.5041 53.2524,77.6708 52.5,77C 54.4019,75.2703 56.0686,73.437 57.5,71.5C 58.2186,73.7638 58.552,76.0971 58.5,78.5C 59.9305,78.4208 61.2638,78.7542 62.5,79.5C 63.4803,78.0186 64.647,76.6853 66,75.5C 65.2453,71.24 66.0787,67.24 68.5,63.5 Z"/></g>
<g><path style="opacity:1" fill="#b3c9d6" d="M 34.5,54.5 C 34.3814,61.0215 35.3814,67.3548 37.5,73.5C 35.8958,74.287 35.2291,75.6203 35.5,77.5C 32.562,77.7267 30.2287,76.7267 28.5,74.5C 28.1667,74.5 27.8333,74.5 27.5,74.5C 27.5,73.8333 27.5,73.1667 27.5,72.5C 30.4019,69.1728 31.0685,65.5062 29.5,61.5C 30.0102,58.3257 31.6769,55.9923 34.5,54.5 Z"/></g>
<g><path style="opacity:1" fill="#42281e" d="M 83.5,59.5 C 84.791,59.2627 85.791,59.596 86.5,60.5C 86.8333,60.5 87.1667,60.5 87.5,60.5C 87.3379,62.5273 87.5045,64.5273 88,66.5C 90.2003,67.6508 91.7003,69.3175 92.5,71.5C 89.3025,68.9886 85.6358,67.6553 81.5,67.5C 82.9682,65.0842 83.6349,62.4175 83.5,59.5 Z"/></g>
<g><path style="opacity:1" fill="#bb171c" d="M 86.5,60.5 C 86.7989,62.604 86.4656,64.604 85.5,66.5C 84.2433,64.2014 84.5767,62.2014 86.5,60.5 Z"/></g>
<g><path style="opacity:1" fill="#443931" d="M 81.5,67.5 C 82.2625,68.2679 83.2625,68.7679 84.5,69C 80.0684,69.6228 79.7351,70.6228 83.5,72C 82.2068,72.49 80.8734,72.6567 79.5,72.5C 79.1201,70.302 79.7868,68.6354 81.5,67.5 Z"/></g>
<g><path style="opacity:1" fill="#d6beab" d="M 81.5,67.5 C 85.6358,67.6553 89.3025,68.9886 92.5,71.5C 94.1286,73.8577 95.2952,76.5243 96,79.5C 97.6349,80.7256 99.1349,82.059 100.5,83.5C 96.8927,84.4892 93.226,84.8226 89.5,84.5C 88.5,84.1667 87.8333,83.5 87.5,82.5C 85.4504,80.4525 83.117,78.7859 80.5,77.5C 79.5489,76.0813 79.2155,74.4147 79.5,72.5C 80.8734,72.6567 82.2068,72.49 83.5,72C 79.7351,70.6228 80.0684,69.6228 84.5,69C 83.2625,68.7679 82.2625,68.2679 81.5,67.5 Z"/></g>
<g><path style="opacity:1" fill="#c2b72b" d="M 29.5,61.5 C 31.0685,65.5062 30.4019,69.1728 27.5,72.5C 27.6587,68.7091 28.3254,65.0424 29.5,61.5 Z"/></g>
<g><path style="opacity:1" fill="#ef1a2b" d="M 31.5,70.5 C 35.5878,70.2184 36.0878,70.8851 33,72.5C 31.9701,72.1639 31.4701,71.4972 31.5,70.5 Z"/></g>
<g><path style="opacity:1" fill="#aaa019" d="M 40.5,50.5 C 40.1936,53.3854 40.5269,56.0521 41.5,58.5C 42.066,64.0975 43.566,69.4309 46,74.5C 50.8021,68.8776 54.9688,62.8776 58.5,56.5C 59.5,56.1667 60.1667,55.5 60.5,54.5C 60.8333,54.5 61.1667,54.5 61.5,54.5C 62.344,52.2407 64.0107,51.2407 66.5,51.5C 67.4916,51.3284 68.1583,51.6618 68.5,52.5C 65.6027,59.2967 61.936,65.63 57.5,71.5C 56.0686,73.437 54.4019,75.2703 52.5,77C 53.2524,77.6708 53.5858,78.5041 53.5,79.5C 50.7026,79.9666 49.3692,81.6333 49.5,84.5C 47.5,84.5 45.5,84.5 43.5,84.5C 42.5,84.5 41.5,84.5 40.5,84.5C 40.6085,82.4862 39.9418,80.8195 38.5,79.5C 39.2389,79.631 39.9056,79.4643 40.5,79C 39.3913,77.1239 38.3913,75.2905 37.5,73.5C 35.3814,67.3548 34.3814,61.0215 34.5,54.5C 36.2641,52.8795 38.2641,51.5462 40.5,50.5 Z"/></g>
<g><path style="opacity:1" fill="#b13115" d="M 39.5,67.5 C 41.0481,67.8212 41.7148,68.8212 41.5,70.5C 38.7524,70.5983 38.0857,69.5983 39.5,67.5 Z"/></g>
<g><path style="opacity:1" fill="#b63011" d="M 55.5,64.5 C 58.6741,64.9522 59.0075,65.9522 56.5,67.5C 54.4807,66.8671 54.1474,65.8671 55.5,64.5 Z"/></g>
<g><path style="opacity:1" fill="#b02c14" d="M 37.5,61.5 C 41.31,62.7542 41.31,63.7542 37.5,64.5C 37.5,63.5 37.5,62.5 37.5,61.5 Z"/></g>
<g><path style="opacity:1" fill="#ab2412" d="M 58.5,59.5 C 61.9571,59.6672 62.2904,60.6672 59.5,62.5C 58.6143,61.675 58.281,60.675 58.5,59.5 Z"/></g>
<g><path style="opacity:1" fill="#4297bf" d="M 55.5,53.5 C 56.0431,53.56 56.3764,53.8933 56.5,54.5C 55.1666,55.6199 54.6666,56.9532 55,58.5C 55.8159,57.1772 56.9826,56.5106 58.5,56.5C 54.9688,62.8776 50.8021,68.8776 46,74.5C 43.566,69.4309 42.066,64.0975 41.5,58.5C 44.29,60.8913 47.29,61.558 50.5,60.5C 52.3462,58.2948 54.0128,55.9614 55.5,53.5 Z"/></g>
<g><path style="opacity:1" fill="#b12a15" d="M 36.5,55.5 C 40.31,56.7542 40.31,57.7542 36.5,58.5C 36.5,57.5 36.5,56.5 36.5,55.5 Z"/></g>
<g><path style="opacity:1" fill="#aa2412" d="M 61.5,54.5 C 62.5,54.5 63.5,54.5 64.5,54.5C 63.7542,58.31 62.7542,58.31 61.5,54.5 Z"/></g>
<g><path style="opacity:1" fill="#e4e7e3" d="M 55.5,53.5 C 54.0128,55.9614 52.3462,58.2948 50.5,60.5C 51.2178,58.8632 51.3845,57.1966 51,55.5C 50.2607,57.2205 49.4274,58.8872 48.5,60.5C 47.3554,59.2243 47.3554,57.891 48.5,56.5C 47.8333,56.1667 47.1667,55.8333 46.5,55.5C 49.3273,54.0678 52.3273,53.4012 55.5,53.5 Z"/></g>
<g><path style="opacity:1" fill="#b02614" d="M 51.5,69.5 C 52.5,69.5 53.5,69.5 54.5,69.5C 54.5,70.5 54.5,71.5 54.5,72.5C 53.5,72.5 52.5,72.5 51.5,72.5C 51.5,71.5 51.5,70.5 51.5,69.5 Z"/></g>
<g><path style="opacity:1" fill="#5cbcea" d="M 37.5,73.5 C 38.3913,75.2905 39.3913,77.1239 40.5,79C 39.9056,79.4643 39.2389,79.631 38.5,79.5C 38.6309,78.6236 38.2975,77.9569 37.5,77.5C 36.4096,78.727 35.0762,79.5604 33.5,80C 34.8333,81 34.8333,82 33.5,83C 34.0944,83.4643 34.7611,83.631 35.5,83.5C 36.1667,83.5 36.5,83.8333 36.5,84.5C 33.8333,84.5 31.1667,84.5 28.5,84.5C 27.5,84.5 26.5,84.5 25.5,84.5C 25.1667,84.5 24.8333,84.5 24.5,84.5C 24.9543,81.747 26.621,80.0803 29.5,79.5C 29.1373,78.8165 28.8039,78.1499 28.5,77.5C 28.5,76.5 28.5,75.5 28.5,74.5C 30.2287,76.7267 32.562,77.7267 35.5,77.5C 35.2291,75.6203 35.8958,74.287 37.5,73.5 Z"/></g>
<g><path style="opacity:1" fill="#564014" d="M 11.5,73.5 C 16.813,74.0978 22.1463,74.4312 27.5,74.5C 27.8333,74.5 28.1667,74.5 28.5,74.5C 28.5,75.5 28.5,76.5 28.5,77.5C 22.1021,77.7573 15.7688,77.2573 9.5,76C 10.0659,75.0053 10.7326,74.172 11.5,73.5 Z"/></g>
<g><path style="opacity:1" fill="#ae2514" d="M 47.5,74.5 C 50.9571,74.6672 51.2904,75.6672 48.5,77.5C 47.6143,76.675 47.281,75.675 47.5,74.5 Z"/></g>
<g><path style="opacity:1" fill="#aa1f12" d="M 41.5,73.5 C 43.4646,73.9483 43.7979,74.9483 42.5,76.5C 40.4807,75.8671 40.1474,74.8671 41.5,73.5 Z"/></g>
<g><path style="opacity:1" fill="#b6ccd8" d="M 68.5,52.5 C 69.9587,52.4326 71.2921,52.7659 72.5,53.5C 71.164,56.8377 69.8307,60.1711 68.5,63.5C 66.0787,67.24 65.2453,71.24 66,75.5C 64.647,76.6853 63.4803,78.0186 62.5,79.5C 61.2638,78.7542 59.9305,78.4208 58.5,78.5C 58.552,76.0971 58.2186,73.7638 57.5,71.5C 61.936,65.63 65.6027,59.2967 68.5,52.5 Z"/></g>
<g><path style="opacity:1" fill="#e33332" d="M 60.5,71.5 C 62.3464,71.2222 63.6798,71.8888 64.5,73.5C 62.1671,74.9415 60.8338,74.2748 60.5,71.5 Z"/></g>
<g><path style="opacity:1" fill="#822317" d="M 6.5,65.5 C 6.3347,69.1817 6.50137,72.8484 7,76.5C 10.949,68.8842 16.6157,62.8842 24,58.5C 25.3167,56.2675 26.15,54.2675 26.5,52.5C 27.6627,54.5497 27.4961,56.5497 26,58.5C 19.6186,62.0474 14.7852,67.0474 11.5,73.5C 10.7326,74.172 10.0659,75.0053 9.5,76C 15.7688,77.2573 22.1021,77.7573 28.5,77.5C 28.8039,78.1499 29.1373,78.8165 29.5,79.5C 26.621,80.0803 24.9543,81.747 24.5,84.5C 23.2223,84.7822 22.2223,85.4489 21.5,86.5C 20.5,86.1667 19.8333,85.5 19.5,84.5C 16.4044,83.0815 13.0711,82.0815 9.5,81.5C 8.74917,80.624 8.24917,79.624 8,78.5C 6.64931,84.0716 6.14931,89.7383 6.5,95.5C 5.10632,90.8683 5.10632,80.8683 6.5,65.5 Z"/></g>
<g><path style="opacity:1" fill="#dfce21" d="M 38.5,79.5 C 36.4677,80.0478 35.4677,81.3812 35.5,83.5C 34.7611,83.631 34.0944,83.4643 33.5,83C 34.8333,82 34.8333,81 33.5,80C 35.0762,79.5604 36.4096,78.727 37.5,77.5C 38.2975,77.9569 38.6309,78.6236 38.5,79.5 Z"/></g>
<g><path style="opacity:1" fill="#b4290e" d="M 44.5,78.5 C 46.6246,79.3676 46.7913,80.3676 45,81.5C 43.3167,80.8235 43.1501,79.8235 44.5,78.5 Z"/></g>
<g><path style="opacity:1" fill="#6e3e1a" d="M 80.5,77.5 C 83.117,78.7859 85.4504,80.4525 87.5,82.5C 86.7777,83.5511 85.7777,84.2178 84.5,84.5C 84.1667,84.5 83.8333,84.5 83.5,84.5C 83.7148,82.8212 83.0481,81.8212 81.5,81.5C 81.5674,80.0413 81.2341,78.7079 80.5,77.5 Z"/></g>
<g><path style="opacity:1" fill="#d73d10" d="M 53.5,79.5 C 53.9175,80.2216 54.5842,80.7216 55.5,81C 54.4092,82.5501 53.0758,83.7168 51.5,84.5C 50.8333,84.5 50.1667,84.5 49.5,84.5C 49.3692,81.6333 50.7026,79.9666 53.5,79.5 Z"/></g>
<g><path style="opacity:1" fill="#d6d407" d="M 81.5,81.5 C 83.0481,81.8212 83.7148,82.8212 83.5,84.5C 82.8333,84.5 82.1667,84.5 81.5,84.5C 81.5,83.5 81.5,82.5 81.5,81.5 Z"/></g>
<g><path style="opacity:1" fill="#d7c1ad" d="M 19.5,84.5 C 19.8333,85.5 20.5,86.1667 21.5,86.5C 22.9448,88.0627 24.6115,89.396 26.5,90.5C 28.9118,90.6941 29.9118,92.0274 29.5,94.5C 28.7703,96.045 27.437,96.8784 25.5,97C 29.2649,98.3772 28.9316,99.3772 24.5,100C 25.7375,100.232 26.7375,100.732 27.5,101.5C 23.301,101.564 19.6343,100.231 16.5,97.5C 15.2092,95.051 14.2092,92.3844 13.5,89.5C 11.6841,88.1851 10.0175,86.6851 8.5,85C 12.1516,84.5014 15.8183,84.3347 19.5,84.5 Z"/></g>
<g><path style="opacity:1" fill="#cc290f" d="M 28.5,84.5 C 31.1667,84.5 33.8333,84.5 36.5,84.5C 36.6857,88.3493 36.1857,92.3493 35,96.5C 33.7101,98.792 32.0435,100.792 30,102.5C 28.0846,106.623 28.418,110.623 31,114.5C 34.1371,116.986 37.6371,118.819 41.5,120C 40.552,120.483 39.552,120.649 38.5,120.5C 33.9385,119.424 29.6052,117.757 25.5,115.5C 25.5,114.167 25.5,112.833 25.5,111.5C 25.5,110.833 25.5,110.167 25.5,109.5C 25.5,108.167 25.5,106.833 25.5,105.5C 26.1667,104.167 26.8333,102.833 27.5,101.5C 29.1412,100.129 30.1412,98.2961 30.5,96C 30.4301,95.2352 30.0967,94.7352 29.5,94.5C 29.9118,92.0274 28.9118,90.6941 26.5,90.5C 26.5569,89.391 26.8902,88.391 27.5,87.5C 28.404,86.791 28.7373,85.791 28.5,84.5 Z"/></g>
<g><path style="opacity:1" fill="#b22713" d="M 38.5,79.5 C 39.9418,80.8195 40.6085,82.4862 40.5,84.5C 41.5,84.5 42.5,84.5 43.5,84.5C 42.1534,87.1932 40.8201,89.8599 39.5,92.5C 38.8333,92.5 38.5,92.8333 38.5,93.5C 36.9135,97.1654 34.9135,100.665 32.5,104C 33.4486,107.645 34.4486,111.145 35.5,114.5C 35.5,115.167 35.8333,115.5 36.5,115.5C 37.7079,116.234 39.0413,116.567 40.5,116.5C 40.8417,117.338 41.5084,117.672 42.5,117.5C 42.6287,119.216 42.962,120.883 43.5,122.5C 41.6943,121.976 40.0276,121.309 38.5,120.5C 39.552,120.649 40.552,120.483 41.5,120C 37.6371,118.819 34.1371,116.986 31,114.5C 28.418,110.623 28.0846,106.623 30,102.5C 32.0435,100.792 33.7101,98.792 35,96.5C 36.1857,92.3493 36.6857,88.3493 36.5,84.5C 36.5,83.8333 36.1667,83.5 35.5,83.5C 35.4677,81.3812 36.4677,80.0478 38.5,79.5 Z"/></g>
<g><path style="opacity:1" fill="#3597c1" d="M 43.5,84.5 C 45.5,84.5 47.5,84.5 49.5,84.5C 50.1667,84.5 50.8333,84.5 51.5,84.5C 52.7349,86.017 52.7349,87.6837 51.5,89.5C 52.2739,90.7112 53.1072,90.7112 54,89.5C 54.8333,90.3333 55.6667,91.1667 56.5,92C 54.2659,94.0627 52.2659,96.2294 50.5,98.5C 51.3549,96.1793 51.0216,93.8459 49.5,91.5C 46.7546,90.0247 44.588,90.6913 43,93.5C 43.7547,97.76 42.9213,101.76 40.5,105.5C 40.7693,101.069 40.436,96.7352 39.5,92.5C 40.8201,89.8599 42.1534,87.1932 43.5,84.5 Z"/></g>
<g><path style="opacity:1" fill="#5bbcea" d="M 74.5,84.5 C 76.8333,84.5 79.1667,84.5 81.5,84.5C 82.1667,84.5 82.8333,84.5 83.5,84.5C 83.8333,84.5 84.1667,84.5 84.5,84.5C 84.0457,87.253 82.379,88.9197 79.5,89.5C 79.8627,90.1835 80.1961,90.8501 80.5,91.5C 80.5,92.5 80.5,93.5 80.5,94.5C 78.7713,92.2733 76.438,91.2733 73.5,91.5C 73.7709,93.3797 73.1042,94.713 71.5,95.5C 70.6963,93.8113 69.6963,92.1446 68.5,90.5C 68.9569,89.7025 69.6236,89.3691 70.5,89.5C 70.3691,90.3764 70.7025,91.0431 71.5,91.5C 72.5904,90.273 73.9238,89.4396 75.5,89C 75.0879,87.4361 74.7546,85.9361 74.5,84.5 Z"/></g>
<g><path style="opacity:1" fill="#842317" d="M 102.5,103.5 C 102.665,99.8183 102.499,96.1516 102,92.5C 98.051,100.116 92.3843,106.116 85,110.5C 84.1667,112.5 83.3333,114.5 82.5,116.5C 81.3373,114.45 81.5039,112.45 83,110.5C 89.3814,106.953 94.2148,101.953 97.5,95.5C 98.2674,94.828 98.9341,93.9947 99.5,93C 93.2218,91.8119 86.8885,91.3119 80.5,91.5C 80.1961,90.8501 79.8627,90.1835 79.5,89.5C 82.379,88.9197 84.0457,87.253 84.5,84.5C 85.7777,84.2178 86.7777,83.5511 87.5,82.5C 87.8333,83.5 88.5,84.1667 89.5,84.5C 92.5956,85.9185 95.9289,86.9185 99.5,87.5C 100.251,88.376 100.751,89.376 101,90.5C 102.351,84.9284 102.851,79.2617 102.5,73.5C 103.894,78.1317 103.894,88.1317 102.5,103.5 Z"/></g>
<g><path style="opacity:1" fill="#ca2c12" d="M 19.5,84.5 C 15.8183,84.3347 12.1516,84.5014 8.5,85C 10.0175,86.6851 11.6841,88.1851 13.5,89.5C 14.2092,92.3844 15.2092,95.051 16.5,97.5C 17.2997,99.6825 18.7997,101.349 21,102.5C 21.4955,104.473 21.6621,106.473 21.5,108.5C 20.5,109.167 19.5,109.833 18.5,110.5C 14.696,106.916 11.8627,102.583 10,97.5C 8.88732,96.695 7.72065,96.0283 6.5,95.5C 6.14931,89.7383 6.64931,84.0716 8,78.5C 8.24917,79.624 8.74917,80.624 9.5,81.5C 13.0711,82.0815 16.4044,83.0815 19.5,84.5 Z"/></g>
<g><path style="opacity:1" fill="#aaa111" d="M 25.5,84.5 C 26.5,84.5 27.5,84.5 28.5,84.5C 28.7373,85.791 28.404,86.791 27.5,87.5C 25.9519,87.1788 25.2852,86.1788 25.5,84.5 Z"/></g>
<g><path style="opacity:1" fill="#633d1a" d="M 24.5,84.5 C 24.8333,84.5 25.1667,84.5 25.5,84.5C 25.2852,86.1788 25.9519,87.1788 27.5,87.5C 26.8902,88.391 26.5569,89.391 26.5,90.5C 24.6115,89.396 22.9448,88.0627 21.5,86.5C 22.2223,85.4489 23.2223,84.7822 24.5,84.5 Z"/></g>
<g><path style="opacity:1" fill="#d6cd3b" d="M 72.5,84.5 C 73.1667,84.5 73.8333,84.5 74.5,84.5C 74.7546,85.9361 75.0879,87.4361 75.5,89C 73.9238,89.4396 72.5904,90.273 71.5,91.5C 70.7025,91.0431 70.3691,90.3764 70.5,89.5C 72.5323,88.9522 73.5323,87.6188 73.5,85.5C 69.1617,85.3781 68.8284,85.0447 72.5,84.5 Z"/></g>
<g><path style="opacity:1" fill="#c5c21e" d="M 39.5,92.5 C 40.436,96.7352 40.7693,101.069 40.5,105.5C 39.1693,108.829 37.836,112.162 36.5,115.5C 35.8333,115.5 35.5,115.167 35.5,114.5C 38.0718,107.77 39.0718,100.77 38.5,93.5C 38.5,92.8333 38.8333,92.5 39.5,92.5 Z"/></g>
<g><path style="opacity:1" fill="#533e14" d="M 80.5,91.5 C 86.8885,91.3119 93.2218,91.8119 99.5,93C 98.9341,93.9947 98.2674,94.828 97.5,95.5C 92.187,94.9022 86.8537,94.5688 81.5,94.5C 81.1667,94.5 80.8333,94.5 80.5,94.5C 80.5,93.5 80.5,92.5 80.5,91.5 Z"/></g>
<g><path style="opacity:1" fill="#cb2a10" d="M 102.5,103.5 C 97.7306,108.771 92.7306,113.938 87.5,119C 81.2488,120.573 74.9155,121.74 68.5,122.5C 68.5,121.167 68.5,119.833 68.5,118.5C 70.7359,117.454 72.7359,116.121 74.5,114.5C 77.3231,113.008 78.9898,110.674 79.5,107.5C 80.6746,103.958 81.3413,100.291 81.5,96.5C 81.5,95.8333 81.5,95.1667 81.5,94.5C 86.8537,94.5688 92.187,94.9022 97.5,95.5C 94.2148,101.953 89.3814,106.953 83,110.5C 81.5039,112.45 81.3373,114.45 82.5,116.5C 83.3333,114.5 84.1667,112.5 85,110.5C 92.3843,106.116 98.051,100.116 102,92.5C 102.499,96.1516 102.665,99.8183 102.5,103.5 Z"/></g>
<g><path style="opacity:1" fill="#756417" d="M 38.5,93.5 C 39.0718,100.77 38.0718,107.77 35.5,114.5C 34.4486,111.145 33.4486,107.645 32.5,104C 34.9135,100.665 36.9135,97.1654 38.5,93.5 Z"/></g>
<g><path style="opacity:1" fill="#4e3e33" d="M 29.5,94.5 C 30.0967,94.7352 30.4301,95.2352 30.5,96C 30.1412,98.2961 29.1412,100.129 27.5,101.5C 26.7375,100.732 25.7375,100.232 24.5,100C 28.9316,99.3772 29.2649,98.3772 25.5,97C 27.437,96.8784 28.7703,96.045 29.5,94.5 Z"/></g>
<g><path style="opacity:1" fill="#b9ced8" d="M 50.5,98.5 C 46.6473,104.205 43.3139,110.205 40.5,116.5C 39.0413,116.567 37.7079,116.234 36.5,115.5C 37.836,112.162 39.1693,108.829 40.5,105.5C 42.9213,101.76 43.7547,97.76 43,93.5C 44.588,90.6913 46.7546,90.0247 49.5,91.5C 51.0216,93.8459 51.3549,96.1793 50.5,98.5 Z"/></g>
<g><path style="opacity:1" fill="#e33332" d="M 44.5,94.5 C 46.3464,94.2222 47.6798,94.8888 48.5,96.5C 46.1671,97.9415 44.8338,97.2748 44.5,94.5 Z"/></g>
<g><path style="opacity:1" fill="#c1b623" d="M 81.5,96.5 C 81.3413,100.291 80.6746,103.958 79.5,107.5C 77.9315,103.494 78.5981,99.8272 81.5,96.5 Z"/></g>
<g><path style="opacity:1" fill="#37271f" d="M 16.5,97.5 C 19.6343,100.231 23.301,101.564 27.5,101.5C 26.8333,102.833 26.1667,104.167 25.5,105.5C 24.8423,104.602 24.1757,103.602 23.5,102.5C 22.5344,104.396 22.2011,106.396 22.5,108.5C 22.1667,108.5 21.8333,108.5 21.5,108.5C 21.6621,106.473 21.4955,104.473 21,102.5C 18.7997,101.349 17.2997,99.6825 16.5,97.5 Z"/></g>
<g><path style="opacity:1" fill="#b9ccd8" d="M 80.5,94.5 C 80.8333,94.5 81.1667,94.5 81.5,94.5C 81.5,95.1667 81.5,95.8333 81.5,96.5C 78.5981,99.8272 77.9315,103.494 79.5,107.5C 78.9898,110.674 77.3231,113.008 74.5,114.5C 74.6186,107.979 73.6186,101.645 71.5,95.5C 73.1042,94.713 73.7709,93.3797 73.5,91.5C 76.438,91.2733 78.7713,92.2733 80.5,94.5 Z"/></g>
<g><path style="opacity:1" fill="#ef1a2b" d="M 74.5,96.5 C 75.675,96.281 76.675,96.6143 77.5,97.5C 76.277,98.6139 74.9437,98.7805 73.5,98C 74.056,97.6174 74.3893,97.1174 74.5,96.5 Z"/></g>
<g><path style="opacity:1" fill="#882016" d="M 25.5,105.5 C 25.5,106.833 25.5,108.167 25.5,109.5C 24.209,109.737 23.209,109.404 22.5,108.5C 22.2011,106.396 22.5344,104.396 23.5,102.5C 24.1757,103.602 24.8423,104.602 25.5,105.5 Z"/></g>
<g><path style="opacity:1" fill="#aca319" d="M 57.5,84.5 C 55.9242,85.2832 54.5908,86.4499 53.5,88C 57.2371,90.122 59.2371,88.9553 59.5,84.5C 61.5,84.5 63.5,84.5 65.5,84.5C 66.5,84.5 67.5,84.5 68.5,84.5C 68.3915,86.5138 69.0582,88.1805 70.5,89.5C 69.6236,89.3691 68.9569,89.7025 68.5,90.5C 69.6963,92.1446 70.6963,93.8113 71.5,95.5C 73.6186,101.645 74.6186,107.979 74.5,114.5C 72.7359,116.121 70.7359,117.454 68.5,118.5C 68.8064,115.615 68.4731,112.948 67.5,110.5C 66.934,104.902 65.434,99.5691 63,94.5C 58.9121,99.6862 55.0787,105.02 51.5,110.5C 50.5275,112.139 49.1942,113.473 47.5,114.5C 47.5,115.167 47.5,115.833 47.5,116.5C 45.6473,117.301 43.9806,117.635 42.5,117.5C 41.5084,117.672 40.8417,117.338 40.5,116.5C 43.3139,110.205 46.6473,104.205 50.5,98.5C 52.2659,96.2294 54.2659,94.0627 56.5,92C 55.6667,91.1667 54.8333,90.3333 54,89.5C 53.1072,90.7112 52.2739,90.7112 51.5,89.5C 52.7349,87.6837 52.7349,86.017 51.5,84.5C 53.0758,83.7168 54.4092,82.5501 55.5,81C 54.5842,80.7216 53.9175,80.2216 53.5,79.5C 54.9669,78.7084 56.3002,78.7084 57.5,79.5C 56.8196,81.5059 56.8196,83.1725 57.5,84.5 Z"/></g>
<g><path style="opacity:1" fill="#a92813" d="M 48.5,106.5 C 50.0481,106.821 50.7148,107.821 50.5,109.5C 47.7524,109.598 47.0857,108.598 48.5,106.5 Z"/></g>
<g><path style="opacity:1" fill="#af2c14" d="M 68.5,104.5 C 69.5,104.5 70.5,104.5 71.5,104.5C 70.7542,108.31 69.7542,108.31 68.5,104.5 Z"/></g>
<g><path style="opacity:1" fill="#b42f10" d="M 51.5,101.5 C 54.6741,101.952 55.0075,102.952 52.5,104.5C 50.4807,103.867 50.1474,102.867 51.5,101.5 Z"/></g>
<g><path style="opacity:1" fill="#af2914" d="M 67.5,98.5 C 70.9571,98.6672 71.2904,99.6672 68.5,101.5C 67.6143,100.675 67.281,99.675 67.5,98.5 Z"/></g>
<g><path style="opacity:1" fill="#319ecd" d="M 67.5,110.5 C 67.1667,110.5 66.8333,110.5 66.5,110.5C 64.1996,107.948 61.533,107.282 58.5,108.5C 58.1667,108.5 57.8333,108.5 57.5,108.5C 55.5,109.167 53.5,109.833 51.5,110.5C 55.0787,105.02 58.9121,99.6862 63,94.5C 65.434,99.5691 66.934,104.902 67.5,110.5 Z"/></g>
<g><path style="opacity:1" fill="#ae2915" d="M 54.5,96.5 C 55.5,96.5 56.5,96.5 57.5,96.5C 57.5,97.5 57.5,98.5 57.5,99.5C 56.5,99.5 55.5,99.5 54.5,99.5C 54.5,98.5 54.5,97.5 54.5,96.5 Z"/></g>
<g><path style="opacity:1" fill="#aa1f13" d="M 65.5,92.5 C 68.6741,92.9522 69.0075,93.9522 66.5,95.5C 65.6143,94.675 65.281,93.675 65.5,92.5 Z"/></g>
<g><path style="opacity:1" fill="#af2914" d="M 59.5,91.5 C 61.0481,91.8212 61.7148,92.8212 61.5,94.5C 58.7524,94.5983 58.0857,93.5983 59.5,91.5 Z"/></g>
<g><path style="opacity:1" fill="#b4290e" d="M 62.5,87.5 C 65.5476,87.494 66.0476,88.494 64,90.5C 62.9614,89.7562 62.4614,88.7562 62.5,87.5 Z"/></g>
<g><path style="opacity:1" fill="#d73f10" d="M 57.5,84.5 C 58.1667,84.5 58.8333,84.5 59.5,84.5C 59.2371,88.9553 57.2371,90.122 53.5,88C 54.5908,86.4499 55.9242,85.2832 57.5,84.5 Z"/></g>
<g><path style="opacity:1" fill="#583f19" d="M 25.5,111.5 C 25.5,112.833 25.5,114.167 25.5,115.5C 25.7947,117.735 25.4614,119.735 24.5,121.5C 24.8134,118.753 24.48,116.086 23.5,113.5C 22.5481,115.045 22.2148,116.712 22.5,118.5C 21.3709,116.372 21.2042,114.039 22,111.5C 23.1455,112.684 24.3121,112.684 25.5,111.5 Z"/></g>
<g><path style="opacity:1" fill="#747c75" d="M 66.5,110.5 C 65.7784,110.918 65.2784,111.584 65,112.5C 64.6667,111.833 64.3333,111.167 64,110.5C 63.6667,111.833 63.3333,113.167 63,114.5C 62.5518,112.776 61.7185,112.109 60.5,112.5C 61.6446,111.109 61.6446,109.776 60.5,108.5C 59.3507,110.925 58.684,110.925 58.5,108.5C 61.533,107.282 64.1996,107.948 66.5,110.5 Z"/></g>
<g><path style="opacity:1" fill="#af2514" d="M 69.5,110.5 C 70.5,110.5 71.5,110.5 72.5,110.5C 71.7542,114.31 70.7542,114.31 69.5,110.5 Z"/></g>
<g><path style="opacity:1" fill="#ae2313" d="M 47.5,114.5 C 46.5,114.5 45.5,114.5 44.5,114.5C 45.2458,110.69 46.2458,110.69 47.5,114.5 Z"/></g>
<g><path style="opacity:1" fill="#ded70a" d="M 24.5,121.5 C 23.8333,121.5 23.5,121.833 23.5,122.5C 23.1667,122.5 22.8333,122.5 22.5,122.5C 21.6457,121.368 21.6457,120.035 22.5,118.5C 22.2148,116.712 22.5481,115.045 23.5,113.5C 24.48,116.086 24.8134,118.753 24.5,121.5 Z"/></g>
<g><path style="opacity:1" fill="#929691" d="M 57.5,108.5 C 56.6241,110.98 55.2908,113.147 53.5,115C 54.8333,115.333 56.1667,115.667 57.5,116C 55.1484,116.24 53.1484,117.073 51.5,118.5C 49.5168,118.843 48.1834,118.176 47.5,116.5C 47.5,115.833 47.5,115.167 47.5,114.5C 49.1942,113.473 50.5275,112.139 51.5,110.5C 53.5,109.833 55.5,109.167 57.5,108.5 Z"/></g>
<g><path style="opacity:1" fill="#ecf4e3" d="M 25.5,115.5 C 29.6052,117.757 33.9385,119.424 38.5,120.5C 40.0276,121.309 41.6943,121.976 43.5,122.5C 44.8118,123.145 45.8118,124.145 46.5,125.5C 45.2268,128.319 43.8934,131.152 42.5,134C 42.5699,134.765 42.9033,135.265 43.5,135.5C 43.3284,136.492 43.6618,137.158 44.5,137.5C 44.5,140.167 44.5,142.833 44.5,145.5C 42.9139,146.413 41.4139,146.413 40,145.5C 39.342,147.108 39.842,148.275 41.5,149C 40.5,150 39.5,151 38.5,152C 40.9357,152.206 42.6024,153.373 43.5,155.5C 43.5,157.833 43.5,160.167 43.5,162.5C 35.1667,162.5 26.8333,162.5 18.5,162.5C 18.5,161.5 18.5,160.5 18.5,159.5C 19.9238,157.485 20.5905,155.152 20.5,152.5C 21.8799,152.038 22.5466,151.038 22.5,149.5C 21.5036,142.794 21.8369,136.127 23.5,129.5C 24.6227,127.312 24.6227,124.979 23.5,122.5C 23.5,121.833 23.8333,121.5 24.5,121.5C 25.4614,119.735 25.7947,117.735 25.5,115.5 Z"/></g>
<g><path style="opacity:1" fill="#e0cfc0" d="M 57.5,108.5 C 57.8333,108.5 58.1667,108.5 58.5,108.5C 58.684,110.925 59.3507,110.925 60.5,108.5C 61.6446,109.776 61.6446,111.109 60.5,112.5C 61.7185,112.109 62.5518,112.776 63,114.5C 63.3333,113.167 63.6667,111.833 64,110.5C 64.3333,111.167 64.6667,111.833 65,112.5C 65.2784,111.584 65.7784,110.918 66.5,110.5C 66.67,111.822 66.3366,112.989 65.5,114C 67.0356,115.599 67.5356,117.433 67,119.5C 66.0944,116.879 65.5944,117.046 65.5,120C 66.7213,122.835 66.7213,125.668 65.5,128.5C 64.2794,127.972 63.1127,127.305 62,126.5C 60.2212,121.621 56.7212,118.955 51.5,118.5C 53.1484,117.073 55.1484,116.24 57.5,116C 56.1667,115.667 54.8333,115.333 53.5,115C 55.2908,113.147 56.6241,110.98 57.5,108.5 Z"/></g>
<g><path style="opacity:1" fill="#a59121" d="M 21.5,108.5 C 21.8333,108.5 22.1667,108.5 22.5,108.5C 23.209,109.404 24.209,109.737 25.5,109.5C 25.5,110.167 25.5,110.833 25.5,111.5C 24.3121,112.684 23.1455,112.684 22,111.5C 21.2042,114.039 21.3709,116.372 22.5,118.5C 21.6457,120.035 21.6457,121.368 22.5,122.5C 20.4369,126.623 19.1036,130.956 18.5,135.5C 18.7076,133.08 18.3742,130.747 17.5,128.5C 17.9767,127.522 18.6433,126.689 19.5,126C 18.8333,125.667 18.1667,125.333 17.5,125C 19.7124,123.372 20.0458,121.372 18.5,119C 18.7725,116.849 19.4392,114.849 20.5,113C 19.6195,112.292 18.9528,111.458 18.5,110.5C 19.5,109.833 20.5,109.167 21.5,108.5 Z"/></g>
<g><path style="opacity:1" fill="#8b7931" d="M 47.5,116.5 C 48.1834,118.176 49.5168,118.843 51.5,118.5C 56.7212,118.955 60.2212,121.621 62,126.5C 63.1127,127.305 64.2794,127.972 65.5,128.5C 66.1667,128.5 66.8333,128.5 67.5,128.5C 69.1667,128.5 70.8333,128.5 72.5,128.5C 72.3218,131.423 71.9885,134.423 71.5,137.5C 70.603,136.402 69.7697,136.402 69,137.5C 68.6667,139.167 68.3333,140.833 68,142.5C 66.6124,141.446 65.1124,141.28 63.5,142C 57.0803,146.06 50.747,147.227 44.5,145.5C 44.5,142.833 44.5,140.167 44.5,137.5C 45.3138,139.631 45.8138,141.964 46,144.5C 50.2154,143.731 54.3821,142.731 58.5,141.5C 58.3721,137.615 58.2055,133.948 58,130.5C 55.0814,127.4 51.5814,125.4 47.5,124.5C 48.3084,127.47 50.3084,129.303 53.5,130C 50.7111,130.241 48.0444,130.908 45.5,132C 45.8333,132.333 46.1667,132.667 46.5,133C 44.8807,133.236 43.8807,134.069 43.5,135.5C 42.9033,135.265 42.5699,134.765 42.5,134C 43.8934,131.152 45.2268,128.319 46.5,125.5C 45.8118,124.145 44.8118,123.145 43.5,122.5C 42.962,120.883 42.6287,119.216 42.5,117.5C 43.9806,117.635 45.6473,117.301 47.5,116.5 Z"/></g>
<g><path style="opacity:1" fill="#7b776d" d="M 66.5,110.5 C 66.8333,110.5 67.1667,110.5 67.5,110.5C 68.4731,112.948 68.8064,115.615 68.5,118.5C 68.5,119.833 68.5,121.167 68.5,122.5C 67.6586,124.379 67.3253,126.379 67.5,128.5C 66.8333,128.5 66.1667,128.5 65.5,128.5C 66.7213,125.668 66.7213,122.835 65.5,120C 65.5944,117.046 66.0944,116.879 67,119.5C 67.5356,117.433 67.0356,115.599 65.5,114C 66.3366,112.989 66.67,111.822 66.5,110.5 Z"/></g>
<g><path style="opacity:1" fill="#e3cbb7" d="M 44.5,137.5 C 43.6618,137.158 43.3284,136.492 43.5,135.5C 43.8807,134.069 44.8807,133.236 46.5,133C 46.1667,132.667 45.8333,132.333 45.5,132C 48.0444,130.908 50.7111,130.241 53.5,130C 50.3084,129.303 48.3084,127.47 47.5,124.5C 51.5814,125.4 55.0814,127.4 58,130.5C 58.2055,133.948 58.3721,137.615 58.5,141.5C 54.3821,142.731 50.2154,143.731 46,144.5C 45.8138,141.964 45.3138,139.631 44.5,137.5 Z"/></g>
<g><path style="opacity:1" fill="#d7342e" d="M 6.5,135.5 C 9.22545,136.713 11.5588,138.546 13.5,141C 11.6499,143.018 9.64991,144.851 7.5,146.5C 5.97567,144.142 3.97567,142.309 1.5,141C 3.68574,139.588 5.3524,137.755 6.5,135.5 Z"/></g>
<g><path style="opacity:1" fill="#d7342e" d="M 100.5,135.5 C 102.915,137.064 105.248,138.898 107.5,141C 105.024,142.309 103.024,144.142 101.5,146.5C 99.3501,144.851 97.3501,143.018 95.5,141C 97.3734,139.296 99.0401,137.463 100.5,135.5 Z"/></g>
<g><path style="opacity:1" fill="#474744" d="M 47.5,138.5 C 49.1533,139.605 50.82,139.771 52.5,139C 50.1088,140.309 50.1088,141.309 52.5,142C 47.337,143.564 45.6703,142.397 47.5,138.5 Z"/></g>
<g><path style="opacity:1" fill="#d62a27" d="M 85.5,139.5 C 89.4154,141.743 92.7488,144.743 95.5,148.5C 92.1458,151.021 89.3124,154.021 87,157.5C 84.5,153.667 81.3333,150.5 77.5,148C 81.0705,145.932 83.7371,143.099 85.5,139.5 Z"/></g>
<g><path style="opacity:1" fill="#776620" d="M 22.5,122.5 C 22.8333,122.5 23.1667,122.5 23.5,122.5C 24.6227,124.979 24.6227,127.312 23.5,129.5C 21.8369,136.127 21.5036,142.794 22.5,149.5C 22.5466,151.038 21.8799,152.038 20.5,152.5C 20.5905,155.152 19.9238,157.485 18.5,159.5C 18.5,158.833 18.1667,158.5 17.5,158.5C 16.992,155.611 16.3253,152.778 15.5,150C 17.7335,145.26 18.7335,140.426 18.5,135.5C 19.1036,130.956 20.4369,126.623 22.5,122.5 Z"/></g>
<g><path style="opacity:1" fill="#d3ca0a" d="M 23.5,129.5 C 22.3995,131.277 21.5662,133.277 21,135.5C 20.1048,132.534 20.6048,129.867 22.5,127.5C 23.2975,127.957 23.6309,128.624 23.5,129.5 Z"/></g>
<g><path style="opacity:1" fill="#3e8f4a" d="M 71.5,137.5 C 71.5394,138.583 71.8728,139.583 72.5,140.5C 74.4233,141.308 76.4233,141.808 78.5,142C 77.0158,143.574 75.3492,144.907 73.5,146C 74.1667,147.333 74.8333,148.667 75.5,150C 74.9056,150.464 74.2389,150.631 73.5,150.5C 72.2058,149.71 71.0391,148.71 70,147.5C 69.5172,148.448 69.3505,149.448 69.5,150.5C 65.3912,151.265 61.7246,152.265 58.5,153.5C 57.5,153.5 56.5,153.5 55.5,153.5C 53.9582,154.301 52.2915,154.634 50.5,154.5C 49.8826,154.389 49.3826,154.056 49,153.5C 47.7719,156.233 45.9386,156.9 43.5,155.5C 42.6024,153.373 40.9357,152.206 38.5,152C 39.5,151 40.5,150 41.5,149C 39.842,148.275 39.342,147.108 40,145.5C 41.4139,146.413 42.9139,146.413 44.5,145.5C 50.747,147.227 57.0803,146.06 63.5,142C 65.1124,141.28 66.6124,141.446 68,142.5C 68.3333,140.833 68.6667,139.167 69,137.5C 69.7697,136.402 70.603,136.402 71.5,137.5 Z"/></g>
<g><path style="opacity:1" fill="#af2217" d="M 70.5,142.5 C 73.1402,143.794 73.1402,145.127 70.5,146.5C 69.3744,145.192 69.3744,143.858 70.5,142.5 Z"/></g>
<g><path style="opacity:1" fill="#b22519" d="M 20.5,152.5 C 19.325,152.719 18.325,152.386 17.5,151.5C 18.747,145.163 19.747,145.496 20.5,152.5 Z"/></g>
<g><path style="opacity:1" fill="#d7352e" d="M 2.5,151.5 C 3.20895,150.596 4.20895,150.263 5.5,150.5C 6.73338,157.059 8.06671,157.059 9.5,150.5C 10.8333,155.167 10.8333,159.833 9.5,164.5C 8.58717,158.046 7.25384,158.046 5.5,164.5C 4.64056,165.774 3.97389,165.608 3.5,164C 6.16733,159.534 5.834,155.367 2.5,151.5 Z"/></g>
<g><path style="opacity:1" fill="#d7352e" d="M 98.5,151.5 C 99.209,150.596 100.209,150.263 101.5,150.5C 102.733,157.059 104.067,157.059 105.5,150.5C 106.833,155.167 106.833,159.833 105.5,164.5C 104.587,158.046 103.254,158.046 101.5,164.5C 100.641,165.774 99.9739,165.608 99.5,164C 102.167,159.534 101.834,155.367 98.5,151.5 Z"/></g>
<g><path style="opacity:1" fill="#e5d308" d="M 72.5,158.5 C 72.5,158.833 72.5,159.167 72.5,159.5C 71.0937,159.973 70.427,160.973 70.5,162.5C 69.8333,162.5 69.1667,162.5 68.5,162.5C 70.2342,159.763 70.5675,156.929 69.5,154C 70.4491,153.383 71.2825,153.549 72,154.5C 72.49,155.793 72.6567,157.127 72.5,158.5 Z"/></g>
<g><path style="opacity:1" fill="#dba321" d="M 73.5,150.5 C 73.5,150.833 73.5,151.167 73.5,151.5C 72.1984,152.807 70.865,152.807 69.5,151.5C 68.8503,153.184 67.8503,154.517 66.5,155.5C 65.0695,155.579 63.7362,155.246 62.5,154.5C 61.8182,155.243 61.1515,155.909 60.5,156.5C 59.2921,157.234 57.9587,157.567 56.5,157.5C 54.847,157.66 53.5137,158.326 52.5,159.5C 47.8897,159.404 47.5564,158.404 51.5,156.5C 51.1373,155.817 50.8039,155.15 50.5,154.5C 52.2915,154.634 53.9582,154.301 55.5,153.5C 56.5395,156.388 57.8729,156.721 59.5,154.5C 59.3764,153.893 59.0431,153.56 58.5,153.5C 61.7246,152.265 65.3912,151.265 69.5,150.5C 69.3505,149.448 69.5172,148.448 70,147.5C 71.0391,148.71 72.2058,149.71 73.5,150.5 Z"/></g>
<g><path style="opacity:1" fill="#ed3325" d="M 55.5,153.5 C 56.5,153.5 57.5,153.5 58.5,153.5C 59.0431,153.56 59.3764,153.893 59.5,154.5C 57.8729,156.721 56.5395,156.388 55.5,153.5 Z"/></g>
<g><path style="opacity:1" fill="#f0e4d2" d="M 66.5,155.5 C 67.138,156.524 67.8047,157.524 68.5,158.5C 68.2483,160.073 67.5817,161.406 66.5,162.5C 65.5,162.5 64.5,162.5 63.5,162.5C 62.8772,160.289 61.8772,158.289 60.5,156.5C 61.1515,155.909 61.8182,155.243 62.5,154.5C 63.7362,155.246 65.0695,155.579 66.5,155.5 Z"/></g>
<g><path style="opacity:1" fill="#e66d46" d="M 73.5,151.5 C 74.2389,151.369 74.9056,151.536 75.5,152C 74.0082,153.991 73.0082,156.158 72.5,158.5C 72.6567,157.127 72.49,155.793 72,154.5C 71.2825,153.549 70.4491,153.383 69.5,154C 70.5675,156.929 70.2342,159.763 68.5,162.5C 67.8333,162.5 67.1667,162.5 66.5,162.5C 67.5817,161.406 68.2483,160.073 68.5,158.5C 67.8047,157.524 67.138,156.524 66.5,155.5C 67.8503,154.517 68.8503,153.184 69.5,151.5C 70.865,152.807 72.1984,152.807 73.5,151.5 Z"/></g>
<g><path style="opacity:1" fill="#e57828" d="M 50.5,154.5 C 50.8039,155.15 51.1373,155.817 51.5,156.5C 47.5564,158.404 47.8897,159.404 52.5,159.5C 52.2178,160.778 51.5511,161.778 50.5,162.5C 48.1667,162.5 45.8333,162.5 43.5,162.5C 43.5,160.167 43.5,157.833 43.5,155.5C 45.9386,156.9 47.7719,156.233 49,153.5C 49.3826,154.056 49.8826,154.389 50.5,154.5 Z"/></g>
<g><path style="opacity:1" fill="#eeebda" d="M 56.5,157.5 C 56.9887,158.995 57.6554,160.329 58.5,161.5C 58.5,161.833 58.5,162.167 58.5,162.5C 55.8333,162.5 53.1667,162.5 50.5,162.5C 51.5511,161.778 52.2178,160.778 52.5,159.5C 53.5137,158.326 54.847,157.66 56.5,157.5 Z"/></g>
<g><path style="opacity:1" fill="#e45f2c" d="M 60.5,156.5 C 61.8772,158.289 62.8772,160.289 63.5,162.5C 62.8333,162.5 62.1667,162.5 61.5,162.5C 60.8597,159.318 59.8597,158.985 58.5,161.5C 57.6554,160.329 56.9887,158.995 56.5,157.5C 57.9587,157.567 59.2921,157.234 60.5,156.5 Z"/></g>
<g><path style="opacity:1" fill="#e7cc0e" d="M 61.5,162.5 C 60.5,162.5 59.5,162.5 58.5,162.5C 58.5,162.167 58.5,161.833 58.5,161.5C 59.8597,158.985 60.8597,159.318 61.5,162.5 Z"/></g>
<g><path style="opacity:1" fill="#e25d1d" d="M 72.5,159.5 C 72.4431,160.609 72.1098,161.609 71.5,162.5C 71.1667,162.5 70.8333,162.5 70.5,162.5C 70.427,160.973 71.0937,159.973 72.5,159.5 Z"/></g>
<g><path style="opacity:1" fill="#1c181b" d="M 17.5,158.5 C 18.1667,158.5 18.5,158.833 18.5,159.5C 18.5,160.5 18.5,161.5 18.5,162.5C 26.8333,162.5 35.1667,162.5 43.5,162.5C 45.8333,162.5 48.1667,162.5 50.5,162.5C 53.1667,162.5 55.8333,162.5 58.5,162.5C 59.5,162.5 60.5,162.5 61.5,162.5C 62.1667,162.5 62.8333,162.5 63.5,162.5C 64.5,162.5 65.5,162.5 66.5,162.5C 67.1667,162.5 67.8333,162.5 68.5,162.5C 69.1667,162.5 69.8333,162.5 70.5,162.5C 70.8333,162.5 71.1667,162.5 71.5,162.5C 66.8617,163.953 48.8617,163.953 17.5,162.5C 17.5,161.167 17.5,159.833 17.5,158.5 Z"/></g>
</svg>
