<?xml version="1.0" encoding="UTF-8"?>
<!DOCTYPE svg PUBLIC "-//W3C//DTD SVG 1.1//EN" "http://www.w3.org/Graphics/SVG/1.1/DTD/svg11.dtd">
<svg xmlns="http://www.w3.org/2000/svg" version="1.1" width="110px" height="170px" style="shape-rendering:geometricPrecision; text-rendering:geometricPrecision; image-rendering:optimizeQuality; fill-rule:evenodd; clip-rule:evenodd" xmlns:xlink="http://www.w3.org/1999/xlink">
<g><path style="opacity:1" fill="#ecf4e3" d="M -0.5,-0.5 C 36.1667,-0.5 72.8333,-0.5 109.5,-0.5C 109.5,56.1667 109.5,112.833 109.5,169.5C 72.8333,169.5 36.1667,169.5 -0.5,169.5C -0.5,112.833 -0.5,56.1667 -0.5,-0.5 Z"/></g>
<g><path style="opacity:1" fill="#10100e" d="M 4.5,4.5 C 6.14387,4.28649 7.64387,4.61983 9,5.5C 9.79615,9.75483 9.62948,13.9215 8.5,18C 6.35939,18.8837 4.69273,18.3837 3.5,16.5C 4.39138,15.4104 5.39138,15.4104 6.5,16.5C 7.38568,15.675 7.71901,14.675 7.5,13.5C 6.16667,13.5 4.83333,13.5 3.5,13.5C 3.26414,10.3915 3.59748,7.39147 4.5,4.5 Z"/></g>
<g><path style="opacity:1" fill="#10100e" d="M 100.5,4.5 C 102.144,4.28649 103.644,4.61983 105,5.5C 105.796,9.75483 105.629,13.9215 104.5,18C 102.359,18.8837 100.693,18.3837 99.5,16.5C 100.391,15.4104 101.391,15.4104 102.5,16.5C 103.386,15.675 103.719,14.675 103.5,13.5C 102.167,13.5 100.833,13.5 99.5,13.5C 99.2641,10.3915 99.5975,7.39147 100.5,4.5 Z"/></g>
<g><path style="opacity:1" fill="#ecf4e3" d="M 5.5,6.5 C 6.64911,6.79106 7.31577,7.62439 7.5,9C 7.16667,9.83333 6.83333,10.6667 6.5,11.5C 5.54811,9.95467 5.21478,8.28801 5.5,6.5 Z"/></g>
<g><path style="opacity:1" fill="#ecf4e3" d="M 101.5,6.5 C 102.649,6.79106 103.316,7.62439 103.5,9C 103.167,9.83333 102.833,10.6667 102.5,11.5C 101.548,9.95467 101.215,8.28801 101.5,6.5 Z"/></g>
<g><path style="opacity:1" fill="#151514" d="M 27.5,15.5 C 35.0039,15.6703 36.3372,18.6703 31.5,24.5C 31.8333,24.8333 32.1667,25.1667 32.5,25.5C 39.0243,20.6145 41.6909,22.1145 40.5,30C 37.5337,30.8952 34.8671,30.3952 32.5,28.5C 31.2515,31.5063 31.2515,34.5063 32.5,37.5C 30.8333,38.8333 29.1667,38.8333 27.5,37.5C 28.7485,34.5063 28.7485,31.5063 27.5,28.5C 24.8017,31.595 21.9684,31.9284 19,29.5C 18.7583,22.009 21.5916,20.6757 27.5,25.5C 27.8333,25.1667 28.1667,24.8333 28.5,24.5C 25.054,21.7513 24.7207,18.7513 27.5,15.5 Z"/></g>
<g><path style="opacity:1" fill="#131312" d="M 76.5,15.5 C 83.9805,15.7522 85.3139,18.7522 80.5,24.5C 80.8333,24.8333 81.1667,25.1667 81.5,25.5C 87.4084,20.6757 90.2417,22.009 90,29.5C 87.0316,31.9284 84.1983,31.595 81.5,28.5C 80.2515,31.5063 80.2515,34.5063 81.5,37.5C 79.8333,38.8333 78.1667,38.8333 76.5,37.5C 78.1298,34.7239 78.7965,31.7239 78.5,28.5C 76.1743,29.1511 73.8409,29.8178 71.5,30.5C 68.7454,30.9105 67.4121,29.7438 67.5,27C 69.4578,21.6004 72.4578,21.1004 76.5,25.5C 76.8333,25.1667 77.1667,24.8333 77.5,24.5C 74.2981,21.6437 73.9647,18.6437 76.5,15.5 Z"/></g>
<g><path style="opacity:1" fill="#1d1d1c" d="M 5.5,21.5 C 6.5,21.5 7.5,21.5 8.5,21.5C 8.33982,23.1992 8.50649,24.8659 9,26.5C 10.0113,25.6634 11.1779,25.33 12.5,25.5C 12.5,26.8333 12.5,28.1667 12.5,29.5C 11.0695,29.5792 9.73619,29.2458 8.5,28.5C 7.35536,29.7757 7.35536,31.109 8.5,32.5C 7.5,33.8333 6.5,33.8333 5.5,32.5C 6.64464,31.109 6.64464,29.7757 5.5,28.5C 2.3982,29.8934 1.3982,29.06 2.5,26C 3.83333,26 5.16667,26 6.5,26C 5.61983,24.6439 5.28649,23.1439 5.5,21.5 Z"/></g>
<g><path style="opacity:1" fill="#1e1e1c" d="M 100.5,21.5 C 101.5,21.5 102.5,21.5 103.5,21.5C 103.714,23.1439 103.38,24.6439 102.5,26C 103.833,26 105.167,26 106.5,26C 107.602,29.06 106.602,29.8934 103.5,28.5C 102.355,29.7757 102.355,31.109 103.5,32.5C 102.5,33.8333 101.5,33.8333 100.5,32.5C 101.645,31.109 101.645,29.7757 100.5,28.5C 99.2638,29.2458 97.9305,29.5792 96.5,29.5C 96.5,28.1667 96.5,26.8333 96.5,25.5C 97.8221,25.33 98.9887,25.6634 100,26.5C 100.494,24.8659 100.66,23.1992 100.5,21.5 Z"/></g>
<g><path style="opacity:1" fill="#111110" d="M 27.5,53.5 C 29.2624,53.3573 30.9291,53.6906 32.5,54.5C 33.4157,57.7637 33.4157,60.7637 32.5,63.5C 34.8671,61.6048 37.5337,61.1048 40.5,62C 42.3946,65.7335 41.3946,68.2335 37.5,69.5C 35.5229,68.5401 33.5229,67.5401 31.5,66.5C 30.2459,69.8149 30.5792,72.9816 32.5,76C 30.7412,76.7975 29.0745,76.6309 27.5,75.5C 28.5748,72.562 28.7415,69.562 28,66.5C 21.2842,71.4744 18.4508,69.9744 19.5,62C 22.6725,61.5752 25.6725,61.9085 28.5,63C 25.122,60.0361 24.7886,56.8694 27.5,53.5 Z"/></g>
<g><path style="opacity:1" fill="#10100f" d="M 76.5,53.5 C 79.0444,53.1043 81.2111,53.771 83,55.5C 82.841,58.6395 82.1744,61.6395 81,64.5C 83.3167,61.9035 86.15,61.0701 89.5,62C 90.5492,69.9744 87.7158,71.4744 81,66.5C 80.2585,69.562 80.4252,72.562 81.5,75.5C 79.9255,76.6309 78.2588,76.7975 76.5,76C 78.4208,72.9816 78.7541,69.8149 77.5,66.5C 75.4771,67.5401 73.4771,68.5401 71.5,69.5C 67.6054,68.2335 66.6054,65.7335 68.5,62C 71.4663,61.1048 74.1329,61.6048 76.5,63.5C 76.8333,63.1667 77.1667,62.8333 77.5,62.5C 75.312,59.7053 74.9786,56.7053 76.5,53.5 Z"/></g>
<g><path style="opacity:1" fill="#0d0d0c" d="M 56.5,94.5 C 55.1667,95.8333 53.8333,95.8333 52.5,94.5C 53.6435,91.4977 53.6435,88.4977 52.5,85.5C 50.4083,88.1522 47.7417,88.9855 44.5,88C 41.4114,84.1868 42.2448,81.6868 47,80.5C 49.1745,80.8339 51.0079,81.8339 52.5,83.5C 52.8333,83.1667 53.1667,82.8333 53.5,82.5C 50.8478,80.4083 50.0145,77.7417 51,74.5C 54.8132,71.4114 57.3132,72.2448 58.5,77C 58.1661,79.1745 57.1661,81.0079 55.5,82.5C 55.8333,82.8333 56.1667,83.1667 56.5,83.5C 58.5917,80.8478 61.2583,80.0145 64.5,81C 67.5886,84.8132 66.7552,87.3132 62,88.5C 59.7927,87.9703 57.7927,86.9703 56,85.5C 55.2642,88.592 55.4309,91.592 56.5,94.5 Z"/></g>
<g><path style="opacity:1" fill="#111110" d="M 27.5,92.5 C 29.1992,92.3398 30.8659,92.5065 32.5,93C 30.5792,96.0184 30.2459,99.1851 31.5,102.5C 33.5229,101.46 35.5229,100.46 37.5,99.5C 41.3946,100.767 42.3946,103.267 40.5,107C 37.5337,107.895 34.8671,107.395 32.5,105.5C 31.3441,106.576 31.5108,107.576 33,108.5C 34.9132,114.094 33.0798,116.261 27.5,115C 24.8705,111.801 25.2039,108.801 28.5,106C 26.3841,106.282 24.2175,106.782 22,107.5C 18.7072,106.862 17.7072,104.862 19,101.5C 22.1994,98.8705 25.1994,99.2039 28,102.5C 28.6588,99.1119 28.4922,95.7786 27.5,92.5 Z"/></g>
<g><path style="opacity:1" fill="#10100f" d="M 76.5,93.5 C 77.9464,92.3871 79.6131,92.2204 81.5,93C 80.3832,96.0731 80.2165,99.2397 81,102.5C 87.1016,97.591 90.1016,98.9244 90,106.5C 86.5715,108.013 83.5715,107.347 81,104.5C 81.2266,106.973 82.06,109.306 83.5,111.5C 82.2335,115.395 79.7335,116.395 76,114.5C 75.1048,111.534 75.6048,108.867 77.5,106.5C 76.4239,105.344 75.4239,105.511 74.5,107C 68.9057,108.913 66.739,107.08 68,101.5C 68.804,100.196 69.9707,99.5288 71.5,99.5C 73.4771,100.46 75.4771,101.46 77.5,102.5C 78.7864,99.24 78.4531,96.24 76.5,93.5 Z"/></g>
<g><path style="opacity:1" fill="#54544e" d="M 52.5,94.5 C 53.8333,95.8333 55.1667,95.8333 56.5,94.5C 57.0431,94.56 57.3764,94.8933 57.5,95.5C 55.5,96.8333 53.5,96.8333 51.5,95.5C 51.6236,94.8933 51.9569,94.56 52.5,94.5 Z"/></g>
<g><path style="opacity:1" fill="#131312" d="M 27.5,130.5 C 29.288,130.215 30.9547,130.548 32.5,131.5C 30.8702,134.276 30.2035,137.276 30.5,140.5C 32.8257,139.849 35.1591,139.182 37.5,138.5C 40.2546,138.09 41.5879,139.256 41.5,142C 39.5422,147.4 36.5422,147.9 32.5,143.5C 32.1667,143.833 31.8333,144.167 31.5,144.5C 36.3451,150.492 35.0117,153.325 27.5,153C 24.8027,149.918 25.136,147.085 28.5,144.5C 28.1667,144.167 27.8333,143.833 27.5,143.5C 21.5916,148.324 18.7583,146.991 19,139.5C 21.9684,137.072 24.8017,137.405 27.5,140.5C 28.6658,137.163 28.6658,133.83 27.5,130.5 Z"/></g>
<g><path style="opacity:1" fill="#131312" d="M 76.5,140.5 C 76.56,141.043 76.8933,141.376 77.5,141.5C 78.7969,139.027 78.7969,136.693 77.5,134.5C 77.4606,133.417 77.1272,132.417 76.5,131.5C 78.1667,130.167 79.8333,130.167 81.5,131.5C 80.2515,134.494 80.2515,137.494 81.5,140.5C 87.4917,135.655 90.325,136.988 90,144.5C 86.9182,147.197 84.0849,146.864 81.5,143.5C 81.1667,143.833 80.8333,144.167 80.5,144.5C 85.3243,150.408 83.991,153.242 76.5,153C 74.0716,150.032 74.405,147.198 77.5,144.5C 77.1667,144.167 76.8333,143.833 76.5,143.5C 69.9757,148.385 67.3091,146.885 68.5,139C 71.4976,138.109 74.1643,138.609 76.5,140.5 Z"/></g>
<g><path style="opacity:1" fill="#767770" d="M 77.5,134.5 C 78.7969,136.693 78.7969,139.027 77.5,141.5C 76.8933,141.376 76.56,141.043 76.5,140.5C 77.4614,138.735 77.7947,136.735 77.5,134.5 Z"/></g>
<g><path style="opacity:1" fill="#1f1f1d" d="M 5.5,135.5 C 6.67504,135.281 7.67504,135.614 8.5,136.5C 7.35536,137.891 7.35536,139.224 8.5,140.5C 9.73619,139.754 11.0695,139.421 12.5,139.5C 12.5,140.833 12.5,142.167 12.5,143.5C 11.1779,143.67 10.0113,143.337 9,142.5C 8.50649,144.134 8.33982,145.801 8.5,147.5C 7.5,147.5 6.5,147.5 5.5,147.5C 5.28649,145.856 5.61983,144.356 6.5,143C 5.45104,142.508 4.45104,142.674 3.5,143.5C 2.5,143.167 1.83333,142.5 1.5,141.5C 3.02699,140.056 4.69366,139.222 6.5,139C 6.01087,137.862 5.67754,136.695 5.5,135.5 Z"/></g>
<g><path style="opacity:1" fill="#201f1d" d="M 100.5,135.5 C 101.675,135.281 102.675,135.614 103.5,136.5C 101.934,139.494 102.601,140.494 105.5,139.5C 108.167,140.833 108.167,142.167 105.5,143.5C 104.549,142.674 103.549,142.508 102.5,143C 103.38,144.356 103.714,145.856 103.5,147.5C 102.5,147.5 101.5,147.5 100.5,147.5C 100.66,145.801 100.494,144.134 100,142.5C 98.9887,143.337 97.8221,143.67 96.5,143.5C 96.5,142.167 96.5,140.833 96.5,139.5C 97.9305,139.421 99.2638,139.754 100.5,140.5C 101.434,138.905 101.434,137.239 100.5,135.5 Z"/></g>
<g><path style="opacity:1" fill="#10100e" d="M 4.5,150.5 C 6.66485,150.116 8.33152,150.783 9.5,152.5C 8.60862,153.59 7.60862,153.59 6.5,152.5C 5.61432,153.325 5.28099,154.325 5.5,155.5C 6.83333,155.5 8.16667,155.5 9.5,155.5C 9.66409,158.187 9.49742,160.854 9,163.5C 7.61238,164.554 6.11238,164.72 4.5,164C 3.19435,159.501 3.19435,155.001 4.5,150.5 Z"/></g>
<g><path style="opacity:1" fill="#10100e" d="M 100.5,150.5 C 102.665,150.116 104.332,150.783 105.5,152.5C 104.609,153.59 103.609,153.59 102.5,152.5C 101.614,153.325 101.281,154.325 101.5,155.5C 102.833,155.5 104.167,155.5 105.5,155.5C 105.664,158.187 105.497,160.854 105,163.5C 103.612,164.554 102.112,164.72 100.5,164C 99.1943,159.501 99.1943,155.001 100.5,150.5 Z"/></g>
<g><path style="opacity:1" fill="#ecf4e3" d="M 5.5,157.5 C 6.64911,157.791 7.31577,158.624 7.5,160C 7.16667,160.833 6.83333,161.667 6.5,162.5C 5.54811,160.955 5.21478,159.288 5.5,157.5 Z"/></g>
<g><path style="opacity:1" fill="#ecf4e3" d="M 101.5,157.5 C 102.649,157.791 103.316,158.624 103.5,160C 103.167,160.833 102.833,161.667 102.5,162.5C 101.548,160.955 101.215,159.288 101.5,157.5 Z"/></g>
</svg>
