<?xml version="1.0" encoding="UTF-8"?>
<!DOCTYPE svg PUBLIC "-//W3C//DTD SVG 1.1//EN" "http://www.w3.org/Graphics/SVG/1.1/DTD/svg11.dtd">
<svg xmlns="http://www.w3.org/2000/svg" version="1.1" width="110px" height="170px" style="shape-rendering:geometricPrecision; text-rendering:geometricPrecision; image-rendering:optimizeQuality; fill-rule:evenodd; clip-rule:evenodd" xmlns:xlink="http://www.w3.org/1999/xlink">
<g><path style="opacity:1" fill="#eef6e5" d="M -0.5,-0.5 C 36.1667,-0.5 72.8333,-0.5 109.5,-0.5C 109.5,56.1667 109.5,112.833 109.5,169.5C 72.8333,169.5 36.1667,169.5 -0.5,169.5C -0.5,112.833 -0.5,56.1667 -0.5,-0.5 Z"/></g>
<g><path style="opacity:1" fill="#131312" d="M 5.5,4.5 C 7.48032,5.84755 8.64698,7.84755 9,10.5C 9.28681,12.8907 9.78681,15.2241 10.5,17.5C 10.1667,17.8333 9.83333,18.1667 9.5,18.5C 8.61432,17.675 8.28099,16.675 8.5,15.5C 7.16667,15.5 5.83333,15.5 4.5,15.5C 4.71901,16.675 4.38568,17.675 3.5,18.5C 3.16667,18.1667 2.83333,17.8333 2.5,17.5C 3.39366,13.1357 4.39366,8.80235 5.5,4.5 Z"/></g>
<g><path style="opacity:1" fill="#131312" d="M 101.5,4.5 C 103.48,5.84755 104.647,7.84755 105,10.5C 105.287,12.8907 105.787,15.2241 106.5,17.5C 106.167,17.8333 105.833,18.1667 105.5,18.5C 104.614,17.675 104.281,16.675 104.5,15.5C 103.167,15.5 101.833,15.5 100.5,15.5C 100.719,16.675 100.386,17.675 99.5,18.5C 99.1667,18.1667 98.8333,17.8333 98.5,17.5C 99.3937,13.1357 100.394,8.80235 101.5,4.5 Z"/></g>
<g><path style="opacity:1" fill="#a2a69c" d="M 5.5,9.5 C 6.58617,9.61998 7.25284,10.2867 7.5,11.5C 7.16667,12.1667 6.83333,12.8333 6.5,13.5C 5.57131,12.3112 5.23798,10.9778 5.5,9.5 Z"/></g>
<g><path style="opacity:1" fill="#a2a69c" d="M 101.5,9.5 C 102.586,9.61998 103.253,10.2867 103.5,11.5C 103.167,12.1667 102.833,12.8333 102.5,13.5C 101.571,12.3112 101.238,10.9778 101.5,9.5 Z"/></g>
<g><path style="opacity:1" fill="#1d1d1c" d="M 5.5,21.5 C 6.5,21.5 7.5,21.5 8.5,21.5C 8.33982,23.1992 8.50649,24.8659 9,26.5C 10.0113,25.6634 11.1779,25.33 12.5,25.5C 12.5,26.8333 12.5,28.1667 12.5,29.5C 11.0695,29.5792 9.73619,29.2458 8.5,28.5C 7.35536,29.7757 7.35536,31.109 8.5,32.5C 7.5,33.8333 6.5,33.8333 5.5,32.5C 6.64464,31.109 6.64464,29.7757 5.5,28.5C 2.3982,29.8934 1.3982,29.06 2.5,26C 3.83333,26 5.16667,26 6.5,26C 5.61983,24.6439 5.28649,23.1439 5.5,21.5 Z"/></g>
<g><path style="opacity:1" fill="#20201e" d="M 100.5,21.5 C 101.5,21.5 102.5,21.5 103.5,21.5C 103.5,22.8333 103.5,24.1667 103.5,25.5C 107.541,25.5739 108.208,26.9072 105.5,29.5C 102.601,28.5056 101.934,29.5056 103.5,32.5C 102.5,33.8333 101.5,33.8333 100.5,32.5C 101.645,31.109 101.645,29.7757 100.5,28.5C 99.2638,29.2458 97.9305,29.5792 96.5,29.5C 96.5,28.1667 96.5,26.8333 96.5,25.5C 97.8221,25.33 98.9887,25.6634 100,26.5C 100.494,24.8659 100.66,23.1992 100.5,21.5 Z"/></g>
<g><path style="opacity:1" fill="#0d0d0c" d="M 56.5,94.5 C 55.1667,95.8333 53.8333,95.8333 52.5,94.5C 53.6435,91.4977 53.6435,88.4977 52.5,85.5C 50.4083,88.1522 47.7417,88.9855 44.5,88C 41.4114,84.1868 42.2448,81.6868 47,80.5C 49.1745,80.8339 51.0079,81.8339 52.5,83.5C 52.8333,83.1667 53.1667,82.8333 53.5,82.5C 50.8478,80.4083 50.0145,77.7417 51,74.5C 54.8132,71.4114 57.3132,72.2448 58.5,77C 58.1661,79.1745 57.1661,81.0079 55.5,82.5C 55.8333,82.8333 56.1667,83.1667 56.5,83.5C 58.5917,80.8478 61.2583,80.0145 64.5,81C 67.5886,84.8132 66.7552,87.3132 62,88.5C 59.7927,87.9703 57.7927,86.9703 56,85.5C 55.2642,88.592 55.4309,91.592 56.5,94.5 Z"/></g>
<g><path style="opacity:1" fill="#54544e" d="M 52.5,94.5 C 53.8333,95.8333 55.1667,95.8333 56.5,94.5C 57.0431,94.56 57.3764,94.8933 57.5,95.5C 55.5,96.8333 53.5,96.8333 51.5,95.5C 51.6236,94.8933 51.9569,94.56 52.5,94.5 Z"/></g>
<g><path style="opacity:1" fill="#1f1f1d" d="M 5.5,135.5 C 6.67504,135.281 7.67504,135.614 8.5,136.5C 7.35536,137.891 7.35536,139.224 8.5,140.5C 9.73619,139.754 11.0695,139.421 12.5,139.5C 12.5,140.833 12.5,142.167 12.5,143.5C 11.1779,143.67 10.0113,143.337 9,142.5C 8.50649,144.134 8.33982,145.801 8.5,147.5C 7.5,147.5 6.5,147.5 5.5,147.5C 5.28649,145.856 5.61983,144.356 6.5,143C 5.45104,142.508 4.45104,142.674 3.5,143.5C 2.5,143.167 1.83333,142.5 1.5,141.5C 3.02699,140.056 4.69366,139.222 6.5,139C 6.01087,137.862 5.67754,136.695 5.5,135.5 Z"/></g>
<g><path style="opacity:1" fill="#1f1f1d" d="M 100.5,135.5 C 101.675,135.281 102.675,135.614 103.5,136.5C 101.934,139.494 102.601,140.494 105.5,139.5C 108.167,140.833 108.167,142.167 105.5,143.5C 104.549,142.674 103.549,142.508 102.5,143C 103.38,144.356 103.714,145.856 103.5,147.5C 102.5,147.5 101.5,147.5 100.5,147.5C 100.66,145.801 100.494,144.134 100,142.5C 98.9887,143.337 97.8221,143.67 96.5,143.5C 96.5,142.167 96.5,140.833 96.5,139.5C 97.9305,139.421 99.2638,139.754 100.5,140.5C 101.434,138.905 101.434,137.239 100.5,135.5 Z"/></g>
<g><path style="opacity:1" fill="#151514" d="M 2.5,150.5 C 4.04814,150.821 4.71481,151.821 4.5,153.5C 5.83333,153.5 7.16667,153.5 8.5,153.5C 8.28099,152.325 8.61432,151.325 9.5,150.5C 7.95197,169.024 5.61864,169.024 2.5,150.5 Z"/></g>
<g><path style="opacity:1" fill="#151514" d="M 98.5,150.5 C 100.048,150.821 100.715,151.821 100.5,153.5C 101.833,153.5 103.167,153.5 104.5,153.5C 104.281,152.325 104.614,151.325 105.5,150.5C 103.952,169.024 101.619,169.024 98.5,150.5 Z"/></g>
<g><path style="opacity:1" fill="#7d7e76" d="M 5.5,155.5 C 6.58617,155.62 7.25284,156.287 7.5,157.5C 7.16667,158.167 6.83333,158.833 6.5,159.5C 5.57131,158.311 5.23798,156.978 5.5,155.5 Z"/></g>
<g><path style="opacity:1" fill="#7d7e76" d="M 101.5,155.5 C 102.586,155.62 103.253,156.287 103.5,157.5C 103.167,158.167 102.833,158.833 102.5,159.5C 101.571,158.311 101.238,156.978 101.5,155.5 Z"/></g>
</svg>
