<?xml version="1.0" encoding="UTF-8"?>
<!DOCTYPE svg PUBLIC "-//W3C//DTD SVG 1.1//EN" "http://www.w3.org/Graphics/SVG/1.1/DTD/svg11.dtd">
<svg xmlns="http://www.w3.org/2000/svg" version="1.1" width="110px" height="170px" style="shape-rendering:geometricPrecision; text-rendering:geometricPrecision; image-rendering:optimizeQuality; fill-rule:evenodd; clip-rule:evenodd" xmlns:xlink="http://www.w3.org/1999/xlink">
<g><path style="opacity:1" fill="#e9f1e0" d="M -0.5,-0.5 C 36.1667,-0.5 72.8333,-0.5 109.5,-0.5C 109.5,56.1667 109.5,112.833 109.5,169.5C 72.8333,169.5 36.1667,169.5 -0.5,169.5C -0.5,112.833 -0.5,56.1667 -0.5,-0.5 Z"/></g>
<g><path style="opacity:1" fill="#1a1a18" d="M 3.5,4.5 C 5.19919,4.33982 6.86586,4.50649 8.5,5C 9.08142,5.8926 9.41476,6.8926 9.5,8C 9.22517,11.027 9.0585,14.1937 9,17.5C 7.30054,18.4061 5.4672,18.7394 3.5,18.5C 3.5,13.8333 3.5,9.16667 3.5,4.5 Z"/></g>
<g><path style="opacity:1" fill="#1a1a18" d="M 99.5,4.5 C 101.199,4.33982 102.866,4.50649 104.5,5C 105.081,5.8926 105.415,6.8926 105.5,8C 105.225,11.027 105.058,14.1937 105,17.5C 103.301,18.4061 101.467,18.7394 99.5,18.5C 99.5,13.8333 99.5,9.16667 99.5,4.5 Z"/></g>
<g><path style="opacity:1" fill="#1b181b" d="M 75.5,6.5 C 69.4093,6.21139 63.4093,6.54472 57.5,7.5C 52.6946,6.51283 47.6946,6.17949 42.5,6.5C 47.4684,5.11967 58.4684,5.11967 75.5,6.5 Z"/></g>
<g><path style="opacity:1" fill="#eef7e5" d="M 5.5,6.5 C 7.46455,6.94835 7.79789,7.94835 6.5,9.5C 5.61432,8.67504 5.28099,7.67504 5.5,6.5 Z"/></g>
<g><path style="opacity:1" fill="#249235" d="M 42.5,6.5 C 47.6946,6.17949 52.6946,6.51283 57.5,7.5C 55.7041,8.79267 54.0375,10.2927 52.5,12C 45.0621,11.9322 38.7288,14.4322 33.5,19.5C 32.2355,17.2279 32.4022,14.8945 34,12.5C 36.6371,10.109 39.4704,8.10896 42.5,6.5 Z"/></g>
<g><path style="opacity:1" fill="#eef7e5" d="M 101.5,6.5 C 103.465,6.94835 103.798,7.94835 102.5,9.5C 101.614,8.67504 101.281,7.67504 101.5,6.5 Z"/></g>
<g><path style="opacity:1" fill="#b01e1d" d="M 75.5,6.5 C 80.2042,10.2533 82.2042,15.2533 81.5,21.5C 78.1989,23.5768 74.5322,24.5768 70.5,24.5C 67.5553,24.0108 65.2219,22.5108 63.5,20C 62.2068,19.51 60.8734,19.3433 59.5,19.5C 54.0362,18.2433 48.7029,18.2433 43.5,19.5C 42.5655,20.5676 42.2322,21.901 42.5,23.5C 41.8333,24.5 41.1667,25.5 40.5,26.5C 39.8333,26.5 39.1667,26.5 38.5,26.5C 36.7085,26.634 35.0418,26.3007 33.5,25.5C 33.5,23.5 33.5,21.5 33.5,19.5C 38.7288,14.4322 45.0621,11.9322 52.5,12C 54.0375,10.2927 55.7041,8.79267 57.5,7.5C 63.4093,6.54472 69.4093,6.21139 75.5,6.5 Z"/></g>
<g><path style="opacity:1" fill="#11110f" d="M 20.5,11.5 C 26.1523,12.6262 26.819,15.1262 22.5,19C 24.1783,18.8877 25.845,18.3877 27.5,17.5C 29.5,17.5 30.5,18.5 30.5,20.5C 30.5658,22.2664 29.7324,23.2664 28,23.5C 23.0882,20.4317 21.5882,21.765 23.5,27.5C 22.5,28.8333 21.5,28.8333 20.5,27.5C 21.7059,25.4841 21.7059,23.4841 20.5,21.5C 15.9459,24.8436 13.7792,23.8436 14,18.5C 14.7247,17.9415 15.5581,17.6082 16.5,17.5C 18.155,18.3877 19.8217,18.8877 21.5,19C 19.2854,16.7585 18.9521,14.2585 20.5,11.5 Z"/></g>
<g><path style="opacity:1" fill="#e3eadb" d="M 5.5,12.5 C 6.58617,12.62 7.25284,13.2867 7.5,14.5C 7.16667,15.1667 6.83333,15.8333 6.5,16.5C 5.57131,15.3112 5.23798,13.9778 5.5,12.5 Z"/></g>
<g><path style="opacity:1" fill="#e3eadb" d="M 101.5,12.5 C 102.586,12.62 103.253,13.2867 103.5,14.5C 103.167,15.1667 102.833,15.8333 102.5,16.5C 101.571,15.3112 101.238,13.9778 101.5,12.5 Z"/></g>
<g><path style="opacity:1" fill="#e6dbcb" d="M 59.5,19.5 C 59.5,21.5 59.5,23.5 59.5,25.5C 57.412,24.0605 55.0786,23.3939 52.5,23.5C 52.0338,25.2012 52.0338,26.7012 52.5,28C 54.1796,28.0343 55.6796,28.201 57,28.5C 57.4169,27.244 58.2502,26.5774 59.5,26.5C 62.6614,33.9468 60.3281,38.9468 52.5,41.5C 49.4281,41.8174 46.4281,41.4841 43.5,40.5C 42.6906,38.9291 42.3573,37.2624 42.5,35.5C 45.4317,35.2843 48.0983,35.951 50.5,37.5C 51.737,37.4435 52.737,36.9435 53.5,36C 50.5982,34.3926 47.9315,32.5593 45.5,30.5C 47.3868,29.2321 48.3868,27.3987 48.5,25C 47.1812,22.7605 45.5146,20.9272 43.5,19.5C 48.7029,18.2433 54.0362,18.2433 59.5,19.5 Z"/></g>
<g><path style="opacity:1" fill="#1d1d1c" d="M 5.5,21.5 C 6.5,21.5 7.5,21.5 8.5,21.5C 8.33982,23.1992 8.50649,24.8659 9,26.5C 10.0113,25.6634 11.1779,25.33 12.5,25.5C 12.5,26.8333 12.5,28.1667 12.5,29.5C 11.0695,29.5792 9.73619,29.2458 8.5,28.5C 7.35536,29.7757 7.35536,31.109 8.5,32.5C 7.5,33.8333 6.5,33.8333 5.5,32.5C 6.64464,31.109 6.64464,29.7757 5.5,28.5C 2.3982,29.8934 1.3982,29.06 2.5,26C 3.83333,26 5.16667,26 6.5,26C 5.61983,24.6439 5.28649,23.1439 5.5,21.5 Z"/></g>
<g><path style="opacity:1" fill="#f3ec0d" d="M 81.5,21.5 C 81.5569,22.609 81.8902,23.609 82.5,24.5C 82.5,27.5 82.5,30.5 82.5,33.5C 81.0527,34.6222 80.0527,36.1222 79.5,38C 77.751,38.7848 76.0843,39.6182 74.5,40.5C 73.8501,40.1961 73.1835,39.8627 72.5,39.5C 71.7313,34.4884 71.0646,29.4884 70.5,24.5C 74.5322,24.5768 78.1989,23.5768 81.5,21.5 Z"/></g>
<g><path style="opacity:1" fill="#1d1d1b" d="M 97.5,29.5 C 96.1667,28.1667 96.1667,26.8333 97.5,25.5C 98.4959,25.4142 99.3292,25.7476 100,26.5C 100.494,24.8659 100.66,23.1992 100.5,21.5C 101.5,21.5 102.5,21.5 103.5,21.5C 103.714,23.1439 103.38,24.6439 102.5,26C 103.833,26 105.167,26 106.5,26C 107.602,29.06 106.602,29.8934 103.5,28.5C 102.355,29.7757 102.355,31.109 103.5,32.5C 102.5,33.8333 101.5,33.8333 100.5,32.5C 101.984,28.8842 100.984,27.8842 97.5,29.5 Z"/></g>
<g><path style="opacity:1" fill="#7b7c77" d="M 59.5,25.5 C 59.5,25.8333 59.5,26.1667 59.5,26.5C 58.2502,26.5774 57.4169,27.244 57,28.5C 55.6796,28.201 54.1796,28.0343 52.5,28C 52.0338,26.7012 52.0338,25.2012 52.5,23.5C 55.0786,23.3939 57.412,24.0605 59.5,25.5 Z"/></g>
<g><path style="opacity:1" fill="#605f59" d="M 43.5,19.5 C 45.5146,20.9272 47.1812,22.7605 48.5,25C 48.3868,27.3987 47.3868,29.2321 45.5,30.5C 45.7512,28.8297 46.4178,27.3297 47.5,26C 45.9813,26.3308 44.648,26.1641 43.5,25.5C 43.6716,24.5084 43.3382,23.8417 42.5,23.5C 42.2322,21.901 42.5655,20.5676 43.5,19.5 Z"/></g>
<g><path style="opacity:1" fill="#7097aa" d="M 97.5,25.5 C 96.1667,26.8333 96.1667,28.1667 97.5,29.5C 96.3371,32.8094 95.1704,36.1427 94,39.5C 92.0475,37.6627 91.0475,35.3294 91,32.5C 89.6814,34.2495 89.1814,36.2495 89.5,38.5C 87.9582,37.6993 86.2915,37.366 84.5,37.5C 85.4731,35.9317 85.6397,34.265 85,32.5C 84.1618,33.999 83.3285,34.3324 82.5,33.5C 82.5,30.5 82.5,27.5 82.5,24.5C 83.7409,22.0688 84.9076,22.0688 86,24.5C 87.1532,21.2889 87.8198,17.9555 88,14.5C 90.5758,11.8469 92.0758,12.5136 92.5,16.5C 91.5601,19.1316 91.3934,21.7983 92,24.5C 92.3408,21.8132 93.6742,19.8132 96,18.5C 96.1862,21.0356 96.6862,23.369 97.5,25.5 Z"/></g>
<g><path style="opacity:1" fill="#279437" d="M 33.5,25.5 C 35.0418,26.3007 36.7085,26.634 38.5,26.5C 37.7515,28.3325 36.7515,29.9991 35.5,31.5C 35.1667,31.5 34.8333,31.5 34.5,31.5C 33.5386,29.7354 33.2053,27.7354 33.5,25.5 Z"/></g>
<g><path style="opacity:1" fill="#b7a71a" d="M 38.5,26.5 C 39.1667,26.5 39.8333,26.5 40.5,26.5C 42.0291,29.8823 40.8625,32.2156 37,33.5C 35.9701,33.1639 35.4701,32.4972 35.5,31.5C 36.7515,29.9991 37.7515,28.3325 38.5,26.5 Z"/></g>
<g><path style="opacity:1" fill="#e3d5c3" d="M 43.5,25.5 C 44.648,26.1641 45.9813,26.3308 47.5,26C 46.4178,27.3297 45.7512,28.8297 45.5,30.5C 44.8423,31.3984 44.1757,32.3984 43.5,33.5C 42.1997,30.6908 42.1997,28.0241 43.5,25.5 Z"/></g>
<g><path style="opacity:1" fill="#a59423" d="M 59.5,19.5 C 60.8734,19.3433 62.2068,19.51 63.5,20C 65.2219,22.5108 67.5553,24.0108 70.5,24.5C 71.0646,29.4884 71.7313,34.4884 72.5,39.5C 73.1835,39.8627 73.8501,40.1961 74.5,40.5C 74.5674,41.9587 74.2341,43.2921 73.5,44.5C 72.5,44.8333 71.8333,45.5 71.5,46.5C 69.3792,46.6747 67.3792,46.3414 65.5,45.5C 64.0695,45.4208 62.7362,45.7542 61.5,46.5C 60.8333,45.8333 60.1667,45.1667 59.5,44.5C 55.6928,46.3257 51.6928,47.3257 47.5,47.5C 47.5858,46.5041 47.2524,45.6708 46.5,45C 47.2893,41.9031 48.456,41.7364 50,44.5C 50.6979,43.3094 51.5313,42.3094 52.5,41.5C 60.3281,38.9468 62.6614,33.9468 59.5,26.5C 59.5,26.1667 59.5,25.8333 59.5,25.5C 59.5,23.5 59.5,21.5 59.5,19.5 Z"/></g>
<g><path style="opacity:1" fill="#e5ecd7" d="M 84.5,37.5 C 82.9995,40.6573 81.9995,43.9906 81.5,47.5C 79.2018,45.5393 76.5351,44.5393 73.5,44.5C 74.2341,43.2921 74.5674,41.9587 74.5,40.5C 76.0843,39.6182 77.751,38.7848 79.5,38C 80.0527,36.1222 81.0527,34.6222 82.5,33.5C 83.3285,34.3324 84.1618,33.999 85,32.5C 85.6397,34.265 85.4731,35.9317 84.5,37.5 Z"/></g>
<g><path style="opacity:1" fill="#1b171a" d="M 7.5,67.5 C 6.24334,72.9638 6.24334,78.2971 7.5,83.5C 7.16667,84.1667 6.83333,84.8333 6.5,85.5C 6.21427,91.2586 6.5476,96.9252 7.5,102.5C 6.66973,112.659 6.16973,122.992 6,133.5C 5.33333,100.833 5.33333,68.1667 6,35.5C 6.16962,46.3412 6.66962,57.0079 7.5,67.5 Z"/></g>
<g><path style="opacity:1" fill="#1a1719" d="M 101.5,100.5 C 102.8,95.4001 102.8,90.4001 101.5,85.5C 101.833,84.8333 102.167,84.1667 102.5,83.5C 102.786,77.7414 102.452,72.0748 101.5,66.5C 102.33,56.3415 102.83,46.0081 103,35.5C 103.667,68.1667 103.667,100.833 103,133.5C 102.83,122.326 102.33,111.326 101.5,100.5 Z"/></g>
<g><path style="opacity:1" fill="#958327" d="M 42.5,23.5 C 43.3382,23.8417 43.6716,24.5084 43.5,25.5C 42.1997,28.0241 42.1997,30.6908 43.5,33.5C 44.1757,32.3984 44.8423,31.3984 45.5,30.5C 47.9315,32.5593 50.5982,34.3926 53.5,36C 52.737,36.9435 51.737,37.4435 50.5,37.5C 48.0983,35.951 45.4317,35.2843 42.5,35.5C 42.3573,37.2624 42.6906,38.9291 43.5,40.5C 46.4281,41.4841 49.4281,41.8174 52.5,41.5C 51.5313,42.3094 50.6979,43.3094 50,44.5C 48.456,41.7364 47.2893,41.9031 46.5,45C 47.2524,45.6708 47.5858,46.5041 47.5,47.5C 44.6118,47.7804 43.1118,46.4471 43,43.5C 42.6667,43.8333 42.3333,44.1667 42,44.5C 41.5831,43.244 40.7498,42.5774 39.5,42.5C 38.609,41.8902 37.609,41.5569 36.5,41.5C 36.1667,41.5 35.8333,41.5 35.5,41.5C 33.5326,38.3085 33.1992,34.9752 34.5,31.5C 34.8333,31.5 35.1667,31.5 35.5,31.5C 35.4701,32.4972 35.9701,33.1639 37,33.5C 40.8625,32.2156 42.0291,29.8823 40.5,26.5C 41.1667,25.5 41.8333,24.5 42.5,23.5 Z"/></g>
<g><path style="opacity:1" fill="#c2b133" d="M 84.5,37.5 C 86.2915,37.366 87.9582,37.6993 89.5,38.5C 89.6989,41.4557 90.0322,44.4557 90.5,47.5C 89.7573,48.1818 89.0906,48.8485 88.5,49.5C 86.6656,50.494 84.9989,50.494 83.5,49.5C 83.5912,47.3023 82.9245,46.9689 81.5,48.5C 81.5,48.1667 81.5,47.8333 81.5,47.5C 81.9995,43.9906 82.9995,40.6573 84.5,37.5 Z"/></g>
<g><path style="opacity:1" fill="#653a2b" d="M 35.5,41.5 C 35.8333,41.5 36.1667,41.5 36.5,41.5C 36.5774,42.7498 37.244,43.5831 38.5,44C 37.3659,45.016 37.6992,45.6827 39.5,46C 38.5842,46.2784 37.9175,46.7784 37.5,47.5C 36.596,46.791 36.2627,45.791 36.5,44.5C 35.5,44.5 34.5,44.5 33.5,44.5C 32.0813,43.5489 30.4147,43.2155 28.5,43.5C 30.5145,42.0762 32.8478,41.4095 35.5,41.5 Z"/></g>
<g><path style="opacity:1" fill="#9b261e" d="M 28.5,43.5 C 30.4147,43.2155 32.0813,43.5489 33.5,44.5C 33.5,45.1667 33.1667,45.5 32.5,45.5C 30.2863,46.874 27.953,48.0406 25.5,49C 23.615,52.3244 21.615,55.491 19.5,58.5C 17.9121,56.8867 16.9121,54.8867 16.5,52.5C 17.9498,49.2155 20.2832,46.7155 23.5,45C 25.0249,43.9914 26.6916,43.4914 28.5,43.5 Z"/></g>
<g><path style="opacity:1" fill="#dbc70b" d="M 33.5,44.5 C 34.5,44.5 35.5,44.5 36.5,44.5C 36.2627,45.791 36.596,46.791 37.5,47.5C 37.5,48.1667 37.8333,48.5 38.5,48.5C 38.366,50.2915 38.6993,51.9582 39.5,53.5C 39.7215,56.0673 40.3882,58.4006 41.5,60.5C 42.2102,64.2513 43.2102,67.918 44.5,71.5C 42.9505,72.4408 41.2838,73.1075 39.5,73.5C 39.5,73.1667 39.5,72.8333 39.5,72.5C 39.5086,70.6916 39.0086,69.0249 38,67.5C 37.5041,72.1335 36.3375,76.4668 34.5,80.5C 35.2678,76.0246 35.9345,71.5246 36.5,67C 36.536,64.3701 36.036,61.8701 35,59.5C 34.7679,60.7375 34.2679,61.7375 33.5,62.5C 33.6567,61.1266 33.49,59.7932 33,58.5C 32.6232,59.9423 31.7899,60.9423 30.5,61.5C 31.6334,58.7291 32.6334,55.8958 33.5,53C 33.472,51.9302 33.1386,51.0968 32.5,50.5C 32.5,48.8333 32.5,47.1667 32.5,45.5C 33.1667,45.5 33.5,45.1667 33.5,44.5 Z"/></g>
<g><path style="opacity:1" fill="#449d2f" d="M 73.5,44.5 C 76.5351,44.5393 79.2018,45.5393 81.5,47.5C 81.5,47.8333 81.5,48.1667 81.5,48.5C 80.8333,49.5 80.1667,50.5 79.5,51.5C 78.5084,51.6716 77.8417,51.3382 77.5,50.5C 77.3059,48.0882 75.9726,47.0882 73.5,47.5C 73.1201,49.698 73.7868,51.3646 75.5,52.5C 76.4387,53.3274 76.1054,53.9941 74.5,54.5C 73.5489,52.882 72.2156,51.5487 70.5,50.5C 67.852,52.2057 67.852,53.8724 70.5,55.5C 71.8012,57.456 71.3012,59.1226 69,60.5C 67.8118,59.4366 67.3118,58.1033 67.5,56.5C 67.1788,54.9519 66.1788,54.2852 64.5,54.5C 64.2641,57.6085 64.5975,60.6085 65.5,63.5C 65.1667,64.5 64.5,65.1667 63.5,65.5C 63.1249,63.3024 62.4582,61.3024 61.5,59.5C 60.9232,57.3484 59.7565,57.015 58,58.5C 57.5012,62.4862 57.3345,66.4862 57.5,70.5C 57.1667,71.5 56.5,72.1667 55.5,72.5C 55.8537,68.3628 55.3537,64.3628 54,60.5C 53,59.1667 52,59.1667 51,60.5C 50.5065,62.1341 50.3398,63.8008 50.5,65.5C 50.7744,70.263 50.441,74.9296 49.5,79.5C 49.1667,79.5 48.8333,79.5 48.5,79.5C 47.8333,79.5 47.5,79.1667 47.5,78.5C 48.1157,77.7978 48.1157,76.7978 47.5,75.5C 47.7325,70.1063 48.3992,64.773 49.5,59.5C 52.2542,56.9484 55.2542,55.6151 58.5,55.5C 59.9952,55.0113 61.3285,54.3446 62.5,53.5C 63.5072,52.1716 64.8405,51.1716 66.5,50.5C 67.3857,49.675 67.719,48.675 67.5,47.5C 69.099,47.7678 70.4324,47.4345 71.5,46.5C 71.8333,45.5 72.5,44.8333 73.5,44.5 Z"/></g>
<g><path style="opacity:1" fill="#1e9030" d="M 32.5,45.5 C 32.5,47.1667 32.5,48.8333 32.5,50.5C 27.8471,54.453 24.6804,59.453 23,65.5C 19.6919,65.9189 16.8586,67.2522 14.5,69.5C 14.366,67.7085 14.6993,66.0418 15.5,64.5C 17.316,62.8816 18.6493,60.8816 19.5,58.5C 21.615,55.491 23.615,52.3244 25.5,49C 27.953,48.0406 30.2863,46.874 32.5,45.5 Z"/></g>
<g><path style="opacity:1" fill="#ecebe6" d="M 36.5,41.5 C 37.609,41.5569 38.609,41.8902 39.5,42.5C 41.5797,46.0865 44.2463,49.2532 47.5,52C 50.3094,52.1799 52.9761,51.5132 55.5,50C 52.867,50.2532 50.2004,50.2532 47.5,50C 46.4019,49.2303 46.4019,48.397 47.5,47.5C 51.6928,47.3257 55.6928,46.3257 59.5,44.5C 60.1667,45.1667 60.8333,45.8333 61.5,46.5C 62.7362,45.7542 64.0695,45.4208 65.5,45.5C 64.0681,48.1023 62.0681,50.2689 59.5,52C 60.7375,52.2321 61.7375,52.7321 62.5,53.5C 60.5168,53.1568 59.1834,53.8235 58.5,55.5C 57.2652,55.2786 56.2652,54.6119 55.5,53.5C 54.2299,54.5622 53.0633,55.5622 52,56.5C 51.3946,54.5188 50.3946,54.1854 49,55.5C 47.2183,53.6875 44.7183,52.0208 41.5,50.5C 39.4706,51.6293 39.1373,51.1293 40.5,49C 39.9056,48.5357 39.2389,48.369 38.5,48.5C 37.8333,48.5 37.5,48.1667 37.5,47.5C 37.9175,46.7784 38.5842,46.2784 39.5,46C 37.6992,45.6827 37.3659,45.016 38.5,44C 37.244,43.5831 36.5774,42.7498 36.5,41.5 Z"/></g>
<g><path style="opacity:1" fill="#8a9185" d="M 65.5,45.5 C 67.3792,46.3414 69.3792,46.6747 71.5,46.5C 70.4324,47.4345 69.099,47.7678 67.5,47.5C 67.719,48.675 67.3857,49.675 66.5,50.5C 64.8405,51.1716 63.5072,52.1716 62.5,53.5C 61.7375,52.7321 60.7375,52.2321 59.5,52C 62.0681,50.2689 64.0681,48.1023 65.5,45.5 Z"/></g>
<g><path style="opacity:1" fill="#dbd40a" d="M 77.5,50.5 C 74.477,47.8216 73.8103,48.4882 75.5,52.5C 73.7868,51.3646 73.1201,49.698 73.5,47.5C 75.9726,47.0882 77.3059,48.0882 77.5,50.5 Z"/></g>
<g><path style="opacity:1" fill="#ebd4c3" d="M 83.5,49.5 C 84.9989,50.494 86.6656,50.494 88.5,49.5C 90.9249,52.5886 92.9249,55.9219 94.5,59.5C 93.5386,61.2646 93.2053,63.2646 93.5,65.5C 91.9468,67.385 89.9468,68.385 87.5,68.5C 87.1667,67.5 86.5,66.8333 85.5,66.5C 85.0876,62.6629 83.7543,61.9962 81.5,64.5C 80.0069,63.6879 79.3402,62.3545 79.5,60.5C 79.8139,57.7084 80.8139,55.2084 82.5,53C 82.4301,52.2352 82.0967,51.7352 81.5,51.5C 81.8333,50.5 82.5,49.8333 83.5,49.5 Z"/></g>
<g><path style="opacity:1" fill="#c6281d" d="M 32.5,50.5 C 33.1386,51.0968 33.472,51.9302 33.5,53C 32.6334,55.8958 31.6334,58.7291 30.5,61.5C 28.8333,62.1667 27.1667,62.8333 25.5,63.5C 27.4312,58.9147 29.7645,54.5814 32.5,50.5 Z"/></g>
<g><path style="opacity:1" fill="#75786f" d="M 38.5,48.5 C 39.2389,48.369 39.9056,48.5357 40.5,49C 39.1373,51.1293 39.4706,51.6293 41.5,50.5C 44.7183,52.0208 47.2183,53.6875 49,55.5C 50.3946,54.1854 51.3946,54.5188 52,56.5C 53.0633,55.5622 54.2299,54.5622 55.5,53.5C 56.2652,54.6119 57.2652,55.2786 58.5,55.5C 55.2542,55.6151 52.2542,56.9484 49.5,59.5C 49.719,58.325 49.3857,57.325 48.5,56.5C 46.5914,55.6518 44.5914,55.3184 42.5,55.5C 42.1788,53.9519 41.1788,53.2852 39.5,53.5C 38.6993,51.9582 38.366,50.2915 38.5,48.5 Z"/></g>
<g><path style="opacity:1" fill="#898674" d="M 39.5,42.5 C 40.7498,42.5774 41.5831,43.244 42,44.5C 42.3333,44.1667 42.6667,43.8333 43,43.5C 43.1118,46.4471 44.6118,47.7804 47.5,47.5C 46.4019,48.397 46.4019,49.2303 47.5,50C 50.2004,50.2532 52.867,50.2532 55.5,50C 52.9761,51.5132 50.3094,52.1799 47.5,52C 44.2463,49.2532 41.5797,46.0865 39.5,42.5 Z"/></g>
<g><path style="opacity:1" fill="#c9b611" d="M 74.5,54.5 C 74.44,55.0431 74.1067,55.3764 73.5,55.5C 71.678,51.8979 70.678,51.8979 70.5,55.5C 67.852,53.8724 67.852,52.2057 70.5,50.5C 72.2156,51.5487 73.5489,52.882 74.5,54.5 Z"/></g>
<g><path style="opacity:1" fill="#e38a7d" d="M 83.5,49.5 C 82.5,49.8333 81.8333,50.5 81.5,51.5C 77.7731,56.2297 73.4397,60.2297 68.5,63.5C 72.1667,59.5 75.8333,55.5 79.5,51.5C 80.1667,50.5 80.8333,49.5 81.5,48.5C 82.9245,46.9689 83.5912,47.3023 83.5,49.5 Z"/></g>
<g><path style="opacity:1" fill="#c22020" d="M 81.5,51.5 C 82.0967,51.7352 82.4301,52.2352 82.5,53C 80.8139,55.2084 79.8139,57.7084 79.5,60.5C 79.3402,62.3545 80.0069,63.6879 81.5,64.5C 80.7045,70.9115 80.0378,77.5781 79.5,84.5C 76.5,84.5 73.5,84.5 70.5,84.5C 70.81,87.7131 70.4767,90.7131 69.5,93.5C 68.8553,91.1737 67.522,89.507 65.5,88.5C 63.6703,85.97 62.0037,86.3033 60.5,89.5C 59.8826,89.6107 59.3826,89.944 59,90.5C 58.501,94.8206 58.3343,99.1539 58.5,103.5C 57.9348,105.42 56.9348,107.087 55.5,108.5C 55.2685,103.721 54.6018,99.7215 53.5,96.5C 52.5,96.8333 51.8333,97.5 51.5,98.5C 50.6773,101.977 50.1773,105.644 50,109.5C 49.2303,110.598 48.397,110.598 47.5,109.5C 47.6747,107.379 47.3414,105.379 46.5,103.5C 46.3893,102.883 46.056,102.383 45.5,102C 47.8333,99.6667 50.1667,97.3333 52.5,95C 51.8333,94.3333 51.1667,94.3333 50.5,95C 42.9382,102.73 35.2715,110.23 27.5,117.5C 26.9033,117.265 26.5699,116.765 26.5,116C 28.1861,113.792 29.1861,111.292 29.5,108.5C 29.3601,106.97 28.6935,105.97 27.5,105.5C 27.615,103.053 28.615,101.053 30.5,99.5C 36.1082,95.561 41.1082,90.8943 45.5,85.5C 53.7993,78.8683 61.4659,71.5349 68.5,63.5C 73.4397,60.2297 77.7731,56.2297 81.5,51.5 Z"/></g>
<g><path style="opacity:1" fill="#198f31" d="M 39.5,53.5 C 41.1788,53.2852 42.1788,53.9519 42.5,55.5C 41.6993,57.0418 41.366,58.7085 41.5,60.5C 40.3882,58.4006 39.7215,56.0673 39.5,53.5 Z"/></g>
<g><path style="opacity:1" fill="#35382f" d="M 62.5,53.5 C 61.3285,54.3446 59.9952,55.0113 58.5,55.5C 59.1834,53.8235 60.5168,53.1568 62.5,53.5 Z"/></g>
<g><path style="opacity:1" fill="#b73729" d="M 42.5,55.5 C 44.5914,55.3184 46.5914,55.6518 48.5,56.5C 49.3857,57.325 49.719,58.325 49.5,59.5C 48.3992,64.773 47.7325,70.1063 47.5,75.5C 46.5,74.1667 45.5,72.8333 44.5,71.5C 43.2102,67.918 42.2102,64.2513 41.5,60.5C 41.366,58.7085 41.6993,57.0418 42.5,55.5 Z"/></g>
<g><path style="opacity:1" fill="#d3bd0e" d="M 67.5,56.5 C 66.1054,54.9456 65.4387,55.279 65.5,57.5C 66.1556,59.4534 66.4889,61.4534 66.5,63.5C 66.1667,63.5 65.8333,63.5 65.5,63.5C 64.5975,60.6085 64.2641,57.6085 64.5,54.5C 66.1788,54.2852 67.1788,54.9519 67.5,56.5 Z"/></g>
<g><path style="opacity:1" fill="#4d5175" d="M 16.5,52.5 C 16.9121,54.8867 17.9121,56.8867 19.5,58.5C 18.6493,60.8816 17.316,62.8816 15.5,64.5C 13.7918,62.4876 11.7918,62.1542 9.5,63.5C 10.6571,59.0243 12.9905,55.3577 16.5,52.5 Z"/></g>
<g><path style="opacity:1" fill="#c73020" d="M 77.5,50.5 C 77.8417,51.3382 78.5084,51.6716 79.5,51.5C 75.8333,55.5 72.1667,59.5 68.5,63.5C 67.8333,63.5 67.1667,63.5 66.5,63.5C 66.4889,61.4534 66.1556,59.4534 65.5,57.5C 65.4387,55.279 66.1054,54.9456 67.5,56.5C 67.3118,58.1033 67.8118,59.4366 69,60.5C 71.3012,59.1226 71.8012,57.456 70.5,55.5C 70.678,51.8979 71.678,51.8979 73.5,55.5C 74.1067,55.3764 74.44,55.0431 74.5,54.5C 76.1054,53.9941 76.4387,53.3274 75.5,52.5C 73.8103,48.4882 74.477,47.8216 77.5,50.5 Z"/></g>
<g><path style="opacity:1" fill="#389e30" d="M 33.5,62.5 C 33.5,62.8333 33.5,63.1667 33.5,63.5C 32.7784,63.9175 32.2784,64.5842 32,65.5C 31.5006,70.8229 31.334,76.1563 31.5,81.5C 32.791,81.7373 33.791,81.404 34.5,80.5C 36.3375,76.4668 37.5041,72.1335 38,67.5C 39.0086,69.0249 39.5086,70.6916 39.5,72.5C 38.5166,76.2984 38.1832,80.2984 38.5,84.5C 35.5,84.5 32.5,84.5 29.5,84.5C 28.1667,84.5 26.8333,84.5 25.5,84.5C 25.1667,84.5 24.8333,84.5 24.5,84.5C 25.6857,83.0387 25.6857,81.7054 24.5,80.5C 27.0003,76.6278 28.167,72.2945 28,67.5C 28.6552,65.3716 29.4886,63.3716 30.5,61.5C 31.7899,60.9423 32.6232,59.9423 33,58.5C 33.49,59.7932 33.6567,61.1266 33.5,62.5 Z"/></g>
<g><path style="opacity:1" fill="#c21d1d" d="M 34.5,80.5 C 33.1952,78.6028 32.5286,76.2695 32.5,73.5C 32.6449,70.1327 32.9782,66.7994 33.5,63.5C 33.5,63.1667 33.5,62.8333 33.5,62.5C 34.2679,61.7375 34.7679,60.7375 35,59.5C 36.036,61.8701 36.536,64.3701 36.5,67C 35.9345,71.5246 35.2678,76.0246 34.5,80.5 Z"/></g>
<g><path style="opacity:1" fill="#c4281e" d="M 61.5,59.5 C 61.1706,62.2282 61.8372,64.5615 63.5,66.5C 59.4407,71.562 54.774,75.8953 49.5,79.5C 50.441,74.9296 50.7744,70.263 50.5,65.5C 51.1614,64.2825 51.8281,62.9492 52.5,61.5C 53.7338,65.8035 54.7338,69.4701 55.5,72.5C 56.5,72.1667 57.1667,71.5 57.5,70.5C 58.3227,67.023 58.8227,63.3563 59,59.5C 59.7697,58.4019 60.603,58.4019 61.5,59.5 Z"/></g>
<g><path style="opacity:1" fill="#b82120" d="M 94.5,59.5 C 96.1624,62.4902 98.4957,64.8236 101.5,66.5C 102.452,72.0748 102.786,77.7414 102.5,83.5C 99.4753,78.2736 97.3086,72.607 96,66.5C 95.3292,65.7476 94.4959,65.4142 93.5,65.5C 93.2053,63.2646 93.5386,61.2646 94.5,59.5 Z"/></g>
<g><path style="opacity:1" fill="#b51e1d" d="M 15.5,64.5 C 14.6993,66.0418 14.366,67.7085 14.5,69.5C 11.8352,71.8355 10.5018,74.8355 10.5,78.5C 8.74973,79.6594 7.74973,81.326 7.5,83.5C 6.24334,78.2971 6.24334,72.9638 7.5,67.5C 7.6596,65.847 8.32627,64.5137 9.5,63.5C 11.7918,62.1542 13.7918,62.4876 15.5,64.5 Z"/></g>
<g><path style="opacity:1" fill="#dca911" d="M 55.5,72.5 C 54.7338,69.4701 53.7338,65.8035 52.5,61.5C 51.8281,62.9492 51.1614,64.2825 50.5,65.5C 50.3398,63.8008 50.5065,62.1341 51,60.5C 52,59.1667 53,59.1667 54,60.5C 55.3537,64.3628 55.8537,68.3628 55.5,72.5 Z"/></g>
<g><path style="opacity:1" fill="#c8b75e" d="M 85.5,66.5 C 84.5526,72.4657 83.8859,78.4657 83.5,84.5C 82.1667,84.5 80.8333,84.5 79.5,84.5C 80.0378,77.5781 80.7045,70.9115 81.5,64.5C 83.7543,61.9962 85.0876,62.6629 85.5,66.5 Z"/></g>
<g><path style="opacity:1" fill="#d8b510" d="M 61.5,59.5 C 62.4582,61.3024 63.1249,63.3024 63.5,65.5C 63.5,65.8333 63.5,66.1667 63.5,66.5C 61.8372,64.5615 61.1706,62.2282 61.5,59.5 Z"/></g>
<g><path style="opacity:1" fill="#c7c70d" d="M 61.5,59.5 C 60.603,58.4019 59.7697,58.4019 59,59.5C 58.8227,63.3563 58.3227,67.023 57.5,70.5C 57.3345,66.4862 57.5012,62.4862 58,58.5C 59.7565,57.015 60.9232,57.3484 61.5,59.5 Z"/></g>
<g><path style="opacity:1" fill="#2a8f30" d="M 93.5,65.5 C 94.4959,65.4142 95.3292,65.7476 96,66.5C 97.3086,72.607 99.4753,78.2736 102.5,83.5C 102.167,84.1667 101.833,84.8333 101.5,85.5C 101.25,87.674 100.25,89.3406 98.5,90.5C 98.5,88.5 98.5,86.5 98.5,84.5C 94.8333,84.5 91.1667,84.5 87.5,84.5C 88.2401,79.0929 88.2401,73.7595 87.5,68.5C 89.9468,68.385 91.9468,67.385 93.5,65.5 Z"/></g>
<g><path style="opacity:1" fill="#be211f" d="M 85.5,66.5 C 86.5,66.8333 87.1667,67.5 87.5,68.5C 88.2401,73.7595 88.2401,79.0929 87.5,84.5C 86.5,84.5 85.5,84.5 84.5,84.5C 84.1667,84.5 83.8333,84.5 83.5,84.5C 83.8859,78.4657 84.5526,72.4657 85.5,66.5 Z"/></g>
<g><path style="opacity:1" fill="#e09d13" d="M 33.5,63.5 C 32.9782,66.7994 32.6449,70.1327 32.5,73.5C 32.5286,76.2695 33.1952,78.6028 34.5,80.5C 33.791,81.404 32.791,81.7373 31.5,81.5C 31.334,76.1563 31.5006,70.8229 32,65.5C 32.2784,64.5842 32.7784,63.9175 33.5,63.5 Z"/></g>
<g><path style="opacity:1" fill="#d3c925" d="M 32.5,50.5 C 29.7645,54.5814 27.4312,58.9147 25.5,63.5C 25.0766,64.2646 24.7432,65.0979 24.5,66C 25.8561,67.5671 26.5228,69.4004 26.5,71.5C 24.8561,71.2865 23.3561,71.6198 22,72.5C 20.2609,74.7098 19.0943,77.2098 18.5,80C 20.2044,83.0887 22.2044,83.2554 24.5,80.5C 25.6857,81.7054 25.6857,83.0387 24.5,84.5C 23.5,84.5 22.5,84.5 21.5,84.5C 17.8333,84.5 14.1667,84.5 10.5,84.5C 10.5,82.5 10.5,80.5 10.5,78.5C 10.5018,74.8355 11.8352,71.8355 14.5,69.5C 16.8586,67.2522 19.6919,65.9189 23,65.5C 24.6804,59.453 27.8471,54.453 32.5,50.5 Z"/></g>
<g><path style="opacity:1" fill="#e8e1cd" d="M 44.5,71.5 C 45.5,72.8333 46.5,74.1667 47.5,75.5C 48.1157,76.7978 48.1157,77.7978 47.5,78.5C 46.1667,79.1667 44.8333,79.8333 43.5,80.5C 40.9173,79.015 39.584,76.6817 39.5,73.5C 41.2838,73.1075 42.9505,72.4408 44.5,71.5 Z"/></g>
<g><path style="opacity:1" fill="#e48b7d" d="M 65.5,63.5 C 65.8333,63.5 66.1667,63.5 66.5,63.5C 67.1667,63.5 67.8333,63.5 68.5,63.5C 61.4659,71.5349 53.7993,78.8683 45.5,85.5C 45.5,84.8333 45.5,84.1667 45.5,83.5C 46.5,82.1667 47.5,80.8333 48.5,79.5C 48.8333,79.5 49.1667,79.5 49.5,79.5C 54.774,75.8953 59.4407,71.562 63.5,66.5C 63.5,66.1667 63.5,65.8333 63.5,65.5C 64.5,65.1667 65.1667,64.5 65.5,63.5 Z"/></g>
<g><path style="opacity:1" fill="#e5d21d" d="M 43.5,73.5 C 46.148,75.1276 46.148,76.7943 43.5,78.5C 40.8387,76.8277 40.8387,75.1611 43.5,73.5 Z"/></g>
<g><path style="opacity:1" fill="#dcc2a7" d="M 30.5,61.5 C 29.4886,63.3716 28.6552,65.3716 28,67.5C 28.167,72.2945 27.0003,76.6278 24.5,80.5C 22.2044,83.2554 20.2044,83.0887 18.5,80C 19.0943,77.2098 20.2609,74.7098 22,72.5C 23.3561,71.6198 24.8561,71.2865 26.5,71.5C 26.5228,69.4004 25.8561,67.5671 24.5,66C 24.7432,65.0979 25.0766,64.2646 25.5,63.5C 27.1667,62.8333 28.8333,62.1667 30.5,61.5 Z"/></g>
<g><path style="opacity:1" fill="#ddceaf" d="M 12.5,76.5 C 14.5323,77.0478 15.5323,78.3812 15.5,80.5C 14.5,80.5 13.5,80.5 12.5,80.5C 12.5,79.1667 12.5,77.8333 12.5,76.5 Z"/></g>
<g><path style="opacity:1" fill="#e5988d" d="M 69.5,76.5 C 70.2389,76.369 70.9056,76.5357 71.5,77C 68.6159,80.5856 65.2826,83.2522 61.5,85C 64.3714,82.2972 67.0381,79.4639 69.5,76.5 Z"/></g>
<g><path style="opacity:1" fill="#e1c01a" d="M 47.5,78.5 C 47.5,79.1667 47.8333,79.5 48.5,79.5C 47.5,80.8333 46.5,82.1667 45.5,83.5C 44.0937,83.0269 43.427,82.0269 43.5,80.5C 44.8333,79.8333 46.1667,79.1667 47.5,78.5 Z"/></g>
<g><path style="opacity:1" fill="#249031" d="M 10.5,78.5 C 10.5,80.5 10.5,82.5 10.5,84.5C 14.1667,84.5 17.8333,84.5 21.5,84.5C 20.3294,89.8491 20.3294,95.1825 21.5,100.5C 19.0532,100.615 17.0532,101.615 15.5,103.5C 14.5041,103.586 13.6708,103.252 13,102.5C 11.6914,96.393 9.52471,90.7264 6.5,85.5C 6.83333,84.8333 7.16667,84.1667 7.5,83.5C 7.74973,81.326 8.74973,79.6594 10.5,78.5 Z"/></g>
<g><path style="opacity:1" fill="#bf2622" d="M 39.5,72.5 C 39.5,72.8333 39.5,73.1667 39.5,73.5C 39.584,76.6817 40.9173,79.015 43.5,80.5C 43.427,82.0269 44.0937,83.0269 45.5,83.5C 45.5,84.1667 45.5,84.8333 45.5,85.5C 39.8918,89.439 34.8918,94.1057 30.5,99.5C 29.2521,98.6661 28.5854,97.3328 28.5,95.5C 29.1162,91.8548 29.4495,88.1881 29.5,84.5C 32.5,84.5 35.5,84.5 38.5,84.5C 38.1832,80.2984 38.5166,76.2984 39.5,72.5 Z"/></g>
<g><path style="opacity:1" fill="#b8291f" d="M 21.5,84.5 C 22.5,84.5 23.5,84.5 24.5,84.5C 24.8333,84.5 25.1667,84.5 25.5,84.5C 25.1141,90.5343 24.4474,96.5343 23.5,102.5C 22.5,102.167 21.8333,101.5 21.5,100.5C 20.3294,95.1825 20.3294,89.8491 21.5,84.5 Z"/></g>
<g><path style="opacity:1" fill="#c9b65f" d="M 25.5,84.5 C 26.8333,84.5 28.1667,84.5 29.5,84.5C 29.4495,88.1881 29.1162,91.8548 28.5,95.5C 28.5854,97.3328 29.2521,98.6661 30.5,99.5C 28.615,101.053 27.615,103.053 27.5,105.5C 24.9474,106.651 23.6141,105.651 23.5,102.5C 24.4474,96.5343 25.1141,90.5343 25.5,84.5 Z"/></g>
<g><path style="opacity:1" fill="#2d9a31" d="M 79.5,84.5 C 80.8333,84.5 82.1667,84.5 83.5,84.5C 83.8333,84.5 84.1667,84.5 84.5,84.5C 84.5,84.8333 84.5,85.1667 84.5,85.5C 83.2089,86.5417 83.2089,87.7083 84.5,89C 83.2986,89.9025 82.4652,91.0692 82,92.5C 81.6082,96.5276 81.1082,100.528 80.5,104.5C 79.0937,104.973 78.427,105.973 78.5,107.5C 77.2101,108.058 76.3768,109.058 76,110.5C 76.0105,106.775 76.6772,103.108 78,99.5C 78.8099,95.6425 78.6433,91.9758 77.5,88.5C 76.5,88.5 75.5,88.5 74.5,88.5C 72.1919,91.998 71.0253,95.998 71,100.5C 69.9914,98.9751 69.4914,97.3084 69.5,95.5C 69.5,94.8333 69.5,94.1667 69.5,93.5C 70.4767,90.7131 70.81,87.7131 70.5,84.5C 73.5,84.5 76.5,84.5 79.5,84.5 Z"/></g>
<g><path style="opacity:1" fill="#b82220" d="M 6.5,85.5 C 9.52471,90.7264 11.6914,96.393 13,102.5C 13.6708,103.252 14.5041,103.586 15.5,103.5C 15.8016,106.059 15.4682,108.393 14.5,110.5C 14.2969,108.956 13.6302,107.622 12.5,106.5C 10.2276,105.866 8.56094,104.532 7.5,102.5C 6.5476,96.9252 6.21427,91.2586 6.5,85.5 Z"/></g>
<g><path style="opacity:1" fill="#e2c51b" d="M 65.5,88.5 C 64.1667,89.1667 62.8333,89.8333 61.5,90.5C 61.5,89.8333 61.1667,89.5 60.5,89.5C 62.0037,86.3033 63.6703,85.97 65.5,88.5 Z"/></g>
<g><path style="opacity:1" fill="#b3211d" d="M 101.5,85.5 C 102.8,90.4001 102.8,95.4001 101.5,100.5C 101.296,102.685 100.63,104.685 99.5,106.5C 97.1016,106.741 95.1016,106.074 93.5,104.5C 94.038,102.883 94.3713,101.216 94.5,99.5C 97.1499,97.1919 98.4832,94.1919 98.5,90.5C 100.25,89.3406 101.25,87.674 101.5,85.5 Z"/></g>
<g><path style="opacity:1" fill="#e59083" d="M 45.5,85.5 C 41.1082,90.8943 36.1082,95.561 30.5,99.5C 34.8918,94.1057 39.8918,89.439 45.5,85.5 Z"/></g>
<g><path style="opacity:1" fill="#e2cbb4" d="M 84.5,85.5 C 84.3691,86.3764 84.7025,87.0431 85.5,87.5C 87.8696,85.9019 89.5362,86.4019 90.5,89C 89.47,91.5602 88.3034,94.0602 87,96.5C 85.6439,97.3802 84.1439,97.7135 82.5,97.5C 82.7036,99.6854 83.3702,101.685 84.5,103.5C 83.1667,104.167 81.8333,104.833 80.5,105.5C 80.5,105.167 80.5,104.833 80.5,104.5C 81.1082,100.528 81.6082,96.5276 82,92.5C 82.4652,91.0692 83.2986,89.9025 84.5,89C 83.2089,87.7083 83.2089,86.5417 84.5,85.5 Z"/></g>
<g><path style="opacity:1" fill="#e9e1cf" d="M 65.5,88.5 C 67.522,89.507 68.8553,91.1737 69.5,93.5C 69.5,94.1667 69.5,94.8333 69.5,95.5C 67.7162,95.8925 66.0495,96.5592 64.5,97.5C 63.5,96.1667 62.5,94.8333 61.5,93.5C 61.5,92.5 61.5,91.5 61.5,90.5C 62.8333,89.8333 64.1667,89.1667 65.5,88.5 Z"/></g>
<g><path style="opacity:1" fill="#e5d226" d="M 64.5,90.5 C 67.9563,91.5362 68.2896,93.2029 65.5,95.5C 63.2957,94.218 62.9624,92.5514 64.5,90.5 Z"/></g>
<g><path style="opacity:1" fill="#b43828" d="M 61.5,93.5 C 62.5,94.8333 63.5,96.1667 64.5,97.5C 66.0326,101.028 67.0326,104.695 67.5,108.5C 67.634,110.292 67.3007,111.958 66.5,113.5C 64.3792,113.675 62.3792,113.341 60.5,112.5C 60.1667,112.5 59.8333,112.5 59.5,112.5C 59.5,111.5 59.5,110.5 59.5,109.5C 60.2965,104.184 60.9631,98.8506 61.5,93.5 Z"/></g>
<g><path style="opacity:1" fill="#d7c50c" d="M 74.5,88.5 C 73.7322,92.9754 73.0655,97.4754 72.5,102C 72.464,104.63 72.964,107.13 74,109.5C 75.9129,102.625 77.0796,95.6245 77.5,88.5C 78.6433,91.9758 78.8099,95.6425 78,99.5C 76.6772,103.108 76.0105,106.775 76,110.5C 76.3768,109.058 77.2101,108.058 78.5,107.5C 78.205,109.423 77.3717,111.09 76,112.5C 75.2109,114.712 75.3775,116.712 76.5,118.5C 76.5,120.167 76.5,121.833 76.5,123.5C 75.8333,123.5 75.5,123.833 75.5,124.5C 74.5,124.5 73.5,124.5 72.5,124.5C 71.4942,121.79 70.4942,119.124 69.5,116.5C 69.5,116.167 69.5,115.833 69.5,115.5C 69.8294,112.772 69.1628,110.438 67.5,108.5C 67.0326,104.695 66.0326,101.028 64.5,97.5C 66.0495,96.5592 67.7162,95.8925 69.5,95.5C 69.4914,97.3084 69.9914,98.9751 71,100.5C 71.0253,95.998 72.1919,91.998 74.5,88.5 Z"/></g>
<g><path style="opacity:1" fill="#c3201d" d="M 74.5,88.5 C 75.5,88.5 76.5,88.5 77.5,88.5C 77.0796,95.6245 75.9129,102.625 74,109.5C 72.964,107.13 72.464,104.63 72.5,102C 73.0655,97.4754 73.7322,92.9754 74.5,88.5 Z"/></g>
<g><path style="opacity:1" fill="#3f9c30" d="M 60.5,89.5 C 61.1667,89.5 61.5,89.8333 61.5,90.5C 61.5,91.5 61.5,92.5 61.5,93.5C 60.9631,98.8506 60.2965,104.184 59.5,109.5C 56.7988,111.568 53.7988,112.901 50.5,113.5C 50.5,113.833 50.5,114.167 50.5,114.5C 47.1626,114.187 44.8293,115.52 43.5,118.5C 41.9519,118.821 41.2852,119.821 41.5,121.5C 39.901,121.232 38.5676,121.566 37.5,122.5C 36.8333,123.833 35.8333,124.833 34.5,125.5C 32.1667,124.167 29.8333,122.833 27.5,121.5C 27.5,121.167 27.5,120.833 27.5,120.5C 28.5,119.833 29.5,119.167 30.5,118.5C 31.4006,120.727 33.0672,121.727 35.5,121.5C 35.7475,119.142 35.0808,117.142 33.5,115.5C 33.5,114.833 33.8333,114.5 34.5,114.5C 35.3745,116.69 37.0411,117.69 39.5,117.5C 39.7678,115.901 39.4345,114.568 38.5,113.5C 37.1472,111.872 37.4805,110.538 39.5,109.5C 40.0781,112.37 41.7448,114.037 44.5,114.5C 44.81,111.287 44.4767,108.287 43.5,105.5C 43.8333,104.5 44.5,103.833 45.5,103.5C 45.8751,105.698 46.5418,107.698 47.5,109.5C 48.0768,111.652 49.2435,111.985 51,110.5C 51.4988,106.514 51.6655,102.514 51.5,98.5C 51.8333,97.5 52.5,96.8333 53.5,96.5C 53.3347,100.182 53.5014,103.848 54,107.5C 54.3826,108.056 54.8826,108.389 55.5,108.5C 56.1894,109.774 57.0228,109.774 58,108.5C 58.4935,106.866 58.6602,105.199 58.5,103.5C 58.3343,99.1539 58.501,94.8206 59,90.5C 59.3826,89.944 59.8826,89.6107 60.5,89.5 Z"/></g>
<g><path style="opacity:1" fill="#d0c624" d="M 84.5,84.5 C 85.5,84.5 86.5,84.5 87.5,84.5C 91.1667,84.5 94.8333,84.5 98.5,84.5C 98.5,86.5 98.5,88.5 98.5,90.5C 98.4832,94.1919 97.1499,97.1919 94.5,99.5C 92.1414,101.748 89.3081,103.081 86,103.5C 84.3196,109.547 81.1529,114.547 76.5,118.5C 79.9324,113.972 82.599,108.972 84.5,103.5C 83.3702,101.685 82.7036,99.6854 82.5,97.5C 84.1439,97.7135 85.6439,97.3802 87,96.5C 88.3034,94.0602 89.47,91.5602 90.5,89C 89.5362,86.4019 87.8696,85.9019 85.5,87.5C 84.7025,87.0431 84.3691,86.3764 84.5,85.5C 84.5,85.1667 84.5,84.8333 84.5,84.5 Z"/></g>
<g><path style="opacity:1" fill="#cdbd6d" d="M 93.5,88.5 C 94.5,88.5 95.5,88.5 96.5,88.5C 96.1156,90.9294 95.449,93.2627 94.5,95.5C 88.2131,95.83 87.8797,94.83 93.5,92.5C 93.5,91.1667 93.5,89.8333 93.5,88.5 Z"/></g>
<g><path style="opacity:1" fill="#ebd4c3" d="M 21.5,100.5 C 21.8333,101.5 22.5,102.167 23.5,102.5C 23.6141,105.651 24.9474,106.651 27.5,105.5C 28.6935,105.97 29.3601,106.97 29.5,108.5C 29.1861,111.292 28.1861,113.792 26.5,116C 26.5699,116.765 26.9033,117.265 27.5,117.5C 27.5,118.833 26.8333,119.5 25.5,119.5C 24.0011,118.506 22.3344,118.506 20.5,119.5C 18.2519,116.672 16.2519,113.672 14.5,110.5C 15.4682,108.393 15.8016,106.059 15.5,103.5C 17.0532,101.615 19.0532,100.615 21.5,100.5 Z"/></g>
<g><path style="opacity:1" fill="#199331" d="M 94.5,99.5 C 94.3713,101.216 94.038,102.883 93.5,104.5C 91.8079,106.205 90.4746,108.205 89.5,110.5C 86.7285,116.36 82.3951,120.693 76.5,123.5C 76.5,121.833 76.5,120.167 76.5,118.5C 81.1529,114.547 84.3196,109.547 86,103.5C 89.3081,103.081 92.1414,101.748 94.5,99.5 Z"/></g>
<g><path style="opacity:1" fill="#c5b212" d="M 55.5,108.5 C 54.8826,108.389 54.3826,108.056 54,107.5C 53.5014,103.848 53.3347,100.182 53.5,96.5C 54.6018,99.7215 55.2685,103.721 55.5,108.5 Z"/></g>
<g><path style="opacity:1" fill="#dcc60b" d="M 45.5,103.5 C 45.8333,103.5 46.1667,103.5 46.5,103.5C 47.3414,105.379 47.6747,107.379 47.5,109.5C 46.5418,107.698 45.8751,105.698 45.5,103.5 Z"/></g>
<g><path style="opacity:1" fill="#dfc50a" d="M 58.5,103.5 C 58.6602,105.199 58.4935,106.866 58,108.5C 57.0228,109.774 56.1894,109.774 55.5,108.5C 56.9348,107.087 57.9348,105.42 58.5,103.5 Z"/></g>
<g><path style="opacity:1" fill="#dcbe19" d="M 80.5,104.5 C 80.5,104.833 80.5,105.167 80.5,105.5C 80.1667,106.5 79.5,107.167 78.5,107.5C 78.427,105.973 79.0937,104.973 80.5,104.5 Z"/></g>
<g><path style="opacity:1" fill="#c93322" d="M 84.5,103.5 C 82.599,108.972 79.9324,113.972 76.5,118.5C 75.3775,116.712 75.2109,114.712 76,112.5C 77.3717,111.09 78.205,109.423 78.5,107.5C 79.5,107.167 80.1667,106.5 80.5,105.5C 81.8333,104.833 83.1667,104.167 84.5,103.5 Z"/></g>
<g><path style="opacity:1" fill="#4c4f76" d="M 93.5,104.5 C 95.1016,106.074 97.1016,106.741 99.5,106.5C 97.9125,110.41 95.5792,113.743 92.5,116.5C 92.0879,114.113 91.0879,112.113 89.5,110.5C 90.4746,108.205 91.8079,106.205 93.5,104.5 Z"/></g>
<g><path style="opacity:1" fill="#d5624b" d="M 46.5,103.5 C 46.1667,103.5 45.8333,103.5 45.5,103.5C 44.5,103.833 43.8333,104.5 43.5,105.5C 42.9096,107.99 42.743,110.657 43,113.5C 42.3333,112.167 41.6667,110.833 41,109.5C 40.31,108.262 39.81,108.262 39.5,109.5C 37.4805,110.538 37.1472,111.872 38.5,113.5C 38.322,117.102 37.322,117.102 35.5,113.5C 34.8933,113.624 34.56,113.957 34.5,114.5C 33.8333,114.5 33.5,114.833 33.5,115.5C 32.9569,115.56 32.6236,115.893 32.5,116.5C 35.1526,121.189 34.6526,121.523 31,117.5C 30.6012,117.728 30.4346,118.062 30.5,118.5C 29.5,119.167 28.5,119.833 27.5,120.5C 26.0755,122.031 25.4088,121.698 25.5,119.5C 26.8333,119.5 27.5,118.833 27.5,117.5C 35.2715,110.23 42.9382,102.73 50.5,95C 51.1667,94.3333 51.8333,94.3333 52.5,95C 50.1667,97.3333 47.8333,99.6667 45.5,102C 46.056,102.383 46.3893,102.883 46.5,103.5 Z"/></g>
<g><path style="opacity:1" fill="#2b932f" d="M 67.5,108.5 C 69.1628,110.438 69.8294,112.772 69.5,115.5C 67.8212,115.715 66.8212,115.048 66.5,113.5C 67.3007,111.958 67.634,110.292 67.5,108.5 Z"/></g>
<g><path style="opacity:1" fill="#cbc70d" d="M 51.5,98.5 C 51.6655,102.514 51.4988,106.514 51,110.5C 49.2435,111.985 48.0768,111.652 47.5,109.5C 48.397,110.598 49.2303,110.598 50,109.5C 50.1773,105.644 50.6773,101.977 51.5,98.5 Z"/></g>
<g><path style="opacity:1" fill="#57584a" d="M 59.5,109.5 C 59.5,110.5 59.5,111.5 59.5,112.5C 57.8762,112.36 56.7096,113.027 56,114.5C 55.586,114.043 55.086,113.709 54.5,113.5C 54.1667,114.167 53.8333,114.833 53.5,115.5C 52.7348,114.388 51.7348,113.721 50.5,113.5C 53.7988,112.901 56.7988,111.568 59.5,109.5 Z"/></g>
<g><path style="opacity:1" fill="#a11f1b" d="M 89.5,110.5 C 91.0879,112.113 92.0879,114.113 92.5,116.5C 90.1051,119.861 87.1051,122.528 83.5,124.5C 80.9327,124.721 78.5994,125.388 76.5,126.5C 73.075,126.633 72.7417,125.967 75.5,124.5C 75.5,123.833 75.8333,123.5 76.5,123.5C 82.3951,120.693 86.7285,116.36 89.5,110.5 Z"/></g>
<g><path style="opacity:1" fill="#ccbb0f" d="M 43.5,105.5 C 44.4767,108.287 44.81,111.287 44.5,114.5C 41.7448,114.037 40.0781,112.37 39.5,109.5C 39.81,108.262 40.31,108.262 41,109.5C 41.6667,110.833 42.3333,112.167 43,113.5C 42.743,110.657 42.9096,107.99 43.5,105.5 Z"/></g>
<g><path style="opacity:1" fill="#eaebe9" d="M 59.5,112.5 C 59.8333,112.5 60.1667,112.5 60.5,112.5C 60.3505,113.552 60.5172,114.552 61,115.5C 61.3333,115.167 61.6667,114.833 62,114.5C 64.1062,116.291 66.6062,116.958 69.5,116.5C 69.5792,117.93 69.2458,119.264 68.5,120.5C 70.9207,122.626 72.2541,124.959 72.5,127.5C 69.5468,126.213 67.2135,124.213 65.5,121.5C 64.1498,119.317 62.3164,117.65 60,116.5C 54.9351,117.948 50.4351,120.281 46.5,123.5C 45.5,123.5 44.5,123.5 43.5,123.5C 44.562,121.766 44.562,120.099 43.5,118.5C 47.1922,119.843 49.5255,118.51 50.5,114.5C 50.5,114.167 50.5,113.833 50.5,113.5C 51.7348,113.721 52.7348,114.388 53.5,115.5C 53.8333,114.833 54.1667,114.167 54.5,113.5C 55.086,113.709 55.586,114.043 56,114.5C 56.7096,113.027 57.8762,112.36 59.5,112.5 Z"/></g>
<g><path style="opacity:1" fill="#8b9086" d="M 50.5,114.5 C 49.5255,118.51 47.1922,119.843 43.5,118.5C 44.8293,115.52 47.1626,114.187 50.5,114.5 Z"/></g>
<g><path style="opacity:1" fill="#82837b" d="M 60.5,112.5 C 62.3792,113.341 64.3792,113.675 66.5,113.5C 66.8212,115.048 67.8212,115.715 69.5,115.5C 69.5,115.833 69.5,116.167 69.5,116.5C 66.6062,116.958 64.1062,116.291 62,114.5C 61.6667,114.833 61.3333,115.167 61,115.5C 60.5172,114.552 60.3505,113.552 60.5,112.5 Z"/></g>
<g><path style="opacity:1" fill="#dead10" d="M 34.5,114.5 C 34.56,113.957 34.8933,113.624 35.5,113.5C 37.322,117.102 38.322,117.102 38.5,113.5C 39.4345,114.568 39.7678,115.901 39.5,117.5C 37.0411,117.69 35.3745,116.69 34.5,114.5 Z"/></g>
<g><path style="opacity:1" fill="#bcb6a9" d="M 65.5,121.5 C 63.965,120.646 62.6316,120.646 61.5,121.5C 59.5853,121.216 57.9187,121.549 56.5,122.5C 53.9512,122.387 51.6179,123.054 49.5,124.5C 48.5832,123.873 47.5832,123.539 46.5,123.5C 50.4351,120.281 54.9351,117.948 60,116.5C 62.3164,117.65 64.1498,119.317 65.5,121.5 Z"/></g>
<g><path style="opacity:1" fill="#d5cf0d" d="M 33.5,115.5 C 35.0808,117.142 35.7475,119.142 35.5,121.5C 33.0672,121.727 31.4006,120.727 30.5,118.5C 30.4346,118.062 30.6012,117.728 31,117.5C 34.6526,121.523 35.1526,121.189 32.5,116.5C 32.6236,115.893 32.9569,115.56 33.5,115.5 Z"/></g>
<g><path style="opacity:1" fill="#c2b134" d="M 25.5,119.5 C 25.4088,121.698 26.0755,122.031 27.5,120.5C 27.5,120.833 27.5,121.167 27.5,121.5C 27.0005,125.009 26.0005,128.343 24.5,131.5C 22.7085,131.634 21.0418,131.301 19.5,130.5C 19.3011,127.544 18.9678,124.544 18.5,121.5C 19.2427,120.818 19.9094,120.151 20.5,119.5C 22.3344,118.506 24.0011,118.506 25.5,119.5 Z"/></g>
<g><path style="opacity:1" fill="#6c7166" d="M 43.5,118.5 C 44.562,120.099 44.562,121.766 43.5,123.5C 43.1667,123.5 42.8333,123.5 42.5,123.5C 41.0813,122.549 39.4147,122.216 37.5,122.5C 38.5676,121.566 39.901,121.232 41.5,121.5C 41.2852,119.821 41.9519,118.821 43.5,118.5 Z"/></g>
<g><path style="opacity:1" fill="#eaf1e1" d="M 27.5,121.5 C 29.8333,122.833 32.1667,124.167 34.5,125.5C 34.5,126.5 34.5,127.5 34.5,128.5C 30.9545,129.385 28.2878,131.385 26.5,134.5C 23.381,136.727 22.7143,135.727 24.5,131.5C 26.0005,128.343 27.0005,125.009 27.5,121.5 Z"/></g>
<g><path style="opacity:1" fill="#b7a720" d="M 61.5,121.5 C 62.1073,125.898 63.1073,126.231 64.5,122.5C 65.9483,124.808 65.2817,126.141 62.5,126.5C 60.9707,126.471 59.804,125.804 59,124.5C 58.3021,125.691 57.4687,126.691 56.5,127.5C 55.791,128.404 54.791,128.737 53.5,128.5C 51.7748,128.157 51.2748,127.157 52,125.5C 53.4087,124.219 54.9087,123.219 56.5,122.5C 57.9187,121.549 59.5853,121.216 61.5,121.5 Z"/></g>
<g><path style="opacity:1" fill="#77685d" d="M 83.5,124.5 C 81.5615,126.163 79.2282,126.829 76.5,126.5C 78.5994,125.388 80.9327,124.721 83.5,124.5 Z"/></g>
<g><path style="opacity:1" fill="#565046" d="M 69.5,116.5 C 70.4942,119.124 71.4942,121.79 72.5,124.5C 73.5,124.5 74.5,124.5 75.5,124.5C 72.7417,125.967 73.075,126.633 76.5,126.5C 75.791,127.404 74.791,127.737 73.5,127.5C 73.1667,127.5 72.8333,127.5 72.5,127.5C 72.2541,124.959 70.9207,122.626 68.5,120.5C 69.2458,119.264 69.5792,117.93 69.5,116.5 Z"/></g>
<g><path style="opacity:1" fill="#e6dbcb" d="M 56.5,127.5 C 59.5184,127.335 62.5184,127.502 65.5,128C 66.4061,129.699 66.7394,131.533 66.5,133.5C 63.5683,133.716 60.9017,133.049 58.5,131.5C 57.263,131.556 56.263,132.056 55.5,133C 58.4018,134.607 61.0685,136.441 63.5,138.5C 61.7573,139.641 60.7573,141.308 60.5,143.5C 61.5648,146.135 63.2315,148.135 65.5,149.5C 60.1977,150.787 54.8644,150.787 49.5,149.5C 49.5,147.5 49.5,145.5 49.5,143.5C 51.588,144.939 53.9214,145.606 56.5,145.5C 56.9662,143.799 56.9662,142.299 56.5,141C 54.8204,140.966 53.3204,140.799 52,140.5C 51.5831,141.756 50.7498,142.423 49.5,142.5C 48.8333,141.5 48.1667,140.5 47.5,139.5C 48.2186,137.236 48.552,134.903 48.5,132.5C 50.1911,131.136 51.8577,129.803 53.5,128.5C 54.791,128.737 55.791,128.404 56.5,127.5 Z"/></g>
<g><path style="opacity:1" fill="#f2eb0f" d="M 34.5,128.5 C 35.4959,128.414 36.3292,128.748 37,129.5C 37.2724,134.549 37.7724,139.549 38.5,144.5C 34.7379,144.691 31.0712,145.358 27.5,146.5C 27.6716,145.508 27.3382,144.842 26.5,144.5C 26.5,141.167 26.5,137.833 26.5,134.5C 28.2878,131.385 30.9545,129.385 34.5,128.5 Z"/></g>
<g><path style="opacity:1" fill="#8e7d27" d="M 56.5,122.5 C 54.9087,123.219 53.4087,124.219 52,125.5C 51.2748,127.157 51.7748,128.157 53.5,128.5C 51.8577,129.803 50.1911,131.136 48.5,132.5C 48.552,134.903 48.2186,137.236 47.5,139.5C 46.2089,138.458 46.2089,137.292 47.5,136C 46,134.5 44.5,133 43,131.5C 42.2571,129.559 42.4238,127.726 43.5,126C 42.5509,125.383 41.7175,125.549 41,126.5C 40.6667,128.167 40.3333,129.833 40,131.5C 38.2052,128.075 39.0385,125.408 42.5,123.5C 42.8333,123.5 43.1667,123.5 43.5,123.5C 44.5,123.5 45.5,123.5 46.5,123.5C 47.5832,123.539 48.5832,123.873 49.5,124.5C 51.6179,123.054 53.9512,122.387 56.5,122.5 Z"/></g>
<g><path style="opacity:1" fill="#beae15" d="M 48.5,132.5 C 47.3523,133.895 46.3523,133.728 45.5,132C 50.2733,123.333 51.2733,123.5 48.5,132.5 Z"/></g>
<g><path style="opacity:1" fill="#998729" d="M 65.5,121.5 C 67.2135,124.213 69.5468,126.213 72.5,127.5C 72.8333,127.5 73.1667,127.5 73.5,127.5C 75.4674,130.692 75.8008,134.025 74.5,137.5C 74.1667,137.5 73.8333,137.5 73.5,137.5C 73.1575,135.775 72.1575,135.275 70.5,136C 68.372,137.792 67.0387,139.958 66.5,142.5C 66.8076,140.076 66.4742,137.743 65.5,135.5C 64.8243,136.602 64.1577,137.602 63.5,138.5C 61.0685,136.441 58.4018,134.607 55.5,133C 56.263,132.056 57.263,131.556 58.5,131.5C 60.9017,133.049 63.5683,133.716 66.5,133.5C 66.7394,131.533 66.4061,129.699 65.5,128C 62.5184,127.502 59.5184,127.335 56.5,127.5C 57.4687,126.691 58.3021,125.691 59,124.5C 59.804,125.804 60.9707,126.471 62.5,126.5C 65.2817,126.141 65.9483,124.808 64.5,122.5C 63.1073,126.231 62.1073,125.898 61.5,121.5C 62.6316,120.646 63.965,120.646 65.5,121.5 Z"/></g>
<g><path style="opacity:1" fill="#af9e1d" d="M 37.5,122.5 C 39.4147,122.216 41.0813,122.549 42.5,123.5C 39.0385,125.408 38.2052,128.075 40,131.5C 40.3333,129.833 40.6667,128.167 41,126.5C 41.7175,125.549 42.5509,125.383 43.5,126C 42.4238,127.726 42.2571,129.559 43,131.5C 44.5,133 46,134.5 47.5,136C 46.2089,137.292 46.2089,138.458 47.5,139.5C 48.1667,140.5 48.8333,141.5 49.5,142.5C 49.5,142.833 49.5,143.167 49.5,143.5C 49.5,145.5 49.5,147.5 49.5,149.5C 47.7085,149.634 46.0418,149.301 44.5,148.5C 43.1473,146.262 41.1473,144.929 38.5,144.5C 37.7724,139.549 37.2724,134.549 37,129.5C 36.3292,128.748 35.4959,128.414 34.5,128.5C 34.5,127.5 34.5,126.5 34.5,125.5C 35.8333,124.833 36.8333,123.833 37.5,122.5 Z"/></g>
<g><path style="opacity:1" fill="#b5a51a" d="M 73.5,137.5 C 72.2632,138.965 71.2632,140.632 70.5,142.5C 69.391,142.557 68.391,142.89 67.5,143.5C 66.8333,143.5 66.5,143.167 66.5,142.5C 67.0387,139.958 68.372,137.792 70.5,136C 72.1575,135.275 73.1575,135.775 73.5,137.5 Z"/></g>
<g><path style="opacity:1" fill="#e4d7c5" d="M 66.5,142.5 C 64.7741,142.815 63.1075,142.981 61.5,143C 62.5822,141.67 63.2488,140.17 63.5,138.5C 64.1577,137.602 64.8243,136.602 65.5,135.5C 66.4742,137.743 66.8076,140.076 66.5,142.5 Z"/></g>
<g><path style="opacity:1" fill="#269234" d="M 73.5,137.5 C 73.8333,137.5 74.1667,137.5 74.5,137.5C 75.8333,139.167 75.8333,140.833 74.5,142.5C 73.1667,142.5 71.8333,142.5 70.5,142.5C 71.2632,140.632 72.2632,138.965 73.5,137.5 Z"/></g>
<g><path style="opacity:1" fill="#1d1d1b" d="M 11.5,139.5 C 12.8333,140.833 12.8333,142.167 11.5,143.5C 10.5041,143.586 9.67076,143.252 9,142.5C 8.50649,144.134 8.33982,145.801 8.5,147.5C 7.5,147.5 6.5,147.5 5.5,147.5C 5.28649,145.856 5.61983,144.356 6.5,143C 5.16667,143 3.83333,143 2.5,143C 1.3982,139.94 2.3982,139.107 5.5,140.5C 6.64464,139.224 6.64464,137.891 5.5,136.5C 6.5,135.167 7.5,135.167 8.5,136.5C 7.01621,140.116 8.01621,141.116 11.5,139.5 Z"/></g>
<g><path style="opacity:1" fill="#10100f" d="M 85.5,140.5 C 86.675,140.281 87.675,140.614 88.5,141.5C 87.2941,143.516 87.2941,145.516 88.5,147.5C 93.0541,144.156 95.2208,145.156 95,150.5C 94.2753,151.059 93.4419,151.392 92.5,151.5C 90.845,150.612 89.1783,150.112 87.5,150C 90.2393,152.934 90.0726,155.434 87,157.5C 82.532,155.395 82.3653,152.895 86.5,150C 84.8217,150.112 83.155,150.612 81.5,151.5C 79.5,151.5 78.5,150.5 78.5,148.5C 78.4342,146.734 79.2676,145.734 81,145.5C 86.2252,148.207 87.7252,146.54 85.5,140.5 Z"/></g>
<g><path style="opacity:1" fill="#201f1d" d="M 100.5,135.5 C 101.675,135.281 102.675,135.614 103.5,136.5C 101.934,139.494 102.601,140.494 105.5,139.5C 108.167,140.833 108.167,142.167 105.5,143.5C 104.549,142.674 103.549,142.508 102.5,143C 103.38,144.356 103.714,145.856 103.5,147.5C 102.5,147.5 101.5,147.5 100.5,147.5C 100.66,145.801 100.494,144.134 100,142.5C 98.9887,143.337 97.8221,143.67 96.5,143.5C 96.5,142.167 96.5,140.833 96.5,139.5C 97.9305,139.421 99.2638,139.754 100.5,140.5C 101.434,138.905 101.434,137.239 100.5,135.5 Z"/></g>
<g><path style="opacity:1" fill="#7e817b" d="M 49.5,143.5 C 49.5,143.167 49.5,142.833 49.5,142.5C 50.7498,142.423 51.5831,141.756 52,140.5C 53.3204,140.799 54.8204,140.966 56.5,141C 56.9662,142.299 56.9662,143.799 56.5,145.5C 53.9214,145.606 51.588,144.939 49.5,143.5 Z"/></g>
<g><path style="opacity:1" fill="#aa1f1c" d="M 70.5,142.5 C 71.8333,142.5 73.1667,142.5 74.5,142.5C 75.3686,144.717 75.702,147.05 75.5,149.5C 69.9287,154.695 63.262,157.362 55.5,157.5C 54.4787,159.188 53.1454,160.521 51.5,161.5C 50.8333,161.833 50.1667,162.167 49.5,162.5C 48.8023,157.476 47.1357,152.809 44.5,148.5C 46.0418,149.301 47.7085,149.634 49.5,149.5C 54.8644,150.787 60.1977,150.787 65.5,149.5C 66.2852,147.626 66.9518,145.626 67.5,143.5C 68.391,142.89 69.391,142.557 70.5,142.5 Z"/></g>
<g><path style="opacity:1" fill="#6d95a7" d="M 19.5,130.5 C 21.0418,131.301 22.7085,131.634 24.5,131.5C 22.7143,135.727 23.381,136.727 26.5,134.5C 26.5,137.833 26.5,141.167 26.5,144.5C 25.2591,146.931 24.0924,146.931 23,144.5C 21.8468,147.711 21.1802,151.044 21,154.5C 18.4242,157.153 16.9242,156.486 16.5,152.5C 17.4399,149.868 17.6066,147.202 17,144.5C 16.6592,147.187 15.3258,149.187 13,150.5C 12.8138,147.964 12.3138,145.631 11.5,143.5C 12.8333,142.167 12.8333,140.833 11.5,139.5C 12.6629,136.191 13.8296,132.857 15,129.5C 16.9525,131.337 17.9525,133.671 18,136.5C 19.3186,134.75 19.8186,132.75 19.5,130.5 Z"/></g>
<g><path style="opacity:1" fill="#66665e" d="M 63.5,138.5 C 63.2488,140.17 62.5822,141.67 61.5,143C 63.1075,142.981 64.7741,142.815 66.5,142.5C 66.5,143.167 66.8333,143.5 67.5,143.5C 66.9518,145.626 66.2852,147.626 65.5,149.5C 63.2315,148.135 61.5648,146.135 60.5,143.5C 60.7573,141.308 61.7573,139.641 63.5,138.5 Z"/></g>
<g><path style="opacity:1" fill="#ba1a1e" d="M 38.5,144.5 C 41.1473,144.929 43.1473,146.262 44.5,148.5C 47.1357,152.809 48.8023,157.476 49.5,162.5C 44.1667,162.5 38.8333,162.5 33.5,162.5C 28.7845,158.384 26.7845,153.051 27.5,146.5C 31.0712,145.358 34.7379,144.691 38.5,144.5 Z"/></g>
<g><path style="opacity:1" fill="#259135" d="M 75.5,149.5 C 76.7645,151.772 76.5978,154.105 75,156.5C 72.3287,158.902 69.4954,160.902 66.5,162.5C 61.3054,162.821 56.3054,162.487 51.5,161.5C 53.1454,160.521 54.4787,159.188 55.5,157.5C 63.262,157.362 69.9287,154.695 75.5,149.5 Z"/></g>
<g><path style="opacity:1" fill="#1b1b19" d="M 4.5,150.5 C 6.16667,150.5 7.83333,150.5 9.5,150.5C 9.5,155.167 9.5,159.833 9.5,164.5C 7.5328,164.739 5.69946,164.406 4,163.5C 3.75147,159.237 3.91814,154.904 4.5,150.5 Z"/></g>
<g><path style="opacity:1" fill="#1b1b19" d="M 100.5,150.5 C 102.167,150.5 103.833,150.5 105.5,150.5C 105.5,155.167 105.5,159.833 105.5,164.5C 103.533,164.739 101.699,164.406 100,163.5C 99.7515,159.237 99.9181,154.904 100.5,150.5 Z"/></g>
<g><path style="opacity:1" fill="#e5ecdd" d="M 5.5,152.5 C 6.58617,152.62 7.25284,153.287 7.5,154.5C 7.16667,155.167 6.83333,155.833 6.5,156.5C 5.57131,155.311 5.23798,153.978 5.5,152.5 Z"/></g>
<g><path style="opacity:1" fill="#e5ecdd" d="M 101.5,152.5 C 102.586,152.62 103.253,153.287 103.5,154.5C 103.167,155.167 102.833,155.833 102.5,156.5C 101.571,155.311 101.238,153.978 101.5,152.5 Z"/></g>
<g><path style="opacity:1" fill="#eef7e5" d="M 5.5,159.5 C 7.46455,159.948 7.79789,160.948 6.5,162.5C 5.61432,161.675 5.28099,160.675 5.5,159.5 Z"/></g>
<g><path style="opacity:1" fill="#eef7e5" d="M 101.5,159.5 C 103.465,159.948 103.798,160.948 102.5,162.5C 101.614,161.675 101.281,160.675 101.5,159.5 Z"/></g>
<g><path style="opacity:1" fill="#1b181b" d="M 51.5,161.5 C 56.3054,162.487 61.3054,162.821 66.5,162.5C 61.5316,163.88 50.5316,163.88 33.5,162.5C 38.8333,162.5 44.1667,162.5 49.5,162.5C 50.1667,162.167 50.8333,161.833 51.5,161.5 Z"/></g>
</svg>
