<?xml version="1.0" encoding="UTF-8"?>
<!DOCTYPE svg PUBLIC "-//W3C//DTD SVG 1.1//EN" "http://www.w3.org/Graphics/SVG/1.1/DTD/svg11.dtd">
<svg xmlns="http://www.w3.org/2000/svg" version="1.1" width="110px" height="170px" style="shape-rendering:geometricPrecision; text-rendering:geometricPrecision; image-rendering:optimizeQuality; fill-rule:evenodd; clip-rule:evenodd" xmlns:xlink="http://www.w3.org/1999/xlink">
<g><path style="opacity:1" fill="#eaf2e1" d="M -0.5,-0.5 C 36.1667,-0.5 72.8333,-0.5 109.5,-0.5C 109.5,56.1667 109.5,112.833 109.5,169.5C 72.8333,169.5 36.1667,169.5 -0.5,169.5C -0.5,112.833 -0.5,56.1667 -0.5,-0.5 Z"/></g>
<g><path style="opacity:1" fill="#171715" d="M 3.5,4.5 C 8.89404,3.72836 10.894,6.06169 9.5,11.5C 10.894,16.9383 8.89404,19.2716 3.5,18.5C 3.5,13.8333 3.5,9.16667 3.5,4.5 Z"/></g>
<g><path style="opacity:1" fill="#171715" d="M 99.5,4.5 C 104.894,3.72836 106.894,6.06169 105.5,11.5C 106.894,16.9383 104.894,19.2716 99.5,18.5C 99.5,13.8333 99.5,9.16667 99.5,4.5 Z"/></g>
<g><path style="opacity:1" fill="#ecf4e4" d="M 5.5,6.5 C 6.77725,7.69363 7.44392,9.3603 7.5,11.5C 7.16667,13.1667 6.83333,14.8333 6.5,16.5C 5.51298,13.2317 5.17964,9.89838 5.5,6.5 Z"/></g>
<g><path style="opacity:1" fill="#17c903" d="M 45.5,6.5 C 48.3409,6.1532 50.3409,6.48653 51.5,7.5C 48.9512,7.38742 46.6179,8.05408 44.5,9.5C 43.2054,8.90174 41.8721,8.40174 40.5,8C 42.3817,7.80192 44.0484,7.30192 45.5,6.5 Z"/></g>
<g><path style="opacity:1" fill="#ecf4e4" d="M 101.5,6.5 C 102.777,7.69363 103.444,9.3603 103.5,11.5C 103.167,13.1667 102.833,14.8333 102.5,16.5C 101.513,13.2317 101.18,9.89838 101.5,6.5 Z"/></g>
<g><path style="opacity:1" fill="#238818" d="M 38.5,6.5 C 40.8333,6.5 43.1667,6.5 45.5,6.5C 44.0484,7.30192 42.3817,7.80192 40.5,8C 41.8721,8.40174 43.2054,8.90174 44.5,9.5C 46.6179,8.05408 48.9512,7.38742 51.5,7.5C 51.5,8.5 51.5,9.5 51.5,10.5C 49.8561,10.7135 48.3561,10.3802 47,9.5C 44.4005,11.8785 41.5672,13.8785 38.5,15.5C 37.8333,15.5 37.5,15.1667 37.5,14.5C 36.233,11.7835 36.5663,9.11683 38.5,6.5 Z"/></g>
<g><path style="opacity:1" fill="#03cc00" d="M 37.5,14.5 C 38.1415,11.8474 39.8082,10.6807 42.5,11C 40.8043,12.1764 39.1376,13.343 37.5,14.5 Z"/></g>
<g><path style="opacity:1" fill="#857930" d="M 70.5,23.5 C 69.6571,12.036 63.6571,8.20267 52.5,12C 50.5359,13.451 49.2026,15.2843 48.5,17.5C 47.0695,17.5792 45.7362,17.2458 44.5,16.5C 43.5258,18.7427 43.1924,21.076 43.5,23.5C 43.1667,24.5 42.5,25.1667 41.5,25.5C 40.5084,25.6716 39.8417,25.3382 39.5,24.5C 40.9422,22.4604 41.9422,20.127 42.5,17.5C 41.3002,16.7084 39.9669,16.7084 38.5,17.5C 38.5,16.8333 38.5,16.1667 38.5,15.5C 41.5672,13.8785 44.4005,11.8785 47,9.5C 48.3561,10.3802 49.8561,10.7135 51.5,10.5C 51.5,9.5 51.5,8.5 51.5,7.5C 50.3409,6.48653 48.3409,6.1532 45.5,6.5C 43.1667,6.5 40.8333,6.5 38.5,6.5C 40.7005,4.81542 59.7005,4.64876 95.5,6C 83.5124,6.1843 75.1791,6.6843 70.5,7.5C 70.5,9.16667 70.5,10.8333 70.5,12.5C 75.5867,12.2845 76.5867,14.1178 73.5,18C 75.35,21.4659 74.35,23.2993 70.5,23.5 Z"/></g>
<g><path style="opacity:1" fill="#11110f" d="M 20.5,11.5 C 26.1523,12.6262 26.819,15.1262 22.5,19C 24.1783,18.8877 25.845,18.3877 27.5,17.5C 29.5,17.5 30.5,18.5 30.5,20.5C 30.5658,22.2664 29.7324,23.2664 28,23.5C 23.0882,20.4317 21.5882,21.765 23.5,27.5C 22.5,28.8333 21.5,28.8333 20.5,27.5C 21.7059,25.4841 21.7059,23.4841 20.5,21.5C 15.9459,24.8436 13.7792,23.8436 14,18.5C 14.7247,17.9415 15.5581,17.6082 16.5,17.5C 18.155,18.3877 19.8217,18.8877 21.5,19C 19.2854,16.7585 18.9521,14.2585 20.5,11.5 Z"/></g>
<g><path style="opacity:1" fill="#3d291c" d="M 70.5,23.5 C 77.2983,28.0713 76.9649,32.4046 69.5,36.5C 68.5,36.5 67.5,36.5 66.5,36.5C 67.5778,33.5979 68.2444,30.5979 68.5,27.5C 68.7413,25.1137 68.0746,23.1137 66.5,21.5C 68.6197,17.1565 67.1197,14.8232 62,14.5C 57.5263,14.8038 55.3596,17.1371 55.5,21.5C 56.8734,21.3433 58.2068,21.51 59.5,22C 59.8333,23 60.1667,24 60.5,25C 58.7258,26.7557 57.0591,26.7557 55.5,25C 56.3279,24.0853 57.3279,23.4186 58.5,23C 55.904,22.542 53.7373,23.3754 52,25.5C 52.2554,28.0816 52.422,30.7482 52.5,33.5C 51.5,34.1667 50.5,34.8333 49.5,35.5C 49.1667,35.5 48.8333,35.5 48.5,35.5C 46.8333,35.5 45.1667,35.5 43.5,35.5C 40.4777,32.7119 39.811,29.3786 41.5,25.5C 42.5,25.1667 43.1667,24.5 43.5,23.5C 45.137,21.5248 46.8036,19.5248 48.5,17.5C 49.2026,15.2843 50.5359,13.451 52.5,12C 63.6571,8.20267 69.6571,12.036 70.5,23.5 Z"/></g>
<g><path style="opacity:1" fill="#d9d61b" d="M 39.5,24.5 C 39.33,23.1779 39.6634,22.0113 40.5,21C 39.244,20.5831 38.5774,19.7498 38.5,18.5C 38.5,18.1667 38.5,17.8333 38.5,17.5C 39.9669,16.7084 41.3002,16.7084 42.5,17.5C 41.9422,20.127 40.9422,22.4604 39.5,24.5 Z"/></g>
<g><path style="opacity:1" fill="#dbd70a" d="M 48.5,17.5 C 46.8036,19.5248 45.137,21.5248 43.5,23.5C 43.1924,21.076 43.5258,18.7427 44.5,16.5C 45.7362,17.2458 47.0695,17.5792 48.5,17.5 Z"/></g>
<g><path style="opacity:1" fill="#ecdcc1" d="M 66.5,21.5 C 63.4373,23.46 62.7706,26.1266 64.5,29.5C 63.0202,30.1131 61.6869,30.4464 60.5,30.5C 62.0453,31.4519 63.712,31.7852 65.5,31.5C 65.7135,29.8561 65.3802,28.3561 64.5,27C 65.9285,26.4209 67.2618,26.5876 68.5,27.5C 68.2444,30.5979 67.5778,33.5979 66.5,36.5C 65.9717,37.7206 65.305,38.8873 64.5,40C 60.6434,40.7585 56.9767,40.2585 53.5,38.5C 52.6993,36.9582 52.366,35.2915 52.5,33.5C 52.422,30.7482 52.2554,28.0816 52,25.5C 53.7373,23.3754 55.904,22.542 58.5,23C 57.3279,23.4186 56.3279,24.0853 55.5,25C 57.0591,26.7557 58.7258,26.7557 60.5,25C 60.1667,24 59.8333,23 59.5,22C 58.2068,21.51 56.8734,21.3433 55.5,21.5C 55.3596,17.1371 57.5263,14.8038 62,14.5C 67.1197,14.8232 68.6197,17.1565 66.5,21.5 Z"/></g>
<g><path style="opacity:1" fill="#1d1d1c" d="M 5.5,21.5 C 6.5,21.5 7.5,21.5 8.5,21.5C 8.33982,23.1992 8.50649,24.8659 9,26.5C 10.0113,25.6634 11.1779,25.33 12.5,25.5C 12.5,26.8333 12.5,28.1667 12.5,29.5C 11.0695,29.5792 9.73619,29.2458 8.5,28.5C 7.35536,29.7757 7.35536,31.109 8.5,32.5C 7.5,33.8333 6.5,33.8333 5.5,32.5C 6.64464,31.109 6.64464,29.7757 5.5,28.5C 2.3982,29.8934 1.3982,29.06 2.5,26C 3.83333,26 5.16667,26 6.5,26C 5.61983,24.6439 5.28649,23.1439 5.5,21.5 Z"/></g>
<g><path style="opacity:1" fill="#a39642" d="M 38.5,18.5 C 38.5774,19.7498 39.244,20.5831 40.5,21C 39.6634,22.0113 39.33,23.1779 39.5,24.5C 38.0532,23.8658 37.3866,22.6991 37.5,21C 37.528,19.9302 37.8614,19.0968 38.5,18.5 Z"/></g>
<g><path style="opacity:1" fill="#1e1e1c" d="M 100.5,21.5 C 101.5,21.5 102.5,21.5 103.5,21.5C 103.714,23.1439 103.38,24.6439 102.5,26C 103.833,26 105.167,26 106.5,26C 107.602,29.06 106.602,29.8934 103.5,28.5C 102.355,29.7757 102.355,31.109 103.5,32.5C 102.5,33.8333 101.5,33.8333 100.5,32.5C 101.645,31.109 101.645,29.7757 100.5,28.5C 99.2638,29.2458 97.9305,29.5792 96.5,29.5C 96.5,28.1667 96.5,26.8333 96.5,25.5C 97.8221,25.33 98.9887,25.6634 100,26.5C 100.494,24.8659 100.66,23.1992 100.5,21.5 Z"/></g>
<g><path style="opacity:1" fill="#6a6a65" d="M 66.5,21.5 C 68.0746,23.1137 68.7413,25.1137 68.5,27.5C 67.2618,26.5876 65.9285,26.4209 64.5,27C 65.3802,28.3561 65.7135,29.8561 65.5,31.5C 63.712,31.7852 62.0453,31.4519 60.5,30.5C 61.6869,30.4464 63.0202,30.1131 64.5,29.5C 62.7706,26.1266 63.4373,23.46 66.5,21.5 Z"/></g>
<g><path style="opacity:1" fill="#9b403a" d="M 61.5,33.5 C 62.9778,33.238 64.3112,33.5713 65.5,34.5C 64.0813,36.9146 62.4146,37.0813 60.5,35C 61.056,34.6174 61.3893,34.1174 61.5,33.5 Z"/></g>
<g><path style="opacity:1" fill="#f9f9f9" d="M 48.5,35.5 C 48.8333,35.5 49.1667,35.5 49.5,35.5C 49.4639,39.4501 50.1306,43.2835 51.5,47C 49.9145,49.2562 49.2479,51.7562 49.5,54.5C 45.5,54.5 41.5,54.5 37.5,54.5C 37.0825,53.7784 36.4158,53.2784 35.5,53C 37.2746,51.5611 39.2746,50.5611 41.5,50C 42.8228,49.1841 43.4894,48.0174 43.5,46.5C 45.0165,42.7716 46.6832,39.1049 48.5,35.5 Z"/></g>
<g><path style="opacity:1" fill="#b6b8b4" d="M 43.5,35.5 C 45.1667,35.5 46.8333,35.5 48.5,35.5C 46.6832,39.1049 45.0165,42.7716 43.5,46.5C 42.5655,45.4324 42.2322,44.099 42.5,42.5C 42.6741,40.139 43.0074,37.8056 43.5,35.5 Z"/></g>
<g><path style="opacity:1" fill="#f2e2c5" d="M 53.5,38.5 C 56.0925,40.7148 59.0925,42.3814 62.5,43.5C 63.3721,45.4496 64.0388,47.4496 64.5,49.5C 60.5,49.5 56.5,49.5 52.5,49.5C 52.185,45.6286 52.5184,41.9619 53.5,38.5 Z"/></g>
<g><path style="opacity:1" fill="#8e8f86" d="M 66.5,36.5 C 67.5,36.5 68.5,36.5 69.5,36.5C 69.2436,38.7925 69.5769,40.9592 70.5,43C 69.5,43.3333 68.5,43.6667 67.5,44C 68.6956,44.6543 68.6956,45.1543 67.5,45.5C 66.7022,43.9223 66.2022,42.2556 66,40.5C 65.0754,41.0465 64.2421,41.7132 63.5,42.5C 65.69,46.21 66.69,50.21 66.5,54.5C 65.8333,53.5 65.1667,52.5 64.5,51.5C 65.5063,50.6043 65.5063,49.9377 64.5,49.5C 64.0388,47.4496 63.3721,45.4496 62.5,43.5C 59.0925,42.3814 56.0925,40.7148 53.5,38.5C 56.9767,40.2585 60.6434,40.7585 64.5,40C 65.305,38.8873 65.9717,37.7206 66.5,36.5 Z"/></g>
<g><path style="opacity:1" fill="#aea434" d="M 18.5,44.5 C 15.2663,45.0886 13.933,47.0886 14.5,50.5C 12.6693,51.0522 11.0026,51.0522 9.5,50.5C 7.93465,45.4071 9.43465,41.4071 14,38.5C 14.7412,39.6405 15.5745,39.6405 16.5,38.5C 18.9535,40.0417 19.6201,42.0417 18.5,44.5 Z"/></g>
<g><path style="opacity:1" fill="#2d8429" d="M 22.5,43.5 C 26.3017,42.8803 29.635,43.7137 32.5,46C 30.4325,46.6869 28.4325,46.5202 26.5,45.5C 25.2613,45.9424 24.2613,46.6091 23.5,47.5C 21.2552,46.7081 20.9219,45.3747 22.5,43.5 Z"/></g>
<g><path style="opacity:1" fill="#999a91" d="M 52.5,33.5 C 52.366,35.2915 52.6993,36.9582 53.5,38.5C 52.5184,41.9619 52.185,45.6286 52.5,49.5C 51.1667,49.5 50.5,50.1667 50.5,51.5C 50.7373,52.791 50.404,53.791 49.5,54.5C 49.2479,51.7562 49.9145,49.2562 51.5,47C 50.1306,43.2835 49.4639,39.4501 49.5,35.5C 50.5,34.8333 51.5,34.1667 52.5,33.5 Z"/></g>
<g><path style="opacity:1" fill="#b5b331" d="M 25.5,63.5 C 25.2605,67.8422 24.9272,72.1756 24.5,76.5C 22.4727,76.6621 20.4727,76.4955 18.5,76C 17.6634,74.9887 17.33,73.8221 17.5,72.5C 18.7709,70.8914 19.7709,69.0581 20.5,67C 19.3659,65.984 19.6992,65.3173 21.5,65C 20.9341,64.0053 20.2674,63.172 19.5,62.5C 19.1551,59.8021 17.8218,57.8021 15.5,56.5C 15.3367,54.1432 15.5034,51.8098 16,49.5C 17.0601,54.3965 18.2268,54.0632 19.5,48.5C 20.1667,48.8333 20.8333,49.1667 21.5,49.5C 21.6694,51.1173 22.0028,52.784 22.5,54.5C 23.2811,53.2713 23.7811,51.938 24,50.5C 25.0754,54.77 25.5754,59.1033 25.5,63.5 Z"/></g>
<g><path style="opacity:1" fill="#756625" d="M 52.5,49.5 C 56.5,49.5 60.5,49.5 64.5,49.5C 65.5063,49.9377 65.5063,50.6043 64.5,51.5C 60.65,51.7007 59.65,53.5341 61.5,57C 61,57.5 60.5,58 60,58.5C 58.6667,57.1667 57.3333,57.1667 56,58.5C 55.6667,56.5 55.3333,54.5 55,52.5C 53.6439,51.6198 52.1439,51.2865 50.5,51.5C 50.5,50.1667 51.1667,49.5 52.5,49.5 Z"/></g>
<g><path style="opacity:1" fill="#e6d8bd" d="M 50.5,51.5 C 52.1439,51.2865 53.6439,51.6198 55,52.5C 55.3333,54.5 55.6667,56.5 56,58.5C 57.3333,57.1667 58.6667,57.1667 60,58.5C 60.5,58 61,57.5 61.5,57C 59.65,53.5341 60.65,51.7007 64.5,51.5C 65.1667,52.5 65.8333,53.5 66.5,54.5C 71.4707,55.841 76.4707,55.5077 81.5,53.5C 82.5511,54.2223 83.2178,55.2223 83.5,56.5C 82.8333,57.1667 82.1667,57.8333 81.5,58.5C 80.2905,58.9321 79.2905,59.5987 78.5,60.5C 74.6634,60.9309 70.9968,61.5975 67.5,62.5C 65.7367,61.0462 64.4033,61.3796 63.5,63.5C 60.5415,63.6848 57.5415,63.3515 54.5,62.5C 51.1667,61.1667 47.8333,61.1667 44.5,62.5C 43.8826,62.3893 43.3826,62.056 43,61.5C 42.4577,66.7208 41.6244,66.7208 40.5,61.5C 39.8165,61.8627 39.1499,62.1961 38.5,62.5C 37.3079,61.4341 37.6412,60.6008 39.5,60C 37.4732,58.1207 35.1398,56.954 32.5,56.5C 31.8333,56.5 31.5,56.1667 31.5,55.5C 31.5,55.1667 31.5,54.8333 31.5,54.5C 33.5,54.5 35.5,54.5 37.5,54.5C 41.5,54.5 45.5,54.5 49.5,54.5C 50.404,53.791 50.7373,52.791 50.5,51.5 Z"/></g>
<g><path style="opacity:1" fill="#764236" d="M 42.5,42.5 C 42.2322,44.099 42.5655,45.4324 43.5,46.5C 43.4894,48.0174 42.8228,49.1841 41.5,50C 39.2746,50.5611 37.2746,51.5611 35.5,53C 36.4158,53.2784 37.0825,53.7784 37.5,54.5C 35.5,54.5 33.5,54.5 31.5,54.5C 30.209,54.7373 29.209,54.404 28.5,53.5C 32.3088,51.4504 36.3088,49.7837 40.5,48.5C 41.1687,46.3691 41.8354,44.3691 42.5,42.5 Z"/></g>
<g><path style="opacity:1" fill="#29872d" d="M 25.5,52.5 C 26.391,53.1098 27.391,53.4431 28.5,53.5C 29.209,54.404 30.209,54.7373 31.5,54.5C 31.5,54.8333 31.5,55.1667 31.5,55.5C 30.5,55.5 29.5,55.5 28.5,55.5C 26.8102,55.1436 25.8102,54.1436 25.5,52.5 Z"/></g>
<g><path style="opacity:1" fill="#a63b17" d="M 56.5,52.5 C 57.5,52.5 58.5,52.5 59.5,52.5C 58.7542,56.31 57.7542,56.31 56.5,52.5 Z"/></g>
<g><path style="opacity:1" fill="#6d5f33" d="M 22.5,43.5 C 20.9219,45.3747 21.2552,46.7081 23.5,47.5C 28.7379,48.2757 29.4046,49.9423 25.5,52.5C 25.8102,54.1436 26.8102,55.1436 28.5,55.5C 28.5,56.5 28.5,57.5 28.5,58.5C 26.9724,59.8021 25.9724,61.4687 25.5,63.5C 25.5754,59.1033 25.0754,54.77 24,50.5C 23.7811,51.938 23.2811,53.2713 22.5,54.5C 22.0028,52.784 21.6694,51.1173 21.5,49.5C 20.8333,49.1667 20.1667,48.8333 19.5,48.5C 18.2268,54.0632 17.0601,54.3965 16,49.5C 15.5034,51.8098 15.3367,54.1432 15.5,56.5C 14.5386,54.7354 14.2053,52.7354 14.5,50.5C 13.933,47.0886 15.2663,45.0886 18.5,44.5C 19.8333,44.1667 21.1667,43.8333 22.5,43.5 Z"/></g>
<g><path style="opacity:1" fill="#6a645d" d="M 83.5,50.5 C 82.4489,51.2223 81.7822,52.2223 81.5,53.5C 76.4707,55.5077 71.4707,55.841 66.5,54.5C 71.6612,55.1104 76.3279,53.9437 80.5,51C 79.1354,49.3181 77.6354,49.1514 76,50.5C 73.793,49.0031 73.1264,47.0031 74,44.5C 74.2492,45.624 74.7492,46.624 75.5,47.5C 78.3103,48.1992 80.977,49.1992 83.5,50.5 Z"/></g>
<g><path style="opacity:1" fill="#3f52a6" d="M 87.5,56.5 C 87.2178,57.7777 86.5511,58.7777 85.5,59.5C 83.7367,60.9538 82.4033,60.6204 81.5,58.5C 82.1667,57.8333 82.8333,57.1667 83.5,56.5C 84.9613,55.3143 86.2946,55.3143 87.5,56.5 Z"/></g>
<g><path style="opacity:1" fill="#595545" d="M 15.5,56.5 C 17.8218,57.8021 19.1551,59.8021 19.5,62.5C 18.8333,62.1667 18.1667,61.8333 17.5,61.5C 16.8333,59.8333 16.1667,58.1667 15.5,56.5 Z"/></g>
<g><path style="opacity:1" fill="#34404b" d="M 81.5,58.5 C 82.4033,60.6204 83.7367,60.9538 85.5,59.5C 85.6495,60.552 85.4828,61.552 85,62.5C 83.6439,61.6198 82.1439,61.2865 80.5,61.5C 80.1583,60.6618 79.4916,60.3284 78.5,60.5C 79.2905,59.5987 80.2905,58.9321 81.5,58.5 Z"/></g>
<g><path style="opacity:1" fill="#404e8c" d="M 32.5,56.5 C 35.1398,56.954 37.4732,58.1207 39.5,60C 37.6412,60.6008 37.3079,61.4341 38.5,62.5C 38.5979,64.5529 37.9313,66.2196 36.5,67.5C 35.603,66.4019 34.7697,66.4019 34,67.5C 33.6924,66.6919 33.1924,66.0253 32.5,65.5C 31.4579,69.4902 29.4579,69.4902 26.5,65.5C 28.5574,63.523 30.8907,62.023 33.5,61C 31.2177,59.9158 30.8843,58.4158 32.5,56.5 Z"/></g>
<g><path style="opacity:1" fill="#eaecea" d="M 44.5,62.5 C 46.1439,62.2865 47.6439,62.6198 49,63.5C 49.1829,66.3647 49.6829,69.0314 50.5,71.5C 50.2172,72.2891 49.7172,72.9558 49,73.5C 44.9018,72.6854 40.9018,71.6854 37,70.5C 35.512,71.1958 34.012,70.8625 32.5,69.5C 33.9492,68.8281 35.2825,68.1614 36.5,67.5C 37.9313,66.2196 38.5979,64.5529 38.5,62.5C 39.1499,62.1961 39.8165,61.8627 40.5,61.5C 41.6244,66.7208 42.4577,66.7208 43,61.5C 43.3826,62.056 43.8826,62.3893 44.5,62.5 Z"/></g>
<g><path style="opacity:1" fill="#f1f2f1" d="M 81.5,65.5 C 81.6107,66.1174 81.944,66.6174 82.5,67C 84.1147,67.0622 85.4481,67.2289 86.5,67.5C 87.7387,68.212 88.2387,69.212 88,70.5C 86.2215,69.5209 84.5548,69.8542 83,71.5C 81.2215,70.5209 79.5548,70.8542 78,72.5C 76.6054,71.1854 75.6054,71.5188 75,73.5C 72.2236,72.3525 69.557,72.6858 67,74.5C 66.9519,72.4559 67.4519,70.4559 68.5,68.5C 68.1373,67.8165 67.8039,67.1499 67.5,66.5C 67.5,65.5 67.5,64.5 67.5,63.5C 69.1644,64.9488 69.9977,66.9488 70,69.5C 70.2362,67.236 70.7362,65.0693 71.5,63C 73.556,62.6892 75.556,62.1892 77.5,61.5C 78.7904,63.6565 79.6237,65.9899 80,68.5C 80.2321,67.2625 80.7321,66.2625 81.5,65.5 Z"/></g>
<g><path style="opacity:1" fill="#2d333a" d="M 87.5,56.5 C 92.8155,56.4974 94.8155,59.164 93.5,64.5C 93.1667,64.5 92.8333,64.5 92.5,64.5C 91.7808,62.6827 90.7808,62.0161 89.5,62.5C 92.6186,61.3064 92.9519,59.8064 90.5,58C 88.9562,58.4866 87.2895,58.9866 85.5,59.5C 86.5511,58.7777 87.2178,57.7777 87.5,56.5 Z"/></g>
<g><path style="opacity:1" fill="#73231f" d="M 17.5,61.5 C 18.1667,61.8333 18.8333,62.1667 19.5,62.5C 20.2674,63.172 20.9341,64.0053 21.5,65C 19.6992,65.3173 19.3659,65.984 20.5,67C 19.7709,69.0581 18.7709,70.8914 17.5,72.5C 14.5312,74.6201 13.1979,77.6201 13.5,81.5C 13.5,82.5 13.5,83.5 13.5,84.5C 13.1667,84.5 12.8333,84.5 12.5,84.5C 10.5159,84.484 9.51595,85.484 9.5,87.5C 10.0793,91.5123 11.4127,95.1789 13.5,98.5C 13.2322,100.099 13.5655,101.432 14.5,102.5C 14.5,102.833 14.5,103.167 14.5,103.5C 15.0604,105.801 15.5604,108.134 16,110.5C 16.3826,111.056 16.8826,111.389 17.5,111.5C 17.811,112.478 18.4777,113.145 19.5,113.5C 21.4425,113.535 23.4425,113.202 25.5,112.5C 25.7822,113.778 26.4489,114.778 27.5,115.5C 27.4431,116.609 27.1098,117.609 26.5,118.5C 19.7465,115.957 13.4132,112.623 7.5,108.5C 6.66826,116.813 6.16826,125.147 6,133.5C 5.33333,100.833 5.33333,68.1667 6,35.5C 6.33333,47.1667 6.66667,58.8333 7,70.5C 10.6919,67.6352 14.1919,64.6352 17.5,61.5 Z"/></g>
<g><path style="opacity:1" fill="#a0a29b" d="M 78.5,60.5 C 79.4916,60.3284 80.1583,60.6618 80.5,61.5C 80.8333,62.8333 81.1667,64.1667 81.5,65.5C 80.7321,66.2625 80.2321,67.2625 80,68.5C 79.6237,65.9899 78.7904,63.6565 77.5,61.5C 75.556,62.1892 73.556,62.6892 71.5,63C 70.7362,65.0693 70.2362,67.236 70,69.5C 69.9977,66.9488 69.1644,64.9488 67.5,63.5C 67.5,63.1667 67.5,62.8333 67.5,62.5C 70.9968,61.5975 74.6634,60.9309 78.5,60.5 Z"/></g>
<g><path style="opacity:1" fill="#797c78" d="M 44.5,62.5 C 47.8333,61.1667 51.1667,61.1667 54.5,62.5C 53.1779,62.33 52.0113,62.6634 51,63.5C 50.5026,66.146 50.3359,68.8127 50.5,71.5C 49.6829,69.0314 49.1829,66.3647 49,63.5C 47.6439,62.6198 46.1439,62.2865 44.5,62.5 Z"/></g>
<g><path style="opacity:1" fill="#4353a4" d="M 67.5,62.5 C 67.5,62.8333 67.5,63.1667 67.5,63.5C 67.5,64.5 67.5,65.5 67.5,66.5C 66.7656,67.8775 66.0989,69.3775 65.5,71C 63.8925,70.9813 62.2259,70.8146 60.5,70.5C 59.9093,67.3247 60.9093,64.9913 63.5,63.5C 64.4033,61.3796 65.7367,61.0462 67.5,62.5 Z"/></g>
<g><path style="opacity:1" fill="#3d4d8f" d="M 92.5,64.5 C 91.3126,66.9754 89.3126,67.9754 86.5,67.5C 85.4481,67.2289 84.1147,67.0622 82.5,67C 81.944,66.6174 81.6107,66.1174 81.5,65.5C 81.1667,64.1667 80.8333,62.8333 80.5,61.5C 82.1439,61.2865 83.6439,61.6198 85,62.5C 85.4828,61.552 85.6495,60.552 85.5,59.5C 87.2895,58.9866 88.9562,58.4866 90.5,58C 92.9519,59.8064 92.6186,61.3064 89.5,62.5C 90.7808,62.0161 91.7808,62.6827 92.5,64.5 Z"/></g>
<g><path style="opacity:1" fill="#cf3125" d="M 95.5,70.5 C 98.0686,74.4401 99.2353,78.7734 99,83.5C 98.3292,84.2524 97.4959,84.5858 96.5,84.5C 96.4162,81.6726 95.7496,79.006 94.5,76.5C 93.7148,74.6264 93.0482,72.6264 92.5,70.5C 93.5,69.1667 94.5,69.1667 95.5,70.5 Z"/></g>
<g><path style="opacity:1" fill="#514f4a" d="M 28.5,55.5 C 29.5,55.5 30.5,55.5 31.5,55.5C 31.5,56.1667 31.8333,56.5 32.5,56.5C 30.8843,58.4158 31.2177,59.9158 33.5,61C 30.8907,62.023 28.5574,63.523 26.5,65.5C 29.4579,69.4902 31.4579,69.4902 32.5,65.5C 33.1924,66.0253 33.6924,66.6919 34,67.5C 34.7697,66.4019 35.603,66.4019 36.5,67.5C 35.2825,68.1614 33.9492,68.8281 32.5,69.5C 34.012,70.8625 35.512,71.1958 37,70.5C 40.9018,71.6854 44.9018,72.6854 49,73.5C 49.7172,72.9558 50.2172,72.2891 50.5,71.5C 52.2161,71.6287 53.8828,71.962 55.5,72.5C 55.3893,71.8826 55.056,71.3826 54.5,71C 55.6667,70.5 56.5,69.6667 57,68.5C 57.5354,70.2705 58.3687,70.6039 59.5,69.5C 58.9017,68.2054 58.4017,66.8721 58,65.5C 57.6667,65.8333 57.3333,66.1667 57,66.5C 56.3378,65.0161 55.5045,63.6828 54.5,62.5C 57.5415,63.3515 60.5415,63.6848 63.5,63.5C 60.9093,64.9913 59.9093,67.3247 60.5,70.5C 62.2259,70.8146 63.8925,70.9813 65.5,71C 66.0989,69.3775 66.7656,67.8775 67.5,66.5C 67.8039,67.1499 68.1373,67.8165 68.5,68.5C 67.4519,70.4559 66.9519,72.4559 67,74.5C 69.557,72.6858 72.2236,72.3525 75,73.5C 75.6054,71.5188 76.6054,71.1854 78,72.5C 79.5548,70.8542 81.2215,70.5209 83,71.5C 84.5548,69.8542 86.2215,69.5209 88,70.5C 88.2387,69.212 87.7387,68.212 86.5,67.5C 89.3126,67.9754 91.3126,66.9754 92.5,64.5C 92.8333,64.5 93.1667,64.5 93.5,64.5C 95.0808,66.1417 95.7475,68.1417 95.5,70.5C 94.5,69.1667 93.5,69.1667 92.5,70.5C 91.5084,70.3284 90.8417,70.6618 90.5,71.5C 89.391,71.5569 88.391,71.8902 87.5,72.5C 86.5084,72.3284 85.8417,72.6618 85.5,73.5C 84.0413,73.4326 82.7079,73.7659 81.5,74.5C 81.5654,74.0618 81.3988,73.7284 81,73.5C 79.5295,74.2666 78.0295,74.9332 76.5,75.5C 75.6043,74.4937 74.9377,74.4937 74.5,75.5C 72.7408,74.7386 71.0741,75.0719 69.5,76.5C 69.1667,76.5 68.8333,76.5 68.5,76.5C 67.0241,76.1115 65.6908,76.1115 64.5,76.5C 63.2022,75.8843 62.2022,75.8843 61.5,76.5C 60.5084,76.3284 59.8417,76.6618 59.5,77.5C 57.6102,75.8053 55.2769,75.4719 52.5,76.5C 52.1667,76.5 51.8333,76.5 51.5,76.5C 50.3092,76.1115 48.9759,76.1115 47.5,76.5C 46.7784,76.0825 46.2784,75.4158 46,74.5C 45.6174,75.056 45.1174,75.3893 44.5,75.5C 43.6043,74.4937 42.9377,74.4937 42.5,75.5C 41.2921,74.7659 39.9587,74.4326 38.5,74.5C 38.0623,73.4937 37.3957,73.4937 36.5,74.5C 35.8946,72.5188 34.8946,72.1854 33.5,73.5C 32.791,72.596 31.791,72.2627 30.5,72.5C 28.9652,71.2121 27.2985,71.2121 25.5,72.5C 25.8555,73.5223 26.5222,74.189 27.5,74.5C 27.5,74.8333 27.5,75.1667 27.5,75.5C 26.7093,77.3093 26.7093,79.3093 27.5,81.5C 26.5,82.1667 25.5,82.8333 24.5,83.5C 22.1432,83.6633 19.8098,83.4966 17.5,83C 16.944,82.6174 16.6107,82.1174 16.5,81.5C 15.5,80.1667 14.5,80.1667 13.5,81.5C 13.1979,77.6201 14.5312,74.6201 17.5,72.5C 17.33,73.8221 17.6634,74.9887 18.5,76C 20.4727,76.4955 22.4727,76.6621 24.5,76.5C 24.9272,72.1756 25.2605,67.8422 25.5,63.5C 25.9724,61.4687 26.9724,59.8021 28.5,58.5C 28.5,57.5 28.5,56.5 28.5,55.5 Z"/></g>
<g><path style="opacity:1" fill="#ca4026" d="M 30.5,72.5 C 30.5,73.1667 30.5,73.8333 30.5,74.5C 29.5,74.5 28.5,74.5 27.5,74.5C 26.5222,74.189 25.8555,73.5223 25.5,72.5C 27.2985,71.2121 28.9652,71.2121 30.5,72.5 Z"/></g>
<g><path style="opacity:1" fill="#4052a7" d="M 54.5,62.5 C 55.5045,63.6828 56.3378,65.0161 57,66.5C 57.3333,66.1667 57.6667,65.8333 58,65.5C 58.4017,66.8721 58.9017,68.2054 59.5,69.5C 58.3687,70.6039 57.5354,70.2705 57,68.5C 56.5,69.6667 55.6667,70.5 54.5,71C 55.056,71.3826 55.3893,71.8826 55.5,72.5C 53.8828,71.962 52.2161,71.6287 50.5,71.5C 50.3359,68.8127 50.5026,66.146 51,63.5C 52.0113,62.6634 53.1779,62.33 54.5,62.5 Z"/></g>
<g><path style="opacity:1" fill="#4457b5" d="M 28.5,58.5 C 29.3764,58.3691 30.0431,58.7025 30.5,59.5C 27.7404,63.564 27.0737,63.2307 28.5,58.5 Z"/></g>
<g><path style="opacity:1" fill="#d4d6d2" d="M 55.5,72.5 C 58.1831,70.9061 60.5165,71.2395 62.5,73.5C 60.6426,73.6774 58.8093,74.0107 57,74.5C 56.2828,73.9558 55.7828,73.2891 55.5,72.5 Z"/></g>
<g><path style="opacity:1" fill="#d23628" d="M 90.5,71.5 C 91.2341,72.7079 91.5674,74.0413 91.5,75.5C 90.1667,75.5 88.8333,75.5 87.5,75.5C 87.5,74.5 87.5,73.5 87.5,72.5C 88.391,71.8902 89.391,71.5569 90.5,71.5 Z"/></g>
<g><path style="opacity:1" fill="#d24d25" d="M 85.5,73.5 C 85.7031,75.0443 86.3698,76.3777 87.5,77.5C 86.1783,79.8646 86.1783,82.1979 87.5,84.5C 86.5,84.5 85.5,84.5 84.5,84.5C 83.5,84.5 82.5,84.5 81.5,84.5C 81.2488,82.8297 80.5822,81.3297 79.5,80C 80.8613,78.4157 81.528,76.5824 81.5,74.5C 82.7079,73.7659 84.0413,73.4326 85.5,73.5 Z"/></g>
<g><path style="opacity:1" fill="#dd9e16" d="M 81.5,74.5 C 81.528,76.5824 80.8613,78.4157 79.5,80C 80.5822,81.3297 81.2488,82.8297 81.5,84.5C 80.5,84.5 79.5,84.5 78.5,84.5C 78.2444,81.4021 77.5778,78.4021 76.5,75.5C 78.0295,74.9332 79.5295,74.2666 81,73.5C 81.3988,73.7284 81.5654,74.0618 81.5,74.5 Z"/></g>
<g><path style="opacity:1" fill="#db9f12" d="M 36.5,74.5 C 34.686,78.6429 33.686,78.3095 33.5,73.5C 34.8946,72.1854 35.8946,72.5188 36.5,74.5 Z"/></g>
<g><path style="opacity:1" fill="#dbd108" d="M 47.5,76.5 C 47.6495,77.552 47.4828,78.552 47,79.5C 45.5187,78.5291 44.6854,77.1958 44.5,75.5C 45.1174,75.3893 45.6174,75.056 46,74.5C 46.2784,75.4158 46.7784,76.0825 47.5,76.5 Z"/></g>
<g><path style="opacity:1" fill="#e3bb0e" d="M 92.5,70.5 C 93.0482,72.6264 93.7148,74.6264 94.5,76.5C 95.7496,79.006 96.4162,81.6726 96.5,84.5C 96.1667,84.5 95.8333,84.5 95.5,84.5C 95.1667,84.5 94.8333,84.5 94.5,84.5C 95.35,79.5214 93.5166,77.5214 89,78.5C 88.5045,80.4727 88.3379,82.4727 88.5,84.5C 88.1667,84.5 87.8333,84.5 87.5,84.5C 86.1783,82.1979 86.1783,79.8646 87.5,77.5C 86.3698,76.3777 85.7031,75.0443 85.5,73.5C 85.8417,72.6618 86.5084,72.3284 87.5,72.5C 87.5,73.5 87.5,74.5 87.5,75.5C 88.8333,75.5 90.1667,75.5 91.5,75.5C 91.5674,74.0413 91.2341,72.7079 90.5,71.5C 90.8417,70.6618 91.5084,70.3284 92.5,70.5 Z"/></g>
<g><path style="opacity:1" fill="#e4ab10" d="M 94.5,76.5 C 94.4692,72.7238 95.1359,72.5571 96.5,76C 96.3166,77.6836 95.6499,77.8502 94.5,76.5 Z"/></g>
<g><path style="opacity:1" fill="#bf2e21" d="M 27.5,75.5 C 28.7416,77.6112 28.7416,79.6112 27.5,81.5C 26.7093,79.3093 26.7093,77.3093 27.5,75.5 Z"/></g>
<g><path style="opacity:1" fill="#e1c80c" d="M 68.5,76.5 C 66.1331,78.5669 64.7997,81.2335 64.5,84.5C 66.2056,86.9029 67.5389,89.5696 68.5,92.5C 69.5266,90.4469 70.5266,88.4469 71.5,86.5C 72.5227,89.1583 72.1894,91.825 70.5,94.5C 69.0413,94.5674 67.7079,94.2341 66.5,93.5C 63.757,88.2635 61.4237,82.9302 59.5,77.5C 59.8417,76.6618 60.5084,76.3284 61.5,76.5C 63.3536,81.4211 64.3536,81.4211 64.5,76.5C 65.6908,76.1115 67.0241,76.1115 68.5,76.5 Z"/></g>
<g><path style="opacity:1" fill="#e29e13" d="M 27.5,74.5 C 28.5,74.5 29.5,74.5 30.5,74.5C 29.1453,77.797 29.6453,78.1304 32,75.5C 32.3247,77.5527 31.9913,79.5527 31,81.5C 30.6667,81.1667 30.3333,80.8333 30,80.5C 29.1253,83.2146 27.2919,84.5479 24.5,84.5C 24.5,84.1667 24.5,83.8333 24.5,83.5C 25.5,82.8333 26.5,82.1667 27.5,81.5C 28.7416,79.6112 28.7416,77.6112 27.5,75.5C 27.5,75.1667 27.5,74.8333 27.5,74.5 Z"/></g>
<g><path style="opacity:1" fill="#d54026" d="M 59.5,77.5 C 61.4237,82.9302 63.757,88.2635 66.5,93.5C 66.0623,94.5063 65.3957,94.5063 64.5,93.5C 64.3146,91.8042 63.4813,90.4709 62,89.5C 61.5172,90.448 61.3505,91.448 61.5,92.5C 60.0241,92.8885 58.6908,92.8885 57.5,92.5C 59.9768,89.7026 60.9768,86.3693 60.5,82.5C 59.5,82.5 58.5,82.5 57.5,82.5C 57.7852,80.712 57.4519,79.0453 56.5,77.5C 55.1041,79.9317 53.4375,82.265 51.5,84.5C 51.1667,84 50.8333,83.5 50.5,83C 52.0128,81.1208 52.6795,78.9541 52.5,76.5C 55.2769,75.4719 57.6102,75.8053 59.5,77.5 Z"/></g>
<g><path style="opacity:1" fill="#d23525" d="M 64.5,76.5 C 64.3536,81.4211 63.3536,81.4211 61.5,76.5C 62.2022,75.8843 63.2022,75.8843 64.5,76.5 Z"/></g>
<g><path style="opacity:1" fill="#ded608" d="M 74.5,75.5 C 74.2627,76.791 74.596,77.791 75.5,78.5C 75.6716,79.4916 75.3382,80.1583 74.5,80.5C 72.5796,75.2459 70.9129,75.5792 69.5,81.5C 68.4095,83.0148 67.0761,83.8481 65.5,84C 67.5402,81.8149 68.8736,79.3149 69.5,76.5C 71.0741,75.0719 72.7408,74.7386 74.5,75.5 Z"/></g>
<g><path style="opacity:1" fill="#d62e2a" d="M 94.5,84.5 C 92.5,84.5 90.5,84.5 88.5,84.5C 88.3379,82.4727 88.5045,80.4727 89,78.5C 93.5166,77.5214 95.35,79.5214 94.5,84.5 Z"/></g>
<g><path style="opacity:1" fill="#e5d209" d="M 51.5,76.5 C 51.8333,76.5 52.1667,76.5 52.5,76.5C 52.6795,78.9541 52.0128,81.1208 50.5,83C 50.8333,83.5 51.1667,84 51.5,84.5C 53.4375,82.265 55.1041,79.9317 56.5,77.5C 57.4519,79.0453 57.7852,80.712 57.5,82.5C 58.5,82.5 59.5,82.5 60.5,82.5C 60.9768,86.3693 59.9768,89.7026 57.5,92.5C 56.8333,92.5 56.1667,92.5 55.5,92.5C 56.2108,90.2012 57.2108,88.0346 58.5,86C 58.1667,85.5 57.8333,85 57.5,84.5C 55.5625,86.735 53.8959,89.0683 52.5,91.5C 51.5481,89.9547 51.2148,88.288 51.5,86.5C 50.5,86.5 49.5,86.5 48.5,86.5C 48.0232,82.6307 49.0232,79.2974 51.5,76.5 Z"/></g>
<g><path style="opacity:1" fill="#d6d7d4" d="M 16.5,81.5 C 16.9528,80.5416 17.6195,79.7083 18.5,79C 17.0439,78.5774 16.5439,77.7441 17,76.5C 20.1239,77.7409 23.2905,78.9076 26.5,80C 23.4825,82.6785 20.1492,83.1785 16.5,81.5 Z"/></g>
<g><path style="opacity:1" fill="#e7d6b5" d="M 16.5,81.5 C 16.6107,82.1174 16.944,82.6174 17.5,83C 19.8098,83.4966 22.1432,83.6633 24.5,83.5C 24.5,83.8333 24.5,84.1667 24.5,84.5C 23.5,84.5 22.5,84.5 21.5,84.5C 21.1667,84.5 20.8333,84.5 20.5,84.5C 18.5,84.5 16.5,84.5 14.5,84.5C 14.1667,84.5 13.8333,84.5 13.5,84.5C 13.5,83.5 13.5,82.5 13.5,81.5C 14.5,80.1667 15.5,80.1667 16.5,81.5 Z"/></g>
<g><path style="opacity:1" fill="#dfca0e" d="M 38.5,74.5 C 39.9587,74.4326 41.2921,74.7659 42.5,75.5C 45.0594,81.2733 47.726,86.94 50.5,92.5C 49.7978,93.1157 48.7978,93.1157 47.5,92.5C 45.6464,87.5789 44.6464,87.5789 44.5,92.5C 43.3092,92.8885 41.9759,92.8885 40.5,92.5C 42.8669,90.4331 44.2003,87.7665 44.5,84.5C 42.7944,82.0971 41.4611,79.4304 40.5,76.5C 39.4734,78.5531 38.4734,80.5531 37.5,82.5C 36.4773,79.8417 36.8106,77.175 38.5,74.5 Z"/></g>
<g><path style="opacity:1" fill="#d44226" d="M 44.5,75.5 C 44.6854,77.1958 45.5187,78.5291 47,79.5C 47.4828,78.552 47.6495,77.552 47.5,76.5C 48.9759,76.1115 50.3092,76.1115 51.5,76.5C 49.0232,79.2974 48.0232,82.6307 48.5,86.5C 49.5,86.5 50.5,86.5 51.5,86.5C 51.2148,88.288 51.5481,89.9547 52.5,91.5C 53.8959,89.0683 55.5625,86.735 57.5,84.5C 57.8333,85 58.1667,85.5 58.5,86C 57.2108,88.0346 56.2108,90.2012 55.5,92.5C 53.9563,92.7111 52.2897,92.7111 50.5,92.5C 47.726,86.94 45.0594,81.2733 42.5,75.5C 42.9377,74.4937 43.6043,74.4937 44.5,75.5 Z"/></g>
<g><path style="opacity:1" fill="#e7d6b5" d="M 84.5,85.5 C 84.5,85.1667 84.5,84.8333 84.5,84.5C 85.5,84.5 86.5,84.5 87.5,84.5C 87.8333,84.5 88.1667,84.5 88.5,84.5C 90.5,84.5 92.5,84.5 94.5,84.5C 94.8333,84.5 95.1667,84.5 95.5,84.5C 95.5674,85.9587 95.2341,87.2921 94.5,88.5C 91.8082,85.8578 88.4749,84.8578 84.5,85.5 Z"/></g>
<g><path style="opacity:1" fill="#e4c50a" d="M 81.5,84.5 C 82.5,84.5 83.5,84.5 84.5,84.5C 84.5,84.8333 84.5,85.1667 84.5,85.5C 82.2475,85.9156 80.7475,87.249 80,89.5C 79.3872,87.5048 79.8872,85.8381 81.5,84.5 Z"/></g>
<g><path style="opacity:1" fill="#74231f" d="M 91.5,107.5 C 90.8333,107.167 90.1667,106.833 89.5,106.5C 90.2653,103.904 90.5987,101.237 90.5,98.5C 90.3284,97.5084 90.6618,96.8417 91.5,96.5C 94.6407,94.5883 95.6407,91.9216 94.5,88.5C 95.2341,87.2921 95.5674,85.9587 95.5,84.5C 95.8333,84.5 96.1667,84.5 96.5,84.5C 97.4959,84.5858 98.3292,84.2524 99,83.5C 99.2353,78.7734 98.0686,74.4401 95.5,70.5C 95.7475,68.1417 95.0808,66.1417 93.5,64.5C 94.8155,59.164 92.8155,56.4974 87.5,56.5C 86.2946,55.3143 84.9613,55.3143 83.5,56.5C 83.2178,55.2223 82.5511,54.2223 81.5,53.5C 81.7822,52.2223 82.4489,51.2223 83.5,50.5C 89.7951,53.3139 95.7951,56.6473 101.5,60.5C 102.332,52.1866 102.832,43.8532 103,35.5C 103.667,68.1667 103.667,100.833 103,133.5C 102.667,121.833 102.333,110.167 102,98.5C 98.3081,101.365 94.8081,104.365 91.5,107.5 Z"/></g>
<g><path style="opacity:1" fill="#d64a25" d="M 30.5,72.5 C 31.791,72.2627 32.791,72.596 33.5,73.5C 33.686,78.3095 34.686,78.6429 36.5,74.5C 37.3957,73.4937 38.0623,73.4937 38.5,74.5C 36.8106,77.175 36.4773,79.8417 37.5,82.5C 38.4734,80.5531 39.4734,78.5531 40.5,76.5C 41.4611,79.4304 42.7944,82.0971 44.5,84.5C 44.2003,87.7665 42.8669,90.4331 40.5,92.5C 40.1667,92.5 39.8333,92.5 39.5,92.5C 40.1264,89.6851 41.4598,87.1851 43.5,85C 41.9239,85.1519 40.5905,85.9852 39.5,87.5C 38.0871,93.4208 36.4204,93.7541 34.5,88.5C 34.4802,86.857 35.1468,85.5237 36.5,84.5C 35.4706,84.7036 34.4706,84.2036 33.5,83C 34.7112,82.1072 34.7112,81.2739 33.5,80.5C 31.4249,82.5852 31.4249,84.4186 33.5,86C 32.1991,87.6155 32.1991,89.1155 33.5,90.5C 34.404,91.209 34.7373,92.209 34.5,93.5C 33.791,94.404 32.791,94.7373 31.5,94.5C 31.8039,93.8501 32.1373,93.1835 32.5,92.5C 30.9293,90.1178 30.096,87.4512 30,84.5C 29.4424,87.9338 28.609,91.2672 27.5,94.5C 26.2921,95.2341 24.9587,95.5674 23.5,95.5C 23.2969,93.9557 22.6302,92.6223 21.5,91.5C 22.8217,89.1354 22.8217,86.8021 21.5,84.5C 22.5,84.5 23.5,84.5 24.5,84.5C 27.2919,84.5479 29.1253,83.2146 30,80.5C 30.3333,80.8333 30.6667,81.1667 31,81.5C 31.9913,79.5527 32.3247,77.5527 32,75.5C 29.6453,78.1304 29.1453,77.797 30.5,74.5C 30.5,73.8333 30.5,73.1667 30.5,72.5 Z"/></g>
<g><path style="opacity:1" fill="#e5bd0d" d="M 37.5,82.5 C 38.4734,82.9867 39.4734,83.4867 40.5,84C 38.8425,84.7252 37.8425,84.2252 37.5,82.5 Z"/></g>
<g><path style="opacity:1" fill="#e3a512" d="M 34.5,88.5 C 33.6618,88.8417 33.3284,89.5084 33.5,90.5C 32.1991,89.1155 32.1991,87.6155 33.5,86C 31.4249,84.4186 31.4249,82.5852 33.5,80.5C 34.7112,81.2739 34.7112,82.1072 33.5,83C 34.4706,84.2036 35.4706,84.7036 36.5,84.5C 35.1468,85.5237 34.4802,86.857 34.5,88.5 Z"/></g>
<g><path style="opacity:1" fill="#d9d00a" d="M 39.5,92.5 C 37.9259,93.9281 36.2592,94.2614 34.5,93.5C 34.7373,92.209 34.404,91.209 33.5,90.5C 33.3284,89.5084 33.6618,88.8417 34.5,88.5C 36.4204,93.7541 38.0871,93.4208 39.5,87.5C 40.5905,85.9852 41.9239,85.1519 43.5,85C 41.4598,87.1851 40.1264,89.6851 39.5,92.5 Z"/></g>
<g><path style="opacity:1" fill="#dca315" d="M 31.5,94.5 C 29.8612,94.9258 28.5279,94.9258 27.5,94.5C 28.609,91.2672 29.4424,87.9338 30,84.5C 30.096,87.4512 30.9293,90.1178 32.5,92.5C 32.1373,93.1835 31.8039,93.8501 31.5,94.5 Z"/></g>
<g><path style="opacity:1" fill="#dad208" d="M 64.5,93.5 C 63.8826,93.6107 63.3826,93.944 63,94.5C 62.7216,93.5842 62.2216,92.9175 61.5,92.5C 61.3505,91.448 61.5172,90.448 62,89.5C 63.4813,90.4709 64.3146,91.8042 64.5,93.5 Z"/></g>
<g><path style="opacity:1" fill="#d44726" d="M 76.5,75.5 C 77.5778,78.4021 78.2444,81.4021 78.5,84.5C 79.5,84.5 80.5,84.5 81.5,84.5C 79.8872,85.8381 79.3872,87.5048 80,89.5C 80.7475,87.249 82.2475,85.9156 84.5,85.5C 84.1667,86.1667 83.8333,86.8333 83.5,87.5C 83.5,88.1667 83.1667,88.5 82.5,88.5C 81.9035,89.9354 81.9035,91.602 82.5,93.5C 81.2101,92.9423 80.3768,91.9423 80,90.5C 79.3448,92.6284 78.5114,94.6284 77.5,96.5C 76.391,96.4431 75.391,96.1098 74.5,95.5C 74.719,94.325 74.3857,93.325 73.5,92.5C 72.7025,92.9569 72.3691,93.6236 72.5,94.5C 71.6043,95.5063 70.9377,95.5063 70.5,94.5C 72.1894,91.825 72.5227,89.1583 71.5,86.5C 70.5266,88.4469 69.5266,90.4469 68.5,92.5C 67.5389,89.5696 66.2056,86.9029 64.5,84.5C 64.7997,81.2335 66.1331,78.5669 68.5,76.5C 68.8333,76.5 69.1667,76.5 69.5,76.5C 68.8736,79.3149 67.5402,81.8149 65.5,84C 67.0761,83.8481 68.4095,83.0148 69.5,81.5C 70.9129,75.5792 72.5796,75.2459 74.5,80.5C 74.5198,82.143 73.8532,83.4763 72.5,84.5C 72.8457,85.6956 73.3457,85.6956 74,84.5C 74.7438,89.5402 75.9105,89.7069 77.5,85C 76.8333,84.3333 76.1667,83.6667 75.5,83C 76.8009,81.3845 76.8009,79.8845 75.5,78.5C 74.596,77.791 74.2627,76.791 74.5,75.5C 74.9377,74.4937 75.6043,74.4937 76.5,75.5 Z"/></g>
<g><path style="opacity:1" fill="#e5c90b" d="M 71.5,86.5 C 70.5266,86.0133 69.5266,85.5133 68.5,85C 70.1575,84.2748 71.1575,84.7748 71.5,86.5 Z"/></g>
<g><path style="opacity:1" fill="#e29f13" d="M 75.5,78.5 C 76.8009,79.8845 76.8009,81.3845 75.5,83C 76.1667,83.6667 76.8333,84.3333 77.5,85C 75.9105,89.7069 74.7438,89.5402 74,84.5C 73.3457,85.6956 72.8457,85.6956 72.5,84.5C 73.8532,83.4763 74.5198,82.143 74.5,80.5C 75.3382,80.1583 75.6716,79.4916 75.5,78.5 Z"/></g>
<g><path style="opacity:1" fill="#d6d9d5" d="M 82.5,88.5 C 83.1667,88.5 83.5,88.1667 83.5,87.5C 86.5119,86.3137 89.5119,86.4804 92.5,88C 91.8333,88.6667 91.1667,89.3333 90.5,90C 91.9561,90.4226 92.4561,91.2559 92,92.5C 88.6468,91.3839 85.4801,90.0505 82.5,88.5 Z"/></g>
<g><path style="opacity:1" fill="#e2bf0d" d="M 12.5,84.5 C 12.8333,84.5 13.1667,84.5 13.5,84.5C 13.8333,84.5 14.1667,84.5 14.5,84.5C 13.65,89.4786 15.4834,91.4786 20,90.5C 20.4955,88.5273 20.6621,86.5273 20.5,84.5C 20.8333,84.5 21.1667,84.5 21.5,84.5C 22.8217,86.8021 22.8217,89.1354 21.5,91.5C 22.6302,92.6223 23.2969,93.9557 23.5,95.5C 23.1583,96.3382 22.4916,96.6716 21.5,96.5C 21.5,95.5 21.5,94.5 21.5,93.5C 20.1667,93.5 18.8333,93.5 17.5,93.5C 17.4326,94.9587 17.7659,96.2921 18.5,97.5C 18.1583,98.3382 17.4916,98.6716 16.5,98.5C 15.1549,93.8174 13.8216,89.1508 12.5,84.5 Z"/></g>
<g><path style="opacity:1" fill="#d62e2a" d="M 14.5,84.5 C 16.5,84.5 18.5,84.5 20.5,84.5C 20.6621,86.5273 20.4955,88.5273 20,90.5C 15.4834,91.4786 13.65,89.4786 14.5,84.5 Z"/></g>
<g><path style="opacity:1" fill="#cb3022" d="M 47.5,92.5 C 46.7978,93.1157 45.7978,93.1157 44.5,92.5C 44.6464,87.5789 45.6464,87.5789 47.5,92.5 Z"/></g>
<g><path style="opacity:1" fill="#d13f25" d="M 12.5,84.5 C 13.8216,89.1508 15.1549,93.8174 16.5,98.5C 15.5,99.8333 14.5,99.8333 13.5,98.5C 11.4127,95.1789 10.0793,91.5123 9.5,87.5C 9.51595,85.484 10.5159,84.484 12.5,84.5 Z"/></g>
<g><path style="opacity:1" fill="#dec20c" d="M 82.5,93.5 C 82.5,93.8333 82.5,94.1667 82.5,94.5C 81.5,94.5 80.5,94.5 79.5,94.5C 79.5,95.5 79.5,96.5 79.5,97.5C 78.8333,97.1667 78.1667,96.8333 77.5,96.5C 78.5114,94.6284 79.3448,92.6284 80,90.5C 80.3768,91.9423 81.2101,92.9423 82.5,93.5 Z"/></g>
<g><path style="opacity:1" fill="#b2ae31" d="M 91.5,96.5 C 90.6618,96.8417 90.3284,97.5084 90.5,98.5C 89.8141,99.8484 88.8141,101.015 87.5,102C 90.1667,102.667 90.1667,103.333 87.5,104C 88.0659,104.995 88.7326,105.828 89.5,106.5C 89.8449,109.198 91.1782,111.198 93.5,112.5C 93.6641,115.187 93.4974,117.854 93,120.5C 92.5031,114.12 91.3364,114.12 89.5,120.5C 87.8716,119.465 86.205,119.465 84.5,120.5C 84.0825,119.778 83.4158,119.278 82.5,119C 83.056,118.617 83.3893,118.117 83.5,117.5C 84.6451,115.047 84.3117,112.713 82.5,110.5C 83.2603,104.511 83.9269,98.5112 84.5,92.5C 86.5273,92.3379 88.5273,92.5045 90.5,93C 91.3366,94.0113 91.67,95.1779 91.5,96.5 Z"/></g>
<g><path style="opacity:1" fill="#d23028" d="M 21.5,96.5 C 20.391,96.5569 19.391,96.8902 18.5,97.5C 17.7659,96.2921 17.4326,94.9587 17.5,93.5C 18.8333,93.5 20.1667,93.5 21.5,93.5C 21.5,94.5 21.5,95.5 21.5,96.5 Z"/></g>
<g><path style="opacity:1" fill="#f1f2f1" d="M 41.5,102.5 C 41.5,103.167 41.5,103.833 41.5,104.5C 41.44,105.043 41.1067,105.376 40.5,105.5C 39.6922,103.577 39.1922,101.577 39,99.5C 38.5034,101.81 38.3367,104.143 38.5,106.5C 36.0799,106.292 33.7466,106.626 31.5,107.5C 30.2096,105.343 29.3763,103.01 29,100.5C 28.7679,101.737 28.2679,102.737 27.5,103.5C 27.3893,102.883 27.056,102.383 26.5,102C 24.8853,101.938 23.5519,101.771 22.5,101.5C 22.0825,100.778 21.4158,100.278 20.5,100C 21.7659,99.6905 22.9326,99.1905 24,98.5C 25.016,99.6341 25.6827,99.3008 26,97.5C 28.1299,97.4134 30.2966,97.4134 32.5,97.5C 33.1924,96.9747 33.6924,96.3081 34,95.5C 35.2682,95.6158 36.6015,95.9491 38,96.5C 43.1626,93.7691 43.996,95.1024 40.5,100.5C 40.8627,101.183 41.1961,101.85 41.5,102.5 Z"/></g>
<g><path style="opacity:1" fill="#4d4c46" d="M 84.5,85.5 C 88.4749,84.8578 91.8082,85.8578 94.5,88.5C 95.6407,91.9216 94.6407,94.5883 91.5,96.5C 91.67,95.1779 91.3366,94.0113 90.5,93C 88.5273,92.5045 86.5273,92.3379 84.5,92.5C 83.9269,98.5112 83.2603,104.511 82.5,110.5C 82.2172,111.289 81.7172,111.956 81,112.5C 79.2933,111.862 77.46,111.862 75.5,112.5C 74.8333,112.5 74.5,112.167 74.5,111.5C 75.5,111.5 76.5,111.5 77.5,111.5C 77.3287,108.203 77.9954,107.869 79.5,110.5C 81.5962,109.38 81.9295,107.88 80.5,106C 83.2202,103.24 82.5536,101.406 78.5,100.5C 76.6503,101.242 75.9836,102.242 76.5,103.5C 75.8076,102.975 75.3076,102.308 75,101.5C 74.2303,102.598 73.397,102.598 72.5,101.5C 73.7175,100.839 75.0508,100.172 76.5,99.5C 75.3717,98.7379 74.2051,98.0712 73,97.5C 69.8825,96.603 66.8825,96.603 64,97.5C 63.6667,96.8333 63.3333,96.1667 63,95.5C 62,96.8333 61,96.8333 60,95.5C 59.2828,96.0442 58.7828,96.7109 58.5,97.5C 57.448,97.6495 56.448,97.4828 55.5,97C 56.6956,96.3457 56.6956,95.8457 55.5,95.5C 54.8165,95.8627 54.1499,96.1961 53.5,96.5C 53.6107,97.1174 53.944,97.6174 54.5,98C 53.3333,98.5 52.5,99.3333 52,100.5C 51.4646,98.7295 50.6313,98.3961 49.5,99.5C 50.0269,102.21 51.0269,103.877 52.5,104.5C 50.8333,104.5 49.1667,104.5 47.5,104.5C 49.4485,100.641 48.2818,98.3074 44,97.5C 43.0147,99.1749 42.1814,100.842 41.5,102.5C 41.1961,101.85 40.8627,101.183 40.5,100.5C 43.996,95.1024 43.1626,93.7691 38,96.5C 36.6015,95.9491 35.2682,95.6158 34,95.5C 33.6924,96.3081 33.1924,96.9747 32.5,97.5C 30.2966,97.4134 28.1299,97.4134 26,97.5C 25.6827,99.3008 25.016,99.6341 24,98.5C 22.9326,99.1905 21.7659,99.6905 20.5,100C 21.4158,100.278 22.0825,100.778 22.5,101.5C 21.1667,101.5 19.8333,101.5 18.5,101.5C 17.5041,101.586 16.6708,101.252 16,100.5C 15.7216,101.416 15.2216,102.082 14.5,102.5C 13.5655,101.432 13.2322,100.099 13.5,98.5C 14.5,99.8333 15.5,99.8333 16.5,98.5C 17.4916,98.6716 18.1583,98.3382 18.5,97.5C 19.391,96.8902 20.391,96.5569 21.5,96.5C 22.4916,96.6716 23.1583,96.3382 23.5,95.5C 24.9587,95.5674 26.2921,95.2341 27.5,94.5C 28.5279,94.9258 29.8612,94.9258 31.5,94.5C 32.791,94.7373 33.791,94.404 34.5,93.5C 36.2592,94.2614 37.9259,93.9281 39.5,92.5C 39.8333,92.5 40.1667,92.5 40.5,92.5C 41.9759,92.8885 43.3092,92.8885 44.5,92.5C 45.7978,93.1157 46.7978,93.1157 47.5,92.5C 48.7978,93.1157 49.7978,93.1157 50.5,92.5C 52.2897,92.7111 53.9563,92.7111 55.5,92.5C 56.1667,92.5 56.8333,92.5 57.5,92.5C 58.6908,92.8885 60.0241,92.8885 61.5,92.5C 62.2216,92.9175 62.7216,93.5842 63,94.5C 63.3826,93.944 63.8826,93.6107 64.5,93.5C 65.3957,94.5063 66.0623,94.5063 66.5,93.5C 67.7079,94.2341 69.0413,94.5674 70.5,94.5C 70.9377,95.5063 71.6043,95.5063 72.5,94.5C 73.0059,96.1054 73.6726,96.4387 74.5,95.5C 75.391,96.1098 76.391,96.4431 77.5,96.5C 78.1667,96.8333 78.8333,97.1667 79.5,97.5C 82.5,98.5 83.5,97.5 82.5,94.5C 82.5,94.1667 82.5,93.8333 82.5,93.5C 81.9035,91.602 81.9035,89.9354 82.5,88.5C 85.4801,90.0505 88.6468,91.3839 92,92.5C 92.4561,91.2559 91.9561,90.4226 90.5,90C 91.1667,89.3333 91.8333,88.6667 92.5,88C 89.5119,86.4804 86.5119,86.3137 83.5,87.5C 83.8333,86.8333 84.1667,86.1667 84.5,85.5 Z"/></g>
<g><path style="opacity:1" fill="#d6d8d4" d="M 53.5,96.5 C 50.8169,98.0939 48.4835,97.7605 46.5,95.5C 48.1724,95.6126 50.0058,95.2792 52,94.5C 52.7172,95.0442 53.2172,95.7109 53.5,96.5 Z"/></g>
<g><path style="opacity:1" fill="#cd3d26" d="M 82.5,94.5 C 83.5,97.5 82.5,98.5 79.5,97.5C 79.5,96.5 79.5,95.5 79.5,94.5C 80.5,94.5 81.5,94.5 82.5,94.5 Z"/></g>
<g><path style="opacity:1" fill="#d1c709" d="M 74.5,95.5 C 73.6726,96.4387 73.0059,96.1054 72.5,94.5C 72.3691,93.6236 72.7025,92.9569 73.5,92.5C 74.3857,93.325 74.719,94.325 74.5,95.5 Z"/></g>
<g><path style="opacity:1" fill="#e8e9e7" d="M 72.5,101.5 C 70.5021,103.177 70.1688,105.177 71.5,107.5C 71.0431,108.298 70.3764,108.631 69.5,108.5C 67.9724,107.691 66.3057,107.024 64.5,106.5C 62.8561,106.714 61.3561,106.38 60,105.5C 59.8171,102.635 59.3171,99.9686 58.5,97.5C 58.7828,96.7109 59.2828,96.0442 60,95.5C 61,96.8333 62,96.8333 63,95.5C 63.3333,96.1667 63.6667,96.8333 64,97.5C 66.8825,96.603 69.8825,96.603 73,97.5C 74.2051,98.0712 75.3717,98.7379 76.5,99.5C 75.0508,100.172 73.7175,100.839 72.5,101.5 Z"/></g>
<g><path style="opacity:1" fill="#4355b1" d="M 47.5,104.5 C 45.4513,105.641 43.4513,105.641 41.5,104.5C 41.5,103.833 41.5,103.167 41.5,102.5C 42.1814,100.842 43.0147,99.1749 44,97.5C 48.2818,98.3074 49.4485,100.641 47.5,104.5 Z"/></g>
<g><path style="opacity:1" fill="#3f52a5" d="M 58.5,97.5 C 58.6641,100.187 58.4974,102.854 58,105.5C 56.9887,106.337 55.8221,106.67 54.5,106.5C 54.1667,105.5 53.5,104.833 52.5,104.5C 51.0269,103.877 50.0269,102.21 49.5,99.5C 50.6313,98.3961 51.4646,98.7295 52,100.5C 52.5,99.3333 53.3333,98.5 54.5,98C 53.944,97.6174 53.6107,97.1174 53.5,96.5C 54.1499,96.1961 54.8165,95.8627 55.5,95.5C 56.6956,95.8457 56.6956,96.3457 55.5,97C 56.448,97.4828 57.448,97.6495 58.5,97.5 Z"/></g>
<g><path style="opacity:1" fill="#dbded9" d="M 18.5,101.5 C 17.8333,102.5 17.1667,103.5 16.5,104.5C 15.8333,104.167 15.1667,103.833 14.5,103.5C 14.5,103.167 14.5,102.833 14.5,102.5C 15.2216,102.082 15.7216,101.416 16,100.5C 16.6708,101.252 17.5041,101.586 18.5,101.5 Z"/></g>
<g><path style="opacity:1" fill="#403b25" d="M 90.5,98.5 C 90.5987,101.237 90.2653,103.904 89.5,106.5C 88.7326,105.828 88.0659,104.995 87.5,104C 90.1667,103.333 90.1667,102.667 87.5,102C 88.8141,101.015 89.8141,99.8484 90.5,98.5 Z"/></g>
<g><path style="opacity:1" fill="#3e4f97" d="M 18.5,101.5 C 19.8333,101.5 21.1667,101.5 22.5,101.5C 23.5519,101.771 24.8853,101.938 26.5,102C 27.056,102.383 27.3893,102.883 27.5,103.5C 28.2341,104.708 28.5674,106.041 28.5,107.5C 26.8561,107.714 25.3561,107.38 24,106.5C 23.134,108.896 23.634,109.563 25.5,108.5C 26.5223,108.855 27.189,109.522 27.5,110.5C 26.8333,111.167 26.1667,111.833 25.5,112.5C 23.4425,113.202 21.4425,113.535 19.5,113.5C 18.4777,113.145 17.811,112.478 17.5,111.5C 16.0677,109.201 16.7344,107.535 19.5,106.5C 18.2192,106.984 17.2192,106.317 16.5,104.5C 17.1667,103.5 17.8333,102.5 18.5,101.5 Z"/></g>
<g><path style="opacity:1" fill="#3c4c8a" d="M 74.5,111.5 C 72.5659,110.89 70.8993,109.89 69.5,108.5C 70.3764,108.631 71.0431,108.298 71.5,107.5C 70.1688,105.177 70.5021,103.177 72.5,101.5C 73.397,102.598 74.2303,102.598 75,101.5C 75.3076,102.308 75.8076,102.975 76.5,103.5C 75.9836,102.242 76.6503,101.242 78.5,100.5C 82.5536,101.406 83.2202,103.24 80.5,106C 81.9295,107.88 81.5962,109.38 79.5,110.5C 77.9954,107.869 77.3287,108.203 77.5,111.5C 76.5,111.5 75.5,111.5 74.5,111.5 Z"/></g>
<g><path style="opacity:1" fill="#e8d9be" d="M 54.5,106.5 C 57.8333,107.833 61.1667,107.833 64.5,106.5C 66.3057,107.024 67.9724,107.691 69.5,108.5C 70.8993,109.89 72.5659,110.89 74.5,111.5C 74.5,112.167 74.8333,112.5 75.5,112.5C 75.6107,113.117 75.944,113.617 76.5,114C 74.8659,114.494 73.1992,114.66 71.5,114.5C 67.5,114.5 63.5,114.5 59.5,114.5C 58.596,115.209 58.2627,116.209 58.5,117.5C 53.8415,117.985 52.5081,116.152 54.5,112C 52.0982,111.186 49.7649,111.353 47.5,112.5C 49.2739,115.85 48.2739,117.516 44.5,117.5C 43.8333,116.5 43.1667,115.5 42.5,114.5C 37.5293,113.159 32.5293,113.492 27.5,115.5C 26.4489,114.778 25.7822,113.778 25.5,112.5C 26.1667,111.833 26.8333,111.167 27.5,110.5C 32.6713,107.862 38.0047,106.862 43.5,107.5C 44.7481,106.96 45.9148,106.293 47,105.5C 49.2686,105.726 51.7686,106.059 54.5,106.5 Z"/></g>
<g><path style="opacity:1" fill="#767874" d="M 58.5,97.5 C 59.3171,99.9686 59.8171,102.635 60,105.5C 61.3561,106.38 62.8561,106.714 64.5,106.5C 61.1667,107.833 57.8333,107.833 54.5,106.5C 55.8221,106.67 56.9887,106.337 58,105.5C 58.4974,102.854 58.6641,100.187 58.5,97.5 Z"/></g>
<g><path style="opacity:1" fill="#34312f" d="M 14.5,103.5 C 15.1667,103.833 15.8333,104.167 16.5,104.5C 17.2192,106.317 18.2192,106.984 19.5,106.5C 16.7344,107.535 16.0677,109.201 17.5,111.5C 16.8826,111.389 16.3826,111.056 16,110.5C 15.5604,108.134 15.0604,105.801 14.5,103.5 Z"/></g>
<g><path style="opacity:1" fill="#808280" d="M 41.5,104.5 C 43.4513,105.641 45.4513,105.641 47.5,104.5C 49.1667,104.5 50.8333,104.5 52.5,104.5C 53.5,104.833 54.1667,105.5 54.5,106.5C 51.7686,106.059 49.2686,105.726 47,105.5C 45.9148,106.293 44.7481,106.96 43.5,107.5C 38.0047,106.862 32.6713,107.862 27.5,110.5C 27.189,109.522 26.5223,108.855 25.5,108.5C 23.634,109.563 23.134,108.896 24,106.5C 25.3561,107.38 26.8561,107.714 28.5,107.5C 28.5674,106.041 28.2341,104.708 27.5,103.5C 28.2679,102.737 28.7679,101.737 29,100.5C 29.3763,103.01 30.2096,105.343 31.5,107.5C 33.7466,106.626 36.0799,106.292 38.5,106.5C 38.3367,104.143 38.5034,101.81 39,99.5C 39.1922,101.577 39.6922,103.577 40.5,105.5C 41.1067,105.376 41.44,105.043 41.5,104.5 Z"/></g>
<g><path style="opacity:1" fill="#575342" d="M 89.5,106.5 C 90.1667,106.833 90.8333,107.167 91.5,107.5C 92.1667,109.167 92.8333,110.833 93.5,112.5C 91.1782,111.198 89.8449,109.198 89.5,106.5 Z"/></g>
<g><path style="opacity:1" fill="#786929" d="M 59.5,114.5 C 59.9465,117.01 59.2798,119.01 57.5,120.5C 55.4437,119.784 53.277,119.117 51,118.5C 48.9592,119.423 46.7925,119.756 44.5,119.5C 43.4937,119.062 43.4937,118.396 44.5,117.5C 48.2739,117.516 49.2739,115.85 47.5,112.5C 49.7649,111.353 52.0982,111.186 54.5,112C 52.5081,116.152 53.8415,117.985 58.5,117.5C 58.2627,116.209 58.596,115.209 59.5,114.5 Z"/></g>
<g><path style="opacity:1" fill="#a23a17" d="M 49.5,113.5 C 53.31,114.754 53.31,115.754 49.5,116.5C 49.5,115.5 49.5,114.5 49.5,113.5 Z"/></g>
<g><path style="opacity:1" fill="#f5f6f5" d="M 59.5,114.5 C 63.5,114.5 67.5,114.5 71.5,114.5C 71.9175,115.222 72.5842,115.722 73.5,116C 70.4663,117.386 67.7996,119.219 65.5,121.5C 66.3094,123.071 66.6427,124.738 66.5,126.5C 65.3995,128.277 64.5662,130.277 64,132.5C 63.6667,131.167 63.3333,129.833 63,128.5C 62.6655,130.503 61.8321,132.17 60.5,133.5C 60.1667,133.5 59.8333,133.5 59.5,133.5C 59.3129,129.087 58.6462,124.754 57.5,120.5C 59.2798,119.01 59.9465,117.01 59.5,114.5 Z"/></g>
<g><path style="opacity:1" fill="#734c3d" d="M 82.5,110.5 C 84.3117,112.713 84.6451,115.047 83.5,117.5C 83.5,117.167 83.5,116.833 83.5,116.5C 82.3752,113.872 80.3752,113.039 77.5,114C 78.7375,114.232 79.7375,114.732 80.5,115.5C 76.529,117.159 72.529,118.826 68.5,120.5C 67.8313,122.631 67.1646,124.631 66.5,126.5C 66.6427,124.738 66.3094,123.071 65.5,121.5C 67.7996,119.219 70.4663,117.386 73.5,116C 72.5842,115.722 71.9175,115.222 71.5,114.5C 73.1992,114.66 74.8659,114.494 76.5,114C 75.944,113.617 75.6107,113.117 75.5,112.5C 77.46,111.862 79.2933,111.862 81,112.5C 81.7172,111.956 82.2172,111.289 82.5,110.5 Z"/></g>
<g><path style="opacity:1" fill="#2f8b33" d="M 83.5,116.5 C 82.609,115.89 81.609,115.557 80.5,115.5C 79.7375,114.732 78.7375,114.232 77.5,114C 80.3752,113.039 82.3752,113.872 83.5,116.5 Z"/></g>
<g><path style="opacity:1" fill="#615f58" d="M 42.5,114.5 C 37.3388,113.89 32.6721,115.056 28.5,118C 29.8646,119.682 31.3646,119.849 33,118.5C 35.0549,119.672 35.7216,121.339 35,123.5C 32.442,121.325 29.6087,119.658 26.5,118.5C 27.1098,117.609 27.4431,116.609 27.5,115.5C 32.5293,113.492 37.5293,113.159 42.5,114.5 Z"/></g>
<g><path style="opacity:1" fill="#4c4836" d="M 83.5,117.5 C 83.3893,118.117 83.056,118.617 82.5,119C 83.4158,119.278 84.0825,119.778 84.5,120.5C 79.6905,120.314 79.3571,119.314 83.5,117.5 Z"/></g>
<g><path style="opacity:1" fill="#f0e1c4" d="M 57.5,120.5 C 56.8333,123.833 56.1667,127.167 55.5,130.5C 53.3811,128.283 50.7145,126.95 47.5,126.5C 45.9182,124.423 44.9182,122.09 44.5,119.5C 46.7925,119.756 48.9592,119.423 51,118.5C 53.277,119.117 55.4437,119.784 57.5,120.5 Z"/></g>
<g><path style="opacity:1" fill="#645a2e" d="M 93.5,112.5 C 94.4614,114.265 94.7947,116.265 94.5,118.5C 94.3426,121.318 93.0092,123.318 90.5,124.5C 88.965,125.354 87.6316,125.354 86.5,124.5C 87.8146,123.105 87.4812,122.105 85.5,121.5C 84.8333,121.5 84.5,121.167 84.5,120.5C 86.205,119.465 87.8716,119.465 89.5,120.5C 91.3364,114.12 92.5031,114.12 93,120.5C 93.4974,117.854 93.6641,115.187 93.5,112.5 Z"/></g>
<g><path style="opacity:1" fill="#aea435" d="M 90.5,124.5 C 93.0092,123.318 94.3426,121.318 94.5,118.5C 96.3307,117.948 97.9974,117.948 99.5,118.5C 101.065,123.593 99.5653,127.593 95,130.5C 94.2588,129.359 93.4255,129.359 92.5,130.5C 90.0465,128.958 89.3799,126.958 90.5,124.5 Z"/></g>
<g><path style="opacity:1" fill="#2b822b" d="M 85.5,121.5 C 87.4812,122.105 87.8146,123.105 86.5,124.5C 82.797,126.186 79.4636,125.686 76.5,123C 78.5675,122.313 80.5675,122.48 82.5,123.5C 83.7387,123.058 84.7387,122.391 85.5,121.5 Z"/></g>
<g><path style="opacity:1" fill="#8e9088" d="M 42.5,114.5 C 43.1667,115.5 43.8333,116.5 44.5,117.5C 43.4937,118.396 43.4937,119.062 44.5,119.5C 44.9182,122.09 45.9182,124.423 47.5,126.5C 50.7145,126.95 53.3811,128.283 55.5,130.5C 52.0233,128.742 48.3566,128.242 44.5,129C 43.695,130.113 43.0283,131.279 42.5,132.5C 41.5,132.5 40.5,132.5 39.5,132.5C 39.6816,130.409 39.3482,128.409 38.5,126.5C 41.3605,122.495 42.8605,123.162 43,128.5C 43.9246,127.953 44.7579,127.287 45.5,126.5C 43.31,122.79 42.31,118.79 42.5,114.5 Z"/></g>
<g><path style="opacity:1" fill="#a6a9a1" d="M 57.5,120.5 C 58.6462,124.754 59.3129,129.087 59.5,133.5C 58.8333,133.833 58.1667,134.167 57.5,134.5C 56.8333,133.167 56.1667,131.833 55.5,130.5C 56.1667,127.167 56.8333,123.833 57.5,120.5 Z"/></g>
<g><path style="opacity:1" fill="#7d7e78" d="M 66.5,126.5 C 66.3259,128.861 65.9926,131.194 65.5,133.5C 63.8333,133.5 62.1667,133.5 60.5,133.5C 61.8321,132.17 62.6655,130.503 63,128.5C 63.3333,129.833 63.6667,131.167 64,132.5C 64.5662,130.277 65.3995,128.277 66.5,126.5 Z"/></g>
<g><path style="opacity:1" fill="#eadabf" d="M 55.5,130.5 C 56.1667,131.833 56.8333,133.167 57.5,134.5C 56.2665,137.465 56.2665,140.465 57.5,143.5C 55.5403,145.484 53.207,146.317 50.5,146C 52.6785,145.558 53.3452,144.558 52.5,143C 51.0922,142.685 49.7589,143.018 48.5,144C 48.8333,145 49.1667,146 49.5,147C 50.7932,147.49 52.1266,147.657 53.5,147.5C 53.6752,151.66 51.6752,153.994 47.5,154.5C 42.5197,154.157 40.853,151.823 42.5,147.5C 45.9995,144.809 46.4995,141.476 44,137.5C 43.2797,139.112 43.4464,140.612 44.5,142C 43.0715,142.579 41.7382,142.412 40.5,141.5C 40.7556,138.402 41.4222,135.402 42.5,132.5C 43.0283,131.279 43.695,130.113 44.5,129C 48.3566,128.242 52.0233,128.742 55.5,130.5 Z"/></g>
<g><path style="opacity:1" fill="#a4544a" d="M 44.5,132.5 C 48.9989,132.935 49.3322,133.935 45.5,135.5C 43.1966,135.124 42.8632,134.124 44.5,132.5 Z"/></g>
<g><path style="opacity:1" fill="#201a14" d="M 59.5,133.5 C 59.8333,133.5 60.1667,133.5 60.5,133.5C 62.1667,133.5 63.8333,133.5 65.5,133.5C 68.5223,136.288 69.189,139.621 67.5,143.5C 66.8333,143.833 66.1667,144.167 65.5,144.5C 64.4664,143.313 63.133,142.48 61.5,142C 66.0464,141.404 67.2131,139.237 65,135.5C 63.3831,136.536 63.2164,137.703 64.5,139C 62.6332,139.711 61.1332,139.211 60,137.5C 59.3333,140.167 58.6667,140.167 58,137.5C 57.5599,141.405 59.3932,143.572 63.5,144C 61.4546,144.49 59.4546,144.323 57.5,143.5C 56.2665,140.465 56.2665,137.465 57.5,134.5C 58.1667,134.167 58.8333,133.833 59.5,133.5 Z"/></g>
<g><path style="opacity:1" fill="#36271c" d="M 39.5,132.5 C 40.5,132.5 41.5,132.5 42.5,132.5C 41.4222,135.402 40.7556,138.402 40.5,141.5C 40.2587,143.886 40.9254,145.886 42.5,147.5C 40.853,151.823 42.5197,154.157 47.5,154.5C 47.0825,155.222 46.4158,155.722 45.5,156C 46.4158,156.278 47.0825,156.778 47.5,157.5C 43.8534,156.684 40.5201,155.184 37.5,153C 38.3081,152.692 38.9747,152.192 39.5,151.5C 38.6518,149.591 38.3184,147.591 38.5,145.5C 32.5681,142.389 32.0681,138.389 37,133.5C 37.3052,131.443 37.3052,129.443 37,127.5C 37.9853,129.175 38.8186,130.842 39.5,132.5 Z"/></g>
<g><path style="opacity:1" fill="#1f1f1d" d="M 5.5,135.5 C 6.67504,135.281 7.67504,135.614 8.5,136.5C 7.35536,137.891 7.35536,139.224 8.5,140.5C 9.73619,139.754 11.0695,139.421 12.5,139.5C 12.5,140.833 12.5,142.167 12.5,143.5C 11.1779,143.67 10.0113,143.337 9,142.5C 8.50649,144.134 8.33982,145.801 8.5,147.5C 7.5,147.5 6.5,147.5 5.5,147.5C 5.28649,145.856 5.61983,144.356 6.5,143C 5.45104,142.508 4.45104,142.674 3.5,143.5C 2.5,143.167 1.83333,142.5 1.5,141.5C 3.02699,140.056 4.69366,139.222 6.5,139C 6.01087,137.862 5.67754,136.695 5.5,135.5 Z"/></g>
<g><path style="opacity:1" fill="#10100f" d="M 85.5,140.5 C 86.675,140.281 87.675,140.614 88.5,141.5C 87.2941,143.516 87.2941,145.516 88.5,147.5C 93.0541,144.156 95.2208,145.156 95,150.5C 94.2753,151.059 93.4419,151.392 92.5,151.5C 90.845,150.612 89.1783,150.112 87.5,150C 90.2393,152.934 90.0726,155.434 87,157.5C 82.532,155.395 82.3653,152.895 86.5,150C 84.8217,150.112 83.155,150.612 81.5,151.5C 79.5,151.5 78.5,150.5 78.5,148.5C 78.4342,146.734 79.2676,145.734 81,145.5C 86.2252,148.207 87.7252,146.54 85.5,140.5 Z"/></g>
<g><path style="opacity:1" fill="#201f1d" d="M 100.5,135.5 C 101.675,135.281 102.675,135.614 103.5,136.5C 101.934,139.494 102.601,140.494 105.5,139.5C 108.167,140.833 108.167,142.167 105.5,143.5C 104.549,142.674 103.549,142.508 102.5,143C 103.38,144.356 103.714,145.856 103.5,147.5C 102.5,147.5 101.5,147.5 100.5,147.5C 100.66,145.801 100.494,144.134 100,142.5C 98.9887,143.337 97.8221,143.67 96.5,143.5C 96.5,142.167 96.5,140.833 96.5,139.5C 97.9305,139.421 99.2638,139.754 100.5,140.5C 101.434,138.905 101.434,137.239 100.5,135.5 Z"/></g>
<g><path style="opacity:1" fill="#706f6a" d="M 42.5,147.5 C 40.9254,145.886 40.2587,143.886 40.5,141.5C 41.7382,142.412 43.0715,142.579 44.5,142C 43.4464,140.612 43.2797,139.112 44,137.5C 46.4995,141.476 45.9995,144.809 42.5,147.5 Z"/></g>
<g><path style="opacity:1" fill="#4f3120" d="M 65.5,144.5 C 64.2213,147.112 62.5547,149.445 60.5,151.5C 57.8616,157.373 53.5282,159.373 47.5,157.5C 47.0825,156.778 46.4158,156.278 45.5,156C 46.4158,155.722 47.0825,155.222 47.5,154.5C 51.6752,153.994 53.6752,151.66 53.5,147.5C 52.1266,147.657 50.7932,147.49 49.5,147C 49.1667,146 48.8333,145 48.5,144C 49.7589,143.018 51.0922,142.685 52.5,143C 53.3452,144.558 52.6785,145.558 50.5,146C 53.207,146.317 55.5403,145.484 57.5,143.5C 59.4546,144.323 61.4546,144.49 63.5,144C 59.3932,143.572 57.5599,141.405 58,137.5C 58.6667,140.167 59.3333,140.167 60,137.5C 61.1332,139.211 62.6332,139.711 64.5,139C 63.2164,137.703 63.3831,136.536 65,135.5C 67.2131,139.237 66.0464,141.404 61.5,142C 63.133,142.48 64.4664,143.313 65.5,144.5 Z"/></g>
<g><path style="opacity:1" fill="#171715" d="M 4.5,150.5 C 6.16667,150.5 7.83333,150.5 9.5,150.5C 9.5,155.167 9.5,159.833 9.5,164.5C 7.5328,164.739 5.69946,164.406 4,163.5C 3.23158,159.08 3.39825,154.747 4.5,150.5 Z"/></g>
<g><path style="opacity:1" fill="#171715" d="M 100.5,150.5 C 102.167,150.5 103.833,150.5 105.5,150.5C 105.5,155.167 105.5,159.833 105.5,164.5C 103.533,164.739 101.699,164.406 100,163.5C 99.2316,159.08 99.3982,154.747 100.5,150.5 Z"/></g>
<g><path style="opacity:1" fill="#ecf4e4" d="M 5.5,152.5 C 6.77725,153.694 7.44392,155.36 7.5,157.5C 7.16667,159.167 6.83333,160.833 6.5,162.5C 5.51298,159.232 5.17964,155.898 5.5,152.5 Z"/></g>
<g><path style="opacity:1" fill="#bcb32f" d="M 67.5,143.5 C 69.0174,143.511 70.1841,144.177 71,145.5C 71.4298,148.192 71.2631,150.859 70.5,153.5C 68.7837,155.025 66.7837,156.025 64.5,156.5C 65.247,153.734 63.9137,152.068 60.5,151.5C 62.5547,149.445 64.2213,147.112 65.5,144.5C 66.1667,144.167 66.8333,143.833 67.5,143.5 Z"/></g>
<g><path style="opacity:1" fill="#ecf4e4" d="M 101.5,152.5 C 102.777,153.694 103.444,155.36 103.5,157.5C 103.167,159.167 102.833,160.833 102.5,162.5C 101.513,159.232 101.18,155.898 101.5,152.5 Z"/></g>
<g><path style="opacity:1" fill="#81752f" d="M 38.5,145.5 C 38.3184,147.591 38.6518,149.591 39.5,151.5C 38.9747,152.192 38.3081,152.692 37.5,153C 40.5201,155.184 43.8534,156.684 47.5,157.5C 53.5282,159.373 57.8616,157.373 60.5,151.5C 63.9137,152.068 65.247,153.734 64.5,156.5C 63.0365,159.523 60.7031,160.19 57.5,158.5C 57.5,159.5 57.5,160.5 57.5,161.5C 58.6591,162.513 60.6591,162.847 63.5,162.5C 65.8333,162.5 68.1667,162.5 70.5,162.5C 68.2995,164.185 49.2995,164.351 13.5,163C 25.4876,162.816 33.8209,162.316 38.5,161.5C 38.5,159.833 38.5,158.167 38.5,156.5C 33.4133,156.716 32.4133,154.882 35.5,151C 33.65,147.534 34.65,145.701 38.5,145.5 Z"/></g>
<g><path style="opacity:1" fill="#239018" d="M 70.5,153.5 C 71.9468,154.134 72.6134,155.301 72.5,157C 72.2421,159.009 71.5755,160.843 70.5,162.5C 68.1667,162.5 65.8333,162.5 63.5,162.5C 64.9516,161.698 66.6183,161.198 68.5,161C 67.1279,160.598 65.7946,160.098 64.5,159.5C 62.3821,160.946 60.0488,161.613 57.5,161.5C 57.5,160.5 57.5,159.5 57.5,158.5C 60.7031,160.19 63.0365,159.523 64.5,156.5C 66.7837,156.025 68.7837,155.025 70.5,153.5 Z"/></g>
<g><path style="opacity:1" fill="#17c903" d="M 63.5,162.5 C 60.6591,162.847 58.6591,162.513 57.5,161.5C 60.0488,161.613 62.3821,160.946 64.5,159.5C 65.7946,160.098 67.1279,160.598 68.5,161C 66.6183,161.198 64.9516,161.698 63.5,162.5 Z"/></g>
</svg>
