<?xml version="1.0" encoding="UTF-8"?>
<!DOCTYPE svg PUBLIC "-//W3C//DTD SVG 1.1//EN" "http://www.w3.org/Graphics/SVG/1.1/DTD/svg11.dtd">
<svg xmlns="http://www.w3.org/2000/svg" version="1.1" width="110px" height="170px" style="shape-rendering:geometricPrecision; text-rendering:geometricPrecision; image-rendering:optimizeQuality; fill-rule:evenodd; clip-rule:evenodd" xmlns:xlink="http://www.w3.org/1999/xlink">
<g><path style="opacity:1" fill="#eaf2e1" d="M -0.5,-0.5 C 36.1667,-0.5 72.8333,-0.5 109.5,-0.5C 109.5,56.1667 109.5,112.833 109.5,169.5C 72.8333,169.5 36.1667,169.5 -0.5,169.5C -0.5,112.833 -0.5,56.1667 -0.5,-0.5 Z"/></g>
<g><path style="opacity:1" fill="#11100f" d="M 2.5,4.5 C 4.11709,5.58935 4.95042,7.25602 5,9.5C 8.91996,2.71708 9.7533,2.88375 7.5,10C 8.22391,12.7792 9.22391,15.4459 10.5,18C 9.55198,18.4828 8.55198,18.6495 7.5,18.5C 6.61413,10.694 5.2808,10.694 3.5,18.5C 2.50671,13.8804 2.17338,9.21369 2.5,4.5 Z"/></g>
<g><path style="opacity:1" fill="#11100f" d="M 98.5,4.5 C 100.117,5.58935 100.95,7.25602 101,9.5C 104.92,2.71708 105.753,2.88375 103.5,10C 104.224,12.7792 105.224,15.4459 106.5,18C 105.552,18.4828 104.552,18.6495 103.5,18.5C 102.614,10.694 101.281,10.694 99.5,18.5C 98.5067,13.8804 98.1734,9.21369 98.5,4.5 Z"/></g>
<g><path style="opacity:1" fill="#211b1a" d="M 66.5,12.5 C 65.6942,11.0028 65.0276,9.33612 64.5,7.5C 64.0431,6.70245 63.3764,6.36912 62.5,6.5C 61.8333,6.5 61.5,6.83333 61.5,7.5C 60.0755,5.96895 59.4088,6.30228 59.5,8.5C 58.7777,7.44886 57.7777,6.78219 56.5,6.5C 55.8333,6.5 55.1667,6.5 54.5,6.5C 51.5,6.5 48.5,6.5 45.5,6.5C 44.8333,6.5 44.1667,6.5 43.5,6.5C 42.1667,6.5 40.8333,6.5 39.5,6.5C 38.8333,6.5 38.1667,6.5 37.5,6.5C 36.8333,6.5 36.1667,6.5 35.5,6.5C 40.7906,5.14095 60.7906,4.97428 95.5,6C 85.5,6.33333 75.5,6.66667 65.5,7C 66.4061,8.69946 66.7394,10.5328 66.5,12.5 Z"/></g>
<g><path style="opacity:1" fill="#9d1f16" d="M 62.5,6.5 C 63.3764,6.36912 64.0431,6.70245 64.5,7.5C 65.0276,9.33612 65.6942,11.0028 66.5,12.5C 66.6716,13.4916 66.3382,14.1583 65.5,14.5C 64.448,14.6495 63.448,14.4828 62.5,14C 63.4496,11.5679 63.4496,9.0679 62.5,6.5 Z"/></g>
<g><path style="opacity:1" fill="#a02416" d="M 37.5,6.5 C 38.1667,6.5 38.8333,6.5 39.5,6.5C 38.7589,9.41328 38.2589,12.4133 38,15.5C 37.31,14.2617 36.81,14.2617 36.5,15.5C 34.5759,15.2893 34.2426,14.6226 35.5,13.5C 36.2679,11.2854 36.9346,8.95209 37.5,6.5 Z"/></g>
<g><path style="opacity:1" fill="#857a17" d="M 35.5,6.5 C 36.1667,6.5 36.8333,6.5 37.5,6.5C 36.9346,8.95209 36.2679,11.2854 35.5,13.5C 35.5,11.1667 35.5,8.83333 35.5,6.5 Z"/></g>
<g><path style="opacity:1" fill="#11110f" d="M 20.5,11.5 C 26.1523,12.6262 26.819,15.1262 22.5,19C 24.1783,18.8877 25.845,18.3877 27.5,17.5C 29.5,17.5 30.5,18.5 30.5,20.5C 30.5658,22.2664 29.7324,23.2664 28,23.5C 23.0882,20.4317 21.5882,21.765 23.5,27.5C 22.5,28.8333 21.5,28.8333 20.5,27.5C 21.7059,25.4841 21.7059,23.4841 20.5,21.5C 15.9459,24.8436 13.7792,23.8436 14,18.5C 14.7247,17.9415 15.5581,17.6082 16.5,17.5C 18.155,18.3877 19.8217,18.8877 21.5,19C 19.2854,16.7585 18.9521,14.2585 20.5,11.5 Z"/></g>
<g><path style="opacity:1" fill="#4c3b1c" d="M 39.5,6.5 C 40.8333,6.5 42.1667,6.5 43.5,6.5C 43.7989,8.60395 43.4656,10.604 42.5,12.5C 41.6919,12.1924 41.0253,11.6924 40.5,11C 41.5171,9.95054 41.6838,8.78387 41,7.5C 39.9537,8.77195 39.4537,10.272 39.5,12C 39.6083,13.6811 40.2749,14.8478 41.5,15.5C 41.1193,16.9311 40.1193,17.7645 38.5,18C 46.7964,17.7957 55.1297,17.4624 63.5,17C 61.6711,16.7265 60.1711,15.8932 59,14.5C 57.3499,17.106 55.8499,17.106 54.5,14.5C 54.8333,14.5 55.1667,14.5 55.5,14.5C 56.6935,14.0296 57.3601,13.0296 57.5,11.5C 57.2716,9.7927 56.9383,8.12603 56.5,6.5C 57.7777,6.78219 58.7777,7.44886 59.5,8.5C 59.5792,9.93047 59.2458,11.2638 58.5,12.5C 59.2421,13.2868 60.0754,13.9535 61,14.5C 61.4966,12.1902 61.6633,9.85684 61.5,7.5C 61.5,6.83333 61.8333,6.5 62.5,6.5C 63.4496,9.0679 63.4496,11.5679 62.5,14C 63.448,14.4828 64.448,14.6495 65.5,14.5C 64.9346,16.9521 64.2679,19.2854 63.5,21.5C 63.4326,22.9587 63.7659,24.2921 64.5,25.5C 64.3345,29.5138 64.5012,33.5138 65,37.5C 67.9517,39.1929 68.1183,41.0262 65.5,43C 68.1047,44.9308 68.1047,46.7642 65.5,48.5C 64.8281,47.0508 64.1614,45.7175 63.5,44.5C 64.8501,41.2673 64.5167,38.2673 62.5,35.5C 62.6633,33.1432 62.4966,30.8098 62,28.5C 60.9887,29.3366 59.8221,29.67 58.5,29.5C 56.9054,31.3131 57.2387,29.9798 59.5,25.5C 60.6956,25.8457 60.6956,26.3457 59.5,27C 60.448,27.4828 61.448,27.6495 62.5,27.5C 62.5,25.8333 62.5,24.1667 62.5,22.5C 57.5,22.5 52.5,22.5 47.5,22.5C 44.5448,23.1587 41.5448,23.4921 38.5,23.5C 37.8333,20.8333 37.1667,18.1667 36.5,15.5C 36.81,14.2617 37.31,14.2617 38,15.5C 38.2589,12.4133 38.7589,9.41328 39.5,6.5 Z"/></g>
<g><path style="opacity:1" fill="#371e0f" d="M 46.5,13.5 C 48.5,13.8333 50.5,14.1667 52.5,14.5C 51.3482,16.6885 49.8482,16.6885 48,14.5C 47.6174,15.056 47.1174,15.3893 46.5,15.5C 46.5,14.8333 46.5,14.1667 46.5,13.5 Z"/></g>
<g><path style="opacity:1" fill="#812918" d="M 43.5,6.5 C 44.1667,6.5 44.8333,6.5 45.5,6.5C 45.7564,8.7925 45.4231,10.9592 44.5,13C 45.0659,13.9947 45.7326,14.828 46.5,15.5C 45.0646,16.0965 43.398,16.0965 41.5,15.5C 40.2749,14.8478 39.6083,13.6811 39.5,12C 39.4537,10.272 39.9537,8.77195 41,7.5C 41.6838,8.78387 41.5171,9.95054 40.5,11C 41.0253,11.6924 41.6919,12.1924 42.5,12.5C 43.4656,10.604 43.7989,8.60395 43.5,6.5 Z"/></g>
<g><path style="opacity:1" fill="#ae3a17" d="M 54.5,6.5 C 55.1667,6.5 55.8333,6.5 56.5,6.5C 56.9383,8.12603 57.2716,9.7927 57.5,11.5C 57.3601,13.0296 56.6935,14.0296 55.5,14.5C 55.5987,11.7628 55.2653,9.09609 54.5,6.5 Z"/></g>
<g><path style="opacity:1" fill="#84731e" d="M 45.5,6.5 C 48.5,6.5 51.5,6.5 54.5,6.5C 55.2653,9.09609 55.5987,11.7628 55.5,14.5C 55.1667,14.5 54.8333,14.5 54.5,14.5C 53.8333,12.5 53.1667,10.5 52.5,8.5C 51.1779,8.66997 50.0113,8.33663 49,7.5C 48.0617,9.48847 47.2283,11.4885 46.5,13.5C 46.5,14.1667 46.5,14.8333 46.5,15.5C 45.7326,14.828 45.0659,13.9947 44.5,13C 45.4231,10.9592 45.7564,8.7925 45.5,6.5 Z"/></g>
<g><path style="opacity:1" fill="#ae291d" d="M 54.5,14.5 C 53.8333,14.5 53.1667,14.5 52.5,14.5C 50.5,14.1667 48.5,13.8333 46.5,13.5C 47.2283,11.4885 48.0617,9.48847 49,7.5C 50.0113,8.33663 51.1779,8.66997 52.5,8.5C 53.1667,10.5 53.8333,12.5 54.5,14.5 Z"/></g>
<g><path style="opacity:1" fill="#bc271d" d="M 61.5,7.5 C 61.6633,9.85684 61.4966,12.1902 61,14.5C 60.0754,13.9535 59.2421,13.2868 58.5,12.5C 59.2458,11.2638 59.5792,9.93047 59.5,8.5C 59.4088,6.30228 60.0755,5.96895 61.5,7.5 Z"/></g>
<g><path style="opacity:1" fill="#d4ce0c" d="M 52.5,14.5 C 53.1667,14.5 53.8333,14.5 54.5,14.5C 55.8499,17.106 57.3499,17.106 59,14.5C 60.1711,15.8932 61.6711,16.7265 63.5,17C 55.1297,17.4624 46.7964,17.7957 38.5,18C 40.1193,17.7645 41.1193,16.9311 41.5,15.5C 43.398,16.0965 45.0646,16.0965 46.5,15.5C 47.1174,15.3893 47.6174,15.056 48,14.5C 49.8482,16.6885 51.3482,16.6885 52.5,14.5 Z"/></g>
<g><path style="opacity:1" fill="#826831" d="M 90.5,26.5 C 88.7629,29.008 87.9296,32.008 88,35.5C 87.5172,34.552 87.3505,33.552 87.5,32.5C 87.6813,29.6029 87.3479,26.7695 86.5,24C 86.7591,22.7387 87.4258,21.7387 88.5,21C 86.3807,20.9024 84.714,20.0691 83.5,18.5C 84.6197,16.4038 86.1197,16.0705 88,17.5C 88.4922,16.451 88.3256,15.451 87.5,14.5C 89.1667,13.1667 90.8333,13.1667 92.5,14.5C 90.9893,16.8375 91.3227,17.5042 93.5,16.5C 96.3054,20.5284 95.3054,22.0284 90.5,21C 91.1667,22.3333 91.8333,23.6667 92.5,25C 91.9558,25.7172 91.2891,26.2172 90.5,26.5 Z"/></g>
<g><path style="opacity:1" fill="#c3a117" d="M 49.5,18.5 C 50.1667,21.1667 50.8333,21.1667 51.5,18.5C 55.5,18.5 59.5,18.5 63.5,18.5C 63.5,19.5 63.5,20.5 63.5,21.5C 55.9558,21.2164 48.4558,21.5498 41,22.5C 39.1739,21.9896 39.0072,21.1562 40.5,20C 42.235,19.3486 43.9017,19.5153 45.5,20.5C 46.5237,19.1468 47.857,18.4802 49.5,18.5 Z"/></g>
<g><path style="opacity:1" fill="#db5337" d="M 49.5,18.5 C 50.1667,18.5 50.8333,18.5 51.5,18.5C 50.8333,21.1667 50.1667,21.1667 49.5,18.5 Z"/></g>
<g><path style="opacity:1" fill="#1d1d1c" d="M 5.5,21.5 C 6.5,21.5 7.5,21.5 8.5,21.5C 8.33982,23.1992 8.50649,24.8659 9,26.5C 10.0113,25.6634 11.1779,25.33 12.5,25.5C 12.5,26.8333 12.5,28.1667 12.5,29.5C 11.0695,29.5792 9.73619,29.2458 8.5,28.5C 7.35536,29.7757 7.35536,31.109 8.5,32.5C 7.5,33.8333 6.5,33.8333 5.5,32.5C 6.64464,31.109 6.64464,29.7757 5.5,28.5C 2.3982,29.8934 1.3982,29.06 2.5,26C 3.83333,26 5.16667,26 6.5,26C 5.61983,24.6439 5.28649,23.1439 5.5,21.5 Z"/></g>
<g><path style="opacity:1" fill="#dec7b1" d="M 47.5,22.5 C 52.5,22.5 57.5,22.5 62.5,22.5C 62.5,24.1667 62.5,25.8333 62.5,27.5C 61.448,27.6495 60.448,27.4828 59.5,27C 60.6956,26.3457 60.6956,25.8457 59.5,25.5C 57.2387,29.9798 56.9054,31.3131 58.5,29.5C 59.8221,29.67 60.9887,29.3366 62,28.5C 62.4966,30.8098 62.6633,33.1432 62.5,35.5C 60.4424,37.9965 59.2757,37.3298 59,33.5C 57.9461,35.7536 56.4461,36.087 54.5,34.5C 53.6143,35.325 53.281,36.325 53.5,37.5C 48.4078,37.7886 48.2411,38.7886 53,40.5C 55.4339,39.6777 57.9339,39.3444 60.5,39.5C 60.5674,40.9587 60.2341,42.2921 59.5,43.5C 57.055,42.2979 54.7217,42.6312 52.5,44.5C 51.2322,43.5721 49.8989,43.4054 48.5,44C 50.0779,45.0945 51.7446,45.9278 53.5,46.5C 54.6602,48.2027 53.9935,48.8693 51.5,48.5C 48.6737,48.0023 46.3403,46.6689 44.5,44.5C 43.5525,40.9392 44.2192,37.6059 46.5,34.5C 45.5,33.8333 44.5,33.1667 43.5,32.5C 44.4803,31.0186 45.647,29.6853 47,28.5C 47.4955,26.5273 47.6621,24.5273 47.5,22.5 Z"/></g>
<g><path style="opacity:1" fill="#1e1e1c" d="M 100.5,21.5 C 101.5,21.5 102.5,21.5 103.5,21.5C 103.714,23.1439 103.38,24.6439 102.5,26C 103.833,26 105.167,26 106.5,26C 107.602,29.06 106.602,29.8934 103.5,28.5C 102.355,29.7757 102.355,31.109 103.5,32.5C 102.5,33.8333 101.5,33.8333 100.5,32.5C 101.645,31.109 101.645,29.7757 100.5,28.5C 99.2638,29.2458 97.9305,29.5792 96.5,29.5C 96.5,28.1667 96.5,26.8333 96.5,25.5C 97.8221,25.33 98.9887,25.6634 100,26.5C 100.494,24.8659 100.66,23.1992 100.5,21.5 Z"/></g>
<g><path style="opacity:1" fill="#68635b" d="M 49.5,24.5 C 51.1992,24.3398 52.8659,24.5065 54.5,25C 54.4037,26.373 54.5704,27.873 55,29.5C 53.9916,29.0183 52.825,28.8516 51.5,29C 50.5419,27.8525 50.8753,26.8525 52.5,26C 51.451,25.5078 50.451,25.6744 49.5,26.5C 48.537,26.0302 48.537,25.3635 49.5,24.5 Z"/></g>
<g><path style="opacity:1" fill="#5e502a" d="M 90.5,26.5 C 89.9094,34.7041 90.576,42.7041 92.5,50.5C 90.6131,52.9405 89.2797,55.6071 88.5,58.5C 88.8029,60.1143 89.4695,61.4477 90.5,62.5C 88.5,63.5 86.5,64.5 84.5,65.5C 85.9424,60.4652 85.7758,55.4652 84,50.5C 83.5172,51.448 83.3505,52.448 83.5,53.5C 82.661,52.3588 81.9943,51.0255 81.5,49.5C 83.7781,45.678 85.4448,41.678 86.5,37.5C 86.2155,35.5853 86.5489,33.9187 87.5,32.5C 87.3505,33.552 87.5172,34.552 88,35.5C 87.9296,32.008 88.7629,29.008 90.5,26.5 Z"/></g>
<g><path style="opacity:1" fill="#82722f" d="M 62.5,35.5 C 64.5167,38.2673 64.8501,41.2673 63.5,44.5C 63.0707,43.0473 62.904,41.3806 63,39.5C 62.2303,38.4019 61.397,38.4019 60.5,39.5C 57.9339,39.3444 55.4339,39.6777 53,40.5C 48.2411,38.7886 48.4078,37.7886 53.5,37.5C 53.281,36.325 53.6143,35.325 54.5,34.5C 56.4461,36.087 57.9461,35.7536 59,33.5C 59.2757,37.3298 60.4424,37.9965 62.5,35.5 Z"/></g>
<g><path style="opacity:1" fill="#bbab15" d="M 88.5,36.5 C 89.6484,40.9811 89.8151,45.6478 89,50.5C 88.0565,49.737 87.5565,48.737 87.5,47.5C 88.3464,43.8822 88.6797,40.2155 88.5,36.5 Z"/></g>
<g><path style="opacity:1" fill="#64541f" d="M 47.5,22.5 C 47.6621,24.5273 47.4955,26.5273 47,28.5C 45.647,29.6853 44.4803,31.0186 43.5,32.5C 44.5,33.1667 45.5,33.8333 46.5,34.5C 44.2192,37.6059 43.5525,40.9392 44.5,44.5C 43.8666,47.1336 42.1999,48.8002 39.5,49.5C 37.9432,50.4663 36.6099,51.7996 35.5,53.5C 37.5589,54.9512 38.5589,56.9512 38.5,59.5C 39.791,59.2627 40.791,59.596 41.5,60.5C 39.9519,60.8212 39.2852,61.8212 39.5,63.5C 37.9582,62.6993 36.2915,62.366 34.5,62.5C 35.209,61.596 36.209,61.2627 37.5,61.5C 37.8799,59.302 37.2132,57.6354 35.5,56.5C 34.3932,53.6306 32.3932,51.6306 29.5,50.5C 29.9687,54.8304 28.6354,55.3304 25.5,52C 26.756,51.5831 27.4226,50.7498 27.5,49.5C 27.1667,48.8333 26.8333,48.1667 26.5,47.5C 27.344,45.2407 29.0107,44.2407 31.5,44.5C 33.7044,37.5094 36.0377,30.5094 38.5,23.5C 41.5448,23.4921 44.5448,23.1587 47.5,22.5 Z"/></g>
<g><path style="opacity:1" fill="#4d3e16" d="M 63.5,44.5 C 63.634,46.2915 63.3007,47.9582 62.5,49.5C 61.5,49.5 60.5,49.5 59.5,49.5C 60.2751,47.6119 60.2751,45.6119 59.5,43.5C 60.2341,42.2921 60.5674,40.9587 60.5,39.5C 61.397,38.4019 62.2303,38.4019 63,39.5C 62.904,41.3806 63.0707,43.0473 63.5,44.5 Z"/></g>
<g><path style="opacity:1" fill="#e1db43" d="M 86.5,37.5 C 87.5276,41.4265 87.1942,45.4265 85.5,49.5C 85.1667,49 84.8333,48.5 84.5,48C 85.7259,44.5981 86.3926,41.0981 86.5,37.5 Z"/></g>
<g><path style="opacity:1" fill="#5a4f27" d="M 57.5,48.5 C 54.9758,51.239 53.9758,54.5724 54.5,58.5C 53.8333,57.8333 53.1667,57.1667 52.5,56.5C 52.67,55.1779 52.3366,54.0113 51.5,53C 54.1247,51.6243 54.1247,50.4577 51.5,49.5C 51.5,49.1667 51.5,48.8333 51.5,48.5C 53.9935,48.8693 54.6602,48.2027 53.5,46.5C 57.2648,42.2638 58.5981,42.9304 57.5,48.5 Z"/></g>
<g><path style="opacity:1" fill="#fbfcfa" d="M 44.5,44.5 C 46.3403,46.6689 48.6737,48.0023 51.5,48.5C 51.5,48.8333 51.5,49.1667 51.5,49.5C 49.6792,52.2743 47.6792,54.941 45.5,57.5C 43.0629,56.1966 40.8962,54.5299 39,52.5C 38.5304,51.4232 38.6971,50.4232 39.5,49.5C 42.1999,48.8002 43.8666,47.1336 44.5,44.5 Z"/></g>
<g><path style="opacity:1" fill="#9d8d3c" d="M 59.5,43.5 C 60.2751,45.6119 60.2751,47.6119 59.5,49.5C 58.8333,49.1667 58.1667,48.8333 57.5,48.5C 58.5981,42.9304 57.2648,42.2638 53.5,46.5C 51.7446,45.9278 50.0779,45.0945 48.5,44C 49.8989,43.4054 51.2322,43.5721 52.5,44.5C 54.7217,42.6312 57.055,42.2979 59.5,43.5 Z"/></g>
<g><path style="opacity:1" fill="#7e7225" d="M 64.5,25.5 C 65.3195,28.3054 65.8195,31.3054 66,34.5C 66.6368,36.3031 67.8035,37.6364 69.5,38.5C 70.7472,40.0064 70.7472,41.5064 69.5,43C 71.4641,44.451 72.7974,46.2843 73.5,48.5C 73.1667,48.5 72.8333,48.5 72.5,48.5C 70.8828,49.038 69.2161,49.3713 67.5,49.5C 67.1667,49.5 66.8333,49.5 66.5,49.5C 65.1667,49.5 63.8333,49.5 62.5,49.5C 63.3007,47.9582 63.634,46.2915 63.5,44.5C 64.1614,45.7175 64.8281,47.0508 65.5,48.5C 68.1047,46.7642 68.1047,44.9308 65.5,43C 68.1183,41.0262 67.9517,39.1929 65,37.5C 64.5012,33.5138 64.3345,29.5138 64.5,25.5 Z"/></g>
<g><path style="opacity:1" fill="#545450" d="M 26.5,47.5 C 26.8333,48.1667 27.1667,48.8333 27.5,49.5C 23.615,50.1092 20.2817,51.7758 17.5,54.5C 19.1972,50.5836 22.1972,48.2502 26.5,47.5 Z"/></g>
<g><path style="opacity:1" fill="#e3e3df" d="M 57.5,48.5 C 58.1667,48.8333 58.8333,49.1667 59.5,49.5C 60.5,49.5 61.5,49.5 62.5,49.5C 63.8333,49.5 65.1667,49.5 66.5,49.5C 65.87,54.4655 63.5367,58.1321 59.5,60.5C 58.791,61.404 57.791,61.7373 56.5,61.5C 55.8333,60.5 55.1667,59.5 54.5,58.5C 53.9758,54.5724 54.9758,51.239 57.5,48.5 Z"/></g>
<g><path style="opacity:1" fill="#f0f2f1" d="M 72.5,48.5 C 72.7214,49.7348 73.3881,50.7348 74.5,51.5C 73.3966,51.9976 72.3966,52.3309 71.5,52.5C 72,53.5 72.5,54.5 73,55.5C 77.1195,51.4005 79.2862,52.4005 79.5,58.5C 77.1324,60.9557 76.1324,63.9557 76.5,67.5C 75.7168,69.0758 74.5501,70.4092 73,71.5C 72.6667,71.1667 72.3333,70.8333 72,70.5C 71.8762,72.9357 72.3762,75.269 73.5,77.5C 72.5318,79.6074 72.1984,81.9407 72.5,84.5C 71.1266,84.3433 69.7932,84.51 68.5,85C 70.1066,86.049 70.7733,87.549 70.5,89.5C 68.6666,87.8883 66.9999,86.2216 65.5,84.5C 64.5084,84.3284 63.8417,84.6618 63.5,85.5C 62.8333,85.1667 62.1667,84.8333 61.5,84.5C 61.5,83.8333 61.5,83.1667 61.5,82.5C 62.4872,77.6946 62.8205,72.6946 62.5,67.5C 63.3171,65.0314 63.8171,62.3647 64,59.5C 65.6851,57.9825 67.1851,56.3159 68.5,54.5C 67.6906,52.9291 67.3573,51.2624 67.5,49.5C 69.2161,49.3713 70.8828,49.038 72.5,48.5 Z"/></g>
<g><path style="opacity:1" fill="#eeefed" d="M 27.5,49.5 C 27.4226,50.7498 26.756,51.5831 25.5,52C 28.6354,55.3304 29.9687,54.8304 29.5,50.5C 32.3932,51.6306 34.3932,53.6306 35.5,56.5C 37.2132,57.6354 37.8799,59.302 37.5,61.5C 36.209,61.2627 35.209,61.596 34.5,62.5C 33.5041,62.5858 32.6708,62.2524 32,61.5C 30.1335,62.5266 28.3002,63.5266 26.5,64.5C 24.915,61.361 22.2483,59.6944 18.5,59.5C 18.0825,58.7784 17.4158,58.2784 16.5,58C 17.3366,56.9887 17.67,55.8221 17.5,54.5C 20.2817,51.7758 23.615,50.1092 27.5,49.5 Z"/></g>
<g><path style="opacity:1" fill="#53544d" d="M 72.5,48.5 C 72.8333,48.5 73.1667,48.5 73.5,48.5C 76.8553,49.8552 79.1886,52.1886 80.5,55.5C 80.7373,56.791 80.404,57.791 79.5,58.5C 79.2862,52.4005 77.1195,51.4005 73,55.5C 72.5,54.5 72,53.5 71.5,52.5C 72.3966,52.3309 73.3966,51.9976 74.5,51.5C 73.3881,50.7348 72.7214,49.7348 72.5,48.5 Z"/></g>
<g><path style="opacity:1" fill="#cdcfc8" d="M 39.5,49.5 C 38.6971,50.4232 38.5304,51.4232 39,52.5C 40.8962,54.5299 43.0629,56.1966 45.5,57.5C 47.6792,54.941 49.6792,52.2743 51.5,49.5C 54.1247,50.4577 54.1247,51.6243 51.5,53C 52.3366,54.0113 52.67,55.1779 52.5,56.5C 51.8333,58.1667 51.1667,59.8333 50.5,61.5C 47.285,62.7112 44.285,62.3779 41.5,60.5C 40.791,59.596 39.791,59.2627 38.5,59.5C 38.5589,56.9512 37.5589,54.9512 35.5,53.5C 36.6099,51.7996 37.9432,50.4663 39.5,49.5 Z"/></g>
<g><path style="opacity:1" fill="#4d433e" d="M 17.5,54.5 C 17.67,55.8221 17.3366,56.9887 16.5,58C 17.4158,58.2784 18.0825,58.7784 18.5,59.5C 16.64,58.9285 14.9733,58.9285 13.5,59.5C 14.0798,57.2512 15.4131,55.5846 17.5,54.5 Z"/></g>
<g><path style="opacity:1" fill="#127b03" d="M 52.5,56.5 C 53.1667,57.1667 53.8333,57.8333 54.5,58.5C 55.1667,59.5 55.8333,60.5 56.5,61.5C 54.5,61.5 52.5,61.5 50.5,61.5C 51.1667,59.8333 51.8333,58.1667 52.5,56.5 Z"/></g>
<g><path style="opacity:1" fill="#ab251e" d="M 80.5,55.5 C 81.5,56.1667 82.5,56.8333 83.5,57.5C 82.8333,58.1667 82.1667,58.8333 81.5,59.5C 80.0755,61.0311 79.4088,60.6977 79.5,58.5C 80.404,57.791 80.7373,56.791 80.5,55.5 Z"/></g>
<g><path style="opacity:1" fill="#d1cb3f" d="M 84.5,65.5 C 84.5661,61.8616 84.2328,58.1949 83.5,54.5C 83.5,54.1667 83.5,53.8333 83.5,53.5C 83.3505,52.448 83.5172,51.448 84,50.5C 85.7758,55.4652 85.9424,60.4652 84.5,65.5 Z"/></g>
<g><path style="opacity:1" fill="#4d4c46" d="M 35.5,56.5 C 35.4342,61.5058 34.4342,61.5058 32.5,56.5C 33.2334,55.913 34.2334,55.913 35.5,56.5 Z"/></g>
<g><path style="opacity:1" fill="#b8281e" d="M 18.5,59.5 C 18.9175,60.2216 19.5842,60.7216 20.5,61C 18.6161,61.2163 16.9494,61.883 15.5,63C 19.2519,63.2401 22.9186,63.7401 26.5,64.5C 26.5,64.8333 26.5,65.1667 26.5,65.5C 23.9768,66.3844 21.3102,67.2177 18.5,68C 15.1667,72.3333 11.8333,76.6667 8.5,81C 8.16667,81.1667 7.83333,81.3333 7.5,81.5C 6.54811,79.9547 6.21478,78.288 6.5,76.5C 9.25574,71.0541 11.5891,65.3874 13.5,59.5C 14.9733,58.9285 16.64,58.9285 18.5,59.5 Z"/></g>
<g><path style="opacity:1" fill="#434440" d="M 66.5,49.5 C 66.8333,49.5 67.1667,49.5 67.5,49.5C 67.3573,51.2624 67.6906,52.9291 68.5,54.5C 67.1851,56.3159 65.6851,57.9825 64,59.5C 63.8171,62.3647 63.3171,65.0314 62.5,67.5C 62.5,65.1667 62.5,62.8333 62.5,60.5C 61.5,60.5 60.5,60.5 59.5,60.5C 63.5367,58.1321 65.87,54.4655 66.5,49.5 Z"/></g>
<g><path style="opacity:1" fill="#732c22" d="M 18.5,59.5 C 22.2483,59.6944 24.915,61.361 26.5,64.5C 22.9186,63.7401 19.2519,63.2401 15.5,63C 16.9494,61.883 18.6161,61.2163 20.5,61C 19.5842,60.7216 18.9175,60.2216 18.5,59.5 Z"/></g>
<g><path style="opacity:1" fill="#cebaa4" d="M 34.5,62.5 C 36.2915,62.366 37.9582,62.6993 39.5,63.5C 41.1264,66.2457 41.7931,69.2457 41.5,72.5C 40.71,71.3915 40.21,70.0581 40,68.5C 39.6667,70.8333 39.3333,73.1667 39,75.5C 38.7586,72.7111 38.092,70.0444 37,67.5C 37.4922,70.319 37.3256,72.9856 36.5,75.5C 36.5402,72.5755 35.7068,69.9088 34,67.5C 34,69.5 34,71.5 34,73.5C 33.7216,72.5842 33.2216,71.9175 32.5,71.5C 31.5116,70.205 30.5116,68.8717 29.5,67.5C 29.3893,66.8826 29.056,66.3826 28.5,66C 30.4319,64.5415 32.4319,63.3748 34.5,62.5 Z"/></g>
<g><path style="opacity:1" fill="#93b613" d="M 41.5,60.5 C 44.285,62.3779 47.285,62.7112 50.5,61.5C 52.5,61.5 54.5,61.5 56.5,61.5C 51.9443,63.4417 46.9443,64.1083 41.5,63.5C 40.8333,63.5 40.1667,63.5 39.5,63.5C 39.2852,61.8212 39.9519,60.8212 41.5,60.5 Z"/></g>
<g><path style="opacity:1" fill="#cab7a4" d="M 90.5,62.5 C 91.404,63.209 91.7373,64.209 91.5,65.5C 89.3073,69.1031 86.3073,70.1031 82.5,68.5C 84.4817,68.0046 86.4817,67.5046 88.5,67C 86.9419,66.79 85.6085,66.29 84.5,65.5C 86.5,64.5 88.5,63.5 90.5,62.5 Z"/></g>
<g><path style="opacity:1" fill="#5e5d57" d="M 34.5,62.5 C 32.4319,63.3748 30.4319,64.5415 28.5,66C 29.056,66.3826 29.3893,66.8826 29.5,67.5C 28.8333,67.5 28.1667,67.5 27.5,67.5C 27.6716,66.5084 27.3382,65.8417 26.5,65.5C 26.5,65.1667 26.5,64.8333 26.5,64.5C 28.3002,63.5266 30.1335,62.5266 32,61.5C 32.6708,62.2524 33.5041,62.5858 34.5,62.5 Z"/></g>
<g><path style="opacity:1" fill="#327515" d="M 59.5,60.5 C 60.5,60.5 61.5,60.5 62.5,60.5C 62.5,62.8333 62.5,65.1667 62.5,67.5C 62.8205,72.6946 62.4872,77.6946 61.5,82.5C 61.5,77.8333 61.5,73.1667 61.5,68.5C 57.1667,67.1667 52.8333,67.1667 48.5,68.5C 46.7697,67.9744 45.4363,66.9744 44.5,65.5C 43.5,64.8333 42.5,64.1667 41.5,63.5C 46.9443,64.1083 51.9443,63.4417 56.5,61.5C 57.791,61.7373 58.791,61.404 59.5,60.5 Z"/></g>
<g><path style="opacity:1" fill="#72726e" d="M 64.5,64.5 C 65.7072,65.1888 67.0406,65.3554 68.5,65C 66.5059,69.8323 65.1726,69.6657 64.5,64.5 Z"/></g>
<g><path style="opacity:1" fill="#5c1f18" d="M 6.5,76.5 C 6.21478,78.288 6.54811,79.9547 7.5,81.5C 7.83333,81.3333 8.16667,81.1667 8.5,81C 11.8333,76.6667 15.1667,72.3333 18.5,68C 21.3102,67.2177 23.9768,66.3844 26.5,65.5C 27.3382,65.8417 27.6716,66.5084 27.5,67.5C 26.5,69.1667 25.1667,70.5 23.5,71.5C 22.7961,69.6558 21.4628,69.1558 19.5,70C 17.0439,72.4075 15.2106,75.2409 14,78.5C 11.961,80.8745 9.62772,82.8745 7,84.5C 6.50258,87.146 6.33591,89.8127 6.5,92.5C 5.16667,87.1667 5.16667,81.8333 6.5,76.5 Z"/></g>
<g><path style="opacity:1" fill="#4e4639" d="M 83.5,54.5 C 84.2328,58.1949 84.5661,61.8616 84.5,65.5C 85.6085,66.29 86.9419,66.79 88.5,67C 86.4817,67.5046 84.4817,68.0046 82.5,68.5C 82.81,65.2869 82.4767,62.2869 81.5,59.5C 82.1667,58.8333 82.8333,58.1667 83.5,57.5C 83.5,56.5 83.5,55.5 83.5,54.5 Z"/></g>
<g><path style="opacity:1" fill="#615935" d="M 39.5,63.5 C 40.1667,63.5 40.8333,63.5 41.5,63.5C 42.5,64.1667 43.5,64.8333 44.5,65.5C 43.7611,65.369 43.0944,65.5357 42.5,66C 42.8943,68.0599 42.8943,70.2266 42.5,72.5C 42.1667,72.5 41.8333,72.5 41.5,72.5C 41.7931,69.2457 41.1264,66.2457 39.5,63.5 Z"/></g>
<g><path style="opacity:1" fill="#9fbd14" d="M 48.5,68.5 C 52.8333,67.1667 57.1667,67.1667 61.5,68.5C 57.5483,69.2721 53.5483,69.6054 49.5,69.5C 49.5,68.8333 49.1667,68.5 48.5,68.5 Z"/></g>
<g><path style="opacity:1" fill="#6f3125" d="M 79.5,58.5 C 79.4088,60.6977 80.0755,61.0311 81.5,59.5C 79.7808,65.5944 79.1142,71.5944 79.5,77.5C 79.5,75.8333 79.5,74.1667 79.5,72.5C 78.0413,72.4326 76.7079,72.7659 75.5,73.5C 76.1495,71.5648 76.4828,69.5648 76.5,67.5C 76.1324,63.9557 77.1324,60.9557 79.5,58.5 Z"/></g>
<g><path style="opacity:1" fill="#cbb8a4" d="M 81.5,59.5 C 82.4767,62.2869 82.81,65.2869 82.5,68.5C 81.2801,70.0496 81.2801,71.7163 82.5,73.5C 82.5,75.1667 82.5,76.8333 82.5,78.5C 82.8432,80.4832 82.1765,81.8166 80.5,82.5C 79.7659,81.2921 79.4326,79.9587 79.5,78.5C 79.5,78.1667 79.5,77.8333 79.5,77.5C 79.1142,71.5944 79.7808,65.5944 81.5,59.5 Z"/></g>
<g><path style="opacity:1" fill="#bfb430" d="M 44.5,65.5 C 45.4363,66.9744 46.7697,67.9744 48.5,68.5C 49.1667,68.5 49.5,68.8333 49.5,69.5C 52.1526,74.1244 53.8193,79.1244 54.5,84.5C 52.5,84.5 50.5,84.5 48.5,84.5C 48.0667,79.6332 46.0667,75.6332 42.5,72.5C 42.8943,70.2266 42.8943,68.0599 42.5,66C 43.0944,65.5357 43.7611,65.369 44.5,65.5 Z"/></g>
<g><path style="opacity:1" fill="#3099d0" d="M 32.5,72.5 C 32.5569,73.609 32.8902,74.609 33.5,75.5C 33.5,76.8333 32.8333,77.5 31.5,77.5C 29.744,78.5521 29.0773,80.2188 29.5,82.5C 29.1667,83.1667 28.8333,83.8333 28.5,84.5C 27.8333,84.5 27.1667,84.5 26.5,84.5C 26.0392,79.1878 28.0392,75.1878 32.5,72.5 Z"/></g>
<g><path style="opacity:1" fill="#3f3e37" d="M 36.5,75.5 C 35.5,75.5 34.5,75.5 33.5,75.5C 32.8902,74.609 32.5569,73.609 32.5,72.5C 32.5,72.1667 32.5,71.8333 32.5,71.5C 33.2216,71.9175 33.7216,72.5842 34,73.5C 34,71.5 34,69.5 34,67.5C 35.7068,69.9088 36.5402,72.5755 36.5,75.5 Z"/></g>
<g><path style="opacity:1" fill="#979893" d="M 76.5,67.5 C 76.4828,69.5648 76.1495,71.5648 75.5,73.5C 75.3404,75.153 74.6737,76.4863 73.5,77.5C 72.3762,75.269 71.8762,72.9357 72,70.5C 72.3333,70.8333 72.6667,71.1667 73,71.5C 74.5501,70.4092 75.7168,69.0758 76.5,67.5 Z"/></g>
<g><path style="opacity:1" fill="#ad3023" d="M 79.5,77.5 C 79.5,77.8333 79.5,78.1667 79.5,78.5C 77.9519,78.8212 77.2852,79.8212 77.5,81.5C 76.596,82.209 76.2627,83.209 76.5,84.5C 76.6716,85.4916 76.3382,86.1583 75.5,86.5C 75.1788,84.9519 74.1788,84.2852 72.5,84.5C 72.1984,81.9407 72.5318,79.6074 73.5,77.5C 74.6737,76.4863 75.3404,75.153 75.5,73.5C 76.7079,72.7659 78.0413,72.4326 79.5,72.5C 79.5,74.1667 79.5,75.8333 79.5,77.5 Z"/></g>
<g><path style="opacity:1" fill="#615846" d="M 41.5,72.5 C 40.438,74.0992 40.438,75.7659 41.5,77.5C 39.6943,76.9759 38.0276,76.3092 36.5,75.5C 37.3256,72.9856 37.4922,70.319 37,67.5C 38.092,70.0444 38.7586,72.7111 39,75.5C 39.3333,73.1667 39.6667,70.8333 40,68.5C 40.21,70.0581 40.71,71.3915 41.5,72.5 Z"/></g>
<g><path style="opacity:1" fill="#397ea5" d="M 41.5,72.5 C 41.8333,72.5 42.1667,72.5 42.5,72.5C 46.0667,75.6332 48.0667,79.6332 48.5,84.5C 47.5206,87.6248 47.1872,90.9581 47.5,94.5C 47.5,95.1667 47.5,95.8333 47.5,96.5C 47.5,97.5 47.5,98.5 47.5,99.5C 47.5,100.167 47.5,100.833 47.5,101.5C 47.1667,101.5 46.8333,101.5 46.5,101.5C 46.8222,95.642 46.4889,89.9753 45.5,84.5C 44.6314,82.283 44.298,79.9496 44.5,77.5C 43.5,77.5 42.5,77.5 41.5,77.5C 40.438,75.7659 40.438,74.0992 41.5,72.5 Z"/></g>
<g><path style="opacity:1" fill="#45870e" d="M 61.5,68.5 C 61.5,73.1667 61.5,77.8333 61.5,82.5C 61.5,83.1667 61.5,83.8333 61.5,84.5C 61.1667,84.5 60.8333,84.5 60.5,84.5C 58.5,84.5 56.5,84.5 54.5,84.5C 53.8193,79.1244 52.1526,74.1244 49.5,69.5C 53.5483,69.6054 57.5483,69.2721 61.5,68.5 Z"/></g>
<g><path style="opacity:1" fill="#ec3724" d="M 48.5,75.5 C 50.337,75.6395 50.6704,76.3061 49.5,77.5C 48.7025,77.0431 48.3691,76.3764 48.5,75.5 Z"/></g>
<g><path style="opacity:1" fill="#8d8023" d="M 82.5,73.5 C 83.7079,74.2341 85.0413,74.5674 86.5,74.5C 86.762,75.9778 86.4287,77.3112 85.5,78.5C 84.4728,77.2086 83.4728,77.2086 82.5,78.5C 82.5,76.8333 82.5,75.1667 82.5,73.5 Z"/></g>
<g><path style="opacity:1" fill="#625647" d="M 91.5,65.5 C 91.8333,65.5 92.1667,65.5 92.5,65.5C 92.7845,67.4147 92.4511,69.0813 91.5,70.5C 91.6567,71.8734 91.49,73.2068 91,74.5C 87.2188,77.0371 86.0521,80.3704 87.5,84.5C 86.0267,83.9285 84.36,83.9285 82.5,84.5C 81.8333,83.8333 81.1667,83.1667 80.5,82.5C 82.1765,81.8166 82.8432,80.4832 82.5,78.5C 83.4728,77.2086 84.4728,77.2086 85.5,78.5C 86.4287,77.3112 86.762,75.9778 86.5,74.5C 85.0413,74.5674 83.7079,74.2341 82.5,73.5C 81.2801,71.7163 81.2801,70.0496 82.5,68.5C 86.3073,70.1031 89.3073,69.1031 91.5,65.5 Z"/></g>
<g><path style="opacity:1" fill="#ead1bd" d="M 91.5,70.5 C 88.5547,71.4675 85.5547,71.6342 82.5,71C 85.5706,70.8534 88.4039,70.0201 91,68.5C 91.4643,69.0944 91.631,69.7611 91.5,70.5 Z"/></g>
<g><path style="opacity:1" fill="#ad261b" d="M 92.5,65.5 C 94.2292,66.1175 95.7292,67.1175 97,68.5C 99.0869,71.0703 100.92,73.737 102.5,76.5C 102.664,79.1873 102.497,81.854 102,84.5C 99.3723,86.1255 97.039,88.1255 95,90.5C 93.7894,93.7591 91.9561,96.5925 89.5,99C 85.9957,101.476 84.6624,100.976 85.5,97.5C 85.8925,95.7162 86.5592,94.0495 87.5,92.5C 87.5,91.8333 87.5,91.1667 87.5,90.5C 88.8333,88.5 88.8333,86.5 87.5,84.5C 86.0521,80.3704 87.2188,77.0371 91,74.5C 91.49,73.2068 91.6567,71.8734 91.5,70.5C 92.4511,69.0813 92.7845,67.4147 92.5,65.5 Z"/></g>
<g><path style="opacity:1" fill="#8a4640" d="M 31.5,77.5 C 30.9759,79.3057 30.3092,80.9724 29.5,82.5C 29.0773,80.2188 29.744,78.5521 31.5,77.5 Z"/></g>
<g><path style="opacity:1" fill="#d5c610" d="M 33.5,75.5 C 34.5,75.5 35.5,75.5 36.5,75.5C 38.0276,76.3092 39.6943,76.9759 41.5,77.5C 42.5,77.5 43.5,77.5 44.5,77.5C 44.298,79.9496 44.6314,82.283 45.5,84.5C 44.8333,84.5 44.1667,84.5 43.5,84.5C 41.6644,77.0871 37.8311,75.7537 32,80.5C 31.51,81.7932 31.3433,83.1266 31.5,84.5C 30.5,84.5 29.5,84.5 28.5,84.5C 28.8333,83.8333 29.1667,83.1667 29.5,82.5C 30.3092,80.9724 30.9759,79.3057 31.5,77.5C 32.8333,77.5 33.5,76.8333 33.5,75.5 Z"/></g>
<g><path style="opacity:1" fill="#0b0b08" d="M 79.5,78.5 C 79.4326,79.9587 79.7659,81.2921 80.5,82.5C 79.391,82.4431 78.391,82.1098 77.5,81.5C 77.2852,79.8212 77.9519,78.8212 79.5,78.5 Z"/></g>
<g><path style="opacity:1" fill="#35352f" d="M 65.5,78.5 C 67.3675,79.7861 67.5342,81.1195 66,82.5C 65.51,81.2068 65.3433,79.8734 65.5,78.5 Z"/></g>
<g><path style="opacity:1" fill="#bbb836" d="M 27.5,67.5 C 28.1667,67.5 28.8333,67.5 29.5,67.5C 30.5116,68.8717 31.5116,70.205 32.5,71.5C 32.5,71.8333 32.5,72.1667 32.5,72.5C 28.0392,75.1878 26.0392,79.1878 26.5,84.5C 24.64,85.0715 22.9733,85.0715 21.5,84.5C 20.8529,83.7261 20.5195,82.7261 20.5,81.5C 21.1037,78.0244 22.1037,74.6911 23.5,71.5C 25.1667,70.5 26.5,69.1667 27.5,67.5 Z"/></g>
<g><path style="opacity:1" fill="#e54c1f" d="M 24.5,73.5 C 26.337,73.6395 26.6704,74.3061 25.5,75.5C 24.7025,75.0431 24.3691,74.3764 24.5,73.5 Z"/></g>
<g><path style="opacity:1" fill="#1b5d13" d="M 77.5,81.5 C 78.391,82.1098 79.391,82.4431 80.5,82.5C 81.1667,83.1667 81.8333,83.8333 82.5,84.5C 81.8333,84.5 81.1667,84.5 80.5,84.5C 79.5,84.5 78.5,84.5 77.5,84.5C 77.1667,84.5 76.8333,84.5 76.5,84.5C 76.2627,83.209 76.596,82.209 77.5,81.5 Z"/></g>
<g><path style="opacity:1" fill="#147210" d="M 26.5,84.5 C 27.1667,84.5 27.8333,84.5 28.5,84.5C 29.5,84.5 30.5,84.5 31.5,84.5C 31.5,85.5 31.5,86.5 31.5,87.5C 30.609,86.8902 29.609,86.5569 28.5,86.5C 27.8333,85.8333 27.1667,85.1667 26.5,84.5 Z"/></g>
<g><path style="opacity:1" fill="#b72b1e" d="M 43.5,84.5 C 42.8333,84.5 42.1667,84.5 41.5,84.5C 41.5,83.8333 41.5,83.1667 41.5,82.5C 38.6917,77.2612 36.025,77.2612 33.5,82.5C 32.9569,82.56 32.6236,82.8933 32.5,83.5C 33.325,84.3857 34.325,84.719 35.5,84.5C 35.81,87.7131 35.4767,90.7131 34.5,93.5C 33.5987,94.2905 32.9321,95.2905 32.5,96.5C 31.5,96.5 30.5,96.5 29.5,96.5C 29.5,94.8333 29.5,93.1667 29.5,91.5C 29.5,91.1667 29.5,90.8333 29.5,90.5C 31.0481,90.1788 31.7148,89.1788 31.5,87.5C 31.5,86.5 31.5,85.5 31.5,84.5C 31.3433,83.1266 31.51,81.7932 32,80.5C 37.8311,75.7537 41.6644,77.0871 43.5,84.5 Z"/></g>
<g><path style="opacity:1" fill="#b0c149" d="M 41.5,82.5 C 41.5,83.1667 41.5,83.8333 41.5,84.5C 39.5,84.5 37.5,84.5 35.5,84.5C 34.325,84.719 33.325,84.3857 32.5,83.5C 32.6236,82.8933 32.9569,82.56 33.5,82.5C 35.9003,83.9272 36.567,83.4272 35.5,81C 36.448,80.5172 37.448,80.3505 38.5,80.5C 38.3505,81.552 38.5172,82.552 39,83.5C 39.6708,82.7476 40.5041,82.4142 41.5,82.5 Z"/></g>
<g><path style="opacity:1" fill="#4399bc" d="M 41.5,82.5 C 40.5041,82.4142 39.6708,82.7476 39,83.5C 38.5172,82.552 38.3505,81.552 38.5,80.5C 37.448,80.3505 36.448,80.5172 35.5,81C 36.567,83.4272 35.9003,83.9272 33.5,82.5C 36.025,77.2612 38.6917,77.2612 41.5,82.5 Z"/></g>
<g><path style="opacity:1" fill="#f2f3f1" d="M 35.5,84.5 C 37.5,84.5 39.5,84.5 41.5,84.5C 42.1667,84.5 42.8333,84.5 43.5,84.5C 44.1667,84.5 44.8333,84.5 45.5,84.5C 46.4889,89.9753 46.8222,95.642 46.5,101.5C 45.6829,103.969 45.1829,106.635 45,109.5C 43.3149,111.017 41.8149,112.684 40.5,114.5C 41.3094,116.071 41.6427,117.738 41.5,119.5C 39.7839,119.629 38.1172,119.962 36.5,120.5C 36.2786,119.265 35.6119,118.265 34.5,117.5C 35.6034,117.002 36.6034,116.669 37.5,116.5C 37,115.5 36.5,114.5 36,113.5C 31.8805,117.6 29.7138,116.6 29.5,110.5C 30.265,109.34 31.265,108.34 32.5,107.5C 33.086,107.709 33.586,108.043 34,108.5C 33.8574,106.115 33.3574,103.781 32.5,101.5C 33.3019,100.048 33.8019,98.3817 34,96.5C 34.3333,97.1667 34.6667,97.8333 35,98.5C 35.6667,97.1667 36.3333,97.1667 37,98.5C 37.7805,97.0563 37.6139,95.723 36.5,94.5C 35.056,95.981 34.3894,95.6477 34.5,93.5C 35.4767,90.7131 35.81,87.7131 35.5,84.5 Z"/></g>
<g><path style="opacity:1" fill="#1e95cc" d="M 60.5,84.5 C 60.8333,84.5 61.1667,84.5 61.5,84.5C 62.1667,84.8333 62.8333,85.1667 63.5,85.5C 64.4614,87.2646 64.7947,89.2646 64.5,91.5C 65.791,91.2627 66.791,91.596 67.5,92.5C 68.8333,93.8333 68.8333,95.1667 67.5,96.5C 67.1667,96.5 66.8333,96.5 66.5,96.5C 62.9333,93.3668 60.9333,89.3668 60.5,84.5 Z"/></g>
<g><path style="opacity:1" fill="#2b98ce" d="M 80.5,84.5 C 81.1667,84.5 81.8333,84.5 82.5,84.5C 82.9608,89.8122 80.9608,93.8122 76.5,96.5C 75.8902,95.609 75.5569,94.609 75.5,93.5C 75.5,92.1667 76.1667,91.5 77.5,91.5C 79.256,90.4479 79.9227,88.7812 79.5,86.5C 79.8333,85.8333 80.1667,85.1667 80.5,84.5 Z"/></g>
<g><path style="opacity:1" fill="#5b1e18" d="M 102.5,92.5 C 102.662,90.4727 102.495,88.4727 102,86.5C 97.8056,91.0603 93.9723,95.8936 90.5,101C 87.6898,101.782 85.0232,102.616 82.5,103.5C 81.6618,103.158 81.3284,102.492 81.5,101.5C 82.5,99.8333 83.8333,98.5 85.5,97.5C 84.6624,100.976 85.9957,101.476 89.5,99C 91.9561,96.5925 93.7894,93.7591 95,90.5C 97.039,88.1255 99.3723,86.1255 102,84.5C 102.497,81.854 102.664,79.1873 102.5,76.5C 103.833,81.8333 103.833,87.1667 102.5,92.5 Z"/></g>
<g><path style="opacity:1" fill="#ae271c" d="M 23.5,71.5 C 22.1037,74.6911 21.1037,78.0244 20.5,81.5C 20.5195,82.7261 20.8529,83.7261 21.5,84.5C 21.6775,85.6948 22.0109,86.8615 22.5,88C 21.6607,89.984 20.6607,91.8174 19.5,93.5C 17.7868,94.6354 17.1201,96.302 17.5,98.5C 16.5489,99.9187 16.2155,101.585 16.5,103.5C 14.7708,102.883 13.2708,101.883 12,100.5C 9.91313,97.9297 8.0798,95.263 6.5,92.5C 6.33591,89.8127 6.50258,87.146 7,84.5C 9.62772,82.8745 11.961,80.8745 14,78.5C 15.2106,75.2409 17.0439,72.4075 19.5,70C 21.4628,69.1558 22.7961,69.6558 23.5,71.5 Z"/></g>
<g><path style="opacity:1" fill="#8a4640" d="M 79.5,86.5 C 79.9227,88.7812 79.256,90.4479 77.5,91.5C 78.0241,89.6943 78.6908,88.0276 79.5,86.5 Z"/></g>
<g><path style="opacity:1" fill="#0f0e0c" d="M 28.5,86.5 C 29.609,86.5569 30.609,86.8902 31.5,87.5C 31.7148,89.1788 31.0481,90.1788 29.5,90.5C 29.5674,89.0413 29.2341,87.7079 28.5,86.5 Z"/></g>
<g><path style="opacity:1" fill="#373833" d="M 42.5,86.5 C 43.5983,87.6009 43.765,88.9343 43,90.5C 41.6658,89.1221 41.4991,87.7887 42.5,86.5 Z"/></g>
<g><path style="opacity:1" fill="#b4271e" d="M 102.5,92.5 C 101.255,96.0709 99.4212,99.4042 97,102.5C 96.7096,104.92 96.2096,107.254 95.5,109.5C 94.0267,110.071 92.36,110.071 90.5,109.5C 87.5664,108.361 84.8997,106.694 82.5,104.5C 82.5,104.167 82.5,103.833 82.5,103.5C 85.0232,102.616 87.6898,101.782 90.5,101C 93.9723,95.8936 97.8056,91.0603 102,86.5C 102.495,88.4727 102.662,90.4727 102.5,92.5 Z"/></g>
<g><path style="opacity:1" fill="#40331d" d="M 21.5,84.5 C 22.9733,85.0715 24.64,85.0715 26.5,84.5C 27.1667,85.1667 27.8333,85.8333 28.5,86.5C 26.8235,87.1834 26.1568,88.5168 26.5,90.5C 25.5272,91.7914 24.5272,91.7914 23.5,90.5C 22.7189,91.7287 22.2189,93.062 22,94.5C 21.6582,92.3808 20.8249,92.0474 19.5,93.5C 20.6607,91.8174 21.6607,89.984 22.5,88C 22.0109,86.8615 21.6775,85.6948 21.5,84.5 Z"/></g>
<g><path style="opacity:1" fill="#b5b730" d="M 54.5,84.5 C 56.5,84.5 58.5,84.5 60.5,84.5C 60.9333,89.3668 62.9333,93.3668 66.5,96.5C 66.1667,97.1667 65.8333,97.8333 65.5,98.5C 63.6469,97.3857 63.1469,98.0524 64,100.5C 64.3826,99.944 64.8826,99.6107 65.5,99.5C 66.1667,100.5 66.8333,101.5 67.5,102.5C 67.5,103.167 67.5,103.833 67.5,104.5C 66.0267,103.928 64.6934,103.095 63.5,102C 58.1771,101.501 52.8437,101.334 47.5,101.5C 47.5,100.833 47.5,100.167 47.5,99.5C 51.5546,99.8242 55.5546,99.4909 59.5,98.5C 58.4793,97.0986 57.4793,95.7653 56.5,94.5C 55.9604,91.1353 55.2937,87.802 54.5,84.5 Z"/></g>
<g><path style="opacity:1" fill="#3a840e" d="M 48.5,84.5 C 50.5,84.5 52.5,84.5 54.5,84.5C 55.2937,87.802 55.9604,91.1353 56.5,94.5C 53.5,95.8333 50.5,95.8333 47.5,94.5C 47.1872,90.9581 47.5206,87.6248 48.5,84.5 Z"/></g>
<g><path style="opacity:1" fill="#ccbb13" d="M 63.5,85.5 C 63.8417,84.6618 64.5084,84.3284 65.5,84.5C 67.411,91.905 71.2443,93.2383 77,88.5C 77.49,87.2068 77.6567,85.8734 77.5,84.5C 78.5,84.5 79.5,84.5 80.5,84.5C 80.1667,85.1667 79.8333,85.8333 79.5,86.5C 78.6908,88.0276 78.0241,89.6943 77.5,91.5C 76.1667,91.5 75.5,92.1667 75.5,93.5C 74.5,93.5 73.5,93.5 72.5,93.5C 71.0813,92.5489 69.4147,92.2155 67.5,92.5C 66.791,91.596 65.791,91.2627 64.5,91.5C 64.7947,89.2646 64.4614,87.2646 63.5,85.5 Z"/></g>
<g><path style="opacity:1" fill="#d63f25" d="M 65.5,84.5 C 66.9999,86.2216 68.6666,87.8883 70.5,89.5C 71.5,89.5 72.5,89.5 73.5,89.5C 74.9063,89.0269 75.573,88.0269 75.5,86.5C 76.3382,86.1583 76.6716,85.4916 76.5,84.5C 76.8333,84.5 77.1667,84.5 77.5,84.5C 77.6567,85.8734 77.49,87.2068 77,88.5C 71.2443,93.2383 67.411,91.905 65.5,84.5 Z"/></g>
<g><path style="opacity:1" fill="#139ad3" d="M 75.5,86.5 C 75.573,88.0269 74.9063,89.0269 73.5,89.5C 73.4606,88.4168 73.1272,87.4168 72.5,86.5C 73.4246,85.4376 74.4246,85.4376 75.5,86.5 Z"/></g>
<g><path style="opacity:1" fill="#becc36" d="M 72.5,84.5 C 74.1788,84.2852 75.1788,84.9519 75.5,86.5C 74.4246,85.4376 73.4246,85.4376 72.5,86.5C 73.1272,87.4168 73.4606,88.4168 73.5,89.5C 72.5,89.5 71.5,89.5 70.5,89.5C 70.7733,87.549 70.1066,86.049 68.5,85C 69.7932,84.51 71.1266,84.3433 72.5,84.5 Z"/></g>
<g><path style="opacity:1" fill="#b4ba3b" d="M 87.5,84.5 C 88.8333,86.5 88.8333,88.5 87.5,90.5C 87.7051,88.8627 87.2051,87.196 86,85.5C 84.6485,87.5938 84.1485,89.9272 84.5,92.5C 85.5,92.5 86.5,92.5 87.5,92.5C 86.5592,94.0495 85.8925,95.7162 85.5,97.5C 83.8333,98.5 82.5,99.8333 81.5,101.5C 80.8333,101.5 80.1667,101.5 79.5,101.5C 78.2485,99.9991 77.2485,98.3325 76.5,96.5C 80.9608,93.8122 82.9608,89.8122 82.5,84.5C 84.36,83.9285 86.0267,83.9285 87.5,84.5 Z"/></g>
<g><path style="opacity:1" fill="#dca51b" d="M 87.5,90.5 C 87.5,91.1667 87.5,91.8333 87.5,92.5C 86.5,92.5 85.5,92.5 84.5,92.5C 84.1485,89.9272 84.6485,87.5938 86,85.5C 87.2051,87.196 87.7051,88.8627 87.5,90.5 Z"/></g>
<g><path style="opacity:1" fill="#a3924d" d="M 26.5,90.5 C 26.5,92.1667 26.5,93.8333 26.5,95.5C 23.9327,95.7215 21.5994,96.3882 19.5,97.5C 19.5,96.1667 19.5,94.8333 19.5,93.5C 20.8249,92.0474 21.6582,92.3808 22,94.5C 22.2189,93.062 22.7189,91.7287 23.5,90.5C 24.5272,91.7914 25.5272,91.7914 26.5,90.5 Z"/></g>
<g><path style="opacity:1" fill="#ec3724" d="M 82.5,93.5 C 84.337,93.6395 84.6704,94.3061 83.5,95.5C 82.7025,95.0431 82.3691,94.3764 82.5,93.5 Z"/></g>
<g><path style="opacity:1" fill="#8b8d87" d="M 34.5,93.5 C 34.3894,95.6477 35.056,95.981 36.5,94.5C 37.6139,95.723 37.7805,97.0563 37,98.5C 36.3333,97.1667 35.6667,97.1667 35,98.5C 34.6667,97.8333 34.3333,97.1667 34,96.5C 33.8019,98.3817 33.3019,100.048 32.5,101.5C 32.5,99.8333 32.5,98.1667 32.5,96.5C 32.9321,95.2905 33.5987,94.2905 34.5,93.5 Z"/></g>
<g><path style="opacity:1" fill="#aac113" d="M 47.5,94.5 C 50.5,95.8333 53.5,95.8333 56.5,94.5C 56.6309,95.3764 56.2975,96.0431 55.5,96.5C 53.0134,96.2176 50.3467,96.2176 47.5,96.5C 47.5,95.8333 47.5,95.1667 47.5,94.5 Z"/></g>
<g><path style="opacity:1" fill="#3b3732" d="M 19.5,93.5 C 19.5,94.8333 19.5,96.1667 19.5,97.5C 19.1583,98.3382 18.4916,98.6716 17.5,98.5C 17.1201,96.302 17.7868,94.6354 19.5,93.5 Z"/></g>
<g><path style="opacity:1" fill="#1e730d" d="M 56.5,94.5 C 57.4793,95.7653 58.4793,97.0986 59.5,98.5C 55.5546,99.4909 51.5546,99.8242 47.5,99.5C 47.5,98.5 47.5,97.5 47.5,96.5C 50.3467,96.2176 53.0134,96.2176 55.5,96.5C 56.2975,96.0431 56.6309,95.3764 56.5,94.5 Z"/></g>
<g><path style="opacity:1" fill="#544f44" d="M 67.5,92.5 C 69.4147,92.2155 71.0813,92.5489 72.5,93.5C 71.6981,94.9516 71.1981,96.6183 71,98.5C 70.6667,96.8333 70.3333,95.1667 70,93.5C 69.6667,95.8333 69.3333,98.1667 69,100.5C 68.79,98.9419 68.29,97.6085 67.5,96.5C 68.8333,95.1667 68.8333,93.8333 67.5,92.5 Z"/></g>
<g><path style="opacity:1" fill="#58554e" d="M 26.5,95.5 C 27.7199,97.2837 27.7199,98.9504 26.5,100.5C 22.6927,98.8969 19.6927,99.8969 17.5,103.5C 17.1667,103.5 16.8333,103.5 16.5,103.5C 16.2155,101.585 16.5489,99.9187 17.5,98.5C 17.369,99.2389 17.5357,99.9056 18,100.5C 20.5961,98.9799 23.4294,98.1466 26.5,98C 24.1902,97.5034 21.8568,97.3367 19.5,97.5C 21.5994,96.3882 23.9327,95.7215 26.5,95.5 Z"/></g>
<g><path style="opacity:1" fill="#5f5c3a" d="M 66.5,96.5 C 66.8333,96.5 67.1667,96.5 67.5,96.5C 67.5,98.5 67.5,100.5 67.5,102.5C 66.8333,101.5 66.1667,100.5 65.5,99.5C 65.5,99.1667 65.5,98.8333 65.5,98.5C 65.8333,97.8333 66.1667,97.1667 66.5,96.5 Z"/></g>
<g><path style="opacity:1" fill="#ebd2be" d="M 19.5,97.5 C 21.8568,97.3367 24.1902,97.5034 26.5,98C 23.4294,98.1466 20.5961,98.9799 18,100.5C 17.5357,99.9056 17.369,99.2389 17.5,98.5C 18.4916,98.6716 19.1583,98.3382 19.5,97.5 Z"/></g>
<g><path style="opacity:1" fill="#e65e20" d="M 65.5,98.5 C 65.5,98.8333 65.5,99.1667 65.5,99.5C 64.8826,99.6107 64.3826,99.944 64,100.5C 63.1469,98.0524 63.6469,97.3857 65.5,98.5 Z"/></g>
<g><path style="opacity:1" fill="#d8c2ad" d="M 28.5,86.5 C 29.2341,87.7079 29.5674,89.0413 29.5,90.5C 29.5,90.8333 29.5,91.1667 29.5,91.5C 29.8858,97.4056 29.2192,103.406 27.5,109.5C 26.5233,106.713 26.19,103.713 26.5,100.5C 27.7199,98.9504 27.7199,97.2837 26.5,95.5C 26.5,93.8333 26.5,92.1667 26.5,90.5C 26.1568,88.5168 26.8235,87.1834 28.5,86.5 Z"/></g>
<g><path style="opacity:1" fill="#544a3b" d="M 26.5,100.5 C 26.19,103.713 26.5233,106.713 27.5,109.5C 26.8333,110.167 26.1667,110.833 25.5,111.5C 25.5,112.5 25.5,113.5 25.5,114.5C 24.7672,110.805 24.4339,107.138 24.5,103.5C 23.3915,102.71 22.0581,102.21 20.5,102C 22.4357,101.187 24.4357,100.687 26.5,100.5 Z"/></g>
<g><path style="opacity:1" fill="#1e7708" d="M 46.5,101.5 C 46.8333,101.5 47.1667,101.5 47.5,101.5C 52.8437,101.334 58.1771,101.501 63.5,102C 64.6934,103.095 66.0267,103.928 67.5,104.5C 67.5,104.833 67.5,105.167 67.5,105.5C 63.4454,105.176 59.4454,105.509 55.5,106.5C 56.325,107.386 57.325,107.719 58.5,107.5C 57.8333,109.167 57.1667,110.833 56.5,112.5C 55.8333,111.833 55.1667,111.167 54.5,110.5C 53.8333,109.5 53.1667,108.5 52.5,107.5C 53.3764,107.631 54.0431,107.298 54.5,106.5C 51.9135,105.52 49.2469,105.187 46.5,105.5C 46.5,104.167 46.5,102.833 46.5,101.5 Z"/></g>
<g><path style="opacity:1" fill="#bba995" d="M 72.5,93.5 C 73.5,93.5 74.5,93.5 75.5,93.5C 75.5569,94.609 75.8902,95.609 76.5,96.5C 77.2485,98.3325 78.2485,99.9991 79.5,101.5C 79.6107,102.117 79.944,102.617 80.5,103C 78.5681,104.459 76.5681,105.625 74.5,106.5C 72.7085,106.634 71.0418,106.301 69.5,105.5C 69.0679,104.29 68.4013,103.29 67.5,102.5C 67.5,100.5 67.5,98.5 67.5,96.5C 68.29,97.6085 68.79,98.9419 69,100.5C 69.3333,98.1667 69.6667,95.8333 70,93.5C 70.3333,95.1667 70.6667,96.8333 71,98.5C 71.1981,96.6183 71.6981,94.9516 72.5,93.5 Z"/></g>
<g><path style="opacity:1" fill="#53524f" d="M 42.5,100.5 C 44.0986,101.799 44.5986,103.465 44,105.5C 43.5,104.333 42.6667,103.5 41.5,103C 42.2524,102.329 42.5858,101.496 42.5,100.5 Z"/></g>
<g><path style="opacity:1" fill="#4a4a44" d="M 79.5,101.5 C 80.1667,101.5 80.8333,101.5 81.5,101.5C 81.3284,102.492 81.6618,103.158 82.5,103.5C 82.5,103.833 82.5,104.167 82.5,104.5C 80.7352,105.794 78.9018,106.794 77,107.5C 76.3292,106.748 75.4959,106.414 74.5,106.5C 76.5681,105.625 78.5681,104.459 80.5,103C 79.944,102.617 79.6107,102.117 79.5,101.5 Z"/></g>
<g><path style="opacity:1" fill="#b1a18f" d="M 26.5,100.5 C 24.4357,100.687 22.4357,101.187 20.5,102C 22.0581,102.21 23.3915,102.71 24.5,103.5C 23.5041,103.414 22.6708,103.748 22,104.5C 21.8091,106.708 21.3091,108.708 20.5,110.5C 19.1989,108.328 18.1989,105.995 17.5,103.5C 19.6927,99.8969 22.6927,98.8969 26.5,100.5 Z"/></g>
<g><path style="opacity:1" fill="#323225" d="M 67.5,102.5 C 68.4013,103.29 69.0679,104.29 69.5,105.5C 68.8333,105.5 68.1667,105.5 67.5,105.5C 67.5,105.167 67.5,104.833 67.5,104.5C 67.5,103.833 67.5,103.167 67.5,102.5 Z"/></g>
<g><path style="opacity:1" fill="#89b212" d="M 46.5,105.5 C 49.2469,105.187 51.9135,105.52 54.5,106.5C 54.0431,107.298 53.3764,107.631 52.5,107.5C 51.209,107.263 50.209,107.596 49.5,108.5C 48.5,108.5 47.5,108.5 46.5,108.5C 46.5,107.5 46.5,106.5 46.5,105.5 Z"/></g>
<g><path style="opacity:1" fill="#ebecea" d="M 82.5,104.5 C 83.7968,108.158 86.4635,109.824 90.5,109.5C 92.3818,110.237 93.0485,111.404 92.5,113C 90.2707,115.4 87.9374,117.567 85.5,119.5C 84.0222,119.762 82.6888,119.429 81.5,118.5C 83.85,117.226 83.6833,115.893 81,114.5C 80.7811,115.938 80.2811,117.271 79.5,118.5C 78.3777,117.37 77.0443,116.703 75.5,116.5C 74.3775,114.482 74.3775,112.482 75.5,110.5C 75.1924,109.692 74.6924,109.025 74,108.5C 72.7808,113.509 71.9475,113.176 71.5,107.5C 72.791,107.737 73.791,107.404 74.5,106.5C 75.4959,106.414 76.3292,106.748 77,107.5C 78.9018,106.794 80.7352,105.794 82.5,104.5 Z"/></g>
<g><path style="opacity:1" fill="#6f3e32" d="M 29.5,91.5 C 29.5,93.1667 29.5,94.8333 29.5,96.5C 30.5,96.5 31.5,96.5 32.5,96.5C 32.5,98.1667 32.5,99.8333 32.5,101.5C 33.3574,103.781 33.8574,106.115 34,108.5C 33.586,108.043 33.086,107.709 32.5,107.5C 31.265,108.34 30.265,109.34 29.5,110.5C 29.5912,108.302 28.9245,107.969 27.5,109.5C 29.2192,103.406 29.8858,97.4056 29.5,91.5 Z"/></g>
<g><path style="opacity:1" fill="#95b813" d="M 67.5,105.5 C 68.1667,105.5 68.8333,105.5 69.5,105.5C 69.7148,107.179 69.0481,108.179 67.5,108.5C 64.715,106.622 61.715,106.289 58.5,107.5C 57.325,107.719 56.325,107.386 55.5,106.5C 59.4454,105.509 63.4454,105.176 67.5,105.5 Z"/></g>
<g><path style="opacity:1" fill="#574e48" d="M 82.5,104.5 C 84.8997,106.694 87.5664,108.361 90.5,109.5C 86.4635,109.824 83.7968,108.158 82.5,104.5 Z"/></g>
<g><path style="opacity:1" fill="#c3c5bd" d="M 67.5,108.5 C 68.209,109.404 69.209,109.737 70.5,109.5C 70.7162,112.256 71.7162,114.59 73.5,116.5C 72.1667,117.5 70.8333,118.5 69.5,119.5C 69.7056,115.641 67.7056,112.975 63.5,111.5C 62.6143,110.675 62.281,109.675 62.5,108.5C 61.448,108.351 60.448,108.517 59.5,109C 59.8333,109.333 60.1667,109.667 60.5,110C 59.1509,110.772 58.3176,111.939 58,113.5C 57.6174,112.944 57.1174,112.611 56.5,112.5C 57.1667,110.833 57.8333,109.167 58.5,107.5C 61.715,106.289 64.715,106.622 67.5,108.5 Z"/></g>
<g><path style="opacity:1" fill="#ab241d" d="M 29.5,110.5 C 28.596,111.209 28.2627,112.209 28.5,113.5C 27.5,112.833 26.5,112.167 25.5,111.5C 26.1667,110.833 26.8333,110.167 27.5,109.5C 28.9245,107.969 29.5912,108.302 29.5,110.5 Z"/></g>
<g><path style="opacity:1" fill="#f5f6f4" d="M 69.5,119.5 C 66.8001,120.2 65.1334,121.866 64.5,124.5C 62.4605,122.391 60.2938,120.391 58,118.5C 57.3292,119.252 56.4959,119.586 55.5,119.5C 55.3601,117.876 56.0267,116.71 57.5,116C 56.6634,114.989 56.33,113.822 56.5,112.5C 57.1174,112.611 57.6174,112.944 58,113.5C 58.3176,111.939 59.1509,110.772 60.5,110C 60.1667,109.667 59.8333,109.333 59.5,109C 60.448,108.517 61.448,108.351 62.5,108.5C 62.281,109.675 62.6143,110.675 63.5,111.5C 67.7056,112.975 69.7056,115.641 69.5,119.5 Z"/></g>
<g><path style="opacity:1" fill="#575852" d="M 46.5,101.5 C 46.5,102.833 46.5,104.167 46.5,105.5C 46.5,106.5 46.5,107.5 46.5,108.5C 47.5,108.5 48.5,108.5 49.5,108.5C 45.4633,110.868 43.13,114.535 42.5,119.5C 42.1667,119.5 41.8333,119.5 41.5,119.5C 41.6427,117.738 41.3094,116.071 40.5,114.5C 41.8149,112.684 43.3149,111.017 45,109.5C 45.1829,106.635 45.6829,103.969 46.5,101.5 Z"/></g>
<g><path style="opacity:1" fill="#e6e7e3" d="M 52.5,107.5 C 53.1667,108.5 53.8333,109.5 54.5,110.5C 55.0242,114.428 54.0242,117.761 51.5,120.5C 48.6085,119.597 45.6085,119.264 42.5,119.5C 43.13,114.535 45.4633,110.868 49.5,108.5C 50.209,107.596 51.209,107.263 52.5,107.5 Z"/></g>
<g><path style="opacity:1" fill="#5c5c54" d="M 69.5,105.5 C 71.0418,106.301 72.7085,106.634 74.5,106.5C 73.791,107.404 72.791,107.737 71.5,107.5C 71.9475,113.176 72.7808,113.509 74,108.5C 74.6924,109.025 75.1924,109.692 75.5,110.5C 74.3775,112.482 74.3775,114.482 75.5,116.5C 74.8333,116.5 74.1667,116.5 73.5,116.5C 71.7162,114.59 70.7162,112.256 70.5,109.5C 69.209,109.737 68.209,109.404 67.5,108.5C 69.0481,108.179 69.7148,107.179 69.5,105.5 Z"/></g>
<g><path style="opacity:1" fill="#bfb43a" d="M 24.5,103.5 C 24.4339,107.138 24.7672,110.805 25.5,114.5C 25.6567,115.873 25.49,117.207 25,118.5C 23.2242,113.535 23.0576,108.535 24.5,103.5 Z"/></g>
<g><path style="opacity:1" fill="#57564f" d="M 29.5,110.5 C 29.7138,116.6 31.8805,117.6 36,113.5C 36.5,114.5 37,115.5 37.5,116.5C 36.6034,116.669 35.6034,117.002 34.5,117.5C 35.6119,118.265 36.2786,119.265 36.5,120.5C 35.8333,120.167 35.1667,119.833 34.5,119.5C 31.5,118.5 29.5,116.5 28.5,113.5C 28.2627,112.209 28.596,111.209 29.5,110.5 Z"/></g>
<g><path style="opacity:1" fill="#4d4c48" d="M 90.5,109.5 C 92.36,110.071 94.0267,110.071 95.5,109.5C 93.7981,114.535 90.4648,117.869 85.5,119.5C 87.9374,117.567 90.2707,115.4 92.5,113C 93.0485,111.404 92.3818,110.237 90.5,109.5 Z"/></g>
<g><path style="opacity:1" fill="#64521c" d="M 85.5,119.5 C 83.381,122.111 80.7143,123.778 77.5,124.5C 75.2364,131.601 72.9031,138.768 70.5,146C 71.1476,147.44 71.4809,148.94 71.5,150.5C 69.4727,150.662 67.4727,150.495 65.5,150C 66.7736,149.023 66.7736,148.189 65.5,147.5C 64.4324,146.566 63.099,146.232 61.5,146.5C 61.5,145.167 61.5,143.833 61.5,142.5C 61.5,141.5 61.5,140.5 61.5,139.5C 64.6704,138.208 65.0038,136.542 62.5,134.5C 64.7808,131.394 65.4475,128.061 64.5,124.5C 65.1334,121.866 66.8001,120.2 69.5,119.5C 70.8333,118.5 72.1667,117.5 73.5,116.5C 74.1667,116.5 74.8333,116.5 75.5,116.5C 77.0443,116.703 78.3777,117.37 79.5,118.5C 80.2811,117.271 80.7811,115.938 81,114.5C 83.6833,115.893 83.85,117.226 81.5,118.5C 82.6888,119.429 84.0222,119.762 85.5,119.5 Z"/></g>
<g><path style="opacity:1" fill="#5f512a" d="M 54.5,110.5 C 55.1667,111.167 55.8333,111.833 56.5,112.5C 56.33,113.822 56.6634,114.989 57.5,116C 56.0267,116.71 55.3601,117.876 55.5,119.5C 54.375,120.652 54.375,121.652 55.5,122.5C 51.7352,126.736 50.4019,126.07 51.5,120.5C 54.0242,117.761 55.0242,114.428 54.5,110.5 Z"/></g>
<g><path style="opacity:1" fill="#dcd441" d="M 24.5,122.5 C 23.2264,124.993 22.5597,127.659 22.5,130.5C 21.5823,126.917 21.9157,123.25 23.5,119.5C 24.3857,120.325 24.719,121.325 24.5,122.5 Z"/></g>
<g><path style="opacity:1" fill="#ddc7b1" d="M 64.5,124.5 C 65.4475,128.061 64.7808,131.394 62.5,134.5C 65.0038,136.542 64.6704,138.208 61.5,139.5C 58.3935,139.476 55.7269,139.809 53.5,140.5C 54.6168,144.792 57.2834,145.459 61.5,142.5C 61.5,143.833 61.5,145.167 61.5,146.5C 56.5,146.5 51.5,146.5 46.5,146.5C 46.5,144.833 46.5,143.167 46.5,141.5C 48.1238,141.36 49.2904,142.027 50,143.5C 51.79,138.794 51.9567,137.46 50.5,139.5C 49.1779,139.33 48.0113,139.663 47,140.5C 46.5065,138.866 46.3398,137.199 46.5,135.5C 47.8725,130.329 49.0392,130.329 50,135.5C 52.7641,133.2 55.9307,131.533 59.5,130.5C 55.8927,129.511 52.226,129.177 48.5,129.5C 48.4326,128.041 48.7659,126.708 49.5,125.5C 52.5307,125.803 55.5307,125.803 58.5,125.5C 58.8333,125.333 59.1667,125.167 59.5,125C 58.5291,123.519 57.1958,122.685 55.5,122.5C 54.375,121.652 54.375,120.652 55.5,119.5C 56.4959,119.586 57.3292,119.252 58,118.5C 60.2938,120.391 62.4605,122.391 64.5,124.5 Z"/></g>
<g><path style="opacity:1" fill="#6c5828" d="M 24.5,103.5 C 23.0576,108.535 23.2242,113.535 25,118.5C 25.49,117.207 25.6567,115.873 25.5,114.5C 28.1236,117.656 27.7903,120.322 24.5,122.5C 24.719,121.325 24.3857,120.325 23.5,119.5C 21.9157,123.25 21.5823,126.917 22.5,130.5C 21.6214,136.398 21.2881,142.232 21.5,148C 26.9057,150.022 26.5723,151.522 20.5,152.5C 21.5225,154.895 20.5225,155.895 17.5,155.5C 17.6567,154.127 17.49,152.793 17,151.5C 15.1745,152.571 14.0079,151.904 13.5,149.5C 13.8333,148.5 14.5,147.833 15.5,147.5C 16.6086,148.59 17.6086,148.59 18.5,147.5C 18.0149,142.079 18.0149,136.579 18.5,131C 18.4323,126.648 17.7656,122.481 16.5,118.5C 18.3929,116.048 19.7263,113.381 20.5,110.5C 21.3091,108.708 21.8091,106.708 22,104.5C 22.6708,103.748 23.5041,103.414 24.5,103.5 Z"/></g>
<g><path style="opacity:1" fill="#b9aa14" d="M 19.5,118.5 C 20.8799,118.962 21.5466,119.962 21.5,121.5C 20.8179,125.138 20.3179,128.805 20,132.5C 19.5008,127.845 19.3342,123.179 19.5,118.5 Z"/></g>
<g><path style="opacity:1" fill="#5a491b" d="M 49.5,125.5 C 48.7659,126.708 48.4326,128.041 48.5,129.5C 52.226,129.177 55.8927,129.511 59.5,130.5C 55.9307,131.533 52.7641,133.2 50,135.5C 49.0392,130.329 47.8725,130.329 46.5,135.5C 45.5233,138.287 45.19,141.287 45.5,144.5C 44.8333,144.5 44.5,144.167 44.5,143.5C 44.6655,139.486 44.4988,135.486 44,131.5C 41.1726,129.746 41.0059,127.912 43.5,126C 40.8953,124.069 40.8953,122.236 43.5,120.5C 44.7376,124.311 45.4042,124.311 45.5,120.5C 48.4701,120.746 49.8034,122.412 49.5,125.5 Z"/></g>
<g><path style="opacity:1" fill="#85772b" d="M 34.5,119.5 C 35.1667,119.833 35.8333,120.167 36.5,120.5C 38.1172,119.962 39.7839,119.629 41.5,119.5C 41.8333,119.5 42.1667,119.5 42.5,119.5C 45.6085,119.264 48.6085,119.597 51.5,120.5C 50.4019,126.07 51.7352,126.736 55.5,122.5C 57.1958,122.685 58.5291,123.519 59.5,125C 59.1667,125.167 58.8333,125.333 58.5,125.5C 55.5307,125.803 52.5307,125.803 49.5,125.5C 49.8034,122.412 48.4701,120.746 45.5,120.5C 45.4042,124.311 44.7376,124.311 43.5,120.5C 40.8953,122.236 40.8953,124.069 43.5,126C 41.0059,127.912 41.1726,129.746 44,131.5C 44.4988,135.486 44.6655,139.486 44.5,143.5C 43.6805,140.695 43.1805,137.695 43,134.5C 41.6609,132.335 40.1609,130.335 38.5,128.5C 38.6082,127.558 38.9415,126.725 39.5,126C 37.2101,124.223 35.5434,122.056 34.5,119.5 Z"/></g>
<g><path style="opacity:1" fill="#3c3b36" d="M 46.5,135.5 C 46.3398,137.199 46.5065,138.866 47,140.5C 48.0113,139.663 49.1779,139.33 50.5,139.5C 51.9567,137.46 51.79,138.794 50,143.5C 49.2904,142.027 48.1238,141.36 46.5,141.5C 46.5,143.167 46.5,144.833 46.5,146.5C 51.5,146.5 56.5,146.5 61.5,146.5C 63.099,146.232 64.4324,146.566 65.5,147.5C 58.8333,147.5 52.1667,147.5 45.5,147.5C 45.5,146.5 45.5,145.5 45.5,144.5C 45.19,141.287 45.5233,138.287 46.5,135.5 Z"/></g>
<g><path style="opacity:1" fill="#1f1f1d" d="M 5.5,135.5 C 6.67504,135.281 7.67504,135.614 8.5,136.5C 7.35536,137.891 7.35536,139.224 8.5,140.5C 9.73619,139.754 11.0695,139.421 12.5,139.5C 12.5,140.833 12.5,142.167 12.5,143.5C 11.1779,143.67 10.0113,143.337 9,142.5C 8.50649,144.134 8.33982,145.801 8.5,147.5C 7.5,147.5 6.5,147.5 5.5,147.5C 5.28649,145.856 5.61983,144.356 6.5,143C 5.45104,142.508 4.45104,142.674 3.5,143.5C 2.5,143.167 1.83333,142.5 1.5,141.5C 3.02699,140.056 4.69366,139.222 6.5,139C 6.01087,137.862 5.67754,136.695 5.5,135.5 Z"/></g>
<g><path style="opacity:1" fill="#9a8f7b" d="M 61.5,139.5 C 61.5,140.5 61.5,141.5 61.5,142.5C 57.2834,145.459 54.6168,144.792 53.5,140.5C 55.7269,139.809 58.3935,139.476 61.5,139.5 Z"/></g>
<g><path style="opacity:1" fill="#10100f" d="M 85.5,140.5 C 86.675,140.281 87.675,140.614 88.5,141.5C 87.2941,143.516 87.2941,145.516 88.5,147.5C 93.0541,144.156 95.2208,145.156 95,150.5C 94.2753,151.059 93.4419,151.392 92.5,151.5C 90.845,150.612 89.1783,150.112 87.5,150C 90.2393,152.934 90.0726,155.434 87,157.5C 82.532,155.395 82.3653,152.895 86.5,150C 84.8217,150.112 83.155,150.612 81.5,151.5C 79.5,151.5 78.5,150.5 78.5,148.5C 78.4342,146.734 79.2676,145.734 81,145.5C 86.2252,148.207 87.7252,146.54 85.5,140.5 Z"/></g>
<g><path style="opacity:1" fill="#201f1d" d="M 100.5,135.5 C 101.675,135.281 102.675,135.614 103.5,136.5C 101.934,139.494 102.601,140.494 105.5,139.5C 108.167,140.833 108.167,142.167 105.5,143.5C 104.549,142.674 103.549,142.508 102.5,143C 103.38,144.356 103.714,145.856 103.5,147.5C 102.5,147.5 101.5,147.5 100.5,147.5C 100.66,145.801 100.494,144.134 100,142.5C 98.9887,143.337 97.8221,143.67 96.5,143.5C 96.5,142.167 96.5,140.833 96.5,139.5C 97.9305,139.421 99.2638,139.754 100.5,140.5C 101.434,138.905 101.434,137.239 100.5,135.5 Z"/></g>
<g><path style="opacity:1" fill="#100f0e" d="M 2.5,151.5 C 3.20895,150.596 4.20895,150.263 5.5,150.5C 6.38587,158.306 7.7192,158.306 9.5,150.5C 10.8333,155.167 10.8333,159.833 9.5,164.5C 8.84095,158.619 7.67429,158.286 6,163.5C 5.28248,164.451 4.44915,164.617 3.5,164C 6.11468,159.581 5.78134,155.414 2.5,151.5 Z"/></g>
<g><path style="opacity:1" fill="#be9e1a" d="M 45.5,147.5 C 52.1667,147.5 58.8333,147.5 65.5,147.5C 66.7736,148.189 66.7736,149.023 65.5,150C 67.4727,150.495 69.4727,150.662 71.5,150.5C 71.2249,152.758 70.2249,153.092 68.5,151.5C 67.8333,152.167 67.1667,152.833 66.5,153.5C 65.2638,152.754 63.9305,152.421 62.5,152.5C 62.5,152.167 62.5,151.833 62.5,151.5C 57.5968,150.5 51.9302,150.167 45.5,150.5C 45.5,149.5 45.5,148.5 45.5,147.5 Z"/></g>
<g><path style="opacity:1" fill="#100f0e" d="M 98.5,151.5 C 99.209,150.596 100.209,150.263 101.5,150.5C 102.386,158.306 103.719,158.306 105.5,150.5C 106.833,155.167 106.833,159.833 105.5,164.5C 104.841,158.619 103.674,158.286 102,163.5C 101.282,164.451 100.449,164.617 99.5,164C 102.115,159.581 101.781,155.414 98.5,151.5 Z"/></g>
<g><path style="opacity:1" fill="#d2cd0c" d="M 62.5,151.5 C 62.5,151.833 62.5,152.167 62.5,152.5C 62.5,152.833 62.5,153.167 62.5,153.5C 60.9681,154.37 59.4681,154.036 58,152.5C 57.2828,153.044 56.7828,153.711 56.5,154.5C 55.8333,154.5 55.1667,154.5 54.5,154.5C 54.5,153.833 54.1667,153.5 53.5,153.5C 52.2073,152.355 51.0407,152.689 50,154.5C 48.6132,152.699 47.1132,152.032 45.5,152.5C 51.1278,151.505 56.7945,151.171 62.5,151.5 Z"/></g>
<g><path style="opacity:1" fill="#3c1f10" d="M 62.5,153.5 C 62.5,154.167 62.5,154.833 62.5,155.5C 60.5,155.167 58.5,154.833 56.5,154.5C 56.7828,153.711 57.2828,153.044 58,152.5C 59.4681,154.036 60.9681,154.37 62.5,153.5 Z"/></g>
<g><path style="opacity:1" fill="#473616" d="M 45.5,147.5 C 45.5,148.5 45.5,149.5 45.5,150.5C 51.9302,150.167 57.5968,150.5 62.5,151.5C 56.7945,151.171 51.1278,151.505 45.5,152.5C 47.1132,152.032 48.6132,152.699 50,154.5C 51.0407,152.689 52.2073,152.355 53.5,153.5C 52.0069,154.312 51.3402,155.645 51.5,157.5C 51.7284,159.207 52.0617,160.874 52.5,162.5C 51.5,162.5 50.5,162.5 49.5,162.5C 49.3184,160.409 49.6518,158.409 50.5,156.5C 49.7579,155.713 48.9246,155.047 48,154.5C 47.3985,157.221 47.5651,159.887 48.5,162.5C 47.8333,162.5 47.1667,162.5 46.5,162.5C 45.5504,159.932 45.5504,157.432 46.5,155C 45.552,154.517 44.552,154.351 43.5,154.5C 43.7215,151.933 44.3882,149.599 45.5,147.5 Z"/></g>
<g><path style="opacity:1" fill="#c0281d" d="M 49.5,162.5 C 49.1667,162.5 48.8333,162.5 48.5,162.5C 47.5651,159.887 47.3985,157.221 48,154.5C 48.9246,155.047 49.7579,155.713 50.5,156.5C 49.6518,158.409 49.3184,160.409 49.5,162.5 Z"/></g>
<g><path style="opacity:1" fill="#5b2316" d="M 71.5,150.5 C 72.404,151.209 72.7373,152.209 72.5,153.5C 72.0623,154.506 71.3957,154.506 70.5,153.5C 69.6862,155.631 69.1862,157.964 69,160.5C 68.6667,160.833 68.3333,161.167 68,161.5C 68.068,159.658 67.9014,157.991 67.5,156.5C 66.7886,154.799 65.4553,153.799 63.5,153.5C 63.1667,153.5 62.8333,153.5 62.5,153.5C 62.5,153.167 62.5,152.833 62.5,152.5C 63.9305,152.421 65.2638,152.754 66.5,153.5C 67.1667,152.833 67.8333,152.167 68.5,151.5C 70.2249,153.092 71.2249,152.758 71.5,150.5 Z"/></g>
<g><path style="opacity:1" fill="#a22618" d="M 70.5,153.5 C 71.3957,154.506 72.0623,154.506 72.5,153.5C 74.4241,153.711 74.7574,154.377 73.5,155.5C 72.7321,157.715 72.0654,160.048 71.5,162.5C 70.8333,162.5 70.1667,162.5 69.5,162.5C 70.4025,159.609 70.7359,156.609 70.5,153.5 Z"/></g>
<g><path style="opacity:1" fill="#ab3817" d="M 53.5,153.5 C 54.1667,153.5 54.5,153.833 54.5,154.5C 53.3433,157.026 53.3433,159.693 54.5,162.5C 53.8333,162.5 53.1667,162.5 52.5,162.5C 52.0617,160.874 51.7284,159.207 51.5,157.5C 51.3402,155.645 52.0069,154.312 53.5,153.5 Z"/></g>
<g><path style="opacity:1" fill="#7a681b" d="M 70.5,153.5 C 70.7359,156.609 70.4025,159.609 69.5,162.5C 68.1667,162.5 66.8333,162.5 65.5,162.5C 65.0254,159.918 65.6921,157.918 67.5,156.5C 67.9014,157.991 68.068,159.658 68,161.5C 68.3333,161.167 68.6667,160.833 69,160.5C 69.1862,157.964 69.6862,155.631 70.5,153.5 Z"/></g>
<g><path style="opacity:1" fill="#857a17" d="M 73.5,155.5 C 73.5,157.833 73.5,160.167 73.5,162.5C 72.8333,162.5 72.1667,162.5 71.5,162.5C 72.0654,160.048 72.7321,157.715 73.5,155.5 Z"/></g>
<g><path style="opacity:1" fill="#9c1e15" d="M 43.5,154.5 C 44.552,154.351 45.552,154.517 46.5,155C 45.5504,157.432 45.5504,159.932 46.5,162.5C 45.6236,162.631 44.9569,162.298 44.5,161.5C 43.9724,159.664 43.3058,157.997 42.5,156.5C 42.3284,155.508 42.6618,154.842 43.5,154.5 Z"/></g>
<g><path style="opacity:1" fill="#b8461a" d="M 63.5,153.5 C 65.4553,153.799 66.7886,154.799 67.5,156.5C 65.6921,157.918 65.0254,159.918 65.5,162.5C 64.8333,162.5 64.1667,162.5 63.5,162.5C 63.892,159.324 63.892,156.324 63.5,153.5 Z"/></g>
<g><path style="opacity:1" fill="#85742d" d="M 62.5,153.5 C 62.8333,153.5 63.1667,153.5 63.5,153.5C 63.892,156.324 63.892,159.324 63.5,162.5C 60.5,162.5 57.5,162.5 54.5,162.5C 53.3433,159.693 53.3433,157.026 54.5,154.5C 55.1667,156.5 55.8333,158.5 56.5,160.5C 57.8221,160.33 58.9887,160.663 60,161.5C 60.9383,159.512 61.7717,157.512 62.5,155.5C 62.5,154.833 62.5,154.167 62.5,153.5 Z"/></g>
<g><path style="opacity:1" fill="#b0291d" d="M 54.5,154.5 C 55.1667,154.5 55.8333,154.5 56.5,154.5C 58.5,154.833 60.5,155.167 62.5,155.5C 61.7717,157.512 60.9383,159.512 60,161.5C 58.9887,160.663 57.8221,160.33 56.5,160.5C 55.8333,158.5 55.1667,156.5 54.5,154.5 Z"/></g>
<g><path style="opacity:1" fill="#1f1b1b" d="M 42.5,156.5 C 43.3058,157.997 43.9724,159.664 44.5,161.5C 44.9569,162.298 45.6236,162.631 46.5,162.5C 47.1667,162.5 47.8333,162.5 48.5,162.5C 48.8333,162.5 49.1667,162.5 49.5,162.5C 50.5,162.5 51.5,162.5 52.5,162.5C 53.1667,162.5 53.8333,162.5 54.5,162.5C 57.5,162.5 60.5,162.5 63.5,162.5C 64.1667,162.5 64.8333,162.5 65.5,162.5C 66.8333,162.5 68.1667,162.5 69.5,162.5C 70.1667,162.5 70.8333,162.5 71.5,162.5C 72.1667,162.5 72.8333,162.5 73.5,162.5C 68.2094,163.859 48.2094,164.026 13.5,163C 23.5,162.667 33.5,162.333 43.5,162C 42.5939,160.301 42.2606,158.467 42.5,156.5 Z"/></g>
</svg>
