<?xml version="1.0" encoding="UTF-8"?>
<!DOCTYPE svg PUBLIC "-//W3C//DTD SVG 1.1//EN" "http://www.w3.org/Graphics/SVG/1.1/DTD/svg11.dtd">
<svg xmlns="http://www.w3.org/2000/svg" version="1.1" width="110px" height="170px" style="shape-rendering:geometricPrecision; text-rendering:geometricPrecision; image-rendering:optimizeQuality; fill-rule:evenodd; clip-rule:evenodd" xmlns:xlink="http://www.w3.org/1999/xlink">
<g><path style="opacity:1" fill="#edf5e4" d="M -0.5,-0.5 C 36.1667,-0.5 72.8333,-0.5 109.5,-0.5C 109.5,56.1667 109.5,112.833 109.5,169.5C 72.8333,169.5 36.1667,169.5 -0.5,169.5C -0.5,112.833 -0.5,56.1667 -0.5,-0.5 Z"/></g>
<g><path style="opacity:1" fill="#010101" d="M 1.5,4.5 C 2.5,4.5 3.5,4.5 4.5,4.5C 4.82662,9.21369 4.49329,13.8804 3.5,18.5C 2.67346,14.5408 2.17346,10.5408 2,6.5C 1.34569,7.69559 0.845686,7.69559 0.5,6.5C 0.862734,5.81654 1.19607,5.14987 1.5,4.5 Z"/></g>
<g><path style="opacity:1" fill="#090908" d="M 7.5,4.5 C 9.14387,4.28649 10.6439,4.61983 12,5.5C 12.6667,9.5 12.6667,13.5 12,17.5C 10.3333,18.8333 8.66667,18.8333 7,17.5C 6.23158,13.0804 6.39825,8.74709 7.5,4.5 Z"/></g>
<g><path style="opacity:1" fill="#010101" d="M 97.5,4.5 C 98.5,4.5 99.5,4.5 100.5,4.5C 100.827,9.21369 100.493,13.8804 99.5,18.5C 98.6735,14.5408 98.1735,10.5408 98,6.5C 97.3457,7.69559 96.8457,7.69559 96.5,6.5C 96.8627,5.81654 97.1961,5.14987 97.5,4.5 Z"/></g>
<g><path style="opacity:1" fill="#090908" d="M 103.5,4.5 C 105.144,4.28649 106.644,4.61983 108,5.5C 108.667,9.5 108.667,13.5 108,17.5C 106.333,18.8333 104.667,18.8333 103,17.5C 102.232,13.0804 102.398,8.74709 103.5,4.5 Z"/></g>
<g><path style="opacity:1" fill="#e8f0e0" d="M 8.5,6.5 C 9.77725,7.69363 10.4439,9.3603 10.5,11.5C 10.1667,13.1667 9.83333,14.8333 9.5,16.5C 8.51298,13.2317 8.17964,9.89838 8.5,6.5 Z"/></g>
<g><path style="opacity:1" fill="#e8f0e0" d="M 104.5,6.5 C 105.777,7.69363 106.444,9.3603 106.5,11.5C 106.167,13.1667 105.833,14.8333 105.5,16.5C 104.513,13.2317 104.18,9.89838 104.5,6.5 Z"/></g>
<g><path style="opacity:1" fill="#0c0c0b" d="M 28.5,15.5 C 34.7191,17.3832 39.0524,21.3832 41.5,27.5C 40.0035,32.5195 36.8368,34.1861 32,32.5C 31.3486,34.235 31.5153,35.9017 32.5,37.5C 30.8333,38.8333 29.1667,38.8333 27.5,37.5C 29.4288,33.5986 28.5955,32.2653 25,33.5C 19.072,32.3108 17.4054,28.9774 20,23.5C 22.7291,20.6007 25.5624,17.934 28.5,15.5 Z"/></g>
<g><path style="opacity:1" fill="#0c0c0b" d="M 77.5,15.5 C 83.7191,17.3832 88.0524,21.3832 90.5,27.5C 89.1961,32.7351 86.0295,34.4017 81,32.5C 80.3486,34.235 80.5153,35.9017 81.5,37.5C 79.8333,38.8333 78.1667,38.8333 76.5,37.5C 77.4847,35.9017 77.6514,34.235 77,32.5C 72.1632,34.1861 68.9965,32.5195 67.5,27.5C 67.7189,26.062 68.2189,24.7287 69,23.5C 71.7291,20.6007 74.5624,17.934 77.5,15.5 Z"/></g>
<g><path style="opacity:1" fill="#10100f" d="M 5.5,22.5 C 12.9078,25.7455 13.2411,29.4122 6.5,33.5C 5.40958,32.273 4.07625,31.4396 2.5,31C 1.94149,30.2753 1.60816,29.4419 1.5,28.5C 2.43161,26.2345 3.76494,24.2345 5.5,22.5 Z"/></g>
<g><path style="opacity:1" fill="#10100f" d="M 101.5,22.5 C 108.908,25.7455 109.241,29.4122 102.5,33.5C 101.41,32.273 100.076,31.4396 98.5,31C 97.9415,30.2753 97.6082,29.4419 97.5,28.5C 98.4316,26.2345 99.7649,24.2345 101.5,22.5 Z"/></g>
<g><path style="opacity:1" fill="#040404" d="M 56.5,56.5 C 55.1667,57.8333 53.8333,57.8333 52.5,56.5C 53.4339,54.7615 53.4339,53.0948 52.5,51.5C 45.6959,53.1982 42.8626,50.5316 44,43.5C 47.0584,39.9383 50.5584,36.9383 54.5,34.5C 59.6267,37.2878 63.2934,41.2878 65.5,46.5C 64.6584,52.0033 61.6584,53.67 56.5,51.5C 55.5661,53.0948 55.5661,54.7615 56.5,56.5 Z"/></g>
<g><path style="opacity:1" fill="#0e0e0e" d="M 28.5,53.5 C 29.552,53.3505 30.552,53.5172 31.5,54C 33.208,56.0435 35.208,57.7101 37.5,59C 44.213,67.2238 42.213,71.3904 31.5,71.5C 31.178,73.7224 31.8446,75.5557 33.5,77C 31.1667,77.6667 28.8333,77.6667 26.5,77C 28.1869,75.087 28.6869,72.9203 28,70.5C 20.0665,72.232 17.3998,69.232 20,61.5C 23.003,58.9329 25.8363,56.2663 28.5,53.5 Z"/></g>
<g><path style="opacity:1" fill="#0e0e0d" d="M 77.5,53.5 C 78.552,53.3505 79.552,53.5172 80.5,54C 82.208,56.0435 84.208,57.7101 86.5,59C 91.2007,62.7811 91.534,66.7811 87.5,71C 85.2305,71.7581 83.0639,71.5914 81,70.5C 80.3131,72.9203 80.8131,75.087 82.5,77C 80.4213,77.8077 78.4213,77.641 76.5,76.5C 77.3094,74.9291 77.6427,73.2624 77.5,71.5C 68.249,72.1108 65.749,68.4441 70,60.5C 72.9985,58.6671 75.4985,56.3338 77.5,53.5 Z"/></g>
<g><path style="opacity:1" fill="#90918b" d="M 52.5,56.5 C 53.8333,57.8333 55.1667,57.8333 56.5,56.5C 57.0431,56.56 57.3764,56.8933 57.5,57.5C 55.5,58.8333 53.5,58.8333 51.5,57.5C 51.6236,56.8933 51.9569,56.56 52.5,56.5 Z"/></g>
<g><path style="opacity:1" fill="#0e0e0d" d="M 26.5,92.5 C 28.6282,91.3709 30.9615,91.2042 33.5,92C 31.8446,93.4443 31.178,95.2776 31.5,97.5C 35.1916,96.9712 38.3583,97.9712 41,100.5C 41.6667,102.167 41.6667,103.833 41,105.5C 37.7755,109.286 34.1088,112.619 30,115.5C 24.4014,112.904 20.5681,108.737 18.5,103C 19.8258,97.7423 22.9925,96.2423 28,98.5C 28.9411,96.0106 28.4411,94.0106 26.5,92.5 Z"/></g>
<g><path style="opacity:1" fill="#0e0e0d" d="M 76.5,91.5 C 78.5273,91.3379 80.5273,91.5045 82.5,92C 80.6041,93.8083 80.1041,95.975 81,98.5C 88.9335,96.768 91.6002,99.768 89,107.5C 86.2605,110.118 83.4272,112.618 80.5,115C 79.5,115.667 78.5,115.667 77.5,115C 75.2953,112.46 72.7953,110.293 70,108.5C 65.749,100.556 68.249,96.8892 77.5,97.5C 77.4828,95.4352 77.1495,93.4352 76.5,91.5 Z"/></g>
<g><path style="opacity:1" fill="#93948e" d="M 56.5,112.5 C 55.1667,111.167 53.8333,111.167 52.5,112.5C 51.9569,112.44 51.6236,112.107 51.5,111.5C 53.5,110.167 55.5,110.167 57.5,111.5C 57.3764,112.107 57.0431,112.44 56.5,112.5 Z"/></g>
<g><path style="opacity:1" fill="#050504" d="M 56.5,112.5 C 55.5661,114.239 55.5661,115.905 56.5,117.5C 63.3041,115.802 66.1374,118.468 65,125.5C 61.9416,129.062 58.4416,132.062 54.5,134.5C 49.3733,131.712 45.7066,127.712 43.5,122.5C 44.3416,116.997 47.3416,115.33 52.5,117.5C 53.4339,115.905 53.4339,114.239 52.5,112.5C 53.8333,111.167 55.1667,111.167 56.5,112.5 Z"/></g>
<g><path style="opacity:1" fill="#0b0b0a" d="M 27.5,130.5 C 29.1992,130.34 30.8659,130.506 32.5,131C 31.4238,132.726 31.2571,134.559 32,136.5C 36.808,134.773 39.9747,136.439 41.5,141.5C 39.2133,146.954 35.38,150.954 30,153.5C 24.62,150.954 20.7867,146.954 18.5,141.5C 19.8039,136.265 22.9705,134.598 28,136.5C 28.4901,134.455 28.3235,132.455 27.5,130.5 Z"/></g>
<g><path style="opacity:1" fill="#0c0c0b" d="M 76.5,131.5 C 78.0348,130.212 79.7015,130.212 81.5,131.5C 79.5712,135.401 80.4045,136.735 84,135.5C 89.928,136.689 91.5946,140.023 89,145.5C 86.2324,148.941 82.899,151.607 79,153.5C 73.62,150.954 69.7867,146.954 67.5,141.5C 69.0253,136.439 72.192,134.773 77,136.5C 77.7796,134.613 77.6129,132.946 76.5,131.5 Z"/></g>
<g><path style="opacity:1" fill="#121211" d="M 5.5,135.5 C 13.1032,138.289 13.4365,141.956 6.5,146.5C 0.337068,142.971 0.00373517,139.305 5.5,135.5 Z"/></g>
<g><path style="opacity:1" fill="#121211" d="M 101.5,135.5 C 109.103,138.289 109.437,141.956 102.5,146.5C 96.3371,142.971 96.0037,139.305 101.5,135.5 Z"/></g>
<g><path style="opacity:1" fill="#090908" d="M 1.5,150.5 C 3.14387,150.286 4.64387,150.62 6,151.5C 6.66667,155.5 6.66667,159.5 6,163.5C 4.33333,164.833 2.66667,164.833 1,163.5C 0.23158,159.08 0.398246,154.747 1.5,150.5 Z"/></g>
<g><path style="opacity:1" fill="#010101" d="M 8.5,150.5 C 10.2684,154.044 11.1018,158.044 11,162.5C 11.6543,161.304 12.1543,161.304 12.5,162.5C 11.6798,164.111 10.3464,164.778 8.5,164.5C 8.5,159.833 8.5,155.167 8.5,150.5 Z"/></g>
<g><path style="opacity:1" fill="#090908" d="M 97.5,150.5 C 99.1439,150.286 100.644,150.62 102,151.5C 102.667,155.5 102.667,159.5 102,163.5C 100.333,164.833 98.6667,164.833 97,163.5C 96.2316,159.08 96.3982,154.747 97.5,150.5 Z"/></g>
<g><path style="opacity:1" fill="#010101" d="M 104.5,150.5 C 106.268,154.044 107.102,158.044 107,162.5C 107.654,161.304 108.154,161.304 108.5,162.5C 107.68,164.111 106.346,164.778 104.5,164.5C 104.5,159.833 104.5,155.167 104.5,150.5 Z"/></g>
<g><path style="opacity:1" fill="#e8f0e0" d="M 2.5,152.5 C 3.77725,153.694 4.44392,155.36 4.5,157.5C 4.16667,159.167 3.83333,160.833 3.5,162.5C 2.51298,159.232 2.17964,155.898 2.5,152.5 Z"/></g>
<g><path style="opacity:1" fill="#e8f0e0" d="M 98.5,152.5 C 99.7773,153.694 100.444,155.36 100.5,157.5C 100.167,159.167 99.8333,160.833 99.5,162.5C 98.513,159.232 98.1796,155.898 98.5,152.5 Z"/></g>
</svg>
