<?xml version="1.0" encoding="UTF-8"?>
<!DOCTYPE svg PUBLIC "-//W3C//DTD SVG 1.1//EN" "http://www.w3.org/Graphics/SVG/1.1/DTD/svg11.dtd">
<svg xmlns="http://www.w3.org/2000/svg" version="1.1" width="110px" height="170px" style="shape-rendering:geometricPrecision; text-rendering:geometricPrecision; image-rendering:optimizeQuality; fill-rule:evenodd; clip-rule:evenodd" xmlns:xlink="http://www.w3.org/1999/xlink">
<g><path style="opacity:1" fill="#eef6e5" d="M -0.5,-0.5 C 36.1667,-0.5 72.8333,-0.5 109.5,-0.5C 109.5,56.1667 109.5,112.833 109.5,169.5C 72.8333,169.5 36.1667,169.5 -0.5,169.5C -0.5,112.833 -0.5,56.1667 -0.5,-0.5 Z"/></g>
<g><path style="opacity:1" fill="#131312" d="M 5.5,4.5 C 7.48032,5.84755 8.64698,7.84755 9,10.5C 9.28681,12.8907 9.78681,15.2241 10.5,17.5C 10.1667,17.8333 9.83333,18.1667 9.5,18.5C 8.61432,17.675 8.28099,16.675 8.5,15.5C 7.16667,15.5 5.83333,15.5 4.5,15.5C 4.71901,16.675 4.38568,17.675 3.5,18.5C 3.16667,18.1667 2.83333,17.8333 2.5,17.5C 3.39366,13.1357 4.39366,8.80235 5.5,4.5 Z"/></g>
<g><path style="opacity:1" fill="#131312" d="M 101.5,4.5 C 103.48,5.84755 104.647,7.84755 105,10.5C 105.287,12.8907 105.787,15.2241 106.5,17.5C 106.167,17.8333 105.833,18.1667 105.5,18.5C 104.614,17.675 104.281,16.675 104.5,15.5C 103.167,15.5 101.833,15.5 100.5,15.5C 100.719,16.675 100.386,17.675 99.5,18.5C 99.1667,18.1667 98.8333,17.8333 98.5,17.5C 99.3937,13.1357 100.394,8.80235 101.5,4.5 Z"/></g>
<g><path style="opacity:1" fill="#a2a69c" d="M 5.5,9.5 C 6.58617,9.61998 7.25284,10.2867 7.5,11.5C 7.16667,12.1667 6.83333,12.8333 6.5,13.5C 5.57131,12.3112 5.23798,10.9778 5.5,9.5 Z"/></g>
<g><path style="opacity:1" fill="#a2a69c" d="M 101.5,9.5 C 102.586,9.61998 103.253,10.2867 103.5,11.5C 103.167,12.1667 102.833,12.8333 102.5,13.5C 101.571,12.3112 101.238,10.9778 101.5,9.5 Z"/></g>
<g><path style="opacity:1" fill="#10100f" d="M 5.5,22.5 C 12.9078,25.7455 13.2411,29.4122 6.5,33.5C 5.40958,32.273 4.07625,31.4396 2.5,31C 1.94149,30.2753 1.60816,29.4419 1.5,28.5C 2.43161,26.2345 3.76494,24.2345 5.5,22.5 Z"/></g>
<g><path style="opacity:1" fill="#10100f" d="M 101.5,22.5 C 108.908,25.7455 109.241,29.4122 102.5,33.5C 101.41,32.273 100.076,31.4396 98.5,31C 97.9415,30.2753 97.6082,29.4419 97.5,28.5C 98.4316,26.2345 99.7649,24.2345 101.5,22.5 Z"/></g>
<g><path style="opacity:1" fill="#060605" d="M 53.5,72.5 C 57.2098,74.7849 60.7098,77.4516 64,80.5C 67.3333,88.8333 64.6667,91.8333 56,89.5C 55.6577,91.8183 56.1577,93.985 57.5,96C 55.5,96.6667 53.5,96.6667 51.5,96C 52.8423,93.985 53.3423,91.8183 53,89.5C 44.3333,91.8333 41.6667,88.8333 45,80.5C 47.7291,77.6007 50.5624,74.934 53.5,72.5 Z"/></g>
<g><path style="opacity:1" fill="#121211" d="M 5.5,135.5 C 13.1032,138.289 13.4365,141.956 6.5,146.5C 0.337068,142.971 0.00373517,139.305 5.5,135.5 Z"/></g>
<g><path style="opacity:1" fill="#121211" d="M 101.5,135.5 C 109.103,138.289 109.437,141.956 102.5,146.5C 96.3371,142.971 96.0037,139.305 101.5,135.5 Z"/></g>
<g><path style="opacity:1" fill="#151514" d="M 2.5,150.5 C 4.04814,150.821 4.71481,151.821 4.5,153.5C 5.83333,153.5 7.16667,153.5 8.5,153.5C 8.28099,152.325 8.61432,151.325 9.5,150.5C 7.95197,169.024 5.61864,169.024 2.5,150.5 Z"/></g>
<g><path style="opacity:1" fill="#151514" d="M 98.5,150.5 C 100.048,150.821 100.715,151.821 100.5,153.5C 101.833,153.5 103.167,153.5 104.5,153.5C 104.281,152.325 104.614,151.325 105.5,150.5C 103.952,169.024 101.619,169.024 98.5,150.5 Z"/></g>
<g><path style="opacity:1" fill="#7d7e76" d="M 5.5,155.5 C 6.58617,155.62 7.25284,156.287 7.5,157.5C 7.16667,158.167 6.83333,158.833 6.5,159.5C 5.57131,158.311 5.23798,156.978 5.5,155.5 Z"/></g>
<g><path style="opacity:1" fill="#7d7e76" d="M 101.5,155.5 C 102.586,155.62 103.253,156.287 103.5,157.5C 103.167,158.167 102.833,158.833 102.5,159.5C 101.571,158.311 101.238,156.978 101.5,155.5 Z"/></g>
</svg>
