<?xml version="1.0" encoding="UTF-8"?>
<!DOCTYPE svg PUBLIC "-//W3C//DTD SVG 1.1//EN" "http://www.w3.org/Graphics/SVG/1.1/DTD/svg11.dtd">
<svg xmlns="http://www.w3.org/2000/svg" version="1.1" width="110px" height="170px" style="shape-rendering:geometricPrecision; text-rendering:geometricPrecision; image-rendering:optimizeQuality; fill-rule:evenodd; clip-rule:evenodd" xmlns:xlink="http://www.w3.org/1999/xlink">
<g><path style="opacity:1" fill="#ebf3e2" d="M -0.5,-0.5 C 36.1667,-0.5 72.8333,-0.5 109.5,-0.5C 109.5,56.1667 109.5,112.833 109.5,169.5C 72.8333,169.5 36.1667,169.5 -0.5,169.5C -0.5,112.833 -0.5,56.1667 -0.5,-0.5 Z"/></g>
<g><path style="opacity:1" fill="#1a1a18" d="M 3.5,4.5 C 5.19919,4.33982 6.86586,4.50649 8.5,5C 9.08142,5.8926 9.41476,6.8926 9.5,8C 9.22517,11.027 9.0585,14.1937 9,17.5C 7.30054,18.4061 5.4672,18.7394 3.5,18.5C 3.5,13.8333 3.5,9.16667 3.5,4.5 Z"/></g>
<g><path style="opacity:1" fill="#1a1a18" d="M 99.5,4.5 C 101.199,4.33982 102.866,4.50649 104.5,5C 105.081,5.8926 105.415,6.8926 105.5,8C 105.225,11.027 105.058,14.1937 105,17.5C 103.301,18.4061 101.467,18.7394 99.5,18.5C 99.5,13.8333 99.5,9.16667 99.5,4.5 Z"/></g>
<g><path style="opacity:1" fill="#201e20" d="M 86.5,6.5 C 85.8333,6.5 85.1667,6.5 84.5,6.5C 82.5,6.5 80.5,6.5 78.5,6.5C 76.8333,6.5 75.1667,6.5 73.5,6.5C 72.8333,6.5 72.1667,6.5 71.5,6.5C 70.5,6.5 69.5,6.5 68.5,6.5C 68.178,8.72241 68.8446,10.5557 70.5,12C 69.6198,13.3561 69.2865,14.8561 69.5,16.5C 68.2154,13.4115 67.5488,10.0781 67.5,6.5C 58.1667,6.5 48.8333,6.5 39.5,6.5C 38.8333,6.5 38.1667,6.5 37.5,6.5C 43.8118,5.12937 60.1452,5.12937 86.5,6.5 Z"/></g>
<g><path style="opacity:1" fill="#eef7e5" d="M 5.5,6.5 C 7.46455,6.94835 7.79789,7.94835 6.5,9.5C 5.61432,8.67504 5.28099,7.67504 5.5,6.5 Z"/></g>
<g><path style="opacity:1" fill="#c62508" d="M 39.5,6.5 C 48.8333,6.5 58.1667,6.5 67.5,6.5C 67.5488,10.0781 68.2154,13.4115 69.5,16.5C 69.4249,19.2062 69.0916,21.8728 68.5,24.5C 68.1667,24.5 67.8333,24.5 67.5,24.5C 67.4852,19.981 65.1519,17.481 60.5,17C 54.8333,16.3333 49.1667,16.3333 43.5,17C 42.5842,17.2784 41.9175,17.7784 41.5,18.5C 40.6981,19.9516 40.1981,21.6183 40,23.5C 39.8184,20.7737 39.3184,18.1071 38.5,15.5C 37.2801,15.8869 36.6135,16.7202 36.5,18C 36.9755,19.7633 37.6422,21.43 38.5,23C 34.4661,23.976 32.4661,22.3094 32.5,18C 33.9407,13.6178 36.274,9.78448 39.5,6.5 Z"/></g>
<g><path style="opacity:1" fill="#248c53" d="M 71.5,6.5 C 72.9073,8.30826 74.074,10.3083 75,12.5C 75.5636,18.6105 75.2303,24.6105 74,30.5C 77.4577,22.4052 77.2911,14.4052 73.5,6.5C 75.1667,6.5 76.8333,6.5 78.5,6.5C 78.6287,8.2161 78.962,9.88277 79.5,11.5C 79.59,13.6963 79.9233,15.863 80.5,18C 79.8805,23.0601 78.7139,27.2268 77,30.5C 74.5153,33.189 71.682,34.189 68.5,33.5C 67.5269,31.0521 67.1936,28.3854 67.5,25.5C 67.5,25.1667 67.5,24.8333 67.5,24.5C 67.8333,24.5 68.1667,24.5 68.5,24.5C 70.0133,22.3488 71.6799,20.0155 73.5,17.5C 72.6446,16.707 71.8113,17.0403 71,18.5C 70.7216,17.5842 70.2216,16.9175 69.5,16.5C 69.2865,14.8561 69.6198,13.3561 70.5,12C 68.8446,10.5557 68.178,8.72241 68.5,6.5C 69.5,6.5 70.5,6.5 71.5,6.5 Z"/></g>
<g><path style="opacity:1" fill="#eef7e5" d="M 101.5,6.5 C 103.465,6.94835 103.798,7.94835 102.5,9.5C 101.614,8.67504 101.281,7.67504 101.5,6.5 Z"/></g>
<g><path style="opacity:1" fill="#b5ced7" d="M 78.5,6.5 C 80.5,6.5 82.5,6.5 84.5,6.5C 84.8039,7.14987 85.1373,7.81654 85.5,8.5C 84.7038,16.5057 83.7038,24.5057 82.5,32.5C 82.5202,28.0047 82.3535,23.338 82,18.5C 81.8442,15.8091 81.0109,13.4758 79.5,11.5C 78.962,9.88277 78.6287,8.2161 78.5,6.5 Z"/></g>
<g><path style="opacity:1" fill="#090808" d="M 18.5,11.5 C 24.823,12.6438 27.9897,16.3105 28,22.5C 26.2111,24.229 24.0444,24.8957 21.5,24.5C 21.33,25.8221 21.6634,26.9887 22.5,28C 21.0563,28.7805 19.723,28.6139 18.5,27.5C 20.2248,24.2172 19.5581,23.2172 16.5,24.5C 12.8529,23.5139 11.6862,21.1806 13,17.5C 15.0396,15.6298 16.8729,13.6298 18.5,11.5 Z"/></g>
<g><path style="opacity:1" fill="#e3eadb" d="M 5.5,12.5 C 6.58617,12.62 7.25284,13.2867 7.5,14.5C 7.16667,15.1667 6.83333,15.8333 6.5,16.5C 5.57131,15.3112 5.23798,13.9778 5.5,12.5 Z"/></g>
<g><path style="opacity:1" fill="#e3eadb" d="M 101.5,12.5 C 102.586,12.62 103.253,13.2867 103.5,14.5C 103.167,15.1667 102.833,15.8333 102.5,16.5C 101.571,15.3112 101.238,13.9778 101.5,12.5 Z"/></g>
<g><path style="opacity:1" fill="#87261b" d="M 37.5,6.5 C 38.1667,6.5 38.8333,6.5 39.5,6.5C 36.274,9.78448 33.9407,13.6178 32.5,18C 32.4661,22.3094 34.4661,23.976 38.5,23C 37.6422,21.43 36.9755,19.7633 36.5,18C 36.6135,16.7202 37.2801,15.8869 38.5,15.5C 39.3184,18.1071 39.8184,20.7737 40,23.5C 40.1981,21.6183 40.6981,19.9516 41.5,18.5C 41.2155,20.4147 41.5489,22.0813 42.5,23.5C 42.1583,24.3382 41.4916,24.6716 40.5,24.5C 37.7212,24.7214 35.0545,24.388 32.5,23.5C 31.5325,20.5547 31.3658,17.5547 32,14.5C 33.5963,11.6305 35.4297,8.96388 37.5,6.5 Z"/></g>
<g><path style="opacity:1" fill="#cbbb18" d="M 67.5,24.5 C 67.5,24.8333 67.5,25.1667 67.5,25.5C 66.6862,27.631 66.1862,29.9644 66,32.5C 65.3187,30.1053 64.4853,27.772 63.5,25.5C 63.4192,27.6329 62.9192,29.6329 62,31.5C 62.0704,28.008 61.2371,25.008 59.5,22.5C 53.643,21.0177 47.9763,21.351 42.5,23.5C 41.5489,22.0813 41.2155,20.4147 41.5,18.5C 41.9175,17.7784 42.5842,17.2784 43.5,17C 49.1667,16.3333 54.8333,16.3333 60.5,17C 65.1519,17.481 67.4852,19.981 67.5,24.5 Z"/></g>
<g><path style="opacity:1" fill="#5c554d" d="M 69.5,16.5 C 70.2216,16.9175 70.7216,17.5842 71,18.5C 71.8113,17.0403 72.6446,16.707 73.5,17.5C 71.6799,20.0155 70.0133,22.3488 68.5,24.5C 69.0916,21.8728 69.4249,19.2062 69.5,16.5 Z"/></g>
<g><path style="opacity:1" fill="#ecdcbc" d="M 59.5,22.5 C 58.7526,30.3345 60.0859,37.6678 63.5,44.5C 60.1919,47.6352 56.6919,50.6352 53,53.5C 52.2917,52.6195 51.4584,51.9528 50.5,51.5C 50.5,50.8333 50.5,50.1667 50.5,49.5C 52.6411,46.5282 55.3078,44.0282 58.5,42C 57.3284,41.6466 56.1618,41.8132 55,42.5C 52.1823,40.1899 49.5157,40.1899 47,42.5C 45.6346,41.4071 45.3013,40.0738 46,38.5C 49.0567,37.5495 52.2234,37.2161 55.5,37.5C 55.6495,36.448 55.4828,35.448 55,34.5C 53.9887,35.3366 52.8221,35.67 51.5,35.5C 50.9232,33.3484 49.7565,33.015 48,34.5C 47.5646,28.1797 46.7313,28.013 45.5,34C 46.056,34.3826 46.3893,34.8826 46.5,35.5C 45.8826,35.6107 45.3826,35.944 45,36.5C 42.9771,34.2307 42.1437,31.5641 42.5,28.5C 44.4988,29.8565 45.6655,29.1899 46,26.5C 47.0875,28.9316 47.5875,28.5983 47.5,25.5C 45.5,25.5 43.5,25.5 41.5,25.5C 41.1667,25.5 40.8333,25.5 40.5,25.5C 40.5,25.1667 40.5,24.8333 40.5,24.5C 41.4916,24.6716 42.1583,24.3382 42.5,23.5C 47.9763,21.351 53.643,21.0177 59.5,22.5 Z"/></g>
<g><path style="opacity:1" fill="#446154" d="M 71.5,6.5 C 72.1667,6.5 72.8333,6.5 73.5,6.5C 77.2911,14.4052 77.4577,22.4052 74,30.5C 75.2303,24.6105 75.5636,18.6105 75,12.5C 74.074,10.3083 72.9073,8.30826 71.5,6.5 Z"/></g>
<g><path style="opacity:1" fill="#10100f" d="M 5.5,22.5 C 12.9078,25.7455 13.2411,29.4122 6.5,33.5C 5.40958,32.273 4.07625,31.4396 2.5,31C 1.94149,30.2753 1.60816,29.4419 1.5,28.5C 2.43161,26.2345 3.76494,24.2345 5.5,22.5 Z"/></g>
<g><path style="opacity:1" fill="#10100f" d="M 101.5,22.5 C 108.908,25.7455 109.241,29.4122 102.5,33.5C 101.41,32.273 100.076,31.4396 98.5,31C 97.9415,30.2753 97.6082,29.4419 97.5,28.5C 98.4316,26.2345 99.7649,24.2345 101.5,22.5 Z"/></g>
<g><path style="opacity:1" fill="#897f71" d="M 53.5,23.5 C 54.9778,23.238 56.3112,23.5713 57.5,24.5C 56.3595,25.4255 56.3595,26.2588 57.5,27C 54.5326,29.1866 51.866,28.8533 49.5,26C 50.8584,25.0656 52.1917,24.2323 53.5,23.5 Z"/></g>
<g><path style="opacity:1" fill="#249153" d="M 40.5,25.5 C 40.8333,25.5 41.1667,25.5 41.5,25.5C 41.5,25.8333 41.5,26.1667 41.5,26.5C 41.4828,28.5648 41.1495,30.5648 40.5,32.5C 37.142,31.4731 35.4754,29.1398 35.5,25.5C 37.1667,25.5 38.8333,25.5 40.5,25.5 Z"/></g>
<g><path style="opacity:1" fill="#51504b" d="M 41.5,26.5 C 41.5,26.1667 41.5,25.8333 41.5,25.5C 43.5,25.5 45.5,25.5 47.5,25.5C 47.5875,28.5983 47.0875,28.9316 46,26.5C 45.6655,29.1899 44.4988,29.8565 42.5,28.5C 44.0311,27.0755 43.6977,26.4088 41.5,26.5 Z"/></g>
<g><path style="opacity:1" fill="#789aaa" d="M 84.5,6.5 C 85.1667,6.5 85.8333,6.5 86.5,6.5C 87.8968,7.81941 88.5635,9.48607 88.5,11.5C 87.5353,15.8093 87.3687,20.1426 88,24.5C 88.4596,20.2482 90.4596,16.9149 94,14.5C 92.9744,19.9148 93.4744,25.2481 95.5,30.5C 94.9199,34.5637 94.0865,38.5637 93,42.5C 86.7575,48.4218 85.2575,47.4218 88.5,39.5C 88.1924,38.6919 87.6924,38.0253 87,37.5C 86.7679,38.7375 86.2679,39.7375 85.5,40.5C 83.8828,39.962 82.2161,39.6287 80.5,39.5C 79.5252,37.4755 78.0252,35.8088 76,34.5C 74.2341,35.2335 72.4008,35.5668 70.5,35.5C 69.5,35.1667 68.8333,34.5 68.5,33.5C 71.682,34.189 74.5153,33.189 77,30.5C 78.7139,27.2268 79.8805,23.0601 80.5,18C 79.9233,15.863 79.59,13.6963 79.5,11.5C 81.0109,13.4758 81.8442,15.8091 82,18.5C 82.3535,23.338 82.5202,28.0047 82.5,32.5C 83.7038,24.5057 84.7038,16.5057 85.5,8.5C 85.1373,7.81654 84.8039,7.14987 84.5,6.5 Z"/></g>
<g><path style="opacity:1" fill="#447057" d="M 32.5,23.5 C 35.0545,24.388 37.7212,24.7214 40.5,24.5C 40.5,24.8333 40.5,25.1667 40.5,25.5C 38.8333,25.5 37.1667,25.5 35.5,25.5C 35.4754,29.1398 37.142,31.4731 40.5,32.5C 40.4431,33.609 40.1098,34.609 39.5,35.5C 38.448,35.6495 37.448,35.4828 36.5,35C 33.2648,31.9224 31.9314,28.0891 32.5,23.5 Z"/></g>
<g><path style="opacity:1" fill="#ad9937" d="M 41.5,26.5 C 43.6977,26.4088 44.0311,27.0755 42.5,28.5C 42.1437,31.5641 42.9771,34.2307 45,36.5C 45.3826,35.944 45.8826,35.6107 46.5,35.5C 48.1667,35.5 49.8333,35.5 51.5,35.5C 52.8221,35.67 53.9887,35.3366 55,34.5C 55.4828,35.448 55.6495,36.448 55.5,37.5C 52.2234,37.2161 49.0567,37.5495 46,38.5C 45.3013,40.0738 45.6346,41.4071 47,42.5C 49.5157,40.1899 52.1823,40.1899 55,42.5C 56.1618,41.8132 57.3284,41.6466 58.5,42C 55.3078,44.0282 52.6411,46.5282 50.5,49.5C 49.7175,44.5665 47.0508,43.2332 42.5,45.5C 42.7845,47.4147 42.4511,49.0813 41.5,50.5C 41.7678,48.901 41.4345,47.5676 40.5,46.5C 40.2495,42.9322 39.9162,39.2656 39.5,35.5C 40.1098,34.609 40.4431,33.609 40.5,32.5C 41.1495,30.5648 41.4828,28.5648 41.5,26.5 Z"/></g>
<g><path style="opacity:1" fill="#5f573a" d="M 51.5,35.5 C 49.8333,35.5 48.1667,35.5 46.5,35.5C 46.3893,34.8826 46.056,34.3826 45.5,34C 46.7313,28.013 47.5646,28.1797 48,34.5C 49.7565,33.015 50.9232,33.3484 51.5,35.5 Z"/></g>
<g><path style="opacity:1" fill="#b09d35" d="M 59.5,22.5 C 61.2371,25.008 62.0704,28.008 62,31.5C 62.9192,29.6329 63.4192,27.6329 63.5,25.5C 64.4853,27.772 65.3187,30.1053 66,32.5C 66.1862,29.9644 66.6862,27.631 67.5,25.5C 67.1936,28.3854 67.5269,31.0521 68.5,33.5C 68.8333,34.5 69.5,35.1667 70.5,35.5C 73.0907,36.9913 74.0907,39.3247 73.5,42.5C 71.9505,43.4408 70.2838,44.1075 68.5,44.5C 67.391,44.5569 66.391,44.8902 65.5,45.5C 65.1583,44.6618 64.4916,44.3284 63.5,44.5C 60.0859,37.6678 58.7526,30.3345 59.5,22.5 Z"/></g>
<g><path style="opacity:1" fill="#e9efde" d="M 80.5,39.5 C 80.6621,41.5273 80.4955,43.5273 80,45.5C 78.2658,43.5494 76.0991,42.5494 73.5,42.5C 74.0907,39.3247 73.0907,36.9913 70.5,35.5C 72.4008,35.5668 74.2341,35.2335 76,34.5C 78.0252,35.8088 79.5252,37.4755 80.5,39.5 Z"/></g>
<g><path style="opacity:1" fill="#c6280c" d="M 79.5,63.5 C 78.7375,64.2679 77.7375,64.7679 76.5,65C 77.3567,65.6891 78.0233,66.5224 78.5,67.5C 77.1667,69.5 75.5,71.1667 73.5,72.5C 75.5343,73.8322 77.5343,75.1656 79.5,76.5C 78.4019,77.397 78.4019,78.2303 79.5,79C 76.876,81.7644 74.2093,84.2644 71.5,86.5C 70.8333,85.8333 70.1667,85.1667 69.5,84.5C 67.8333,84.5 66.1667,84.5 64.5,84.5C 62.5,84.5 60.5,84.5 58.5,84.5C 58.1667,84.5 57.8333,84.5 57.5,84.5C 56.5041,84.4142 55.6708,84.7476 55,85.5C 53.5787,87.4048 52.412,89.4048 51.5,91.5C 44.7751,97.2228 38.7751,103.556 33.5,110.5C 29.5253,114.021 29.8587,117.354 34.5,120.5C 34.2907,121.086 33.9574,121.586 33.5,122C 35.1932,122.847 36.8599,123.68 38.5,124.5C 38.1583,125.338 37.4916,125.672 36.5,125.5C 33.383,125.358 30.883,124.024 29,121.5C 28.2185,116.083 28.3852,110.75 29.5,105.5C 30.2625,104.732 31.2625,104.232 32.5,104C 30.7148,102.837 28.7148,102.17 26.5,102C 30.1112,101.233 33.1112,99.3997 35.5,96.5C 33.4657,95.1678 31.4657,93.8344 29.5,92.5C 29.7086,91.0783 30.2086,89.745 31,88.5C 33.7107,86.951 35.8774,84.951 37.5,82.5C 38.1667,83.1667 38.8333,83.8333 39.5,84.5C 41.1667,84.5 42.8333,84.5 44.5,84.5C 46.5,84.5 48.5,84.5 50.5,84.5C 50.8333,84.5 51.1667,84.5 51.5,84.5C 59.6945,75.8028 68.1945,67.1362 77,58.5C 79.1615,54.1521 78.9948,49.9854 76.5,46C 77.9961,45.4926 79.1627,45.9926 80,47.5C 80.7335,52.8851 80.5668,58.2185 79.5,63.5 Z"/></g>
<g><path style="opacity:1" fill="#ec4339" d="M 40.5,46.5 C 41.4345,47.5676 41.7678,48.901 41.5,50.5C 40.391,50.4431 39.391,50.1098 38.5,49.5C 38.7822,48.2223 39.4489,47.2223 40.5,46.5 Z"/></g>
<g><path style="opacity:1" fill="#b12810" d="M 9.5,66.5 C 14.3308,61.8371 19.3308,57.3371 24.5,53C 27.0496,51.5584 29.7163,50.3917 32.5,49.5C 33.087,50.2334 33.087,51.2334 32.5,52.5C 31.1779,52.33 30.0113,52.6634 29,53.5C 27.8512,56.3926 27.3512,59.3926 27.5,62.5C 26.8501,62.1961 26.1835,61.8627 25.5,61.5C 21.4912,67.1923 19.1579,73.5256 18.5,80.5C 15.5448,80.9807 13.2115,82.4807 11.5,85C 13.4412,87.4536 15.7746,89.287 18.5,90.5C 18.7811,94.1879 19.2811,97.8546 20,101.5C 21.6667,102.733 23.1667,104.067 24.5,105.5C 24.8226,109.226 24.4892,112.893 23.5,116.5C 21.4925,114.992 19.8259,113.158 18.5,111C 17.2068,110.51 15.8734,110.343 14.5,110.5C 12.9826,110.489 11.8159,109.823 11,108.5C 10.0991,105.929 8.7658,103.596 7,101.5C 6.66667,112.167 6.33333,122.833 6,133.5C 5.33333,100.833 5.33333,68.1667 6,35.5C 6.33333,46.8333 6.66667,58.1667 7,69.5C 7.85175,68.4293 8.68509,67.4293 9.5,66.5 Z"/></g>
<g><path style="opacity:1" fill="#3d3ed5" d="M 74.5,48.5 C 75.1098,49.391 75.4431,50.391 75.5,51.5C 74.8333,51.1667 74.1667,50.8333 73.5,50.5C 73.3284,49.5084 73.6618,48.8417 74.5,48.5 Z"/></g>
<g><path style="opacity:1" fill="#7d2519" d="M 38.5,49.5 C 38.5,50.5 38.5,51.5 38.5,52.5C 35.6,52.4078 33.9333,53.7411 33.5,56.5C 33.7678,54.901 33.4345,53.5676 32.5,52.5C 33.087,51.2334 33.087,50.2334 32.5,49.5C 29.7163,50.3917 27.0496,51.5584 24.5,53C 19.3308,57.3371 14.3308,61.8371 9.5,66.5C 15.5157,56.9013 24.0157,50.568 35,47.5C 36.4343,47.8618 37.6009,48.5285 38.5,49.5 Z"/></g>
<g><path style="opacity:1" fill="#d79564" d="M 73.5,50.5 C 74.1667,50.8333 74.8333,51.1667 75.5,51.5C 75.1667,52.1667 74.8333,52.8333 74.5,53.5C 72.5853,53.2155 70.9187,53.5489 69.5,54.5C 67.9731,54.427 66.9731,55.0937 66.5,56.5C 65.7611,56.631 65.0944,56.4643 64.5,56C 66.5566,52.6377 69.5566,50.8044 73.5,50.5 Z"/></g>
<g><path style="opacity:1" fill="#e4d411" d="M 32.5,52.5 C 33.4345,53.5676 33.7678,54.901 33.5,56.5C 34.1738,58.0245 35.1738,59.3578 36.5,60.5C 35.9747,61.1924 35.3081,61.6924 34.5,62C 36.276,65.4411 38.4426,68.6078 41,71.5C 42.3376,76.0403 41.1709,79.707 37.5,82.5C 33.6575,84.0017 29.6575,84.6684 25.5,84.5C 26.9208,81.6569 28.9208,80.3236 31.5,80.5C 32.1667,80.5 32.8333,80.5 33.5,80.5C 38.0984,79.2796 39.4317,76.6129 37.5,72.5C 36.3997,69.1085 34.7331,66.7752 32.5,65.5C 30.8333,65.5 29.1667,65.5 27.5,65.5C 27.5,64.5 27.5,63.5 27.5,62.5C 27.3512,59.3926 27.8512,56.3926 29,53.5C 30.0113,52.6634 31.1779,52.33 32.5,52.5 Z"/></g>
<g><path style="opacity:1" fill="#ec4339" d="M 40.5,56.5 C 40.6716,55.5084 40.3382,54.8417 39.5,54.5C 40.9914,51.7704 42.3248,51.937 43.5,55C 42.4734,55.5133 41.4734,56.0133 40.5,56.5 Z"/></g>
<g><path style="opacity:1" fill="#999591" d="M 50.5,49.5 C 50.5,50.1667 50.5,50.8333 50.5,51.5C 49.1077,49.7274 47.941,47.7274 47,45.5C 45.9326,46.1905 44.7659,46.6905 43.5,47C 44.3081,47.3076 44.9747,47.8076 45.5,48.5C 44.7542,49.7362 44.4208,51.0695 44.5,52.5C 46.1788,52.2852 47.1788,52.9519 47.5,54.5C 47.6309,55.3764 47.2975,56.0431 46.5,56.5C 46.1667,55.8333 45.8333,55.1667 45.5,54.5C 44.5713,55.6888 44.238,57.0222 44.5,58.5C 43.5,58.5 42.5,58.5 41.5,58.5C 41.1667,58.5 40.8333,58.5 40.5,58.5C 40.5,57.8333 40.5,57.1667 40.5,56.5C 41.4734,56.0133 42.4734,55.5133 43.5,55C 42.3248,51.937 40.9914,51.7704 39.5,54.5C 38.6618,54.1583 38.3284,53.4916 38.5,52.5C 38.5,51.5 38.5,50.5 38.5,49.5C 39.391,50.1098 40.391,50.4431 41.5,50.5C 42.4511,49.0813 42.7845,47.4147 42.5,45.5C 47.0508,43.2332 49.7175,44.5665 50.5,49.5 Z"/></g>
<g><path style="opacity:1" fill="#c7260c" d="M 101.5,67.5 C 101.833,67.5 102.167,67.5 102.5,67.5C 102.666,77.5056 102.5,87.5056 102,97.5C 95.9301,106.404 88.4301,113.738 79.5,119.5C 77.901,119.768 76.5676,119.434 75.5,118.5C 75.5,117.833 75.5,117.167 75.5,116.5C 77.2741,117.881 78.7741,117.548 80,115.5C 81.1488,112.607 81.6488,109.607 81.5,106.5C 82.675,106.719 83.675,106.386 84.5,105.5C 87.6955,100.246 89.6955,94.5797 90.5,88.5C 93.4552,88.0193 95.7885,86.5193 97.5,84C 95.5588,81.5464 93.2254,79.713 90.5,78.5C 90.4358,74.7802 89.9358,71.1135 89,67.5C 87.3333,66.2668 85.8333,64.9335 84.5,63.5C 84.1774,59.774 84.5108,56.1073 85.5,52.5C 87.5075,54.0082 89.1741,55.8416 90.5,58C 92.087,58.8624 93.7536,59.5291 95.5,60C 96.6789,63.2094 98.6789,65.7094 101.5,67.5 Z"/></g>
<g><path style="opacity:1" fill="#cfd3cc" d="M 63.5,44.5 C 64.4916,44.3284 65.1583,44.6618 65.5,45.5C 65.5,47.1667 65.5,48.8333 65.5,50.5C 64.1266,50.3433 62.7932,50.51 61.5,51C 62.3366,52.0113 62.67,53.1779 62.5,54.5C 60.2188,54.0773 58.5521,54.744 57.5,56.5C 57.0831,57.1239 56.4164,57.4573 55.5,57.5C 53.292,56.4725 51.292,55.1391 49.5,53.5C 48.8165,53.8627 48.1499,54.1961 47.5,54.5C 47.1788,52.9519 46.1788,52.2852 44.5,52.5C 44.4208,51.0695 44.7542,49.7362 45.5,48.5C 44.9747,47.8076 44.3081,47.3076 43.5,47C 44.7659,46.6905 45.9326,46.1905 47,45.5C 47.941,47.7274 49.1077,49.7274 50.5,51.5C 51.4584,51.9528 52.2917,52.6195 53,53.5C 56.6919,50.6352 60.1919,47.6352 63.5,44.5 Z"/></g>
<g><path style="opacity:1" fill="#755b52" d="M 57.5,56.5 C 58.4013,57.2905 59.0679,58.2905 59.5,59.5C 54.5,59.5 49.5,59.5 44.5,59.5C 44.5,59.1667 44.5,58.8333 44.5,58.5C 44.238,57.0222 44.5713,55.6888 45.5,54.5C 45.8333,55.1667 46.1667,55.8333 46.5,56.5C 47.2975,56.0431 47.6309,55.3764 47.5,54.5C 48.1499,54.1961 48.8165,53.8627 49.5,53.5C 51.292,55.1391 53.292,56.4725 55.5,57.5C 56.4164,57.4573 57.0831,57.1239 57.5,56.5 Z"/></g>
<g><path style="opacity:1" fill="#687b89" d="M 68.5,44.5 C 69.6197,48.7389 70.9531,49.0722 72.5,45.5C 73.9185,46.0047 74.5852,47.0047 74.5,48.5C 73.6618,48.8417 73.3284,49.5084 73.5,50.5C 69.5566,50.8044 66.5566,52.6377 64.5,56C 65.0944,56.4643 65.7611,56.631 66.5,56.5C 67.5676,57.4345 68.901,57.7678 70.5,57.5C 71.0283,58.7206 71.695,59.8873 72.5,61C 71.3333,62.1667 70.1667,63.3333 69,64.5C 68.5776,62.5743 67.4109,61.5743 65.5,61.5C 65.5,60.5 65.5,59.5 65.5,58.5C 64.5,58.5 63.5,58.5 62.5,58.5C 61.609,59.1098 60.609,59.4431 59.5,59.5C 59.0679,58.2905 58.4013,57.2905 57.5,56.5C 58.5521,54.744 60.2188,54.0773 62.5,54.5C 62.67,53.1779 62.3366,52.0113 61.5,51C 62.7932,50.51 64.1266,50.3433 65.5,50.5C 65.5,48.8333 65.5,47.1667 65.5,45.5C 66.391,44.8902 67.391,44.5569 68.5,44.5 Z"/></g>
<g><path style="opacity:1" fill="#ed6140" d="M 69.5,54.5 C 70.1667,55.1667 70.8333,55.8333 71.5,56.5C 70.8333,56.5 70.5,56.8333 70.5,57.5C 68.901,57.7678 67.5676,57.4345 66.5,56.5C 66.9731,55.0937 67.9731,54.427 69.5,54.5 Z"/></g>
<g><path style="opacity:1" fill="#647b91" d="M 74.5,53.5 C 76.5757,58.4157 75.5757,59.4157 71.5,56.5C 70.8333,55.8333 70.1667,55.1667 69.5,54.5C 70.9187,53.5489 72.5853,53.2155 74.5,53.5 Z"/></g>
<g><path style="opacity:1" fill="#594644" d="M 38.5,52.5 C 38.3284,53.4916 38.6618,54.1583 39.5,54.5C 40.3382,54.8417 40.6716,55.5084 40.5,56.5C 40.5,57.1667 40.5,57.8333 40.5,58.5C 41.3092,64.4428 42.9759,70.1095 45.5,75.5C 42.7693,77.9464 40.7693,80.9464 39.5,84.5C 38.8333,83.8333 38.1667,83.1667 37.5,82.5C 41.1709,79.707 42.3376,76.0403 41,71.5C 38.4426,68.6078 36.276,65.4411 34.5,62C 35.3081,61.6924 35.9747,61.1924 36.5,60.5C 35.1738,59.3578 34.1738,58.0245 33.5,56.5C 33.9333,53.7411 35.6,52.4078 38.5,52.5 Z"/></g>
<g><path style="opacity:1" fill="#ef2f2d" d="M 41.5,58.5 C 42.5,58.5 43.5,58.5 44.5,58.5C 44.5,58.8333 44.5,59.1667 44.5,59.5C 44.5,59.8333 44.5,60.1667 44.5,60.5C 43.791,61.404 42.791,61.7373 41.5,61.5C 41.5,60.5 41.5,59.5 41.5,58.5 Z"/></g>
<g><path style="opacity:1" fill="#ec4339" d="M 62.5,58.5 C 63.5,58.5 64.5,58.5 65.5,58.5C 65.5,59.5 65.5,60.5 65.5,61.5C 64.5,61.5 63.5,61.5 62.5,61.5C 62.5,60.5 62.5,59.5 62.5,58.5 Z"/></g>
<g><path style="opacity:1" fill="#7b2c1c" d="M 80.5,39.5 C 82.2161,39.6287 83.8828,39.962 85.5,40.5C 85.335,43.8499 85.5017,47.1832 86,50.5C 88.1896,52.3884 90.0229,54.5551 91.5,57C 94.0336,57.5163 96.2002,58.683 98,60.5C 98.9888,62.9698 100.155,65.3032 101.5,67.5C 98.6789,65.7094 96.6789,63.2094 95.5,60C 93.7536,59.5291 92.087,58.8624 90.5,58C 89.1741,55.8416 87.5075,54.0082 85.5,52.5C 84.5108,56.1073 84.1774,59.774 84.5,63.5C 82.8333,63.5 81.1667,63.5 79.5,63.5C 80.5668,58.2185 80.7335,52.8851 80,47.5C 79.1627,45.9926 77.9961,45.4926 76.5,46C 78.9948,49.9854 79.1615,54.1521 77,58.5C 68.1945,67.1362 59.6945,75.8028 51.5,84.5C 52.6861,82.2078 52.6861,79.8744 51.5,77.5C 51.8333,76.5 52.5,75.8333 53.5,75.5C 54.4359,80.3742 56.1026,80.3742 58.5,75.5C 57.7542,74.2638 57.4208,72.9305 57.5,71.5C 59.7126,74.2399 61.0459,73.7399 61.5,70C 61.3158,68.6244 60.6491,67.7911 59.5,67.5C 59.1667,66.8333 58.8333,66.1667 58.5,65.5C 58.5,64.8333 58.5,64.1667 58.5,63.5C 59.1667,63.1667 59.8333,62.8333 60.5,62.5C 61.8017,64.6723 62.9683,67.0056 64,69.5C 66.7218,67.2749 67.2218,64.6082 65.5,61.5C 67.4109,61.5743 68.5776,62.5743 69,64.5C 70.1667,63.3333 71.3333,62.1667 72.5,61C 71.695,59.8873 71.0283,58.7206 70.5,57.5C 70.5,56.8333 70.8333,56.5 71.5,56.5C 75.5757,59.4157 76.5757,58.4157 74.5,53.5C 74.8333,52.8333 75.1667,52.1667 75.5,51.5C 75.4431,50.391 75.1098,49.391 74.5,48.5C 74.5852,47.0047 73.9185,46.0047 72.5,45.5C 70.9531,49.0722 69.6197,48.7389 68.5,44.5C 70.2838,44.1075 71.9505,43.4408 73.5,42.5C 76.0991,42.5494 78.2658,43.5494 80,45.5C 80.4955,43.5273 80.6621,41.5273 80.5,39.5 Z"/></g>
<g><path style="opacity:1" fill="#e9da23" d="M 62.5,58.5 C 62.5,59.5 62.5,60.5 62.5,61.5C 61.5084,61.3284 60.8417,61.6618 60.5,62.5C 59.8333,62.8333 59.1667,63.1667 58.5,63.5C 54.2648,64.436 49.9315,64.7693 45.5,64.5C 45.5,64.1667 45.5,63.8333 45.5,63.5C 45.7373,62.209 45.404,61.209 44.5,60.5C 44.5,60.1667 44.5,59.8333 44.5,59.5C 49.5,59.5 54.5,59.5 59.5,59.5C 60.609,59.4431 61.609,59.1098 62.5,58.5 Z"/></g>
<g><path style="opacity:1" fill="#cab677" d="M 40.5,58.5 C 40.8333,58.5 41.1667,58.5 41.5,58.5C 41.5,59.5 41.5,60.5 41.5,61.5C 42.791,61.7373 43.791,61.404 44.5,60.5C 45.404,61.209 45.7373,62.209 45.5,63.5C 42.1155,64.63 42.1155,66.2967 45.5,68.5C 45.8764,67.3152 45.8764,65.9819 45.5,64.5C 49.9315,64.7693 54.2648,64.436 58.5,63.5C 58.5,64.1667 58.5,64.8333 58.5,65.5C 57.5084,65.3284 56.8417,65.6618 56.5,66.5C 55.8333,66.8333 55.1667,67.1667 54.5,67.5C 52.7211,65.6565 50.3878,64.9898 47.5,65.5C 47.5,66.8333 47.5,68.1667 47.5,69.5C 43.69,70.2458 43.69,71.2458 47.5,72.5C 45.9689,73.9245 46.3023,74.5912 48.5,74.5C 47.7659,75.7079 47.4326,77.0413 47.5,78.5C 46.5987,77.7095 45.9321,76.7095 45.5,75.5C 42.9759,70.1095 41.3092,64.4428 40.5,58.5 Z"/></g>
<g><path style="opacity:1" fill="#628a9f" d="M 60.5,62.5 C 60.8417,61.6618 61.5084,61.3284 62.5,61.5C 63.5,61.5 64.5,61.5 65.5,61.5C 67.2218,64.6082 66.7218,67.2749 64,69.5C 62.9683,67.0056 61.8017,64.6723 60.5,62.5 Z"/></g>
<g><path style="opacity:1" fill="#de3851" d="M 45.5,63.5 C 45.5,63.8333 45.5,64.1667 45.5,64.5C 45.8764,65.9819 45.8764,67.3152 45.5,68.5C 42.1155,66.2967 42.1155,64.63 45.5,63.5 Z"/></g>
<g><path style="opacity:1" fill="#e7d5b8" d="M 79.5,63.5 C 81.1667,63.5 82.8333,63.5 84.5,63.5C 85.8333,64.9335 87.3333,66.2668 89,67.5C 89.9358,71.1135 90.4358,74.7802 90.5,78.5C 90.0334,81.2974 88.3667,82.6308 85.5,82.5C 83.4848,80.424 81.4848,78.424 79.5,76.5C 77.5343,75.1656 75.5343,73.8322 73.5,72.5C 75.5,71.1667 77.1667,69.5 78.5,67.5C 78.0233,66.5224 77.3567,65.6891 76.5,65C 77.7375,64.7679 78.7375,64.2679 79.5,63.5 Z"/></g>
<g><path style="opacity:1" fill="#3733e0" d="M 56.5,66.5 C 56.8417,65.6618 57.5084,65.3284 58.5,65.5C 58.8333,66.1667 59.1667,66.8333 59.5,67.5C 58.391,67.4431 57.391,67.1098 56.5,66.5 Z"/></g>
<g><path style="opacity:1" fill="#ebd9bc" d="M 27.5,62.5 C 27.5,63.5 27.5,64.5 27.5,65.5C 29.1667,65.5 30.8333,65.5 32.5,65.5C 32.9138,67.8083 33.2471,70.1417 33.5,72.5C 33.2937,75.3356 32.627,78.0023 31.5,80.5C 28.9208,80.3236 26.9208,81.6569 25.5,84.5C 24.8333,84.5 24.1667,84.5 23.5,84.5C 20.6333,84.6308 18.9666,83.2974 18.5,80.5C 19.1579,73.5256 21.4912,67.1923 25.5,61.5C 26.1835,61.8627 26.8501,62.1961 27.5,62.5 Z"/></g>
<g><path style="opacity:1" fill="#593533" d="M 54.5,67.5 C 53.5,67.8333 52.8333,68.5 52.5,69.5C 51.5178,70.1408 50.5178,70.8075 49.5,71.5C 48.8182,70.7573 48.1515,70.0906 47.5,69.5C 47.5,68.1667 47.5,66.8333 47.5,65.5C 50.3878,64.9898 52.7211,65.6565 54.5,67.5 Z"/></g>
<g><path style="opacity:1" fill="#316884" d="M 59.5,67.5 C 60.6491,67.7911 61.3158,68.6244 61.5,70C 61.0459,73.7399 59.7126,74.2399 57.5,71.5C 57.7329,69.9382 58.3995,68.6049 59.5,67.5 Z"/></g>
<g><path style="opacity:1" fill="#ef2b2a" d="M 47.5,69.5 C 47.5,70.5 47.5,71.5 47.5,72.5C 43.69,71.2458 43.69,70.2458 47.5,69.5 Z"/></g>
<g><path style="opacity:1" fill="#2d7ca0" d="M 57.5,71.5 C 57.4208,72.9305 57.7542,74.2638 58.5,75.5C 56.1026,80.3742 54.4359,80.3742 53.5,75.5C 54.5,73.8333 55.8333,72.5 57.5,71.5 Z"/></g>
<g><path style="opacity:1" fill="#3936de" d="M 47.5,72.5 C 48.3382,72.8417 48.6716,73.5084 48.5,74.5C 46.3023,74.5912 45.9689,73.9245 47.5,72.5 Z"/></g>
<g><path style="opacity:1" fill="#e4945c" d="M 56.5,66.5 C 57.391,67.1098 58.391,67.4431 59.5,67.5C 58.3995,68.6049 57.7329,69.9382 57.5,71.5C 55.8333,72.5 54.5,73.8333 53.5,75.5C 52.5,75.8333 51.8333,76.5 51.5,77.5C 50.8333,77.8333 50.1667,78.1667 49.5,78.5C 48.8333,78.5 48.1667,78.5 47.5,78.5C 47.4326,77.0413 47.7659,75.7079 48.5,74.5C 48.6716,73.5084 48.3382,72.8417 47.5,72.5C 47.5,71.5 47.5,70.5 47.5,69.5C 48.1515,70.0906 48.8182,70.7573 49.5,71.5C 50.5178,70.8075 51.5178,70.1408 52.5,69.5C 52.8333,68.5 53.5,67.8333 54.5,67.5C 55.1667,67.1667 55.8333,66.8333 56.5,66.5 Z"/></g>
<g><path style="opacity:1" fill="#2e26ec" d="M 49.5,73.5 C 50.2891,73.7828 50.9558,74.2828 51.5,75C 50.184,75.5281 49.5173,75.0281 49.5,73.5 Z"/></g>
<g><path style="opacity:1" fill="#3733e0" d="M 52.5,69.5 C 53.7562,69.4614 54.7562,69.9614 55.5,71C 54.0024,71.5847 53.0024,71.0847 52.5,69.5 Z"/></g>
<g><path style="opacity:1" fill="#3096bf" d="M 45.5,75.5 C 45.9321,76.7095 46.5987,77.7095 47.5,78.5C 46.0956,80.2546 45.0956,82.2546 44.5,84.5C 42.8333,84.5 41.1667,84.5 39.5,84.5C 40.7693,80.9464 42.7693,77.9464 45.5,75.5 Z"/></g>
<g><path style="opacity:1" fill="#4f2c17" d="M 37.5,72.5 C 39.4317,76.6129 38.0984,79.2796 33.5,80.5C 33.7936,77.2459 35.127,74.5792 37.5,72.5 Z"/></g>
<g><path style="opacity:1" fill="#578299" d="M 37.5,72.5 C 35.127,74.5792 33.7936,77.2459 33.5,80.5C 32.8333,80.5 32.1667,80.5 31.5,80.5C 32.627,78.0023 33.2937,75.3356 33.5,72.5C 33.2471,70.1417 32.9138,67.8083 32.5,65.5C 34.7331,66.7752 36.3997,69.1085 37.5,72.5 Z"/></g>
<g><path style="opacity:1" fill="#3993bc" d="M 51.5,77.5 C 52.6861,79.8744 52.6861,82.2078 51.5,84.5C 51.1667,84.5 50.8333,84.5 50.5,84.5C 50.7035,82.6096 50.0368,81.1096 48.5,80C 49.056,79.6174 49.3893,79.1174 49.5,78.5C 50.1667,78.1667 50.8333,77.8333 51.5,77.5 Z"/></g>
<g><path style="opacity:1" fill="#408eae" d="M 90.5,78.5 C 93.2254,79.713 95.5588,81.5464 97.5,84C 95.7885,86.5193 93.4552,88.0193 90.5,88.5C 90.0334,85.7026 88.3667,84.3692 85.5,84.5C 85.5,83.8333 85.5,83.1667 85.5,82.5C 88.3667,82.6308 90.0334,81.2974 90.5,78.5 Z"/></g>
<g><path style="opacity:1" fill="#408eae" d="M 18.5,80.5 C 18.9666,83.2974 20.6333,84.6308 23.5,84.5C 23.5,85.1667 23.5,85.8333 23.5,86.5C 20.6333,86.3692 18.9666,87.7026 18.5,90.5C 15.7746,89.287 13.4412,87.4536 11.5,85C 13.2115,82.4807 15.5448,80.9807 18.5,80.5 Z"/></g>
<g><path style="opacity:1" fill="#f1ea1c" d="M 47.5,78.5 C 48.1667,78.5 48.8333,78.5 49.5,78.5C 49.3893,79.1174 49.056,79.6174 48.5,80C 50.0368,81.1096 50.7035,82.6096 50.5,84.5C 48.5,84.5 46.5,84.5 44.5,84.5C 45.0956,82.2546 46.0956,80.2546 47.5,78.5 Z"/></g>
<g><path style="opacity:1" fill="#812d22" d="M 79.5,76.5 C 81.4848,78.424 83.4848,80.424 85.5,82.5C 85.5,83.1667 85.5,83.8333 85.5,84.5C 84.8333,84.5 84.1667,84.5 83.5,84.5C 79.3425,84.3316 75.3425,84.9983 71.5,86.5C 74.2093,84.2644 76.876,81.7644 79.5,79C 78.4019,78.2303 78.4019,77.397 79.5,76.5 Z"/></g>
<g><path style="opacity:1" fill="#7b3025" d="M 37.5,82.5 C 35.8774,84.951 33.7107,86.951 31,88.5C 30.2086,89.745 29.7086,91.0783 29.5,92.5C 27.5152,90.576 25.5152,88.576 23.5,86.5C 23.5,85.8333 23.5,85.1667 23.5,84.5C 24.1667,84.5 24.8333,84.5 25.5,84.5C 29.6575,84.6684 33.6575,84.0017 37.5,82.5 Z"/></g>
<g><path style="opacity:1" fill="#3992ba" d="M 57.5,84.5 C 57.8333,84.5 58.1667,84.5 58.5,84.5C 58.2965,86.3904 58.9632,87.8904 60.5,89C 59.944,89.3826 59.6107,89.8826 59.5,90.5C 58.8333,90.8333 58.1667,91.1667 57.5,91.5C 56.3139,89.1256 56.3139,86.7922 57.5,84.5 Z"/></g>
<g><path style="opacity:1" fill="#efe725" d="M 58.5,84.5 C 60.5,84.5 62.5,84.5 64.5,84.5C 63.9044,86.7454 62.9044,88.7454 61.5,90.5C 60.8333,90.5 60.1667,90.5 59.5,90.5C 59.6107,89.8826 59.944,89.3826 60.5,89C 58.9632,87.8904 58.2965,86.3904 58.5,84.5 Z"/></g>
<g><path style="opacity:1" fill="#3095be" d="M 64.5,84.5 C 66.1667,84.5 67.8333,84.5 69.5,84.5C 68.2411,88.0246 66.2411,91.0246 63.5,93.5C 63.0679,92.2905 62.4013,91.2905 61.5,90.5C 62.9044,88.7454 63.9044,86.7454 64.5,84.5 Z"/></g>
<g><path style="opacity:1" fill="#ebdabc" d="M 83.5,84.5 C 84.1667,84.5 84.8333,84.5 85.5,84.5C 88.3667,84.3692 90.0334,85.7026 90.5,88.5C 89.6955,94.5797 87.6955,100.246 84.5,105.5C 83.675,106.386 82.675,106.719 81.5,106.5C 81.5,105.5 81.5,104.5 81.5,103.5C 79.8333,103.5 78.1667,103.5 76.5,103.5C 76.0862,101.192 75.7529,98.8583 75.5,96.5C 75.7063,93.6644 76.373,90.9977 77.5,88.5C 80.0792,88.6764 82.0792,87.3431 83.5,84.5 Z"/></g>
<g><path style="opacity:1" fill="#e8d6b9" d="M 23.5,86.5 C 25.5152,88.576 27.5152,90.576 29.5,92.5C 31.4657,93.8344 33.4657,95.1678 35.5,96.5C 33.1112,99.3997 30.1112,101.233 26.5,102C 28.7148,102.17 30.7148,102.837 32.5,104C 31.2625,104.232 30.2625,104.732 29.5,105.5C 27.8333,105.5 26.1667,105.5 24.5,105.5C 23.1667,104.067 21.6667,102.733 20,101.5C 19.2811,97.8546 18.7811,94.1879 18.5,90.5C 18.9666,87.7026 20.6333,86.3692 23.5,86.5 Z"/></g>
<g><path style="opacity:1" fill="#5c1e14" d="M 57.5,84.5 C 56.3139,86.7922 56.3139,89.1256 57.5,91.5C 57.1667,92.5 56.5,93.1667 55.5,93.5C 55.191,89.551 53.8577,88.8843 51.5,91.5C 52.412,89.4048 53.5787,87.4048 55,85.5C 55.6708,84.7476 56.5041,84.4142 57.5,84.5 Z"/></g>
<g><path style="opacity:1" fill="#208fba" d="M 55.5,93.5 C 54.8333,94.8333 53.8333,95.8333 52.5,96.5C 51.962,94.8828 51.6287,93.2161 51.5,91.5C 53.8577,88.8843 55.191,89.551 55.5,93.5 Z"/></g>
<g><path style="opacity:1" fill="#532f1e" d="M 69.5,84.5 C 70.1667,85.1667 70.8333,85.8333 71.5,86.5C 68.2942,88.5843 66.9609,91.5843 67.5,95.5C 66.8333,95.8333 66.1667,96.1667 65.5,96.5C 64.0937,96.0269 63.427,95.0269 63.5,93.5C 66.2411,91.0246 68.2411,88.0246 69.5,84.5 Z"/></g>
<g><path style="opacity:1" fill="#e3925d" d="M 59.5,90.5 C 60.1667,90.5 60.8333,90.5 61.5,90.5C 62.4013,91.2905 63.0679,92.2905 63.5,93.5C 63.427,95.0269 64.0937,96.0269 65.5,96.5C 65.4386,98.5922 64.4386,100.092 62.5,101C 63.448,101.483 64.448,101.649 65.5,101.5C 67.0974,103.756 66.4307,105.09 63.5,105.5C 63.1788,103.952 62.1788,103.285 60.5,103.5C 61.8796,101.281 61.5463,99.281 59.5,97.5C 58.4777,97.8555 57.811,98.5222 57.5,99.5C 57.1667,99.5 56.8333,99.5 56.5,99.5C 55.3995,100.605 54.7329,101.938 54.5,103.5C 53.8333,103.167 53.1667,102.833 52.5,102.5C 51.609,101.89 50.609,101.557 49.5,101.5C 49.8333,100.833 50.1667,100.167 50.5,99.5C 51.4013,98.7095 52.0679,97.7095 52.5,96.5C 53.8333,95.8333 54.8333,94.8333 55.5,93.5C 56.5,93.1667 57.1667,92.5 57.5,91.5C 58.1667,91.1667 58.8333,90.8333 59.5,90.5 Z"/></g>
<g><path style="opacity:1" fill="#51291a" d="M 76.5,88.5 C 75.3197,91.5396 73.653,94.2063 71.5,96.5C 69.6574,91.9584 71.3241,89.2918 76.5,88.5 Z"/></g>
<g><path style="opacity:1" fill="#2e26ec" d="M 57.5,94.5 C 58.0768,93.2267 58.7435,93.2267 59.5,94.5C 59.0302,95.463 58.3635,95.463 57.5,94.5 Z"/></g>
<g><path style="opacity:1" fill="#4f839e" d="M 76.5,88.5 C 76.8333,88.5 77.1667,88.5 77.5,88.5C 76.373,90.9977 75.7063,93.6644 75.5,96.5C 75.7529,98.8583 76.0862,101.192 76.5,103.5C 74.7529,101.858 73.0862,99.5249 71.5,96.5C 73.653,94.2063 75.3197,91.5396 76.5,88.5 Z"/></g>
<g><path style="opacity:1" fill="#3936de" d="M 60.5,94.5 C 63.0009,94.5109 63.1676,95.1776 61,96.5C 60.5357,95.9056 60.369,95.2389 60.5,94.5 Z"/></g>
<g><path style="opacity:1" fill="#4d77a4" d="M 67.5,95.5 C 67.8333,96.8333 68.1667,98.1667 68.5,99.5C 66.9731,99.427 65.9731,100.094 65.5,101.5C 64.448,101.649 63.448,101.483 62.5,101C 64.4386,100.092 65.4386,98.5922 65.5,96.5C 66.1667,96.1667 66.8333,95.8333 67.5,95.5 Z"/></g>
<g><path style="opacity:1" fill="#2088b2" d="M 50.5,99.5 C 50.1667,100.167 49.8333,100.833 49.5,101.5C 49.1667,101.5 48.8333,101.5 48.5,101.5C 47.1448,99.3196 47.3115,97.3196 49,95.5C 49.7914,96.745 50.2914,98.0783 50.5,99.5 Z"/></g>
<g><path style="opacity:1" fill="#3733e0" d="M 56.5,99.5 C 55.2438,99.5386 54.2438,99.0386 53.5,98C 54.9976,97.4153 55.9976,97.9153 56.5,99.5 Z"/></g>
<g><path style="opacity:1" fill="#24546a" d="M 56.5,99.5 C 56.8333,99.5 57.1667,99.5 57.5,99.5C 57.5,100.833 57.5,102.167 57.5,103.5C 56.5,103.5 55.5,103.5 54.5,103.5C 54.7329,101.938 55.3995,100.605 56.5,99.5 Z"/></g>
<g><path style="opacity:1" fill="#1b8cb8" d="M 46.5,103.5 C 46.1667,104.5 45.5,105.167 44.5,105.5C 41.6986,103.383 41.8653,101.383 45,99.5C 45.4101,100.901 45.9101,102.234 46.5,103.5 Z"/></g>
<g><path style="opacity:1" fill="#3733e0" d="M 49.5,101.5 C 50.609,101.557 51.609,101.89 52.5,102.5C 52.1583,103.338 51.4916,103.672 50.5,103.5C 50.1667,102.833 49.8333,102.167 49.5,101.5 Z"/></g>
<g><path style="opacity:1" fill="#297799" d="M 69.5,100.5 C 70.5,100.833 71.1667,101.5 71.5,102.5C 71.047,104.565 70.047,106.232 68.5,107.5C 66.9658,104.856 67.2991,102.523 69.5,100.5 Z"/></g>
<g><path style="opacity:1" fill="#462722" d="M 60.5,103.5 C 59.5,103.5 58.5,103.5 57.5,103.5C 57.5,102.167 57.5,100.833 57.5,99.5C 57.811,98.5222 58.4777,97.8555 59.5,97.5C 61.5463,99.281 61.8796,101.281 60.5,103.5 Z"/></g>
<g><path style="opacity:1" fill="#e4d313" d="M 83.5,84.5 C 82.0792,87.3431 80.0792,88.6764 77.5,88.5C 77.1667,88.5 76.8333,88.5 76.5,88.5C 71.3241,89.2918 69.6574,91.9584 71.5,96.5C 73.0862,99.5249 74.7529,101.858 76.5,103.5C 78.1667,103.5 79.8333,103.5 81.5,103.5C 81.5,104.5 81.5,105.5 81.5,106.5C 81.6488,109.607 81.1488,112.607 80,115.5C 78.7741,117.548 77.2741,117.881 75.5,116.5C 75.8649,113.254 74.8649,110.588 72.5,108.5C 73.0253,107.808 73.6919,107.308 74.5,107C 73.6006,105.348 72.6006,103.848 71.5,102.5C 71.1667,101.5 70.5,100.833 69.5,100.5C 69.5,99.8333 69.1667,99.5 68.5,99.5C 68.1667,98.1667 67.8333,96.8333 67.5,95.5C 66.9609,91.5843 68.2942,88.5843 71.5,86.5C 75.3425,84.9983 79.3425,84.3316 83.5,84.5 Z"/></g>
<g><path style="opacity:1" fill="#c0aa7c" d="M 68.5,99.5 C 69.1667,99.5 69.5,99.8333 69.5,100.5C 67.2991,102.523 66.9658,104.856 68.5,107.5C 68.9926,109.806 69.3259,112.139 69.5,114.5C 68.596,113.791 68.2627,112.791 68.5,111.5C 65.4017,111.413 65.0684,111.913 67.5,113C 66.9056,113.464 66.2389,113.631 65.5,113.5C 65.1667,113.5 64.8333,113.5 64.5,113.5C 64.5,112.5 64.5,111.5 64.5,110.5C 65.5,110.5 66.5,110.5 67.5,110.5C 67.5,109.5 67.5,108.5 67.5,107.5C 66.209,107.263 65.209,107.596 64.5,108.5C 63.596,107.791 63.2627,106.791 63.5,105.5C 66.4307,105.09 67.0974,103.756 65.5,101.5C 65.9731,100.094 66.9731,99.427 68.5,99.5 Z"/></g>
<g><path style="opacity:1" fill="#803b2b" d="M 24.5,105.5 C 26.1667,105.5 27.8333,105.5 29.5,105.5C 28.3852,110.75 28.2185,116.083 29,121.5C 30.883,124.024 33.383,125.358 36.5,125.5C 36.5,126.167 36.1667,126.5 35.5,126.5C 32.9009,126.451 30.7342,125.451 29,123.5C 28.5045,125.473 28.3379,127.473 28.5,129.5C 26.7839,129.371 25.1172,129.038 23.5,128.5C 24.8228,120.2 21.8228,114.2 14.5,110.5C 15.8734,110.343 17.2068,110.51 18.5,111C 19.8259,113.158 21.4925,114.992 23.5,116.5C 24.4892,112.893 24.8226,109.226 24.5,105.5 Z"/></g>
<g><path style="opacity:1" fill="#1b8dba" d="M 42.5,107.5 C 41.5,108.833 40.5,110.167 39.5,111.5C 39.1667,111.5 38.8333,111.5 38.5,111.5C 38.0679,110.29 37.4013,109.29 36.5,108.5C 37.4577,107.038 38.6244,105.705 40,104.5C 40.3768,105.942 41.2101,106.942 42.5,107.5 Z"/></g>
<g><path style="opacity:1" fill="#e7d81e" d="M 52.5,102.5 C 53.1667,102.833 53.8333,103.167 54.5,103.5C 55.5,103.5 56.5,103.5 57.5,103.5C 58.5,103.5 59.5,103.5 60.5,103.5C 62.1788,103.285 63.1788,103.952 63.5,105.5C 63.2627,106.791 63.596,107.791 64.5,108.5C 64.5,108.833 64.5,109.167 64.5,109.5C 59.8333,109.5 55.1667,109.5 50.5,109.5C 49.0413,109.433 47.7079,109.766 46.5,110.5C 48.0862,108.33 49.4196,105.996 50.5,103.5C 51.4916,103.672 52.1583,103.338 52.5,102.5 Z"/></g>
<g><path style="opacity:1" fill="#d8694c" d="M 48.5,101.5 C 48.8333,101.5 49.1667,101.5 49.5,101.5C 49.8333,102.167 50.1667,102.833 50.5,103.5C 49.4196,105.996 48.0862,108.33 46.5,110.5C 48.0251,113.457 47.3584,114.124 44.5,112.5C 43.962,110.883 43.6287,109.216 43.5,107.5C 43.8333,106.833 44.1667,106.167 44.5,105.5C 45.5,105.167 46.1667,104.5 46.5,103.5C 47.5,103.167 48.1667,102.5 48.5,101.5 Z"/></g>
<g><path style="opacity:1" fill="#ef2f2d" d="M 64.5,110.5 C 64.5,110.167 64.5,109.833 64.5,109.5C 64.5,109.167 64.5,108.833 64.5,108.5C 65.209,107.596 66.209,107.263 67.5,107.5C 67.5,108.5 67.5,109.5 67.5,110.5C 66.5,110.5 65.5,110.5 64.5,110.5 Z"/></g>
<g><path style="opacity:1" fill="#672016" d="M 51.5,91.5 C 51.6287,93.2161 51.962,94.8828 52.5,96.5C 52.0679,97.7095 51.4013,98.7095 50.5,99.5C 50.2914,98.0783 49.7914,96.745 49,95.5C 47.3115,97.3196 47.1448,99.3196 48.5,101.5C 48.1667,102.5 47.5,103.167 46.5,103.5C 45.9101,102.234 45.4101,100.901 45,99.5C 41.8653,101.383 41.6986,103.383 44.5,105.5C 44.1667,106.167 43.8333,106.833 43.5,107.5C 43.1667,107.5 42.8333,107.5 42.5,107.5C 41.2101,106.942 40.3768,105.942 40,104.5C 38.6244,105.705 37.4577,107.038 36.5,108.5C 36.631,109.239 36.4643,109.906 36,110.5C 35.2303,109.402 34.397,109.402 33.5,110.5C 38.7751,103.556 44.7751,97.2228 51.5,91.5 Z"/></g>
<g><path style="opacity:1" fill="#54352d" d="M 50.5,109.5 C 55.1667,109.5 59.8333,109.5 64.5,109.5C 64.5,109.833 64.5,110.167 64.5,110.5C 64.5,111.5 64.5,112.5 64.5,113.5C 64.44,114.043 64.1067,114.376 63.5,114.5C 62.7506,112.988 61.584,111.988 60,111.5C 57.0695,111.592 54.2362,111.926 51.5,112.5C 50.596,111.791 50.2627,110.791 50.5,109.5 Z"/></g>
<g><path style="opacity:1" fill="#ec5f3e" d="M 38.5,111.5 C 38.8333,111.5 39.1667,111.5 39.5,111.5C 41.3547,111.272 42.1881,111.939 42,113.5C 40.5861,114.413 39.0861,114.413 37.5,113.5C 37.8333,112.833 38.1667,112.167 38.5,111.5 Z"/></g>
<g><path style="opacity:1" fill="#503833" d="M 71.5,102.5 C 72.6006,103.848 73.6006,105.348 74.5,107C 73.6919,107.308 73.0253,107.808 72.5,108.5C 74.8649,110.588 75.8649,113.254 75.5,116.5C 75.5,117.167 75.5,117.833 75.5,118.5C 73.9826,118.511 72.8159,119.177 72,120.5C 71.3828,119.551 71.5494,118.718 72.5,118C 70.9443,117.28 69.9443,116.113 69.5,114.5C 69.3259,112.139 68.9926,109.806 68.5,107.5C 70.047,106.232 71.047,104.565 71.5,102.5 Z"/></g>
<g><path style="opacity:1" fill="#623937" d="M 36.5,108.5 C 37.4013,109.29 38.0679,110.29 38.5,111.5C 38.1667,112.167 37.8333,112.833 37.5,113.5C 32.2626,115.908 32.2626,118.241 37.5,120.5C 37.5106,122.017 38.1772,123.184 39.5,124C 39.2716,124.399 38.9382,124.565 38.5,124.5C 36.8599,123.68 35.1932,122.847 33.5,122C 33.9574,121.586 34.2907,121.086 34.5,120.5C 29.8587,117.354 29.5253,114.021 33.5,110.5C 34.397,109.402 35.2303,109.402 36,110.5C 36.4643,109.906 36.631,109.239 36.5,108.5 Z"/></g>
<g><path style="opacity:1" fill="#5b7280" d="M 50.5,109.5 C 50.2627,110.791 50.596,111.791 51.5,112.5C 50.8166,114.176 49.4832,114.843 47.5,114.5C 47.5,115.833 47.5,117.167 47.5,118.5C 46.1667,118.5 44.8333,118.5 43.5,118.5C 43.5,120.167 43.5,121.833 43.5,123.5C 42.8501,123.804 42.1835,124.137 41.5,124.5C 40.4787,122.812 39.1454,121.479 37.5,120.5C 38.1098,119.609 38.4431,118.609 38.5,117.5C 41.1073,116.684 43.1073,115.017 44.5,112.5C 47.3584,114.124 48.0251,113.457 46.5,110.5C 47.7079,109.766 49.0413,109.433 50.5,109.5 Z"/></g>
<g><path style="opacity:1" fill="#aca594" d="M 42.5,107.5 C 42.8333,107.5 43.1667,107.5 43.5,107.5C 43.6287,109.216 43.962,110.883 44.5,112.5C 43.1073,115.017 41.1073,116.684 38.5,117.5C 38.1667,116.167 37.8333,114.833 37.5,113.5C 39.0861,114.413 40.5861,114.413 42,113.5C 42.1881,111.939 41.3547,111.272 39.5,111.5C 40.5,110.167 41.5,108.833 42.5,107.5 Z"/></g>
<g><path style="opacity:1" fill="#e98653" d="M 37.5,113.5 C 37.8333,114.833 38.1667,116.167 38.5,117.5C 38.4431,118.609 38.1098,119.609 37.5,120.5C 32.2626,118.241 32.2626,115.908 37.5,113.5 Z"/></g>
<g><path style="opacity:1" fill="#edddbd" d="M 58.5,119.5 C 56.3589,122.472 53.6922,124.972 50.5,127C 51.6716,127.353 52.8382,127.187 54,126.5C 56.8177,128.81 59.4843,128.81 62,126.5C 63.3654,127.593 63.6987,128.926 63,130.5C 59.9433,131.451 56.7766,131.784 53.5,131.5C 53.3505,132.552 53.5172,133.552 54,134.5C 55.0113,133.663 56.1779,133.33 57.5,133.5C 57.7751,135.758 58.7751,136.092 60.5,134.5C 60.8333,135 61.1667,135.5 61.5,136C 59.5481,141.554 61.5481,144.054 67.5,143.5C 67.5,143.833 67.5,144.167 67.5,144.5C 66.8333,144.5 66.5,144.833 66.5,145.5C 61.3613,147.264 56.028,147.931 50.5,147.5C 50.0425,139.99 48.7092,132.657 46.5,125.5C 48.7652,121.399 51.9319,118.066 56,115.5C 57.0946,116.693 57.928,118.027 58.5,119.5 Z"/></g>
<g><path style="opacity:1" fill="#5a231d" d="M 79.5,119.5 C 88.4301,113.738 95.9301,106.404 102,97.5C 102.5,87.5056 102.666,77.5056 102.5,67.5C 105.045,67.4471 105.211,89.4471 103,133.5C 102.667,122.167 102.333,110.833 102,99.5C 96.4948,108.511 88.9948,115.177 79.5,119.5 Z"/></g>
<g><path style="opacity:1" fill="#bec1b9" d="M 64.5,113.5 C 64.8333,113.5 65.1667,113.5 65.5,113.5C 66.1164,115.417 67.4497,116.584 69.5,117C 68.9558,117.717 68.2891,118.217 67.5,118.5C 66.5489,119.919 66.2155,121.585 66.5,123.5C 61.9492,125.767 59.2825,124.433 58.5,119.5C 57.928,118.027 57.0946,116.693 56,115.5C 51.9319,118.066 48.7652,121.399 46.5,125.5C 45.2905,125.068 44.2905,124.401 43.5,123.5C 43.5,121.833 43.5,120.167 43.5,118.5C 44.8333,118.5 46.1667,118.5 47.5,118.5C 47.5,117.167 47.5,115.833 47.5,114.5C 49.4832,114.843 50.8166,114.176 51.5,112.5C 54.2362,111.926 57.0695,111.592 60,111.5C 61.584,111.988 62.7506,112.988 63.5,114.5C 64.1067,114.376 64.44,114.043 64.5,113.5 Z"/></g>
<g><path style="opacity:1" fill="#bf5e4d" d="M 69.5,114.5 C 69.9443,116.113 70.9443,117.28 72.5,118C 71.5494,118.718 71.3828,119.551 72,120.5C 72.8159,119.177 73.9826,118.511 75.5,118.5C 76.5676,119.434 77.901,119.768 79.5,119.5C 75.8977,120.775 72.231,121.775 68.5,122.5C 67.5655,121.432 67.2322,120.099 67.5,118.5C 68.2891,118.217 68.9558,117.717 69.5,117C 67.4497,116.584 66.1164,115.417 65.5,113.5C 66.2389,113.631 66.9056,113.464 67.5,113C 65.0684,111.913 65.4017,111.413 68.5,111.5C 68.2627,112.791 68.596,113.791 69.5,114.5 Z"/></g>
<g><path style="opacity:1" fill="#e9efde" d="M 35.5,126.5 C 34.9093,129.675 35.9093,132.009 38.5,133.5C 36.5992,133.433 34.7659,133.767 33,134.5C 30.9748,133.191 29.4748,131.525 28.5,129.5C 28.3379,127.473 28.5045,125.473 29,123.5C 30.7342,125.451 32.9009,126.451 35.5,126.5 Z"/></g>
<g><path style="opacity:1" fill="#ac9836" d="M 67.5,118.5 C 67.2322,120.099 67.5655,121.432 68.5,122.5C 68.6371,126.05 68.9704,129.717 69.5,133.5C 68.8902,134.391 68.5569,135.391 68.5,136.5C 67.962,138.117 67.6287,139.784 67.5,141.5C 66.9576,138.35 65.7909,135.35 64,132.5C 61.9592,133.423 59.7925,133.756 57.5,133.5C 56.1779,133.33 55.0113,133.663 54,134.5C 53.5172,133.552 53.3505,132.552 53.5,131.5C 56.7766,131.784 59.9433,131.451 63,130.5C 63.6987,128.926 63.3654,127.593 62,126.5C 59.4843,128.81 56.8177,128.81 54,126.5C 52.8382,127.187 51.6716,127.353 50.5,127C 53.6922,124.972 56.3589,122.472 58.5,119.5C 59.2825,124.433 61.9492,125.767 66.5,123.5C 66.2155,121.585 66.5489,119.919 67.5,118.5 Z"/></g>
<g><path style="opacity:1" fill="#b39f35" d="M 37.5,120.5 C 39.1454,121.479 40.4787,122.812 41.5,124.5C 42.1835,124.137 42.8501,123.804 43.5,123.5C 44.2905,124.401 45.2905,125.068 46.5,125.5C 48.7092,132.657 50.0425,139.99 50.5,147.5C 49.1779,147.33 48.0113,147.663 47,148.5C 47.4052,144.879 47.4052,141.213 47,137.5C 46.0808,139.367 45.5808,141.367 45.5,143.5C 44.5147,141.228 43.6813,138.895 43,136.5C 42.8138,139.036 42.3138,141.369 41.5,143.5C 41.8064,140.615 41.4731,137.948 40.5,135.5C 40.1667,134.5 39.5,133.833 38.5,133.5C 35.9093,132.009 34.9093,129.675 35.5,126.5C 36.1667,126.5 36.5,126.167 36.5,125.5C 37.4916,125.672 38.1583,125.338 38.5,124.5C 38.9382,124.565 39.2716,124.399 39.5,124C 38.1772,123.184 37.5106,122.017 37.5,120.5 Z"/></g>
<g><path style="opacity:1" fill="#a69a84" d="M 67.5,141.5 C 67.5,142.167 67.5,142.833 67.5,143.5C 61.5481,144.054 59.5481,141.554 61.5,136C 61.1667,135.5 60.8333,135 60.5,134.5C 58.7751,136.092 57.7751,135.758 57.5,133.5C 59.7925,133.756 61.9592,133.423 64,132.5C 65.7909,135.35 66.9576,138.35 67.5,141.5 Z"/></g>
<g><path style="opacity:1" fill="#218d53" d="M 40.5,135.5 C 41.4731,137.948 41.8064,140.615 41.5,143.5C 41.5,143.833 41.5,144.167 41.5,144.5C 41.1667,144.5 40.8333,144.5 40.5,144.5C 38.8624,145.657 37.1957,146.824 35.5,148C 36.1667,148.333 36.8333,148.667 37.5,149C 34.8498,152.207 35.0165,152.707 38,150.5C 38.2784,151.416 38.7784,152.082 39.5,152.5C 39.7135,154.144 39.3802,155.644 38.5,157C 40.1554,158.444 40.822,160.278 40.5,162.5C 39.5,162.5 38.5,162.5 37.5,162.5C 36.0927,160.692 34.926,158.692 34,156.5C 33.4385,150.373 33.7718,144.373 35,138.5C 31.5423,146.595 31.7089,154.595 35.5,162.5C 33.0411,162.69 31.3745,161.69 30.5,159.5C 29.6618,159.158 29.3284,158.492 29.5,157.5C 29.41,155.304 29.0767,153.137 28.5,151C 29.1195,145.94 30.2861,141.773 32,138.5C 34.4847,135.811 37.318,134.811 40.5,135.5 Z"/></g>
<g><path style="opacity:1" fill="#249153" d="M 68.5,136.5 C 71.858,137.527 73.5246,139.86 73.5,143.5C 71.5,143.5 69.5,143.5 67.5,143.5C 67.5,142.833 67.5,142.167 67.5,141.5C 67.6287,139.784 67.962,138.117 68.5,136.5 Z"/></g>
<g><path style="opacity:1" fill="#121211" d="M 5.5,135.5 C 13.1032,138.289 13.4365,141.956 6.5,146.5C 0.337068,142.971 0.00373517,139.305 5.5,135.5 Z"/></g>
<g><path style="opacity:1" fill="#7697a6" d="M 23.5,128.5 C 25.1172,129.038 26.7839,129.371 28.5,129.5C 29.4748,131.525 30.9748,133.191 33,134.5C 34.7659,133.767 36.5992,133.433 38.5,133.5C 39.5,133.833 40.1667,134.5 40.5,135.5C 37.318,134.811 34.4847,135.811 32,138.5C 30.2861,141.773 29.1195,145.94 28.5,151C 29.0767,153.137 29.41,155.304 29.5,157.5C 28.5902,155.981 27.7568,154.315 27,152.5C 26.9502,156.157 26.1168,159.49 24.5,162.5C 23.8333,162.5 23.1667,162.5 22.5,162.5C 21.1032,161.181 20.4365,159.514 20.5,157.5C 21.4647,153.191 21.6313,148.857 21,144.5C 20.5404,148.752 18.5404,152.085 15,154.5C 16.0256,149.085 15.5256,143.752 13.5,138.5C 14.0801,134.436 14.9135,130.436 16,126.5C 22.2425,120.578 23.7425,121.578 20.5,129.5C 20.8076,130.308 21.3076,130.975 22,131.5C 22.2321,130.263 22.7321,129.263 23.5,128.5 Z"/></g>
<g><path style="opacity:1" fill="#121211" d="M 101.5,135.5 C 109.103,138.289 109.437,141.956 102.5,146.5C 96.3371,142.971 96.0037,139.305 101.5,135.5 Z"/></g>
<g><path style="opacity:1" fill="#4e6c5a" d="M 69.5,133.5 C 70.552,133.351 71.552,133.517 72.5,134C 75.7352,137.078 77.0686,140.911 76.5,145.5C 73.6085,144.597 70.6085,144.264 67.5,144.5C 67.5,144.167 67.5,143.833 67.5,143.5C 69.5,143.5 71.5,143.5 73.5,143.5C 73.5246,139.86 71.858,137.527 68.5,136.5C 68.5569,135.391 68.8902,134.391 69.5,133.5 Z"/></g>
<g><path style="opacity:1" fill="#090908" d="M 86.5,141.5 C 87.7082,140.218 89.0416,140.218 90.5,141.5C 88.7752,144.783 89.4419,145.783 92.5,144.5C 96.1471,145.486 97.3138,147.819 96,151.5C 93.9495,153.888 91.6162,155.888 89,157.5C 83.48,155.68 80.8134,152.013 81,146.5C 82.7889,144.771 84.9556,144.104 87.5,144.5C 87.7373,143.209 87.404,142.209 86.5,141.5 Z"/></g>
<g><path style="opacity:1" fill="#777067" d="M 54.5,140.5 C 56.8504,141.146 58.1838,142.313 58.5,144C 56.5643,144.813 54.5643,145.313 52.5,145.5C 52.67,144.178 52.3366,143.011 51.5,142C 52.7375,141.768 53.7375,141.268 54.5,140.5 Z"/></g>
<g><path style="opacity:1" fill="#bd260c" d="M 40.5,144.5 C 40.8333,144.5 41.1667,144.5 41.5,144.5C 41.5148,149.019 43.8481,151.519 48.5,152C 54.5522,152.79 60.5522,152.624 66.5,151.5C 67.7928,149.364 67.7928,147.364 66.5,145.5C 66.5,144.833 66.8333,144.5 67.5,144.5C 70.6085,144.264 73.6085,144.597 76.5,145.5C 77.4675,148.445 77.6342,151.445 77,154.5C 75.4037,157.369 73.5703,160.036 71.5,162.5C 61.5,162.5 51.5,162.5 41.5,162.5C 41.4512,158.922 40.7846,155.589 39.5,152.5C 39.5751,149.794 39.9084,147.127 40.5,144.5 Z"/></g>
<g><path style="opacity:1" fill="#c3b119" d="M 50.5,147.5 C 56.028,147.931 61.3613,147.264 66.5,145.5C 67.7928,147.364 67.7928,149.364 66.5,151.5C 60.5522,152.624 54.5522,152.79 48.5,152C 43.8481,151.519 41.5148,149.019 41.5,144.5C 41.5,144.167 41.5,143.833 41.5,143.5C 42.3138,141.369 42.8138,139.036 43,136.5C 43.6813,138.895 44.5147,141.228 45.5,143.5C 45.5808,141.367 46.0808,139.367 47,137.5C 47.4052,141.213 47.4052,144.879 47,148.5C 48.0113,147.663 49.1779,147.33 50.5,147.5 Z"/></g>
<g><path style="opacity:1" fill="#555a50" d="M 40.5,144.5 C 39.9084,147.127 39.5751,149.794 39.5,152.5C 38.7784,152.082 38.2784,151.416 38,150.5C 35.0165,152.707 34.8498,152.207 37.5,149C 36.8333,148.667 36.1667,148.333 35.5,148C 37.1957,146.824 38.8624,145.657 40.5,144.5 Z"/></g>
<g><path style="opacity:1" fill="#1b1b19" d="M 4.5,150.5 C 6.16667,150.5 7.83333,150.5 9.5,150.5C 9.5,155.167 9.5,159.833 9.5,164.5C 7.5328,164.739 5.69946,164.406 4,163.5C 3.75147,159.237 3.91814,154.904 4.5,150.5 Z"/></g>
<g><path style="opacity:1" fill="#1b1b19" d="M 100.5,150.5 C 102.167,150.5 103.833,150.5 105.5,150.5C 105.5,155.167 105.5,159.833 105.5,164.5C 103.533,164.739 101.699,164.406 100,163.5C 99.7515,159.237 99.9181,154.904 100.5,150.5 Z"/></g>
<g><path style="opacity:1" fill="#e5ecdd" d="M 5.5,152.5 C 6.58617,152.62 7.25284,153.287 7.5,154.5C 7.16667,155.167 6.83333,155.833 6.5,156.5C 5.57131,155.311 5.23798,153.978 5.5,152.5 Z"/></g>
<g><path style="opacity:1" fill="#e5ecdd" d="M 101.5,152.5 C 102.586,152.62 103.253,153.287 103.5,154.5C 103.167,155.167 102.833,155.833 102.5,156.5C 101.571,155.311 101.238,153.978 101.5,152.5 Z"/></g>
<g><path style="opacity:1" fill="#446154" d="M 37.5,162.5 C 36.8333,162.5 36.1667,162.5 35.5,162.5C 31.7089,154.595 31.5423,146.595 35,138.5C 33.7718,144.373 33.4385,150.373 34,156.5C 34.926,158.692 36.0927,160.692 37.5,162.5 Z"/></g>
<g><path style="opacity:1" fill="#e3eadc" d="M 29.5,157.5 C 29.3284,158.492 29.6618,159.158 30.5,159.5C 30.5,160.5 30.5,161.5 30.5,162.5C 28.5,162.5 26.5,162.5 24.5,162.5C 26.1168,159.49 26.9502,156.157 27,152.5C 27.7568,154.315 28.5902,155.981 29.5,157.5 Z"/></g>
<g><path style="opacity:1" fill="#eef7e5" d="M 5.5,159.5 C 7.46455,159.948 7.79789,160.948 6.5,162.5C 5.61432,161.675 5.28099,160.675 5.5,159.5 Z"/></g>
<g><path style="opacity:1" fill="#eef7e5" d="M 101.5,159.5 C 103.465,159.948 103.798,160.948 102.5,162.5C 101.614,161.675 101.281,160.675 101.5,159.5 Z"/></g>
<g><path style="opacity:1" fill="#232122" d="M 39.5,152.5 C 40.7846,155.589 41.4512,158.922 41.5,162.5C 51.5,162.5 61.5,162.5 71.5,162.5C 65.1882,163.871 48.8548,163.871 22.5,162.5C 23.1667,162.5 23.8333,162.5 24.5,162.5C 26.5,162.5 28.5,162.5 30.5,162.5C 30.5,161.5 30.5,160.5 30.5,159.5C 31.3745,161.69 33.0411,162.69 35.5,162.5C 36.1667,162.5 36.8333,162.5 37.5,162.5C 38.5,162.5 39.5,162.5 40.5,162.5C 40.822,160.278 40.1554,158.444 38.5,157C 39.3802,155.644 39.7135,154.144 39.5,152.5 Z"/></g>
</svg>
