<?xml version="1.0" encoding="UTF-8"?>
<!DOCTYPE svg PUBLIC "-//W3C//DTD SVG 1.1//EN" "http://www.w3.org/Graphics/SVG/1.1/DTD/svg11.dtd">
<svg xmlns="http://www.w3.org/2000/svg" version="1.1" width="110px" height="170px" style="shape-rendering:geometricPrecision; text-rendering:geometricPrecision; image-rendering:optimizeQuality; fill-rule:evenodd; clip-rule:evenodd" xmlns:xlink="http://www.w3.org/1999/xlink">
<g><path style="opacity:1" fill="#ebf3e2" d="M -0.5,-0.5 C 36.1667,-0.5 72.8333,-0.5 109.5,-0.5C 109.5,56.1667 109.5,112.833 109.5,169.5C 72.8333,169.5 36.1667,169.5 -0.5,169.5C -0.5,112.833 -0.5,56.1667 -0.5,-0.5 Z"/></g>
<g><path style="opacity:1" fill="#171715" d="M 3.5,4.5 C 8.89404,3.72836 10.894,6.06169 9.5,11.5C 10.894,16.9383 8.89404,19.2716 3.5,18.5C 3.5,13.8333 3.5,9.16667 3.5,4.5 Z"/></g>
<g><path style="opacity:1" fill="#171715" d="M 99.5,4.5 C 104.894,3.72836 106.894,6.06169 105.5,11.5C 106.894,16.9383 104.894,19.2716 99.5,18.5C 99.5,13.8333 99.5,9.16667 99.5,4.5 Z"/></g>
<g><path style="opacity:1" fill="#ecf4e4" d="M 5.5,6.5 C 6.77725,7.69363 7.44392,9.3603 7.5,11.5C 7.16667,13.1667 6.83333,14.8333 6.5,16.5C 5.51298,13.2317 5.17964,9.89838 5.5,6.5 Z"/></g>
<g><path style="opacity:1" fill="#ecf4e4" d="M 101.5,6.5 C 102.777,7.69363 103.444,9.3603 103.5,11.5C 103.167,13.1667 102.833,14.8333 102.5,16.5C 101.513,13.2317 101.18,9.89838 101.5,6.5 Z"/></g>
<g><path style="opacity:1" fill="#090908" d="M 18.5,11.5 C 24.823,12.6438 27.9897,16.3105 28,22.5C 26.2111,24.229 24.0444,24.8957 21.5,24.5C 21.33,25.8221 21.6634,26.9887 22.5,28C 21.0563,28.7805 19.723,28.6139 18.5,27.5C 20.2248,24.2172 19.5581,23.2172 16.5,24.5C 12.8529,23.5139 11.6862,21.1806 13,17.5C 15.0113,15.6557 16.8446,13.6557 18.5,11.5 Z"/></g>
<g><path style="opacity:1" fill="#887732" d="M 69.5,28.5 C 68.5,28.5 67.5,28.5 66.5,28.5C 66.7507,31.909 66.4173,35.2423 65.5,38.5C 66.4565,40.0754 67.1231,41.742 67.5,43.5C 65.3596,41.2995 63.8596,38.6328 63,35.5C 61.9887,34.6634 60.8221,34.33 59.5,34.5C 61.2382,40.9271 58.9049,43.5938 52.5,42.5C 51.7151,37.2484 51.2151,31.9151 51,26.5C 48.7029,22.6756 45.5362,21.6756 41.5,23.5C 41.5,22.8333 41.1667,22.5 40.5,22.5C 39.1593,19.3956 39.4926,16.5623 41.5,14C 45.8956,11.7005 50.5623,10.5339 55.5,10.5C 55.33,9.17793 55.6634,8.01127 56.5,7C 42.1667,6.66667 27.8333,6.33333 13.5,6C 40.8333,5.33333 68.1667,5.33333 95.5,6C 85.5,6.33333 75.5,6.66667 65.5,7C 66.6667,8.83333 68.1667,10.3333 70,11.5C 71.0098,15.4272 72.1765,19.2606 73.5,23C 73.0991,25.56 71.7658,27.3934 69.5,28.5 Z"/></g>
<g><path style="opacity:1" fill="#10100f" d="M 5.5,22.5 C 12.9078,25.7455 13.2411,29.4122 6.5,33.5C 5.40958,32.273 4.07625,31.4396 2.5,31C 1.94149,30.2753 1.60816,29.4419 1.5,28.5C 2.43161,26.2345 3.76494,24.2345 5.5,22.5 Z"/></g>
<g><path style="opacity:1" fill="#10100f" d="M 101.5,22.5 C 108.908,25.7455 109.241,29.4122 102.5,33.5C 101.41,32.273 100.076,31.4396 98.5,31C 97.9415,30.2753 97.6082,29.4419 97.5,28.5C 98.4316,26.2345 99.7649,24.2345 101.5,22.5 Z"/></g>
<g><path style="opacity:1" fill="#67645c" d="M 40.5,22.5 C 41.1667,22.5 41.5,22.8333 41.5,23.5C 41.3505,24.552 41.5172,25.552 42,26.5C 44.0639,25.4086 46.2305,25.2419 48.5,26C 46.6183,26.1981 44.9516,26.6981 43.5,27.5C 42.6204,29.1368 41.9537,30.9701 41.5,33C 42.3839,34.098 43.3839,34.598 44.5,34.5C 43.6431,35.4252 42.6431,36.0919 41.5,36.5C 40.5222,36.189 39.8555,35.5223 39.5,34.5C 41.6722,30.6674 42.0056,26.6674 40.5,22.5 Z"/></g>
<g><path style="opacity:1" fill="#eedebf" d="M 52.5,42.5 C 49.3019,43.0356 46.6353,42.369 44.5,40.5C 46.9535,37.575 46.2868,36.9084 42.5,38.5C 41.6618,38.1583 41.3284,37.4916 41.5,36.5C 42.6431,36.0919 43.6431,35.4252 44.5,34.5C 43.3839,34.598 42.3839,34.098 41.5,33C 41.9537,30.9701 42.6204,29.1368 43.5,27.5C 44.9516,26.6981 46.6183,26.1981 48.5,26C 46.2305,25.2419 44.0639,25.4086 42,26.5C 41.5172,25.552 41.3505,24.552 41.5,23.5C 45.5362,21.6756 48.7029,22.6756 51,26.5C 51.2151,31.9151 51.7151,37.2484 52.5,42.5 Z"/></g>
<g><path style="opacity:1" fill="#464949" d="M 43.5,27.5 C 47.9704,27.0301 48.4704,28.0301 45,30.5C 43.9614,29.7562 43.4614,28.7562 43.5,27.5 Z"/></g>
<g><path style="opacity:1" fill="#f2e3c2" d="M 67.5,43.5 C 64.2649,46.8143 60.2649,48.8143 55.5,49.5C 53.8958,48.713 53.2291,47.3797 53.5,45.5C 53.6716,44.5084 53.3382,43.8417 52.5,43.5C 52.5,43.1667 52.5,42.8333 52.5,42.5C 58.9049,43.5938 61.2382,40.9271 59.5,34.5C 60.8221,34.33 61.9887,34.6634 63,35.5C 63.8596,38.6328 65.3596,41.2995 67.5,43.5 Z"/></g>
<g><path style="opacity:1" fill="#bdc0bb" d="M 69.5,28.5 C 70.7726,33.3186 72.4393,37.9852 74.5,42.5C 74.4226,43.7498 73.756,44.5831 72.5,45C 73.448,45.4828 74.448,45.6495 75.5,45.5C 74.9249,47.2025 74.0915,48.8691 73,50.5C 72.6667,50.1667 72.3333,49.8333 72,49.5C 69,52.1667 66,54.8333 63,57.5C 62.5304,56.4232 62.6971,55.4232 63.5,54.5C 63.5,53.8333 63.5,53.1667 63.5,52.5C 66.4006,51.2085 68.7339,49.2085 70.5,46.5C 69.8118,45.1451 68.8118,44.1451 67.5,43.5C 67.1231,41.742 66.4565,40.0754 65.5,38.5C 66.4173,35.2423 66.7507,31.909 66.5,28.5C 67.5,28.5 68.5,28.5 69.5,28.5 Z"/></g>
<g><path style="opacity:1" fill="#993129" d="M 44.5,40.5 C 44.1667,40.5 43.8333,40.5 43.5,40.5C 43.1667,39.8333 42.8333,39.1667 42.5,38.5C 46.2868,36.9084 46.9535,37.575 44.5,40.5 Z"/></g>
<g><path style="opacity:1" fill="#2f8852" d="M 23.5,42.5 C 23.4326,43.9587 23.7659,45.2921 24.5,46.5C 24.1667,47.1667 23.8333,47.8333 23.5,48.5C 23.1667,48.5 22.8333,48.5 22.5,48.5C 22.5886,43.242 20.2552,41.5754 15.5,43.5C 14.263,43.4435 13.263,42.9435 12.5,42C 15.7698,40.6793 19.1031,40.0126 22.5,40C 23.2524,40.6708 23.5858,41.5041 23.5,42.5 Z"/></g>
<g><path style="opacity:1" fill="#a32b24" d="M 24.5,46.5 C 23.7659,45.2921 23.4326,43.9587 23.5,42.5C 25.1432,40.0269 27.3098,38.0269 30,36.5C 31.5095,37.0897 33.0095,37.7564 34.5,38.5C 33.3184,40.4669 33.9851,41.8003 36.5,42.5C 32.8611,44.9896 28.8611,46.3229 24.5,46.5 Z"/></g>
<g><path style="opacity:1" fill="#55544e" d="M 43.5,40.5 C 43.8333,40.5 44.1667,40.5 44.5,40.5C 46.6353,42.369 49.3019,43.0356 52.5,42.5C 52.5,42.8333 52.5,43.1667 52.5,43.5C 49.5,43.5 46.5,43.5 43.5,43.5C 43.5,42.5 43.5,41.5 43.5,40.5 Z"/></g>
<g><path style="opacity:1" fill="#dadedd" d="M 50.5,46.5 C 50.5,47.1667 50.5,47.8333 50.5,48.5C 48.3057,50.2214 47.139,52.5547 47,55.5C 46.3645,54.0337 45.5312,52.7003 44.5,51.5C 46.1217,49.359 48.1217,47.6924 50.5,46.5 Z"/></g>
<g><path style="opacity:1" fill="#a19023" d="M 53.5,45.5 C 53.2291,47.3797 53.8958,48.713 55.5,49.5C 55.634,51.2915 55.3007,52.9582 54.5,54.5C 53.5178,55.1408 52.5178,55.8075 51.5,56.5C 50.5344,54.604 50.2011,52.604 50.5,50.5C 50.5,49.8333 50.5,49.1667 50.5,48.5C 50.5,47.8333 50.5,47.1667 50.5,46.5C 51.391,45.8902 52.391,45.5569 53.5,45.5 Z"/></g>
<g><path style="opacity:1" fill="#d2bc3c" d="M 67.5,43.5 C 68.8118,44.1451 69.8118,45.1451 70.5,46.5C 68.7339,49.2085 66.4006,51.2085 63.5,52.5C 60.5979,53.5778 57.5979,54.2444 54.5,54.5C 55.3007,52.9582 55.634,51.2915 55.5,49.5C 60.2649,48.8143 64.2649,46.8143 67.5,43.5 Z"/></g>
<g><path style="opacity:1" fill="#797a71" d="M 24.5,49.5 C 26.3465,51.0301 27.3465,53.0301 27.5,55.5C 25.6535,53.9699 24.6535,51.9699 24.5,49.5 Z"/></g>
<g><path style="opacity:1" fill="#e3d7ba" d="M 24.5,49.5 C 24.6535,51.9699 25.6535,53.9699 27.5,55.5C 27.5,59.8333 27.5,64.1667 27.5,68.5C 27.1667,68.5 26.8333,68.5 26.5,68.5C 23.6,68.5922 21.9333,67.2589 21.5,64.5C 19.8333,65.1667 18.1667,65.8333 16.5,66.5C 16.2291,64.6203 16.8958,63.287 18.5,62.5C 20.1667,61.5 21.5,60.1667 22.5,58.5C 23.1667,55.5 23.8333,52.5 24.5,49.5 Z"/></g>
<g><path style="opacity:1" fill="#edddbd" d="M 50.5,50.5 C 50.2011,52.604 50.5344,54.604 51.5,56.5C 52.5178,55.8075 53.5178,55.1408 54.5,54.5C 57.5979,54.2444 60.5979,53.5778 63.5,52.5C 63.5,53.1667 63.5,53.8333 63.5,54.5C 61.6203,54.2291 60.287,54.8958 59.5,56.5C 56.2327,58.4273 53.2327,60.7606 50.5,63.5C 49.4777,63.1445 48.811,62.4778 48.5,61.5C 48.3354,58.4816 48.502,55.4816 49,52.5C 49.2784,51.5842 49.7784,50.9175 50.5,50.5 Z"/></g>
<g><path style="opacity:1" fill="#b62719" d="M 51.5,50.5 C 55.1569,50.974 55.3236,52.3074 52,54.5C 51.51,53.2068 51.3433,51.8734 51.5,50.5 Z"/></g>
<g><path style="opacity:1" fill="#3f433a" d="M 22.5,48.5 C 22.8333,48.5 23.1667,48.5 23.5,48.5C 24.1667,48.5 24.5,48.8333 24.5,49.5C 23.8333,52.5 23.1667,55.5 22.5,58.5C 21.3569,58.0919 20.3569,57.4252 19.5,56.5C 19.8457,55.3044 20.3457,55.3044 21,56.5C 22.877,54.2088 22.7103,52.2088 20.5,50.5C 18.4689,52.3101 16.8022,54.3101 15.5,56.5C 13.4714,54.9793 12.6381,52.9793 13,50.5C 14.6884,52.8483 16.5217,53.0149 18.5,51C 17.1667,50.3333 17.1667,49.6667 18.5,49C 19.9594,49.3554 21.2928,49.1888 22.5,48.5 Z"/></g>
<g><path style="opacity:1" fill="#4c4a3c" d="M 35.5,52.5 C 34.8333,53.8333 33.8333,54.8333 32.5,55.5C 32.5,53.5 33.5,52.5 35.5,52.5 Z"/></g>
<g><path style="opacity:1" fill="#7c5f58" d="M 82.5,56.5 C 81.4583,57.7911 80.2917,57.7911 79,56.5C 78.7508,57.624 78.2508,58.624 77.5,59.5C 76.8933,59.3764 76.56,59.0431 76.5,58.5C 77.2323,57.1917 78.0656,55.8584 79,54.5C 79.8159,55.8228 80.9826,56.4894 82.5,56.5 Z"/></g>
<g><path style="opacity:1" fill="#b61d1e" d="M 87.5,55.5 C 88.1667,55.5 88.5,55.8333 88.5,56.5C 86.1898,57.325 84.1898,58.6583 82.5,60.5C 73.8135,66.0062 65.8135,72.5062 58.5,80C 58.7284,80.3988 59.0618,80.5654 59.5,80.5C 59.427,82.0269 60.0937,83.0269 61.5,83.5C 60.791,84.404 59.791,84.7373 58.5,84.5C 51.7749,77.7788 45.4415,70.7788 39.5,63.5C 40.5,62.1667 41.5,62.1667 42.5,63.5C 44.6929,64.6805 47.0262,65.6805 49.5,66.5C 50.9587,68.583 52.2921,70.7497 53.5,73C 55.9357,73.1238 58.269,72.6238 60.5,71.5C 60.1192,69.0582 60.7859,68.3915 62.5,69.5C 63.2508,68.624 63.7508,67.624 64,66.5C 65.813,67.6091 66.6463,66.9424 66.5,64.5C 67.552,64.6495 68.552,64.4828 69.5,64C 68.3044,63.3457 68.3044,62.8457 69.5,62.5C 70.1835,62.8627 70.8501,63.1961 71.5,63.5C 72.1667,62.8333 72.8333,62.1667 73.5,61.5C 74.1001,60.0998 75.1001,59.0998 76.5,58.5C 76.56,59.0431 76.8933,59.3764 77.5,59.5C 78.2508,58.624 78.7508,57.624 79,56.5C 80.2917,57.7911 81.4583,57.7911 82.5,56.5C 84.0418,55.6993 85.7085,55.366 87.5,55.5 Z"/></g>
<g><path style="opacity:1" fill="#8f8d7a" d="M 22.5,58.5 C 21.5,60.1667 20.1667,61.5 18.5,62.5C 17.5,60.5 16.5,58.5 15.5,56.5C 16.8022,54.3101 18.4689,52.3101 20.5,50.5C 22.7103,52.2088 22.877,54.2088 21,56.5C 20.3457,55.3044 19.8457,55.3044 19.5,56.5C 20.3569,57.4252 21.3569,58.0919 22.5,58.5 Z"/></g>
<g><path style="opacity:1" fill="#757672" d="M 74.5,42.5 C 75.9063,42.9731 76.573,43.9731 76.5,45.5C 76.5,47.1667 76.5,48.8333 76.5,50.5C 77.552,50.3505 78.552,50.5172 79.5,51C 75.436,50.6126 71.7694,51.946 68.5,55C 68.8333,55.3333 69.1667,55.6667 69.5,56C 65.5,56.6694 62.6667,58.8361 61,62.5C 60.6667,62.1667 60.3333,61.8333 60,61.5C 57.6667,63.5 55.3333,65.5 53,67.5C 52.2506,66.365 52.4173,65.365 53.5,64.5C 56.0488,62.0406 58.7154,59.7073 61.5,57.5C 61.0431,56.7025 60.3764,56.3691 59.5,56.5C 60.287,54.8958 61.6203,54.2291 63.5,54.5C 62.6971,55.4232 62.5304,56.4232 63,57.5C 66,54.8333 69,52.1667 72,49.5C 72.3333,49.8333 72.6667,50.1667 73,50.5C 74.0915,48.8691 74.9249,47.2025 75.5,45.5C 74.448,45.6495 73.448,45.4828 72.5,45C 73.756,44.5831 74.4226,43.7498 74.5,42.5 Z"/></g>
<g><path style="opacity:1" fill="#7d7a72" d="M 52.5,43.5 C 53.3382,43.8417 53.6716,44.5084 53.5,45.5C 52.391,45.5569 51.391,45.8902 50.5,46.5C 48.1217,47.6924 46.1217,49.359 44.5,51.5C 45.5312,52.7003 46.3645,54.0337 47,55.5C 47.139,52.5547 48.3057,50.2214 50.5,48.5C 50.5,49.1667 50.5,49.8333 50.5,50.5C 49.7784,50.9175 49.2784,51.5842 49,52.5C 48.502,55.4816 48.3354,58.4816 48.5,61.5C 47.8423,60.6016 47.1757,59.6016 46.5,58.5C 45.8076,59.0253 45.3076,59.6919 45,60.5C 44.6667,60.1667 44.3333,59.8333 44,59.5C 43.2086,60.745 42.7086,62.0783 42.5,63.5C 41.5,62.1667 40.5,62.1667 39.5,63.5C 39.5954,60.6424 40.7621,58.3091 43,56.5C 43.8672,53.9625 43.2005,51.9625 41,50.5C 39.1997,51.3195 37.3664,51.9862 35.5,52.5C 36.0577,51.2101 37.0577,50.3768 38.5,50C 43.8164,49.1744 48.483,47.0077 52.5,43.5 Z"/></g>
<g><path style="opacity:1" fill="#8c4942" d="M 73.5,61.5 C 72.8333,62.1667 72.1667,62.8333 71.5,63.5C 71.4606,62.4168 71.1272,61.4168 70.5,60.5C 72.0517,59.2021 73.0517,59.5354 73.5,61.5 Z"/></g>
<g><path style="opacity:1" fill="#897367" d="M 39.5,63.5 C 45.4415,70.7788 51.7749,77.7788 58.5,84.5C 53.1737,80.5045 48.1737,76.1711 43.5,71.5C 42.0792,68.6569 40.0792,67.3236 37.5,67.5C 37.6596,65.847 38.3263,64.5137 39.5,63.5 Z"/></g>
<g><path style="opacity:1" fill="#8c7d20" d="M 88.5,56.5 C 89.8333,56.5 90.5,57.1667 90.5,58.5C 90.4431,59.609 90.1098,60.609 89.5,61.5C 79.8036,68.351 70.4703,75.6843 61.5,83.5C 60.0937,83.0269 59.427,82.0269 59.5,80.5C 61.8652,78.1397 64.5319,76.1397 67.5,74.5C 68.9647,75.6087 69.9647,75.1087 70.5,73C 70.1667,72.6667 69.8333,72.3333 69.5,72C 71.6068,69.7733 73.9401,67.7733 76.5,66C 77.8333,66 79.1667,66 80.5,66C 80.0426,65.586 79.7093,65.086 79.5,64.5C 80.5244,63.1482 81.5244,61.8149 82.5,60.5C 84.1898,58.6583 86.1898,57.325 88.5,56.5 Z"/></g>
<g><path style="opacity:1" fill="#c8b335" d="M 39.5,63.5 C 38.3263,64.5137 37.6596,65.847 37.5,67.5C 35.8217,70.3246 34.8217,73.4913 34.5,77C 34.528,78.0698 34.8614,78.9032 35.5,79.5C 35.5,81.1667 35.5,82.8333 35.5,84.5C 33.5,84.5 31.5,84.5 29.5,84.5C 29.3347,80.8183 29.5014,77.1516 30,73.5C 30.8893,74.8882 31.3893,74.7215 31.5,73C 29.5761,69.3739 29.0761,65.5405 30,61.5C 31.122,59.5932 31.9553,57.5932 32.5,55.5C 33.8333,54.8333 34.8333,53.8333 35.5,52.5C 37.3664,51.9862 39.1997,51.3195 41,50.5C 43.2005,51.9625 43.8672,53.9625 43,56.5C 40.7621,58.3091 39.5954,60.6424 39.5,63.5 Z"/></g>
<g><path style="opacity:1" fill="#4a452d" d="M 33.5,58.5 C 34.2389,58.369 34.9056,58.5357 35.5,59C 32.8521,63.8325 32.1854,63.6659 33.5,58.5 Z"/></g>
<g><path style="opacity:1" fill="#b5b7b3" d="M 76.5,45.5 C 79.5567,48.5436 83.2234,50.8769 87.5,52.5C 88.5624,53.4246 88.5624,54.4246 87.5,55.5C 85.7085,55.366 84.0418,55.6993 82.5,56.5C 80.9826,56.4894 79.8159,55.8228 79,54.5C 78.0656,55.8584 77.2323,57.1917 76.5,58.5C 75.1001,59.0998 74.1001,60.0998 73.5,61.5C 73.0517,59.5354 72.0517,59.2021 70.5,60.5C 71.1272,61.4168 71.4606,62.4168 71.5,63.5C 70.8501,63.1961 70.1835,62.8627 69.5,62.5C 68.3044,62.8457 68.3044,63.3457 69.5,64C 68.552,64.4828 67.552,64.6495 66.5,64.5C 66.6463,66.9424 65.813,67.6091 64,66.5C 63.7508,67.624 63.2508,68.624 62.5,69.5C 60.7859,68.3915 60.1192,69.0582 60.5,71.5C 58.269,72.6238 55.9357,73.1238 53.5,73C 52.2921,70.7497 50.9587,68.583 49.5,66.5C 47.0262,65.6805 44.6929,64.6805 42.5,63.5C 42.7086,62.0783 43.2086,60.745 44,59.5C 44.3333,59.8333 44.6667,60.1667 45,60.5C 45.3076,59.6919 45.8076,59.0253 46.5,58.5C 47.1757,59.6016 47.8423,60.6016 48.5,61.5C 48.811,62.4778 49.4777,63.1445 50.5,63.5C 53.2327,60.7606 56.2327,58.4273 59.5,56.5C 60.3764,56.3691 61.0431,56.7025 61.5,57.5C 58.7154,59.7073 56.0488,62.0406 53.5,64.5C 52.4173,65.365 52.2506,66.365 53,67.5C 55.3333,65.5 57.6667,63.5 60,61.5C 60.3333,61.8333 60.6667,62.1667 61,62.5C 62.6667,58.8361 65.5,56.6694 69.5,56C 69.1667,55.6667 68.8333,55.3333 68.5,55C 71.7694,51.946 75.436,50.6126 79.5,51C 78.552,50.5172 77.552,50.3505 76.5,50.5C 76.5,48.8333 76.5,47.1667 76.5,45.5 Z"/></g>
<g><path style="opacity:1" fill="#276640" d="M 16.5,66.5 C 18.1667,65.8333 19.8333,65.1667 21.5,64.5C 21.6567,65.8734 21.49,67.2068 21,68.5C 17.3775,73.4116 14.5441,78.745 12.5,84.5C 11.5,84.5 10.5,84.5 9.5,84.5C 8.5,84.5 7.5,84.5 6.5,84.5C 6.5,88.5 6.5,92.5 6.5,96.5C 5.05901,114.802 4.89234,94.4688 6,35.5C 6.33333,49.8333 6.66667,64.1667 7,78.5C 9.93439,74.2877 13.1011,70.2877 16.5,66.5 Z"/></g>
<g><path style="opacity:1" fill="#7e6d54" d="M 82.5,60.5 C 81.5244,61.8149 80.5244,63.1482 79.5,64.5C 79.7093,65.086 80.0426,65.586 80.5,66C 79.1667,66 77.8333,66 76.5,66C 73.9401,67.7733 71.6068,69.7733 69.5,72C 69.8333,72.3333 70.1667,72.6667 70.5,73C 69.9647,75.1087 68.9647,75.6087 67.5,74.5C 64.5319,76.1397 61.8652,78.1397 59.5,80.5C 59.0618,80.5654 58.7284,80.3988 58.5,80C 65.8135,72.5062 73.8135,66.0062 82.5,60.5 Z"/></g>
<g><path style="opacity:1" fill="#786b2a" d="M 43.5,71.5 C 41.1977,73.0773 39.6977,72.4106 39,69.5C 38.5357,70.0944 38.369,70.7611 38.5,71.5C 36.744,72.5521 36.0773,74.2188 36.5,76.5C 35.596,77.209 35.2627,78.209 35.5,79.5C 34.8614,78.9032 34.528,78.0698 34.5,77C 34.8217,73.4913 35.8217,70.3246 37.5,67.5C 40.0792,67.3236 42.0792,68.6569 43.5,71.5 Z"/></g>
<g><path style="opacity:1" fill="#94928a" d="M 90.5,58.5 C 93.3116,60.4081 96.3116,62.0748 99.5,63.5C 100.386,64.325 100.719,65.325 100.5,66.5C 97.656,66.3426 95.9893,67.676 95.5,70.5C 94.1667,69.8333 92.8333,69.1667 91.5,68.5C 92.1894,67.2264 93.0228,67.2264 94,68.5C 95.3189,66.5125 97.1523,65.3459 99.5,65C 96.1056,63.9245 92.7722,62.7578 89.5,61.5C 90.1098,60.609 90.4431,59.609 90.5,58.5 Z"/></g>
<g><path style="opacity:1" fill="#d2cc0f" d="M 26.5,68.5 C 26.8333,68.5 27.1667,68.5 27.5,68.5C 28.0431,68.56 28.3764,68.8933 28.5,69.5C 27.7573,70.1818 27.0906,70.8485 26.5,71.5C 25.1667,71.5 23.8333,71.5 22.5,71.5C 23.4475,70.0221 24.7809,69.0221 26.5,68.5 Z"/></g>
<g><path style="opacity:1" fill="#575530" d="M 27.5,55.5 C 28.3019,56.9516 28.8019,58.6183 29,60.5C 29.6972,58.4156 30.8639,56.7489 32.5,55.5C 31.9553,57.5932 31.122,59.5932 30,61.5C 29.0761,65.5405 29.5761,69.3739 31.5,73C 31.3893,74.7215 30.8893,74.8882 30,73.5C 29.5014,77.1516 29.3347,80.8183 29.5,84.5C 29.1667,84.5 28.8333,84.5 28.5,84.5C 29.0969,79.706 28.4302,75.3727 26.5,71.5C 27.0906,70.8485 27.7573,70.1818 28.5,69.5C 28.3764,68.8933 28.0431,68.56 27.5,68.5C 27.5,64.1667 27.5,59.8333 27.5,55.5 Z"/></g>
<g><path style="opacity:1" fill="#eedfbf" d="M 22.5,71.5 C 23.8333,71.5 25.1667,71.5 26.5,71.5C 28.4302,75.3727 29.0969,79.706 28.5,84.5C 25.8333,84.5 23.1667,84.5 20.5,84.5C 20.6314,80.0478 21.298,75.7144 22.5,71.5 Z"/></g>
<g><path style="opacity:1" fill="#276a3e" d="M 21.5,64.5 C 21.9333,67.2589 23.6,68.5922 26.5,68.5C 24.7809,69.0221 23.4475,70.0221 22.5,71.5C 21.298,75.7144 20.6314,80.0478 20.5,84.5C 17.8333,84.5 15.1667,84.5 12.5,84.5C 14.5441,78.745 17.3775,73.4116 21,68.5C 21.49,67.2068 21.6567,65.8734 21.5,64.5 Z"/></g>
<g><path style="opacity:1" fill="#b21d1c" d="M 91.5,68.5 C 92.8333,69.1667 94.1667,69.8333 95.5,70.5C 96.2276,75.3482 97.5609,80.0149 99.5,84.5C 98.5,84.5 97.5,84.5 96.5,84.5C 95.8333,84.5 95.1667,84.5 94.5,84.5C 92.5,84.5 90.5,84.5 88.5,84.5C 85.8333,84.5 83.1667,84.5 80.5,84.5C 80.0293,82.4214 79.3627,80.4214 78.5,78.5C 78.5394,77.4168 78.8728,76.4168 79.5,75.5C 83.8513,73.4515 87.8513,71.1182 91.5,68.5 Z"/></g>
<g><path style="opacity:1" fill="#248a53" d="M 78.5,78.5 C 79.3627,80.4214 80.0293,82.4214 80.5,84.5C 80.1667,84.5 79.8333,84.5 79.5,84.5C 77.5,84.5 75.5,84.5 73.5,84.5C 72.8333,86.5 72.1667,88.5 71.5,90.5C 70.9522,88.4677 69.6188,87.4677 67.5,87.5C 67.7135,85.8561 67.3802,84.3561 66.5,83C 67.549,82.5078 68.549,82.6744 69.5,83.5C 70.4287,82.3112 70.762,80.9778 70.5,79.5C 71.8333,79.5 73.1667,79.5 74.5,79.5C 74.3505,78.448 74.5172,77.448 75,76.5C 76.1127,77.305 77.2794,77.9717 78.5,78.5 Z"/></g>
<g><path style="opacity:1" fill="#258550" d="M 36.5,76.5 C 37.0695,79.3345 38.7361,81.0012 41.5,81.5C 41.2865,83.1439 41.6198,84.6439 42.5,86C 41.2068,86.49 39.8734,86.6567 38.5,86.5C 38.5,87.5 38.5,88.5 38.5,89.5C 36.8008,89.3398 35.1341,89.5065 33.5,90C 34.4506,90.7175 34.6172,91.5509 34,92.5C 32.8873,91.695 31.7206,91.0283 30.5,90.5C 30.0293,88.4214 29.3627,86.4214 28.5,84.5C 28.8333,84.5 29.1667,84.5 29.5,84.5C 31.5,84.5 33.5,84.5 35.5,84.5C 35.5,82.8333 35.5,81.1667 35.5,79.5C 35.2627,78.209 35.596,77.209 36.5,76.5 Z"/></g>
<g><path style="opacity:1" fill="#bbbfbc" d="M 89.5,61.5 C 92.7722,62.7578 96.1056,63.9245 99.5,65C 97.1523,65.3459 95.3189,66.5125 94,68.5C 93.0228,67.2264 92.1894,67.2264 91.5,68.5C 87.8513,71.1182 83.8513,73.4515 79.5,75.5C 78.8728,76.4168 78.5394,77.4168 78.5,78.5C 77.2794,77.9717 76.1127,77.305 75,76.5C 74.5172,77.448 74.3505,78.448 74.5,79.5C 73.1667,79.5 71.8333,79.5 70.5,79.5C 70.762,80.9778 70.4287,82.3112 69.5,83.5C 68.549,82.6744 67.549,82.5078 66.5,83C 67.3802,84.3561 67.7135,85.8561 67.5,87.5C 69.6188,87.4677 70.9522,88.4677 71.5,90.5C 71.4606,91.5832 71.1272,92.5832 70.5,93.5C 70.8457,94.6956 71.3457,94.6956 72,93.5C 72.4935,95.1341 72.6602,96.8008 72.5,98.5C 72.1667,98.5 71.8333,98.5 71.5,98.5C 67.1948,93.8594 62.8614,89.1927 58.5,84.5C 59.791,84.7373 60.791,84.404 61.5,83.5C 70.4703,75.6843 79.8036,68.351 89.5,61.5 Z"/></g>
<g><path style="opacity:1" fill="#8f801c" d="M 43.5,71.5 C 48.1737,76.1711 53.1737,80.5045 58.5,84.5C 62.8614,89.1927 67.1948,93.8594 71.5,98.5C 71.2914,99.9217 70.7914,101.255 70,102.5C 63.9622,95.9607 57.4622,89.9607 50.5,84.5C 46.4718,80.1407 42.4718,75.8073 38.5,71.5C 38.369,70.7611 38.5357,70.0944 39,69.5C 39.6977,72.4106 41.1977,73.0773 43.5,71.5 Z"/></g>
<g><path style="opacity:1" fill="#c8b236" d="M 73.5,84.5 C 75.5,84.5 77.5,84.5 79.5,84.5C 79.6653,88.1817 79.4986,91.8484 79,95.5C 78.1107,94.1118 77.6107,94.2785 77.5,96C 78.5782,97.8436 79.2449,99.8436 79.5,102C 79.2081,106.038 78.2081,109.872 76.5,113.5C 74.305,115.424 71.9717,117.091 69.5,118.5C 66.8787,118.523 65.5454,117.189 65.5,114.5C 67.6381,111.888 68.9715,108.888 69.5,105.5C 71.2927,103.574 72.2927,101.241 72.5,98.5C 74.7864,94.1026 75.1197,89.436 73.5,84.5 Z"/></g>
<g><path style="opacity:1" fill="#efe0c0" d="M 80.5,84.5 C 83.1667,84.5 85.8333,84.5 88.5,84.5C 88.5,86.5 88.5,88.5 88.5,90.5C 87.5933,92.6568 86.9267,94.9902 86.5,97.5C 85.1667,97.5 83.8333,97.5 82.5,97.5C 80.5698,93.6273 79.9031,89.294 80.5,84.5 Z"/></g>
<g><path style="opacity:1" fill="#24824d" d="M 88.5,84.5 C 90.5,84.5 92.5,84.5 94.5,84.5C 93.2072,88.4189 91.3739,92.0855 89,95.5C 88.5065,93.8659 88.3398,92.1992 88.5,90.5C 88.5,88.5 88.5,86.5 88.5,84.5 Z"/></g>
<g><path style="opacity:1" fill="#266540" d="M 88.5,105.5 C 87.0937,105.027 86.427,104.027 86.5,102.5C 90.8441,97.1529 94.1774,91.1529 96.5,84.5C 97.5,84.5 98.5,84.5 99.5,84.5C 100.5,84.5 101.5,84.5 102.5,84.5C 103.481,39.8747 103.648,56.208 103,133.5C 102.667,119.167 102.333,104.833 102,90.5C 98.346,96.3177 93.846,101.318 88.5,105.5 Z"/></g>
<g><path style="opacity:1" fill="#897364" d="M 50.5,84.5 C 57.4622,89.9607 63.9622,95.9607 70,102.5C 70.7914,101.255 71.2914,99.9217 71.5,98.5C 71.8333,98.5 72.1667,98.5 72.5,98.5C 72.2927,101.241 71.2927,103.574 69.5,105.5C 63.5585,98.2212 57.2251,91.2212 50.5,84.5 Z"/></g>
<g><path style="opacity:1" fill="#90801b" d="M 47.5,85.5 C 48.9063,85.9731 49.573,86.9731 49.5,88.5C 47.1667,90.1667 45.1667,92.1667 43.5,94.5C 43.1667,95.5 42.5,96.1667 41.5,96.5C 39.9557,96.7031 38.6223,97.3698 37.5,98.5C 35.1286,98.1084 34.4619,97.1084 35.5,95.5C 39.5,92.1667 43.5,88.8333 47.5,85.5 Z"/></g>
<g><path style="opacity:1" fill="#b61d1e" d="M 47.5,85.5 C 48.209,84.596 49.209,84.2627 50.5,84.5C 57.2251,91.2212 63.5585,98.2212 69.5,105.5C 68.0267,106.071 66.36,106.071 64.5,105.5C 64.5,104.833 64.1667,104.5 63.5,104.5C 61.7798,103.692 60.1131,102.692 58.5,101.5C 57.7368,99.6316 56.7368,97.9649 55.5,96.5C 55.0831,95.8761 54.4164,95.5427 53.5,95.5C 51.9436,96.5471 50.2769,97.2137 48.5,97.5C 48.8808,99.9418 48.2141,100.609 46.5,99.5C 45.8243,100.602 45.1577,101.602 44.5,102.5C 44.44,101.957 44.1067,101.624 43.5,101.5C 42.6143,102.325 42.281,103.325 42.5,104.5C 41.209,104.263 40.209,104.596 39.5,105.5C 37.3364,105.721 35.6697,106.721 34.5,108.5C 34.5,109.833 33.8333,110.5 32.5,110.5C 32.44,109.957 32.1067,109.624 31.5,109.5C 30.7492,110.376 30.2492,111.376 30,112.5C 28.7083,111.209 27.5417,111.209 26.5,112.5C 24.9582,113.301 23.2915,113.634 21.5,113.5C 20.8333,113.5 20.5,113.167 20.5,112.5C 24.3635,110.668 28.0302,108.335 31.5,105.5C 35.2518,102.959 38.5852,99.9587 41.5,96.5C 42.5,96.1667 43.1667,95.5 43.5,94.5C 46.2254,93.287 48.5588,91.4536 50.5,89C 50.2716,88.6012 49.9382,88.4346 49.5,88.5C 49.573,86.9731 48.9063,85.9731 47.5,85.5 Z"/></g>
<g><path style="opacity:1" fill="#835750" d="M 49.5,88.5 C 49.9382,88.4346 50.2716,88.6012 50.5,89C 48.5588,91.4536 46.2254,93.287 43.5,94.5C 45.1667,92.1667 47.1667,90.1667 49.5,88.5 Z"/></g>
<g><path style="opacity:1" fill="#5b6759" d="M 73.5,84.5 C 75.1197,89.436 74.7864,94.1026 72.5,98.5C 72.6602,96.8008 72.4935,95.1341 72,93.5C 71.3457,94.6956 70.8457,94.6956 70.5,93.5C 71.1272,92.5832 71.4606,91.5832 71.5,90.5C 72.1667,88.5 72.8333,86.5 73.5,84.5 Z"/></g>
<g><path style="opacity:1" fill="#345d38" d="M 94.5,84.5 C 95.1667,84.5 95.8333,84.5 96.5,84.5C 94.1774,91.1529 90.8441,97.1529 86.5,102.5C 85.713,100.896 84.3797,100.229 82.5,100.5C 84.2191,99.9779 85.5525,98.9779 86.5,97.5C 86.9267,94.9902 87.5933,92.6568 88.5,90.5C 88.3398,92.1992 88.5065,93.8659 89,95.5C 91.3739,92.0855 93.2072,88.4189 94.5,84.5 Z"/></g>
<g><path style="opacity:1" fill="#85743f" d="M 35.5,95.5 C 34.4619,97.1084 35.1286,98.1084 37.5,98.5C 38.6223,97.3698 39.9557,96.7031 41.5,96.5C 38.5852,99.9587 35.2518,102.959 31.5,105.5C 32.6414,103.451 32.6414,101.451 31.5,99.5C 32.4023,97.6593 33.7356,96.326 35.5,95.5 Z"/></g>
<g><path style="opacity:1" fill="#d3cd0e" d="M 82.5,97.5 C 83.8333,97.5 85.1667,97.5 86.5,97.5C 85.5525,98.9779 84.2191,99.9779 82.5,100.5C 82.1667,100.5 81.8333,100.5 81.5,100.5C 81.0618,100.565 80.7284,100.399 80.5,100C 81.3805,99.2917 82.0472,98.4584 82.5,97.5 Z"/></g>
<g><path style="opacity:1" fill="#d2d6d4" d="M 55.5,96.5 C 56.7368,97.9649 57.7368,99.6316 58.5,101.5C 57.9473,105.456 57.1139,105.456 56,101.5C 54.3987,103.972 52.3987,104.972 50,104.5C 49.3333,103.833 49.3333,103.167 50,102.5C 50.6543,103.696 51.1543,103.696 51.5,102.5C 50.6744,101.549 50.5078,100.549 51,99.5C 51.9078,97.5614 53.4078,96.5614 55.5,96.5 Z"/></g>
<g><path style="opacity:1" fill="#e1d2b6" d="M 81.5,100.5 C 81.8333,100.5 82.1667,100.5 82.5,100.5C 84.3797,100.229 85.713,100.896 86.5,102.5C 86.427,104.027 87.0937,105.027 88.5,105.5C 88.6085,107.514 87.9418,109.18 86.5,110.5C 85.8333,113.5 85.1667,116.5 84.5,119.5C 82.9925,117.819 81.9925,115.819 81.5,113.5C 81.5,109.167 81.5,104.833 81.5,100.5 Z"/></g>
<g><path style="opacity:1" fill="#bcbfbb" d="M 38.5,71.5 C 42.4718,75.8073 46.4718,80.1407 50.5,84.5C 49.209,84.2627 48.209,84.596 47.5,85.5C 43.5,88.8333 39.5,92.1667 35.5,95.5C 33.7356,96.326 32.4023,97.6593 31.5,99.5C 26.9695,103.266 21.9695,106.266 16.5,108.5C 12.5747,107.9 9.90808,105.9 8.5,102.5C 10.1033,102.688 11.4366,102.188 12.5,101C 10.8863,98.8733 8.88632,97.3733 6.5,96.5C 6.5,92.5 6.5,88.5 6.5,84.5C 7.5,84.5 8.5,84.5 9.5,84.5C 11.1641,88.3286 12.3307,92.3286 13,96.5C 13.6667,98.5 15,99.8333 17,100.5C 20.9878,97.9636 25.1544,95.6303 29.5,93.5C 30.1272,92.5832 30.4606,91.5832 30.5,90.5C 31.7206,91.0283 32.8873,91.695 34,92.5C 34.6172,91.5509 34.4506,90.7175 33.5,90C 35.1341,89.5065 36.8008,89.3398 38.5,89.5C 38.5,88.5 38.5,87.5 38.5,86.5C 39.8734,86.6567 41.2068,86.49 42.5,86C 41.6198,84.6439 41.2865,83.1439 41.5,81.5C 38.7361,81.0012 37.0695,79.3345 36.5,76.5C 36.0773,74.2188 36.744,72.5521 38.5,71.5 Z"/></g>
<g><path style="opacity:1" fill="#a6201d" d="M 9.5,84.5 C 10.5,84.5 11.5,84.5 12.5,84.5C 15.1667,84.5 17.8333,84.5 20.5,84.5C 23.1667,84.5 25.8333,84.5 28.5,84.5C 29.3627,86.4214 30.0293,88.4214 30.5,90.5C 30.4606,91.5832 30.1272,92.5832 29.5,93.5C 25.1544,95.6303 20.9878,97.9636 17,100.5C 15,99.8333 13.6667,98.5 13,96.5C 12.3307,92.3286 11.1641,88.3286 9.5,84.5 Z"/></g>
<g><path style="opacity:1" fill="#93938d" d="M 55.5,96.5 C 53.4078,96.5614 51.9078,97.5614 51,99.5C 50.5078,100.549 50.6744,101.549 51.5,102.5C 51.1543,103.696 50.6543,103.696 50,102.5C 49.3333,103.167 49.3333,103.833 50,104.5C 52.3987,104.972 54.3987,103.972 56,101.5C 57.1139,105.456 57.9473,105.456 58.5,101.5C 60.1131,102.692 61.7798,103.692 63.5,104.5C 61.8762,104.36 60.7096,105.027 60,106.5C 59.2825,105.549 58.4491,105.383 57.5,106C 53.5326,109.773 49.5326,113.273 45.5,116.5C 42.1447,117.855 39.8114,120.189 38.5,123.5C 36.368,123.554 35.0347,124.554 34.5,126.5C 33.0937,126.027 32.427,125.027 32.5,123.5C 32.4295,119.399 34.4295,116.899 38.5,116C 38.1667,115.667 37.8333,115.333 37.5,115C 41.1976,113.416 45.031,110.916 49,107.5C 49.215,105.58 48.5484,103.914 47,102.5C 45.6081,104.842 44.7748,104.842 44.5,102.5C 45.1577,101.602 45.8243,100.602 46.5,99.5C 48.2141,100.609 48.8808,99.9418 48.5,97.5C 50.2769,97.2137 51.9436,96.5471 53.5,95.5C 54.4164,95.5427 55.0831,95.8761 55.5,96.5 Z"/></g>
<g><path style="opacity:1" fill="#e6d9bf" d="M 63.5,104.5 C 64.1667,104.5 64.5,104.833 64.5,105.5C 65.6602,106.265 66.6602,107.265 67.5,108.5C 66.3493,109.731 65.1827,109.731 64,108.5C 63.6667,109.167 63.3333,109.833 63,110.5C 62.6667,108.833 62.3333,107.167 62,105.5C 61.1614,110.048 59.9948,114.381 58.5,118.5C 58.7678,116.901 58.4345,115.568 57.5,114.5C 57.631,113.761 57.4643,113.094 57,112.5C 53.3146,114.096 49.4813,115.429 45.5,116.5C 49.5326,113.273 53.5326,109.773 57.5,106C 58.4491,105.383 59.2825,105.549 60,106.5C 60.7096,105.027 61.8762,104.36 63.5,104.5 Z"/></g>
<g><path style="opacity:1" fill="#4e5536" d="M 79.5,84.5 C 79.8333,84.5 80.1667,84.5 80.5,84.5C 79.9031,89.294 80.5698,93.6273 82.5,97.5C 82.0472,98.4584 81.3805,99.2917 80.5,100C 80.7284,100.399 81.0618,100.565 81.5,100.5C 81.5,104.833 81.5,109.167 81.5,113.5C 80.6981,112.048 80.1981,110.382 80,108.5C 79.3028,110.584 78.1361,112.251 76.5,113.5C 78.2081,109.872 79.2081,106.038 79.5,102C 79.2449,99.8436 78.5782,97.8436 77.5,96C 77.6107,94.2785 78.1107,94.1118 79,95.5C 79.4986,91.8484 79.6653,88.1817 79.5,84.5 Z"/></g>
<g><path style="opacity:1" fill="#867627" d="M 31.5,99.5 C 32.6414,101.451 32.6414,103.451 31.5,105.5C 28.0302,108.335 24.3635,110.668 20.5,112.5C 18.7356,111.674 17.4023,110.341 16.5,108.5C 21.9695,106.266 26.9695,103.266 31.5,99.5 Z"/></g>
<g><path style="opacity:1" fill="#8f6d64" d="M 39.5,105.5 C 40.7759,106.386 40.7759,107.386 39.5,108.5C 37.8716,109.535 36.205,109.535 34.5,108.5C 35.6697,106.721 37.3364,105.721 39.5,105.5 Z"/></g>
<g><path style="opacity:1" fill="#7d7a72" d="M 64.5,105.5 C 66.36,106.071 68.0267,106.071 69.5,105.5C 68.9715,108.888 67.6381,111.888 65.5,114.5C 65.5454,117.189 66.8787,118.523 69.5,118.5C 66.8122,119.4 64.1455,120.233 61.5,121C 62.6872,119.981 63.6872,118.814 64.5,117.5C 63.4688,116.3 62.6355,114.966 62,113.5C 61.861,116.445 60.6943,118.779 58.5,120.5C 58.5,119.833 58.5,119.167 58.5,118.5C 59.9948,114.381 61.1614,110.048 62,105.5C 62.3333,107.167 62.6667,108.833 63,110.5C 63.3333,109.833 63.6667,109.167 64,108.5C 65.1827,109.731 66.3493,109.731 67.5,108.5C 66.6602,107.265 65.6602,106.265 64.5,105.5 Z"/></g>
<g><path style="opacity:1" fill="#3a3829" d="M 75.5,107.5 C 76.6878,109.496 76.0211,110.329 73.5,110C 74.3805,109.292 75.0472,108.458 75.5,107.5 Z"/></g>
<g><path style="opacity:1" fill="#8b8f78" d="M 92.5,111.5 C 94.0337,113.342 93.7003,114.675 91.5,115.5C 90.4782,113.145 88.8116,111.478 86.5,110.5C 87.9418,109.18 88.6085,107.514 88.5,105.5C 89.1174,105.611 89.6174,105.944 90,106.5C 90.4186,105.328 91.0853,104.328 92,103.5C 92.2649,105.163 91.7649,106.663 90.5,108C 91.8228,108.816 92.4894,109.983 92.5,111.5 Z"/></g>
<g><path style="opacity:1" fill="#7a6660" d="M 32.5,110.5 C 31.7677,111.808 30.9344,113.142 30,114.5C 29.1841,113.177 28.0174,112.511 26.5,112.5C 27.5417,111.209 28.7083,111.209 30,112.5C 30.2492,111.376 30.7492,110.376 31.5,109.5C 32.1067,109.624 32.44,109.957 32.5,110.5 Z"/></g>
<g><path style="opacity:1" fill="#bfc2bf" d="M 44.5,102.5 C 44.7748,104.842 45.6081,104.842 47,102.5C 48.5484,103.914 49.215,105.58 49,107.5C 45.031,110.916 41.1976,113.416 37.5,115C 37.8333,115.333 38.1667,115.667 38.5,116C 34.4295,116.899 32.4295,119.399 32.5,123.5C 29.4433,120.456 25.7766,118.123 21.5,116.5C 20.4376,115.575 20.4376,114.575 21.5,113.5C 23.2915,113.634 24.9582,113.301 26.5,112.5C 28.0174,112.511 29.1841,113.177 30,114.5C 30.9344,113.142 31.7677,111.808 32.5,110.5C 33.8333,110.5 34.5,109.833 34.5,108.5C 36.205,109.535 37.8716,109.535 39.5,108.5C 40.7759,107.386 40.7759,106.386 39.5,105.5C 40.209,104.596 41.209,104.263 42.5,104.5C 42.281,103.325 42.6143,102.325 43.5,101.5C 44.1067,101.624 44.44,101.957 44.5,102.5 Z"/></g>
<g><path style="opacity:1" fill="#c8b335" d="M 57.5,114.5 C 58.4345,115.568 58.7678,116.901 58.5,118.5C 58.5,119.167 58.5,119.833 58.5,120.5C 58.2671,122.062 57.6005,123.395 56.5,124.5C 56.1667,124.5 55.8333,124.5 55.5,124.5C 56.17,121.41 55.0033,119.743 52,119.5C 47.8615,120.481 44.3615,122.481 41.5,125.5C 40.5,124.833 39.5,124.167 38.5,123.5C 39.8114,120.189 42.1447,117.855 45.5,116.5C 49.4813,115.429 53.3146,114.096 57,112.5C 57.4643,113.094 57.631,113.761 57.5,114.5 Z"/></g>
<g><path style="opacity:1" fill="#b52416" d="M 57.5,114.5 C 57.5,115.833 57.5,117.167 57.5,118.5C 53.8346,117.707 53.8346,116.374 57.5,114.5 Z"/></g>
<g><path style="opacity:1" fill="#5f5c4e" d="M 76.5,113.5 C 75.4731,116.858 73.1398,118.525 69.5,118.5C 71.9717,117.091 74.305,115.424 76.5,113.5 Z"/></g>
<g><path style="opacity:1" fill="#4f4f47" d="M 86.5,110.5 C 88.8116,111.478 90.4782,113.145 91.5,115.5C 93.7003,114.675 94.0337,113.342 92.5,111.5C 94.8423,113.317 96.009,115.65 96,118.5C 94.3116,116.152 92.4783,115.985 90.5,118C 91.8333,118.667 91.8333,119.333 90.5,120C 89.0406,119.645 87.7072,119.811 86.5,120.5C 86.1667,120.5 85.8333,120.5 85.5,120.5C 84.8333,120.5 84.5,120.167 84.5,119.5C 85.1667,116.5 85.8333,113.5 86.5,110.5 Z"/></g>
<g><path style="opacity:1" fill="#f3e4c3" d="M 55.5,124.5 C 55.5,125.167 55.5,125.833 55.5,126.5C 53.8008,126.34 52.1341,126.506 50.5,127C 49.7476,127.671 49.4142,128.504 49.5,129.5C 49.8841,131.665 49.2174,133.332 47.5,134.5C 45.4971,131.467 43.4971,128.467 41.5,125.5C 44.3615,122.481 47.8615,120.481 52,119.5C 55.0033,119.743 56.17,121.41 55.5,124.5 Z"/></g>
<g><path style="opacity:1" fill="#318753" d="M 85.5,120.5 C 85.8333,120.5 86.1667,120.5 86.5,120.5C 86.4114,125.758 88.7448,127.425 93.5,125.5C 94.737,125.556 95.737,126.056 96.5,127C 93.7366,127.55 91.0699,128.383 88.5,129.5C 86.9271,129.248 85.5938,128.582 84.5,127.5C 85.8333,125.833 85.8333,124.167 84.5,122.5C 84.8333,121.833 85.1667,121.167 85.5,120.5 Z"/></g>
<g><path style="opacity:1" fill="#735247" d="M 55.5,124.5 C 55.8333,124.5 56.1667,124.5 56.5,124.5C 59.2869,125.477 62.2869,125.81 65.5,125.5C 65.366,127.292 65.6993,128.958 66.5,130.5C 65.3991,131.598 64.0657,131.765 62.5,131C 64.0368,129.89 64.7035,128.39 64.5,126.5C 61.8333,126.5 59.1667,126.5 56.5,126.5C 56.1667,126.5 55.8333,126.5 55.5,126.5C 55.5,125.833 55.5,125.167 55.5,124.5 Z"/></g>
<g><path style="opacity:1" fill="#edddbf" d="M 56.5,126.5 C 59.1667,126.5 61.8333,126.5 64.5,126.5C 64.7035,128.39 64.0368,129.89 62.5,131C 64.0657,131.765 65.3991,131.598 66.5,130.5C 67.3382,130.842 67.6716,131.508 67.5,132.5C 66.3569,132.908 65.3569,133.575 64.5,134.5C 65.6161,134.402 66.6161,134.902 67.5,136C 67.0463,138.03 66.3796,139.863 65.5,141.5C 64.0484,142.302 62.3817,142.802 60.5,143C 62.7695,143.758 64.9361,143.591 67,142.5C 67.4828,143.448 67.6495,144.448 67.5,145.5C 63.4638,147.324 60.2971,146.324 58,142.5C 57.7849,137.085 57.2849,131.752 56.5,126.5 Z"/></g>
<g><path style="opacity:1" fill="#c3c8c3" d="M 38.5,123.5 C 39.5,124.167 40.5,124.833 41.5,125.5C 41.8769,127.258 42.5435,128.925 43.5,130.5C 42.5827,133.758 42.2493,137.091 42.5,140.5C 41.5,140.5 40.5,140.5 39.5,140.5C 38.1398,135.727 36.4732,131.061 34.5,126.5C 35.0347,124.554 36.368,123.554 38.5,123.5 Z"/></g>
<g><path style="opacity:1" fill="#a32a24" d="M 84.5,122.5 C 85.8333,124.167 85.8333,125.833 84.5,127.5C 82.041,132.088 78.7077,133.088 74.5,130.5C 75.6816,128.533 75.0149,127.2 72.5,126.5C 76.1389,124.01 80.1389,122.677 84.5,122.5 Z"/></g>
<g><path style="opacity:1" fill="#807141" d="M 41.5,125.5 C 43.4971,128.467 45.4971,131.467 47.5,134.5C 49.2174,133.332 49.8841,131.665 49.5,129.5C 50.6291,131.628 50.7958,133.961 50,136.5C 48.4126,135.273 47.0793,135.606 46,137.5C 45.7508,136.376 45.2508,135.376 44.5,134.5C 43.8313,136.631 43.1646,138.631 42.5,140.5C 42.2493,137.091 42.5827,133.758 43.5,130.5C 42.5435,128.925 41.8769,127.258 41.5,125.5 Z"/></g>
<g><path style="opacity:1" fill="#6c6961" d="M 67.5,132.5 C 68.4778,132.811 69.1445,133.478 69.5,134.5C 67.2144,138.01 66.8811,141.677 68.5,145.5C 68.1667,145.5 67.8333,145.5 67.5,145.5C 67.6495,144.448 67.4828,143.448 67,142.5C 64.9361,143.591 62.7695,143.758 60.5,143C 62.3817,142.802 64.0484,142.302 65.5,141.5C 66.3796,139.863 67.0463,138.03 67.5,136C 66.6161,134.902 65.6161,134.402 64.5,134.5C 65.3569,133.575 66.3569,132.908 67.5,132.5 Z"/></g>
<g><path style="opacity:1" fill="#121211" d="M 5.5,135.5 C 13.1032,138.289 13.4365,141.956 6.5,146.5C 0.337068,142.971 0.00373517,139.305 5.5,135.5 Z"/></g>
<g><path style="opacity:1" fill="#121211" d="M 101.5,135.5 C 109.103,138.289 109.437,141.956 102.5,146.5C 96.3371,142.971 96.0037,139.305 101.5,135.5 Z"/></g>
<g><path style="opacity:1" fill="#414444" d="M 65.5,141.5 C 61.0296,141.97 60.5296,140.97 64,138.5C 65.0386,139.244 65.5386,140.244 65.5,141.5 Z"/></g>
<g><path style="opacity:1" fill="#090908" d="M 86.5,141.5 C 87.7082,140.218 89.0416,140.218 90.5,141.5C 88.7752,144.783 89.4419,145.783 92.5,144.5C 96.1471,145.486 97.3138,147.819 96,151.5C 93.9495,153.888 91.6162,155.888 89,157.5C 83.48,155.68 80.8134,152.013 81,146.5C 82.7889,144.771 84.9556,144.104 87.5,144.5C 87.7373,143.209 87.404,142.209 86.5,141.5 Z"/></g>
<g><path style="opacity:1" fill="#8b7931" d="M 55.5,126.5 C 55.8333,126.5 56.1667,126.5 56.5,126.5C 57.2849,131.752 57.7849,137.085 58,142.5C 60.2971,146.324 63.4638,147.324 67.5,145.5C 67.8333,145.5 68.1667,145.5 68.5,145.5C 68.3184,147.591 68.6518,149.591 69.5,151.5C 68.9598,152.748 68.2931,153.915 67.5,155C 63.004,156.888 58.3374,158.055 53.5,158.5C 53.67,159.822 53.3366,160.989 52.5,162C 66.8333,162.333 81.1667,162.667 95.5,163C 68.1667,163.667 40.8333,163.667 13.5,163C 23.5,162.667 33.5,162.333 43.5,162C 42.3333,160.167 40.8333,158.667 39,157.5C 37.9902,153.573 36.8235,149.739 35.5,146C 35.9009,143.44 37.2342,141.607 39.5,140.5C 40.5,140.5 41.5,140.5 42.5,140.5C 43.1646,138.631 43.8313,136.631 44.5,134.5C 45.2508,135.376 45.7508,136.376 46,137.5C 47.0793,135.606 48.4126,135.273 50,136.5C 50.7958,133.961 50.6291,131.628 49.5,129.5C 49.4142,128.504 49.7476,127.671 50.5,127C 52.1341,126.506 53.8008,126.34 55.5,126.5 Z"/></g>
<g><path style="opacity:1" fill="#554b21" d="M 47.5,140.5 C 50.3298,138.965 51.6631,139.965 51.5,143.5C 53.1092,143.094 54.4425,143.094 55.5,143.5C 54.0663,144.23 52.8996,145.23 52,146.5C 51.2747,144.842 50.108,144.342 48.5,145C 50.9316,146.087 50.5983,146.587 47.5,146.5C 47.67,145.178 47.3366,144.011 46.5,143C 48.0846,142.915 49.4179,142.749 50.5,142.5C 49.9953,141.081 48.9953,140.415 47.5,140.5 Z"/></g>
<g><path style="opacity:1" fill="#171715" d="M 4.5,150.5 C 6.16667,150.5 7.83333,150.5 9.5,150.5C 9.5,155.167 9.5,159.833 9.5,164.5C 7.5328,164.739 5.69946,164.406 4,163.5C 3.23158,159.08 3.39825,154.747 4.5,150.5 Z"/></g>
<g><path style="opacity:1" fill="#171715" d="M 100.5,150.5 C 102.167,150.5 103.833,150.5 105.5,150.5C 105.5,155.167 105.5,159.833 105.5,164.5C 103.533,164.739 101.699,164.406 100,163.5C 99.2316,159.08 99.3982,154.747 100.5,150.5 Z"/></g>
<g><path style="opacity:1" fill="#ecf4e4" d="M 5.5,152.5 C 6.77725,153.694 7.44392,155.36 7.5,157.5C 7.16667,159.167 6.83333,160.833 6.5,162.5C 5.51298,159.232 5.17964,155.898 5.5,152.5 Z"/></g>
<g><path style="opacity:1" fill="#ecf4e4" d="M 101.5,152.5 C 102.777,153.694 103.444,155.36 103.5,157.5C 103.167,159.167 102.833,160.833 102.5,162.5C 101.513,159.232 101.18,155.898 101.5,152.5 Z"/></g>
</svg>
