<?xml version="1.0" encoding="UTF-8"?>
<!DOCTYPE svg PUBLIC "-//W3C//DTD SVG 1.1//EN" "http://www.w3.org/Graphics/SVG/1.1/DTD/svg11.dtd">
<svg xmlns="http://www.w3.org/2000/svg" version="1.1" width="110px" height="170px" style="shape-rendering:geometricPrecision; text-rendering:geometricPrecision; image-rendering:optimizeQuality; fill-rule:evenodd; clip-rule:evenodd" xmlns:xlink="http://www.w3.org/1999/xlink">
<g><path style="opacity:1" fill="#ebf2e1" d="M -0.5,-0.5 C 36.1667,-0.5 72.8333,-0.5 109.5,-0.5C 109.5,56.1667 109.5,112.833 109.5,169.5C 72.8333,169.5 36.1667,169.5 -0.5,169.5C -0.5,112.833 -0.5,56.1667 -0.5,-0.5 Z"/></g>
<g><path style="opacity:1" fill="#131212" d="M 2.5,4.5 C 4.11709,5.58935 4.95042,7.25602 5,9.5C 8.91996,2.71708 9.7533,2.88375 7.5,10C 8.22391,12.7792 9.22391,15.4459 10.5,18C 9.55198,18.4828 8.55198,18.6495 7.5,18.5C 6.61413,10.694 5.2808,10.694 3.5,18.5C 2.50671,13.8804 2.17338,9.21369 2.5,4.5 Z"/></g>
<g><path style="opacity:1" fill="#131212" d="M 98.5,4.5 C 100.117,5.58935 100.95,7.25602 101,9.5C 104.92,2.71708 105.753,2.88375 103.5,10C 104.224,12.7792 105.224,15.4459 106.5,18C 105.552,18.4828 104.552,18.6495 103.5,18.5C 102.614,10.694 101.281,10.694 99.5,18.5C 98.5067,13.8804 98.1734,9.21369 98.5,4.5 Z"/></g>
<g><path style="opacity:1" fill="#1b191b" d="M 94.5,11.5 C 93.8333,11.5 93.1667,11.5 92.5,11.5C 93.4523,9.88771 93.7856,8.38771 93.5,7C 85.8406,6.50031 78.1739,6.33365 70.5,6.5C 69.1667,6.5 67.8333,6.5 66.5,6.5C 65.1667,6.5 63.8333,6.5 62.5,6.5C 61.1667,6.5 59.8333,6.5 58.5,6.5C 56.8333,6.5 55.1667,6.5 53.5,6.5C 53.1667,6.5 52.8333,6.5 52.5,6.5C 51.8333,6.5 51.1667,6.5 50.5,6.5C 49.8333,6.5 49.1667,6.5 48.5,6.5C 47.5,6.5 46.5,6.5 45.5,6.5C 44.1667,6.5 42.8333,6.5 41.5,6.5C 40.5,6.5 39.5,6.5 38.5,6.5C 36.8333,6.5 35.1667,6.5 33.5,6.5C 40.8048,5.22673 61.4715,5.06006 95.5,6C 95.7953,7.71367 95.4619,9.547 94.5,11.5 Z"/></g>
<g><path style="opacity:1" fill="#eef3e2" d="M 38.5,6.5 C 39.5,6.5 40.5,6.5 41.5,6.5C 41.5,7.83333 41.5,9.16667 41.5,10.5C 40.5,10.5 39.5,10.5 38.5,10.5C 38.5,9.16667 38.5,7.83333 38.5,6.5 Z"/></g>
<g><path style="opacity:1" fill="#e9e6d4" d="M 53.5,6.5 C 55.1667,6.5 56.8333,6.5 58.5,6.5C 58.5,7.5 58.5,8.5 58.5,9.5C 55.4446,11.8574 53.7779,10.8574 53.5,6.5 Z"/></g>
<g><path style="opacity:1" fill="#e8e2d2" d="M 62.5,6.5 C 63.8333,6.5 65.1667,6.5 66.5,6.5C 66.3713,8.2161 66.038,9.88277 65.5,11.5C 64.5,12.8333 63.5,12.8333 62.5,11.5C 62.5,9.83333 62.5,8.16667 62.5,6.5 Z"/></g>
<g><path style="opacity:1" fill="#ecf2e1" d="M 70.5,6.5 C 78.1739,6.33365 85.8406,6.50031 93.5,7C 93.7856,8.38771 93.4523,9.88771 92.5,11.5C 91.7784,11.9175 91.2784,12.5842 91,13.5C 90.1598,20.889 88.9932,28.2223 87.5,35.5C 86.9628,36.7412 86.2961,37.9079 85.5,39C 86.3223,41.4339 86.6556,43.9339 86.5,46.5C 86.0879,48.8867 85.0879,50.8867 83.5,52.5C 82.8333,51.8333 82.1667,51.1667 81.5,50.5C 81.9948,46.5401 80.3281,44.2068 76.5,43.5C 76.5,42.1667 75.8333,41.5 74.5,41.5C 73.4324,40.5655 72.099,40.2322 70.5,40.5C 71.264,35.8595 70.0974,31.8595 67,28.5C 66.023,26.26 65.523,23.9267 65.5,21.5C 66.6091,18.7211 68.6091,17.0545 71.5,16.5C 72.0431,16.44 72.3764,16.1067 72.5,15.5C 71.3112,14.5713 69.9778,14.238 68.5,14.5C 70.0507,12.0872 70.7174,9.42058 70.5,6.5 Z"/></g>
<g><path style="opacity:1" fill="#c0672b" d="M 33.5,6.5 C 35.1667,6.5 36.8333,6.5 38.5,6.5C 38.5,7.83333 38.5,9.16667 38.5,10.5C 37.5,11.1667 36.5,11.8333 35.5,12.5C 33.9261,10.8984 33.2594,8.89837 33.5,6.5 Z"/></g>
<g><path style="opacity:1" fill="#c66b17" d="M 58.5,6.5 C 59.8333,6.5 61.1667,6.5 62.5,6.5C 62.5,8.16667 62.5,9.83333 62.5,11.5C 61.8333,11.5 61.1667,11.5 60.5,11.5C 60.1667,10.5 59.5,9.83333 58.5,9.5C 58.5,8.5 58.5,7.5 58.5,6.5 Z"/></g>
<g><path style="opacity:1" fill="#090908" d="M 18.5,11.5 C 24.823,12.6438 27.9897,16.3105 28,22.5C 26.2111,24.229 24.0444,24.8957 21.5,24.5C 21.33,25.8221 21.6634,26.9887 22.5,28C 21.0563,28.7805 19.723,28.6139 18.5,27.5C 20.2248,24.2172 19.5581,23.2172 16.5,24.5C 12.8529,23.5139 11.6862,21.1806 13,17.5C 15.0113,15.6557 16.8446,13.6557 18.5,11.5 Z"/></g>
<g><path style="opacity:1" fill="#7e5729" d="M 41.5,6.5 C 42.8333,6.5 44.1667,6.5 45.5,6.5C 46.9407,11.6393 47.9407,11.6393 48.5,6.5C 49.1667,6.5 49.8333,6.5 50.5,6.5C 51.1667,10.5 51.8333,10.5 52.5,6.5C 52.8333,6.5 53.1667,6.5 53.5,6.5C 53.7779,10.8574 55.4446,11.8574 58.5,9.5C 59.5,9.83333 60.1667,10.5 60.5,11.5C 59.5,11.5 58.5,11.5 57.5,11.5C 57.5,12.5 57.5,13.5 57.5,14.5C 55.712,14.7852 54.0453,14.4519 52.5,13.5C 53.3256,12.549 53.4922,11.549 53,10.5C 52,11.8333 51,11.8333 50,10.5C 49.5078,11.549 49.6744,12.549 50.5,13.5C 46.9725,14.9213 43.3058,15.5879 39.5,15.5C 39.6495,14.448 39.4828,13.448 39,12.5C 37.9887,13.3366 36.8221,13.67 35.5,13.5C 35.5,13.1667 35.5,12.8333 35.5,12.5C 36.5,11.8333 37.5,11.1667 38.5,10.5C 39.5,10.5 40.5,10.5 41.5,10.5C 41.5,9.16667 41.5,7.83333 41.5,6.5 Z"/></g>
<g><path style="opacity:1" fill="#f2db07" d="M 50.5,6.5 C 51.1667,6.5 51.8333,6.5 52.5,6.5C 51.8333,10.5 51.1667,10.5 50.5,6.5 Z"/></g>
<g><path style="opacity:1" fill="#e2e4d3" d="M 45.5,6.5 C 46.5,6.5 47.5,6.5 48.5,6.5C 47.9407,11.6393 46.9407,11.6393 45.5,6.5 Z"/></g>
<g><path style="opacity:1" fill="#c54d48" d="M 60.5,11.5 C 60.5,12.5 60.5,13.5 60.5,14.5C 59.5,14.5 58.5,14.5 57.5,14.5C 57.5,13.5 57.5,12.5 57.5,11.5C 58.5,11.5 59.5,11.5 60.5,11.5 Z"/></g>
<g><path style="opacity:1" fill="#c46728" d="M 66.5,6.5 C 67.8333,6.5 69.1667,6.5 70.5,6.5C 70.7174,9.42058 70.0507,12.0872 68.5,14.5C 67.1667,13.8333 66.1667,12.8333 65.5,11.5C 66.038,9.88277 66.3713,8.2161 66.5,6.5 Z"/></g>
<g><path style="opacity:1" fill="#64572c" d="M 35.5,13.5 C 37.2503,14.6594 38.2503,16.326 38.5,18.5C 36.1944,18.0074 33.861,17.6741 31.5,17.5C 31.5,16.5 31.5,15.5 31.5,14.5C 32.9587,14.5674 34.2921,14.2341 35.5,13.5 Z"/></g>
<g><path style="opacity:1" fill="#594826" d="M 60.5,11.5 C 61.1667,11.5 61.8333,11.5 62.5,11.5C 63.5,12.8333 64.5,12.8333 65.5,11.5C 66.1667,12.8333 67.1667,13.8333 68.5,14.5C 69.9778,14.238 71.3112,14.5713 72.5,15.5C 72.3764,16.1067 72.0431,16.44 71.5,16.5C 68.8785,15.9669 66.3785,14.9669 64,13.5C 62.9887,14.3366 61.8221,14.67 60.5,14.5C 60.5,13.5 60.5,12.5 60.5,11.5 Z"/></g>
<g><path style="opacity:1" fill="#cfbf10" d="M 57.5,14.5 C 58.5,14.5 59.5,14.5 60.5,14.5C 61.8221,14.67 62.9887,14.3366 64,13.5C 66.3785,14.9669 68.8785,15.9669 71.5,16.5C 68.6091,17.0545 66.6091,18.7211 65.5,21.5C 64.448,21.6495 63.448,21.4828 62.5,21C 63.731,19.8173 63.731,18.6507 62.5,17.5C 60.6627,21.2766 58.9961,21.2766 57.5,17.5C 56.6143,18.325 56.281,19.325 56.5,20.5C 55.1667,20.5 53.8333,20.5 52.5,20.5C 51.8333,16.5 51.1667,16.5 50.5,20.5C 49.1667,20.5 47.8333,20.5 46.5,20.5C 46.5,19.5 46.5,18.5 46.5,17.5C 45.5,17.5 44.5,17.5 43.5,17.5C 43.5,18.5 43.5,19.5 43.5,20.5C 43.1667,20.5 42.8333,20.5 42.5,20.5C 42.0135,17.2855 41.0135,16.9522 39.5,19.5C 38.8333,19.5 38.5,19.1667 38.5,18.5C 38.2503,16.326 37.2503,14.6594 35.5,13.5C 36.8221,13.67 37.9887,13.3366 39,12.5C 39.4828,13.448 39.6495,14.448 39.5,15.5C 43.3058,15.5879 46.9725,14.9213 50.5,13.5C 49.6744,12.549 49.5078,11.549 50,10.5C 51,11.8333 52,11.8333 53,10.5C 53.4922,11.549 53.3256,12.549 52.5,13.5C 54.0453,14.4519 55.712,14.7852 57.5,14.5 Z"/></g>
<g><path style="opacity:1" fill="#b43411" d="M 42.5,20.5 C 41.8333,20.5 41.5,20.8333 41.5,21.5C 40.8333,21.1667 40.1667,20.8333 39.5,20.5C 39.5,20.1667 39.5,19.8333 39.5,19.5C 41.0135,16.9522 42.0135,17.2855 42.5,20.5 Z"/></g>
<g><path style="opacity:1" fill="#b53c19" d="M 46.5,20.5 C 45.5,20.5 44.5,20.5 43.5,20.5C 43.5,19.5 43.5,18.5 43.5,17.5C 44.5,17.5 45.5,17.5 46.5,17.5C 46.5,18.5 46.5,19.5 46.5,20.5 Z"/></g>
<g><path style="opacity:1" fill="#593b26" d="M 92.5,11.5 C 93.1667,11.5 93.8333,11.5 94.5,11.5C 95.1239,11.9169 95.4573,12.5836 95.5,13.5C 93.8931,21.1666 92.5597,28.8332 91.5,36.5C 91.6646,33.4816 91.498,30.4816 91,27.5C 89.2663,32.8367 89.0997,37.8367 90.5,42.5C 90.815,46.3714 90.4816,50.0381 89.5,53.5C 89.5709,48.4005 88.9042,43.4005 87.5,38.5C 87.6919,41.0933 87.3586,43.7599 86.5,46.5C 86.6556,43.9339 86.3223,41.4339 85.5,39C 86.2961,37.9079 86.9628,36.7412 87.5,35.5C 88.9932,28.2223 90.1598,20.889 91,13.5C 91.2784,12.5842 91.7784,11.9175 92.5,11.5 Z"/></g>
<g><path style="opacity:1" fill="#10100f" d="M 5.5,22.5 C 12.9078,25.7455 13.2411,29.4122 6.5,33.5C 5.40958,32.273 4.07625,31.4396 2.5,31C 1.94149,30.2753 1.60816,29.4419 1.5,28.5C 2.43161,26.2345 3.76494,24.2345 5.5,22.5 Z"/></g>
<g><path style="opacity:1" fill="#10100f" d="M 101.5,22.5 C 108.908,25.7455 109.241,29.4122 102.5,33.5C 101.41,32.273 100.076,31.4396 98.5,31C 97.9415,30.2753 97.6082,29.4419 97.5,28.5C 98.4316,26.2345 99.7649,24.2345 101.5,22.5 Z"/></g>
<g><path style="opacity:1" fill="#634f19" d="M 65.5,21.5 C 65.523,23.9267 66.023,26.26 67,28.5C 70.0974,31.8595 71.264,35.8595 70.5,40.5C 72.099,40.2322 73.4324,40.5655 74.5,41.5C 72.6096,41.2965 71.1096,41.9632 70,43.5C 69.2177,46.3102 68.3844,48.9768 67.5,51.5C 66.9377,49.3345 66.271,49.6678 65.5,52.5C 60.0389,53.5082 54.7055,54.5082 49.5,55.5C 47.8333,55.5 46.1667,55.5 44.5,55.5C 42.3432,54.5933 40.0098,53.9267 37.5,53.5C 37.7845,51.5853 37.4511,49.9187 36.5,48.5C 34.684,46.8816 33.3507,44.8816 32.5,42.5C 32.5,42.1667 32.5,41.8333 32.5,41.5C 34.3051,34.3475 36.6384,27.3475 39.5,20.5C 40.1667,20.8333 40.8333,21.1667 41.5,21.5C 41.5,20.8333 41.8333,20.5 42.5,20.5C 42.8333,20.5 43.1667,20.5 43.5,20.5C 44.5,20.5 45.5,20.5 46.5,20.5C 47.8333,20.5 49.1667,20.5 50.5,20.5C 51.1667,16.5 51.8333,16.5 52.5,20.5C 53.8333,20.5 55.1667,20.5 56.5,20.5C 56.281,19.325 56.6143,18.325 57.5,17.5C 58.9961,21.2766 60.6627,21.2766 62.5,17.5C 63.731,18.6507 63.731,19.8173 62.5,21C 63.448,21.4828 64.448,21.6495 65.5,21.5 Z"/></g>
<g><path style="opacity:1" fill="#e2cab5" d="M 44.5,26.5 C 45.1535,29.5864 44.8202,32.5864 43.5,35.5C 42.1667,35.5 41.5,34.8333 41.5,33.5C 41.5,33.1667 41.5,32.8333 41.5,32.5C 41.4551,29.9228 42.4551,27.9228 44.5,26.5 Z"/></g>
<g><path style="opacity:1" fill="#dfc8b0" d="M 41.5,21.5 C 46.2137,21.1734 50.8804,21.5067 55.5,22.5C 57.7597,27.6956 58.0931,33.0289 56.5,38.5C 55.5041,38.4142 54.6708,38.7476 54,39.5C 53.7216,38.5842 53.2216,37.9175 52.5,37.5C 50.9579,34.723 48.7913,33.723 46,34.5C 46.3201,31.5399 46.3201,28.5399 46,25.5C 45.6174,26.056 45.1174,26.3893 44.5,26.5C 43.7375,25.7321 42.7375,25.2321 41.5,25C 45.2259,23.9568 44.8926,23.4568 40.5,23.5C 40.8333,22.8333 41.1667,22.1667 41.5,21.5 Z"/></g>
<g><path style="opacity:1" fill="#3f413d" d="M 49.5,25.5 C 54.029,25.0421 54.529,26.0421 51,28.5C 48.7197,28.1058 48.2197,27.1058 49.5,25.5 Z"/></g>
<g><path style="opacity:1" fill="#4b4b45" d="M 40.5,23.5 C 44.8926,23.4568 45.2259,23.9568 41.5,25C 42.7375,25.2321 43.7375,25.7321 44.5,26.5C 42.4551,27.9228 41.4551,29.9228 41.5,32.5C 40.5233,29.7131 40.19,26.7131 40.5,23.5 Z"/></g>
<g><path style="opacity:1" fill="#7e7020" d="M 91.5,36.5 C 94.3083,38.9158 93.975,40.9158 90.5,42.5C 89.0997,37.8367 89.2663,32.8367 91,27.5C 91.498,30.4816 91.6646,33.4816 91.5,36.5 Z"/></g>
<g><path style="opacity:1" fill="#1a1719" d="M 6.5,66.5 C 6.20528,68.7354 6.53862,70.7354 7.5,72.5C 6.89022,73.391 6.55688,74.391 6.5,75.5C 6.5,78.1667 6.5,80.8333 6.5,83.5C 6.5,83.8333 6.5,84.1667 6.5,84.5C 6.5,90.1667 6.5,95.8333 6.5,101.5C 5.17239,90.5021 5.17239,78.8354 6.5,66.5 Z"/></g>
<g><path style="opacity:1" fill="#675933" d="M 52.5,37.5 C 52.631,38.2389 52.4643,38.9056 52,39.5C 48.9537,38.3172 46.1204,36.9839 43.5,35.5C 44.8202,32.5864 45.1535,29.5864 44.5,26.5C 45.1174,26.3893 45.6174,26.056 46,25.5C 46.3201,28.5399 46.3201,31.5399 46,34.5C 48.7913,33.723 50.9579,34.723 52.5,37.5 Z"/></g>
<g><path style="opacity:1" fill="#1a1719" d="M 102.5,102.5 C 102.795,100.265 102.461,98.2646 101.5,96.5C 102.11,95.609 102.443,94.609 102.5,93.5C 102.5,90.8333 102.5,88.1667 102.5,85.5C 102.5,85.1667 102.5,84.8333 102.5,84.5C 102.5,78.8333 102.5,73.1667 102.5,67.5C 103.828,78.4979 103.828,90.1646 102.5,102.5 Z"/></g>
<g><path style="opacity:1" fill="#9d8c48" d="M 41.5,33.5 C 41.5,34.8333 42.1667,35.5 43.5,35.5C 46.1204,36.9839 48.9537,38.3172 52,39.5C 52.4643,38.9056 52.631,38.2389 52.5,37.5C 53.2216,37.9175 53.7216,38.5842 54,39.5C 54.6708,38.7476 55.5041,38.4142 56.5,38.5C 56.5858,39.4959 56.2524,40.3292 55.5,41C 52.0258,41.3007 48.6925,42.134 45.5,43.5C 44.6551,41.2381 43.3217,40.5714 41.5,41.5C 40.1997,38.6908 40.1997,36.0241 41.5,33.5 Z"/></g>
<g><path style="opacity:1" fill="#f2f2f1" d="M 74.5,41.5 C 75.8333,41.5 76.5,42.1667 76.5,43.5C 76.5198,45.143 75.8532,46.4763 74.5,47.5C 76.0437,47.2889 77.7103,47.2889 79.5,47.5C 78.9747,48.1924 78.3081,48.6924 77.5,49C 79.5938,50.255 80.5938,52.0884 80.5,54.5C 80.0029,56.8183 79.6695,59.1516 79.5,61.5C 77.8819,64.1709 77.2153,67.1709 77.5,70.5C 75.4249,74.4742 74.4249,78.8075 74.5,83.5C 73.609,84.1098 72.609,84.4431 71.5,84.5C 69.1667,84.5 66.8333,84.5 64.5,84.5C 63.1667,84.5 61.8333,84.5 60.5,84.5C 61.7958,76.4004 63.6291,68.4004 66,60.5C 68.2048,57.9969 68.7048,54.9969 67.5,51.5C 68.3844,48.9768 69.2177,46.3102 70,43.5C 71.1096,41.9632 72.6096,41.2965 74.5,41.5 Z"/></g>
<g><path style="opacity:1" fill="#454341" d="M 74.5,41.5 C 75.8333,41.5 76.5,42.1667 76.5,43.5C 75.1667,43.5 74.5,42.8333 74.5,41.5 Z"/></g>
<g><path style="opacity:1" fill="#ededeb" d="M 32.5,42.5 C 33.3507,44.8816 34.684,46.8816 36.5,48.5C 36.6633,50.8568 36.4966,53.1902 36,55.5C 34.5619,56.9003 33.7286,58.567 33.5,60.5C 31.5,60.8333 29.5,61.1667 27.5,61.5C 27.1667,60.5 26.5,59.8333 25.5,59.5C 25.5,57.8333 25.5,56.1667 25.5,54.5C 27.328,51.865 28.4947,48.865 29,45.5C 30.0391,44.2899 31.2058,43.2899 32.5,42.5 Z"/></g>
<g><path style="opacity:1" fill="#f1e70a" d="M 64.5,46.5 C 65.552,46.3505 66.552,46.5172 67.5,47C 61.6097,50.0361 55.2764,51.5361 48.5,51.5C 45.0315,51.473 41.6982,50.8063 38.5,49.5C 40.8275,48.276 43.1608,48.276 45.5,49.5C 49.0711,48.9185 52.4044,47.9185 55.5,46.5C 58.673,45.8501 61.673,45.8501 64.5,46.5 Z"/></g>
<g><path style="opacity:1" fill="#998829" d="M 64.5,46.5 C 61.673,45.8501 58.673,45.8501 55.5,46.5C 57.4818,45.438 59.3152,44.1047 61,42.5C 61.49,43.7932 61.6567,45.1266 61.5,46.5C 62.5,46.5 63.5,46.5 64.5,46.5 Z"/></g>
<g><path style="opacity:1" fill="#988b2e" d="M 89.5,53.5 C 89.5,53.8333 89.5,54.1667 89.5,54.5C 88.71,55.6085 88.21,56.9419 88,58.5C 87.6667,57.5 87.3333,56.5 87,55.5C 86.1779,57.7885 85.5112,60.1218 85,62.5C 84.6174,61.944 84.1174,61.6107 83.5,61.5C 84.7335,58.4648 84.7335,55.4648 83.5,52.5C 85.0879,50.8867 86.0879,48.8867 86.5,46.5C 87.3586,43.7599 87.6919,41.0933 87.5,38.5C 88.9042,43.4005 89.5709,48.4005 89.5,53.5 Z"/></g>
<g><path style="opacity:1" fill="#292724" d="M 32.5,41.5 C 32.5,41.8333 32.5,42.1667 32.5,42.5C 31.2058,43.2899 30.0391,44.2899 29,45.5C 28.4947,48.865 27.328,51.865 25.5,54.5C 25.5172,52.4352 25.8505,50.4352 26.5,48.5C 27.088,44.9148 29.088,42.5815 32.5,41.5 Z"/></g>
<g><path style="opacity:1" fill="#43423f" d="M 76.5,43.5 C 80.3281,44.2068 81.9948,46.5401 81.5,50.5C 81.6646,53.5184 81.498,56.5184 81,59.5C 80.7216,60.4158 80.2216,61.0825 79.5,61.5C 79.6695,59.1516 80.0029,56.8183 80.5,54.5C 80.5938,52.0884 79.5938,50.255 77.5,49C 78.3081,48.6924 78.9747,48.1924 79.5,47.5C 77.7103,47.2889 76.0437,47.2889 74.5,47.5C 75.8532,46.4763 76.5198,45.143 76.5,43.5 Z"/></g>
<g><path style="opacity:1" fill="#585753" d="M 33.5,48.5 C 34.0431,48.56 34.3764,48.8933 34.5,49.5C 32.1382,54.4835 30.9715,54.4835 31,49.5C 32.159,50.566 32.9924,50.2327 33.5,48.5 Z"/></g>
<g><path style="opacity:1" fill="#303334" d="M 67.5,51.5 C 68.7048,54.9969 68.2048,57.9969 66,60.5C 63.6291,68.4004 61.7958,76.4004 60.5,84.5C 59.3433,81.9741 59.3433,79.3074 60.5,76.5C 61.1524,75.5514 61.4857,74.3847 61.5,73C 61.3917,71.3189 60.7251,70.1522 59.5,69.5C 60.3149,68.1634 61.4815,67.1634 63,66.5C 63.4828,65.552 63.6495,64.552 63.5,63.5C 64.4345,62.4324 64.7678,61.099 64.5,59.5C 66.345,58.0045 66.6783,56.3379 65.5,54.5C 66.5063,53.6043 66.5063,52.9377 65.5,52.5C 66.271,49.6678 66.9377,49.3345 67.5,51.5 Z"/></g>
<g><path style="opacity:1" fill="#90271b" d="M 26.5,48.5 C 25.8505,50.4352 25.5172,52.4352 25.5,54.5C 24.8689,56.9344 23.8689,59.2677 22.5,61.5C 21.0262,62.6751 19.3596,63.6751 17.5,64.5C 18.1925,65.5178 18.8592,66.5178 19.5,67.5C 19.1667,67.5 18.8333,67.5 18.5,67.5C 14.7252,68.8867 11.0585,70.5534 7.5,72.5C 6.53862,70.7354 6.20528,68.7354 6.5,66.5C 11.387,61.2278 16.387,56.0611 21.5,51C 23.0779,49.9055 24.7446,49.0722 26.5,48.5 Z"/></g>
<g><path style="opacity:1" fill="#4089b1" d="M 37.5,53.5 C 40.0098,53.9267 42.3432,54.5933 44.5,55.5C 43.205,56.4884 41.8717,57.4884 40.5,58.5C 39.8485,59.0906 39.1818,59.7573 38.5,60.5C 37.5258,58.2573 37.1924,55.924 37.5,53.5 Z"/></g>
<g><path style="opacity:1" fill="#2b86b4" d="M 65.5,52.5 C 66.5063,52.9377 66.5063,53.6043 65.5,54.5C 62.1667,57.1667 58.8333,59.8333 55.5,62.5C 54.8333,61.5 54.1667,60.5 53.5,59.5C 52.5,57.8333 51.1667,56.5 49.5,55.5C 54.7055,54.5082 60.0389,53.5082 65.5,52.5 Z"/></g>
<g><path style="opacity:1" fill="#ded844" d="M 44.5,55.5 C 46.1667,55.5 47.8333,55.5 49.5,55.5C 51.1667,56.5 52.5,57.8333 53.5,59.5C 51.7549,63.2244 48.7549,65.5578 44.5,66.5C 44.3893,65.8826 44.056,65.3826 43.5,65C 44.6721,64.5814 45.6721,63.9147 46.5,63C 44.82,63.7712 43.1533,63.6045 41.5,62.5C 41.1667,61.1667 40.8333,59.8333 40.5,58.5C 41.8717,57.4884 43.205,56.4884 44.5,55.5 Z"/></g>
<g><path style="opacity:1" fill="#b0261d" d="M 90.5,56.5 C 95.1314,59.4642 99.1314,63.1308 102.5,67.5C 102.5,73.1667 102.5,78.8333 102.5,84.5C 101.833,84.5 101.167,84.5 100.5,84.5C 98.8304,81.9984 96.6637,79.9984 94,78.5C 93.4338,76.2774 92.6005,74.2774 91.5,72.5C 91.5,72.1667 91.5,71.8333 91.5,71.5C 92.4015,67.7593 91.0681,65.7593 87.5,65.5C 87.8333,64.1667 88.1667,62.8333 88.5,61.5C 89.1667,59.8333 89.8333,58.1667 90.5,56.5 Z"/></g>
<g><path style="opacity:1" fill="#3b2514" d="M 89.5,54.5 C 89.8333,55.1667 90.1667,55.8333 90.5,56.5C 89.8333,58.1667 89.1667,59.8333 88.5,61.5C 88.1667,62.8333 87.8333,64.1667 87.5,65.5C 86.0357,64.5946 84.7024,64.5946 83.5,65.5C 83.5,64.1667 83.5,62.8333 83.5,61.5C 84.1174,61.6107 84.6174,61.944 85,62.5C 85.5112,60.1218 86.1779,57.7885 87,55.5C 87.3333,56.5 87.6667,57.5 88,58.5C 88.21,56.9419 88.71,55.6085 89.5,54.5 Z"/></g>
<g><path style="opacity:1" fill="#6c6e63" d="M 36.5,48.5 C 37.4511,49.9187 37.7845,51.5853 37.5,53.5C 37.1924,55.924 37.5258,58.2573 38.5,60.5C 39.1818,59.7573 39.8485,59.0906 40.5,58.5C 40.8333,59.8333 41.1667,61.1667 41.5,62.5C 40.1196,61.2935 38.9529,61.6269 38,63.5C 37.6924,62.6919 37.1924,62.0253 36.5,61.5C 34.0177,62.0671 31.6843,62.7337 29.5,63.5C 28.5,63.1667 27.8333,62.5 27.5,61.5C 29.5,61.1667 31.5,60.8333 33.5,60.5C 33.7286,58.567 34.5619,56.9003 36,55.5C 36.4966,53.1902 36.6633,50.8568 36.5,48.5 Z"/></g>
<g><path style="opacity:1" fill="#3f3b35" d="M 25.5,54.5 C 25.5,56.1667 25.5,57.8333 25.5,59.5C 25.0269,60.9063 24.0269,61.573 22.5,61.5C 23.8689,59.2677 24.8689,56.9344 25.5,54.5 Z"/></g>
<g><path style="opacity:1" fill="#baaa14" d="M 88.5,61.5 C 86.4599,62.4751 86.1266,61.8084 87.5,59.5C 88.2975,59.9569 88.6309,60.6236 88.5,61.5 Z"/></g>
<g><path style="opacity:1" fill="#cbb7a1" d="M 25.5,59.5 C 26.5,59.8333 27.1667,60.5 27.5,61.5C 27.8333,62.5 28.5,63.1667 29.5,63.5C 29.6567,64.8734 29.49,66.2068 29,67.5C 28.2515,65.6675 27.2515,64.0009 26,62.5C 24.4166,64.6987 24.2499,67.032 25.5,69.5C 24.6851,68.5707 23.8518,67.5707 23,66.5C 23.5589,68.6382 23.3922,70.6382 22.5,72.5C 22.1667,72.5 21.8333,72.5 21.5,72.5C 21.6085,70.4862 20.9418,68.8195 19.5,67.5C 18.8592,66.5178 18.1925,65.5178 17.5,64.5C 19.3596,63.6751 21.0262,62.6751 22.5,61.5C 24.0269,61.573 25.0269,60.9063 25.5,59.5 Z"/></g>
<g><path style="opacity:1" fill="#afa67d" d="M 64.5,59.5 C 64.7678,61.099 64.4345,62.4324 63.5,63.5C 59.8127,65.19 59.146,64.69 61.5,62C 61.1667,61.6667 60.8333,61.3333 60.5,61C 61.9007,60.5899 63.234,60.0899 64.5,59.5 Z"/></g>
<g><path style="opacity:1" fill="#a39637" d="M 41.5,62.5 C 43.1533,63.6045 44.82,63.7712 46.5,63C 45.6721,63.9147 44.6721,64.5814 43.5,65C 44.056,65.3826 44.3893,65.8826 44.5,66.5C 43.8333,68.5 42.5,69.8333 40.5,70.5C 38.9016,65.5901 35.5683,63.2567 30.5,63.5C 30.1667,63.5 29.8333,63.5 29.5,63.5C 31.6843,62.7337 34.0177,62.0671 36.5,61.5C 37.1924,62.0253 37.6924,62.6919 38,63.5C 38.9529,61.6269 40.1196,61.2935 41.5,62.5 Z"/></g>
<g><path style="opacity:1" fill="#5f5f5a" d="M 69.5,64.5 C 70.3345,66.2632 69.8345,67.9299 68,69.5C 67.36,67.4567 67.86,65.7901 69.5,64.5 Z"/></g>
<g><path style="opacity:1" fill="#e8d0bb" d="M 91.5,71.5 C 91.5,71.8333 91.5,72.1667 91.5,72.5C 91.6621,74.5273 91.4955,76.5273 91,78.5C 90.1841,79.8228 89.0174,80.4894 87.5,80.5C 86.9759,78.6943 86.3092,77.0276 85.5,75.5C 84.3915,74.71 83.0581,74.21 81.5,74C 83.2556,73.7978 84.9223,73.2978 86.5,72.5C 84.5269,71.6689 82.5269,71.5022 80.5,72C 82.6234,70.8063 84.9568,70.1397 87.5,70C 85.5,69.6667 83.5,69.3333 81.5,69C 84.1104,68.8528 86.4437,68.0194 88.5,66.5C 89.2621,67.6283 89.9288,68.7949 90.5,70C 89.4829,71.0495 89.3162,72.2161 90,73.5C 90.2784,72.5842 90.7784,71.9175 91.5,71.5 Z"/></g>
<g><path style="opacity:1" fill="#251f1b" d="M 79.5,61.5 C 79.3239,64.7273 78.6572,67.7273 77.5,70.5C 77.2153,67.1709 77.8819,64.1709 79.5,61.5 Z"/></g>
<g><path style="opacity:1" fill="#ed232d" d="M 18.5,67.5 C 18.8333,67.5 19.1667,67.5 19.5,67.5C 20.9418,68.8195 21.6085,70.4862 21.5,72.5C 16.3604,75.9104 11.3604,79.5771 6.5,83.5C 6.5,80.8333 6.5,78.1667 6.5,75.5C 10.795,73.1923 14.795,70.5256 18.5,67.5 Z"/></g>
<g><path style="opacity:1" fill="#797164" d="M 29.5,63.5 C 29.8333,63.5 30.1667,63.5 30.5,63.5C 30.2155,65.4147 30.5489,67.0813 31.5,68.5C 31.8807,69.9311 32.8807,70.7645 34.5,71C 33.9341,71.9947 33.2674,72.828 32.5,73.5C 30.823,75.5398 29.1563,77.5398 27.5,79.5C 27.5,77.8333 27.5,76.1667 27.5,74.5C 26.5,74.5 25.5,74.5 24.5,74.5C 25.3007,72.9582 25.634,71.2915 25.5,69.5C 24.2499,67.032 24.4166,64.6987 26,62.5C 27.2515,64.0009 28.2515,65.6675 29,67.5C 29.49,66.2068 29.6567,64.8734 29.5,63.5 Z"/></g>
<g><path style="opacity:1" fill="#676245" d="M 53.5,59.5 C 54.1667,60.5 54.8333,61.5 55.5,62.5C 52.1584,65.2676 48.6584,67.9343 45,70.5C 44.4153,71.9976 44.9153,72.9976 46.5,73.5C 45.4324,74.4345 44.099,74.7678 42.5,74.5C 42.7148,72.8212 42.0481,71.8212 40.5,71.5C 39.1667,71.1667 39.1667,70.8333 40.5,70.5C 42.5,69.8333 43.8333,68.5 44.5,66.5C 48.7549,65.5578 51.7549,63.2244 53.5,59.5 Z"/></g>
<g><path style="opacity:1" fill="#38332b" d="M 25.5,69.5 C 25.634,71.2915 25.3007,72.9582 24.5,74.5C 24.1936,77.3854 24.5269,80.0521 25.5,82.5C 25.5,83.1667 25.5,83.8333 25.5,84.5C 24.2223,84.2178 23.2223,83.5511 22.5,82.5C 22.8938,81.0328 23.2272,79.5328 23.5,78C 23.3158,76.6244 22.6491,75.7911 21.5,75.5C 22.1098,74.609 22.4431,73.609 22.5,72.5C 23.3922,70.6382 23.5589,68.6382 23,66.5C 23.8518,67.5707 24.6851,68.5707 25.5,69.5 Z"/></g>
<g><path style="opacity:1" fill="#e1e4e0" d="M 32.5,73.5 C 30.9826,73.5106 29.8159,74.1772 29,75.5C 28.564,73.7043 29.2307,72.3709 31,71.5C 32.0299,71.8361 32.5299,72.5028 32.5,73.5 Z"/></g>
<g><path style="opacity:1" fill="#39302b" d="M 77.5,70.5 C 77.1184,75.0918 76.1184,79.4251 74.5,83.5C 74.4249,78.8075 75.4249,74.4742 77.5,70.5 Z"/></g>
<g><path style="opacity:1" fill="#a9241b" d="M 81.5,50.5 C 82.1667,51.1667 82.8333,51.8333 83.5,52.5C 84.7335,55.4648 84.7335,58.4648 83.5,61.5C 83.5,62.8333 83.5,64.1667 83.5,65.5C 79.7415,68.1029 78.7415,71.4362 80.5,75.5C 80.0063,78.5502 80.6729,81.5502 82.5,84.5C 82.1667,84.5 81.8333,84.5 81.5,84.5C 79.8333,84.5 78.1667,84.5 76.5,84.5C 75.8333,84.5 75.1667,84.5 74.5,84.5C 74.5,84.1667 74.5,83.8333 74.5,83.5C 76.1184,79.4251 77.1184,75.0918 77.5,70.5C 78.6572,67.7273 79.3239,64.7273 79.5,61.5C 80.2216,61.0825 80.7216,60.4158 81,59.5C 81.498,56.5184 81.6646,53.5184 81.5,50.5 Z"/></g>
<g><path style="opacity:1" fill="#e2d744" d="M 18.5,67.5 C 14.795,70.5256 10.795,73.1923 6.5,75.5C 6.55688,74.391 6.89022,73.391 7.5,72.5C 11.0585,70.5534 14.7252,68.8867 18.5,67.5 Z"/></g>
<g><path style="opacity:1" fill="#e92c30" d="M 30.5,63.5 C 35.5683,63.2567 38.9016,65.5901 40.5,70.5C 39.1667,70.8333 39.1667,71.1667 40.5,71.5C 41.4678,74.0256 40.6345,74.6922 38,73.5C 37.5078,74.549 37.6744,75.549 38.5,76.5C 38.1924,77.3081 37.6924,77.9747 37,78.5C 34.6091,77.3975 34.1091,78.0642 35.5,80.5C 34.624,81.2508 33.624,81.7508 32.5,82C 33.5981,82.7697 33.5981,83.603 32.5,84.5C 30.8333,84.5 29.1667,84.5 27.5,84.5C 30.5874,79.565 33.9207,74.7317 37.5,70C 35.7505,68.6814 33.7505,68.1814 31.5,68.5C 30.5489,67.0813 30.2155,65.4147 30.5,63.5 Z"/></g>
<g><path style="opacity:1" fill="#2981b1" d="M 59.5,69.5 C 60.7251,70.1522 61.3917,71.3189 61.5,73C 61.4857,74.3847 61.1524,75.5514 60.5,76.5C 54.8489,78.6588 49.5156,81.3255 44.5,84.5C 42.1667,84.5 39.8333,84.5 37.5,84.5C 44.7962,79.5129 52.1296,74.5129 59.5,69.5 Z"/></g>
<g><path style="opacity:1" fill="#ddd544" d="M 31.5,68.5 C 33.7505,68.1814 35.7505,68.6814 37.5,70C 33.9207,74.7317 30.5874,79.565 27.5,84.5C 26.8333,84.5 26.1667,84.5 25.5,84.5C 25.5,83.8333 25.5,83.1667 25.5,82.5C 26.9063,82.0269 27.573,81.0269 27.5,79.5C 29.1563,77.5398 30.823,75.5398 32.5,73.5C 33.2674,72.828 33.9341,71.9947 34.5,71C 32.8807,70.7645 31.8807,69.9311 31.5,68.5 Z"/></g>
<g><path style="opacity:1" fill="#766b5d" d="M 87.5,65.5 C 91.0681,65.7593 92.4015,67.7593 91.5,71.5C 90.7784,71.9175 90.2784,72.5842 90,73.5C 89.3162,72.2161 89.4829,71.0495 90.5,70C 89.9288,68.7949 89.2621,67.6283 88.5,66.5C 86.4437,68.0194 84.1104,68.8528 81.5,69C 83.5,69.3333 85.5,69.6667 87.5,70C 84.9568,70.1397 82.6234,70.8063 80.5,72C 82.5269,71.5022 84.5269,71.6689 86.5,72.5C 84.9223,73.2978 83.2556,73.7978 81.5,74C 83.0581,74.21 84.3915,74.71 85.5,75.5C 83.8333,75.5 82.1667,75.5 80.5,75.5C 78.7415,71.4362 79.7415,68.1029 83.5,65.5C 84.7024,64.5946 86.0357,64.5946 87.5,65.5 Z"/></g>
<g><path style="opacity:1" fill="#c5c921" d="M 65.5,54.5 C 66.6783,56.3379 66.345,58.0045 64.5,59.5C 63.234,60.0899 61.9007,60.5899 60.5,61C 60.8333,61.3333 61.1667,61.6667 61.5,62C 59.146,64.69 59.8127,65.19 63.5,63.5C 63.6495,64.552 63.4828,65.552 63,66.5C 61.4815,67.1634 60.3149,68.1634 59.5,69.5C 52.1296,74.5129 44.7962,79.5129 37.5,84.5C 37.1667,84.5 36.8333,84.5 36.5,84.5C 36.631,83.7611 36.4643,83.0944 36,82.5C 35.2917,83.3805 34.4584,84.0472 33.5,84.5C 33.1667,84.5 32.8333,84.5 32.5,84.5C 33.5981,83.603 33.5981,82.7697 32.5,82C 33.624,81.7508 34.624,81.2508 35.5,80.5C 34.1091,78.0642 34.6091,77.3975 37,78.5C 37.6924,77.9747 38.1924,77.3081 38.5,76.5C 37.6744,75.549 37.5078,74.549 38,73.5C 40.6345,74.6922 41.4678,74.0256 40.5,71.5C 42.0481,71.8212 42.7148,72.8212 42.5,74.5C 41.0937,74.9731 40.427,75.9731 40.5,77.5C 42.6454,76.1516 44.812,75.8182 47,76.5C 47.7885,74.8353 48.1218,73.1686 48,71.5C 47.2828,72.0442 46.7828,72.7109 46.5,73.5C 44.9153,72.9976 44.4153,71.9976 45,70.5C 48.6584,67.9343 52.1584,65.2676 55.5,62.5C 58.8333,59.8333 62.1667,57.1667 65.5,54.5 Z"/></g>
<g><path style="opacity:1" fill="#a5b2a1" d="M 40.5,77.5 C 40.427,75.9731 41.0937,74.9731 42.5,74.5C 44.099,74.7678 45.4324,74.4345 46.5,73.5C 46.7828,72.7109 47.2828,72.0442 48,71.5C 48.1218,73.1686 47.7885,74.8353 47,76.5C 44.812,75.8182 42.6454,76.1516 40.5,77.5 Z"/></g>
<g><path style="opacity:1" fill="#b9bc9b" d="M 52.5,66.5 C 54.1992,66.3398 55.8659,66.5065 57.5,67C 55.8753,67.8525 55.5419,68.8525 56.5,70C 54.8333,69.3333 53.1667,69.3333 51.5,70C 52.3366,68.9887 52.67,67.8221 52.5,66.5 Z"/></g>
<g><path style="opacity:1" fill="#dbce41" d="M 21.5,72.5 C 21.8333,72.5 22.1667,72.5 22.5,72.5C 22.4431,73.609 22.1098,74.609 21.5,75.5C 16.6355,77.7629 12.3021,80.7629 8.5,84.5C 7.83333,84.5 7.16667,84.5 6.5,84.5C 6.5,84.1667 6.5,83.8333 6.5,83.5C 11.3604,79.5771 16.3604,75.9104 21.5,72.5 Z"/></g>
<g><path style="opacity:1" fill="#c2c3bb" d="M 24.5,74.5 C 25.5,74.5 26.5,74.5 27.5,74.5C 27.5,76.1667 27.5,77.8333 27.5,79.5C 27.573,81.0269 26.9063,82.0269 25.5,82.5C 24.5269,80.0521 24.1936,77.3854 24.5,74.5 Z"/></g>
<g><path style="opacity:1" fill="#5c4b1b" d="M 40.5,77.5 C 40.5386,78.7562 40.0386,79.7562 39,80.5C 38.4153,79.0024 38.9153,78.0024 40.5,77.5 Z"/></g>
<g><path style="opacity:1" fill="#2d8abb" d="M 91.5,72.5 C 92.6005,74.2774 93.4338,76.2774 94,78.5C 96.6637,79.9984 98.8304,81.9984 100.5,84.5C 96.1352,88.1892 91.4685,91.5225 86.5,94.5C 85.3433,91.9741 85.3433,89.3074 86.5,86.5C 87.8333,84.5 87.8333,82.5 86.5,80.5C 86.8333,80.5 87.1667,80.5 87.5,80.5C 89.0174,80.4894 90.1841,79.8228 91,78.5C 91.4955,76.5273 91.6621,74.5273 91.5,72.5 Z"/></g>
<g><path style="opacity:1" fill="#159dd6" d="M 60.5,76.5 C 59.3433,79.3074 59.3433,81.9741 60.5,84.5C 61.8333,84.5 63.1667,84.5 64.5,84.5C 59.4844,87.6745 54.1511,90.3412 48.5,92.5C 49.6567,89.6926 49.6567,87.0259 48.5,84.5C 47.1667,84.5 45.8333,84.5 44.5,84.5C 49.5156,81.3255 54.8489,78.6588 60.5,76.5 Z"/></g>
<g><path style="opacity:1" fill="#65645f" d="M 65.5,76.5 C 66.2176,78.2458 67.2176,78.9125 68.5,78.5C 65.9066,82.3856 64.9066,81.719 65.5,76.5 Z"/></g>
<g><path style="opacity:1" fill="#563d18" d="M 80.5,75.5 C 82.1667,75.5 83.8333,75.5 85.5,75.5C 86.3092,77.0276 86.9759,78.6943 87.5,80.5C 87.1667,80.5 86.8333,80.5 86.5,80.5C 84.7986,81.2114 83.7986,82.5447 83.5,84.5C 83.1667,84.5 82.8333,84.5 82.5,84.5C 80.6729,81.5502 80.0063,78.5502 80.5,75.5 Z"/></g>
<g><path style="opacity:1" fill="#d6d43f" d="M 82.5,77.5 C 83.7125,78.4971 83.5458,79.4971 82,80.5C 81.5304,79.4232 81.6971,78.4232 82.5,77.5 Z"/></g>
<g><path style="opacity:1" fill="#2b8bbc" d="M 21.5,75.5 C 22.6491,75.7911 23.3158,76.6244 23.5,78C 23.2272,79.5328 22.8938,81.0328 22.5,82.5C 21.1667,84.5 21.1667,86.5 22.5,88.5C 22.1667,88.5 21.8333,88.5 21.5,88.5C 20.325,88.281 19.325,88.6143 18.5,89.5C 17.6258,91.7466 17.2924,94.0799 17.5,96.5C 16.3995,94.7226 15.5662,92.7226 15,90.5C 12.3363,89.0016 10.1696,87.0016 8.5,84.5C 12.3021,80.7629 16.6355,77.7629 21.5,75.5 Z"/></g>
<g><path style="opacity:1" fill="#b52a1e" d="M 86.5,80.5 C 87.8333,82.5 87.8333,84.5 86.5,86.5C 85.7777,85.4489 84.7777,84.7822 83.5,84.5C 83.7986,82.5447 84.7986,81.2114 86.5,80.5 Z"/></g>
<g><path style="opacity:1" fill="#ba281f" d="M 22.5,82.5 C 23.2223,83.5511 24.2223,84.2178 25.5,84.5C 24.9744,86.2303 23.9744,87.5637 22.5,88.5C 21.1667,86.5 21.1667,84.5 22.5,82.5 Z"/></g>
<g><path style="opacity:1" fill="#ab261c" d="M 27.5,84.5 C 29.1667,84.5 30.8333,84.5 32.5,84.5C 32.8333,84.5 33.1667,84.5 33.5,84.5C 33.5,86.1667 33.5,87.8333 33.5,89.5C 33.634,91.2915 33.3007,92.9582 32.5,94.5C 31.0652,95.9133 30.0652,97.58 29.5,99.5C 27.6213,94.6395 26.9546,89.6395 27.5,84.5 Z"/></g>
<g><path style="opacity:1" fill="#edeeec" d="M 36.5,84.5 C 36.8333,84.5 37.1667,84.5 37.5,84.5C 39.8333,84.5 42.1667,84.5 44.5,84.5C 45.8333,84.5 47.1667,84.5 48.5,84.5C 47.2042,92.5996 45.3709,100.6 43,108.5C 42.5348,109.931 41.7014,111.097 40.5,112C 41.0814,112.893 41.4148,113.893 41.5,115C 40.7503,118.163 40.0836,121.33 39.5,124.5C 38.8091,126.022 37.6424,127.022 36,127.5C 34.6136,126.271 33.1136,125.271 31.5,124.5C 30.8592,123.518 30.1925,122.518 29.5,121.5C 30.0253,120.808 30.6919,120.308 31.5,120C 29.4062,118.745 28.4062,116.912 28.5,114.5C 28.9971,112.182 29.3305,109.848 29.5,107.5C 31.0231,103.404 32.0231,99.0708 32.5,94.5C 33.3007,92.9582 33.634,91.2915 33.5,89.5C 34.0652,87.58 35.0652,85.9133 36.5,84.5 Z"/></g>
<g><path style="opacity:1" fill="#2981b2" d="M 64.5,84.5 C 66.8333,84.5 69.1667,84.5 71.5,84.5C 70.5,85.1667 69.5,85.8333 68.5,86.5C 61.9112,90.338 55.5779,94.6713 49.5,99.5C 48.2749,98.8478 47.6083,97.6811 47.5,96C 47.5143,94.6153 47.8476,93.4486 48.5,92.5C 54.1511,90.3412 59.4844,87.6745 64.5,84.5 Z"/></g>
<g><path style="opacity:1" fill="#442d1a" d="M 36.5,84.5 C 35.0652,85.9133 34.0652,87.58 33.5,89.5C 33.5,87.8333 33.5,86.1667 33.5,84.5C 34.4584,84.0472 35.2917,83.3805 36,82.5C 36.4643,83.0944 36.631,83.7611 36.5,84.5 Z"/></g>
<g><path style="opacity:1" fill="#7e7c2f" d="M 74.5,83.5 C 74.5,83.8333 74.5,84.1667 74.5,84.5C 73.2003,87.4323 71.2003,89.7656 68.5,91.5C 68.7031,89.9557 69.3698,88.6223 70.5,87.5C 70.0431,86.7025 69.3764,86.3691 68.5,86.5C 69.5,85.8333 70.5,85.1667 71.5,84.5C 72.609,84.4431 73.609,84.1098 74.5,83.5 Z"/></g>
<g><path style="opacity:1" fill="#ee222d" d="M 102.5,85.5 C 102.5,88.1667 102.5,90.8333 102.5,93.5C 98.205,95.8077 94.205,98.4744 90.5,101.5C 90.1667,101.5 89.8333,101.5 89.5,101.5C 88.8333,100.5 88.1667,99.5 87.5,98.5C 87.5,97.8333 87.5,97.1667 87.5,96.5C 92.6396,93.0896 97.6396,89.4229 102.5,85.5 Z"/></g>
<g><path style="opacity:1" fill="#dace42" d="M 100.5,84.5 C 101.167,84.5 101.833,84.5 102.5,84.5C 102.5,84.8333 102.5,85.1667 102.5,85.5C 97.6396,89.4229 92.6396,93.0896 87.5,96.5C 86.6618,96.1583 86.3284,95.4916 86.5,94.5C 91.4685,91.5225 96.1352,88.1892 100.5,84.5 Z"/></g>
<g><path style="opacity:1" fill="#d6c0ac" d="M 21.5,88.5 C 21.4012,92.6573 23.4012,94.8239 27.5,95C 26.3659,96.016 26.6992,96.6827 28.5,97C 26.3766,98.1937 24.0432,98.8603 21.5,99C 23.5,99.3333 25.5,99.6667 27.5,100C 26.7476,100.671 26.4142,101.504 26.5,102.5C 26.5,103.167 26.1667,103.5 25.5,103.5C 24.8826,103.611 24.3826,103.944 24,104.5C 22.4157,103.139 20.5824,102.472 18.5,102.5C 18.8511,100.131 19.0178,97.7972 19,95.5C 18.7216,96.4158 18.2216,97.0825 17.5,97.5C 17.5,97.1667 17.5,96.8333 17.5,96.5C 17.2924,94.0799 17.6258,91.7466 18.5,89.5C 19.325,88.6143 20.325,88.281 21.5,88.5 Z"/></g>
<g><path style="opacity:1" fill="#e8dd49" d="M 74.5,84.5 C 75.1667,84.5 75.8333,84.5 76.5,84.5C 75.4019,85.397 75.4019,86.2303 76.5,87C 73.8532,87.3149 73.1865,88.4816 74.5,90.5C 73.302,90.9396 72.1353,91.273 71,91.5C 71,92.8333 71,94.1667 71,95.5C 69.8545,94.3157 68.6879,94.3157 67.5,95.5C 67.8333,94.1667 68.1667,92.8333 68.5,91.5C 71.2003,89.7656 73.2003,87.4323 74.5,84.5 Z"/></g>
<g><path style="opacity:1" fill="#686862" d="M 42.5,87.5 C 43.6129,88.9464 43.7796,90.6131 43,92.5C 42.5518,90.7756 41.7185,90.109 40.5,90.5C 41.1925,89.4822 41.8592,88.4822 42.5,87.5 Z"/></g>
<g><path style="opacity:1" fill="#554027" d="M 25.5,84.5 C 26.1667,84.5 26.8333,84.5 27.5,84.5C 26.9546,89.6395 27.6213,94.6395 29.5,99.5C 28.7281,100.694 27.7281,101.694 26.5,102.5C 26.4142,101.504 26.7476,100.671 27.5,100C 25.5,99.6667 23.5,99.3333 21.5,99C 24.0432,98.8603 26.3766,98.1937 28.5,97C 26.6992,96.6827 26.3659,96.016 27.5,95C 23.4012,94.8239 21.4012,92.6573 21.5,88.5C 21.8333,88.5 22.1667,88.5 22.5,88.5C 23.9744,87.5637 24.9744,86.2303 25.5,84.5 Z"/></g>
<g><path style="opacity:1" fill="#e2e045" d="M 26.5,88.5 C 27.7125,89.4971 27.5458,90.4971 26,91.5C 25.5304,90.4232 25.6971,89.4232 26.5,88.5 Z"/></g>
<g><path style="opacity:1" fill="#ced0cc" d="M 83.5,86.5 C 84.4731,88.9479 84.8064,91.6146 84.5,94.5C 83.5,94.5 82.5,94.5 81.5,94.5C 81.5172,92.4352 81.8505,90.4352 82.5,88.5C 82.3284,87.5084 82.6618,86.8417 83.5,86.5 Z"/></g>
<g><path style="opacity:1" fill="#bcc3ae" d="M 66.5,92.5 C 66.3404,94.153 65.6737,95.4863 64.5,96.5C 63.1196,95.2935 61.9529,95.6269 61,97.5C 60.8782,95.8314 61.2115,94.1647 62,92.5C 63.4139,93.4132 64.9139,93.4132 66.5,92.5 Z"/></g>
<g><path style="opacity:1" fill="#ddd544" d="M 81.5,84.5 C 81.8333,84.5 82.1667,84.5 82.5,84.5C 82.8333,84.5 83.1667,84.5 83.5,84.5C 83.5,85.1667 83.5,85.8333 83.5,86.5C 82.6618,86.8417 82.3284,87.5084 82.5,88.5C 80.2733,90.6068 78.2733,92.9401 76.5,95.5C 75.7326,96.172 75.0659,97.0053 74.5,98C 76.1193,98.2355 77.1193,99.0689 77.5,100.5C 75.2495,100.819 73.2495,100.319 71.5,99C 75.0793,94.2683 78.4126,89.435 81.5,84.5 Z"/></g>
<g><path style="opacity:1" fill="#af261d" d="M 6.5,84.5 C 7.16667,84.5 7.83333,84.5 8.5,84.5C 10.1696,87.0016 12.3363,89.0016 15,90.5C 15.5662,92.7226 16.3995,94.7226 17.5,96.5C 17.5,96.8333 17.5,97.1667 17.5,97.5C 17.2155,99.4147 17.5489,101.081 18.5,102.5C 19.3909,103.261 20.0576,104.261 20.5,105.5C 20.0711,108.029 19.4045,110.362 18.5,112.5C 13.8686,109.536 9.8686,105.869 6.5,101.5C 6.5,95.8333 6.5,90.1667 6.5,84.5 Z"/></g>
<g><path style="opacity:1" fill="#dfe1de" d="M 80.5,95.5 C 79.8444,96.2778 79.0111,96.9444 78,97.5C 76.9701,97.1639 76.4701,96.4972 76.5,95.5C 78.0174,95.4894 79.1841,94.8228 80,93.5C 80.4643,94.0944 80.631,94.7611 80.5,95.5 Z"/></g>
<g><path style="opacity:1" fill="#433e36" d="M 83.5,84.5 C 84.7777,84.7822 85.7777,85.4489 86.5,86.5C 85.3433,89.3074 85.3433,91.9741 86.5,94.5C 86.3284,95.4916 86.6618,96.1583 87.5,96.5C 87.5,97.1667 87.5,97.8333 87.5,98.5C 86.8826,98.3893 86.3826,98.056 86,97.5C 85.8047,99.2072 85.8047,100.874 86,102.5C 85.1482,101.429 84.3149,100.429 83.5,99.5C 83.5432,95.1074 83.0432,94.7741 82,98.5C 81.7679,97.2625 81.2679,96.2625 80.5,95.5C 80.631,94.7611 80.4643,94.0944 80,93.5C 79.1841,94.8228 78.0174,95.4894 76.5,95.5C 78.2733,92.9401 80.2733,90.6068 82.5,88.5C 81.8505,90.4352 81.5172,92.4352 81.5,94.5C 82.5,94.5 83.5,94.5 84.5,94.5C 84.8064,91.6146 84.4731,88.9479 83.5,86.5C 83.5,85.8333 83.5,85.1667 83.5,84.5 Z"/></g>
<g><path style="opacity:1" fill="#c4cc19" d="M 68.5,86.5 C 69.3764,86.3691 70.0431,86.7025 70.5,87.5C 69.3698,88.6223 68.7031,89.9557 68.5,91.5C 67.8333,91.8333 67.1667,92.1667 66.5,92.5C 64.9139,93.4132 63.4139,93.4132 62,92.5C 61.2115,94.1647 60.8782,95.8314 61,97.5C 61.9529,95.6269 63.1196,95.2935 64.5,96.5C 64.5858,97.4959 64.2524,98.3292 63.5,99C 59.9196,101.277 56.5863,103.777 53.5,106.5C 49.8481,108.824 46.5148,111.491 43.5,114.5C 42.4039,110.711 44.0705,108.544 48.5,108C 47.5419,106.853 47.8753,105.853 49.5,105C 48.451,104.508 47.451,104.674 46.5,105.5C 46.1667,105 45.8333,104.5 45.5,104C 46.6045,102.285 47.9378,100.785 49.5,99.5C 55.5779,94.6713 61.9112,90.338 68.5,86.5 Z"/></g>
<g><path style="opacity:1" fill="#908032" d="M 67.5,95.5 C 69.4272,98.619 70.7606,101.952 71.5,105.5C 70.2954,107.138 68.9621,107.471 67.5,106.5C 65.8467,105.395 64.18,105.229 62.5,106C 64.3074,103.724 65.8074,103.557 67,105.5C 67.3742,104.584 67.8742,103.75 68.5,103C 67.244,102.583 66.5774,101.75 66.5,100.5C 66.2155,98.5853 66.5489,96.9187 67.5,95.5 Z"/></g>
<g><path style="opacity:1" fill="#3c2e25" d="M 18.5,102.5 C 17.5489,101.081 17.2155,99.4147 17.5,97.5C 18.2216,97.0825 18.7216,96.4158 19,95.5C 19.0178,97.7972 18.8511,100.131 18.5,102.5 Z"/></g>
<g><path style="opacity:1" fill="#958777" d="M 76.5,95.5 C 76.4701,96.4972 76.9701,97.1639 78,97.5C 79.0111,96.9444 79.8444,96.2778 80.5,95.5C 81.2679,96.2625 81.7679,97.2625 82,98.5C 83.0432,94.7741 83.5432,95.1074 83.5,99.5C 83.9052,101.65 84.4052,103.65 85,105.5C 83.984,104.366 83.3173,104.699 83,106.5C 81.7485,104.999 80.7485,103.332 80,101.5C 79.51,102.793 79.3433,104.127 79.5,105.5C 79.1667,105.5 78.8333,105.5 78.5,105.5C 78.7845,103.585 78.4511,101.919 77.5,100.5C 77.1193,99.0689 76.1193,98.2355 74.5,98C 75.0659,97.0053 75.7326,96.172 76.5,95.5 Z"/></g>
<g><path style="opacity:1" fill="#ded144" d="M 102.5,93.5 C 102.443,94.609 102.11,95.609 101.5,96.5C 98.0434,98.6219 94.3767,100.289 90.5,101.5C 94.205,98.4744 98.205,95.8077 102.5,93.5 Z"/></g>
<g><path style="opacity:1" fill="#8f251b" d="M 101.5,96.5 C 102.461,98.2646 102.795,100.265 102.5,102.5C 97.613,107.772 92.613,112.939 87.5,118C 85.9221,119.094 84.2554,119.928 82.5,120.5C 83.1495,118.565 83.4828,116.565 83.5,114.5C 84.1311,112.066 85.1311,109.732 86.5,107.5C 88.1002,106.356 89.7669,105.189 91.5,104C 90.6195,103.292 89.9528,102.458 89.5,101.5C 89.8333,101.5 90.1667,101.5 90.5,101.5C 94.3767,100.289 98.0434,98.6219 101.5,96.5 Z"/></g>
<g><path style="opacity:1" fill="#b8bda2" d="M 52.5,99.5 C 54.0524,99.4189 55.7191,99.2522 57.5,99C 56.6634,100.011 56.33,101.178 56.5,102.5C 54.8008,102.66 53.1341,102.494 51.5,102C 52.999,101.162 53.3324,100.329 52.5,99.5 Z"/></g>
<g><path style="opacity:1" fill="#e52b2f" d="M 76.5,84.5 C 78.1667,84.5 79.8333,84.5 81.5,84.5C 78.4126,89.435 75.0793,94.2683 71.5,99C 73.2495,100.319 75.2495,100.819 77.5,100.5C 78.4511,101.919 78.7845,103.585 78.5,105.5C 76.1667,105.5 73.8333,105.5 71.5,105.5C 70.7606,101.952 69.4272,98.619 67.5,95.5C 68.6879,94.3157 69.8545,94.3157 71,95.5C 71,94.1667 71,92.8333 71,91.5C 72.1353,91.273 73.302,90.9396 74.5,90.5C 73.1865,88.4816 73.8532,87.3149 76.5,87C 75.4019,86.2303 75.4019,85.397 76.5,84.5 Z"/></g>
<g><path style="opacity:1" fill="#d9c3ac" d="M 87.5,98.5 C 88.1667,99.5 88.8333,100.5 89.5,101.5C 89.9528,102.458 90.6195,103.292 91.5,104C 89.7669,105.189 88.1002,106.356 86.5,107.5C 84.8333,107.5 83.1667,107.5 81.5,107.5C 81.1667,106.5 80.5,105.833 79.5,105.5C 79.3433,104.127 79.51,102.793 80,101.5C 80.7485,103.332 81.7485,104.999 83,106.5C 83.3173,104.699 83.984,104.366 85,105.5C 84.4052,103.65 83.9052,101.65 83.5,99.5C 84.3149,100.429 85.1482,101.429 86,102.5C 85.8047,100.874 85.8047,99.2072 86,97.5C 86.3826,98.056 86.8826,98.3893 87.5,98.5 Z"/></g>
<g><path style="opacity:1" fill="#7d271c" d="M 32.5,94.5 C 32.0231,99.0708 31.0231,103.404 29.5,107.5C 28.7784,107.918 28.2784,108.584 28,109.5C 27.502,112.482 27.3354,115.482 27.5,118.5C 26.5284,116.507 25.1951,116.174 23.5,117.5C 24.0396,114.135 24.7063,110.802 25.5,107.5C 25.5,106.167 25.5,104.833 25.5,103.5C 26.1667,103.5 26.5,103.167 26.5,102.5C 27.7281,101.694 28.7281,100.694 29.5,99.5C 30.0652,97.58 31.0652,95.9133 32.5,94.5 Z"/></g>
<g><path style="opacity:1" fill="#5a3e19" d="M 18.5,102.5 C 20.5824,102.472 22.4157,103.139 24,104.5C 24.3826,103.944 24.8826,103.611 25.5,103.5C 25.5,104.833 25.5,106.167 25.5,107.5C 24.8826,107.389 24.3826,107.056 24,106.5C 23.4888,108.878 22.8221,111.212 22,113.5C 21.6667,112.5 21.3333,111.5 21,110.5C 20.7679,111.737 20.2679,112.737 19.5,113.5C 18.8333,113.5 18.5,113.167 18.5,112.5C 19.4045,110.362 20.0711,108.029 20.5,105.5C 20.0576,104.261 19.3909,103.261 18.5,102.5 Z"/></g>
<g><path style="opacity:1" fill="#505642" d="M 68.5,91.5 C 68.1667,92.8333 67.8333,94.1667 67.5,95.5C 66.5489,96.9187 66.2155,98.5853 66.5,100.5C 63.1249,102.306 59.7916,104.306 56.5,106.5C 55.6143,107.325 55.281,108.325 55.5,109.5C 54.8333,108.5 54.1667,107.5 53.5,106.5C 56.5863,103.777 59.9196,101.277 63.5,99C 64.2524,98.3292 64.5858,97.4959 64.5,96.5C 65.6737,95.4863 66.3404,94.153 66.5,92.5C 67.1667,92.1667 67.8333,91.8333 68.5,91.5 Z"/></g>
<g><path style="opacity:1" fill="#367fa7" d="M 53.5,106.5 C 54.1667,107.5 54.8333,108.5 55.5,109.5C 56.5,110.833 57.5,112.167 58.5,113.5C 53.8878,114.209 49.2211,115.209 44.5,116.5C 42.3023,116.591 41.9689,115.925 43.5,114.5C 46.5148,111.491 49.8481,108.824 53.5,106.5 Z"/></g>
<g><path style="opacity:1" fill="#dfd944" d="M 66.5,100.5 C 66.5774,101.75 67.244,102.583 68.5,103C 67.8742,103.75 67.3742,104.584 67,105.5C 65.8074,103.557 64.3074,103.724 62.5,106C 64.18,105.229 65.8467,105.395 67.5,106.5C 67.5394,107.583 67.8728,108.583 68.5,109.5C 67.8075,110.518 67.1408,111.518 66.5,112.5C 65.5084,112.328 64.8417,112.662 64.5,113.5C 62.5,113.5 60.5,113.5 58.5,113.5C 57.5,112.167 56.5,110.833 55.5,109.5C 55.281,108.325 55.6143,107.325 56.5,106.5C 59.7916,104.306 63.1249,102.306 66.5,100.5 Z"/></g>
<g><path style="opacity:1" fill="#a29531" d="M 71.5,105.5 C 73.8333,105.5 76.1667,105.5 78.5,105.5C 78.8333,105.5 79.1667,105.5 79.5,105.5C 79.1667,106.167 78.8333,106.833 78.5,107.5C 78.1667,107.5 77.8333,107.5 77.5,107.5C 74.9179,107.975 72.9179,107.308 71.5,105.5 Z"/></g>
<g><path style="opacity:1" fill="#32302a" d="M 79.5,105.5 C 80.5,105.833 81.1667,106.5 81.5,107.5C 80.5,107.5 79.5,107.5 78.5,107.5C 78.8333,106.833 79.1667,106.167 79.5,105.5 Z"/></g>
<g><path style="opacity:1" fill="#5a625c" d="M 71.5,105.5 C 72.9179,107.308 74.9179,107.975 77.5,107.5C 76.3141,110.337 74.8141,112.337 73,113.5C 72.5034,115.81 72.3367,118.143 72.5,120.5C 71.8333,120.5 71.1667,120.5 70.5,120.5C 70.6716,119.508 70.3382,118.842 69.5,118.5C 70.1098,117.609 70.4431,116.609 70.5,115.5C 71.7969,113.307 71.7969,110.973 70.5,108.5C 69.9954,110.769 68.6621,112.103 66.5,112.5C 67.1408,111.518 67.8075,110.518 68.5,109.5C 67.8728,108.583 67.5394,107.583 67.5,106.5C 68.9621,107.471 70.2954,107.138 71.5,105.5 Z"/></g>
<g><path style="opacity:1" fill="#54564f" d="M 48.5,84.5 C 49.6567,87.0259 49.6567,89.6926 48.5,92.5C 47.8476,93.4486 47.5143,94.6153 47.5,96C 47.6083,97.6811 48.2749,98.8478 49.5,99.5C 47.9378,100.785 46.6045,102.285 45.5,104C 45.8333,104.5 46.1667,105 46.5,105.5C 47.451,104.674 48.451,104.508 49.5,105C 47.8753,105.853 47.5419,106.853 48.5,108C 44.0705,108.544 42.4039,110.711 43.5,114.5C 41.9689,115.925 42.3023,116.591 44.5,116.5C 42.7497,117.659 41.7497,119.326 41.5,121.5C 41.5,121.833 41.5,122.167 41.5,122.5C 40.8333,123.167 40.1667,123.833 39.5,124.5C 40.0836,121.33 40.7503,118.163 41.5,115C 41.4148,113.893 41.0814,112.893 40.5,112C 41.7014,111.097 42.5348,109.931 43,108.5C 45.3709,100.6 47.2042,92.5996 48.5,84.5 Z"/></g>
<g><path style="opacity:1" fill="#2787b8" d="M 70.5,115.5 C 68.2143,115.405 66.2143,114.738 64.5,113.5C 64.8417,112.662 65.5084,112.328 66.5,112.5C 68.6621,112.103 69.9954,110.769 70.5,108.5C 71.7969,110.973 71.7969,113.307 70.5,115.5 Z"/></g>
<g><path style="opacity:1" fill="#edeeeb" d="M 77.5,107.5 C 77.8333,107.5 78.1667,107.5 78.5,107.5C 79.5,107.5 80.5,107.5 81.5,107.5C 83.1675,109.479 83.8342,111.812 83.5,114.5C 81.672,117.135 80.5053,120.135 80,123.5C 78.9609,124.71 77.7942,125.71 76.5,126.5C 75.6493,124.118 74.316,122.118 72.5,120.5C 72.3367,118.143 72.5034,115.81 73,113.5C 74.8141,112.337 76.3141,110.337 77.5,107.5 Z"/></g>
<g><path style="opacity:1" fill="#48443d" d="M 81.5,107.5 C 83.1667,107.5 84.8333,107.5 86.5,107.5C 85.1311,109.732 84.1311,112.066 83.5,114.5C 83.8342,111.812 83.1675,109.479 81.5,107.5 Z"/></g>
<g><path style="opacity:1" fill="#32302e" d="M 29.5,107.5 C 29.3305,109.848 28.9971,112.182 28.5,114.5C 28.4062,116.912 29.4062,118.745 31.5,120C 30.6919,120.308 30.0253,120.808 29.5,121.5C 30.1925,122.518 30.8592,123.518 31.5,124.5C 28.3027,123.888 26.9694,121.888 27.5,118.5C 27.3354,115.482 27.502,112.482 28,109.5C 28.2784,108.584 28.7784,107.918 29.5,107.5 Z"/></g>
<g><path style="opacity:1" fill="#55441a" d="M 58.5,113.5 C 60.5,113.5 62.5,113.5 64.5,113.5C 66.2143,114.738 68.2143,115.405 70.5,115.5C 70.4431,116.609 70.1098,117.609 69.5,118.5C 62.7331,117.844 56.2331,117.177 50,116.5C 47.7187,119.059 44.8854,120.726 41.5,121.5C 41.7497,119.326 42.7497,117.659 44.5,116.5C 49.2211,115.209 53.8878,114.209 58.5,113.5 Z"/></g>
<g><path style="opacity:1" fill="#ecf3e2" d="M 27.5,118.5 C 26.9694,121.888 28.3027,123.888 31.5,124.5C 31.5106,126.017 32.1772,127.184 33.5,128C 35.2556,128.202 36.9223,128.702 38.5,129.5C 37.5153,131.098 37.3486,132.765 38,134.5C 41.4801,138.128 43.3134,142.461 43.5,147.5C 42.8902,148.391 42.5569,149.391 42.5,150.5C 40.5531,151.473 38.5531,152.473 36.5,153.5C 37.7287,154.281 39.062,154.781 40.5,155C 38.8866,157.228 38.22,159.728 38.5,162.5C 30.8261,162.666 23.1594,162.5 15.5,162C 17.5808,158.641 18.2474,155.141 17.5,151.5C 18.8173,144.249 20.8173,137.082 23.5,130C 22.6777,127.566 22.3444,125.066 22.5,122.5C 23.3007,120.958 23.634,119.292 23.5,117.5C 25.1951,116.174 26.5284,116.507 27.5,118.5 Z"/></g>
<g><path style="opacity:1" fill="#403e3b" d="M 76.5,115.5 C 78.3442,116.204 78.8442,117.537 78,119.5C 77.0805,119.07 76.2472,118.736 75.5,118.5C 76.1272,117.583 76.4606,116.583 76.5,115.5 Z"/></g>
<g><path style="opacity:1" fill="#eae00c" d="M 69.5,118.5 C 70.3382,118.842 70.6716,119.508 70.5,120.5C 63.1213,119.478 55.9546,120.478 49,123.5C 48.4806,122.484 47.6473,121.818 46.5,121.5C 44.8653,122.046 43.1986,122.38 41.5,122.5C 41.5,122.167 41.5,121.833 41.5,121.5C 44.8854,120.726 47.7187,119.059 50,116.5C 56.2331,117.177 62.7331,117.844 69.5,118.5 Z"/></g>
<g><path style="opacity:1" fill="#8b7e2b" d="M 25.5,107.5 C 24.7063,110.802 24.0396,114.135 23.5,117.5C 23.634,119.292 23.3007,120.958 22.5,122.5C 21.1857,124.895 21.1857,127.395 22.5,130C 22.1667,130.167 21.8333,130.333 21.5,130.5C 20.7022,128.922 20.2022,127.256 20,125.5C 18.3408,127.869 18.1741,130.369 19.5,133C 18.1232,144.237 17.4565,144.071 17.5,132.5C 17.2786,131.265 16.6119,130.265 15.5,129.5C 16.1449,128.354 16.9783,127.354 18,126.5C 18.4645,122.152 18.9645,117.819 19.5,113.5C 20.2679,112.737 20.7679,111.737 21,110.5C 21.3333,111.5 21.6667,112.5 22,113.5C 22.8221,111.212 23.4888,108.878 24,106.5C 24.3826,107.056 24.8826,107.389 25.5,107.5 Z"/></g>
<g><path style="opacity:1" fill="#64531b" d="M 70.5,120.5 C 71.1667,120.5 71.8333,120.5 72.5,120.5C 74.316,122.118 75.6493,124.118 76.5,126.5C 76.5,126.833 76.5,127.167 76.5,127.5C 75.1342,134.523 72.8008,141.189 69.5,147.5C 68.8333,147.5 68.1667,147.5 67.5,147.5C 67.8333,146.833 68.1667,146.167 68.5,145.5C 68.81,142.287 68.4767,139.287 67.5,136.5C 67.5,135.5 67.5,134.5 67.5,133.5C 66.5,133.5 65.5,133.5 64.5,133.5C 64.5076,139.208 64.0076,139.541 63,134.5C 62.4387,135.022 61.772,135.355 61,135.5C 58.6781,133.678 56.5114,131.678 54.5,129.5C 51.924,131.878 50.924,134.878 51.5,138.5C 50.5233,141.287 50.19,144.287 50.5,147.5C 49.1667,147.5 47.8333,147.5 46.5,147.5C 45.5,147.5 44.5,147.5 43.5,147.5C 43.3134,142.461 41.4801,138.128 38,134.5C 37.3486,132.765 37.5153,131.098 38.5,129.5C 36.9223,128.702 35.2556,128.202 33.5,128C 32.1772,127.184 31.5106,126.017 31.5,124.5C 33.1136,125.271 34.6136,126.271 36,127.5C 37.6424,127.022 38.8091,126.022 39.5,124.5C 40.1667,123.833 40.8333,123.167 41.5,122.5C 43.1986,122.38 44.8653,122.046 46.5,121.5C 47.6473,121.818 48.4806,122.484 49,123.5C 55.9546,120.478 63.1213,119.478 70.5,120.5 Z"/></g>
<g><path style="opacity:1" fill="#3c3a36" d="M 83.5,114.5 C 83.4828,116.565 83.1495,118.565 82.5,120.5C 81.912,124.085 79.912,126.419 76.5,127.5C 76.5,127.167 76.5,126.833 76.5,126.5C 77.7942,125.71 78.9609,124.71 80,123.5C 80.5053,120.135 81.672,117.135 83.5,114.5 Z"/></g>
<g><path style="opacity:1" fill="#c9b494" d="M 59.5,126.5 C 61.1667,126.5 62.8333,126.5 64.5,126.5C 64.5,127.833 64.5,129.167 64.5,130.5C 61.9272,130.852 59.5938,130.352 57.5,129C 58.756,128.583 59.4226,127.75 59.5,126.5 Z"/></g>
<g><path style="opacity:1" fill="#e0cab3" d="M 67.5,136.5 C 67.5023,138.831 66.669,140.831 65,142.5C 64.0853,141.672 63.4186,140.672 63,139.5C 62.1666,143.836 63.9999,145.836 68.5,145.5C 68.1667,146.167 67.8333,146.833 67.5,147.5C 62.8333,147.5 58.1667,147.5 53.5,147.5C 52.8333,144.5 52.1667,141.5 51.5,138.5C 50.924,134.878 51.924,131.878 54.5,129.5C 56.5114,131.678 58.6781,133.678 61,135.5C 61.772,135.355 62.4387,135.022 63,134.5C 64.0076,139.541 64.5076,139.208 64.5,133.5C 65.5,133.5 66.5,133.5 67.5,133.5C 67.5,134.5 67.5,135.5 67.5,136.5 Z"/></g>
<g><path style="opacity:1" fill="#121211" d="M 5.5,135.5 C 13.1032,138.289 13.4365,141.956 6.5,146.5C 0.337068,142.971 0.00373517,139.305 5.5,135.5 Z"/></g>
<g><path style="opacity:1" fill="#68452b" d="M 22.5,122.5 C 22.3444,125.066 22.6777,127.566 23.5,130C 20.8173,137.082 18.8173,144.249 17.5,151.5C 17.631,150.761 17.4643,150.094 17,149.5C 16.454,152.379 15.6206,155.046 14.5,157.5C 13.8761,157.083 13.5427,156.416 13.5,155.5C 15.1069,147.833 16.4403,140.167 17.5,132.5C 17.4565,144.071 18.1232,144.237 19.5,133C 18.1741,130.369 18.3408,127.869 20,125.5C 20.2022,127.256 20.7022,128.922 21.5,130.5C 21.8333,130.333 22.1667,130.167 22.5,130C 21.1857,127.395 21.1857,124.895 22.5,122.5 Z"/></g>
<g><path style="opacity:1" fill="#121211" d="M 101.5,135.5 C 109.103,138.289 109.437,141.956 102.5,146.5C 96.3371,142.971 96.0037,139.305 101.5,135.5 Z"/></g>
<g><path style="opacity:1" fill="#090908" d="M 86.5,141.5 C 87.7082,140.218 89.0416,140.218 90.5,141.5C 88.7752,144.783 89.4419,145.783 92.5,144.5C 96.1471,145.486 97.3138,147.819 96,151.5C 93.9495,153.888 91.6162,155.888 89,157.5C 83.48,155.68 80.8134,152.013 81,146.5C 82.7889,144.771 84.9556,144.104 87.5,144.5C 87.7373,143.209 87.404,142.209 86.5,141.5 Z"/></g>
<g><path style="opacity:1" fill="#383834" d="M 56.5,140.5 C 58.1033,140.312 59.4366,140.812 60.5,142C 58.5,144 56.5,144 54.5,142C 55.4158,141.722 56.0825,141.222 56.5,140.5 Z"/></g>
<g><path style="opacity:1" fill="#66625a" d="M 67.5,136.5 C 68.4767,139.287 68.81,142.287 68.5,145.5C 63.9999,145.836 62.1666,143.836 63,139.5C 63.4186,140.672 64.0853,141.672 65,142.5C 66.669,140.831 67.5023,138.831 67.5,136.5 Z"/></g>
<g><path style="opacity:1" fill="#87491a" d="M 51.5,138.5 C 52.1667,141.5 52.8333,144.5 53.5,147.5C 58.1667,147.5 62.8333,147.5 67.5,147.5C 68.1667,147.5 68.8333,147.5 69.5,147.5C 69.5,148.167 69.5,148.833 69.5,149.5C 68.0502,151.986 66.8835,151.653 66,148.5C 65.5172,149.448 65.3505,150.448 65.5,151.5C 64.5,151.5 63.5,151.5 62.5,151.5C 62.5,150.5 62.5,149.5 62.5,148.5C 61.1667,148.5 59.8333,148.5 58.5,148.5C 57.8333,152.5 57.1667,152.5 56.5,148.5C 55.1667,148.5 53.8333,148.5 52.5,148.5C 51.9965,152.335 50.9965,152.335 49.5,148.5C 48.2807,149.263 47.2807,150.263 46.5,151.5C 45.3744,150.192 45.3744,148.858 46.5,147.5C 47.8333,147.5 49.1667,147.5 50.5,147.5C 50.19,144.287 50.5233,141.287 51.5,138.5 Z"/></g>
<g><path style="opacity:1" fill="#111010" d="M 3.5,150.5 C 5.48032,151.848 6.64698,153.848 7,156.5C 8.01725,154.624 8.85059,152.624 9.5,150.5C 10.8333,155.167 10.8333,159.833 9.5,164.5C 8.84095,158.619 7.67429,158.286 6,163.5C 5.28248,164.451 4.44915,164.617 3.5,164C 4.71849,162.562 5.38515,160.895 5.5,159C 4.72452,156.178 4.05785,153.344 3.5,150.5 Z"/></g>
<g><path style="opacity:1" fill="#111010" d="M 99.5,150.5 C 101.48,151.848 102.647,153.848 103,156.5C 104.017,154.624 104.851,152.624 105.5,150.5C 106.833,155.167 106.833,159.833 105.5,164.5C 104.841,158.619 103.674,158.286 102,163.5C 101.282,164.451 100.449,164.617 99.5,164C 100.718,162.562 101.385,160.895 101.5,159C 100.725,156.178 100.058,153.344 99.5,150.5 Z"/></g>
<g><path style="opacity:1" fill="#d0c20e" d="M 43.5,147.5 C 44.5,147.5 45.5,147.5 46.5,147.5C 45.3744,148.858 45.3744,150.192 46.5,151.5C 47.2807,150.263 48.2807,149.263 49.5,148.5C 50.9965,152.335 51.9965,152.335 52.5,148.5C 53.8333,148.5 55.1667,148.5 56.5,148.5C 57.1667,152.5 57.8333,152.5 58.5,148.5C 59.8333,148.5 61.1667,148.5 62.5,148.5C 62.5,149.5 62.5,150.5 62.5,151.5C 63.5,151.5 64.5,151.5 65.5,151.5C 65.3505,150.448 65.5172,149.448 66,148.5C 66.8835,151.653 68.0502,151.986 69.5,149.5C 70.1667,149.5 70.5,149.833 70.5,150.5C 70.7497,152.674 71.7497,154.341 73.5,155.5C 72.1779,155.33 71.0113,155.663 70,156.5C 69.5172,155.552 69.3505,154.552 69.5,153.5C 65.6942,153.412 62.0275,154.079 58.5,155.5C 59.3256,156.451 59.4922,157.451 59,158.5C 58,157.167 57,157.167 56,158.5C 55.5078,157.451 55.6744,156.451 56.5,155.5C 52.6197,154.205 48.7864,154.205 45,155.5C 43.117,154.347 42.2837,152.681 42.5,150.5C 42.5569,149.391 42.8902,148.391 43.5,147.5 Z"/></g>
<g><path style="opacity:1" fill="#675a30" d="M 70.5,150.5 C 72.8056,150.993 75.139,151.326 77.5,151.5C 77.5,152.5 77.5,153.5 77.5,154.5C 76.0413,154.433 74.7079,154.766 73.5,155.5C 71.7497,154.341 70.7497,152.674 70.5,150.5 Z"/></g>
<g><path style="opacity:1" fill="#8d5829" d="M 42.5,150.5 C 42.2837,152.681 43.117,154.347 45,155.5C 48.7864,154.205 52.6197,154.205 56.5,155.5C 55.6744,156.451 55.5078,157.451 56,158.5C 57,157.167 58,157.167 59,158.5C 59.4922,157.451 59.3256,156.451 58.5,155.5C 62.0275,154.079 65.6942,153.412 69.5,153.5C 69.3505,154.552 69.5172,155.552 70,156.5C 71.0113,155.663 72.1779,155.33 73.5,155.5C 74.9395,157.588 75.6061,159.921 75.5,162.5C 73.8333,162.5 72.1667,162.5 70.5,162.5C 70.5,161.167 70.5,159.833 70.5,158.5C 69.1779,158.67 68.0113,158.337 67,157.5C 66.6155,159.197 66.7822,160.863 67.5,162.5C 66.1667,162.5 64.8333,162.5 63.5,162.5C 62.0593,157.361 61.0593,157.361 60.5,162.5C 59.8333,162.5 59.1667,162.5 58.5,162.5C 57.8333,158.5 57.1667,158.5 56.5,162.5C 56.1667,162.5 55.8333,162.5 55.5,162.5C 53.5465,156.006 51.8798,156.006 50.5,162.5C 49.1667,162.5 47.8333,162.5 46.5,162.5C 46.8186,160.25 46.3186,158.25 45,156.5C 44.2917,157.381 43.4584,158.047 42.5,158.5C 42.6068,156.621 42.1068,156.288 41,157.5C 39.4807,159.139 39.314,160.806 40.5,162.5C 39.8333,162.5 39.1667,162.5 38.5,162.5C 38.22,159.728 38.8866,157.228 40.5,155C 39.062,154.781 37.7287,154.281 36.5,153.5C 38.5531,152.473 40.5531,151.473 42.5,150.5 Z"/></g>
<g><path style="opacity:1" fill="#e6ddcd" d="M 46.5,162.5 C 45.1667,162.5 43.8333,162.5 42.5,162.5C 42.5,161.167 42.5,159.833 42.5,158.5C 43.4584,158.047 44.2917,157.381 45,156.5C 46.3186,158.25 46.8186,160.25 46.5,162.5 Z"/></g>
<g><path style="opacity:1" fill="#e4e8d6" d="M 55.5,162.5 C 53.8333,162.5 52.1667,162.5 50.5,162.5C 51.8798,156.006 53.5465,156.006 55.5,162.5 Z"/></g>
<g><path style="opacity:1" fill="#ebe5d5" d="M 70.5,162.5 C 69.5,162.5 68.5,162.5 67.5,162.5C 66.7822,160.863 66.6155,159.197 67,157.5C 68.0113,158.337 69.1779,158.67 70.5,158.5C 70.5,159.833 70.5,161.167 70.5,162.5 Z"/></g>
<g><path style="opacity:1" fill="#d98b15" d="M 42.5,158.5 C 42.5,159.833 42.5,161.167 42.5,162.5C 41.8333,162.5 41.1667,162.5 40.5,162.5C 39.314,160.806 39.4807,159.139 41,157.5C 42.1068,156.288 42.6068,156.621 42.5,158.5 Z"/></g>
<g><path style="opacity:1" fill="#f2db07" d="M 58.5,162.5 C 57.8333,162.5 57.1667,162.5 56.5,162.5C 57.1667,158.5 57.8333,158.5 58.5,162.5 Z"/></g>
<g><path style="opacity:1" fill="#e3e4d3" d="M 63.5,162.5 C 62.5,162.5 61.5,162.5 60.5,162.5C 61.0593,157.361 62.0593,157.361 63.5,162.5 Z"/></g>
<g><path style="opacity:1" fill="#1d1a1a" d="M 17.5,151.5 C 18.2474,155.141 17.5808,158.641 15.5,162C 23.1594,162.5 30.8261,162.666 38.5,162.5C 39.1667,162.5 39.8333,162.5 40.5,162.5C 41.1667,162.5 41.8333,162.5 42.5,162.5C 43.8333,162.5 45.1667,162.5 46.5,162.5C 47.8333,162.5 49.1667,162.5 50.5,162.5C 52.1667,162.5 53.8333,162.5 55.5,162.5C 55.8333,162.5 56.1667,162.5 56.5,162.5C 57.1667,162.5 57.8333,162.5 58.5,162.5C 59.1667,162.5 59.8333,162.5 60.5,162.5C 61.5,162.5 62.5,162.5 63.5,162.5C 64.8333,162.5 66.1667,162.5 67.5,162.5C 68.5,162.5 69.5,162.5 70.5,162.5C 72.1667,162.5 73.8333,162.5 75.5,162.5C 68.1952,163.773 47.5285,163.94 13.5,163C 14.4061,161.301 14.7394,159.467 14.5,157.5C 15.6206,155.046 16.454,152.379 17,149.5C 17.4643,150.094 17.631,150.761 17.5,151.5 Z"/></g>
</svg>
